<?xml version="1.0" encoding="utf-8" standalone="no"?>
<!DOCTYPE svg PUBLIC "-//W3C//DTD SVG 1.1//EN"
  "http://www.w3.org/Graphics/SVG/1.1/DTD/svg11.dtd">
<svg xmlns:xlink="http://www.w3.org/1999/xlink" width="1296pt" height="288pt" viewBox="0 0 1296 288" xmlns="http://www.w3.org/2000/svg" version="1.1">
 <metadata>
  <rdf:RDF xmlns:dc="http://purl.org/dc/elements/1.1/" xmlns:cc="http://creativecommons.org/ns#" xmlns:rdf="http://www.w3.org/1999/02/22-rdf-syntax-ns#">
   <cc:Work>
    <dc:type rdf:resource="http://purl.org/dc/dcmitype/StillImage"/>
    <dc:date>2024-03-24T07:48:19.179217</dc:date>
    <dc:format>image/svg+xml</dc:format>
    <dc:creator>
     <cc:Agent>
      <dc:title>Matplotlib v3.8.0, https://matplotlib.org/</dc:title>
     </cc:Agent>
    </dc:creator>
   </cc:Work>
  </rdf:RDF>
 </metadata>
 <defs>
  <style type="text/css">*{stroke-linejoin: round; stroke-linecap: butt}</style>
 </defs>
 <g id="figure_1">
  <g id="patch_1">
   <path d="M 0 288 
L 1296 288 
L 1296 0 
L 0 0 
z
" style="fill: #ffffff"/>
  </g>
  <g id="axes_1">
   <g id="patch_2">
    <path d="M 162 256.32 
L 1166.4 256.32 
L 1166.4 34.56 
L 162 34.56 
z
" style="fill: #ffffff"/>
   </g>
   <g id="matplotlib.axis_1">
    <g id="xtick_1">
     <g id="line2d_1">
      <defs>
       <path id="m4cc72e7ea5" d="M 0 0 
L 0 3.5 
" style="stroke: #000000; stroke-width: 0.8"/>
      </defs>
      <g>
       <use xlink:href="#m4cc72e7ea5" x="240.979031" y="256.32" style="stroke: #000000; stroke-width: 0.8"/>
      </g>
     </g>
     <g id="text_1">
      <!-- 2021-05 -->
      <g transform="translate(220.087625 270.918437) scale(0.1 -0.1)">
       <defs>
        <path id="DejaVuSans-32" d="M 1228 531 
L 3431 531 
L 3431 0 
L 469 0 
L 469 531 
Q 828 903 1448 1529 
Q 2069 2156 2228 2338 
Q 2531 2678 2651 2914 
Q 2772 3150 2772 3378 
Q 2772 3750 2511 3984 
Q 2250 4219 1831 4219 
Q 1534 4219 1204 4116 
Q 875 4013 500 3803 
L 500 4441 
Q 881 4594 1212 4672 
Q 1544 4750 1819 4750 
Q 2544 4750 2975 4387 
Q 3406 4025 3406 3419 
Q 3406 3131 3298 2873 
Q 3191 2616 2906 2266 
Q 2828 2175 2409 1742 
Q 1991 1309 1228 531 
z
" transform="scale(0.015625)"/>
        <path id="DejaVuSans-30" d="M 2034 4250 
Q 1547 4250 1301 3770 
Q 1056 3291 1056 2328 
Q 1056 1369 1301 889 
Q 1547 409 2034 409 
Q 2525 409 2770 889 
Q 3016 1369 3016 2328 
Q 3016 3291 2770 3770 
Q 2525 4250 2034 4250 
z
M 2034 4750 
Q 2819 4750 3233 4129 
Q 3647 3509 3647 2328 
Q 3647 1150 3233 529 
Q 2819 -91 2034 -91 
Q 1250 -91 836 529 
Q 422 1150 422 2328 
Q 422 3509 836 4129 
Q 1250 4750 2034 4750 
z
" transform="scale(0.015625)"/>
        <path id="DejaVuSans-31" d="M 794 531 
L 1825 531 
L 1825 4091 
L 703 3866 
L 703 4441 
L 1819 4666 
L 2450 4666 
L 2450 531 
L 3481 531 
L 3481 0 
L 794 0 
L 794 531 
z
" transform="scale(0.015625)"/>
        <path id="DejaVuSans-2d" d="M 313 2009 
L 1997 2009 
L 1997 1497 
L 313 1497 
L 313 2009 
z
" transform="scale(0.015625)"/>
        <path id="DejaVuSans-35" d="M 691 4666 
L 3169 4666 
L 3169 4134 
L 1269 4134 
L 1269 2991 
Q 1406 3038 1543 3061 
Q 1681 3084 1819 3084 
Q 2600 3084 3056 2656 
Q 3513 2228 3513 1497 
Q 3513 744 3044 326 
Q 2575 -91 1722 -91 
Q 1428 -91 1123 -41 
Q 819 9 494 109 
L 494 744 
Q 775 591 1075 516 
Q 1375 441 1709 441 
Q 2250 441 2565 725 
Q 2881 1009 2881 1497 
Q 2881 1984 2565 2268 
Q 2250 2553 1709 2553 
Q 1456 2553 1204 2497 
Q 953 2441 691 2322 
L 691 4666 
z
" transform="scale(0.015625)"/>
       </defs>
       <use xlink:href="#DejaVuSans-32"/>
       <use xlink:href="#DejaVuSans-30" x="63.623047"/>
       <use xlink:href="#DejaVuSans-32" x="127.246094"/>
       <use xlink:href="#DejaVuSans-31" x="190.869141"/>
       <use xlink:href="#DejaVuSans-2d" x="254.492188"/>
       <use xlink:href="#DejaVuSans-30" x="290.576172"/>
       <use xlink:href="#DejaVuSans-35" x="354.199219"/>
      </g>
     </g>
    </g>
    <g id="xtick_2">
     <g id="line2d_2">
      <g>
       <use xlink:href="#m4cc72e7ea5" x="343.451825" y="256.32" style="stroke: #000000; stroke-width: 0.8"/>
      </g>
     </g>
     <g id="text_2">
      <!-- 2021-09 -->
      <g transform="translate(322.560419 270.918437) scale(0.1 -0.1)">
       <defs>
        <path id="DejaVuSans-39" d="M 703 97 
L 703 672 
Q 941 559 1184 500 
Q 1428 441 1663 441 
Q 2288 441 2617 861 
Q 2947 1281 2994 2138 
Q 2813 1869 2534 1725 
Q 2256 1581 1919 1581 
Q 1219 1581 811 2004 
Q 403 2428 403 3163 
Q 403 3881 828 4315 
Q 1253 4750 1959 4750 
Q 2769 4750 3195 4129 
Q 3622 3509 3622 2328 
Q 3622 1225 3098 567 
Q 2575 -91 1691 -91 
Q 1453 -91 1209 -44 
Q 966 3 703 97 
z
M 1959 2075 
Q 2384 2075 2632 2365 
Q 2881 2656 2881 3163 
Q 2881 3666 2632 3958 
Q 2384 4250 1959 4250 
Q 1534 4250 1286 3958 
Q 1038 3666 1038 3163 
Q 1038 2656 1286 2365 
Q 1534 2075 1959 2075 
z
" transform="scale(0.015625)"/>
       </defs>
       <use xlink:href="#DejaVuSans-32"/>
       <use xlink:href="#DejaVuSans-30" x="63.623047"/>
       <use xlink:href="#DejaVuSans-32" x="127.246094"/>
       <use xlink:href="#DejaVuSans-31" x="190.869141"/>
       <use xlink:href="#DejaVuSans-2d" x="254.492188"/>
       <use xlink:href="#DejaVuSans-30" x="290.576172"/>
       <use xlink:href="#DejaVuSans-39" x="354.199219"/>
      </g>
     </g>
    </g>
    <g id="xtick_3">
     <g id="line2d_3">
      <g>
       <use xlink:href="#m4cc72e7ea5" x="445.126219" y="256.32" style="stroke: #000000; stroke-width: 0.8"/>
      </g>
     </g>
     <g id="text_3">
      <!-- 2022-01 -->
      <g transform="translate(424.234813 270.918437) scale(0.1 -0.1)">
       <use xlink:href="#DejaVuSans-32"/>
       <use xlink:href="#DejaVuSans-30" x="63.623047"/>
       <use xlink:href="#DejaVuSans-32" x="127.246094"/>
       <use xlink:href="#DejaVuSans-32" x="190.869141"/>
       <use xlink:href="#DejaVuSans-2d" x="254.492188"/>
       <use xlink:href="#DejaVuSans-30" x="290.576172"/>
       <use xlink:href="#DejaVuSans-31" x="354.199219"/>
      </g>
     </g>
    </g>
    <g id="xtick_4">
     <g id="line2d_4">
      <g>
       <use xlink:href="#m4cc72e7ea5" x="545.064964" y="256.32" style="stroke: #000000; stroke-width: 0.8"/>
      </g>
     </g>
     <g id="text_4">
      <!-- 2022-05 -->
      <g transform="translate(524.173557 270.918437) scale(0.1 -0.1)">
       <use xlink:href="#DejaVuSans-32"/>
       <use xlink:href="#DejaVuSans-30" x="63.623047"/>
       <use xlink:href="#DejaVuSans-32" x="127.246094"/>
       <use xlink:href="#DejaVuSans-32" x="190.869141"/>
       <use xlink:href="#DejaVuSans-2d" x="254.492188"/>
       <use xlink:href="#DejaVuSans-30" x="290.576172"/>
       <use xlink:href="#DejaVuSans-35" x="354.199219"/>
      </g>
     </g>
    </g>
    <g id="xtick_5">
     <g id="line2d_5">
      <g>
       <use xlink:href="#m4cc72e7ea5" x="647.537757" y="256.32" style="stroke: #000000; stroke-width: 0.8"/>
      </g>
     </g>
     <g id="text_5">
      <!-- 2022-09 -->
      <g transform="translate(626.646351 270.918437) scale(0.1 -0.1)">
       <use xlink:href="#DejaVuSans-32"/>
       <use xlink:href="#DejaVuSans-30" x="63.623047"/>
       <use xlink:href="#DejaVuSans-32" x="127.246094"/>
       <use xlink:href="#DejaVuSans-32" x="190.869141"/>
       <use xlink:href="#DejaVuSans-2d" x="254.492188"/>
       <use xlink:href="#DejaVuSans-30" x="290.576172"/>
       <use xlink:href="#DejaVuSans-39" x="354.199219"/>
      </g>
     </g>
    </g>
    <g id="xtick_6">
     <g id="line2d_6">
      <g>
       <use xlink:href="#m4cc72e7ea5" x="749.212152" y="256.32" style="stroke: #000000; stroke-width: 0.8"/>
      </g>
     </g>
     <g id="text_6">
      <!-- 2023-01 -->
      <g transform="translate(728.320745 270.918437) scale(0.1 -0.1)">
       <defs>
        <path id="DejaVuSans-33" d="M 2597 2516 
Q 3050 2419 3304 2112 
Q 3559 1806 3559 1356 
Q 3559 666 3084 287 
Q 2609 -91 1734 -91 
Q 1441 -91 1130 -33 
Q 819 25 488 141 
L 488 750 
Q 750 597 1062 519 
Q 1375 441 1716 441 
Q 2309 441 2620 675 
Q 2931 909 2931 1356 
Q 2931 1769 2642 2001 
Q 2353 2234 1838 2234 
L 1294 2234 
L 1294 2753 
L 1863 2753 
Q 2328 2753 2575 2939 
Q 2822 3125 2822 3475 
Q 2822 3834 2567 4026 
Q 2313 4219 1838 4219 
Q 1578 4219 1281 4162 
Q 984 4106 628 3988 
L 628 4550 
Q 988 4650 1302 4700 
Q 1616 4750 1894 4750 
Q 2613 4750 3031 4423 
Q 3450 4097 3450 3541 
Q 3450 3153 3228 2886 
Q 3006 2619 2597 2516 
z
" transform="scale(0.015625)"/>
       </defs>
       <use xlink:href="#DejaVuSans-32"/>
       <use xlink:href="#DejaVuSans-30" x="63.623047"/>
       <use xlink:href="#DejaVuSans-32" x="127.246094"/>
       <use xlink:href="#DejaVuSans-33" x="190.869141"/>
       <use xlink:href="#DejaVuSans-2d" x="254.492188"/>
       <use xlink:href="#DejaVuSans-30" x="290.576172"/>
       <use xlink:href="#DejaVuSans-31" x="354.199219"/>
      </g>
     </g>
    </g>
    <g id="xtick_7">
     <g id="line2d_7">
      <g>
       <use xlink:href="#m4cc72e7ea5" x="849.150896" y="256.32" style="stroke: #000000; stroke-width: 0.8"/>
      </g>
     </g>
     <g id="text_7">
      <!-- 2023-05 -->
      <g transform="translate(828.25949 270.918437) scale(0.1 -0.1)">
       <use xlink:href="#DejaVuSans-32"/>
       <use xlink:href="#DejaVuSans-30" x="63.623047"/>
       <use xlink:href="#DejaVuSans-32" x="127.246094"/>
       <use xlink:href="#DejaVuSans-33" x="190.869141"/>
       <use xlink:href="#DejaVuSans-2d" x="254.492188"/>
       <use xlink:href="#DejaVuSans-30" x="290.576172"/>
       <use xlink:href="#DejaVuSans-35" x="354.199219"/>
      </g>
     </g>
    </g>
    <g id="xtick_8">
     <g id="line2d_8">
      <g>
       <use xlink:href="#m4cc72e7ea5" x="951.623689" y="256.32" style="stroke: #000000; stroke-width: 0.8"/>
      </g>
     </g>
     <g id="text_8">
      <!-- 2023-09 -->
      <g transform="translate(930.732283 270.918437) scale(0.1 -0.1)">
       <use xlink:href="#DejaVuSans-32"/>
       <use xlink:href="#DejaVuSans-30" x="63.623047"/>
       <use xlink:href="#DejaVuSans-32" x="127.246094"/>
       <use xlink:href="#DejaVuSans-33" x="190.869141"/>
       <use xlink:href="#DejaVuSans-2d" x="254.492188"/>
       <use xlink:href="#DejaVuSans-30" x="290.576172"/>
       <use xlink:href="#DejaVuSans-39" x="354.199219"/>
      </g>
     </g>
    </g>
    <g id="xtick_9">
     <g id="line2d_9">
      <g>
       <use xlink:href="#m4cc72e7ea5" x="1053.298084" y="256.32" style="stroke: #000000; stroke-width: 0.8"/>
      </g>
     </g>
     <g id="text_9">
      <!-- 2024-01 -->
      <g transform="translate(1032.406678 270.918437) scale(0.1 -0.1)">
       <defs>
        <path id="DejaVuSans-34" d="M 2419 4116 
L 825 1625 
L 2419 1625 
L 2419 4116 
z
M 2253 4666 
L 3047 4666 
L 3047 1625 
L 3713 1625 
L 3713 1100 
L 3047 1100 
L 3047 0 
L 2419 0 
L 2419 1100 
L 313 1100 
L 313 1709 
L 2253 4666 
z
" transform="scale(0.015625)"/>
       </defs>
       <use xlink:href="#DejaVuSans-32"/>
       <use xlink:href="#DejaVuSans-30" x="63.623047"/>
       <use xlink:href="#DejaVuSans-32" x="127.246094"/>
       <use xlink:href="#DejaVuSans-34" x="190.869141"/>
       <use xlink:href="#DejaVuSans-2d" x="254.492188"/>
       <use xlink:href="#DejaVuSans-30" x="290.576172"/>
       <use xlink:href="#DejaVuSans-31" x="354.199219"/>
      </g>
     </g>
    </g>
    <g id="xtick_10">
     <g id="line2d_10">
      <g>
       <use xlink:href="#m4cc72e7ea5" x="1154.06994" y="256.32" style="stroke: #000000; stroke-width: 0.8"/>
      </g>
     </g>
     <g id="text_10">
      <!-- 2024-05 -->
      <g transform="translate(1133.178534 270.918437) scale(0.1 -0.1)">
       <use xlink:href="#DejaVuSans-32"/>
       <use xlink:href="#DejaVuSans-30" x="63.623047"/>
       <use xlink:href="#DejaVuSans-32" x="127.246094"/>
       <use xlink:href="#DejaVuSans-34" x="190.869141"/>
       <use xlink:href="#DejaVuSans-2d" x="254.492188"/>
       <use xlink:href="#DejaVuSans-30" x="290.576172"/>
       <use xlink:href="#DejaVuSans-35" x="354.199219"/>
      </g>
     </g>
    </g>
    <g id="text_11">
     <!-- Date -->
     <g transform="translate(652.249219 284.596563) scale(0.1 -0.1)">
      <defs>
       <path id="DejaVuSans-44" d="M 1259 4147 
L 1259 519 
L 2022 519 
Q 2988 519 3436 956 
Q 3884 1394 3884 2338 
Q 3884 3275 3436 3711 
Q 2988 4147 2022 4147 
L 1259 4147 
z
M 628 4666 
L 1925 4666 
Q 3281 4666 3915 4102 
Q 4550 3538 4550 2338 
Q 4550 1131 3912 565 
Q 3275 0 1925 0 
L 628 0 
L 628 4666 
z
" transform="scale(0.015625)"/>
       <path id="DejaVuSans-61" d="M 2194 1759 
Q 1497 1759 1228 1600 
Q 959 1441 959 1056 
Q 959 750 1161 570 
Q 1363 391 1709 391 
Q 2188 391 2477 730 
Q 2766 1069 2766 1631 
L 2766 1759 
L 2194 1759 
z
M 3341 1997 
L 3341 0 
L 2766 0 
L 2766 531 
Q 2569 213 2275 61 
Q 1981 -91 1556 -91 
Q 1019 -91 701 211 
Q 384 513 384 1019 
Q 384 1609 779 1909 
Q 1175 2209 1959 2209 
L 2766 2209 
L 2766 2266 
Q 2766 2663 2505 2880 
Q 2244 3097 1772 3097 
Q 1472 3097 1187 3025 
Q 903 2953 641 2809 
L 641 3341 
Q 956 3463 1253 3523 
Q 1550 3584 1831 3584 
Q 2591 3584 2966 3190 
Q 3341 2797 3341 1997 
z
" transform="scale(0.015625)"/>
       <path id="DejaVuSans-74" d="M 1172 4494 
L 1172 3500 
L 2356 3500 
L 2356 3053 
L 1172 3053 
L 1172 1153 
Q 1172 725 1289 603 
Q 1406 481 1766 481 
L 2356 481 
L 2356 0 
L 1766 0 
Q 1100 0 847 248 
Q 594 497 594 1153 
L 594 3053 
L 172 3053 
L 172 3500 
L 594 3500 
L 594 4494 
L 1172 4494 
z
" transform="scale(0.015625)"/>
       <path id="DejaVuSans-65" d="M 3597 1894 
L 3597 1613 
L 953 1613 
Q 991 1019 1311 708 
Q 1631 397 2203 397 
Q 2534 397 2845 478 
Q 3156 559 3463 722 
L 3463 178 
Q 3153 47 2828 -22 
Q 2503 -91 2169 -91 
Q 1331 -91 842 396 
Q 353 884 353 1716 
Q 353 2575 817 3079 
Q 1281 3584 2069 3584 
Q 2775 3584 3186 3129 
Q 3597 2675 3597 1894 
z
M 3022 2063 
Q 3016 2534 2758 2815 
Q 2500 3097 2075 3097 
Q 1594 3097 1305 2825 
Q 1016 2553 972 2059 
L 3022 2063 
z
" transform="scale(0.015625)"/>
      </defs>
      <use xlink:href="#DejaVuSans-44"/>
      <use xlink:href="#DejaVuSans-61" x="77.001953"/>
      <use xlink:href="#DejaVuSans-74" x="138.28125"/>
      <use xlink:href="#DejaVuSans-65" x="177.490234"/>
     </g>
    </g>
   </g>
   <g id="matplotlib.axis_2">
    <g id="ytick_1">
     <g id="line2d_11">
      <defs>
       <path id="mc05160e500" d="M 0 0 
L -3.5 0 
" style="stroke: #0000ff; stroke-width: 0.8"/>
      </defs>
      <g>
       <use xlink:href="#mc05160e500" x="162" y="222.011615" style="fill: #0000ff; stroke: #0000ff; stroke-width: 0.8"/>
      </g>
     </g>
     <g id="text_12">
      <!-- 15 -->
      <g style="fill: #0000ff" transform="translate(142.275 225.810833) scale(0.1 -0.1)">
       <use xlink:href="#DejaVuSans-31"/>
       <use xlink:href="#DejaVuSans-35" x="63.623047"/>
      </g>
     </g>
    </g>
    <g id="ytick_2">
     <g id="line2d_12">
      <g>
       <use xlink:href="#mc05160e500" x="162" y="180.666251" style="fill: #0000ff; stroke: #0000ff; stroke-width: 0.8"/>
      </g>
     </g>
     <g id="text_13">
      <!-- 20 -->
      <g style="fill: #0000ff" transform="translate(142.275 184.46547) scale(0.1 -0.1)">
       <use xlink:href="#DejaVuSans-32"/>
       <use xlink:href="#DejaVuSans-30" x="63.623047"/>
      </g>
     </g>
    </g>
    <g id="ytick_3">
     <g id="line2d_13">
      <g>
       <use xlink:href="#mc05160e500" x="162" y="139.320888" style="fill: #0000ff; stroke: #0000ff; stroke-width: 0.8"/>
      </g>
     </g>
     <g id="text_14">
      <!-- 25 -->
      <g style="fill: #0000ff" transform="translate(142.275 143.120107) scale(0.1 -0.1)">
       <use xlink:href="#DejaVuSans-32"/>
       <use xlink:href="#DejaVuSans-35" x="63.623047"/>
      </g>
     </g>
    </g>
    <g id="ytick_4">
     <g id="line2d_14">
      <g>
       <use xlink:href="#mc05160e500" x="162" y="97.975525" style="fill: #0000ff; stroke: #0000ff; stroke-width: 0.8"/>
      </g>
     </g>
     <g id="text_15">
      <!-- 30 -->
      <g style="fill: #0000ff" transform="translate(142.275 101.774744) scale(0.1 -0.1)">
       <use xlink:href="#DejaVuSans-33"/>
       <use xlink:href="#DejaVuSans-30" x="63.623047"/>
      </g>
     </g>
    </g>
    <g id="ytick_5">
     <g id="line2d_15">
      <g>
       <use xlink:href="#mc05160e500" x="162" y="56.630162" style="fill: #0000ff; stroke: #0000ff; stroke-width: 0.8"/>
      </g>
     </g>
     <g id="text_16">
      <!-- 35 -->
      <g style="fill: #0000ff" transform="translate(142.275 60.42938) scale(0.1 -0.1)">
       <use xlink:href="#DejaVuSans-33"/>
       <use xlink:href="#DejaVuSans-35" x="63.623047"/>
      </g>
     </g>
    </g>
    <g id="text_17">
     <!-- VIX -->
     <g style="fill: #0000ff" transform="translate(136.195312 153.760312) rotate(-90) scale(0.1 -0.1)">
      <defs>
       <path id="DejaVuSans-56" d="M 1831 0 
L 50 4666 
L 709 4666 
L 2188 738 
L 3669 4666 
L 4325 4666 
L 2547 0 
L 1831 0 
z
" transform="scale(0.015625)"/>
       <path id="DejaVuSans-49" d="M 628 4666 
L 1259 4666 
L 1259 0 
L 628 0 
L 628 4666 
z
" transform="scale(0.015625)"/>
       <path id="DejaVuSans-58" d="M 403 4666 
L 1081 4666 
L 2241 2931 
L 3406 4666 
L 4084 4666 
L 2584 2425 
L 4184 0 
L 3506 0 
L 2194 1984 
L 872 0 
L 191 0 
L 1856 2491 
L 403 4666 
z
" transform="scale(0.015625)"/>
      </defs>
      <use xlink:href="#DejaVuSans-56"/>
      <use xlink:href="#DejaVuSans-49" x="68.408203"/>
      <use xlink:href="#DejaVuSans-58" x="97.900391"/>
     </g>
    </g>
   </g>
   <g id="line2d_16">
    <path d="M 207.654545 189.92762 
L 208.487658 178.185536 
L 209.32077 170.743358 
L 210.153882 182.23738 
L 210.986994 190.092989 
L 213.48633 174.54714 
L 214.319443 183.891185 
L 215.152555 185.627698 
L 215.985667 202.744676 
L 219.318115 197.948614 
L 220.151228 196.212101 
L 220.98434 204.150419 
L 221.817452 205.886917 
L 222.650564 208.036877 
L 225.1499 206.217687 
L 225.983013 208.367648 
L 226.816125 205.556162 
L 227.649237 209.029173 
L 228.482349 211.675274 
L 230.981685 203.075431 
L 231.814798 191.581425 
L 232.64791 201.338933 
L 233.481022 191.333363 
L 234.314134 202.744676 
L 236.81347 200.181268 
L 237.646583 200.842793 
L 238.479695 203.158123 
L 239.312807 200.42933 
L 240.145919 192.160257 
L 242.645255 194.640989 
L 243.478368 184.966173 
L 244.31148 187.694966 
L 245.144592 193.979463 
L 245.977704 208.036877 
L 248.47704 183.477737 
L 249.310153 165.451156 
L 250.143265 117.903989 
L 251.809489 190.506452 
L 254.308825 182.981597 
L 255.141938 169.585693 
L 255.97505 162.63967 
L 256.808162 175.125972 
L 257.641274 179.425894 
L 260.14061 193.896771 
L 260.973723 190.258374 
L 261.806835 202.496598 
L 262.639947 207.62343 
L 263.473059 207.458045 
L 266.805508 198.031307 
L 267.63862 201.504318 
L 268.471732 196.873626 
L 269.304844 210.269531 
L 271.80418 210.269531 
L 272.637293 204.894637 
L 273.470405 198.114 
L 274.303517 212.915632 
L 275.136629 216.636721 
L 277.635965 210.517609 
L 278.469078 205.308084 
L 279.30219 195.964039 
L 280.135302 199.271665 
L 280.968414 174.877894 
L 283.46775 198.114 
L 284.300863 208.284955 
L 286.800199 216.884791 
L 289.299536 215.727118 
L 290.132648 213.577157 
L 290.96576 215.148285 
L 291.798872 218.042464 
L 292.631984 221.432782 
L 295.964433 210.104146 
L 296.797545 212.088721 
L 297.630657 188.935324 
L 298.463769 212.254106 
L 300.963106 212.336799 
L 301.796218 204.481174 
L 302.62933 211.013749 
L 303.462442 205.390777 
L 304.295554 193.483308 
L 306.794891 159.99357 
L 307.628003 182.898905 
L 308.461115 197.948614 
L 309.294227 199.767805 
L 310.127339 203.819648 
L 312.626676 200.677408 
L 313.459788 185.958453 
L 314.2929 194.640989 
L 315.126012 199.685112 
L 315.959124 195.219821 
L 318.458461 185.131558 
L 319.291573 196.873626 
L 320.124685 197.452475 
L 320.957797 203.158123 
L 321.790909 212.502184 
L 324.290246 207.788815 
L 325.123358 207.209967 
L 326.789582 217.13286 
L 327.622694 218.290534 
L 330.122031 212.750246 
L 330.955143 197.948614 
L 331.788255 167.68381 
L 332.621367 166.856899 
L 333.454479 192.57372 
L 335.953816 204.233112 
L 336.786928 203.654279 
L 337.62004 207.209967 
L 338.453152 190.258374 
L 339.286264 210.517609 
L 341.785601 212.171414 
L 342.618713 209.773391 
L 343.451825 212.832939 
L 344.284937 210.352223 
L 345.118049 210.352223 
L 348.450498 196.046732 
L 349.28361 197.535167 
L 350.116722 190.589145 
L 350.949834 172.810626 
L 353.449171 185.87576 
L 354.282283 185.131558 
L 355.115395 195.715961 
L 355.948507 191.498732 
L 356.781619 173.968307 
L 359.280956 133.449854 
L 360.114068 144.61309 
L 360.94718 173.472151 
L 361.780292 191.994888 
L 362.613404 199.271665 
L 365.112741 190.9199 
L 365.945853 153.791765 
L 366.778965 159.49743 
L 367.612077 154.701368 
L 368.445189 171.570268 
L 370.944526 156.189804 
L 371.777638 169.916463 
L 372.61075 172.397179 
L 373.443862 184.470017 
L 374.276974 190.837207 
L 376.776311 180.666251 
L 377.609423 181.906609 
L 378.442535 191.912195 
L 379.275647 206.631134 
L 380.108759 211.261826 
L 382.608096 211.179134 
L 383.441208 216.223265 
L 384.27432 217.959771 
L 385.107432 221.928922 
L 385.940544 218.455911 
L 388.439881 220.027039 
L 389.272993 213.907927 
L 390.106105 205.638855 
L 390.939217 209.359928 
L 391.772329 211.592581 
L 394.271666 210.352223 
L 395.104778 213.494464 
L 395.93789 221.184704 
L 396.771002 218.373226 
L 397.604114 209.773391 
L 400.138164 203.654279 
L 400.971276 199.023587 
L 401.804388 191.167977 
L 402.6375 200.015883 
L 403.470612 211.344503 
L 405.969949 209.690698 
L 406.803061 210.682978 
L 407.636173 204.563866 
L 408.469285 200.594715 
L 409.302397 197.948614 
L 411.801734 187.529581 
L 412.634846 185.793083 
L 413.467958 192.408335 
L 415.134182 109.386838 
L 417.633519 156.189804 
L 419.299743 88.714157 
L 420.132855 114.927118 
L 420.965967 92.435246 
L 423.465304 121.294307 
L 424.298416 165.037709 
L 425.131528 181.493162 
L 425.96464 167.601117 
L 426.797752 191.498732 
L 429.297089 178.102843 
L 430.130201 165.037709 
L 430.963313 186.537285 
L 431.796425 175.952882 
L 432.629537 167.68381 
L 435.128874 156.934006 
L 435.961986 172.314486 
L 436.795098 191.994888 
L 437.62821 197.535167 
L 440.960659 199.850497 
L 441.793771 201.008163 
L 442.626883 205.886917 
L 443.459995 202.744676 
L 444.293107 203.654279 
L 446.792444 208.781095 
L 447.625556 206.217687 
L 448.458668 182.898905 
L 449.29178 183.891185 
L 450.124892 190.9199 
L 452.624229 185.627698 
L 453.457341 193.814078 
L 454.290453 200.346637 
L 455.123565 178.102843 
L 455.956677 187.364196 
L 459.289126 157.595531 
L 460.122238 148.830319 
L 460.95535 134.442134 
L 461.788462 107.484955 
L 464.287799 98.802435 
L 465.120911 88.383402 
L 465.954023 81.76815 
L 466.787135 93.923681 
L 467.620247 117.325156 
L 470.119584 140.726631 
L 470.952696 164.458877 
L 471.785808 163.383888 
L 472.61892 144.695782 
L 473.452032 154.039843 
L 475.951369 157.016699 
L 477.617593 180.997022 
L 479.283817 119.805872 
L 481.783154 111.784877 
L 482.616266 133.532531 
L 483.449378 145.191922 
L 484.28249 113.604067 
L 485.115602 116.580938 
L 488.448051 107.815726 
L 489.281163 89.541067 
L 490.114275 95.329424 
L 490.947387 117.903989 
L 493.446724 96.735167 
L 494.279836 70.522206 
L 495.112948 91.856413 
L 495.94606 94.006374 
L 499.278509 44.64 
L 500.111621 55.555173 
L 500.944733 77.716291 
L 501.777845 96.073642 
L 502.610957 91.77372 
L 505.075581 83.339263 
L 505.908693 99.381268 
L 506.741805 125.511536 
L 507.574917 133.780609 
L 508.408029 148.664933 
L 510.907366 151.476419 
L 511.740478 156.355173 
L 512.57359 151.145665 
L 513.406702 166.856899 
L 514.239814 173.968307 
L 516.739151 183.725815 
L 517.572263 189.762234 
L 518.405375 186.206531 
L 519.238487 176.035575 
L 520.071599 183.725815 
L 522.570936 192.491028 
L 523.404048 172.149101 
L 524.23716 163.301196 
L 525.070272 167.849195 
L 525.903384 171.074128 
L 528.402721 144.530397 
L 529.235833 145.44 
L 530.068945 165.616542 
L 530.902057 158.339749 
L 534.234506 162.722363 
L 535.067618 169.337615 
L 535.90073 178.020151 
L 536.733842 158.505134 
L 537.566954 112.777173 
L 540.066291 122.617358 
L 540.899403 68.868385 
L 541.732515 84.745005 
L 542.565627 98.058218 
L 543.398739 69.860665 
L 545.898076 78.625894 
L 546.731188 104.177329 
L 547.5643 135.847877 
L 548.397412 88.052631 
L 549.230524 96.404397 
L 551.729861 58.69743 
L 552.562973 73.250984 
L 553.396085 76.806688 
L 554.229197 83.339263 
L 555.062309 107.31957 
L 557.561646 118.896284 
L 558.394758 130.224905 
L 559.22787 90.037223 
L 560.060982 103.350419 
L 560.894094 102.688894 
L 563.393431 110.544519 
L 564.226543 102.523509 
L 565.059655 111.454106 
L 565.892767 118.648207 
L 566.725879 133.367162 
L 570.058328 129.480687 
L 570.89144 133.615224 
L 571.724552 141.636234 
L 572.557664 141.057386 
L 575.057001 138.742056 
L 575.890113 147.424576 
L 576.723225 147.920731 
L 577.556337 130.307598 
L 578.389449 116.580938 
L 580.888786 64.733849 
L 581.721898 75.731731 
L 582.55501 101.117766 
L 583.388122 73.581754 
L 584.221234 88.63148 
L 587.553683 96.404397 
L 588.386795 106.658045 
L 589.219907 105.83115 
L 590.053019 120.88086 
L 592.552356 123.19619 
L 593.385468 111.536799 
L 594.21858 113.19062 
L 595.051692 108.642636 
L 595.884804 125.263458 
L 599.217253 118.317436 
L 600.050365 125.015396 
L 600.883477 130.39029 
L 601.716589 142.297759 
L 604.215926 129.646073 
L 605.049038 120.384704 
L 606.715262 127.74419 
L 607.548374 145.688078 
L 610.047711 136.840173 
L 610.880823 143.455424 
L 611.713935 148.582256 
L 612.547047 154.94943 
L 613.380159 155.610956 
L 615.879496 152.882162 
L 616.712608 141.884296 
L 617.54572 153.874458 
L 619.211944 169.668385 
L 621.711281 157.182084 
L 622.544393 148.168793 
L 623.377505 164.541553 
L 624.210617 168.758782 
L 625.043729 171.156821 
L 627.543066 169.99914 
L 628.376178 166.029989 
L 629.20929 182.816212 
L 630.042402 179.012431 
L 630.875514 184.55271 
L 633.374851 181.079699 
L 634.207963 183.229659 
L 635.041075 181.493162 
L 635.874187 184.304648 
L 639.206636 149.243782 
L 640.039748 146.680358 
L 640.87286 157.347469 
L 641.705972 165.947296 
L 642.539084 134.690212 
L 645.038421 129.315318 
L 645.871533 129.315318 
L 647.537757 134.690212 
L 648.370869 135.43443 
L 651.703318 123.526961 
L 652.53643 142.297759 
L 653.369542 150.814894 
L 654.202654 157.595531 
L 656.701991 148.664933 
L 657.535103 120.550089 
L 658.368215 129.728765 
L 659.201327 128.819162 
L 660.034439 128.5711 
L 662.533776 133.036391 
L 663.366888 121.459692 
L 664.2 114.596363 
L 665.033112 119.888564 
L 665.866224 98.63705 
L 668.365561 79.287435 
L 669.198673 76.475949 
L 670.031785 96.487089 
L 670.864897 82.76043 
L 671.698009 84.57962 
L 674.197346 97.148614 
L 675.030458 105.665765 
L 675.86357 109.965687 
L 676.696682 93.675603 
L 677.529794 86.729581 
L 680.029131 77.716291 
L 680.862243 67.958782 
L 681.695355 68.454938 
L 682.528467 81.93352 
L 683.361579 81.271994 
L 685.860916 86.646888 
L 686.694028 93.840989 
L 687.52714 91.691028 
L 688.360252 98.14091 
L 689.193364 100.538933 
L 691.692701 99.215883 
L 692.525813 110.709904 
L 693.358925 120.467397 
L 694.192037 119.55781 
L 695.025149 133.119084 
L 697.524486 132.044111 
L 698.357598 132.622944 
L 699.19071 132.209481 
L 700.023822 136.840173 
L 700.856934 143.041977 
L 703.390984 144.695782 
L 704.224096 134.855581 
L 705.057208 130.307598 
L 705.89032 151.476419 
L 706.723432 159.828185 
L 709.222769 149.822614 
L 710.055881 143.124654 
L 710.888993 146.680358 
L 711.722105 148.168793 
L 712.555217 154.866738 
L 715.054554 161.151235 
L 716.720778 177.772073 
L 718.387002 176.531715 
L 720.886339 162.391608 
L 721.719451 165.037709 
L 722.552563 175.87019 
L 724.218787 188.439184 
L 726.718124 174.464447 
L 727.551236 162.722363 
L 728.384348 158.505134 
L 729.21746 161.730067 
L 730.050572 157.264776 
L 732.549909 139.320888 
L 733.383021 159.580122 
L 734.216133 171.239514 
L 735.049245 157.264776 
L 735.882357 159.001274 
L 738.381694 160.655095 
L 739.214806 168.428028 
L 740.047918 180.087419 
L 740.88103 164.376184 
L 741.714142 173.472151 
L 745.046591 167.022285 
L 745.879703 162.970441 
L 746.712815 168.758782 
L 747.545927 166.856899 
L 750.878376 156.685944 
L 751.711488 164.045413 
L 752.5446 160.32434 
L 753.377712 171.322206 
L 755.877049 164.376184 
L 756.710161 175.87019 
L 757.543273 171.652961 
L 758.376385 190.341067 
L 759.209497 194.310218 
L 762.541946 185.958453 
L 763.375058 177.854765 
L 764.20817 176.36633 
L 765.041282 181.906609 
L 767.540619 182.23738 
L 768.373731 187.281503 
L 769.206843 188.273799 
L 770.039955 191.167977 
L 770.873067 192.987168 
L 773.372404 181.162391 
L 774.205516 185.627698 
L 775.038628 198.279369 
L 775.87174 191.167977 
L 776.704852 194.475603 
L 779.204189 185.37962 
L 780.037301 191.74681 
L 781.703525 174.795217 
L 782.536637 176.283637 
L 785.035974 177.854765 
L 785.869086 189.679542 
L 786.702198 195.302514 
L 787.53531 179.260508 
L 788.368422 180.500866 
L 791.700871 156.934006 
L 792.533983 161.730067 
L 793.367095 171.239514 
L 794.200207 166.856899 
L 797.532656 174.877894 
L 798.365768 175.87019 
L 800.031992 193.152553 
L 802.531329 192.160257 
L 803.364441 184.05657 
L 804.197553 188.025721 
L 805.030665 159.083967 
L 805.863777 140.974709 
L 808.328401 126.751894 
L 809.161513 149.822614 
L 809.994625 129.89415 
L 810.827737 155.941726 
L 811.660849 135.103659 
L 814.160186 146.349603 
L 814.993298 169.254938 
L 815.82641 161.978145 
L 816.659522 159.083967 
L 817.492634 166.278067 
L 819.991971 175.704805 
L 820.825083 180.914329 
L 821.658195 187.943028 
L 822.491307 188.769939 
L 823.324419 191.41604 
L 825.823756 192.656413 
L 826.656868 188.935324 
L 827.48998 188.273799 
L 828.323092 193.896771 
L 832.488653 188.108414 
L 833.321765 188.191106 
L 834.154877 198.858218 
L 834.987989 204.894637 
L 837.487326 205.886917 
L 838.320438 206.879212 
L 839.15355 209.938776 
L 839.986662 204.067726 
L 840.819774 207.375352 
L 843.319111 206.383072 
L 844.152223 190.9199 
L 844.985335 190.258374 
L 845.818447 205.225391 
L 846.651559 215.56174 
L 849.150896 213.081017 
L 849.984008 199.023587 
L 850.81712 194.392911 
L 851.650232 179.922034 
L 852.483344 203.902341 
L 854.982681 205.638855 
L 855.815793 199.602435 
L 856.648905 205.969609 
L 857.482017 206.052302 
L 858.315129 205.225391 
L 860.814466 204.481174 
L 861.647578 197.287089 
L 862.48069 206.548442 
L 863.313802 213.329095 
L 864.146914 207.044598 
L 866.646251 203.736972 
L 867.479363 192.821782 
L 868.312475 180.418174 
L 869.145587 187.777659 
L 869.978699 197.617844 
L 873.311148 201.669703 
L 874.14426 197.700537 
L 874.977372 216.636721 
L 875.810484 225.319241 
L 878.309821 224.244268 
L 879.142933 230.61145 
L 879.976045 230.776835 
L 880.809157 233.174866 
L 881.642269 231.68643 
L 884.141606 221.928922 
L 884.974718 225.236556 
L 885.80783 231.272975 
L 886.640942 226.146151 
L 887.474054 234.084461 
L 890.806503 231.272975 
L 891.639615 236.895947 
L 892.472727 239.293978 
L 893.305839 234.911371 
L 895.805176 228.213419 
L 896.638288 232.430648 
L 897.4714 234.994056 
L 898.304512 234.084461 
L 899.137624 233.671006 
L 901.636961 233.836391 
L 903.303185 228.792252 
L 904.136297 218.373226 
L 904.969409 223.417358 
L 907.468746 221.432782 
L 908.301858 223.334665 
L 909.13497 234.084461 
L 909.968082 233.505628 
L 910.801194 235.738274 
L 913.300531 234.580609 
L 914.133643 236.069037 
L 914.966755 232.265263 
L 915.799867 230.36338 
L 916.632979 233.588313 
L 919.132316 231.024905 
L 919.965428 231.43836 
L 920.79854 236.97864 
L 921.631652 226.890369 
L 922.464764 235.820967 
L 924.964101 233.340243 
L 925.797213 230.85952 
L 926.630325 212.998324 
L 927.463437 214.404067 
L 928.296549 204.646559 
L 930.795886 215.644425 
L 931.628998 213.825235 
L 932.46211 214.073305 
L 933.295222 214.9829 
L 934.128334 223.334665 
L 936.627671 223.50005 
L 937.460783 209.938776 
L 938.293895 207.29266 
L 939.127007 198.114 
L 939.960119 202.992754 
L 942.459456 204.398497 
L 943.292568 205.721547 
L 944.12568 213.907927 
L 944.958792 203.819648 
L 945.791904 216.388643 
L 948.291241 221.350089 
L 949.957465 231.272975 
L 950.790577 233.836391 
L 951.623689 237.805542 
L 954.956138 230.197995 
L 955.78925 226.559606 
L 956.622362 226.973061 
L 957.455474 231.603738 
L 959.954811 231.9345 
L 960.787923 228.378804 
L 962.454147 240.038196 
L 963.287259 232.017193 
L 965.786596 230.280687 
L 966.619708 229.371092 
L 967.45282 220.853942 
L 968.285932 201.008163 
L 969.119044 203.819648 
L 971.618381 206.30038 
L 972.451493 189.431464 
L 973.284605 195.385206 
L 974.117717 202.661983 
L 974.950829 201.173548 
L 977.450166 200.42933 
L 978.283278 182.485442 
L 979.11639 192.408335 
L 979.949502 193.152553 
L 980.782614 201.75238 
L 983.281951 199.685112 
L 984.115063 205.225391 
L 984.948175 212.998324 
L 985.781287 208.036877 
L 986.614399 186.289223 
L 989.113736 203.736972 
L 989.946848 198.196692 
L 990.77996 187.116134 
L 991.613072 169.089553 
L 992.446184 166.526145 
L 994.945521 177.606688 
L 995.778633 189.183402 
L 996.611745 179.095123 
L 997.444857 175.043279 
L 998.277969 170.164525 
L 1000.777306 182.73352 
L 1001.610418 196.046732 
L 1003.276642 216.554028 
L 1004.109754 222.755832 
L 1006.643804 222.92121 
L 1007.476916 223.582735 
L 1008.310028 226.559606 
L 1009.14314 219.613584 
L 1009.976252 228.874944 
L 1012.475589 223.99619 
L 1013.308701 228.957637 
L 1014.141813 228.792252 
L 1014.974925 227.634587 
L 1015.808037 231.9345 
L 1018.307374 235.159441 
L 1019.140486 235.655581 
L 1019.973598 239.790118 
L 1021.639822 243.015059 
L 1024.139159 241.113176 
L 1024.972271 241.113176 
L 1025.805383 238.715145 
L 1026.638495 239.211285 
L 1027.471607 241.609316 
L 1029.970944 237.888235 
L 1030.804056 239.790118 
L 1031.637168 238.79783 
L 1032.47028 238.053612 
L 1033.303393 243.924654 
L 1035.802729 241.609316 
L 1036.635841 246.24 
L 1037.468953 245.247712 
L 1038.302065 242.849681 
L 1039.135178 244.503494 
L 1041.634514 242.188148 
L 1042.467626 242.436226 
L 1043.300738 233.009481 
L 1044.13385 233.174866 
L 1044.966963 238.30169 
L 1048.299411 238.632453 
L 1049.132523 243.263129 
L 1049.965635 242.932366 
L 1050.798748 243.097751 
L 1054.131196 236.895947 
L 1054.964308 229.949925 
L 1055.79742 229.205707 
L 1056.630533 235.655581 
L 1059.129869 237.888235 
L 1059.962981 240.534335 
L 1060.796093 241.113176 
L 1061.629205 243.180444 
L 1062.462318 241.030483 
L 1065.794766 231.603738 
L 1066.627878 223.74812 
L 1067.46099 229.205707 
L 1068.294103 236.069037 
L 1070.793439 236.97864 
L 1071.626551 242.270841 
L 1072.459663 237.392087 
L 1073.292775 234.828679 
L 1074.125888 236.399799 
L 1076.625224 233.588313 
L 1077.458336 235.986344 
L 1078.291448 227.386509 
L 1079.12456 231.272975 
L 1079.957673 231.521045 
L 1082.457009 233.009481 
L 1083.290121 238.053612 
L 1084.123233 239.955503 
L 1084.956345 240.286265 
L 1085.789458 239.128592 
L 1088.288794 230.85952 
L 1089.121906 214.9829 
L 1089.955018 227.138439 
L 1090.78813 230.197995 
L 1091.621243 228.296112 
L 1094.953691 218.538603 
L 1095.786803 219.200129 
L 1097.453028 232.347955 
L 1099.952364 232.430648 
L 1100.785476 234.994056 
L 1101.618588 231.603738 
L 1102.4517 235.242134 
L 1103.284813 237.640165 
L 1105.784149 234.497916 
L 1106.617261 226.476914 
L 1107.450373 226.146151 
L 1108.283485 226.642299 
L 1109.116598 224.161575 
L 1111.581221 220.192416 
L 1112.414333 231.603738 
L 1113.247445 232.347955 
L 1114.080557 226.973061 
L 1114.91367 226.890369 
L 1117.413006 227.551894 
L 1118.246118 231.769123 
L 1119.07923 238.218997 
L 1119.912342 239.211285 
L 1120.745455 238.053612 
L 1120.745455 238.053612 
" clip-path="url(#pfa219eb3fc)" style="fill: none; stroke: #0000ff; stroke-width: 1.5; stroke-linecap: square"/>
   </g>
   <g id="patch_3">
    <path d="M 162 256.32 
L 162 34.56 
" style="fill: none; stroke: #000000; stroke-width: 0.8; stroke-linejoin: miter; stroke-linecap: square"/>
   </g>
   <g id="patch_4">
    <path d="M 1166.4 256.32 
L 1166.4 34.56 
" style="fill: none; stroke: #000000; stroke-width: 0.8; stroke-linejoin: miter; stroke-linecap: square"/>
   </g>
   <g id="patch_5">
    <path d="M 162 256.32 
L 1166.4 256.32 
" style="fill: none; stroke: #000000; stroke-width: 0.8; stroke-linejoin: miter; stroke-linecap: square"/>
   </g>
   <g id="patch_6">
    <path d="M 162 34.56 
L 1166.4 34.56 
" style="fill: none; stroke: #000000; stroke-width: 0.8; stroke-linejoin: miter; stroke-linecap: square"/>
   </g>
  </g>
  <g id="axes_2">
   <g id="matplotlib.axis_3">
    <g id="ytick_6">
     <g id="line2d_17">
      <defs>
       <path id="m12cf24e347" d="M 0 0 
L 3.5 0 
" style="stroke: #000000; stroke-width: 0.8"/>
      </defs>
      <g>
       <use xlink:href="#m12cf24e347" x="1166.4" y="249.356103" style="stroke: #000000; stroke-width: 0.8"/>
      </g>
     </g>
     <g id="text_18">
      <!-- 0.0 -->
      <g transform="translate(1173.4 253.155321) scale(0.1 -0.1)">
       <defs>
        <path id="DejaVuSans-2e" d="M 684 794 
L 1344 794 
L 1344 0 
L 684 0 
L 684 794 
z
" transform="scale(0.015625)"/>
       </defs>
       <use xlink:href="#DejaVuSans-30"/>
       <use xlink:href="#DejaVuSans-2e" x="63.623047"/>
       <use xlink:href="#DejaVuSans-30" x="95.410156"/>
      </g>
     </g>
    </g>
    <g id="ytick_7">
     <g id="line2d_18">
      <g>
       <use xlink:href="#m12cf24e347" x="1166.4" y="208.321589" style="stroke: #000000; stroke-width: 0.8"/>
      </g>
     </g>
     <g id="text_19">
      <!-- 0.2 -->
      <g transform="translate(1173.4 212.120808) scale(0.1 -0.1)">
       <use xlink:href="#DejaVuSans-30"/>
       <use xlink:href="#DejaVuSans-2e" x="63.623047"/>
       <use xlink:href="#DejaVuSans-32" x="95.410156"/>
      </g>
     </g>
    </g>
    <g id="ytick_8">
     <g id="line2d_19">
      <g>
       <use xlink:href="#m12cf24e347" x="1166.4" y="167.287076" style="stroke: #000000; stroke-width: 0.8"/>
      </g>
     </g>
     <g id="text_20">
      <!-- 0.4 -->
      <g transform="translate(1173.4 171.086295) scale(0.1 -0.1)">
       <use xlink:href="#DejaVuSans-30"/>
       <use xlink:href="#DejaVuSans-2e" x="63.623047"/>
       <use xlink:href="#DejaVuSans-34" x="95.410156"/>
      </g>
     </g>
    </g>
    <g id="ytick_9">
     <g id="line2d_20">
      <g>
       <use xlink:href="#m12cf24e347" x="1166.4" y="126.252563" style="stroke: #000000; stroke-width: 0.8"/>
      </g>
     </g>
     <g id="text_21">
      <!-- 0.6 -->
      <g transform="translate(1173.4 130.051782) scale(0.1 -0.1)">
       <defs>
        <path id="DejaVuSans-36" d="M 2113 2584 
Q 1688 2584 1439 2293 
Q 1191 2003 1191 1497 
Q 1191 994 1439 701 
Q 1688 409 2113 409 
Q 2538 409 2786 701 
Q 3034 994 3034 1497 
Q 3034 2003 2786 2293 
Q 2538 2584 2113 2584 
z
M 3366 4563 
L 3366 3988 
Q 3128 4100 2886 4159 
Q 2644 4219 2406 4219 
Q 1781 4219 1451 3797 
Q 1122 3375 1075 2522 
Q 1259 2794 1537 2939 
Q 1816 3084 2150 3084 
Q 2853 3084 3261 2657 
Q 3669 2231 3669 1497 
Q 3669 778 3244 343 
Q 2819 -91 2113 -91 
Q 1303 -91 875 529 
Q 447 1150 447 2328 
Q 447 3434 972 4092 
Q 1497 4750 2381 4750 
Q 2619 4750 2861 4703 
Q 3103 4656 3366 4563 
z
" transform="scale(0.015625)"/>
       </defs>
       <use xlink:href="#DejaVuSans-30"/>
       <use xlink:href="#DejaVuSans-2e" x="63.623047"/>
       <use xlink:href="#DejaVuSans-36" x="95.410156"/>
      </g>
     </g>
    </g>
    <g id="ytick_10">
     <g id="line2d_21">
      <g>
       <use xlink:href="#m12cf24e347" x="1166.4" y="85.21805" style="stroke: #000000; stroke-width: 0.8"/>
      </g>
     </g>
     <g id="text_22">
      <!-- 0.8 -->
      <g transform="translate(1173.4 89.017269) scale(0.1 -0.1)">
       <defs>
        <path id="DejaVuSans-38" d="M 2034 2216 
Q 1584 2216 1326 1975 
Q 1069 1734 1069 1313 
Q 1069 891 1326 650 
Q 1584 409 2034 409 
Q 2484 409 2743 651 
Q 3003 894 3003 1313 
Q 3003 1734 2745 1975 
Q 2488 2216 2034 2216 
z
M 1403 2484 
Q 997 2584 770 2862 
Q 544 3141 544 3541 
Q 544 4100 942 4425 
Q 1341 4750 2034 4750 
Q 2731 4750 3128 4425 
Q 3525 4100 3525 3541 
Q 3525 3141 3298 2862 
Q 3072 2584 2669 2484 
Q 3125 2378 3379 2068 
Q 3634 1759 3634 1313 
Q 3634 634 3220 271 
Q 2806 -91 2034 -91 
Q 1263 -91 848 271 
Q 434 634 434 1313 
Q 434 1759 690 2068 
Q 947 2378 1403 2484 
z
M 1172 3481 
Q 1172 3119 1398 2916 
Q 1625 2713 2034 2713 
Q 2441 2713 2670 2916 
Q 2900 3119 2900 3481 
Q 2900 3844 2670 4047 
Q 2441 4250 2034 4250 
Q 1625 4250 1398 4047 
Q 1172 3844 1172 3481 
z
" transform="scale(0.015625)"/>
       </defs>
       <use xlink:href="#DejaVuSans-30"/>
       <use xlink:href="#DejaVuSans-2e" x="63.623047"/>
       <use xlink:href="#DejaVuSans-38" x="95.410156"/>
      </g>
     </g>
    </g>
    <g id="ytick_11">
     <g id="line2d_22">
      <g>
       <use xlink:href="#m12cf24e347" x="1166.4" y="44.183537" style="stroke: #000000; stroke-width: 0.8"/>
      </g>
     </g>
     <g id="text_23">
      <!-- 1.0 -->
      <g transform="translate(1173.4 47.982756) scale(0.1 -0.1)">
       <use xlink:href="#DejaVuSans-31"/>
       <use xlink:href="#DejaVuSans-2e" x="63.623047"/>
       <use xlink:href="#DejaVuSans-30" x="95.410156"/>
      </g>
     </g>
    </g>
    <g id="text_24">
     <!-- Indicator -->
     <g transform="translate(1200.901563 167.535313) rotate(-90) scale(0.1 -0.1)">
      <defs>
       <path id="DejaVuSans-6e" d="M 3513 2113 
L 3513 0 
L 2938 0 
L 2938 2094 
Q 2938 2591 2744 2837 
Q 2550 3084 2163 3084 
Q 1697 3084 1428 2787 
Q 1159 2491 1159 1978 
L 1159 0 
L 581 0 
L 581 3500 
L 1159 3500 
L 1159 2956 
Q 1366 3272 1645 3428 
Q 1925 3584 2291 3584 
Q 2894 3584 3203 3211 
Q 3513 2838 3513 2113 
z
" transform="scale(0.015625)"/>
       <path id="DejaVuSans-64" d="M 2906 2969 
L 2906 4863 
L 3481 4863 
L 3481 0 
L 2906 0 
L 2906 525 
Q 2725 213 2448 61 
Q 2172 -91 1784 -91 
Q 1150 -91 751 415 
Q 353 922 353 1747 
Q 353 2572 751 3078 
Q 1150 3584 1784 3584 
Q 2172 3584 2448 3432 
Q 2725 3281 2906 2969 
z
M 947 1747 
Q 947 1113 1208 752 
Q 1469 391 1925 391 
Q 2381 391 2643 752 
Q 2906 1113 2906 1747 
Q 2906 2381 2643 2742 
Q 2381 3103 1925 3103 
Q 1469 3103 1208 2742 
Q 947 2381 947 1747 
z
" transform="scale(0.015625)"/>
       <path id="DejaVuSans-69" d="M 603 3500 
L 1178 3500 
L 1178 0 
L 603 0 
L 603 3500 
z
M 603 4863 
L 1178 4863 
L 1178 4134 
L 603 4134 
L 603 4863 
z
" transform="scale(0.015625)"/>
       <path id="DejaVuSans-63" d="M 3122 3366 
L 3122 2828 
Q 2878 2963 2633 3030 
Q 2388 3097 2138 3097 
Q 1578 3097 1268 2742 
Q 959 2388 959 1747 
Q 959 1106 1268 751 
Q 1578 397 2138 397 
Q 2388 397 2633 464 
Q 2878 531 3122 666 
L 3122 134 
Q 2881 22 2623 -34 
Q 2366 -91 2075 -91 
Q 1284 -91 818 406 
Q 353 903 353 1747 
Q 353 2603 823 3093 
Q 1294 3584 2113 3584 
Q 2378 3584 2631 3529 
Q 2884 3475 3122 3366 
z
" transform="scale(0.015625)"/>
       <path id="DejaVuSans-6f" d="M 1959 3097 
Q 1497 3097 1228 2736 
Q 959 2375 959 1747 
Q 959 1119 1226 758 
Q 1494 397 1959 397 
Q 2419 397 2687 759 
Q 2956 1122 2956 1747 
Q 2956 2369 2687 2733 
Q 2419 3097 1959 3097 
z
M 1959 3584 
Q 2709 3584 3137 3096 
Q 3566 2609 3566 1747 
Q 3566 888 3137 398 
Q 2709 -91 1959 -91 
Q 1206 -91 779 398 
Q 353 888 353 1747 
Q 353 2609 779 3096 
Q 1206 3584 1959 3584 
z
" transform="scale(0.015625)"/>
       <path id="DejaVuSans-72" d="M 2631 2963 
Q 2534 3019 2420 3045 
Q 2306 3072 2169 3072 
Q 1681 3072 1420 2755 
Q 1159 2438 1159 1844 
L 1159 0 
L 581 0 
L 581 3500 
L 1159 3500 
L 1159 2956 
Q 1341 3275 1631 3429 
Q 1922 3584 2338 3584 
Q 2397 3584 2469 3576 
Q 2541 3569 2628 3553 
L 2631 2963 
z
" transform="scale(0.015625)"/>
      </defs>
      <use xlink:href="#DejaVuSans-49"/>
      <use xlink:href="#DejaVuSans-6e" x="29.492188"/>
      <use xlink:href="#DejaVuSans-64" x="92.871094"/>
      <use xlink:href="#DejaVuSans-69" x="156.347656"/>
      <use xlink:href="#DejaVuSans-63" x="184.130859"/>
      <use xlink:href="#DejaVuSans-61" x="239.111328"/>
      <use xlink:href="#DejaVuSans-74" x="300.390625"/>
      <use xlink:href="#DejaVuSans-6f" x="339.599609"/>
      <use xlink:href="#DejaVuSans-72" x="400.78125"/>
     </g>
    </g>
   </g>
   <g id="line2d_23">
    <path d="M 207.654545 232.393293 
L 208.487658 214.49633 
L 209.32077 179.972939 
L 210.153882 219.924482 
L 210.986994 230.029538 
L 213.48633 194.086114 
L 214.319443 220.781529 
L 215.152555 221.356969 
L 215.985667 234.229502 
L 219.318115 228.699098 
L 220.151228 225.228741 
L 220.98434 230.211374 
L 221.817452 229.000985 
L 222.650564 230.99936 
L 225.1499 230.328837 
L 225.983013 231.001585 
L 226.816125 228.34389 
L 228.482349 235.052692 
L 230.981685 225.522048 
L 231.814798 170.002437 
L 232.64791 217.1051 
L 233.481022 143.325772 
L 234.314134 216.723347 
L 236.81347 194.467878 
L 237.646583 189.83523 
L 238.479695 196.611042 
L 239.312807 167.427061 
L 240.145919 99.135373 
L 242.645255 117.995201 
L 243.478368 62.418712 
L 244.31148 71.795991 
L 245.144592 113.370881 
L 245.977704 223.592726 
L 248.47704 52.948043 
L 249.310153 44.763411 
L 250.143265 44.711493 
L 250.976377 47.577115 
L 251.809489 83.771024 
L 254.308825 63.409952 
L 255.141938 52.237802 
L 255.97505 50.949528 
L 257.641274 65.647787 
L 260.14061 139.027712 
L 260.973723 118.568915 
L 261.806835 207.254676 
L 262.639947 223.672727 
L 263.473059 223.435385 
L 266.805508 183.0546 
L 267.63862 199.18897 
L 268.471732 170.171998 
L 269.304844 225.954683 
L 271.80418 225.688854 
L 272.637293 210.214332 
L 273.470405 172.498778 
L 274.303517 229.866641 
L 275.136629 233.670687 
L 277.635965 222.52805 
L 278.469078 200.834987 
L 279.30219 128.567494 
L 280.135302 148.663333 
L 280.968414 59.168166 
L 283.46775 144.813649 
L 284.300863 204.002106 
L 285.133975 211.951447 
L 285.967087 222.146192 
L 286.800199 229.533366 
L 289.299536 223.155603 
L 290.132648 212.135825 
L 290.96576 216.984491 
L 291.798872 227.937778 
L 292.631984 236.323538 
L 295.964433 177.538568 
L 296.797545 188.237382 
L 297.630657 50.37682 
L 298.463769 185.492952 
L 300.963106 184.260012 
L 301.796218 113.885519 
L 302.62933 169.070946 
L 304.295554 56.237771 
L 306.794891 45.342427 
L 307.628003 50.806375 
L 308.461115 75.516325 
L 309.294227 83.161273 
L 310.127339 112.394698 
L 312.626676 96.38641 
L 313.459788 54.372863 
L 314.2929 73.028703 
L 315.126012 97.603841 
L 315.959124 75.190492 
L 318.458461 52.822478 
L 319.291573 82.82151 
L 320.124685 90.225433 
L 320.957797 139.541321 
L 321.790909 211.900673 
L 324.290246 183.479795 
L 325.123358 181.282047 
L 325.95647 214.390316 
L 326.789582 231.024042 
L 327.622694 233.619371 
L 330.122031 217.016848 
L 330.955143 107.107787 
L 331.788255 47.045367 
L 332.621367 48.139139 
L 333.454479 85.85167 
L 335.953816 177.696469 
L 336.786928 173.490762 
L 337.62004 199.167808 
L 338.453152 80.746491 
L 339.286264 215.012361 
L 341.785601 221.186414 
L 342.618713 206.175538 
L 343.451825 217.335281 
L 344.284937 200.915248 
L 345.118049 198.351218 
L 348.450498 86.462662 
L 349.28361 94.452903 
L 350.116722 64.232038 
L 350.949834 48.039096 
L 353.449171 57.409928 
L 354.282283 56.434422 
L 355.115395 85.557051 
L 355.948507 69.413343 
L 356.781619 49.855965 
L 359.280956 46.191204 
L 360.114068 48.149899 
L 360.94718 56.795077 
L 361.780292 103.912598 
L 362.613404 163.72774 
L 365.112741 107.906691 
L 365.945853 51.571063 
L 366.778965 54.682837 
L 367.612077 53.624229 
L 368.445189 62.275322 
L 370.944526 54.978036 
L 371.777638 64.020453 
L 372.61075 68.601454 
L 374.276974 158.234209 
L 376.776311 98.403756 
L 377.609423 115.561385 
L 378.442535 190.743351 
L 379.275647 231.657056 
L 380.108759 235.741868 
L 382.608096 235.641628 
L 383.441208 237.845401 
L 384.27432 237.855396 
L 385.107432 238.420184 
L 385.940544 235.106578 
L 388.439881 234.388235 
L 389.272993 228.477749 
L 390.106105 218.817024 
L 390.939217 223.089745 
L 391.772329 222.185021 
L 394.271666 176.94384 
L 395.104778 187.935137 
L 395.93789 212.060145 
L 396.771002 198.193732 
L 397.604114 139.191424 
L 400.138164 100.864557 
L 401.804388 66.976768 
L 402.6375 87.660492 
L 403.470612 163.751715 
L 405.969949 150.43351 
L 406.803061 158.235848 
L 407.636173 108.018871 
L 408.469285 82.156194 
L 409.302397 69.556465 
L 411.801734 48.267729 
L 412.634846 46.429431 
L 413.467958 52.67359 
L 415.134182 44.64 
L 417.633519 47.277766 
L 418.466631 46.69382 
L 419.299743 47.086745 
L 420.132855 49.474566 
L 420.965967 49.76631 
L 423.465304 52.794173 
L 424.298416 60.851837 
L 425.131528 70.472024 
L 425.96464 63.0529 
L 426.797752 91.836749 
L 430.130201 64.90553 
L 430.963313 97.516746 
L 431.796425 77.771465 
L 432.629537 70.106514 
L 435.128874 64.374993 
L 435.961986 80.972649 
L 436.795098 180.528953 
L 437.62821 202.438891 
L 440.960659 208.359385 
L 441.793771 210.249362 
L 442.626883 218.28583 
L 443.459995 213.106011 
L 444.293107 214.665005 
L 446.792444 221.744618 
L 447.625556 219.051556 
L 448.458668 128.205738 
L 449.29178 143.059456 
L 450.124892 189.034093 
L 452.624229 151.482137 
L 453.457341 191.277703 
L 454.290453 210.21331 
L 455.123565 88.531278 
L 455.956677 144.28564 
L 459.289126 53.296932 
L 460.122238 49.173634 
L 460.95535 48.089088 
L 461.788462 47.680506 
L 464.287799 48.486474 
L 465.120911 49.432299 
L 465.954023 50.559383 
L 466.787135 52.35787 
L 467.620247 55.677536 
L 470.119584 60.473476 
L 470.952696 69.951128 
L 471.785808 69.150864 
L 472.61892 62.021077 
L 473.452032 65.864052 
L 475.951369 69.803237 
L 476.784481 82.942627 
L 477.617593 133.578388 
L 478.450705 67.960209 
L 479.283817 63.684974 
L 481.783154 62.280505 
L 482.616266 73.351329 
L 483.449378 100.341016 
L 484.28249 64.482012 
L 485.115602 66.819826 
L 488.448051 63.520592 
L 489.281163 59.271707 
L 490.114275 60.696056 
L 490.947387 69.871058 
L 493.446724 75.288696 
L 494.279836 60.436601 
L 495.112948 71.17945 
L 495.94606 74.502673 
L 496.779172 65.786897 
L 499.278509 74.565271 
L 500.111621 59.421787 
L 500.944733 65.969612 
L 501.777845 79.624501 
L 502.610957 74.689005 
L 505.075581 75.416274 
L 505.908693 166.752619 
L 506.741805 77.22557 
L 507.574917 229.347896 
L 508.408029 233.818476 
L 510.907366 234.480271 
L 511.740478 235.435591 
L 512.57359 78.667278 
L 513.406702 237.558628 
L 514.239814 238.011534 
L 516.739151 79.825022 
L 517.572263 236.924278 
L 518.405375 235.87069 
L 519.238487 234.382156 
L 520.071599 234.069045 
L 522.570936 233.850298 
L 523.404048 230.529739 
L 524.23716 228.143193 
L 525.070272 160.209232 
L 525.903384 165.707273 
L 528.402721 78.349715 
L 529.235833 78.7043 
L 530.068945 141.226867 
L 530.902057 106.443001 
L 534.234506 134.605968 
L 535.067618 174.092564 
L 535.90073 207.196255 
L 536.733842 100.629114 
L 537.566954 53.584813 
L 540.066291 55.098282 
L 540.899403 48.853869 
L 541.732515 50.0566 
L 542.565627 51.847821 
L 543.398739 50.533373 
L 545.898076 52.440409 
L 546.731188 56.409933 
L 547.5643 66.039286 
L 548.397412 56.116073 
L 549.230524 58.186698 
L 551.729861 56.031387 
L 552.562973 58.381466 
L 553.396085 59.659873 
L 554.229197 61.304418 
L 555.062309 183.991261 
L 557.561646 203.64718 
L 558.394758 216.100349 
L 559.22787 102.441811 
L 560.060982 76.246507 
L 560.894094 76.431333 
L 563.393431 76.693851 
L 564.226543 147.289779 
L 565.059655 77.142717 
L 565.892767 213.340197 
L 566.725879 77.731066 
L 570.058328 227.2227 
L 570.89144 218.089664 
L 571.724552 235.572498 
L 572.557664 78.245287 
L 575.057001 234.129462 
L 575.890113 236.343989 
L 576.723225 78.320009 
L 577.556337 226.532266 
L 578.389449 186.444921 
L 580.888786 55.803408 
L 581.721898 59.368551 
L 582.55501 89.77665 
L 583.388122 60.276021 
L 584.221234 71.034351 
L 587.553683 84.608328 
L 588.386795 76.770739 
L 589.219907 127.886986 
L 590.053019 208.215428 
L 592.552356 206.699469 
L 593.385468 76.727783 
L 594.21858 149.043202 
L 595.051692 125.963479 
L 595.884804 77.216393 
L 599.217253 76.964551 
L 600.050365 198.977328 
L 600.883477 211.077543 
L 601.716589 230.049328 
L 604.215926 188.464886 
L 605.049038 116.921036 
L 605.88215 154.444816 
L 606.715262 181.396608 
L 607.548374 231.154664 
L 610.047711 218.470715 
L 610.880823 228.94878 
L 611.713935 233.180108 
L 612.547047 236.522162 
L 613.380159 78.23917 
L 615.879496 78.118903 
L 616.712608 223.216065 
L 617.54572 234.413634 
L 618.378832 238.065013 
L 619.211944 239.685924 
L 621.711281 235.9046 
L 622.544393 228.666694 
L 623.377505 240.134627 
L 624.210617 239.73501 
L 625.043729 238.522974 
L 627.543066 235.212909 
L 628.376178 228.945038 
L 629.20929 239.344826 
L 630.042402 237.082197 
L 630.875514 239.278387 
L 633.374851 236.607683 
L 634.207963 237.314189 
L 635.041075 235.5737 
L 635.874187 236.370616 
L 636.707299 222.392635 
L 639.206636 78.336367 
L 640.039748 71.369037 
L 640.87286 122.089776 
L 641.705972 181.243524 
L 642.539084 50.73975 
L 645.038421 49.206103 
L 645.871533 50.074636 
L 647.537757 54.155494 
L 648.370869 55.425271 
L 651.703318 52.356655 
L 652.53643 61.624479 
L 653.369542 73.84867 
L 654.202654 98.937383 
L 656.701991 79.886711 
L 657.535103 53.153981 
L 658.368215 56.994494 
L 659.201327 63.517691 
L 660.034439 68.289558 
L 662.533776 101.716794 
L 663.366888 76.94422 
L 664.2 69.369726 
L 665.033112 78.040987 
L 665.866224 58.520469 
L 668.365561 53.593557 
L 669.198673 53.499135 
L 670.031785 58.481351 
L 670.864897 54.591031 
L 671.698009 54.968745 
L 674.197346 58.865953 
L 675.86357 70.374429 
L 676.696682 58.465164 
L 677.529794 55.981861 
L 680.029131 54.871113 
L 680.862243 75.385892 
L 681.695355 75.817052 
L 682.528467 60.277246 
L 683.361579 61.09689 
L 685.860916 97.757591 
L 686.694028 151.191157 
L 687.52714 76.498779 
L 688.360252 182.757788 
L 689.193364 192.62434 
L 691.692701 76.947548 
L 692.525813 77.328412 
L 693.358925 236.613591 
L 694.192037 236.476248 
L 695.025149 242.427269 
L 697.524486 242.170382 
L 698.357598 241.804442 
L 699.19071 78.107055 
L 700.023822 78.287552 
L 700.856934 241.419392 
L 703.390984 240.264644 
L 704.224096 236.707641 
L 705.057208 234.034828 
L 705.89032 238.727789 
L 706.723432 238.93475 
L 709.222769 220.431879 
L 710.055881 77.912131 
L 710.888993 210.669306 
L 711.722105 212.235402 
L 712.555217 78.206157 
L 715.054554 226.736266 
L 715.887666 232.208118 
L 716.720778 235.508097 
L 718.387002 235.306367 
L 720.886339 227.695758 
L 721.719451 229.309092 
L 722.552563 235.500086 
L 723.385675 237.765981 
L 724.218787 239.389845 
L 726.718124 234.050103 
L 727.551236 220.508215 
L 728.384348 200.789796 
L 729.21746 204.019383 
L 730.050572 166.490196 
L 732.549909 65.655463 
L 733.383021 175.187522 
L 734.216133 224.77992 
L 735.049245 138.501081 
L 735.882357 148.36675 
L 738.381694 156.676644 
L 739.214806 205.653645 
L 740.047918 237.274575 
L 740.88103 164.901051 
L 741.714142 219.543026 
L 745.046591 174.812494 
L 745.879703 133.435221 
L 746.712815 179.262802 
L 747.545927 156.564096 
L 750.878376 74.322322 
L 751.711488 125.180877 
L 752.5446 94.557682 
L 753.377712 191.416575 
L 755.877049 132.793902 
L 756.710161 222.591483 
L 757.543273 194.894735 
L 758.376385 246.105713 
L 759.209497 246.227459 
L 762.541946 240.554591 
L 763.375058 224.532724 
L 764.20817 218.358186 
L 765.041282 233.980279 
L 767.540619 232.609005 
L 768.373731 239.807431 
L 769.206843 239.468642 
L 770.039955 244.243409 
L 770.873067 244.428913 
L 773.372404 209.259097 
L 775.038628 246.24 
L 775.87174 235.807874 
L 776.704852 239.588313 
L 779.204189 203.360964 
L 780.037301 228.707286 
L 780.870413 175.060247 
L 781.703525 94.309173 
L 782.536637 103.121642 
L 785.035974 113.190775 
L 785.869086 206.847791 
L 786.702198 232.08731 
L 787.53531 107.349306 
L 788.368422 114.001994 
L 791.700871 45.031509 
L 792.533983 46.860876 
L 793.367095 60.995511 
L 794.200207 52.090539 
L 796.699544 69.710394 
L 797.532656 84.586219 
L 798.365768 94.302316 
L 799.19888 165.313287 
L 800.031992 224.195564 
L 802.531329 217.216659 
L 803.364441 153.372684 
L 804.197553 188.70524 
L 805.030665 47.337409 
L 805.863777 45.653967 
L 808.328401 46.030698 
L 809.161513 50.905846 
L 809.994625 48.347305 
L 810.827737 57.813002 
L 811.660849 50.904897 
L 814.160186 55.44642 
L 814.993298 99.006002 
L 815.82641 76.206806 
L 816.659522 72.83849 
L 817.492634 107.704407 
L 820.825083 208.816137 
L 821.658195 227.004899 
L 822.491307 228.539644 
L 823.324419 231.734114 
L 825.823756 232.726212 
L 827.48998 216.658982 
L 828.323092 222.138846 
L 831.655541 195.437893 
L 832.488653 176.470512 
L 833.321765 167.919133 
L 834.154877 211.865924 
L 834.987989 221.331586 
L 837.487326 222.500837 
L 838.320438 223.492827 
L 839.15355 225.14734 
L 839.986662 216.769443 
L 840.819774 221.032168 
L 843.319111 219.899054 
L 844.152223 153.924545 
L 844.985335 146.685051 
L 845.818447 221.176388 
L 846.651559 234.903655 
L 849.150896 234.325894 
L 850.81712 147.57852 
L 851.650232 62.35648 
L 852.483344 213.464018 
L 854.982681 220.16857 
L 855.815793 168.92005 
L 856.648905 213.893967 
L 857.482017 210.490237 
L 858.315129 200.583688 
L 860.814466 191.087029 
L 861.647578 121.199579 
L 862.48069 201.696972 
L 863.313802 234.279507 
L 864.146914 195.298108 
L 866.646251 160.034025 
L 867.479363 69.379402 
L 868.312475 46.197834 
L 869.145587 54.697284 
L 869.978699 105.713397 
L 873.311148 144.842198 
L 874.14426 111.419274 
L 874.977372 239.621348 
L 875.810484 246.167157 
L 878.309821 244.13449 
L 879.142933 245.610443 
L 879.976045 244.054324 
L 880.809157 243.593706 
L 881.642269 241.72895 
L 884.141606 231.98293 
L 885.80783 239.29777 
L 886.640942 233.777167 
L 887.474054 240.70867 
L 890.806503 237.842987 
L 891.639615 240.759258 
L 892.472727 239.652973 
L 893.305839 222.918292 
L 895.805176 179.709448 
L 896.638288 195.593567 
L 897.4714 202.173134 
L 899.137624 186.396955 
L 901.636961 182.046609 
L 903.303185 140.222155 
L 904.136297 78.710937 
L 904.969409 102.153069 
L 907.468746 90.980293 
L 908.301858 103.596098 
L 909.13497 193.673347 
L 909.968082 186.896526 
L 910.801194 202.030781 
L 913.300531 187.799399 
L 914.133643 197.179406 
L 914.966755 160.510355 
L 915.799867 141.834328 
L 916.632979 172.392793 
L 919.132316 148.162439 
L 919.965428 152.331209 
L 920.79854 198.248483 
L 921.631652 103.968431 
L 922.464764 186.940489 
L 924.964101 161.692634 
L 925.797213 138.298908 
L 926.630325 47.109731 
L 927.463437 49.691413 
L 928.296549 45.057223 
L 930.795886 56.712351 
L 931.628998 53.316197 
L 932.46211 55.105596 
L 933.295222 59.870017 
L 934.128334 116.70339 
L 936.627671 121.405803 
L 937.460783 50.653809 
L 939.127007 45.35744 
L 939.960119 48.106551 
L 942.459456 50.02653 
L 943.292568 52.268171 
L 944.12568 80.426438 
L 944.958792 52.684434 
L 945.791904 115.246241 
L 948.291241 166.565174 
L 949.124353 209.848291 
L 949.957465 231.910279 
L 950.790577 238.124417 
L 951.623689 243.4096 
L 954.956138 226.781345 
L 955.78925 209.854307 
L 956.622362 214.254133 
L 957.455474 233.228912 
L 959.954811 235.010841 
L 960.787923 222.671873 
L 961.621035 240.924046 
L 962.454147 244.70964 
L 963.287259 227.021346 
L 965.786596 213.977033 
L 966.619708 202.550082 
L 968.285932 49.758737 
L 969.119044 52.983017 
L 971.618381 56.919537 
L 972.451493 47.55306 
L 973.284605 50.924307 
L 974.117717 56.289825 
L 974.950829 54.662284 
L 977.450166 54.319327 
L 978.283278 49.167218 
L 979.11639 52.844722 
L 979.949502 54.510569 
L 980.782614 59.558424 
L 983.281951 59.047888 
L 984.115063 64.110043 
L 984.948175 77.085136 
L 985.781287 149.375064 
L 986.614399 63.902535 
L 989.113736 134.512604 
L 990.77996 68.230499 
L 991.613072 54.282948 
L 992.446184 53.976358 
L 994.945521 60.154291 
L 995.778633 80.465962 
L 996.611745 61.12198 
L 997.444857 56.58069 
L 998.277969 53.131825 
L 1000.777306 68.305481 
L 1001.610418 153.804568 
L 1002.44353 223.635335 
L 1003.276642 240.696614 
L 1004.109754 243.267109 
L 1006.643804 242.20483 
L 1007.476916 240.321468 
L 1008.310028 240.060982 
L 1009.14314 234.402444 
L 1009.976252 239.361969 
L 1012.475589 235.628557 
L 1013.308701 236.618081 
L 1014.141813 234.097758 
L 1014.974925 230.48562 
L 1015.808037 230.804969 
L 1018.307374 222.373465 
L 1019.140486 216.174275 
L 1019.973598 218.620205 
L 1021.639822 220.530375 
L 1024.139159 217.292075 
L 1024.972271 215.610952 
L 1025.805383 209.039587 
L 1026.638495 208.92654 
L 1027.471607 214.276349 
L 1029.970944 201.663369 
L 1030.804056 206.603278 
L 1032.47028 192.143747 
L 1033.303393 217.659083 
L 1035.802729 209.533656 
L 1036.635841 229.59468 
L 1037.468953 229.893679 
L 1038.302065 217.88463 
L 1039.135178 221.93606 
L 1041.634514 202.92012 
L 1042.467626 199.861149 
L 1043.300738 109.255203 
L 1044.13385 108.768859 
L 1044.966963 151.868868 
L 1048.299411 151.923526 
L 1049.132523 189.289231 
L 1049.965635 182.323054 
L 1050.798748 179.512485 
L 1054.131196 116.703441 
L 1054.964308 67.47539 
L 1055.79742 64.974 
L 1056.630533 107.920962 
L 1059.129869 129.19963 
L 1059.962981 156.053196 
L 1060.796093 161.718794 
L 1061.629205 180.564164 
L 1062.462318 159.487104 
L 1065.794766 79.106069 
L 1066.627878 51.062017 
L 1067.46099 70.426898 
L 1068.294103 123.256646 
L 1070.793439 132.599465 
L 1071.626551 182.32306 
L 1072.459663 137.404621 
L 1073.292775 115.0834 
L 1074.125888 133.109887 
L 1076.625224 110.355487 
L 1077.458336 135.104481 
L 1078.291448 71.396977 
L 1079.12456 100.452616 
L 1079.957673 105.621235 
L 1082.457009 119.0041 
L 1083.290121 166.575256 
L 1084.123233 183.698589 
L 1084.956345 186.124873 
L 1085.789458 176.96291 
L 1088.288794 102.267513 
L 1089.121906 45.958092 
L 1089.955018 83.551111 
L 1090.78813 107.340444 
L 1091.621243 92.030831 
L 1094.953691 50.940517 
L 1095.786803 53.64011 
L 1096.619915 86.199047 
L 1097.453028 146.824502 
L 1099.952364 151.188046 
L 1100.785476 177.775148 
L 1101.618588 144.99717 
L 1102.4517 176.530904 
L 1103.284813 194.984432 
L 1105.784149 167.365088 
L 1106.617261 95.552119 
L 1107.450373 97.197114 
L 1108.283485 104.273622 
L 1109.116598 87.531684 
L 1111.581221 67.135272 
L 1112.414333 160.725385 
L 1113.247445 169.077432 
L 1114.080557 116.983324 
L 1114.91367 117.569358 
L 1117.413006 125.039666 
L 1118.246118 166.730839 
L 1119.07923 218.062506 
L 1119.912342 223.638415 
L 1120.745455 217.673619 
L 1120.745455 217.673619 
" clip-path="url(#pfa219eb3fc)" style="fill: none; stroke: #000000; stroke-width: 1.5; stroke-linecap: square"/>
   </g>
   <g id="patch_7">
    <path d="M 162 256.32 
L 162 34.56 
" style="fill: none; stroke: #000000; stroke-width: 0.8; stroke-linejoin: miter; stroke-linecap: square"/>
   </g>
   <g id="patch_8">
    <path d="M 1166.4 256.32 
L 1166.4 34.56 
" style="fill: none; stroke: #000000; stroke-width: 0.8; stroke-linejoin: miter; stroke-linecap: square"/>
   </g>
   <g id="patch_9">
    <path d="M 162 256.32 
L 1166.4 256.32 
" style="fill: none; stroke: #000000; stroke-width: 0.8; stroke-linejoin: miter; stroke-linecap: square"/>
   </g>
   <g id="patch_10">
    <path d="M 162 34.56 
L 1166.4 34.56 
" style="fill: none; stroke: #000000; stroke-width: 0.8; stroke-linejoin: miter; stroke-linecap: square"/>
   </g>
   <g id="text_25">
    <!-- VIX and Cumulative Probability Indicator - 3Y (Updated 2024-03-24 07:48:19) -->
    <g transform="translate(431.60625 28.56) scale(0.12 -0.12)">
     <defs>
      <path id="DejaVuSans-20" transform="scale(0.015625)"/>
      <path id="DejaVuSans-43" d="M 4122 4306 
L 4122 3641 
Q 3803 3938 3442 4084 
Q 3081 4231 2675 4231 
Q 1875 4231 1450 3742 
Q 1025 3253 1025 2328 
Q 1025 1406 1450 917 
Q 1875 428 2675 428 
Q 3081 428 3442 575 
Q 3803 722 4122 1019 
L 4122 359 
Q 3791 134 3420 21 
Q 3050 -91 2638 -91 
Q 1578 -91 968 557 
Q 359 1206 359 2328 
Q 359 3453 968 4101 
Q 1578 4750 2638 4750 
Q 3056 4750 3426 4639 
Q 3797 4528 4122 4306 
z
" transform="scale(0.015625)"/>
      <path id="DejaVuSans-75" d="M 544 1381 
L 544 3500 
L 1119 3500 
L 1119 1403 
Q 1119 906 1312 657 
Q 1506 409 1894 409 
Q 2359 409 2629 706 
Q 2900 1003 2900 1516 
L 2900 3500 
L 3475 3500 
L 3475 0 
L 2900 0 
L 2900 538 
Q 2691 219 2414 64 
Q 2138 -91 1772 -91 
Q 1169 -91 856 284 
Q 544 659 544 1381 
z
M 1991 3584 
L 1991 3584 
z
" transform="scale(0.015625)"/>
      <path id="DejaVuSans-6d" d="M 3328 2828 
Q 3544 3216 3844 3400 
Q 4144 3584 4550 3584 
Q 5097 3584 5394 3201 
Q 5691 2819 5691 2113 
L 5691 0 
L 5113 0 
L 5113 2094 
Q 5113 2597 4934 2840 
Q 4756 3084 4391 3084 
Q 3944 3084 3684 2787 
Q 3425 2491 3425 1978 
L 3425 0 
L 2847 0 
L 2847 2094 
Q 2847 2600 2669 2842 
Q 2491 3084 2119 3084 
Q 1678 3084 1418 2786 
Q 1159 2488 1159 1978 
L 1159 0 
L 581 0 
L 581 3500 
L 1159 3500 
L 1159 2956 
Q 1356 3278 1631 3431 
Q 1906 3584 2284 3584 
Q 2666 3584 2933 3390 
Q 3200 3197 3328 2828 
z
" transform="scale(0.015625)"/>
      <path id="DejaVuSans-6c" d="M 603 4863 
L 1178 4863 
L 1178 0 
L 603 0 
L 603 4863 
z
" transform="scale(0.015625)"/>
      <path id="DejaVuSans-76" d="M 191 3500 
L 800 3500 
L 1894 563 
L 2988 3500 
L 3597 3500 
L 2284 0 
L 1503 0 
L 191 3500 
z
" transform="scale(0.015625)"/>
      <path id="DejaVuSans-50" d="M 1259 4147 
L 1259 2394 
L 2053 2394 
Q 2494 2394 2734 2622 
Q 2975 2850 2975 3272 
Q 2975 3691 2734 3919 
Q 2494 4147 2053 4147 
L 1259 4147 
z
M 628 4666 
L 2053 4666 
Q 2838 4666 3239 4311 
Q 3641 3956 3641 3272 
Q 3641 2581 3239 2228 
Q 2838 1875 2053 1875 
L 1259 1875 
L 1259 0 
L 628 0 
L 628 4666 
z
" transform="scale(0.015625)"/>
      <path id="DejaVuSans-62" d="M 3116 1747 
Q 3116 2381 2855 2742 
Q 2594 3103 2138 3103 
Q 1681 3103 1420 2742 
Q 1159 2381 1159 1747 
Q 1159 1113 1420 752 
Q 1681 391 2138 391 
Q 2594 391 2855 752 
Q 3116 1113 3116 1747 
z
M 1159 2969 
Q 1341 3281 1617 3432 
Q 1894 3584 2278 3584 
Q 2916 3584 3314 3078 
Q 3713 2572 3713 1747 
Q 3713 922 3314 415 
Q 2916 -91 2278 -91 
Q 1894 -91 1617 61 
Q 1341 213 1159 525 
L 1159 0 
L 581 0 
L 581 4863 
L 1159 4863 
L 1159 2969 
z
" transform="scale(0.015625)"/>
      <path id="DejaVuSans-79" d="M 2059 -325 
Q 1816 -950 1584 -1140 
Q 1353 -1331 966 -1331 
L 506 -1331 
L 506 -850 
L 844 -850 
Q 1081 -850 1212 -737 
Q 1344 -625 1503 -206 
L 1606 56 
L 191 3500 
L 800 3500 
L 1894 763 
L 2988 3500 
L 3597 3500 
L 2059 -325 
z
" transform="scale(0.015625)"/>
      <path id="DejaVuSans-59" d="M -13 4666 
L 666 4666 
L 1959 2747 
L 3244 4666 
L 3922 4666 
L 2272 2222 
L 2272 0 
L 1638 0 
L 1638 2222 
L -13 4666 
z
" transform="scale(0.015625)"/>
      <path id="DejaVuSans-28" d="M 1984 4856 
Q 1566 4138 1362 3434 
Q 1159 2731 1159 2009 
Q 1159 1288 1364 580 
Q 1569 -128 1984 -844 
L 1484 -844 
Q 1016 -109 783 600 
Q 550 1309 550 2009 
Q 550 2706 781 3412 
Q 1013 4119 1484 4856 
L 1984 4856 
z
" transform="scale(0.015625)"/>
      <path id="DejaVuSans-55" d="M 556 4666 
L 1191 4666 
L 1191 1831 
Q 1191 1081 1462 751 
Q 1734 422 2344 422 
Q 2950 422 3222 751 
Q 3494 1081 3494 1831 
L 3494 4666 
L 4128 4666 
L 4128 1753 
Q 4128 841 3676 375 
Q 3225 -91 2344 -91 
Q 1459 -91 1007 375 
Q 556 841 556 1753 
L 556 4666 
z
" transform="scale(0.015625)"/>
      <path id="DejaVuSans-70" d="M 1159 525 
L 1159 -1331 
L 581 -1331 
L 581 3500 
L 1159 3500 
L 1159 2969 
Q 1341 3281 1617 3432 
Q 1894 3584 2278 3584 
Q 2916 3584 3314 3078 
Q 3713 2572 3713 1747 
Q 3713 922 3314 415 
Q 2916 -91 2278 -91 
Q 1894 -91 1617 61 
Q 1341 213 1159 525 
z
M 3116 1747 
Q 3116 2381 2855 2742 
Q 2594 3103 2138 3103 
Q 1681 3103 1420 2742 
Q 1159 2381 1159 1747 
Q 1159 1113 1420 752 
Q 1681 391 2138 391 
Q 2594 391 2855 752 
Q 3116 1113 3116 1747 
z
" transform="scale(0.015625)"/>
      <path id="DejaVuSans-37" d="M 525 4666 
L 3525 4666 
L 3525 4397 
L 1831 0 
L 1172 0 
L 2766 4134 
L 525 4134 
L 525 4666 
z
" transform="scale(0.015625)"/>
      <path id="DejaVuSans-3a" d="M 750 794 
L 1409 794 
L 1409 0 
L 750 0 
L 750 794 
z
M 750 3309 
L 1409 3309 
L 1409 2516 
L 750 2516 
L 750 3309 
z
" transform="scale(0.015625)"/>
      <path id="DejaVuSans-29" d="M 513 4856 
L 1013 4856 
Q 1481 4119 1714 3412 
Q 1947 2706 1947 2009 
Q 1947 1309 1714 600 
Q 1481 -109 1013 -844 
L 513 -844 
Q 928 -128 1133 580 
Q 1338 1288 1338 2009 
Q 1338 2731 1133 3434 
Q 928 4138 513 4856 
z
" transform="scale(0.015625)"/>
     </defs>
     <use xlink:href="#DejaVuSans-56"/>
     <use xlink:href="#DejaVuSans-49" x="68.408203"/>
     <use xlink:href="#DejaVuSans-58" x="97.900391"/>
     <use xlink:href="#DejaVuSans-20" x="166.40625"/>
     <use xlink:href="#DejaVuSans-61" x="198.193359"/>
     <use xlink:href="#DejaVuSans-6e" x="259.472656"/>
     <use xlink:href="#DejaVuSans-64" x="322.851562"/>
     <use xlink:href="#DejaVuSans-20" x="386.328125"/>
     <use xlink:href="#DejaVuSans-43" x="418.115234"/>
     <use xlink:href="#DejaVuSans-75" x="487.939453"/>
     <use xlink:href="#DejaVuSans-6d" x="551.318359"/>
     <use xlink:href="#DejaVuSans-75" x="648.730469"/>
     <use xlink:href="#DejaVuSans-6c" x="712.109375"/>
     <use xlink:href="#DejaVuSans-61" x="739.892578"/>
     <use xlink:href="#DejaVuSans-74" x="801.171875"/>
     <use xlink:href="#DejaVuSans-69" x="840.380859"/>
     <use xlink:href="#DejaVuSans-76" x="868.164062"/>
     <use xlink:href="#DejaVuSans-65" x="927.34375"/>
     <use xlink:href="#DejaVuSans-20" x="988.867188"/>
     <use xlink:href="#DejaVuSans-50" x="1020.654297"/>
     <use xlink:href="#DejaVuSans-72" x="1079.207031"/>
     <use xlink:href="#DejaVuSans-6f" x="1118.070312"/>
     <use xlink:href="#DejaVuSans-62" x="1179.251953"/>
     <use xlink:href="#DejaVuSans-61" x="1242.728516"/>
     <use xlink:href="#DejaVuSans-62" x="1304.007812"/>
     <use xlink:href="#DejaVuSans-69" x="1367.484375"/>
     <use xlink:href="#DejaVuSans-6c" x="1395.267578"/>
     <use xlink:href="#DejaVuSans-69" x="1423.050781"/>
     <use xlink:href="#DejaVuSans-74" x="1450.833984"/>
     <use xlink:href="#DejaVuSans-79" x="1490.042969"/>
     <use xlink:href="#DejaVuSans-20" x="1549.222656"/>
     <use xlink:href="#DejaVuSans-49" x="1581.009766"/>
     <use xlink:href="#DejaVuSans-6e" x="1610.501953"/>
     <use xlink:href="#DejaVuSans-64" x="1673.880859"/>
     <use xlink:href="#DejaVuSans-69" x="1737.357422"/>
     <use xlink:href="#DejaVuSans-63" x="1765.140625"/>
     <use xlink:href="#DejaVuSans-61" x="1820.121094"/>
     <use xlink:href="#DejaVuSans-74" x="1881.400391"/>
     <use xlink:href="#DejaVuSans-6f" x="1920.609375"/>
     <use xlink:href="#DejaVuSans-72" x="1981.791016"/>
     <use xlink:href="#DejaVuSans-20" x="2022.904297"/>
     <use xlink:href="#DejaVuSans-2d" x="2054.691406"/>
     <use xlink:href="#DejaVuSans-20" x="2090.775391"/>
     <use xlink:href="#DejaVuSans-33" x="2122.5625"/>
     <use xlink:href="#DejaVuSans-59" x="2186.185547"/>
     <use xlink:href="#DejaVuSans-20" x="2247.269531"/>
     <use xlink:href="#DejaVuSans-28" x="2279.056641"/>
     <use xlink:href="#DejaVuSans-55" x="2318.070312"/>
     <use xlink:href="#DejaVuSans-70" x="2391.263672"/>
     <use xlink:href="#DejaVuSans-64" x="2454.740234"/>
     <use xlink:href="#DejaVuSans-61" x="2518.216797"/>
     <use xlink:href="#DejaVuSans-74" x="2579.496094"/>
     <use xlink:href="#DejaVuSans-65" x="2618.705078"/>
     <use xlink:href="#DejaVuSans-64" x="2680.228516"/>
     <use xlink:href="#DejaVuSans-20" x="2743.705078"/>
     <use xlink:href="#DejaVuSans-32" x="2775.492188"/>
     <use xlink:href="#DejaVuSans-30" x="2839.115234"/>
     <use xlink:href="#DejaVuSans-32" x="2902.738281"/>
     <use xlink:href="#DejaVuSans-34" x="2966.361328"/>
     <use xlink:href="#DejaVuSans-2d" x="3029.984375"/>
     <use xlink:href="#DejaVuSans-30" x="3066.068359"/>
     <use xlink:href="#DejaVuSans-33" x="3129.691406"/>
     <use xlink:href="#DejaVuSans-2d" x="3193.314453"/>
     <use xlink:href="#DejaVuSans-32" x="3229.398438"/>
     <use xlink:href="#DejaVuSans-34" x="3293.021484"/>
     <use xlink:href="#DejaVuSans-20" x="3356.644531"/>
     <use xlink:href="#DejaVuSans-30" x="3388.431641"/>
     <use xlink:href="#DejaVuSans-37" x="3452.054688"/>
     <use xlink:href="#DejaVuSans-3a" x="3515.677734"/>
     <use xlink:href="#DejaVuSans-34" x="3549.369141"/>
     <use xlink:href="#DejaVuSans-38" x="3612.992188"/>
     <use xlink:href="#DejaVuSans-3a" x="3676.615234"/>
     <use xlink:href="#DejaVuSans-31" x="3710.306641"/>
     <use xlink:href="#DejaVuSans-39" x="3773.929688"/>
     <use xlink:href="#DejaVuSans-29" x="3837.552734"/>
    </g>
   </g>
  </g>
  <g id="legend_1">
   <g id="patch_11">
    <path d="M 7 37.35625 
L 83.190625 37.35625 
Q 85.190625 37.35625 85.190625 35.35625 
L 85.190625 7 
Q 85.190625 5 83.190625 5 
L 7 5 
Q 5 5 5 7 
L 5 35.35625 
Q 5 37.35625 7 37.35625 
z
" style="fill: #ffffff; opacity: 0.8; stroke: #cccccc; stroke-linejoin: miter"/>
   </g>
   <g id="line2d_24">
    <path d="M 9 13.098437 
L 19 13.098437 
L 29 13.098437 
" style="fill: none; stroke: #0000ff; stroke-width: 1.5; stroke-linecap: square"/>
   </g>
   <g id="text_26">
    <!-- Price -->
    <g transform="translate(37 16.598437) scale(0.1 -0.1)">
     <use xlink:href="#DejaVuSans-50"/>
     <use xlink:href="#DejaVuSans-72" x="58.552734"/>
     <use xlink:href="#DejaVuSans-69" x="99.666016"/>
     <use xlink:href="#DejaVuSans-63" x="127.449219"/>
     <use xlink:href="#DejaVuSans-65" x="182.429688"/>
    </g>
   </g>
   <g id="line2d_25">
    <path d="M 9 27.776563 
L 19 27.776563 
L 29 27.776563 
" style="fill: none; stroke: #000000; stroke-width: 1.5; stroke-linecap: square"/>
   </g>
   <g id="text_27">
    <!-- Indicator -->
    <g transform="translate(37 31.276563) scale(0.1 -0.1)">
     <use xlink:href="#DejaVuSans-49"/>
     <use xlink:href="#DejaVuSans-6e" x="29.492188"/>
     <use xlink:href="#DejaVuSans-64" x="92.871094"/>
     <use xlink:href="#DejaVuSans-69" x="156.347656"/>
     <use xlink:href="#DejaVuSans-63" x="184.130859"/>
     <use xlink:href="#DejaVuSans-61" x="239.111328"/>
     <use xlink:href="#DejaVuSans-74" x="300.390625"/>
     <use xlink:href="#DejaVuSans-6f" x="339.599609"/>
     <use xlink:href="#DejaVuSans-72" x="400.78125"/>
    </g>
   </g>
  </g>
 </g>
 <defs>
  <clipPath id="pfa219eb3fc">
   <rect x="162" y="34.56" width="1004.4" height="221.76"/>
  </clipPath>
 </defs>
</svg>
