<?xml version="1.0" encoding="utf-8" standalone="no"?>
<!DOCTYPE svg PUBLIC "-//W3C//DTD SVG 1.1//EN"
  "http://www.w3.org/Graphics/SVG/1.1/DTD/svg11.dtd">
<svg xmlns:xlink="http://www.w3.org/1999/xlink" width="1296pt" height="288pt" viewBox="0 0 1296 288" xmlns="http://www.w3.org/2000/svg" version="1.1">
 <metadata>
  <rdf:RDF xmlns:dc="http://purl.org/dc/elements/1.1/" xmlns:cc="http://creativecommons.org/ns#" xmlns:rdf="http://www.w3.org/1999/02/22-rdf-syntax-ns#">
   <cc:Work>
    <dc:type rdf:resource="http://purl.org/dc/dcmitype/StillImage"/>
    <dc:date>2024-03-20T17:09:07.871190</dc:date>
    <dc:format>image/svg+xml</dc:format>
    <dc:creator>
     <cc:Agent>
      <dc:title>Matplotlib v3.8.0, https://matplotlib.org/</dc:title>
     </cc:Agent>
    </dc:creator>
   </cc:Work>
  </rdf:RDF>
 </metadata>
 <defs>
  <style type="text/css">*{stroke-linejoin: round; stroke-linecap: butt}</style>
 </defs>
 <g id="figure_1">
  <g id="patch_1">
   <path d="M 0 288 
L 1296 288 
L 1296 0 
L 0 0 
z
" style="fill: #ffffff"/>
  </g>
  <g id="axes_1">
   <g id="patch_2">
    <path d="M 162 256.32 
L 1166.4 256.32 
L 1166.4 34.56 
L 162 34.56 
z
" style="fill: #ffffff"/>
   </g>
   <g id="matplotlib.axis_1">
    <g id="xtick_1">
     <g id="line2d_1">
      <defs>
       <path id="m961ebe0942" d="M 0 0 
L 0 3.5 
" style="stroke: #000000; stroke-width: 0.8"/>
      </defs>
      <g>
       <use xlink:href="#m961ebe0942" x="241.039953" y="256.32" style="stroke: #000000; stroke-width: 0.8"/>
      </g>
     </g>
     <g id="text_1">
      <!-- 2021-05 -->
      <g transform="translate(220.148547 270.918437) scale(0.1 -0.1)">
       <defs>
        <path id="DejaVuSans-32" d="M 1228 531 
L 3431 531 
L 3431 0 
L 469 0 
L 469 531 
Q 828 903 1448 1529 
Q 2069 2156 2228 2338 
Q 2531 2678 2651 2914 
Q 2772 3150 2772 3378 
Q 2772 3750 2511 3984 
Q 2250 4219 1831 4219 
Q 1534 4219 1204 4116 
Q 875 4013 500 3803 
L 500 4441 
Q 881 4594 1212 4672 
Q 1544 4750 1819 4750 
Q 2544 4750 2975 4387 
Q 3406 4025 3406 3419 
Q 3406 3131 3298 2873 
Q 3191 2616 2906 2266 
Q 2828 2175 2409 1742 
Q 1991 1309 1228 531 
z
" transform="scale(0.015625)"/>
        <path id="DejaVuSans-30" d="M 2034 4250 
Q 1547 4250 1301 3770 
Q 1056 3291 1056 2328 
Q 1056 1369 1301 889 
Q 1547 409 2034 409 
Q 2525 409 2770 889 
Q 3016 1369 3016 2328 
Q 3016 3291 2770 3770 
Q 2525 4250 2034 4250 
z
M 2034 4750 
Q 2819 4750 3233 4129 
Q 3647 3509 3647 2328 
Q 3647 1150 3233 529 
Q 2819 -91 2034 -91 
Q 1250 -91 836 529 
Q 422 1150 422 2328 
Q 422 3509 836 4129 
Q 1250 4750 2034 4750 
z
" transform="scale(0.015625)"/>
        <path id="DejaVuSans-31" d="M 794 531 
L 1825 531 
L 1825 4091 
L 703 3866 
L 703 4441 
L 1819 4666 
L 2450 4666 
L 2450 531 
L 3481 531 
L 3481 0 
L 794 0 
L 794 531 
z
" transform="scale(0.015625)"/>
        <path id="DejaVuSans-2d" d="M 313 2009 
L 1997 2009 
L 1997 1497 
L 313 1497 
L 313 2009 
z
" transform="scale(0.015625)"/>
        <path id="DejaVuSans-35" d="M 691 4666 
L 3169 4666 
L 3169 4134 
L 1269 4134 
L 1269 2991 
Q 1406 3038 1543 3061 
Q 1681 3084 1819 3084 
Q 2600 3084 3056 2656 
Q 3513 2228 3513 1497 
Q 3513 744 3044 326 
Q 2575 -91 1722 -91 
Q 1428 -91 1123 -41 
Q 819 9 494 109 
L 494 744 
Q 775 591 1075 516 
Q 1375 441 1709 441 
Q 2250 441 2565 725 
Q 2881 1009 2881 1497 
Q 2881 1984 2565 2268 
Q 2250 2553 1709 2553 
Q 1456 2553 1204 2497 
Q 953 2441 691 2322 
L 691 4666 
z
" transform="scale(0.015625)"/>
       </defs>
       <use xlink:href="#DejaVuSans-32"/>
       <use xlink:href="#DejaVuSans-30" x="63.623047"/>
       <use xlink:href="#DejaVuSans-32" x="127.246094"/>
       <use xlink:href="#DejaVuSans-31" x="190.869141"/>
       <use xlink:href="#DejaVuSans-2d" x="254.492188"/>
       <use xlink:href="#DejaVuSans-30" x="290.576172"/>
       <use xlink:href="#DejaVuSans-35" x="354.199219"/>
      </g>
     </g>
    </g>
    <g id="xtick_2">
     <g id="line2d_2">
      <g>
       <use xlink:href="#m961ebe0942" x="343.700083" y="256.32" style="stroke: #000000; stroke-width: 0.8"/>
      </g>
     </g>
     <g id="text_2">
      <!-- 2021-09 -->
      <g transform="translate(322.808677 270.918437) scale(0.1 -0.1)">
       <defs>
        <path id="DejaVuSans-39" d="M 703 97 
L 703 672 
Q 941 559 1184 500 
Q 1428 441 1663 441 
Q 2288 441 2617 861 
Q 2947 1281 2994 2138 
Q 2813 1869 2534 1725 
Q 2256 1581 1919 1581 
Q 1219 1581 811 2004 
Q 403 2428 403 3163 
Q 403 3881 828 4315 
Q 1253 4750 1959 4750 
Q 2769 4750 3195 4129 
Q 3622 3509 3622 2328 
Q 3622 1225 3098 567 
Q 2575 -91 1691 -91 
Q 1453 -91 1209 -44 
Q 966 3 703 97 
z
M 1959 2075 
Q 2384 2075 2632 2365 
Q 2881 2656 2881 3163 
Q 2881 3666 2632 3958 
Q 2384 4250 1959 4250 
Q 1534 4250 1286 3958 
Q 1038 3666 1038 3163 
Q 1038 2656 1286 2365 
Q 1534 2075 1959 2075 
z
" transform="scale(0.015625)"/>
       </defs>
       <use xlink:href="#DejaVuSans-32"/>
       <use xlink:href="#DejaVuSans-30" x="63.623047"/>
       <use xlink:href="#DejaVuSans-32" x="127.246094"/>
       <use xlink:href="#DejaVuSans-31" x="190.869141"/>
       <use xlink:href="#DejaVuSans-2d" x="254.492188"/>
       <use xlink:href="#DejaVuSans-30" x="290.576172"/>
       <use xlink:href="#DejaVuSans-39" x="354.199219"/>
      </g>
     </g>
    </g>
    <g id="xtick_3">
     <g id="line2d_3">
      <g>
       <use xlink:href="#m961ebe0942" x="445.560354" y="256.32" style="stroke: #000000; stroke-width: 0.8"/>
      </g>
     </g>
     <g id="text_3">
      <!-- 2022-01 -->
      <g transform="translate(424.668948 270.918437) scale(0.1 -0.1)">
       <use xlink:href="#DejaVuSans-32"/>
       <use xlink:href="#DejaVuSans-30" x="63.623047"/>
       <use xlink:href="#DejaVuSans-32" x="127.246094"/>
       <use xlink:href="#DejaVuSans-32" x="190.869141"/>
       <use xlink:href="#DejaVuSans-2d" x="254.492188"/>
       <use xlink:href="#DejaVuSans-30" x="290.576172"/>
       <use xlink:href="#DejaVuSans-31" x="354.199219"/>
      </g>
     </g>
    </g>
    <g id="xtick_4">
     <g id="line2d_4">
      <g>
       <use xlink:href="#m961ebe0942" x="545.681802" y="256.32" style="stroke: #000000; stroke-width: 0.8"/>
      </g>
     </g>
     <g id="text_4">
      <!-- 2022-05 -->
      <g transform="translate(524.790395 270.918437) scale(0.1 -0.1)">
       <use xlink:href="#DejaVuSans-32"/>
       <use xlink:href="#DejaVuSans-30" x="63.623047"/>
       <use xlink:href="#DejaVuSans-32" x="127.246094"/>
       <use xlink:href="#DejaVuSans-32" x="190.869141"/>
       <use xlink:href="#DejaVuSans-2d" x="254.492188"/>
       <use xlink:href="#DejaVuSans-30" x="290.576172"/>
       <use xlink:href="#DejaVuSans-35" x="354.199219"/>
      </g>
     </g>
    </g>
    <g id="xtick_5">
     <g id="line2d_5">
      <g>
       <use xlink:href="#m961ebe0942" x="648.341931" y="256.32" style="stroke: #000000; stroke-width: 0.8"/>
      </g>
     </g>
     <g id="text_5">
      <!-- 2022-09 -->
      <g transform="translate(627.450525 270.918437) scale(0.1 -0.1)">
       <use xlink:href="#DejaVuSans-32"/>
       <use xlink:href="#DejaVuSans-30" x="63.623047"/>
       <use xlink:href="#DejaVuSans-32" x="127.246094"/>
       <use xlink:href="#DejaVuSans-32" x="190.869141"/>
       <use xlink:href="#DejaVuSans-2d" x="254.492188"/>
       <use xlink:href="#DejaVuSans-30" x="290.576172"/>
       <use xlink:href="#DejaVuSans-39" x="354.199219"/>
      </g>
     </g>
    </g>
    <g id="xtick_6">
     <g id="line2d_6">
      <g>
       <use xlink:href="#m961ebe0942" x="750.202202" y="256.32" style="stroke: #000000; stroke-width: 0.8"/>
      </g>
     </g>
     <g id="text_6">
      <!-- 2023-01 -->
      <g transform="translate(729.310796 270.918437) scale(0.1 -0.1)">
       <defs>
        <path id="DejaVuSans-33" d="M 2597 2516 
Q 3050 2419 3304 2112 
Q 3559 1806 3559 1356 
Q 3559 666 3084 287 
Q 2609 -91 1734 -91 
Q 1441 -91 1130 -33 
Q 819 25 488 141 
L 488 750 
Q 750 597 1062 519 
Q 1375 441 1716 441 
Q 2309 441 2620 675 
Q 2931 909 2931 1356 
Q 2931 1769 2642 2001 
Q 2353 2234 1838 2234 
L 1294 2234 
L 1294 2753 
L 1863 2753 
Q 2328 2753 2575 2939 
Q 2822 3125 2822 3475 
Q 2822 3834 2567 4026 
Q 2313 4219 1838 4219 
Q 1578 4219 1281 4162 
Q 984 4106 628 3988 
L 628 4550 
Q 988 4650 1302 4700 
Q 1616 4750 1894 4750 
Q 2613 4750 3031 4423 
Q 3450 4097 3450 3541 
Q 3450 3153 3228 2886 
Q 3006 2619 2597 2516 
z
" transform="scale(0.015625)"/>
       </defs>
       <use xlink:href="#DejaVuSans-32"/>
       <use xlink:href="#DejaVuSans-30" x="63.623047"/>
       <use xlink:href="#DejaVuSans-32" x="127.246094"/>
       <use xlink:href="#DejaVuSans-33" x="190.869141"/>
       <use xlink:href="#DejaVuSans-2d" x="254.492188"/>
       <use xlink:href="#DejaVuSans-30" x="290.576172"/>
       <use xlink:href="#DejaVuSans-31" x="354.199219"/>
      </g>
     </g>
    </g>
    <g id="xtick_7">
     <g id="line2d_7">
      <g>
       <use xlink:href="#m961ebe0942" x="850.32365" y="256.32" style="stroke: #000000; stroke-width: 0.8"/>
      </g>
     </g>
     <g id="text_7">
      <!-- 2023-05 -->
      <g transform="translate(829.432243 270.918437) scale(0.1 -0.1)">
       <use xlink:href="#DejaVuSans-32"/>
       <use xlink:href="#DejaVuSans-30" x="63.623047"/>
       <use xlink:href="#DejaVuSans-32" x="127.246094"/>
       <use xlink:href="#DejaVuSans-33" x="190.869141"/>
       <use xlink:href="#DejaVuSans-2d" x="254.492188"/>
       <use xlink:href="#DejaVuSans-30" x="290.576172"/>
       <use xlink:href="#DejaVuSans-35" x="354.199219"/>
      </g>
     </g>
    </g>
    <g id="xtick_8">
     <g id="line2d_8">
      <g>
       <use xlink:href="#m961ebe0942" x="952.983779" y="256.32" style="stroke: #000000; stroke-width: 0.8"/>
      </g>
     </g>
     <g id="text_8">
      <!-- 2023-09 -->
      <g transform="translate(932.092373 270.918437) scale(0.1 -0.1)">
       <use xlink:href="#DejaVuSans-32"/>
       <use xlink:href="#DejaVuSans-30" x="63.623047"/>
       <use xlink:href="#DejaVuSans-32" x="127.246094"/>
       <use xlink:href="#DejaVuSans-33" x="190.869141"/>
       <use xlink:href="#DejaVuSans-2d" x="254.492188"/>
       <use xlink:href="#DejaVuSans-30" x="290.576172"/>
       <use xlink:href="#DejaVuSans-39" x="354.199219"/>
      </g>
     </g>
    </g>
    <g id="xtick_9">
     <g id="line2d_9">
      <g>
       <use xlink:href="#m961ebe0942" x="1054.84405" y="256.32" style="stroke: #000000; stroke-width: 0.8"/>
      </g>
     </g>
     <g id="text_9">
      <!-- 2024-01 -->
      <g transform="translate(1033.952644 270.918437) scale(0.1 -0.1)">
       <defs>
        <path id="DejaVuSans-34" d="M 2419 4116 
L 825 1625 
L 2419 1625 
L 2419 4116 
z
M 2253 4666 
L 3047 4666 
L 3047 1625 
L 3713 1625 
L 3713 1100 
L 3047 1100 
L 3047 0 
L 2419 0 
L 2419 1100 
L 313 1100 
L 313 1709 
L 2253 4666 
z
" transform="scale(0.015625)"/>
       </defs>
       <use xlink:href="#DejaVuSans-32"/>
       <use xlink:href="#DejaVuSans-30" x="63.623047"/>
       <use xlink:href="#DejaVuSans-32" x="127.246094"/>
       <use xlink:href="#DejaVuSans-34" x="190.869141"/>
       <use xlink:href="#DejaVuSans-2d" x="254.492188"/>
       <use xlink:href="#DejaVuSans-30" x="290.576172"/>
       <use xlink:href="#DejaVuSans-31" x="354.199219"/>
      </g>
     </g>
    </g>
    <g id="xtick_10">
     <g id="line2d_10">
      <g>
       <use xlink:href="#m961ebe0942" x="1155.800133" y="256.32" style="stroke: #000000; stroke-width: 0.8"/>
      </g>
     </g>
     <g id="text_10">
      <!-- 2024-05 -->
      <g transform="translate(1134.908727 270.918437) scale(0.1 -0.1)">
       <use xlink:href="#DejaVuSans-32"/>
       <use xlink:href="#DejaVuSans-30" x="63.623047"/>
       <use xlink:href="#DejaVuSans-32" x="127.246094"/>
       <use xlink:href="#DejaVuSans-34" x="190.869141"/>
       <use xlink:href="#DejaVuSans-2d" x="254.492188"/>
       <use xlink:href="#DejaVuSans-30" x="290.576172"/>
       <use xlink:href="#DejaVuSans-35" x="354.199219"/>
      </g>
     </g>
    </g>
    <g id="text_11">
     <!-- Date -->
     <g transform="translate(652.249219 284.596563) scale(0.1 -0.1)">
      <defs>
       <path id="DejaVuSans-44" d="M 1259 4147 
L 1259 519 
L 2022 519 
Q 2988 519 3436 956 
Q 3884 1394 3884 2338 
Q 3884 3275 3436 3711 
Q 2988 4147 2022 4147 
L 1259 4147 
z
M 628 4666 
L 1925 4666 
Q 3281 4666 3915 4102 
Q 4550 3538 4550 2338 
Q 4550 1131 3912 565 
Q 3275 0 1925 0 
L 628 0 
L 628 4666 
z
" transform="scale(0.015625)"/>
       <path id="DejaVuSans-61" d="M 2194 1759 
Q 1497 1759 1228 1600 
Q 959 1441 959 1056 
Q 959 750 1161 570 
Q 1363 391 1709 391 
Q 2188 391 2477 730 
Q 2766 1069 2766 1631 
L 2766 1759 
L 2194 1759 
z
M 3341 1997 
L 3341 0 
L 2766 0 
L 2766 531 
Q 2569 213 2275 61 
Q 1981 -91 1556 -91 
Q 1019 -91 701 211 
Q 384 513 384 1019 
Q 384 1609 779 1909 
Q 1175 2209 1959 2209 
L 2766 2209 
L 2766 2266 
Q 2766 2663 2505 2880 
Q 2244 3097 1772 3097 
Q 1472 3097 1187 3025 
Q 903 2953 641 2809 
L 641 3341 
Q 956 3463 1253 3523 
Q 1550 3584 1831 3584 
Q 2591 3584 2966 3190 
Q 3341 2797 3341 1997 
z
" transform="scale(0.015625)"/>
       <path id="DejaVuSans-74" d="M 1172 4494 
L 1172 3500 
L 2356 3500 
L 2356 3053 
L 1172 3053 
L 1172 1153 
Q 1172 725 1289 603 
Q 1406 481 1766 481 
L 2356 481 
L 2356 0 
L 1766 0 
Q 1100 0 847 248 
Q 594 497 594 1153 
L 594 3053 
L 172 3053 
L 172 3500 
L 594 3500 
L 594 4494 
L 1172 4494 
z
" transform="scale(0.015625)"/>
       <path id="DejaVuSans-65" d="M 3597 1894 
L 3597 1613 
L 953 1613 
Q 991 1019 1311 708 
Q 1631 397 2203 397 
Q 2534 397 2845 478 
Q 3156 559 3463 722 
L 3463 178 
Q 3153 47 2828 -22 
Q 2503 -91 2169 -91 
Q 1331 -91 842 396 
Q 353 884 353 1716 
Q 353 2575 817 3079 
Q 1281 3584 2069 3584 
Q 2775 3584 3186 3129 
Q 3597 2675 3597 1894 
z
M 3022 2063 
Q 3016 2534 2758 2815 
Q 2500 3097 2075 3097 
Q 1594 3097 1305 2825 
Q 1016 2553 972 2059 
L 3022 2063 
z
" transform="scale(0.015625)"/>
      </defs>
      <use xlink:href="#DejaVuSans-44"/>
      <use xlink:href="#DejaVuSans-61" x="77.001953"/>
      <use xlink:href="#DejaVuSans-74" x="138.28125"/>
      <use xlink:href="#DejaVuSans-65" x="177.490234"/>
     </g>
    </g>
   </g>
   <g id="matplotlib.axis_2">
    <g id="ytick_1">
     <g id="line2d_11">
      <defs>
       <path id="m4ab654a27b" d="M 0 0 
L -3.5 0 
" style="stroke: #0000ff; stroke-width: 0.8"/>
      </defs>
      <g>
       <use xlink:href="#m4ab654a27b" x="162" y="222.011615" style="fill: #0000ff; stroke: #0000ff; stroke-width: 0.8"/>
      </g>
     </g>
     <g id="text_12">
      <!-- 15 -->
      <g style="fill: #0000ff" transform="translate(142.275 225.810833) scale(0.1 -0.1)">
       <use xlink:href="#DejaVuSans-31"/>
       <use xlink:href="#DejaVuSans-35" x="63.623047"/>
      </g>
     </g>
    </g>
    <g id="ytick_2">
     <g id="line2d_12">
      <g>
       <use xlink:href="#m4ab654a27b" x="162" y="180.666251" style="fill: #0000ff; stroke: #0000ff; stroke-width: 0.8"/>
      </g>
     </g>
     <g id="text_13">
      <!-- 20 -->
      <g style="fill: #0000ff" transform="translate(142.275 184.46547) scale(0.1 -0.1)">
       <use xlink:href="#DejaVuSans-32"/>
       <use xlink:href="#DejaVuSans-30" x="63.623047"/>
      </g>
     </g>
    </g>
    <g id="ytick_3">
     <g id="line2d_13">
      <g>
       <use xlink:href="#m4ab654a27b" x="162" y="139.320888" style="fill: #0000ff; stroke: #0000ff; stroke-width: 0.8"/>
      </g>
     </g>
     <g id="text_14">
      <!-- 25 -->
      <g style="fill: #0000ff" transform="translate(142.275 143.120107) scale(0.1 -0.1)">
       <use xlink:href="#DejaVuSans-32"/>
       <use xlink:href="#DejaVuSans-35" x="63.623047"/>
      </g>
     </g>
    </g>
    <g id="ytick_4">
     <g id="line2d_14">
      <g>
       <use xlink:href="#m4ab654a27b" x="162" y="97.975525" style="fill: #0000ff; stroke: #0000ff; stroke-width: 0.8"/>
      </g>
     </g>
     <g id="text_15">
      <!-- 30 -->
      <g style="fill: #0000ff" transform="translate(142.275 101.774744) scale(0.1 -0.1)">
       <use xlink:href="#DejaVuSans-33"/>
       <use xlink:href="#DejaVuSans-30" x="63.623047"/>
      </g>
     </g>
    </g>
    <g id="ytick_5">
     <g id="line2d_15">
      <g>
       <use xlink:href="#m4ab654a27b" x="162" y="56.630162" style="fill: #0000ff; stroke: #0000ff; stroke-width: 0.8"/>
      </g>
     </g>
     <g id="text_16">
      <!-- 35 -->
      <g style="fill: #0000ff" transform="translate(142.275 60.42938) scale(0.1 -0.1)">
       <use xlink:href="#DejaVuSans-33"/>
       <use xlink:href="#DejaVuSans-35" x="63.623047"/>
      </g>
     </g>
    </g>
    <g id="text_17">
     <!-- VIX -->
     <g style="fill: #0000ff" transform="translate(136.195312 153.760312) rotate(-90) scale(0.1 -0.1)">
      <defs>
       <path id="DejaVuSans-56" d="M 1831 0 
L 50 4666 
L 709 4666 
L 2188 738 
L 3669 4666 
L 4325 4666 
L 2547 0 
L 1831 0 
z
" transform="scale(0.015625)"/>
       <path id="DejaVuSans-49" d="M 628 4666 
L 1259 4666 
L 1259 0 
L 628 0 
L 628 4666 
z
" transform="scale(0.015625)"/>
       <path id="DejaVuSans-58" d="M 403 4666 
L 1081 4666 
L 2241 2931 
L 3406 4666 
L 4084 4666 
L 2584 2425 
L 4184 0 
L 3506 0 
L 2194 1984 
L 872 0 
L 191 0 
L 1856 2491 
L 403 4666 
z
" transform="scale(0.015625)"/>
      </defs>
      <use xlink:href="#DejaVuSans-56"/>
      <use xlink:href="#DejaVuSans-49" x="68.408203"/>
      <use xlink:href="#DejaVuSans-58" x="97.900391"/>
     </g>
    </g>
   </g>
   <g id="line2d_16">
    <path d="M 207.654545 189.92762 
L 208.489181 178.185536 
L 209.323816 170.743358 
L 210.158451 182.23738 
L 210.993086 190.092989 
L 213.496992 174.54714 
L 214.331627 183.891185 
L 215.166262 185.627698 
L 216.000897 202.744676 
L 219.339438 197.948614 
L 220.174073 196.212101 
L 221.008709 204.150419 
L 221.843344 205.886917 
L 222.677979 208.036877 
L 225.181885 206.217687 
L 226.01652 208.367648 
L 226.851155 205.556162 
L 227.68579 209.029173 
L 228.520425 211.675274 
L 231.024331 203.075431 
L 231.858966 191.581425 
L 232.693601 201.338933 
L 233.528237 191.333363 
L 234.362872 202.744676 
L 236.866777 200.181268 
L 237.701413 200.842793 
L 238.536048 203.158123 
L 239.370683 200.42933 
L 240.205318 192.160257 
L 242.709224 194.640989 
L 243.543859 184.966173 
L 244.378494 187.694966 
L 245.213129 193.979463 
L 246.047765 208.036877 
L 248.55167 183.477737 
L 249.386305 165.451156 
L 250.220941 117.903989 
L 251.890211 190.506452 
L 254.394117 182.981597 
L 255.228752 169.585693 
L 256.063387 162.63967 
L 256.898022 175.125972 
L 257.732657 179.425894 
L 260.236563 193.896771 
L 261.071198 190.258374 
L 261.905833 202.496598 
L 262.740469 207.62343 
L 263.575104 207.458045 
L 266.913645 198.031307 
L 267.74828 201.504318 
L 268.582915 196.873626 
L 269.41755 210.269531 
L 271.921456 210.269531 
L 272.756091 204.894637 
L 273.590726 198.114 
L 274.425361 212.915632 
L 275.259997 216.636721 
L 277.763902 210.517609 
L 278.598537 205.308084 
L 279.433173 195.964039 
L 280.267808 199.271665 
L 281.102443 174.877894 
L 283.606349 198.114 
L 284.440984 208.284955 
L 286.944889 216.884791 
L 289.448795 215.727118 
L 290.28343 213.577157 
L 291.118065 215.148285 
L 291.952701 218.042464 
L 292.787336 221.432782 
L 296.125877 210.104146 
L 296.960512 212.088721 
L 297.795147 188.935324 
L 298.629782 212.254106 
L 301.133688 212.336799 
L 301.968323 204.481174 
L 302.802958 211.013749 
L 303.637593 205.390777 
L 304.472229 193.483308 
L 306.976134 159.99357 
L 307.810769 182.898905 
L 308.645405 197.948614 
L 309.48004 199.767805 
L 310.314675 203.819648 
L 312.818581 200.677408 
L 313.653216 185.958453 
L 314.487851 194.640989 
L 315.322486 199.685112 
L 316.157121 195.219821 
L 318.661027 185.131558 
L 319.495662 196.873626 
L 320.330297 197.452475 
L 321.164933 203.158123 
L 321.999568 212.502184 
L 324.503473 207.788815 
L 325.338109 207.209967 
L 327.007379 217.13286 
L 327.842014 218.290534 
L 330.34592 212.750246 
L 331.180555 197.948614 
L 332.01519 167.68381 
L 332.849825 166.856899 
L 333.684461 192.57372 
L 336.188366 204.233112 
L 337.023001 203.654279 
L 337.857637 207.209967 
L 338.692272 190.258374 
L 339.526907 210.517609 
L 342.030813 212.171414 
L 342.865448 209.773391 
L 343.700083 212.832939 
L 344.534718 210.352223 
L 345.369353 210.352223 
L 348.707894 196.046732 
L 349.542529 197.535167 
L 350.377165 190.589145 
L 351.2118 172.810626 
L 353.715706 185.87576 
L 354.550341 185.131558 
L 355.384976 195.715961 
L 356.219611 191.498732 
L 357.054246 173.968307 
L 359.558152 133.449854 
L 360.392787 144.61309 
L 361.227422 173.472151 
L 362.062058 191.994888 
L 362.896693 199.271665 
L 365.400598 190.9199 
L 366.235234 153.791765 
L 367.069869 159.49743 
L 367.904504 154.701368 
L 368.739139 171.570268 
L 371.243045 156.189804 
L 372.07768 169.916463 
L 372.912315 172.397179 
L 373.74695 184.470017 
L 374.581586 190.837207 
L 377.085491 180.666251 
L 377.920126 181.906609 
L 378.754762 191.912195 
L 379.589397 206.631134 
L 380.424032 211.261826 
L 382.927938 211.179134 
L 383.762573 216.223265 
L 384.597208 217.959771 
L 385.431843 221.928922 
L 386.266478 218.455911 
L 388.770384 220.027039 
L 389.605019 213.907927 
L 390.439654 205.638855 
L 391.27429 209.359928 
L 392.108925 211.592581 
L 394.61283 210.352223 
L 395.447466 213.494464 
L 396.282101 221.184704 
L 397.116736 218.373226 
L 397.951371 209.773391 
L 400.490053 203.654279 
L 401.324688 199.023587 
L 402.159324 191.167977 
L 402.993959 200.015883 
L 403.828594 211.344503 
L 406.3325 209.690698 
L 407.167135 210.682978 
L 408.00177 204.563866 
L 408.836405 200.594715 
L 409.67104 197.948614 
L 412.174946 187.529581 
L 413.009581 185.793083 
L 413.844216 192.408335 
L 415.513487 109.386838 
L 418.017392 156.189804 
L 419.686663 88.714157 
L 420.521298 114.927118 
L 421.355933 92.435246 
L 423.859839 121.294307 
L 424.694474 165.037709 
L 425.529109 181.493162 
L 426.363744 167.601117 
L 427.19838 191.498732 
L 429.702285 178.102843 
L 430.53692 165.037709 
L 431.371556 186.537285 
L 432.206191 175.952882 
L 433.040826 167.68381 
L 435.544732 156.934006 
L 436.379367 172.314486 
L 437.214002 191.994888 
L 438.048637 197.535167 
L 441.387178 199.850497 
L 442.221813 201.008163 
L 443.056448 205.886917 
L 443.891084 202.744676 
L 444.725719 203.654279 
L 447.229624 208.781095 
L 448.06426 206.217687 
L 448.898895 182.898905 
L 449.73353 183.891185 
L 450.568165 190.9199 
L 453.072071 185.627698 
L 453.906706 193.814078 
L 454.741341 200.346637 
L 455.575976 178.102843 
L 456.410612 187.364196 
L 459.749152 157.595531 
L 460.583788 148.830319 
L 461.418423 134.442134 
L 462.253058 107.484955 
L 464.756964 98.802435 
L 465.591599 88.383402 
L 466.426234 81.76815 
L 467.260869 93.923681 
L 468.095504 117.325156 
L 470.59941 140.726631 
L 471.434045 164.458877 
L 472.26868 163.383888 
L 473.103316 144.695782 
L 473.937951 154.039843 
L 476.441856 157.016699 
L 478.111127 180.997022 
L 479.780397 119.805872 
L 482.284303 111.784877 
L 483.118938 133.532531 
L 483.953573 145.191922 
L 484.788208 113.604067 
L 485.622844 116.580938 
L 488.961384 107.815726 
L 489.79602 89.541067 
L 490.630655 95.329424 
L 491.46529 117.903989 
L 493.969196 96.735167 
L 494.803831 70.522206 
L 495.638466 91.856413 
L 496.473101 94.006374 
L 499.811642 44.64 
L 500.646277 55.555173 
L 501.480912 77.716291 
L 502.315548 96.073642 
L 503.150183 91.77372 
L 505.619312 83.339263 
L 506.453947 99.381268 
L 507.288582 125.511536 
L 508.123218 133.780609 
L 508.957853 148.664933 
L 511.461758 151.476419 
L 512.296394 156.355173 
L 513.131029 151.145665 
L 513.965664 166.856899 
L 514.800299 173.968307 
L 517.304205 183.725815 
L 518.13884 189.762234 
L 518.973475 186.206531 
L 519.80811 176.035575 
L 520.642746 183.725815 
L 523.146651 192.491028 
L 523.981286 172.149101 
L 524.815922 163.301196 
L 525.650557 167.849195 
L 526.485192 171.074128 
L 528.989098 144.530397 
L 529.823733 145.44 
L 530.658368 165.616542 
L 531.493003 158.339749 
L 534.831544 162.722363 
L 535.666179 169.337615 
L 536.500814 178.020151 
L 537.33545 158.505134 
L 538.170085 112.777173 
L 540.67399 122.617358 
L 541.508626 68.868385 
L 542.343261 84.745005 
L 543.177896 98.058218 
L 544.012531 69.860665 
L 546.516437 78.625894 
L 547.351072 104.177329 
L 548.185707 135.847877 
L 549.020342 88.052631 
L 549.854978 96.404397 
L 552.358883 58.69743 
L 553.193518 73.250984 
L 554.028154 76.806688 
L 554.862789 83.339263 
L 555.697424 107.31957 
L 558.20133 118.896284 
L 559.035965 130.224905 
L 559.8706 90.037223 
L 560.705235 103.350419 
L 561.53987 102.688894 
L 564.043776 110.544519 
L 564.878411 102.523509 
L 565.713046 111.454106 
L 566.547682 118.648207 
L 567.382317 133.367162 
L 570.720858 129.480687 
L 571.555493 133.615224 
L 572.390128 141.636234 
L 573.224763 141.057386 
L 575.728669 138.742056 
L 576.563304 147.424576 
L 577.397939 147.920731 
L 578.232574 130.307598 
L 579.06721 116.580938 
L 581.571115 64.733849 
L 582.40575 75.731731 
L 583.240386 101.117766 
L 584.075021 73.581754 
L 584.909656 88.63148 
L 588.248197 96.404397 
L 589.082832 106.658045 
L 589.917467 105.83115 
L 590.752102 120.88086 
L 593.256008 123.19619 
L 594.090643 111.536799 
L 594.925278 113.19062 
L 595.759914 108.642636 
L 596.594549 125.263458 
L 599.93309 118.317436 
L 600.767725 125.015396 
L 601.60236 130.39029 
L 602.436995 142.297759 
L 604.940901 129.646073 
L 605.775536 120.384704 
L 607.444806 127.74419 
L 608.279442 145.688078 
L 610.783347 136.840173 
L 611.617982 143.455424 
L 612.452618 148.582256 
L 613.287253 154.94943 
L 614.121888 155.610956 
L 616.625794 152.882162 
L 617.460429 141.884296 
L 618.295064 153.874458 
L 619.964334 169.668385 
L 622.46824 157.182084 
L 623.302875 148.168793 
L 624.13751 164.541553 
L 624.972146 168.758782 
L 625.806781 171.156821 
L 628.310686 169.99914 
L 629.145322 166.029989 
L 629.979957 182.816212 
L 630.814592 179.012431 
L 631.649227 184.55271 
L 634.153133 181.079699 
L 634.987768 183.229659 
L 635.822403 181.493162 
L 636.657038 184.304648 
L 639.995579 149.243782 
L 640.830214 146.680358 
L 641.66485 157.347469 
L 642.499485 165.947296 
L 643.33412 134.690212 
L 645.838026 129.315318 
L 646.672661 129.315318 
L 648.341931 134.690212 
L 649.176566 135.43443 
L 652.515107 123.526961 
L 653.349742 142.297759 
L 654.184378 150.814894 
L 655.019013 157.595531 
L 657.522918 148.664933 
L 658.357554 120.550089 
L 659.192189 129.728765 
L 660.026824 128.819162 
L 660.861459 128.5711 
L 663.365365 133.036391 
L 664.2 121.459692 
L 665.034635 114.596363 
L 665.86927 119.888564 
L 666.703906 98.63705 
L 669.207811 79.287435 
L 670.042446 76.475949 
L 670.877082 96.487089 
L 671.711717 82.76043 
L 672.546352 84.57962 
L 675.050258 97.148614 
L 675.884893 105.665765 
L 676.719528 109.965687 
L 677.554163 93.675603 
L 678.388798 86.729581 
L 680.892704 77.716291 
L 681.727339 67.958782 
L 682.561974 68.454938 
L 683.39661 81.93352 
L 684.231245 81.271994 
L 686.73515 86.646888 
L 687.569786 93.840989 
L 688.404421 91.691028 
L 689.239056 98.14091 
L 690.073691 100.538933 
L 692.577597 99.215883 
L 693.412232 110.709904 
L 694.246867 120.467397 
L 695.081502 119.55781 
L 695.916138 133.119084 
L 698.420043 132.044111 
L 699.254678 132.622944 
L 700.089314 132.209481 
L 700.923949 136.840173 
L 701.758584 143.041977 
L 704.297266 144.695782 
L 705.131901 134.855581 
L 705.966536 130.307598 
L 706.801172 151.476419 
L 707.635807 159.828185 
L 710.139712 149.822614 
L 710.974348 143.124654 
L 711.808983 146.680358 
L 712.643618 148.168793 
L 713.478253 154.866738 
L 715.982159 161.151235 
L 717.651429 177.772073 
L 719.3207 176.531715 
L 721.824605 162.391608 
L 722.65924 165.037709 
L 723.493876 175.87019 
L 725.163146 188.439184 
L 727.667052 174.464447 
L 728.501687 162.722363 
L 729.336322 158.505134 
L 730.170957 161.730067 
L 731.005592 157.264776 
L 733.509498 139.320888 
L 734.344133 159.580122 
L 735.178768 171.239514 
L 736.013404 157.264776 
L 736.848039 159.001274 
L 739.351944 160.655095 
L 740.18658 168.428028 
L 741.021215 180.087419 
L 741.85585 164.376184 
L 742.690485 173.472151 
L 746.029026 167.022285 
L 746.863661 162.970441 
L 747.698296 168.758782 
L 748.532932 166.856899 
L 751.871472 156.685944 
L 752.706108 164.045413 
L 753.540743 160.32434 
L 754.375378 171.322206 
L 756.879284 164.376184 
L 757.713919 175.87019 
L 758.548554 171.652961 
L 759.383189 190.341067 
L 760.217824 194.310218 
L 763.556365 185.958453 
L 764.391 177.854765 
L 765.225636 176.36633 
L 766.060271 181.906609 
L 768.564176 182.23738 
L 769.398812 187.281503 
L 770.233447 188.273799 
L 771.068082 191.167977 
L 771.902717 192.987168 
L 774.406623 181.162391 
L 775.241258 185.627698 
L 776.075893 198.279369 
L 776.910529 191.167977 
L 777.745164 194.475603 
L 780.249069 185.37962 
L 781.083705 191.74681 
L 782.752975 174.795217 
L 783.58761 176.283637 
L 786.091516 177.854765 
L 786.926151 189.679542 
L 787.760786 195.302514 
L 788.595421 179.260508 
L 789.430057 180.500866 
L 792.768597 156.934006 
L 793.603233 161.730067 
L 794.437868 171.239514 
L 795.272503 166.856899 
L 798.611044 174.877894 
L 799.445679 175.87019 
L 801.114949 193.152553 
L 803.618855 192.160257 
L 804.45349 184.05657 
L 805.288125 188.025721 
L 806.122761 159.083967 
L 806.957396 140.974709 
L 809.426525 126.751894 
L 810.26116 149.822614 
L 811.095795 129.89415 
L 811.93043 155.941726 
L 812.765066 135.103659 
L 815.268971 146.349603 
L 816.103606 169.254938 
L 816.938242 161.978145 
L 817.772877 159.083967 
L 818.607512 166.278067 
L 821.111418 175.704805 
L 821.946053 180.914329 
L 822.780688 187.943028 
L 823.615323 188.769939 
L 824.449958 191.41604 
L 826.953864 192.656413 
L 827.788499 188.935324 
L 828.623134 188.273799 
L 829.45777 193.896771 
L 833.630946 188.108414 
L 834.465581 188.191106 
L 835.300216 198.858218 
L 836.134851 204.894637 
L 838.638757 205.886917 
L 839.473392 206.879212 
L 840.308027 209.938776 
L 841.142662 204.067726 
L 841.977298 207.375352 
L 844.481203 206.383072 
L 845.315838 190.9199 
L 846.150474 190.258374 
L 846.985109 205.225391 
L 847.819744 215.56174 
L 850.32365 213.081017 
L 851.158285 199.023587 
L 851.99292 194.392911 
L 852.827555 179.922034 
L 853.66219 203.902341 
L 856.166096 205.638855 
L 857.000731 199.602435 
L 857.835366 205.969609 
L 858.670002 206.052302 
L 859.504637 205.225391 
L 862.008542 204.481174 
L 862.843178 197.287089 
L 863.677813 206.548442 
L 864.512448 213.329095 
L 865.347083 207.044598 
L 867.850989 203.736972 
L 868.685624 192.821782 
L 869.520259 180.418174 
L 870.354894 187.777659 
L 871.18953 197.617844 
L 874.52807 201.669703 
L 875.362706 197.700537 
L 876.197341 216.636721 
L 877.031976 225.319241 
L 879.535882 224.244268 
L 880.370517 230.61145 
L 881.205152 230.776835 
L 882.039787 233.174866 
L 882.874422 231.68643 
L 885.378328 221.928922 
L 886.212963 225.236556 
L 887.047598 231.272975 
L 887.882234 226.146151 
L 888.716869 234.084461 
L 892.05541 231.272975 
L 892.890045 236.895947 
L 893.72468 239.293978 
L 894.559315 234.911371 
L 897.063221 228.213419 
L 897.897856 232.430648 
L 898.732491 234.994056 
L 899.567126 234.084461 
L 900.401762 233.671006 
L 902.905667 233.836391 
L 904.574938 228.792252 
L 905.409573 218.373226 
L 906.244208 223.417358 
L 908.748114 221.432782 
L 909.582749 223.334665 
L 910.417384 234.084461 
L 911.252019 233.505628 
L 912.086654 235.738274 
L 914.59056 234.580609 
L 915.425195 236.069037 
L 916.25983 232.265263 
L 917.094466 230.36338 
L 917.929101 233.588313 
L 920.433006 231.024905 
L 921.267642 231.43836 
L 922.102277 236.97864 
L 922.936912 226.890369 
L 923.771547 235.820967 
L 926.275453 233.340243 
L 927.110088 230.85952 
L 927.944723 212.998324 
L 928.779358 214.404067 
L 929.613994 204.646559 
L 932.117899 215.644425 
L 932.952534 213.825235 
L 933.78717 214.073305 
L 934.621805 214.9829 
L 935.45644 223.334665 
L 937.960346 223.50005 
L 938.794981 209.938776 
L 939.629616 207.29266 
L 940.464251 198.114 
L 941.298886 202.992754 
L 943.802792 204.398497 
L 944.637427 205.721547 
L 945.472062 213.907927 
L 946.306698 203.819648 
L 947.141333 216.388643 
L 949.645238 221.350089 
L 951.314509 231.272975 
L 952.149144 233.836391 
L 952.983779 237.805542 
L 956.32232 230.197995 
L 957.156955 226.559606 
L 957.99159 226.973061 
L 958.826226 231.603738 
L 961.330131 231.9345 
L 962.164766 228.378804 
L 963.834037 240.038196 
L 964.668672 232.017193 
L 967.172578 230.280687 
L 968.007213 229.371092 
L 968.841848 220.853942 
L 969.676483 201.008163 
L 970.511118 203.819648 
L 973.015024 206.30038 
L 973.849659 189.431464 
L 974.684294 195.385206 
L 975.51893 202.661983 
L 976.353565 201.173548 
L 978.857471 200.42933 
L 979.692106 182.485442 
L 980.526741 192.408335 
L 981.361376 193.152553 
L 982.196011 201.75238 
L 984.699917 199.685112 
L 985.534552 205.225391 
L 986.369187 212.998324 
L 987.203823 208.036877 
L 988.038458 186.289223 
L 990.542363 203.736972 
L 991.376999 198.196692 
L 992.211634 187.116134 
L 993.046269 169.089553 
L 993.880904 166.526145 
L 996.38481 177.606688 
L 997.219445 189.183402 
L 998.05408 179.095123 
L 998.888715 175.043279 
L 999.723351 170.164525 
L 1002.227256 182.73352 
L 1003.061891 196.046732 
L 1004.731162 216.554028 
L 1005.565797 222.755832 
L 1008.104479 222.92121 
L 1008.939114 223.582735 
L 1009.773749 226.559606 
L 1010.608385 219.613584 
L 1011.44302 228.874944 
L 1013.946925 223.99619 
L 1014.781561 228.957637 
L 1015.616196 228.792252 
L 1016.450831 227.634587 
L 1017.285466 231.9345 
L 1019.789372 235.159441 
L 1020.624007 235.655581 
L 1021.458642 239.790118 
L 1023.127913 243.015059 
L 1025.631818 241.113176 
L 1026.466453 241.113176 
L 1027.301089 238.715145 
L 1028.135724 239.211285 
L 1028.970359 241.609316 
L 1031.474265 237.888235 
L 1032.3089 239.790118 
L 1033.143535 238.79783 
L 1033.97817 238.053612 
L 1034.812805 243.924654 
L 1037.316711 241.609316 
L 1038.151346 246.24 
L 1038.985981 245.247712 
L 1039.820617 242.849681 
L 1040.655252 244.503494 
L 1043.159157 242.188148 
L 1043.993793 242.436226 
L 1044.828428 233.009481 
L 1045.663063 233.174866 
L 1046.497698 238.30169 
L 1049.836239 238.632453 
L 1050.670874 243.263129 
L 1051.505509 242.932366 
L 1052.340145 243.097751 
L 1055.678685 236.895947 
L 1056.513321 229.949925 
L 1057.347956 229.205707 
L 1058.182591 235.655581 
L 1060.686497 237.888235 
L 1061.521132 240.534335 
L 1062.355767 241.113176 
L 1063.190402 243.180444 
L 1064.025037 241.030483 
L 1067.363578 231.603738 
L 1068.198213 223.74812 
L 1069.032849 229.205707 
L 1069.867484 236.069037 
L 1072.371389 236.97864 
L 1073.206025 242.270841 
L 1074.04066 237.392087 
L 1074.875295 234.828679 
L 1075.70993 236.399799 
L 1078.213836 233.588313 
L 1079.048471 235.986344 
L 1079.883106 227.386509 
L 1080.717741 231.272975 
L 1081.552377 231.521045 
L 1084.056282 233.009481 
L 1084.890917 238.053612 
L 1085.725553 239.955503 
L 1086.560188 240.286265 
L 1087.394823 239.128592 
L 1089.898729 230.85952 
L 1090.733364 214.9829 
L 1091.567999 227.138439 
L 1092.402634 230.197995 
L 1093.237269 228.296112 
L 1096.57581 218.538603 
L 1097.410445 219.200129 
L 1099.079716 232.347955 
L 1101.583621 232.430648 
L 1102.418257 234.994056 
L 1103.252892 231.603738 
L 1104.087527 235.242134 
L 1104.922162 237.640165 
L 1107.426068 234.497916 
L 1108.260703 226.476914 
L 1109.095338 226.146151 
L 1109.929973 226.642299 
L 1110.764609 224.161575 
L 1113.233738 220.192416 
L 1114.068373 231.603738 
L 1114.903008 232.347955 
L 1115.737643 226.973061 
L 1116.572279 226.890369 
L 1119.076184 227.551894 
L 1119.910819 231.769123 
L 1120.745455 231.43836 
L 1120.745455 231.43836 
" clip-path="url(#p384fe3d69a)" style="fill: none; stroke: #0000ff; stroke-width: 1.5; stroke-linecap: square"/>
   </g>
   <g id="patch_3">
    <path d="M 162 256.32 
L 162 34.56 
" style="fill: none; stroke: #000000; stroke-width: 0.8; stroke-linejoin: miter; stroke-linecap: square"/>
   </g>
   <g id="patch_4">
    <path d="M 1166.4 256.32 
L 1166.4 34.56 
" style="fill: none; stroke: #000000; stroke-width: 0.8; stroke-linejoin: miter; stroke-linecap: square"/>
   </g>
   <g id="patch_5">
    <path d="M 162 256.32 
L 1166.4 256.32 
" style="fill: none; stroke: #000000; stroke-width: 0.8; stroke-linejoin: miter; stroke-linecap: square"/>
   </g>
   <g id="patch_6">
    <path d="M 162 34.56 
L 1166.4 34.56 
" style="fill: none; stroke: #000000; stroke-width: 0.8; stroke-linejoin: miter; stroke-linecap: square"/>
   </g>
  </g>
  <g id="axes_2">
   <g id="matplotlib.axis_3">
    <g id="ytick_6">
     <g id="line2d_17">
      <defs>
       <path id="m3e5f6e2fd5" d="M 0 0 
L 3.5 0 
" style="stroke: #000000; stroke-width: 0.8"/>
      </defs>
      <g>
       <use xlink:href="#m3e5f6e2fd5" x="1166.4" y="249.356103" style="stroke: #000000; stroke-width: 0.8"/>
      </g>
     </g>
     <g id="text_18">
      <!-- 0.0 -->
      <g transform="translate(1173.4 253.155321) scale(0.1 -0.1)">
       <defs>
        <path id="DejaVuSans-2e" d="M 684 794 
L 1344 794 
L 1344 0 
L 684 0 
L 684 794 
z
" transform="scale(0.015625)"/>
       </defs>
       <use xlink:href="#DejaVuSans-30"/>
       <use xlink:href="#DejaVuSans-2e" x="63.623047"/>
       <use xlink:href="#DejaVuSans-30" x="95.410156"/>
      </g>
     </g>
    </g>
    <g id="ytick_7">
     <g id="line2d_18">
      <g>
       <use xlink:href="#m3e5f6e2fd5" x="1166.4" y="208.321589" style="stroke: #000000; stroke-width: 0.8"/>
      </g>
     </g>
     <g id="text_19">
      <!-- 0.2 -->
      <g transform="translate(1173.4 212.120808) scale(0.1 -0.1)">
       <use xlink:href="#DejaVuSans-30"/>
       <use xlink:href="#DejaVuSans-2e" x="63.623047"/>
       <use xlink:href="#DejaVuSans-32" x="95.410156"/>
      </g>
     </g>
    </g>
    <g id="ytick_8">
     <g id="line2d_19">
      <g>
       <use xlink:href="#m3e5f6e2fd5" x="1166.4" y="167.287076" style="stroke: #000000; stroke-width: 0.8"/>
      </g>
     </g>
     <g id="text_20">
      <!-- 0.4 -->
      <g transform="translate(1173.4 171.086295) scale(0.1 -0.1)">
       <use xlink:href="#DejaVuSans-30"/>
       <use xlink:href="#DejaVuSans-2e" x="63.623047"/>
       <use xlink:href="#DejaVuSans-34" x="95.410156"/>
      </g>
     </g>
    </g>
    <g id="ytick_9">
     <g id="line2d_20">
      <g>
       <use xlink:href="#m3e5f6e2fd5" x="1166.4" y="126.252563" style="stroke: #000000; stroke-width: 0.8"/>
      </g>
     </g>
     <g id="text_21">
      <!-- 0.6 -->
      <g transform="translate(1173.4 130.051782) scale(0.1 -0.1)">
       <defs>
        <path id="DejaVuSans-36" d="M 2113 2584 
Q 1688 2584 1439 2293 
Q 1191 2003 1191 1497 
Q 1191 994 1439 701 
Q 1688 409 2113 409 
Q 2538 409 2786 701 
Q 3034 994 3034 1497 
Q 3034 2003 2786 2293 
Q 2538 2584 2113 2584 
z
M 3366 4563 
L 3366 3988 
Q 3128 4100 2886 4159 
Q 2644 4219 2406 4219 
Q 1781 4219 1451 3797 
Q 1122 3375 1075 2522 
Q 1259 2794 1537 2939 
Q 1816 3084 2150 3084 
Q 2853 3084 3261 2657 
Q 3669 2231 3669 1497 
Q 3669 778 3244 343 
Q 2819 -91 2113 -91 
Q 1303 -91 875 529 
Q 447 1150 447 2328 
Q 447 3434 972 4092 
Q 1497 4750 2381 4750 
Q 2619 4750 2861 4703 
Q 3103 4656 3366 4563 
z
" transform="scale(0.015625)"/>
       </defs>
       <use xlink:href="#DejaVuSans-30"/>
       <use xlink:href="#DejaVuSans-2e" x="63.623047"/>
       <use xlink:href="#DejaVuSans-36" x="95.410156"/>
      </g>
     </g>
    </g>
    <g id="ytick_10">
     <g id="line2d_21">
      <g>
       <use xlink:href="#m3e5f6e2fd5" x="1166.4" y="85.21805" style="stroke: #000000; stroke-width: 0.8"/>
      </g>
     </g>
     <g id="text_22">
      <!-- 0.8 -->
      <g transform="translate(1173.4 89.017269) scale(0.1 -0.1)">
       <defs>
        <path id="DejaVuSans-38" d="M 2034 2216 
Q 1584 2216 1326 1975 
Q 1069 1734 1069 1313 
Q 1069 891 1326 650 
Q 1584 409 2034 409 
Q 2484 409 2743 651 
Q 3003 894 3003 1313 
Q 3003 1734 2745 1975 
Q 2488 2216 2034 2216 
z
M 1403 2484 
Q 997 2584 770 2862 
Q 544 3141 544 3541 
Q 544 4100 942 4425 
Q 1341 4750 2034 4750 
Q 2731 4750 3128 4425 
Q 3525 4100 3525 3541 
Q 3525 3141 3298 2862 
Q 3072 2584 2669 2484 
Q 3125 2378 3379 2068 
Q 3634 1759 3634 1313 
Q 3634 634 3220 271 
Q 2806 -91 2034 -91 
Q 1263 -91 848 271 
Q 434 634 434 1313 
Q 434 1759 690 2068 
Q 947 2378 1403 2484 
z
M 1172 3481 
Q 1172 3119 1398 2916 
Q 1625 2713 2034 2713 
Q 2441 2713 2670 2916 
Q 2900 3119 2900 3481 
Q 2900 3844 2670 4047 
Q 2441 4250 2034 4250 
Q 1625 4250 1398 4047 
Q 1172 3844 1172 3481 
z
" transform="scale(0.015625)"/>
       </defs>
       <use xlink:href="#DejaVuSans-30"/>
       <use xlink:href="#DejaVuSans-2e" x="63.623047"/>
       <use xlink:href="#DejaVuSans-38" x="95.410156"/>
      </g>
     </g>
    </g>
    <g id="ytick_11">
     <g id="line2d_22">
      <g>
       <use xlink:href="#m3e5f6e2fd5" x="1166.4" y="44.183537" style="stroke: #000000; stroke-width: 0.8"/>
      </g>
     </g>
     <g id="text_23">
      <!-- 1.0 -->
      <g transform="translate(1173.4 47.982756) scale(0.1 -0.1)">
       <use xlink:href="#DejaVuSans-31"/>
       <use xlink:href="#DejaVuSans-2e" x="63.623047"/>
       <use xlink:href="#DejaVuSans-30" x="95.410156"/>
      </g>
     </g>
    </g>
    <g id="text_24">
     <!-- Indicator -->
     <g transform="translate(1200.901563 167.535313) rotate(-90) scale(0.1 -0.1)">
      <defs>
       <path id="DejaVuSans-6e" d="M 3513 2113 
L 3513 0 
L 2938 0 
L 2938 2094 
Q 2938 2591 2744 2837 
Q 2550 3084 2163 3084 
Q 1697 3084 1428 2787 
Q 1159 2491 1159 1978 
L 1159 0 
L 581 0 
L 581 3500 
L 1159 3500 
L 1159 2956 
Q 1366 3272 1645 3428 
Q 1925 3584 2291 3584 
Q 2894 3584 3203 3211 
Q 3513 2838 3513 2113 
z
" transform="scale(0.015625)"/>
       <path id="DejaVuSans-64" d="M 2906 2969 
L 2906 4863 
L 3481 4863 
L 3481 0 
L 2906 0 
L 2906 525 
Q 2725 213 2448 61 
Q 2172 -91 1784 -91 
Q 1150 -91 751 415 
Q 353 922 353 1747 
Q 353 2572 751 3078 
Q 1150 3584 1784 3584 
Q 2172 3584 2448 3432 
Q 2725 3281 2906 2969 
z
M 947 1747 
Q 947 1113 1208 752 
Q 1469 391 1925 391 
Q 2381 391 2643 752 
Q 2906 1113 2906 1747 
Q 2906 2381 2643 2742 
Q 2381 3103 1925 3103 
Q 1469 3103 1208 2742 
Q 947 2381 947 1747 
z
" transform="scale(0.015625)"/>
       <path id="DejaVuSans-69" d="M 603 3500 
L 1178 3500 
L 1178 0 
L 603 0 
L 603 3500 
z
M 603 4863 
L 1178 4863 
L 1178 4134 
L 603 4134 
L 603 4863 
z
" transform="scale(0.015625)"/>
       <path id="DejaVuSans-63" d="M 3122 3366 
L 3122 2828 
Q 2878 2963 2633 3030 
Q 2388 3097 2138 3097 
Q 1578 3097 1268 2742 
Q 959 2388 959 1747 
Q 959 1106 1268 751 
Q 1578 397 2138 397 
Q 2388 397 2633 464 
Q 2878 531 3122 666 
L 3122 134 
Q 2881 22 2623 -34 
Q 2366 -91 2075 -91 
Q 1284 -91 818 406 
Q 353 903 353 1747 
Q 353 2603 823 3093 
Q 1294 3584 2113 3584 
Q 2378 3584 2631 3529 
Q 2884 3475 3122 3366 
z
" transform="scale(0.015625)"/>
       <path id="DejaVuSans-6f" d="M 1959 3097 
Q 1497 3097 1228 2736 
Q 959 2375 959 1747 
Q 959 1119 1226 758 
Q 1494 397 1959 397 
Q 2419 397 2687 759 
Q 2956 1122 2956 1747 
Q 2956 2369 2687 2733 
Q 2419 3097 1959 3097 
z
M 1959 3584 
Q 2709 3584 3137 3096 
Q 3566 2609 3566 1747 
Q 3566 888 3137 398 
Q 2709 -91 1959 -91 
Q 1206 -91 779 398 
Q 353 888 353 1747 
Q 353 2609 779 3096 
Q 1206 3584 1959 3584 
z
" transform="scale(0.015625)"/>
       <path id="DejaVuSans-72" d="M 2631 2963 
Q 2534 3019 2420 3045 
Q 2306 3072 2169 3072 
Q 1681 3072 1420 2755 
Q 1159 2438 1159 1844 
L 1159 0 
L 581 0 
L 581 3500 
L 1159 3500 
L 1159 2956 
Q 1341 3275 1631 3429 
Q 1922 3584 2338 3584 
Q 2397 3584 2469 3576 
Q 2541 3569 2628 3553 
L 2631 2963 
z
" transform="scale(0.015625)"/>
      </defs>
      <use xlink:href="#DejaVuSans-49"/>
      <use xlink:href="#DejaVuSans-6e" x="29.492188"/>
      <use xlink:href="#DejaVuSans-64" x="92.871094"/>
      <use xlink:href="#DejaVuSans-69" x="156.347656"/>
      <use xlink:href="#DejaVuSans-63" x="184.130859"/>
      <use xlink:href="#DejaVuSans-61" x="239.111328"/>
      <use xlink:href="#DejaVuSans-74" x="300.390625"/>
      <use xlink:href="#DejaVuSans-6f" x="339.599609"/>
      <use xlink:href="#DejaVuSans-72" x="400.78125"/>
     </g>
    </g>
   </g>
   <g id="line2d_23">
    <path d="M 207.654545 232.393293 
L 208.489181 214.49633 
L 209.323816 179.972939 
L 210.158451 219.924482 
L 210.993086 230.029538 
L 213.496992 194.086114 
L 214.331627 220.781529 
L 215.166262 221.356969 
L 216.000897 234.229502 
L 219.339438 228.699098 
L 220.174073 225.228741 
L 221.008709 230.211374 
L 221.843344 229.000985 
L 222.677979 230.99936 
L 225.181885 230.328837 
L 226.01652 231.001585 
L 226.851155 228.34389 
L 228.520425 235.052692 
L 231.024331 225.522048 
L 231.858966 170.002437 
L 232.693601 217.1051 
L 233.528237 143.325772 
L 234.362872 216.723347 
L 236.866777 194.467878 
L 237.701413 189.83523 
L 238.536048 196.611042 
L 239.370683 167.427061 
L 240.205318 99.135373 
L 242.709224 117.995201 
L 243.543859 62.418712 
L 244.378494 71.795991 
L 245.213129 113.370881 
L 246.047765 223.592726 
L 248.55167 52.948043 
L 249.386305 44.763411 
L 250.220941 44.711493 
L 251.055576 47.577115 
L 251.890211 83.771024 
L 254.394117 63.409952 
L 255.228752 52.237802 
L 256.063387 50.949528 
L 257.732657 65.647787 
L 260.236563 139.027712 
L 261.071198 118.568915 
L 261.905833 207.254676 
L 262.740469 223.672727 
L 263.575104 223.435385 
L 266.913645 183.0546 
L 267.74828 199.18897 
L 268.582915 170.171998 
L 269.41755 225.954683 
L 271.921456 225.688854 
L 272.756091 210.214332 
L 273.590726 172.498778 
L 274.425361 229.866641 
L 275.259997 233.670687 
L 277.763902 222.52805 
L 278.598537 200.834987 
L 279.433173 128.567494 
L 280.267808 148.663333 
L 281.102443 59.168166 
L 283.606349 144.813649 
L 284.440984 204.002106 
L 285.275619 211.951447 
L 286.110254 222.146192 
L 286.944889 229.533366 
L 289.448795 223.155603 
L 290.28343 212.135825 
L 291.118065 216.984491 
L 291.952701 227.937778 
L 292.787336 236.323538 
L 296.125877 177.538568 
L 296.960512 188.237382 
L 297.795147 50.37682 
L 298.629782 185.492952 
L 301.133688 184.260012 
L 301.968323 113.885519 
L 302.802958 169.070946 
L 304.472229 56.237771 
L 306.976134 45.342427 
L 307.810769 50.806375 
L 308.645405 75.516325 
L 309.48004 83.161273 
L 310.314675 112.394698 
L 312.818581 96.38641 
L 313.653216 54.372863 
L 314.487851 73.028703 
L 315.322486 97.603841 
L 316.157121 75.190492 
L 318.661027 52.822478 
L 319.495662 82.82151 
L 320.330297 90.225433 
L 321.164933 139.541321 
L 321.999568 211.900673 
L 324.503473 183.479795 
L 325.338109 181.282047 
L 326.172744 214.390316 
L 327.007379 231.024042 
L 327.842014 233.619371 
L 330.34592 217.016848 
L 331.180555 107.107787 
L 332.01519 47.045367 
L 332.849825 48.139139 
L 333.684461 85.85167 
L 336.188366 177.696469 
L 337.023001 173.490762 
L 337.857637 199.167808 
L 338.692272 80.746491 
L 339.526907 215.012361 
L 342.030813 221.186414 
L 342.865448 206.175538 
L 343.700083 217.335281 
L 344.534718 200.915248 
L 345.369353 198.351218 
L 348.707894 86.462662 
L 349.542529 94.452903 
L 350.377165 64.232038 
L 351.2118 48.039096 
L 353.715706 57.409928 
L 354.550341 56.434422 
L 355.384976 85.557051 
L 356.219611 69.413343 
L 357.054246 49.855965 
L 359.558152 46.191204 
L 360.392787 48.149899 
L 361.227422 56.795077 
L 362.062058 103.912598 
L 362.896693 163.72774 
L 365.400598 107.906691 
L 366.235234 51.571063 
L 367.069869 54.682837 
L 367.904504 53.624229 
L 368.739139 62.275322 
L 371.243045 54.978036 
L 372.07768 64.020453 
L 372.912315 68.601454 
L 374.581586 158.234209 
L 377.085491 98.403756 
L 377.920126 115.561385 
L 378.754762 190.743351 
L 379.589397 231.657056 
L 380.424032 235.741868 
L 382.927938 235.641628 
L 383.762573 237.845401 
L 384.597208 237.855396 
L 385.431843 238.420184 
L 386.266478 235.106578 
L 388.770384 234.388235 
L 389.605019 228.477749 
L 390.439654 218.817024 
L 391.27429 223.089745 
L 392.108925 222.185021 
L 394.61283 176.94384 
L 395.447466 187.935137 
L 396.282101 212.060145 
L 397.116736 198.193732 
L 397.951371 139.191424 
L 400.490053 100.864557 
L 402.159324 66.976768 
L 402.993959 87.660492 
L 403.828594 163.751715 
L 406.3325 150.43351 
L 407.167135 158.235848 
L 408.00177 108.018871 
L 408.836405 82.156194 
L 409.67104 69.556465 
L 412.174946 48.267729 
L 413.009581 46.429431 
L 413.844216 52.67359 
L 415.513487 44.64 
L 418.017392 47.277766 
L 418.852028 46.69382 
L 419.686663 47.086745 
L 420.521298 49.474566 
L 421.355933 49.76631 
L 423.859839 52.794173 
L 424.694474 60.851837 
L 425.529109 70.472024 
L 426.363744 63.0529 
L 427.19838 91.836749 
L 430.53692 64.90553 
L 431.371556 97.516746 
L 432.206191 77.771465 
L 433.040826 70.106514 
L 435.544732 64.374993 
L 436.379367 80.972649 
L 437.214002 180.528953 
L 438.048637 202.438891 
L 441.387178 208.359385 
L 442.221813 210.249362 
L 443.056448 218.28583 
L 443.891084 213.106011 
L 444.725719 214.665005 
L 447.229624 221.744618 
L 448.06426 219.051556 
L 448.898895 128.205738 
L 449.73353 143.059456 
L 450.568165 189.034093 
L 453.072071 151.482137 
L 453.906706 191.277703 
L 454.741341 210.21331 
L 455.575976 88.531278 
L 456.410612 144.28564 
L 459.749152 53.296932 
L 460.583788 49.173634 
L 461.418423 48.089088 
L 462.253058 47.680506 
L 464.756964 48.486474 
L 465.591599 49.432299 
L 466.426234 50.559383 
L 467.260869 52.35787 
L 468.095504 55.677536 
L 470.59941 60.473476 
L 471.434045 69.951128 
L 472.26868 69.150864 
L 473.103316 62.021077 
L 473.937951 65.864052 
L 476.441856 69.803237 
L 477.276492 82.942627 
L 478.111127 133.578388 
L 478.945762 67.960209 
L 479.780397 63.684974 
L 482.284303 62.280505 
L 483.118938 73.351329 
L 483.953573 100.341016 
L 484.788208 64.482012 
L 485.622844 66.819826 
L 488.961384 63.520592 
L 489.79602 59.271707 
L 490.630655 60.696056 
L 491.46529 69.871058 
L 493.969196 75.288696 
L 494.803831 60.436601 
L 495.638466 71.17945 
L 496.473101 74.502673 
L 497.307736 65.786897 
L 499.811642 74.565271 
L 500.646277 59.421787 
L 501.480912 65.969612 
L 502.315548 79.624501 
L 503.150183 74.689005 
L 505.619312 75.416274 
L 506.453947 166.752619 
L 507.288582 77.22557 
L 508.123218 229.347896 
L 508.957853 233.818476 
L 511.461758 234.480271 
L 512.296394 235.435591 
L 513.131029 78.667278 
L 513.965664 237.558628 
L 514.800299 238.011534 
L 517.304205 79.825022 
L 518.13884 236.924278 
L 518.973475 235.87069 
L 519.80811 234.382156 
L 520.642746 234.069045 
L 523.146651 233.850298 
L 523.981286 230.529739 
L 524.815922 228.143193 
L 525.650557 160.209232 
L 526.485192 165.707273 
L 528.989098 78.349715 
L 529.823733 78.7043 
L 530.658368 141.226867 
L 531.493003 106.443001 
L 534.831544 134.605968 
L 535.666179 174.092564 
L 536.500814 207.196255 
L 537.33545 100.629114 
L 538.170085 53.584813 
L 540.67399 55.098282 
L 541.508626 48.853869 
L 542.343261 50.0566 
L 543.177896 51.847821 
L 544.012531 50.533373 
L 546.516437 52.440409 
L 547.351072 56.409933 
L 548.185707 66.039286 
L 549.020342 56.116073 
L 549.854978 58.186698 
L 552.358883 56.031387 
L 553.193518 58.381466 
L 554.028154 59.659873 
L 554.862789 61.304418 
L 555.697424 183.991261 
L 558.20133 203.64718 
L 559.035965 216.100349 
L 559.8706 102.441811 
L 560.705235 76.246507 
L 561.53987 76.431333 
L 564.043776 76.693851 
L 564.878411 147.289779 
L 565.713046 77.142717 
L 566.547682 213.340197 
L 567.382317 77.731066 
L 570.720858 227.2227 
L 571.555493 218.089664 
L 572.390128 235.572498 
L 573.224763 78.245287 
L 575.728669 234.129462 
L 576.563304 236.343989 
L 577.397939 78.320009 
L 578.232574 226.532266 
L 579.06721 186.444921 
L 581.571115 55.803408 
L 582.40575 59.368551 
L 583.240386 89.77665 
L 584.075021 60.276021 
L 584.909656 71.034351 
L 588.248197 84.608328 
L 589.082832 76.770739 
L 589.917467 127.886986 
L 590.752102 208.215428 
L 593.256008 206.699469 
L 594.090643 76.727783 
L 594.925278 149.043202 
L 595.759914 125.963479 
L 596.594549 77.216393 
L 599.93309 76.964551 
L 600.767725 198.977328 
L 601.60236 211.077543 
L 602.436995 230.049328 
L 604.940901 188.464886 
L 605.775536 116.921036 
L 606.610171 154.444816 
L 607.444806 181.396608 
L 608.279442 231.154664 
L 610.783347 218.470715 
L 611.617982 228.94878 
L 612.452618 233.180108 
L 613.287253 236.522162 
L 614.121888 78.23917 
L 616.625794 78.118903 
L 617.460429 223.216065 
L 618.295064 234.413634 
L 619.129699 238.065013 
L 619.964334 239.685924 
L 622.46824 235.9046 
L 623.302875 228.666694 
L 624.13751 240.134627 
L 624.972146 239.73501 
L 625.806781 238.522974 
L 628.310686 235.212909 
L 629.145322 228.945038 
L 629.979957 239.344826 
L 630.814592 237.082197 
L 631.649227 239.278387 
L 634.153133 236.607683 
L 634.987768 237.314189 
L 635.822403 235.5737 
L 636.657038 236.370616 
L 637.491674 222.392635 
L 639.995579 78.336367 
L 640.830214 71.369037 
L 641.66485 122.089776 
L 642.499485 181.243524 
L 643.33412 50.73975 
L 645.838026 49.206103 
L 646.672661 50.074636 
L 648.341931 54.155494 
L 649.176566 55.425271 
L 652.515107 52.356655 
L 653.349742 61.624479 
L 654.184378 73.84867 
L 655.019013 98.937383 
L 657.522918 79.886711 
L 658.357554 53.153981 
L 659.192189 56.994494 
L 660.026824 63.517691 
L 660.861459 68.289558 
L 663.365365 101.716794 
L 664.2 76.94422 
L 665.034635 69.369726 
L 665.86927 78.040987 
L 666.703906 58.520469 
L 669.207811 53.593557 
L 670.042446 53.499135 
L 670.877082 58.481351 
L 671.711717 54.591031 
L 672.546352 54.968745 
L 675.050258 58.865953 
L 676.719528 70.374429 
L 677.554163 58.465164 
L 678.388798 55.981861 
L 680.892704 54.871113 
L 681.727339 75.385892 
L 682.561974 75.817052 
L 683.39661 60.277246 
L 684.231245 61.09689 
L 686.73515 97.757591 
L 687.569786 151.191157 
L 688.404421 76.498779 
L 689.239056 182.757788 
L 690.073691 192.62434 
L 692.577597 76.947548 
L 693.412232 77.328412 
L 694.246867 236.613591 
L 695.081502 236.476248 
L 695.916138 242.427269 
L 698.420043 242.170382 
L 699.254678 241.804442 
L 700.089314 78.107055 
L 700.923949 78.287552 
L 701.758584 241.419392 
L 704.297266 240.264644 
L 705.131901 236.707641 
L 705.966536 234.034828 
L 706.801172 238.727789 
L 707.635807 238.93475 
L 710.139712 220.431879 
L 710.974348 77.912131 
L 711.808983 210.669306 
L 712.643618 212.235402 
L 713.478253 78.206157 
L 715.982159 226.736266 
L 716.816794 232.208118 
L 717.651429 235.508097 
L 719.3207 235.306367 
L 721.824605 227.695758 
L 722.65924 229.309092 
L 723.493876 235.500086 
L 724.328511 237.765981 
L 725.163146 239.389845 
L 727.667052 234.050103 
L 728.501687 220.508215 
L 729.336322 200.789796 
L 730.170957 204.019383 
L 731.005592 166.490196 
L 733.509498 65.655463 
L 734.344133 175.187522 
L 735.178768 224.77992 
L 736.013404 138.501081 
L 736.848039 148.36675 
L 739.351944 156.676644 
L 740.18658 205.653645 
L 741.021215 237.274575 
L 741.85585 164.901051 
L 742.690485 219.543026 
L 746.029026 174.812494 
L 746.863661 133.435221 
L 747.698296 179.262802 
L 748.532932 156.564096 
L 751.871472 74.322322 
L 752.706108 125.180877 
L 753.540743 94.557682 
L 754.375378 191.416575 
L 756.879284 132.793902 
L 757.713919 222.591483 
L 758.548554 194.894735 
L 759.383189 246.105713 
L 760.217824 246.227459 
L 763.556365 240.554591 
L 764.391 224.532724 
L 765.225636 218.358186 
L 766.060271 233.980279 
L 768.564176 232.609005 
L 769.398812 239.807431 
L 770.233447 239.468642 
L 771.068082 244.243409 
L 771.902717 244.428913 
L 774.406623 209.259097 
L 776.075893 246.24 
L 776.910529 235.807874 
L 777.745164 239.588313 
L 780.249069 203.360964 
L 781.083705 228.707286 
L 781.91834 175.060247 
L 782.752975 94.309173 
L 783.58761 103.121642 
L 786.091516 113.190775 
L 786.926151 206.847791 
L 787.760786 232.08731 
L 788.595421 107.349306 
L 789.430057 114.001994 
L 792.768597 45.031509 
L 793.603233 46.860876 
L 794.437868 60.995511 
L 795.272503 52.090539 
L 797.776409 69.710394 
L 798.611044 84.586219 
L 799.445679 94.302316 
L 800.280314 165.313287 
L 801.114949 224.195564 
L 803.618855 217.216659 
L 804.45349 153.372684 
L 805.288125 188.70524 
L 806.122761 47.337409 
L 806.957396 45.653967 
L 809.426525 46.030698 
L 810.26116 50.905846 
L 811.095795 48.347305 
L 811.93043 57.813002 
L 812.765066 50.904897 
L 815.268971 55.44642 
L 816.103606 99.006002 
L 816.938242 76.206806 
L 817.772877 72.83849 
L 818.607512 107.704407 
L 821.946053 208.816137 
L 822.780688 227.004899 
L 823.615323 228.539644 
L 824.449958 231.734114 
L 826.953864 232.726212 
L 828.623134 216.658982 
L 829.45777 222.138846 
L 832.79631 195.437893 
L 833.630946 176.470512 
L 834.465581 167.919133 
L 835.300216 211.865924 
L 836.134851 221.331586 
L 838.638757 222.500837 
L 839.473392 223.492827 
L 840.308027 225.14734 
L 841.142662 216.769443 
L 841.977298 221.032168 
L 844.481203 219.899054 
L 845.315838 153.924545 
L 846.150474 146.685051 
L 846.985109 221.176388 
L 847.819744 234.903655 
L 850.32365 234.325894 
L 851.99292 147.57852 
L 852.827555 62.35648 
L 853.66219 213.464018 
L 856.166096 220.16857 
L 857.000731 168.92005 
L 857.835366 213.893967 
L 858.670002 210.490237 
L 859.504637 200.583688 
L 862.008542 191.087029 
L 862.843178 121.199579 
L 863.677813 201.696972 
L 864.512448 234.279507 
L 865.347083 195.298108 
L 867.850989 160.034025 
L 868.685624 69.379402 
L 869.520259 46.197834 
L 870.354894 54.697284 
L 871.18953 105.713397 
L 874.52807 144.842198 
L 875.362706 111.419274 
L 876.197341 239.621348 
L 877.031976 246.167157 
L 879.535882 244.13449 
L 880.370517 245.610443 
L 881.205152 244.054324 
L 882.039787 243.593706 
L 882.874422 241.72895 
L 885.378328 231.98293 
L 887.047598 239.29777 
L 887.882234 233.777167 
L 888.716869 240.70867 
L 892.05541 237.842987 
L 892.890045 240.759258 
L 893.72468 239.652973 
L 894.559315 222.918292 
L 897.063221 179.709448 
L 897.897856 195.593567 
L 898.732491 202.173134 
L 900.401762 186.396955 
L 902.905667 182.046609 
L 904.574938 140.222155 
L 905.409573 78.710937 
L 906.244208 102.153069 
L 908.748114 90.980293 
L 909.582749 103.596098 
L 910.417384 193.673347 
L 911.252019 186.896526 
L 912.086654 202.030781 
L 914.59056 187.799399 
L 915.425195 197.179406 
L 916.25983 160.510355 
L 917.094466 141.834328 
L 917.929101 172.392793 
L 920.433006 148.162439 
L 921.267642 152.331209 
L 922.102277 198.248483 
L 922.936912 103.968431 
L 923.771547 186.940489 
L 926.275453 161.692634 
L 927.110088 138.298908 
L 927.944723 47.109731 
L 928.779358 49.691413 
L 929.613994 45.057223 
L 932.117899 56.712351 
L 932.952534 53.316197 
L 933.78717 55.105596 
L 934.621805 59.870017 
L 935.45644 116.70339 
L 937.960346 121.405803 
L 938.794981 50.653809 
L 940.464251 45.35744 
L 941.298886 48.106551 
L 943.802792 50.02653 
L 944.637427 52.268171 
L 945.472062 80.426438 
L 946.306698 52.684434 
L 947.141333 115.246241 
L 949.645238 166.565174 
L 950.479874 209.848291 
L 951.314509 231.910279 
L 952.149144 238.124417 
L 952.983779 243.4096 
L 956.32232 226.781345 
L 957.156955 209.854307 
L 957.99159 214.254133 
L 958.826226 233.228912 
L 961.330131 235.010841 
L 962.164766 222.671873 
L 962.999402 240.924046 
L 963.834037 244.70964 
L 964.668672 227.021346 
L 967.172578 213.977033 
L 968.007213 202.550082 
L 969.676483 49.758737 
L 970.511118 52.983017 
L 973.015024 56.919537 
L 973.849659 47.55306 
L 974.684294 50.924307 
L 975.51893 56.289825 
L 976.353565 54.662284 
L 978.857471 54.319327 
L 979.692106 49.167218 
L 980.526741 52.844722 
L 981.361376 54.510569 
L 982.196011 59.558424 
L 984.699917 59.047888 
L 985.534552 64.110043 
L 986.369187 77.085136 
L 987.203823 149.375064 
L 988.038458 63.902535 
L 990.542363 134.512604 
L 992.211634 68.230499 
L 993.046269 54.282948 
L 993.880904 53.976358 
L 996.38481 60.154291 
L 997.219445 80.465962 
L 998.05408 61.12198 
L 998.888715 56.58069 
L 999.723351 53.131825 
L 1002.227256 68.305481 
L 1003.061891 153.804568 
L 1003.896527 223.635335 
L 1004.731162 240.696614 
L 1005.565797 243.267109 
L 1008.104479 242.20483 
L 1008.939114 240.321468 
L 1009.773749 240.060982 
L 1010.608385 234.402444 
L 1011.44302 239.361969 
L 1013.946925 235.628557 
L 1014.781561 236.618081 
L 1015.616196 234.097758 
L 1016.450831 230.48562 
L 1017.285466 230.804969 
L 1019.789372 222.373465 
L 1020.624007 216.174275 
L 1021.458642 218.620205 
L 1023.127913 220.530375 
L 1025.631818 217.292075 
L 1026.466453 215.610952 
L 1027.301089 209.039587 
L 1028.135724 208.92654 
L 1028.970359 214.276349 
L 1031.474265 201.663369 
L 1032.3089 206.603278 
L 1033.97817 192.143747 
L 1034.812805 217.659083 
L 1037.316711 209.533656 
L 1038.151346 229.59468 
L 1038.985981 229.893679 
L 1039.820617 217.88463 
L 1040.655252 221.93606 
L 1043.159157 202.92012 
L 1043.993793 199.861149 
L 1044.828428 109.255203 
L 1045.663063 108.768859 
L 1046.497698 151.868868 
L 1049.836239 151.923526 
L 1050.670874 189.289231 
L 1051.505509 182.323054 
L 1052.340145 179.512485 
L 1055.678685 116.703441 
L 1056.513321 67.47539 
L 1057.347956 64.974 
L 1058.182591 107.920962 
L 1060.686497 129.19963 
L 1061.521132 156.053196 
L 1062.355767 161.718794 
L 1063.190402 180.564164 
L 1064.025037 159.487104 
L 1067.363578 79.106069 
L 1068.198213 51.062017 
L 1069.032849 70.426898 
L 1069.867484 123.256646 
L 1072.371389 132.599465 
L 1073.206025 182.32306 
L 1074.04066 137.404621 
L 1074.875295 115.0834 
L 1075.70993 133.109887 
L 1078.213836 110.355487 
L 1079.048471 135.104481 
L 1079.883106 71.396977 
L 1080.717741 100.452616 
L 1081.552377 105.621235 
L 1084.056282 119.0041 
L 1084.890917 166.575256 
L 1085.725553 183.698589 
L 1086.560188 186.124873 
L 1087.394823 176.96291 
L 1089.898729 102.267513 
L 1090.733364 45.958092 
L 1091.567999 83.551111 
L 1092.402634 107.340444 
L 1093.237269 92.030831 
L 1096.57581 50.940517 
L 1097.410445 53.64011 
L 1098.245081 86.199047 
L 1099.079716 146.824502 
L 1101.583621 151.188046 
L 1102.418257 177.775148 
L 1103.252892 144.99717 
L 1104.087527 176.530904 
L 1104.922162 194.984432 
L 1107.426068 167.365088 
L 1108.260703 95.552119 
L 1109.095338 97.197114 
L 1109.929973 104.273622 
L 1110.764609 87.531684 
L 1113.233738 67.135272 
L 1114.068373 160.725385 
L 1114.903008 169.077432 
L 1115.737643 116.983324 
L 1116.572279 117.569358 
L 1119.076184 125.039666 
L 1119.910819 166.730839 
L 1120.745455 165.677961 
L 1120.745455 165.677961 
" clip-path="url(#p384fe3d69a)" style="fill: none; stroke: #000000; stroke-width: 1.5; stroke-linecap: square"/>
   </g>
   <g id="patch_7">
    <path d="M 162 256.32 
L 162 34.56 
" style="fill: none; stroke: #000000; stroke-width: 0.8; stroke-linejoin: miter; stroke-linecap: square"/>
   </g>
   <g id="patch_8">
    <path d="M 1166.4 256.32 
L 1166.4 34.56 
" style="fill: none; stroke: #000000; stroke-width: 0.8; stroke-linejoin: miter; stroke-linecap: square"/>
   </g>
   <g id="patch_9">
    <path d="M 162 256.32 
L 1166.4 256.32 
" style="fill: none; stroke: #000000; stroke-width: 0.8; stroke-linejoin: miter; stroke-linecap: square"/>
   </g>
   <g id="patch_10">
    <path d="M 162 34.56 
L 1166.4 34.56 
" style="fill: none; stroke: #000000; stroke-width: 0.8; stroke-linejoin: miter; stroke-linecap: square"/>
   </g>
   <g id="text_25">
    <!-- VIX and Cumulative Probability Indicator - 3Y (Updated 2024-03-20 17:09:07) -->
    <g transform="translate(431.60625 28.56) scale(0.12 -0.12)">
     <defs>
      <path id="DejaVuSans-20" transform="scale(0.015625)"/>
      <path id="DejaVuSans-43" d="M 4122 4306 
L 4122 3641 
Q 3803 3938 3442 4084 
Q 3081 4231 2675 4231 
Q 1875 4231 1450 3742 
Q 1025 3253 1025 2328 
Q 1025 1406 1450 917 
Q 1875 428 2675 428 
Q 3081 428 3442 575 
Q 3803 722 4122 1019 
L 4122 359 
Q 3791 134 3420 21 
Q 3050 -91 2638 -91 
Q 1578 -91 968 557 
Q 359 1206 359 2328 
Q 359 3453 968 4101 
Q 1578 4750 2638 4750 
Q 3056 4750 3426 4639 
Q 3797 4528 4122 4306 
z
" transform="scale(0.015625)"/>
      <path id="DejaVuSans-75" d="M 544 1381 
L 544 3500 
L 1119 3500 
L 1119 1403 
Q 1119 906 1312 657 
Q 1506 409 1894 409 
Q 2359 409 2629 706 
Q 2900 1003 2900 1516 
L 2900 3500 
L 3475 3500 
L 3475 0 
L 2900 0 
L 2900 538 
Q 2691 219 2414 64 
Q 2138 -91 1772 -91 
Q 1169 -91 856 284 
Q 544 659 544 1381 
z
M 1991 3584 
L 1991 3584 
z
" transform="scale(0.015625)"/>
      <path id="DejaVuSans-6d" d="M 3328 2828 
Q 3544 3216 3844 3400 
Q 4144 3584 4550 3584 
Q 5097 3584 5394 3201 
Q 5691 2819 5691 2113 
L 5691 0 
L 5113 0 
L 5113 2094 
Q 5113 2597 4934 2840 
Q 4756 3084 4391 3084 
Q 3944 3084 3684 2787 
Q 3425 2491 3425 1978 
L 3425 0 
L 2847 0 
L 2847 2094 
Q 2847 2600 2669 2842 
Q 2491 3084 2119 3084 
Q 1678 3084 1418 2786 
Q 1159 2488 1159 1978 
L 1159 0 
L 581 0 
L 581 3500 
L 1159 3500 
L 1159 2956 
Q 1356 3278 1631 3431 
Q 1906 3584 2284 3584 
Q 2666 3584 2933 3390 
Q 3200 3197 3328 2828 
z
" transform="scale(0.015625)"/>
      <path id="DejaVuSans-6c" d="M 603 4863 
L 1178 4863 
L 1178 0 
L 603 0 
L 603 4863 
z
" transform="scale(0.015625)"/>
      <path id="DejaVuSans-76" d="M 191 3500 
L 800 3500 
L 1894 563 
L 2988 3500 
L 3597 3500 
L 2284 0 
L 1503 0 
L 191 3500 
z
" transform="scale(0.015625)"/>
      <path id="DejaVuSans-50" d="M 1259 4147 
L 1259 2394 
L 2053 2394 
Q 2494 2394 2734 2622 
Q 2975 2850 2975 3272 
Q 2975 3691 2734 3919 
Q 2494 4147 2053 4147 
L 1259 4147 
z
M 628 4666 
L 2053 4666 
Q 2838 4666 3239 4311 
Q 3641 3956 3641 3272 
Q 3641 2581 3239 2228 
Q 2838 1875 2053 1875 
L 1259 1875 
L 1259 0 
L 628 0 
L 628 4666 
z
" transform="scale(0.015625)"/>
      <path id="DejaVuSans-62" d="M 3116 1747 
Q 3116 2381 2855 2742 
Q 2594 3103 2138 3103 
Q 1681 3103 1420 2742 
Q 1159 2381 1159 1747 
Q 1159 1113 1420 752 
Q 1681 391 2138 391 
Q 2594 391 2855 752 
Q 3116 1113 3116 1747 
z
M 1159 2969 
Q 1341 3281 1617 3432 
Q 1894 3584 2278 3584 
Q 2916 3584 3314 3078 
Q 3713 2572 3713 1747 
Q 3713 922 3314 415 
Q 2916 -91 2278 -91 
Q 1894 -91 1617 61 
Q 1341 213 1159 525 
L 1159 0 
L 581 0 
L 581 4863 
L 1159 4863 
L 1159 2969 
z
" transform="scale(0.015625)"/>
      <path id="DejaVuSans-79" d="M 2059 -325 
Q 1816 -950 1584 -1140 
Q 1353 -1331 966 -1331 
L 506 -1331 
L 506 -850 
L 844 -850 
Q 1081 -850 1212 -737 
Q 1344 -625 1503 -206 
L 1606 56 
L 191 3500 
L 800 3500 
L 1894 763 
L 2988 3500 
L 3597 3500 
L 2059 -325 
z
" transform="scale(0.015625)"/>
      <path id="DejaVuSans-59" d="M -13 4666 
L 666 4666 
L 1959 2747 
L 3244 4666 
L 3922 4666 
L 2272 2222 
L 2272 0 
L 1638 0 
L 1638 2222 
L -13 4666 
z
" transform="scale(0.015625)"/>
      <path id="DejaVuSans-28" d="M 1984 4856 
Q 1566 4138 1362 3434 
Q 1159 2731 1159 2009 
Q 1159 1288 1364 580 
Q 1569 -128 1984 -844 
L 1484 -844 
Q 1016 -109 783 600 
Q 550 1309 550 2009 
Q 550 2706 781 3412 
Q 1013 4119 1484 4856 
L 1984 4856 
z
" transform="scale(0.015625)"/>
      <path id="DejaVuSans-55" d="M 556 4666 
L 1191 4666 
L 1191 1831 
Q 1191 1081 1462 751 
Q 1734 422 2344 422 
Q 2950 422 3222 751 
Q 3494 1081 3494 1831 
L 3494 4666 
L 4128 4666 
L 4128 1753 
Q 4128 841 3676 375 
Q 3225 -91 2344 -91 
Q 1459 -91 1007 375 
Q 556 841 556 1753 
L 556 4666 
z
" transform="scale(0.015625)"/>
      <path id="DejaVuSans-70" d="M 1159 525 
L 1159 -1331 
L 581 -1331 
L 581 3500 
L 1159 3500 
L 1159 2969 
Q 1341 3281 1617 3432 
Q 1894 3584 2278 3584 
Q 2916 3584 3314 3078 
Q 3713 2572 3713 1747 
Q 3713 922 3314 415 
Q 2916 -91 2278 -91 
Q 1894 -91 1617 61 
Q 1341 213 1159 525 
z
M 3116 1747 
Q 3116 2381 2855 2742 
Q 2594 3103 2138 3103 
Q 1681 3103 1420 2742 
Q 1159 2381 1159 1747 
Q 1159 1113 1420 752 
Q 1681 391 2138 391 
Q 2594 391 2855 752 
Q 3116 1113 3116 1747 
z
" transform="scale(0.015625)"/>
      <path id="DejaVuSans-37" d="M 525 4666 
L 3525 4666 
L 3525 4397 
L 1831 0 
L 1172 0 
L 2766 4134 
L 525 4134 
L 525 4666 
z
" transform="scale(0.015625)"/>
      <path id="DejaVuSans-3a" d="M 750 794 
L 1409 794 
L 1409 0 
L 750 0 
L 750 794 
z
M 750 3309 
L 1409 3309 
L 1409 2516 
L 750 2516 
L 750 3309 
z
" transform="scale(0.015625)"/>
      <path id="DejaVuSans-29" d="M 513 4856 
L 1013 4856 
Q 1481 4119 1714 3412 
Q 1947 2706 1947 2009 
Q 1947 1309 1714 600 
Q 1481 -109 1013 -844 
L 513 -844 
Q 928 -128 1133 580 
Q 1338 1288 1338 2009 
Q 1338 2731 1133 3434 
Q 928 4138 513 4856 
z
" transform="scale(0.015625)"/>
     </defs>
     <use xlink:href="#DejaVuSans-56"/>
     <use xlink:href="#DejaVuSans-49" x="68.408203"/>
     <use xlink:href="#DejaVuSans-58" x="97.900391"/>
     <use xlink:href="#DejaVuSans-20" x="166.40625"/>
     <use xlink:href="#DejaVuSans-61" x="198.193359"/>
     <use xlink:href="#DejaVuSans-6e" x="259.472656"/>
     <use xlink:href="#DejaVuSans-64" x="322.851562"/>
     <use xlink:href="#DejaVuSans-20" x="386.328125"/>
     <use xlink:href="#DejaVuSans-43" x="418.115234"/>
     <use xlink:href="#DejaVuSans-75" x="487.939453"/>
     <use xlink:href="#DejaVuSans-6d" x="551.318359"/>
     <use xlink:href="#DejaVuSans-75" x="648.730469"/>
     <use xlink:href="#DejaVuSans-6c" x="712.109375"/>
     <use xlink:href="#DejaVuSans-61" x="739.892578"/>
     <use xlink:href="#DejaVuSans-74" x="801.171875"/>
     <use xlink:href="#DejaVuSans-69" x="840.380859"/>
     <use xlink:href="#DejaVuSans-76" x="868.164062"/>
     <use xlink:href="#DejaVuSans-65" x="927.34375"/>
     <use xlink:href="#DejaVuSans-20" x="988.867188"/>
     <use xlink:href="#DejaVuSans-50" x="1020.654297"/>
     <use xlink:href="#DejaVuSans-72" x="1079.207031"/>
     <use xlink:href="#DejaVuSans-6f" x="1118.070312"/>
     <use xlink:href="#DejaVuSans-62" x="1179.251953"/>
     <use xlink:href="#DejaVuSans-61" x="1242.728516"/>
     <use xlink:href="#DejaVuSans-62" x="1304.007812"/>
     <use xlink:href="#DejaVuSans-69" x="1367.484375"/>
     <use xlink:href="#DejaVuSans-6c" x="1395.267578"/>
     <use xlink:href="#DejaVuSans-69" x="1423.050781"/>
     <use xlink:href="#DejaVuSans-74" x="1450.833984"/>
     <use xlink:href="#DejaVuSans-79" x="1490.042969"/>
     <use xlink:href="#DejaVuSans-20" x="1549.222656"/>
     <use xlink:href="#DejaVuSans-49" x="1581.009766"/>
     <use xlink:href="#DejaVuSans-6e" x="1610.501953"/>
     <use xlink:href="#DejaVuSans-64" x="1673.880859"/>
     <use xlink:href="#DejaVuSans-69" x="1737.357422"/>
     <use xlink:href="#DejaVuSans-63" x="1765.140625"/>
     <use xlink:href="#DejaVuSans-61" x="1820.121094"/>
     <use xlink:href="#DejaVuSans-74" x="1881.400391"/>
     <use xlink:href="#DejaVuSans-6f" x="1920.609375"/>
     <use xlink:href="#DejaVuSans-72" x="1981.791016"/>
     <use xlink:href="#DejaVuSans-20" x="2022.904297"/>
     <use xlink:href="#DejaVuSans-2d" x="2054.691406"/>
     <use xlink:href="#DejaVuSans-20" x="2090.775391"/>
     <use xlink:href="#DejaVuSans-33" x="2122.5625"/>
     <use xlink:href="#DejaVuSans-59" x="2186.185547"/>
     <use xlink:href="#DejaVuSans-20" x="2247.269531"/>
     <use xlink:href="#DejaVuSans-28" x="2279.056641"/>
     <use xlink:href="#DejaVuSans-55" x="2318.070312"/>
     <use xlink:href="#DejaVuSans-70" x="2391.263672"/>
     <use xlink:href="#DejaVuSans-64" x="2454.740234"/>
     <use xlink:href="#DejaVuSans-61" x="2518.216797"/>
     <use xlink:href="#DejaVuSans-74" x="2579.496094"/>
     <use xlink:href="#DejaVuSans-65" x="2618.705078"/>
     <use xlink:href="#DejaVuSans-64" x="2680.228516"/>
     <use xlink:href="#DejaVuSans-20" x="2743.705078"/>
     <use xlink:href="#DejaVuSans-32" x="2775.492188"/>
     <use xlink:href="#DejaVuSans-30" x="2839.115234"/>
     <use xlink:href="#DejaVuSans-32" x="2902.738281"/>
     <use xlink:href="#DejaVuSans-34" x="2966.361328"/>
     <use xlink:href="#DejaVuSans-2d" x="3029.984375"/>
     <use xlink:href="#DejaVuSans-30" x="3066.068359"/>
     <use xlink:href="#DejaVuSans-33" x="3129.691406"/>
     <use xlink:href="#DejaVuSans-2d" x="3193.314453"/>
     <use xlink:href="#DejaVuSans-32" x="3229.398438"/>
     <use xlink:href="#DejaVuSans-30" x="3293.021484"/>
     <use xlink:href="#DejaVuSans-20" x="3356.644531"/>
     <use xlink:href="#DejaVuSans-31" x="3388.431641"/>
     <use xlink:href="#DejaVuSans-37" x="3452.054688"/>
     <use xlink:href="#DejaVuSans-3a" x="3515.677734"/>
     <use xlink:href="#DejaVuSans-30" x="3549.369141"/>
     <use xlink:href="#DejaVuSans-39" x="3612.992188"/>
     <use xlink:href="#DejaVuSans-3a" x="3676.615234"/>
     <use xlink:href="#DejaVuSans-30" x="3710.306641"/>
     <use xlink:href="#DejaVuSans-37" x="3773.929688"/>
     <use xlink:href="#DejaVuSans-29" x="3837.552734"/>
    </g>
   </g>
  </g>
  <g id="legend_1">
   <g id="patch_11">
    <path d="M 7 37.35625 
L 83.190625 37.35625 
Q 85.190625 37.35625 85.190625 35.35625 
L 85.190625 7 
Q 85.190625 5 83.190625 5 
L 7 5 
Q 5 5 5 7 
L 5 35.35625 
Q 5 37.35625 7 37.35625 
z
" style="fill: #ffffff; opacity: 0.8; stroke: #cccccc; stroke-linejoin: miter"/>
   </g>
   <g id="line2d_24">
    <path d="M 9 13.098437 
L 19 13.098437 
L 29 13.098437 
" style="fill: none; stroke: #0000ff; stroke-width: 1.5; stroke-linecap: square"/>
   </g>
   <g id="text_26">
    <!-- Price -->
    <g transform="translate(37 16.598437) scale(0.1 -0.1)">
     <use xlink:href="#DejaVuSans-50"/>
     <use xlink:href="#DejaVuSans-72" x="58.552734"/>
     <use xlink:href="#DejaVuSans-69" x="99.666016"/>
     <use xlink:href="#DejaVuSans-63" x="127.449219"/>
     <use xlink:href="#DejaVuSans-65" x="182.429688"/>
    </g>
   </g>
   <g id="line2d_25">
    <path d="M 9 27.776563 
L 19 27.776563 
L 29 27.776563 
" style="fill: none; stroke: #000000; stroke-width: 1.5; stroke-linecap: square"/>
   </g>
   <g id="text_27">
    <!-- Indicator -->
    <g transform="translate(37 31.276563) scale(0.1 -0.1)">
     <use xlink:href="#DejaVuSans-49"/>
     <use xlink:href="#DejaVuSans-6e" x="29.492188"/>
     <use xlink:href="#DejaVuSans-64" x="92.871094"/>
     <use xlink:href="#DejaVuSans-69" x="156.347656"/>
     <use xlink:href="#DejaVuSans-63" x="184.130859"/>
     <use xlink:href="#DejaVuSans-61" x="239.111328"/>
     <use xlink:href="#DejaVuSans-74" x="300.390625"/>
     <use xlink:href="#DejaVuSans-6f" x="339.599609"/>
     <use xlink:href="#DejaVuSans-72" x="400.78125"/>
    </g>
   </g>
  </g>
 </g>
 <defs>
  <clipPath id="p384fe3d69a">
   <rect x="162" y="34.56" width="1004.4" height="221.76"/>
  </clipPath>
 </defs>
</svg>
