<?xml version="1.0" encoding="utf-8" standalone="no"?>
<!DOCTYPE svg PUBLIC "-//W3C//DTD SVG 1.1//EN"
  "http://www.w3.org/Graphics/SVG/1.1/DTD/svg11.dtd">
<svg xmlns:xlink="http://www.w3.org/1999/xlink" width="1296pt" height="288pt" viewBox="0 0 1296 288" xmlns="http://www.w3.org/2000/svg" version="1.1">
 <metadata>
  <rdf:RDF xmlns:dc="http://purl.org/dc/elements/1.1/" xmlns:cc="http://creativecommons.org/ns#" xmlns:rdf="http://www.w3.org/1999/02/22-rdf-syntax-ns#">
   <cc:Work>
    <dc:type rdf:resource="http://purl.org/dc/dcmitype/StillImage"/>
    <dc:date>2024-03-23T08:17:25.336495</dc:date>
    <dc:format>image/svg+xml</dc:format>
    <dc:creator>
     <cc:Agent>
      <dc:title>Matplotlib v3.8.0, https://matplotlib.org/</dc:title>
     </cc:Agent>
    </dc:creator>
   </cc:Work>
  </rdf:RDF>
 </metadata>
 <defs>
  <style type="text/css">*{stroke-linejoin: round; stroke-linecap: butt}</style>
 </defs>
 <g id="figure_1">
  <g id="patch_1">
   <path d="M 0 288 
L 1296 288 
L 1296 0 
L 0 0 
z
" style="fill: #ffffff"/>
  </g>
  <g id="axes_1">
   <g id="patch_2">
    <path d="M 162 256.32 
L 1166.4 256.32 
L 1166.4 34.56 
L 162 34.56 
z
" style="fill: #ffffff"/>
   </g>
   <g id="matplotlib.axis_1">
    <g id="xtick_1">
     <g id="line2d_1">
      <defs>
       <path id="m752db4526c" d="M 0 0 
L 0 3.5 
" style="stroke: #000000; stroke-width: 0.8"/>
      </defs>
      <g>
       <use xlink:href="#m752db4526c" x="307.445902" y="256.32" style="stroke: #000000; stroke-width: 0.8"/>
      </g>
     </g>
     <g id="text_1">
      <!-- 2023-05 -->
      <g transform="translate(286.554495 270.918437) scale(0.1 -0.1)">
       <defs>
        <path id="DejaVuSans-32" d="M 1228 531 
L 3431 531 
L 3431 0 
L 469 0 
L 469 531 
Q 828 903 1448 1529 
Q 2069 2156 2228 2338 
Q 2531 2678 2651 2914 
Q 2772 3150 2772 3378 
Q 2772 3750 2511 3984 
Q 2250 4219 1831 4219 
Q 1534 4219 1204 4116 
Q 875 4013 500 3803 
L 500 4441 
Q 881 4594 1212 4672 
Q 1544 4750 1819 4750 
Q 2544 4750 2975 4387 
Q 3406 4025 3406 3419 
Q 3406 3131 3298 2873 
Q 3191 2616 2906 2266 
Q 2828 2175 2409 1742 
Q 1991 1309 1228 531 
z
" transform="scale(0.015625)"/>
        <path id="DejaVuSans-30" d="M 2034 4250 
Q 1547 4250 1301 3770 
Q 1056 3291 1056 2328 
Q 1056 1369 1301 889 
Q 1547 409 2034 409 
Q 2525 409 2770 889 
Q 3016 1369 3016 2328 
Q 3016 3291 2770 3770 
Q 2525 4250 2034 4250 
z
M 2034 4750 
Q 2819 4750 3233 4129 
Q 3647 3509 3647 2328 
Q 3647 1150 3233 529 
Q 2819 -91 2034 -91 
Q 1250 -91 836 529 
Q 422 1150 422 2328 
Q 422 3509 836 4129 
Q 1250 4750 2034 4750 
z
" transform="scale(0.015625)"/>
        <path id="DejaVuSans-33" d="M 2597 2516 
Q 3050 2419 3304 2112 
Q 3559 1806 3559 1356 
Q 3559 666 3084 287 
Q 2609 -91 1734 -91 
Q 1441 -91 1130 -33 
Q 819 25 488 141 
L 488 750 
Q 750 597 1062 519 
Q 1375 441 1716 441 
Q 2309 441 2620 675 
Q 2931 909 2931 1356 
Q 2931 1769 2642 2001 
Q 2353 2234 1838 2234 
L 1294 2234 
L 1294 2753 
L 1863 2753 
Q 2328 2753 2575 2939 
Q 2822 3125 2822 3475 
Q 2822 3834 2567 4026 
Q 2313 4219 1838 4219 
Q 1578 4219 1281 4162 
Q 984 4106 628 3988 
L 628 4550 
Q 988 4650 1302 4700 
Q 1616 4750 1894 4750 
Q 2613 4750 3031 4423 
Q 3450 4097 3450 3541 
Q 3450 3153 3228 2886 
Q 3006 2619 2597 2516 
z
" transform="scale(0.015625)"/>
        <path id="DejaVuSans-2d" d="M 313 2009 
L 1997 2009 
L 1997 1497 
L 313 1497 
L 313 2009 
z
" transform="scale(0.015625)"/>
        <path id="DejaVuSans-35" d="M 691 4666 
L 3169 4666 
L 3169 4134 
L 1269 4134 
L 1269 2991 
Q 1406 3038 1543 3061 
Q 1681 3084 1819 3084 
Q 2600 3084 3056 2656 
Q 3513 2228 3513 1497 
Q 3513 744 3044 326 
Q 2575 -91 1722 -91 
Q 1428 -91 1123 -41 
Q 819 9 494 109 
L 494 744 
Q 775 591 1075 516 
Q 1375 441 1709 441 
Q 2250 441 2565 725 
Q 2881 1009 2881 1497 
Q 2881 1984 2565 2268 
Q 2250 2553 1709 2553 
Q 1456 2553 1204 2497 
Q 953 2441 691 2322 
L 691 4666 
z
" transform="scale(0.015625)"/>
       </defs>
       <use xlink:href="#DejaVuSans-32"/>
       <use xlink:href="#DejaVuSans-30" x="63.623047"/>
       <use xlink:href="#DejaVuSans-32" x="127.246094"/>
       <use xlink:href="#DejaVuSans-33" x="190.869141"/>
       <use xlink:href="#DejaVuSans-2d" x="254.492188"/>
       <use xlink:href="#DejaVuSans-30" x="290.576172"/>
       <use xlink:href="#DejaVuSans-35" x="354.199219"/>
      </g>
     </g>
    </g>
    <g id="xtick_2">
     <g id="line2d_2">
      <g>
       <use xlink:href="#m752db4526c" x="459.62772" y="256.32" style="stroke: #000000; stroke-width: 0.8"/>
      </g>
     </g>
     <g id="text_2">
      <!-- 2023-07 -->
      <g transform="translate(438.736314 270.918437) scale(0.1 -0.1)">
       <defs>
        <path id="DejaVuSans-37" d="M 525 4666 
L 3525 4666 
L 3525 4397 
L 1831 0 
L 1172 0 
L 2766 4134 
L 525 4134 
L 525 4666 
z
" transform="scale(0.015625)"/>
       </defs>
       <use xlink:href="#DejaVuSans-32"/>
       <use xlink:href="#DejaVuSans-30" x="63.623047"/>
       <use xlink:href="#DejaVuSans-32" x="127.246094"/>
       <use xlink:href="#DejaVuSans-33" x="190.869141"/>
       <use xlink:href="#DejaVuSans-2d" x="254.492188"/>
       <use xlink:href="#DejaVuSans-30" x="290.576172"/>
       <use xlink:href="#DejaVuSans-37" x="354.199219"/>
      </g>
     </g>
    </g>
    <g id="xtick_3">
     <g id="line2d_3">
      <g>
       <use xlink:href="#m752db4526c" x="614.304322" y="256.32" style="stroke: #000000; stroke-width: 0.8"/>
      </g>
     </g>
     <g id="text_3">
      <!-- 2023-09 -->
      <g transform="translate(593.412916 270.918437) scale(0.1 -0.1)">
       <defs>
        <path id="DejaVuSans-39" d="M 703 97 
L 703 672 
Q 941 559 1184 500 
Q 1428 441 1663 441 
Q 2288 441 2617 861 
Q 2947 1281 2994 2138 
Q 2813 1869 2534 1725 
Q 2256 1581 1919 1581 
Q 1219 1581 811 2004 
Q 403 2428 403 3163 
Q 403 3881 828 4315 
Q 1253 4750 1959 4750 
Q 2769 4750 3195 4129 
Q 3622 3509 3622 2328 
Q 3622 1225 3098 567 
Q 2575 -91 1691 -91 
Q 1453 -91 1209 -44 
Q 966 3 703 97 
z
M 1959 2075 
Q 2384 2075 2632 2365 
Q 2881 2656 2881 3163 
Q 2881 3666 2632 3958 
Q 2384 4250 1959 4250 
Q 1534 4250 1286 3958 
Q 1038 3666 1038 3163 
Q 1038 2656 1286 2365 
Q 1534 2075 1959 2075 
z
" transform="scale(0.015625)"/>
       </defs>
       <use xlink:href="#DejaVuSans-32"/>
       <use xlink:href="#DejaVuSans-30" x="63.623047"/>
       <use xlink:href="#DejaVuSans-32" x="127.246094"/>
       <use xlink:href="#DejaVuSans-33" x="190.869141"/>
       <use xlink:href="#DejaVuSans-2d" x="254.492188"/>
       <use xlink:href="#DejaVuSans-30" x="290.576172"/>
       <use xlink:href="#DejaVuSans-39" x="354.199219"/>
      </g>
     </g>
    </g>
    <g id="xtick_4">
     <g id="line2d_4">
      <g>
       <use xlink:href="#m752db4526c" x="766.48614" y="256.32" style="stroke: #000000; stroke-width: 0.8"/>
      </g>
     </g>
     <g id="text_4">
      <!-- 2023-11 -->
      <g transform="translate(745.594734 270.918437) scale(0.1 -0.1)">
       <defs>
        <path id="DejaVuSans-31" d="M 794 531 
L 1825 531 
L 1825 4091 
L 703 3866 
L 703 4441 
L 1819 4666 
L 2450 4666 
L 2450 531 
L 3481 531 
L 3481 0 
L 794 0 
L 794 531 
z
" transform="scale(0.015625)"/>
       </defs>
       <use xlink:href="#DejaVuSans-32"/>
       <use xlink:href="#DejaVuSans-30" x="63.623047"/>
       <use xlink:href="#DejaVuSans-32" x="127.246094"/>
       <use xlink:href="#DejaVuSans-33" x="190.869141"/>
       <use xlink:href="#DejaVuSans-2d" x="254.492188"/>
       <use xlink:href="#DejaVuSans-31" x="290.576172"/>
       <use xlink:href="#DejaVuSans-31" x="354.199219"/>
      </g>
     </g>
    </g>
    <g id="xtick_5">
     <g id="line2d_5">
      <g>
       <use xlink:href="#m752db4526c" x="918.771908" y="256.32" style="stroke: #000000; stroke-width: 0.8"/>
      </g>
     </g>
     <g id="text_5">
      <!-- 2024-01 -->
      <g transform="translate(897.880501 270.918437) scale(0.1 -0.1)">
       <defs>
        <path id="DejaVuSans-34" d="M 2419 4116 
L 825 1625 
L 2419 1625 
L 2419 4116 
z
M 2253 4666 
L 3047 4666 
L 3047 1625 
L 3713 1625 
L 3713 1100 
L 3047 1100 
L 3047 0 
L 2419 0 
L 2419 1100 
L 313 1100 
L 313 1709 
L 2253 4666 
z
" transform="scale(0.015625)"/>
       </defs>
       <use xlink:href="#DejaVuSans-32"/>
       <use xlink:href="#DejaVuSans-30" x="63.623047"/>
       <use xlink:href="#DejaVuSans-32" x="127.246094"/>
       <use xlink:href="#DejaVuSans-34" x="190.869141"/>
       <use xlink:href="#DejaVuSans-2d" x="254.492188"/>
       <use xlink:href="#DejaVuSans-30" x="290.576172"/>
       <use xlink:href="#DejaVuSans-31" x="354.199219"/>
      </g>
     </g>
    </g>
    <g id="xtick_6">
     <g id="line2d_6">
      <g>
       <use xlink:href="#m752db4526c" x="1068.458942" y="256.32" style="stroke: #000000; stroke-width: 0.8"/>
      </g>
     </g>
     <g id="text_6">
      <!-- 2024-03 -->
      <g transform="translate(1047.567536 270.918437) scale(0.1 -0.1)">
       <use xlink:href="#DejaVuSans-32"/>
       <use xlink:href="#DejaVuSans-30" x="63.623047"/>
       <use xlink:href="#DejaVuSans-32" x="127.246094"/>
       <use xlink:href="#DejaVuSans-34" x="190.869141"/>
       <use xlink:href="#DejaVuSans-2d" x="254.492188"/>
       <use xlink:href="#DejaVuSans-30" x="290.576172"/>
       <use xlink:href="#DejaVuSans-33" x="354.199219"/>
      </g>
     </g>
    </g>
    <g id="text_7">
     <!-- Date -->
     <g transform="translate(652.249219 284.596563) scale(0.1 -0.1)">
      <defs>
       <path id="DejaVuSans-44" d="M 1259 4147 
L 1259 519 
L 2022 519 
Q 2988 519 3436 956 
Q 3884 1394 3884 2338 
Q 3884 3275 3436 3711 
Q 2988 4147 2022 4147 
L 1259 4147 
z
M 628 4666 
L 1925 4666 
Q 3281 4666 3915 4102 
Q 4550 3538 4550 2338 
Q 4550 1131 3912 565 
Q 3275 0 1925 0 
L 628 0 
L 628 4666 
z
" transform="scale(0.015625)"/>
       <path id="DejaVuSans-61" d="M 2194 1759 
Q 1497 1759 1228 1600 
Q 959 1441 959 1056 
Q 959 750 1161 570 
Q 1363 391 1709 391 
Q 2188 391 2477 730 
Q 2766 1069 2766 1631 
L 2766 1759 
L 2194 1759 
z
M 3341 1997 
L 3341 0 
L 2766 0 
L 2766 531 
Q 2569 213 2275 61 
Q 1981 -91 1556 -91 
Q 1019 -91 701 211 
Q 384 513 384 1019 
Q 384 1609 779 1909 
Q 1175 2209 1959 2209 
L 2766 2209 
L 2766 2266 
Q 2766 2663 2505 2880 
Q 2244 3097 1772 3097 
Q 1472 3097 1187 3025 
Q 903 2953 641 2809 
L 641 3341 
Q 956 3463 1253 3523 
Q 1550 3584 1831 3584 
Q 2591 3584 2966 3190 
Q 3341 2797 3341 1997 
z
" transform="scale(0.015625)"/>
       <path id="DejaVuSans-74" d="M 1172 4494 
L 1172 3500 
L 2356 3500 
L 2356 3053 
L 1172 3053 
L 1172 1153 
Q 1172 725 1289 603 
Q 1406 481 1766 481 
L 2356 481 
L 2356 0 
L 1766 0 
Q 1100 0 847 248 
Q 594 497 594 1153 
L 594 3053 
L 172 3053 
L 172 3500 
L 594 3500 
L 594 4494 
L 1172 4494 
z
" transform="scale(0.015625)"/>
       <path id="DejaVuSans-65" d="M 3597 1894 
L 3597 1613 
L 953 1613 
Q 991 1019 1311 708 
Q 1631 397 2203 397 
Q 2534 397 2845 478 
Q 3156 559 3463 722 
L 3463 178 
Q 3153 47 2828 -22 
Q 2503 -91 2169 -91 
Q 1331 -91 842 396 
Q 353 884 353 1716 
Q 353 2575 817 3079 
Q 1281 3584 2069 3584 
Q 2775 3584 3186 3129 
Q 3597 2675 3597 1894 
z
M 3022 2063 
Q 3016 2534 2758 2815 
Q 2500 3097 2075 3097 
Q 1594 3097 1305 2825 
Q 1016 2553 972 2059 
L 3022 2063 
z
" transform="scale(0.015625)"/>
      </defs>
      <use xlink:href="#DejaVuSans-44"/>
      <use xlink:href="#DejaVuSans-61" x="77.001953"/>
      <use xlink:href="#DejaVuSans-74" x="138.28125"/>
      <use xlink:href="#DejaVuSans-65" x="177.490234"/>
     </g>
    </g>
   </g>
   <g id="matplotlib.axis_2">
    <g id="ytick_1">
     <g id="line2d_7">
      <defs>
       <path id="m02545b38ae" d="M 0 0 
L -3.5 0 
" style="stroke: #0000ff; stroke-width: 0.8"/>
      </defs>
      <g>
       <use xlink:href="#m02545b38ae" x="162" y="247.578893" style="fill: #0000ff; stroke: #0000ff; stroke-width: 0.8"/>
      </g>
     </g>
     <g id="text_8">
      <!-- 12 -->
      <g style="fill: #0000ff" transform="translate(142.275 251.378112) scale(0.1 -0.1)">
       <use xlink:href="#DejaVuSans-31"/>
       <use xlink:href="#DejaVuSans-32" x="63.623047"/>
      </g>
     </g>
    </g>
    <g id="ytick_2">
     <g id="line2d_8">
      <g>
       <use xlink:href="#m02545b38ae" x="162" y="209.324627" style="fill: #0000ff; stroke: #0000ff; stroke-width: 0.8"/>
      </g>
     </g>
     <g id="text_9">
      <!-- 14 -->
      <g style="fill: #0000ff" transform="translate(142.275 213.123846) scale(0.1 -0.1)">
       <use xlink:href="#DejaVuSans-31"/>
       <use xlink:href="#DejaVuSans-34" x="63.623047"/>
      </g>
     </g>
    </g>
    <g id="ytick_3">
     <g id="line2d_9">
      <g>
       <use xlink:href="#m02545b38ae" x="162" y="171.070361" style="fill: #0000ff; stroke: #0000ff; stroke-width: 0.8"/>
      </g>
     </g>
     <g id="text_10">
      <!-- 16 -->
      <g style="fill: #0000ff" transform="translate(142.275 174.86958) scale(0.1 -0.1)">
       <defs>
        <path id="DejaVuSans-36" d="M 2113 2584 
Q 1688 2584 1439 2293 
Q 1191 2003 1191 1497 
Q 1191 994 1439 701 
Q 1688 409 2113 409 
Q 2538 409 2786 701 
Q 3034 994 3034 1497 
Q 3034 2003 2786 2293 
Q 2538 2584 2113 2584 
z
M 3366 4563 
L 3366 3988 
Q 3128 4100 2886 4159 
Q 2644 4219 2406 4219 
Q 1781 4219 1451 3797 
Q 1122 3375 1075 2522 
Q 1259 2794 1537 2939 
Q 1816 3084 2150 3084 
Q 2853 3084 3261 2657 
Q 3669 2231 3669 1497 
Q 3669 778 3244 343 
Q 2819 -91 2113 -91 
Q 1303 -91 875 529 
Q 447 1150 447 2328 
Q 447 3434 972 4092 
Q 1497 4750 2381 4750 
Q 2619 4750 2861 4703 
Q 3103 4656 3366 4563 
z
" transform="scale(0.015625)"/>
       </defs>
       <use xlink:href="#DejaVuSans-31"/>
       <use xlink:href="#DejaVuSans-36" x="63.623047"/>
      </g>
     </g>
    </g>
    <g id="ytick_4">
     <g id="line2d_10">
      <g>
       <use xlink:href="#m02545b38ae" x="162" y="132.816095" style="fill: #0000ff; stroke: #0000ff; stroke-width: 0.8"/>
      </g>
     </g>
     <g id="text_11">
      <!-- 18 -->
      <g style="fill: #0000ff" transform="translate(142.275 136.615314) scale(0.1 -0.1)">
       <defs>
        <path id="DejaVuSans-38" d="M 2034 2216 
Q 1584 2216 1326 1975 
Q 1069 1734 1069 1313 
Q 1069 891 1326 650 
Q 1584 409 2034 409 
Q 2484 409 2743 651 
Q 3003 894 3003 1313 
Q 3003 1734 2745 1975 
Q 2488 2216 2034 2216 
z
M 1403 2484 
Q 997 2584 770 2862 
Q 544 3141 544 3541 
Q 544 4100 942 4425 
Q 1341 4750 2034 4750 
Q 2731 4750 3128 4425 
Q 3525 4100 3525 3541 
Q 3525 3141 3298 2862 
Q 3072 2584 2669 2484 
Q 3125 2378 3379 2068 
Q 3634 1759 3634 1313 
Q 3634 634 3220 271 
Q 2806 -91 2034 -91 
Q 1263 -91 848 271 
Q 434 634 434 1313 
Q 434 1759 690 2068 
Q 947 2378 1403 2484 
z
M 1172 3481 
Q 1172 3119 1398 2916 
Q 1625 2713 2034 2713 
Q 2441 2713 2670 2916 
Q 2900 3119 2900 3481 
Q 2900 3844 2670 4047 
Q 2441 4250 2034 4250 
Q 1625 4250 1398 4047 
Q 1172 3844 1172 3481 
z
" transform="scale(0.015625)"/>
       </defs>
       <use xlink:href="#DejaVuSans-31"/>
       <use xlink:href="#DejaVuSans-38" x="63.623047"/>
      </g>
     </g>
    </g>
    <g id="ytick_5">
     <g id="line2d_11">
      <g>
       <use xlink:href="#m02545b38ae" x="162" y="94.561829" style="fill: #0000ff; stroke: #0000ff; stroke-width: 0.8"/>
      </g>
     </g>
     <g id="text_12">
      <!-- 20 -->
      <g style="fill: #0000ff" transform="translate(142.275 98.361048) scale(0.1 -0.1)">
       <use xlink:href="#DejaVuSans-32"/>
       <use xlink:href="#DejaVuSans-30" x="63.623047"/>
      </g>
     </g>
    </g>
    <g id="ytick_6">
     <g id="line2d_12">
      <g>
       <use xlink:href="#m02545b38ae" x="162" y="56.307563" style="fill: #0000ff; stroke: #0000ff; stroke-width: 0.8"/>
      </g>
     </g>
     <g id="text_13">
      <!-- 22 -->
      <g style="fill: #0000ff" transform="translate(142.275 60.106782) scale(0.1 -0.1)">
       <use xlink:href="#DejaVuSans-32"/>
       <use xlink:href="#DejaVuSans-32" x="63.623047"/>
      </g>
     </g>
    </g>
    <g id="text_14">
     <!-- VIX -->
     <g style="fill: #0000ff" transform="translate(136.195312 153.760312) rotate(-90) scale(0.1 -0.1)">
      <defs>
       <path id="DejaVuSans-56" d="M 1831 0 
L 50 4666 
L 709 4666 
L 2188 738 
L 3669 4666 
L 4325 4666 
L 2547 0 
L 1831 0 
z
" transform="scale(0.015625)"/>
       <path id="DejaVuSans-49" d="M 628 4666 
L 1259 4666 
L 1259 0 
L 628 0 
L 628 4666 
z
" transform="scale(0.015625)"/>
       <path id="DejaVuSans-58" d="M 403 4666 
L 1081 4666 
L 2241 2931 
L 3406 4666 
L 4084 4666 
L 2584 2425 
L 4184 0 
L 3506 0 
L 2194 1984 
L 872 0 
L 191 0 
L 1856 2491 
L 403 4666 
z
" transform="scale(0.015625)"/>
      </defs>
      <use xlink:href="#DejaVuSans-56"/>
      <use xlink:href="#DejaVuSans-49" x="68.408203"/>
      <use xlink:href="#DejaVuSans-58" x="97.900391"/>
     </g>
    </g>
   </g>
   <g id="line2d_13">
    <path d="M 207.654545 51.334504 
L 210.149329 44.64 
L 212.644113 61.280622 
L 220.128465 83.085542 
L 222.623249 95.135656 
L 225.118033 111.39369 
L 227.612817 113.306411 
L 230.107601 119.427087 
L 237.591952 122.296187 
L 240.086736 113.688962 
L 242.58152 112.158793 
L 245.076304 125.165249 
L 255.05544 114.262789 
L 257.550224 111.776241 
L 260.045007 111.967517 
L 262.539791 136.641536 
L 265.034575 150.604335 
L 272.518927 152.89957 
L 275.013711 155.194842 
L 277.508495 162.271898 
L 280.003279 148.691614 
L 282.498063 156.34246 
L 289.982414 154.047224 
L 292.477198 118.27947 
L 294.971982 116.7493 
L 297.466766 151.369401 
L 299.96155 175.278336 
L 307.445902 169.540192 
L 309.940686 137.024051 
L 312.435469 126.312867 
L 314.930253 92.840384 
L 317.425037 148.309063 
L 324.909389 152.32578 
L 327.404173 138.362981 
L 329.898957 153.090846 
L 332.393741 153.282122 
L 334.888525 151.369401 
L 342.372876 149.647956 
L 344.86766 133.007371 
L 347.362444 154.429739 
L 349.857228 170.114019 
L 352.352012 155.577394 
L 359.836364 147.926548 
L 362.331148 122.678701 
L 364.825931 93.988002 
L 367.320715 111.011175 
L 369.815499 133.772437 
L 379.794635 143.144764 
L 382.289419 133.963713 
L 384.784203 177.764865 
L 387.278987 197.84834 
L 394.763338 195.361829 
L 397.258122 210.089712 
L 399.752906 210.472263 
L 402.24769 216.019131 
L 404.742474 212.576241 
L 412.226826 190.006219 
L 414.72161 197.657083 
L 417.216393 211.619881 
L 419.711177 199.761061 
L 422.205961 218.123109 
L 432.185097 211.619881 
L 434.679881 224.626337 
L 437.174665 230.173205 
L 439.669449 220.03583 
L 447.1538 204.542844 
L 449.648584 214.297686 
L 452.143368 220.227087 
L 454.638152 218.123109 
L 457.132936 217.166749 
L 464.617288 217.5493 
L 469.606855 205.881738 
L 472.101639 181.781564 
L 474.596423 193.449108 
L 482.080775 188.858601 
L 484.575559 193.257833 
L 487.070343 218.123109 
L 489.565127 216.784216 
L 492.059911 221.948532 
L 499.544262 219.270745 
L 502.039046 222.713617 
L 504.53383 213.915135 
L 507.028614 209.515903 
L 509.523398 216.975473 
L 517.00775 211.046072 
L 519.502534 212.002433 
L 521.997317 224.817613 
L 524.492101 201.482506 
L 526.986885 222.139808 
L 534.471237 216.401664 
L 536.966021 210.663521 
L 539.460805 169.348916 
L 541.955589 172.60053 
L 544.450373 150.030508 
L 551.934724 175.469593 
L 554.429508 171.261637 
L 556.924292 171.835446 
L 559.419076 173.939424 
L 561.91386 193.257833 
L 569.398212 193.640384 
L 571.892996 162.271898 
L 574.387779 156.151184 
L 576.882563 134.920091 
L 579.377347 146.205103 
L 586.861699 149.456717 
L 589.356483 152.517055 
L 591.851267 171.452913 
L 594.346051 148.117787 
L 596.840835 177.191038 
L 604.325186 188.667325 
L 606.81997 200.717421 
L 609.314754 211.619881 
L 611.809538 217.5493 
L 614.304322 226.730316 
L 624.283458 209.133352 
L 626.778241 200.717421 
L 629.273025 201.673781 
L 631.767809 212.384966 
L 639.252161 213.15005 
L 641.746945 204.925396 
L 644.241729 219.270745 
L 646.736513 231.89465 
L 649.231297 213.341326 
L 656.715648 209.324627 
L 659.210432 207.220649 
L 661.705216 187.519689 
L 664.2 141.614559 
L 666.694784 148.117787 
L 674.179136 153.855949 
L 676.67392 114.83658 
L 679.168703 128.608139 
L 681.663487 145.44 
L 684.158271 141.99711 
L 691.642623 140.275665 
L 694.137407 98.769785 
L 696.632191 121.722359 
L 699.126975 123.443804 
L 701.621759 143.336004 
L 709.10611 138.55422 
L 711.600894 151.369401 
L 714.095678 169.348916 
L 716.590462 157.872629 
L 719.085246 107.568285 
L 726.569598 147.926548 
L 729.064382 135.111367 
L 731.559165 109.481006 
L 734.053949 67.78385 
L 736.548733 61.854449 
L 744.033085 87.484774 
L 746.527869 114.262789 
L 749.022653 90.927663 
L 751.517437 81.555373 
L 754.012221 70.270361 
L 761.496572 99.343612 
L 763.991356 130.138308 
L 766.48614 154.429739 
L 768.980924 177.573589 
L 771.475708 191.918939 
L 779.064009 192.301472 
L 781.558793 193.831642 
L 784.053577 200.717421 
L 786.548361 184.650626 
L 789.043145 206.073013 
L 796.527496 194.788002 
L 799.02228 206.264289 
L 801.517064 205.881738 
L 804.011848 203.203951 
L 806.506632 213.15005 
L 813.990984 220.609639 
L 816.485768 221.757257 
L 818.980551 231.320823 
L 823.970119 238.780412 
L 831.454471 234.38118 
L 833.949255 234.38118 
L 836.444039 228.834312 
L 838.938823 229.98193 
L 841.433607 235.528797 
L 848.917958 226.921591 
L 851.412742 231.320823 
L 853.907526 229.025569 
L 856.40231 227.304124 
L 858.897094 240.88439 
L 866.381446 235.528797 
L 868.87623 246.24 
L 871.371013 243.944746 
L 873.865797 238.397878 
L 876.360581 242.223301 
L 883.844933 236.867691 
L 886.339717 237.441518 
L 888.834501 215.63658 
L 891.329285 216.019131 
L 893.824069 227.877952 
L 903.803204 228.643036 
L 906.297988 239.35422 
L 908.792772 238.589136 
L 911.287556 238.971687 
L 921.266692 224.626337 
L 923.761475 208.559543 
L 926.256259 206.838098 
L 928.751043 221.757257 
L 936.235395 226.921591 
L 938.730179 233.042268 
L 941.224963 234.38118 
L 943.719747 239.162963 
L 946.214531 234.189904 
L 956.193666 212.384966 
L 958.68845 194.214193 
L 961.183234 206.838098 
L 963.678018 222.713617 
L 971.16237 224.817613 
L 973.657154 237.058967 
L 976.151937 225.773955 
L 978.646721 219.844554 
L 981.141505 223.478701 
L 988.625857 216.975473 
L 991.120641 222.522341 
L 993.615425 202.630123 
L 996.110209 211.619881 
L 998.604993 212.19369 
L 1006.089344 215.63658 
L 1008.584128 227.304124 
L 1011.078912 231.703374 
L 1013.573696 232.468459 
L 1016.06848 229.790654 
L 1023.552832 210.663521 
L 1026.047615 173.939424 
L 1028.542399 202.056315 
L 1031.037183 209.133352 
L 1033.531967 204.73412 
L 1043.511103 182.164097 
L 1046.005887 183.694266 
L 1050.995455 214.106411 
L 1058.479806 214.297686 
L 1060.97459 220.227087 
L 1063.469374 212.384966 
L 1065.964158 220.800914 
L 1068.458942 226.347782 
L 1075.943294 219.07947 
L 1078.438077 200.526145 
L 1080.932861 199.761061 
L 1083.427645 200.908697 
L 1085.922429 195.170553 
L 1093.302832 185.98952 
L 1095.797615 212.384966 
L 1098.292399 214.106411 
L 1100.787183 201.673781 
L 1103.281967 201.482506 
L 1110.766319 203.012675 
L 1113.261103 212.767517 
L 1115.755887 227.686676 
L 1118.250671 229.98193 
L 1120.745455 227.304124 
L 1120.745455 227.304124 
" clip-path="url(#pabad232af0)" style="fill: none; stroke: #0000ff; stroke-width: 1.5; stroke-linecap: square"/>
   </g>
   <g id="patch_3">
    <path d="M 162 256.32 
L 162 34.56 
" style="fill: none; stroke: #000000; stroke-width: 0.8; stroke-linejoin: miter; stroke-linecap: square"/>
   </g>
   <g id="patch_4">
    <path d="M 1166.4 256.32 
L 1166.4 34.56 
" style="fill: none; stroke: #000000; stroke-width: 0.8; stroke-linejoin: miter; stroke-linecap: square"/>
   </g>
   <g id="patch_5">
    <path d="M 162 256.32 
L 1166.4 256.32 
" style="fill: none; stroke: #000000; stroke-width: 0.8; stroke-linejoin: miter; stroke-linecap: square"/>
   </g>
   <g id="patch_6">
    <path d="M 162 34.56 
L 1166.4 34.56 
" style="fill: none; stroke: #000000; stroke-width: 0.8; stroke-linejoin: miter; stroke-linecap: square"/>
   </g>
  </g>
  <g id="axes_2">
   <g id="matplotlib.axis_3">
    <g id="ytick_7">
     <g id="line2d_14">
      <defs>
       <path id="m824f334b94" d="M 0 0 
L 3.5 0 
" style="stroke: #000000; stroke-width: 0.8"/>
      </defs>
      <g>
       <use xlink:href="#m824f334b94" x="1166.4" y="249.436716" style="stroke: #000000; stroke-width: 0.8"/>
      </g>
     </g>
     <g id="text_15">
      <!-- 0.0 -->
      <g transform="translate(1173.4 253.235935) scale(0.1 -0.1)">
       <defs>
        <path id="DejaVuSans-2e" d="M 684 794 
L 1344 794 
L 1344 0 
L 684 0 
L 684 794 
z
" transform="scale(0.015625)"/>
       </defs>
       <use xlink:href="#DejaVuSans-30"/>
       <use xlink:href="#DejaVuSans-2e" x="63.623047"/>
       <use xlink:href="#DejaVuSans-30" x="95.410156"/>
      </g>
     </g>
    </g>
    <g id="ytick_8">
     <g id="line2d_15">
      <g>
       <use xlink:href="#m824f334b94" x="1166.4" y="208.30221" style="stroke: #000000; stroke-width: 0.8"/>
      </g>
     </g>
     <g id="text_16">
      <!-- 0.2 -->
      <g transform="translate(1173.4 212.101429) scale(0.1 -0.1)">
       <use xlink:href="#DejaVuSans-30"/>
       <use xlink:href="#DejaVuSans-2e" x="63.623047"/>
       <use xlink:href="#DejaVuSans-32" x="95.410156"/>
      </g>
     </g>
    </g>
    <g id="ytick_9">
     <g id="line2d_16">
      <g>
       <use xlink:href="#m824f334b94" x="1166.4" y="167.167704" style="stroke: #000000; stroke-width: 0.8"/>
      </g>
     </g>
     <g id="text_17">
      <!-- 0.4 -->
      <g transform="translate(1173.4 170.966922) scale(0.1 -0.1)">
       <use xlink:href="#DejaVuSans-30"/>
       <use xlink:href="#DejaVuSans-2e" x="63.623047"/>
       <use xlink:href="#DejaVuSans-34" x="95.410156"/>
      </g>
     </g>
    </g>
    <g id="ytick_10">
     <g id="line2d_17">
      <g>
       <use xlink:href="#m824f334b94" x="1166.4" y="126.033197" style="stroke: #000000; stroke-width: 0.8"/>
      </g>
     </g>
     <g id="text_18">
      <!-- 0.6 -->
      <g transform="translate(1173.4 129.832416) scale(0.1 -0.1)">
       <use xlink:href="#DejaVuSans-30"/>
       <use xlink:href="#DejaVuSans-2e" x="63.623047"/>
       <use xlink:href="#DejaVuSans-36" x="95.410156"/>
      </g>
     </g>
    </g>
    <g id="ytick_11">
     <g id="line2d_18">
      <g>
       <use xlink:href="#m824f334b94" x="1166.4" y="84.898691" style="stroke: #000000; stroke-width: 0.8"/>
      </g>
     </g>
     <g id="text_19">
      <!-- 0.8 -->
      <g transform="translate(1173.4 88.69791) scale(0.1 -0.1)">
       <use xlink:href="#DejaVuSans-30"/>
       <use xlink:href="#DejaVuSans-2e" x="63.623047"/>
       <use xlink:href="#DejaVuSans-38" x="95.410156"/>
      </g>
     </g>
    </g>
    <g id="ytick_12">
     <g id="line2d_19">
      <g>
       <use xlink:href="#m824f334b94" x="1166.4" y="43.764185" style="stroke: #000000; stroke-width: 0.8"/>
      </g>
     </g>
     <g id="text_20">
      <!-- 1.0 -->
      <g transform="translate(1173.4 47.563404) scale(0.1 -0.1)">
       <use xlink:href="#DejaVuSans-31"/>
       <use xlink:href="#DejaVuSans-2e" x="63.623047"/>
       <use xlink:href="#DejaVuSans-30" x="95.410156"/>
      </g>
     </g>
    </g>
    <g id="text_21">
     <!-- Indicator -->
     <g transform="translate(1200.901563 167.535313) rotate(-90) scale(0.1 -0.1)">
      <defs>
       <path id="DejaVuSans-6e" d="M 3513 2113 
L 3513 0 
L 2938 0 
L 2938 2094 
Q 2938 2591 2744 2837 
Q 2550 3084 2163 3084 
Q 1697 3084 1428 2787 
Q 1159 2491 1159 1978 
L 1159 0 
L 581 0 
L 581 3500 
L 1159 3500 
L 1159 2956 
Q 1366 3272 1645 3428 
Q 1925 3584 2291 3584 
Q 2894 3584 3203 3211 
Q 3513 2838 3513 2113 
z
" transform="scale(0.015625)"/>
       <path id="DejaVuSans-64" d="M 2906 2969 
L 2906 4863 
L 3481 4863 
L 3481 0 
L 2906 0 
L 2906 525 
Q 2725 213 2448 61 
Q 2172 -91 1784 -91 
Q 1150 -91 751 415 
Q 353 922 353 1747 
Q 353 2572 751 3078 
Q 1150 3584 1784 3584 
Q 2172 3584 2448 3432 
Q 2725 3281 2906 2969 
z
M 947 1747 
Q 947 1113 1208 752 
Q 1469 391 1925 391 
Q 2381 391 2643 752 
Q 2906 1113 2906 1747 
Q 2906 2381 2643 2742 
Q 2381 3103 1925 3103 
Q 1469 3103 1208 2742 
Q 947 2381 947 1747 
z
" transform="scale(0.015625)"/>
       <path id="DejaVuSans-69" d="M 603 3500 
L 1178 3500 
L 1178 0 
L 603 0 
L 603 3500 
z
M 603 4863 
L 1178 4863 
L 1178 4134 
L 603 4134 
L 603 4863 
z
" transform="scale(0.015625)"/>
       <path id="DejaVuSans-63" d="M 3122 3366 
L 3122 2828 
Q 2878 2963 2633 3030 
Q 2388 3097 2138 3097 
Q 1578 3097 1268 2742 
Q 959 2388 959 1747 
Q 959 1106 1268 751 
Q 1578 397 2138 397 
Q 2388 397 2633 464 
Q 2878 531 3122 666 
L 3122 134 
Q 2881 22 2623 -34 
Q 2366 -91 2075 -91 
Q 1284 -91 818 406 
Q 353 903 353 1747 
Q 353 2603 823 3093 
Q 1294 3584 2113 3584 
Q 2378 3584 2631 3529 
Q 2884 3475 3122 3366 
z
" transform="scale(0.015625)"/>
       <path id="DejaVuSans-6f" d="M 1959 3097 
Q 1497 3097 1228 2736 
Q 959 2375 959 1747 
Q 959 1119 1226 758 
Q 1494 397 1959 397 
Q 2419 397 2687 759 
Q 2956 1122 2956 1747 
Q 2956 2369 2687 2733 
Q 2419 3097 1959 3097 
z
M 1959 3584 
Q 2709 3584 3137 3096 
Q 3566 2609 3566 1747 
Q 3566 888 3137 398 
Q 2709 -91 1959 -91 
Q 1206 -91 779 398 
Q 353 888 353 1747 
Q 353 2609 779 3096 
Q 1206 3584 1959 3584 
z
" transform="scale(0.015625)"/>
       <path id="DejaVuSans-72" d="M 2631 2963 
Q 2534 3019 2420 3045 
Q 2306 3072 2169 3072 
Q 1681 3072 1420 2755 
Q 1159 2438 1159 1844 
L 1159 0 
L 581 0 
L 581 3500 
L 1159 3500 
L 1159 2956 
Q 1341 3275 1631 3429 
Q 1922 3584 2338 3584 
Q 2397 3584 2469 3576 
Q 2541 3569 2628 3553 
L 2631 2963 
z
" transform="scale(0.015625)"/>
      </defs>
      <use xlink:href="#DejaVuSans-49"/>
      <use xlink:href="#DejaVuSans-6e" x="29.492188"/>
      <use xlink:href="#DejaVuSans-64" x="92.871094"/>
      <use xlink:href="#DejaVuSans-69" x="156.347656"/>
      <use xlink:href="#DejaVuSans-63" x="184.130859"/>
      <use xlink:href="#DejaVuSans-61" x="239.111328"/>
      <use xlink:href="#DejaVuSans-74" x="300.390625"/>
      <use xlink:href="#DejaVuSans-6f" x="339.599609"/>
      <use xlink:href="#DejaVuSans-72" x="400.78125"/>
     </g>
    </g>
   </g>
   <g id="line2d_20">
    <path d="M 207.654545 75.865488 
L 210.149329 72.488964 
L 212.644113 107.439843 
L 220.128465 181.837937 
L 222.623249 208.797963 
L 225.118033 227.031047 
L 227.612817 228.569532 
L 230.107601 231.771786 
L 237.591952 232.766302 
L 240.086736 224.234648 
L 242.58152 216.659918 
L 245.076304 222.153136 
L 255.05544 195.387118 
L 257.550224 176.373517 
L 260.045007 167.801301 
L 262.539791 211.855181 
L 265.034575 221.343909 
L 272.518927 222.516009 
L 275.013711 223.510417 
L 277.508495 225.168962 
L 280.003279 216.770649 
L 282.498063 221.043762 
L 289.982414 219.907886 
L 292.477198 153.77261 
L 294.971982 146.515475 
L 297.466766 221.188333 
L 299.96155 234.94905 
L 307.445902 234.369882 
L 312.435469 147.411121 
L 314.930253 61.981411 
L 317.425037 213.45717 
L 324.909389 220.178059 
L 327.404173 168.804656 
L 329.898957 213.888166 
L 332.393741 210.476142 
L 334.888525 200.545452 
L 342.372876 191.025652 
L 344.86766 120.9679 
L 347.362444 201.661449 
L 349.857228 234.323382 
L 352.352012 195.246993 
L 359.836364 159.896978 
L 362.331148 69.021447 
L 364.825931 45.78339 
L 367.320715 54.303552 
L 369.815499 105.443981 
L 379.794635 144.668131 
L 382.289419 111.163762 
L 384.784203 239.67824 
L 387.278987 246.24 
L 394.763338 244.20238 
L 397.258122 245.681929 
L 399.752906 244.122018 
L 402.24769 243.660277 
L 404.742474 241.790978 
L 412.226826 232.021208 
L 417.216393 239.353873 
L 419.711177 233.819818 
L 422.205961 240.768212 
L 432.185097 237.895545 
L 434.679881 240.818922 
L 437.174665 239.709941 
L 439.669449 222.934482 
L 447.1538 179.620346 
L 449.648584 195.543171 
L 452.143368 202.138771 
L 454.638152 193.777202 
L 457.132936 186.324149 
L 464.617288 181.963202 
L 469.606855 140.03683 
L 472.101639 78.375722 
L 474.596423 101.874977 
L 482.080775 90.674975 
L 484.575559 103.321522 
L 487.070343 193.618273 
L 489.565127 186.824938 
L 492.059911 201.996072 
L 499.544262 187.730011 
L 502.039046 197.132875 
L 504.53383 160.374468 
L 507.028614 141.652931 
L 509.523398 172.285862 
L 517.00775 147.996463 
L 519.502534 152.175391 
L 521.997317 198.204557 
L 524.492101 103.694763 
L 526.986885 186.869007 
L 534.471237 161.559629 
L 536.966021 138.108896 
L 539.460805 46.697509 
L 541.955589 49.285482 
L 544.450373 44.64 
L 551.934724 56.323529 
L 554.429508 52.919099 
L 556.924292 54.712858 
L 559.419076 59.48889 
L 561.91386 116.460754 
L 569.398212 121.174627 
L 571.892996 50.250223 
L 574.387779 47.511366 
L 576.882563 44.940948 
L 579.377347 47.696758 
L 586.861699 49.621416 
L 589.356483 51.868519 
L 591.851267 80.095403 
L 594.346051 52.285797 
L 596.840835 115.000055 
L 604.325186 166.444042 
L 606.81997 209.832631 
L 609.314754 231.948381 
L 611.809538 238.177661 
L 614.304322 243.475723 
L 624.283458 226.806948 
L 626.778241 209.838662 
L 629.273025 214.24921 
L 631.767809 233.270227 
L 639.252161 235.056498 
L 641.746945 222.687462 
L 644.241729 240.984113 
L 646.736513 244.778931 
L 649.231297 227.047534 
L 656.715648 213.971434 
L 659.210432 202.516638 
L 664.2 49.35297 
L 666.694784 52.585107 
L 674.179136 56.531219 
L 676.67392 47.141918 
L 679.168703 50.52138 
L 681.663487 55.899973 
L 684.158271 54.268466 
L 691.642623 53.924673 
L 694.137407 48.76001 
L 696.632191 52.446475 
L 699.126975 54.116381 
L 701.621759 59.176537 
L 709.10611 58.664757 
L 711.600894 63.739248 
L 714.095678 76.745958 
L 716.590462 149.212043 
L 719.085246 63.531234 
L 726.569598 134.313366 
L 729.064382 102.119358 
L 731.559165 67.869745 
L 734.053949 53.888205 
L 736.548733 53.580868 
L 744.033085 59.773856 
L 746.527869 80.135022 
L 749.022653 60.743904 
L 751.517437 56.191547 
L 754.012221 52.734278 
L 761.496572 67.944909 
L 763.991356 153.652341 
L 766.48614 223.653271 
L 768.980924 240.756125 
L 771.475708 243.332885 
L 779.064009 242.268017 
L 781.558793 240.380066 
L 784.053577 240.118945 
L 786.548361 234.446619 
L 789.043145 239.418228 
L 796.527496 235.675719 
L 799.02228 236.667655 
L 801.517064 234.141189 
L 804.011848 230.52025 
L 806.506632 230.840377 
L 813.990984 222.388327 
L 816.485768 216.17403 
L 818.980551 218.625921 
L 823.970119 220.540745 
L 831.454471 217.294555 
L 833.949255 215.609335 
L 836.444039 209.021957 
L 838.938823 208.908635 
L 841.433607 214.271479 
L 848.917958 201.627765 
L 851.412742 206.579711 
L 853.907526 199.019699 
L 856.40231 192.084945 
L 858.897094 217.662457 
L 866.381446 209.51723 
L 868.87623 229.627139 
L 871.371013 229.926866 
L 873.865797 217.888554 
L 876.360581 221.949856 
L 883.844933 202.887578 
L 886.339717 199.821153 
L 888.834501 108.994418 
L 891.329285 108.506888 
L 893.824069 151.711924 
L 903.803204 151.766715 
L 906.297988 189.223473 
L 908.792772 182.240321 
L 911.287556 179.422903 
L 921.266692 116.460806 
L 923.761475 67.112795 
L 926.256259 64.60531 
L 928.751043 107.656926 
L 936.235395 128.987445 
L 938.730179 155.906448 
L 941.224963 161.585852 
L 943.719747 180.477145 
L 946.214531 159.348724 
L 956.193666 78.771816 
L 958.68845 50.659426 
L 961.183234 70.071495 
L 963.678018 123.02998 
L 971.16237 132.395565 
L 973.657154 182.240327 
L 976.151937 137.21243 
L 978.646721 114.836817 
L 981.141505 132.907231 
L 988.625857 110.097383 
L 991.120641 134.906686 
L 993.615425 71.043938 
L 996.110209 100.17038 
L 998.604993 105.351594 
L 1006.089344 118.76707 
L 1008.584128 166.454148 
L 1011.078912 183.619208 
L 1013.573696 186.051404 
L 1016.06848 176.867115 
L 1023.552832 101.9897 
L 1026.047615 45.543064 
L 1028.542399 83.22769 
L 1031.037183 107.074992 
L 1033.531967 91.728073 
L 1043.511103 50.53763 
L 1046.005887 53.243801 
L 1048.500671 85.882079 
L 1050.995455 146.655265 
L 1058.479806 151.029443 
L 1060.97459 177.681332 
L 1063.469374 144.823481 
L 1065.964158 176.434057 
L 1068.458942 194.932553 
L 1075.943294 167.245905 
L 1078.438077 95.257942 
L 1080.932861 96.906946 
L 1083.427645 104.000698 
L 1085.922429 87.217962 
L 1093.302832 66.771848 
L 1095.797615 160.590022 
L 1098.292399 168.962421 
L 1100.787183 116.741371 
L 1103.281967 117.328832 
L 1110.766319 124.817344 
L 1113.261103 166.610111 
L 1115.755887 218.066863 
L 1118.250671 223.656359 
L 1120.745455 217.677029 
L 1120.745455 217.677029 
" clip-path="url(#pabad232af0)" style="fill: none; stroke: #000000; stroke-width: 1.5; stroke-linecap: square"/>
   </g>
   <g id="patch_7">
    <path d="M 162 256.32 
L 162 34.56 
" style="fill: none; stroke: #000000; stroke-width: 0.8; stroke-linejoin: miter; stroke-linecap: square"/>
   </g>
   <g id="patch_8">
    <path d="M 1166.4 256.32 
L 1166.4 34.56 
" style="fill: none; stroke: #000000; stroke-width: 0.8; stroke-linejoin: miter; stroke-linecap: square"/>
   </g>
   <g id="patch_9">
    <path d="M 162 256.32 
L 1166.4 256.32 
" style="fill: none; stroke: #000000; stroke-width: 0.8; stroke-linejoin: miter; stroke-linecap: square"/>
   </g>
   <g id="patch_10">
    <path d="M 162 34.56 
L 1166.4 34.56 
" style="fill: none; stroke: #000000; stroke-width: 0.8; stroke-linejoin: miter; stroke-linecap: square"/>
   </g>
   <g id="text_22">
    <!-- VIX and Cumulative Probability Indicator - 1Y (Updated 2024-03-23 08:17:25) -->
    <g transform="translate(431.60625 28.56) scale(0.12 -0.12)">
     <defs>
      <path id="DejaVuSans-20" transform="scale(0.015625)"/>
      <path id="DejaVuSans-43" d="M 4122 4306 
L 4122 3641 
Q 3803 3938 3442 4084 
Q 3081 4231 2675 4231 
Q 1875 4231 1450 3742 
Q 1025 3253 1025 2328 
Q 1025 1406 1450 917 
Q 1875 428 2675 428 
Q 3081 428 3442 575 
Q 3803 722 4122 1019 
L 4122 359 
Q 3791 134 3420 21 
Q 3050 -91 2638 -91 
Q 1578 -91 968 557 
Q 359 1206 359 2328 
Q 359 3453 968 4101 
Q 1578 4750 2638 4750 
Q 3056 4750 3426 4639 
Q 3797 4528 4122 4306 
z
" transform="scale(0.015625)"/>
      <path id="DejaVuSans-75" d="M 544 1381 
L 544 3500 
L 1119 3500 
L 1119 1403 
Q 1119 906 1312 657 
Q 1506 409 1894 409 
Q 2359 409 2629 706 
Q 2900 1003 2900 1516 
L 2900 3500 
L 3475 3500 
L 3475 0 
L 2900 0 
L 2900 538 
Q 2691 219 2414 64 
Q 2138 -91 1772 -91 
Q 1169 -91 856 284 
Q 544 659 544 1381 
z
M 1991 3584 
L 1991 3584 
z
" transform="scale(0.015625)"/>
      <path id="DejaVuSans-6d" d="M 3328 2828 
Q 3544 3216 3844 3400 
Q 4144 3584 4550 3584 
Q 5097 3584 5394 3201 
Q 5691 2819 5691 2113 
L 5691 0 
L 5113 0 
L 5113 2094 
Q 5113 2597 4934 2840 
Q 4756 3084 4391 3084 
Q 3944 3084 3684 2787 
Q 3425 2491 3425 1978 
L 3425 0 
L 2847 0 
L 2847 2094 
Q 2847 2600 2669 2842 
Q 2491 3084 2119 3084 
Q 1678 3084 1418 2786 
Q 1159 2488 1159 1978 
L 1159 0 
L 581 0 
L 581 3500 
L 1159 3500 
L 1159 2956 
Q 1356 3278 1631 3431 
Q 1906 3584 2284 3584 
Q 2666 3584 2933 3390 
Q 3200 3197 3328 2828 
z
" transform="scale(0.015625)"/>
      <path id="DejaVuSans-6c" d="M 603 4863 
L 1178 4863 
L 1178 0 
L 603 0 
L 603 4863 
z
" transform="scale(0.015625)"/>
      <path id="DejaVuSans-76" d="M 191 3500 
L 800 3500 
L 1894 563 
L 2988 3500 
L 3597 3500 
L 2284 0 
L 1503 0 
L 191 3500 
z
" transform="scale(0.015625)"/>
      <path id="DejaVuSans-50" d="M 1259 4147 
L 1259 2394 
L 2053 2394 
Q 2494 2394 2734 2622 
Q 2975 2850 2975 3272 
Q 2975 3691 2734 3919 
Q 2494 4147 2053 4147 
L 1259 4147 
z
M 628 4666 
L 2053 4666 
Q 2838 4666 3239 4311 
Q 3641 3956 3641 3272 
Q 3641 2581 3239 2228 
Q 2838 1875 2053 1875 
L 1259 1875 
L 1259 0 
L 628 0 
L 628 4666 
z
" transform="scale(0.015625)"/>
      <path id="DejaVuSans-62" d="M 3116 1747 
Q 3116 2381 2855 2742 
Q 2594 3103 2138 3103 
Q 1681 3103 1420 2742 
Q 1159 2381 1159 1747 
Q 1159 1113 1420 752 
Q 1681 391 2138 391 
Q 2594 391 2855 752 
Q 3116 1113 3116 1747 
z
M 1159 2969 
Q 1341 3281 1617 3432 
Q 1894 3584 2278 3584 
Q 2916 3584 3314 3078 
Q 3713 2572 3713 1747 
Q 3713 922 3314 415 
Q 2916 -91 2278 -91 
Q 1894 -91 1617 61 
Q 1341 213 1159 525 
L 1159 0 
L 581 0 
L 581 4863 
L 1159 4863 
L 1159 2969 
z
" transform="scale(0.015625)"/>
      <path id="DejaVuSans-79" d="M 2059 -325 
Q 1816 -950 1584 -1140 
Q 1353 -1331 966 -1331 
L 506 -1331 
L 506 -850 
L 844 -850 
Q 1081 -850 1212 -737 
Q 1344 -625 1503 -206 
L 1606 56 
L 191 3500 
L 800 3500 
L 1894 763 
L 2988 3500 
L 3597 3500 
L 2059 -325 
z
" transform="scale(0.015625)"/>
      <path id="DejaVuSans-59" d="M -13 4666 
L 666 4666 
L 1959 2747 
L 3244 4666 
L 3922 4666 
L 2272 2222 
L 2272 0 
L 1638 0 
L 1638 2222 
L -13 4666 
z
" transform="scale(0.015625)"/>
      <path id="DejaVuSans-28" d="M 1984 4856 
Q 1566 4138 1362 3434 
Q 1159 2731 1159 2009 
Q 1159 1288 1364 580 
Q 1569 -128 1984 -844 
L 1484 -844 
Q 1016 -109 783 600 
Q 550 1309 550 2009 
Q 550 2706 781 3412 
Q 1013 4119 1484 4856 
L 1984 4856 
z
" transform="scale(0.015625)"/>
      <path id="DejaVuSans-55" d="M 556 4666 
L 1191 4666 
L 1191 1831 
Q 1191 1081 1462 751 
Q 1734 422 2344 422 
Q 2950 422 3222 751 
Q 3494 1081 3494 1831 
L 3494 4666 
L 4128 4666 
L 4128 1753 
Q 4128 841 3676 375 
Q 3225 -91 2344 -91 
Q 1459 -91 1007 375 
Q 556 841 556 1753 
L 556 4666 
z
" transform="scale(0.015625)"/>
      <path id="DejaVuSans-70" d="M 1159 525 
L 1159 -1331 
L 581 -1331 
L 581 3500 
L 1159 3500 
L 1159 2969 
Q 1341 3281 1617 3432 
Q 1894 3584 2278 3584 
Q 2916 3584 3314 3078 
Q 3713 2572 3713 1747 
Q 3713 922 3314 415 
Q 2916 -91 2278 -91 
Q 1894 -91 1617 61 
Q 1341 213 1159 525 
z
M 3116 1747 
Q 3116 2381 2855 2742 
Q 2594 3103 2138 3103 
Q 1681 3103 1420 2742 
Q 1159 2381 1159 1747 
Q 1159 1113 1420 752 
Q 1681 391 2138 391 
Q 2594 391 2855 752 
Q 3116 1113 3116 1747 
z
" transform="scale(0.015625)"/>
      <path id="DejaVuSans-3a" d="M 750 794 
L 1409 794 
L 1409 0 
L 750 0 
L 750 794 
z
M 750 3309 
L 1409 3309 
L 1409 2516 
L 750 2516 
L 750 3309 
z
" transform="scale(0.015625)"/>
      <path id="DejaVuSans-29" d="M 513 4856 
L 1013 4856 
Q 1481 4119 1714 3412 
Q 1947 2706 1947 2009 
Q 1947 1309 1714 600 
Q 1481 -109 1013 -844 
L 513 -844 
Q 928 -128 1133 580 
Q 1338 1288 1338 2009 
Q 1338 2731 1133 3434 
Q 928 4138 513 4856 
z
" transform="scale(0.015625)"/>
     </defs>
     <use xlink:href="#DejaVuSans-56"/>
     <use xlink:href="#DejaVuSans-49" x="68.408203"/>
     <use xlink:href="#DejaVuSans-58" x="97.900391"/>
     <use xlink:href="#DejaVuSans-20" x="166.40625"/>
     <use xlink:href="#DejaVuSans-61" x="198.193359"/>
     <use xlink:href="#DejaVuSans-6e" x="259.472656"/>
     <use xlink:href="#DejaVuSans-64" x="322.851562"/>
     <use xlink:href="#DejaVuSans-20" x="386.328125"/>
     <use xlink:href="#DejaVuSans-43" x="418.115234"/>
     <use xlink:href="#DejaVuSans-75" x="487.939453"/>
     <use xlink:href="#DejaVuSans-6d" x="551.318359"/>
     <use xlink:href="#DejaVuSans-75" x="648.730469"/>
     <use xlink:href="#DejaVuSans-6c" x="712.109375"/>
     <use xlink:href="#DejaVuSans-61" x="739.892578"/>
     <use xlink:href="#DejaVuSans-74" x="801.171875"/>
     <use xlink:href="#DejaVuSans-69" x="840.380859"/>
     <use xlink:href="#DejaVuSans-76" x="868.164062"/>
     <use xlink:href="#DejaVuSans-65" x="927.34375"/>
     <use xlink:href="#DejaVuSans-20" x="988.867188"/>
     <use xlink:href="#DejaVuSans-50" x="1020.654297"/>
     <use xlink:href="#DejaVuSans-72" x="1079.207031"/>
     <use xlink:href="#DejaVuSans-6f" x="1118.070312"/>
     <use xlink:href="#DejaVuSans-62" x="1179.251953"/>
     <use xlink:href="#DejaVuSans-61" x="1242.728516"/>
     <use xlink:href="#DejaVuSans-62" x="1304.007812"/>
     <use xlink:href="#DejaVuSans-69" x="1367.484375"/>
     <use xlink:href="#DejaVuSans-6c" x="1395.267578"/>
     <use xlink:href="#DejaVuSans-69" x="1423.050781"/>
     <use xlink:href="#DejaVuSans-74" x="1450.833984"/>
     <use xlink:href="#DejaVuSans-79" x="1490.042969"/>
     <use xlink:href="#DejaVuSans-20" x="1549.222656"/>
     <use xlink:href="#DejaVuSans-49" x="1581.009766"/>
     <use xlink:href="#DejaVuSans-6e" x="1610.501953"/>
     <use xlink:href="#DejaVuSans-64" x="1673.880859"/>
     <use xlink:href="#DejaVuSans-69" x="1737.357422"/>
     <use xlink:href="#DejaVuSans-63" x="1765.140625"/>
     <use xlink:href="#DejaVuSans-61" x="1820.121094"/>
     <use xlink:href="#DejaVuSans-74" x="1881.400391"/>
     <use xlink:href="#DejaVuSans-6f" x="1920.609375"/>
     <use xlink:href="#DejaVuSans-72" x="1981.791016"/>
     <use xlink:href="#DejaVuSans-20" x="2022.904297"/>
     <use xlink:href="#DejaVuSans-2d" x="2054.691406"/>
     <use xlink:href="#DejaVuSans-20" x="2090.775391"/>
     <use xlink:href="#DejaVuSans-31" x="2122.5625"/>
     <use xlink:href="#DejaVuSans-59" x="2186.185547"/>
     <use xlink:href="#DejaVuSans-20" x="2247.269531"/>
     <use xlink:href="#DejaVuSans-28" x="2279.056641"/>
     <use xlink:href="#DejaVuSans-55" x="2318.070312"/>
     <use xlink:href="#DejaVuSans-70" x="2391.263672"/>
     <use xlink:href="#DejaVuSans-64" x="2454.740234"/>
     <use xlink:href="#DejaVuSans-61" x="2518.216797"/>
     <use xlink:href="#DejaVuSans-74" x="2579.496094"/>
     <use xlink:href="#DejaVuSans-65" x="2618.705078"/>
     <use xlink:href="#DejaVuSans-64" x="2680.228516"/>
     <use xlink:href="#DejaVuSans-20" x="2743.705078"/>
     <use xlink:href="#DejaVuSans-32" x="2775.492188"/>
     <use xlink:href="#DejaVuSans-30" x="2839.115234"/>
     <use xlink:href="#DejaVuSans-32" x="2902.738281"/>
     <use xlink:href="#DejaVuSans-34" x="2966.361328"/>
     <use xlink:href="#DejaVuSans-2d" x="3029.984375"/>
     <use xlink:href="#DejaVuSans-30" x="3066.068359"/>
     <use xlink:href="#DejaVuSans-33" x="3129.691406"/>
     <use xlink:href="#DejaVuSans-2d" x="3193.314453"/>
     <use xlink:href="#DejaVuSans-32" x="3229.398438"/>
     <use xlink:href="#DejaVuSans-33" x="3293.021484"/>
     <use xlink:href="#DejaVuSans-20" x="3356.644531"/>
     <use xlink:href="#DejaVuSans-30" x="3388.431641"/>
     <use xlink:href="#DejaVuSans-38" x="3452.054688"/>
     <use xlink:href="#DejaVuSans-3a" x="3515.677734"/>
     <use xlink:href="#DejaVuSans-31" x="3549.369141"/>
     <use xlink:href="#DejaVuSans-37" x="3612.992188"/>
     <use xlink:href="#DejaVuSans-3a" x="3676.615234"/>
     <use xlink:href="#DejaVuSans-32" x="3710.306641"/>
     <use xlink:href="#DejaVuSans-35" x="3773.929688"/>
     <use xlink:href="#DejaVuSans-29" x="3837.552734"/>
    </g>
   </g>
  </g>
  <g id="legend_1">
   <g id="patch_11">
    <path d="M 7 37.35625 
L 83.190625 37.35625 
Q 85.190625 37.35625 85.190625 35.35625 
L 85.190625 7 
Q 85.190625 5 83.190625 5 
L 7 5 
Q 5 5 5 7 
L 5 35.35625 
Q 5 37.35625 7 37.35625 
z
" style="fill: #ffffff; opacity: 0.8; stroke: #cccccc; stroke-linejoin: miter"/>
   </g>
   <g id="line2d_21">
    <path d="M 9 13.098437 
L 19 13.098437 
L 29 13.098437 
" style="fill: none; stroke: #0000ff; stroke-width: 1.5; stroke-linecap: square"/>
   </g>
   <g id="text_23">
    <!-- Price -->
    <g transform="translate(37 16.598437) scale(0.1 -0.1)">
     <use xlink:href="#DejaVuSans-50"/>
     <use xlink:href="#DejaVuSans-72" x="58.552734"/>
     <use xlink:href="#DejaVuSans-69" x="99.666016"/>
     <use xlink:href="#DejaVuSans-63" x="127.449219"/>
     <use xlink:href="#DejaVuSans-65" x="182.429688"/>
    </g>
   </g>
   <g id="line2d_22">
    <path d="M 9 27.776563 
L 19 27.776563 
L 29 27.776563 
" style="fill: none; stroke: #000000; stroke-width: 1.5; stroke-linecap: square"/>
   </g>
   <g id="text_24">
    <!-- Indicator -->
    <g transform="translate(37 31.276563) scale(0.1 -0.1)">
     <use xlink:href="#DejaVuSans-49"/>
     <use xlink:href="#DejaVuSans-6e" x="29.492188"/>
     <use xlink:href="#DejaVuSans-64" x="92.871094"/>
     <use xlink:href="#DejaVuSans-69" x="156.347656"/>
     <use xlink:href="#DejaVuSans-63" x="184.130859"/>
     <use xlink:href="#DejaVuSans-61" x="239.111328"/>
     <use xlink:href="#DejaVuSans-74" x="300.390625"/>
     <use xlink:href="#DejaVuSans-6f" x="339.599609"/>
     <use xlink:href="#DejaVuSans-72" x="400.78125"/>
    </g>
   </g>
  </g>
 </g>
 <defs>
  <clipPath id="pabad232af0">
   <rect x="162" y="34.56" width="1004.4" height="221.76"/>
  </clipPath>
 </defs>
</svg>
