<?xml version="1.0" encoding="utf-8" standalone="no"?>
<!DOCTYPE svg PUBLIC "-//W3C//DTD SVG 1.1//EN"
  "http://www.w3.org/Graphics/SVG/1.1/DTD/svg11.dtd">
<svg xmlns:xlink="http://www.w3.org/1999/xlink" width="1152pt" height="576pt" viewBox="0 0 1152 576" xmlns="http://www.w3.org/2000/svg" version="1.1">
 <metadata>
  <rdf:RDF xmlns:dc="http://purl.org/dc/elements/1.1/" xmlns:cc="http://creativecommons.org/ns#" xmlns:rdf="http://www.w3.org/1999/02/22-rdf-syntax-ns#">
   <cc:Work>
    <dc:type rdf:resource="http://purl.org/dc/dcmitype/StillImage"/>
    <dc:date>2024-03-18T07:29:09.605381</dc:date>
    <dc:format>image/svg+xml</dc:format>
    <dc:creator>
     <cc:Agent>
      <dc:title>Matplotlib v3.8.0, https://matplotlib.org/</dc:title>
     </cc:Agent>
    </dc:creator>
   </cc:Work>
  </rdf:RDF>
 </metadata>
 <defs>
  <style type="text/css">*{stroke-linejoin: round; stroke-linecap: butt}</style>
 </defs>
 <g id="figure_1">
  <g id="patch_1">
   <path d="M 0 576 
L 1152 576 
L 1152 0 
L 0 0 
z
" style="fill: #ffffff"/>
  </g>
  <g id="axes_1">
   <g id="patch_2">
    <path d="M 144 512.64 
L 1036.8 512.64 
L 1036.8 69.12 
L 144 69.12 
z
" style="fill: #ffffff"/>
   </g>
   <g id="matplotlib.axis_1">
    <g id="xtick_1">
     <g id="line2d_1">
      <defs>
       <path id="m78a127eb7c" d="M 0 0 
L 0 3.5 
" style="stroke: #000000; stroke-width: 0.8"/>
      </defs>
      <g>
       <use xlink:href="#m78a127eb7c" x="153.628018" y="512.64" style="stroke: #000000; stroke-width: 0.8"/>
      </g>
     </g>
     <g id="text_1">
      <!-- 2023-03 -->
      <g transform="translate(132.736612 527.238438) scale(0.1 -0.1)">
       <defs>
        <path id="DejaVuSans-32" d="M 1228 531 
L 3431 531 
L 3431 0 
L 469 0 
L 469 531 
Q 828 903 1448 1529 
Q 2069 2156 2228 2338 
Q 2531 2678 2651 2914 
Q 2772 3150 2772 3378 
Q 2772 3750 2511 3984 
Q 2250 4219 1831 4219 
Q 1534 4219 1204 4116 
Q 875 4013 500 3803 
L 500 4441 
Q 881 4594 1212 4672 
Q 1544 4750 1819 4750 
Q 2544 4750 2975 4387 
Q 3406 4025 3406 3419 
Q 3406 3131 3298 2873 
Q 3191 2616 2906 2266 
Q 2828 2175 2409 1742 
Q 1991 1309 1228 531 
z
" transform="scale(0.015625)"/>
        <path id="DejaVuSans-30" d="M 2034 4250 
Q 1547 4250 1301 3770 
Q 1056 3291 1056 2328 
Q 1056 1369 1301 889 
Q 1547 409 2034 409 
Q 2525 409 2770 889 
Q 3016 1369 3016 2328 
Q 3016 3291 2770 3770 
Q 2525 4250 2034 4250 
z
M 2034 4750 
Q 2819 4750 3233 4129 
Q 3647 3509 3647 2328 
Q 3647 1150 3233 529 
Q 2819 -91 2034 -91 
Q 1250 -91 836 529 
Q 422 1150 422 2328 
Q 422 3509 836 4129 
Q 1250 4750 2034 4750 
z
" transform="scale(0.015625)"/>
        <path id="DejaVuSans-33" d="M 2597 2516 
Q 3050 2419 3304 2112 
Q 3559 1806 3559 1356 
Q 3559 666 3084 287 
Q 2609 -91 1734 -91 
Q 1441 -91 1130 -33 
Q 819 25 488 141 
L 488 750 
Q 750 597 1062 519 
Q 1375 441 1716 441 
Q 2309 441 2620 675 
Q 2931 909 2931 1356 
Q 2931 1769 2642 2001 
Q 2353 2234 1838 2234 
L 1294 2234 
L 1294 2753 
L 1863 2753 
Q 2328 2753 2575 2939 
Q 2822 3125 2822 3475 
Q 2822 3834 2567 4026 
Q 2313 4219 1838 4219 
Q 1578 4219 1281 4162 
Q 984 4106 628 3988 
L 628 4550 
Q 988 4650 1302 4700 
Q 1616 4750 1894 4750 
Q 2613 4750 3031 4423 
Q 3450 4097 3450 3541 
Q 3450 3153 3228 2886 
Q 3006 2619 2597 2516 
z
" transform="scale(0.015625)"/>
        <path id="DejaVuSans-2d" d="M 313 2009 
L 1997 2009 
L 1997 1497 
L 313 1497 
L 313 2009 
z
" transform="scale(0.015625)"/>
       </defs>
       <use xlink:href="#DejaVuSans-32"/>
       <use xlink:href="#DejaVuSans-30" x="63.623047"/>
       <use xlink:href="#DejaVuSans-32" x="127.246094"/>
       <use xlink:href="#DejaVuSans-33" x="190.869141"/>
       <use xlink:href="#DejaVuSans-2d" x="254.492188"/>
       <use xlink:href="#DejaVuSans-30" x="290.576172"/>
       <use xlink:href="#DejaVuSans-33" x="354.199219"/>
      </g>
     </g>
    </g>
    <g id="xtick_2">
     <g id="line2d_2">
      <g>
       <use xlink:href="#m78a127eb7c" x="288.808346" y="512.64" style="stroke: #000000; stroke-width: 0.8"/>
      </g>
     </g>
     <g id="text_2">
      <!-- 2023-05 -->
      <g transform="translate(267.91694 527.238438) scale(0.1 -0.1)">
       <defs>
        <path id="DejaVuSans-35" d="M 691 4666 
L 3169 4666 
L 3169 4134 
L 1269 4134 
L 1269 2991 
Q 1406 3038 1543 3061 
Q 1681 3084 1819 3084 
Q 2600 3084 3056 2656 
Q 3513 2228 3513 1497 
Q 3513 744 3044 326 
Q 2575 -91 1722 -91 
Q 1428 -91 1123 -41 
Q 819 9 494 109 
L 494 744 
Q 775 591 1075 516 
Q 1375 441 1709 441 
Q 2250 441 2565 725 
Q 2881 1009 2881 1497 
Q 2881 1984 2565 2268 
Q 2250 2553 1709 2553 
Q 1456 2553 1204 2497 
Q 953 2441 691 2322 
L 691 4666 
z
" transform="scale(0.015625)"/>
       </defs>
       <use xlink:href="#DejaVuSans-32"/>
       <use xlink:href="#DejaVuSans-30" x="63.623047"/>
       <use xlink:href="#DejaVuSans-32" x="127.246094"/>
       <use xlink:href="#DejaVuSans-33" x="190.869141"/>
       <use xlink:href="#DejaVuSans-2d" x="254.492188"/>
       <use xlink:href="#DejaVuSans-30" x="290.576172"/>
       <use xlink:href="#DejaVuSans-35" x="354.199219"/>
      </g>
     </g>
    </g>
    <g id="xtick_3">
     <g id="line2d_3">
      <g>
       <use xlink:href="#m78a127eb7c" x="424.081073" y="512.64" style="stroke: #000000; stroke-width: 0.8"/>
      </g>
     </g>
     <g id="text_3">
      <!-- 2023-07 -->
      <g transform="translate(403.189667 527.238438) scale(0.1 -0.1)">
       <defs>
        <path id="DejaVuSans-37" d="M 525 4666 
L 3525 4666 
L 3525 4397 
L 1831 0 
L 1172 0 
L 2766 4134 
L 525 4134 
L 525 4666 
z
" transform="scale(0.015625)"/>
       </defs>
       <use xlink:href="#DejaVuSans-32"/>
       <use xlink:href="#DejaVuSans-30" x="63.623047"/>
       <use xlink:href="#DejaVuSans-32" x="127.246094"/>
       <use xlink:href="#DejaVuSans-33" x="190.869141"/>
       <use xlink:href="#DejaVuSans-2d" x="254.492188"/>
       <use xlink:href="#DejaVuSans-30" x="290.576172"/>
       <use xlink:href="#DejaVuSans-37" x="354.199219"/>
      </g>
     </g>
    </g>
    <g id="xtick_4">
     <g id="line2d_4">
      <g>
       <use xlink:href="#m78a127eb7c" x="561.571386" y="512.64" style="stroke: #000000; stroke-width: 0.8"/>
      </g>
     </g>
     <g id="text_4">
      <!-- 2023-09 -->
      <g transform="translate(540.67998 527.238438) scale(0.1 -0.1)">
       <defs>
        <path id="DejaVuSans-39" d="M 703 97 
L 703 672 
Q 941 559 1184 500 
Q 1428 441 1663 441 
Q 2288 441 2617 861 
Q 2947 1281 2994 2138 
Q 2813 1869 2534 1725 
Q 2256 1581 1919 1581 
Q 1219 1581 811 2004 
Q 403 2428 403 3163 
Q 403 3881 828 4315 
Q 1253 4750 1959 4750 
Q 2769 4750 3195 4129 
Q 3622 3509 3622 2328 
Q 3622 1225 3098 567 
Q 2575 -91 1691 -91 
Q 1453 -91 1209 -44 
Q 966 3 703 97 
z
M 1959 2075 
Q 2384 2075 2632 2365 
Q 2881 2656 2881 3163 
Q 2881 3666 2632 3958 
Q 2384 4250 1959 4250 
Q 1534 4250 1286 3958 
Q 1038 3666 1038 3163 
Q 1038 2656 1286 2365 
Q 1534 2075 1959 2075 
z
" transform="scale(0.015625)"/>
       </defs>
       <use xlink:href="#DejaVuSans-32"/>
       <use xlink:href="#DejaVuSans-30" x="63.623047"/>
       <use xlink:href="#DejaVuSans-32" x="127.246094"/>
       <use xlink:href="#DejaVuSans-33" x="190.869141"/>
       <use xlink:href="#DejaVuSans-2d" x="254.492188"/>
       <use xlink:href="#DejaVuSans-30" x="290.576172"/>
       <use xlink:href="#DejaVuSans-39" x="354.199219"/>
      </g>
     </g>
    </g>
    <g id="xtick_5">
     <g id="line2d_5">
      <g>
       <use xlink:href="#m78a127eb7c" x="696.844113" y="512.64" style="stroke: #000000; stroke-width: 0.8"/>
      </g>
     </g>
     <g id="text_5">
      <!-- 2023-11 -->
      <g transform="translate(675.952707 527.238438) scale(0.1 -0.1)">
       <defs>
        <path id="DejaVuSans-31" d="M 794 531 
L 1825 531 
L 1825 4091 
L 703 3866 
L 703 4441 
L 1819 4666 
L 2450 4666 
L 2450 531 
L 3481 531 
L 3481 0 
L 794 0 
L 794 531 
z
" transform="scale(0.015625)"/>
       </defs>
       <use xlink:href="#DejaVuSans-32"/>
       <use xlink:href="#DejaVuSans-30" x="63.623047"/>
       <use xlink:href="#DejaVuSans-32" x="127.246094"/>
       <use xlink:href="#DejaVuSans-33" x="190.869141"/>
       <use xlink:href="#DejaVuSans-2d" x="254.492188"/>
       <use xlink:href="#DejaVuSans-31" x="290.576172"/>
       <use xlink:href="#DejaVuSans-31" x="354.199219"/>
      </g>
     </g>
    </g>
    <g id="xtick_6">
     <g id="line2d_6">
      <g>
       <use xlink:href="#m78a127eb7c" x="832.20924" y="512.64" style="stroke: #000000; stroke-width: 0.8"/>
      </g>
     </g>
     <g id="text_6">
      <!-- 2024-01 -->
      <g transform="translate(811.317834 527.238438) scale(0.1 -0.1)">
       <defs>
        <path id="DejaVuSans-34" d="M 2419 4116 
L 825 1625 
L 2419 1625 
L 2419 4116 
z
M 2253 4666 
L 3047 4666 
L 3047 1625 
L 3713 1625 
L 3713 1100 
L 3047 1100 
L 3047 0 
L 2419 0 
L 2419 1100 
L 313 1100 
L 313 1709 
L 2253 4666 
z
" transform="scale(0.015625)"/>
       </defs>
       <use xlink:href="#DejaVuSans-32"/>
       <use xlink:href="#DejaVuSans-30" x="63.623047"/>
       <use xlink:href="#DejaVuSans-32" x="127.246094"/>
       <use xlink:href="#DejaVuSans-34" x="190.869141"/>
       <use xlink:href="#DejaVuSans-2d" x="254.492188"/>
       <use xlink:href="#DejaVuSans-30" x="290.576172"/>
       <use xlink:href="#DejaVuSans-31" x="354.199219"/>
      </g>
     </g>
    </g>
    <g id="xtick_7">
     <g id="line2d_7">
      <g>
       <use xlink:href="#m78a127eb7c" x="965.264382" y="512.64" style="stroke: #000000; stroke-width: 0.8"/>
      </g>
     </g>
     <g id="text_7">
      <!-- 2024-03 -->
      <g transform="translate(944.372975 527.238438) scale(0.1 -0.1)">
       <use xlink:href="#DejaVuSans-32"/>
       <use xlink:href="#DejaVuSans-30" x="63.623047"/>
       <use xlink:href="#DejaVuSans-32" x="127.246094"/>
       <use xlink:href="#DejaVuSans-34" x="190.869141"/>
       <use xlink:href="#DejaVuSans-2d" x="254.492188"/>
       <use xlink:href="#DejaVuSans-30" x="290.576172"/>
       <use xlink:href="#DejaVuSans-33" x="354.199219"/>
      </g>
     </g>
    </g>
    <g id="text_8">
     <!-- Date -->
     <g transform="translate(578.449219 540.916563) scale(0.1 -0.1)">
      <defs>
       <path id="DejaVuSans-44" d="M 1259 4147 
L 1259 519 
L 2022 519 
Q 2988 519 3436 956 
Q 3884 1394 3884 2338 
Q 3884 3275 3436 3711 
Q 2988 4147 2022 4147 
L 1259 4147 
z
M 628 4666 
L 1925 4666 
Q 3281 4666 3915 4102 
Q 4550 3538 4550 2338 
Q 4550 1131 3912 565 
Q 3275 0 1925 0 
L 628 0 
L 628 4666 
z
" transform="scale(0.015625)"/>
       <path id="DejaVuSans-61" d="M 2194 1759 
Q 1497 1759 1228 1600 
Q 959 1441 959 1056 
Q 959 750 1161 570 
Q 1363 391 1709 391 
Q 2188 391 2477 730 
Q 2766 1069 2766 1631 
L 2766 1759 
L 2194 1759 
z
M 3341 1997 
L 3341 0 
L 2766 0 
L 2766 531 
Q 2569 213 2275 61 
Q 1981 -91 1556 -91 
Q 1019 -91 701 211 
Q 384 513 384 1019 
Q 384 1609 779 1909 
Q 1175 2209 1959 2209 
L 2766 2209 
L 2766 2266 
Q 2766 2663 2505 2880 
Q 2244 3097 1772 3097 
Q 1472 3097 1187 3025 
Q 903 2953 641 2809 
L 641 3341 
Q 956 3463 1253 3523 
Q 1550 3584 1831 3584 
Q 2591 3584 2966 3190 
Q 3341 2797 3341 1997 
z
" transform="scale(0.015625)"/>
       <path id="DejaVuSans-74" d="M 1172 4494 
L 1172 3500 
L 2356 3500 
L 2356 3053 
L 1172 3053 
L 1172 1153 
Q 1172 725 1289 603 
Q 1406 481 1766 481 
L 2356 481 
L 2356 0 
L 1766 0 
Q 1100 0 847 248 
Q 594 497 594 1153 
L 594 3053 
L 172 3053 
L 172 3500 
L 594 3500 
L 594 4494 
L 1172 4494 
z
" transform="scale(0.015625)"/>
       <path id="DejaVuSans-65" d="M 3597 1894 
L 3597 1613 
L 953 1613 
Q 991 1019 1311 708 
Q 1631 397 2203 397 
Q 2534 397 2845 478 
Q 3156 559 3463 722 
L 3463 178 
Q 3153 47 2828 -22 
Q 2503 -91 2169 -91 
Q 1331 -91 842 396 
Q 353 884 353 1716 
Q 353 2575 817 3079 
Q 1281 3584 2069 3584 
Q 2775 3584 3186 3129 
Q 3597 2675 3597 1894 
z
M 3022 2063 
Q 3016 2534 2758 2815 
Q 2500 3097 2075 3097 
Q 1594 3097 1305 2825 
Q 1016 2553 972 2059 
L 3022 2063 
z
" transform="scale(0.015625)"/>
      </defs>
      <use xlink:href="#DejaVuSans-44"/>
      <use xlink:href="#DejaVuSans-61" x="77.001953"/>
      <use xlink:href="#DejaVuSans-74" x="138.28125"/>
      <use xlink:href="#DejaVuSans-65" x="177.490234"/>
     </g>
    </g>
   </g>
   <g id="matplotlib.axis_2">
    <g id="ytick_1">
     <g id="line2d_8">
      <defs>
       <path id="m7a898dcaf6" d="M 0 0 
L -3.5 0 
" style="stroke: #0000ff; stroke-width: 0.8"/>
      </defs>
      <g>
       <use xlink:href="#m7a898dcaf6" x="144" y="494.485961" style="fill: #0000ff; stroke: #0000ff; stroke-width: 0.8"/>
      </g>
     </g>
     <g id="text_9">
      <!-- 12 -->
      <g style="fill: #0000ff" transform="translate(124.275 498.28518) scale(0.1 -0.1)">
       <use xlink:href="#DejaVuSans-31"/>
       <use xlink:href="#DejaVuSans-32" x="63.623047"/>
      </g>
     </g>
    </g>
    <g id="ytick_2">
     <g id="line2d_9">
      <g>
       <use xlink:href="#m7a898dcaf6" x="144" y="437.172527" style="fill: #0000ff; stroke: #0000ff; stroke-width: 0.8"/>
      </g>
     </g>
     <g id="text_10">
      <!-- 14 -->
      <g style="fill: #0000ff" transform="translate(124.275 440.971746) scale(0.1 -0.1)">
       <use xlink:href="#DejaVuSans-31"/>
       <use xlink:href="#DejaVuSans-34" x="63.623047"/>
      </g>
     </g>
    </g>
    <g id="ytick_3">
     <g id="line2d_10">
      <g>
       <use xlink:href="#m7a898dcaf6" x="144" y="379.859093" style="fill: #0000ff; stroke: #0000ff; stroke-width: 0.8"/>
      </g>
     </g>
     <g id="text_11">
      <!-- 16 -->
      <g style="fill: #0000ff" transform="translate(124.275 383.658312) scale(0.1 -0.1)">
       <defs>
        <path id="DejaVuSans-36" d="M 2113 2584 
Q 1688 2584 1439 2293 
Q 1191 2003 1191 1497 
Q 1191 994 1439 701 
Q 1688 409 2113 409 
Q 2538 409 2786 701 
Q 3034 994 3034 1497 
Q 3034 2003 2786 2293 
Q 2538 2584 2113 2584 
z
M 3366 4563 
L 3366 3988 
Q 3128 4100 2886 4159 
Q 2644 4219 2406 4219 
Q 1781 4219 1451 3797 
Q 1122 3375 1075 2522 
Q 1259 2794 1537 2939 
Q 1816 3084 2150 3084 
Q 2853 3084 3261 2657 
Q 3669 2231 3669 1497 
Q 3669 778 3244 343 
Q 2819 -91 2113 -91 
Q 1303 -91 875 529 
Q 447 1150 447 2328 
Q 447 3434 972 4092 
Q 1497 4750 2381 4750 
Q 2619 4750 2861 4703 
Q 3103 4656 3366 4563 
z
" transform="scale(0.015625)"/>
       </defs>
       <use xlink:href="#DejaVuSans-31"/>
       <use xlink:href="#DejaVuSans-36" x="63.623047"/>
      </g>
     </g>
    </g>
    <g id="ytick_4">
     <g id="line2d_11">
      <g>
       <use xlink:href="#m7a898dcaf6" x="144" y="322.545659" style="fill: #0000ff; stroke: #0000ff; stroke-width: 0.8"/>
      </g>
     </g>
     <g id="text_12">
      <!-- 18 -->
      <g style="fill: #0000ff" transform="translate(124.275 326.344878) scale(0.1 -0.1)">
       <defs>
        <path id="DejaVuSans-38" d="M 2034 2216 
Q 1584 2216 1326 1975 
Q 1069 1734 1069 1313 
Q 1069 891 1326 650 
Q 1584 409 2034 409 
Q 2484 409 2743 651 
Q 3003 894 3003 1313 
Q 3003 1734 2745 1975 
Q 2488 2216 2034 2216 
z
M 1403 2484 
Q 997 2584 770 2862 
Q 544 3141 544 3541 
Q 544 4100 942 4425 
Q 1341 4750 2034 4750 
Q 2731 4750 3128 4425 
Q 3525 4100 3525 3541 
Q 3525 3141 3298 2862 
Q 3072 2584 2669 2484 
Q 3125 2378 3379 2068 
Q 3634 1759 3634 1313 
Q 3634 634 3220 271 
Q 2806 -91 2034 -91 
Q 1263 -91 848 271 
Q 434 634 434 1313 
Q 434 1759 690 2068 
Q 947 2378 1403 2484 
z
M 1172 3481 
Q 1172 3119 1398 2916 
Q 1625 2713 2034 2713 
Q 2441 2713 2670 2916 
Q 2900 3119 2900 3481 
Q 2900 3844 2670 4047 
Q 2441 4250 2034 4250 
Q 1625 4250 1398 4047 
Q 1172 3844 1172 3481 
z
" transform="scale(0.015625)"/>
       </defs>
       <use xlink:href="#DejaVuSans-31"/>
       <use xlink:href="#DejaVuSans-38" x="63.623047"/>
      </g>
     </g>
    </g>
    <g id="ytick_5">
     <g id="line2d_12">
      <g>
       <use xlink:href="#m7a898dcaf6" x="144" y="265.232225" style="fill: #0000ff; stroke: #0000ff; stroke-width: 0.8"/>
      </g>
     </g>
     <g id="text_13">
      <!-- 20 -->
      <g style="fill: #0000ff" transform="translate(124.275 269.031444) scale(0.1 -0.1)">
       <use xlink:href="#DejaVuSans-32"/>
       <use xlink:href="#DejaVuSans-30" x="63.623047"/>
      </g>
     </g>
    </g>
    <g id="ytick_6">
     <g id="line2d_13">
      <g>
       <use xlink:href="#m7a898dcaf6" x="144" y="207.918791" style="fill: #0000ff; stroke: #0000ff; stroke-width: 0.8"/>
      </g>
     </g>
     <g id="text_14">
      <!-- 22 -->
      <g style="fill: #0000ff" transform="translate(124.275 211.71801) scale(0.1 -0.1)">
       <use xlink:href="#DejaVuSans-32"/>
       <use xlink:href="#DejaVuSans-32" x="63.623047"/>
      </g>
     </g>
    </g>
    <g id="ytick_7">
     <g id="line2d_14">
      <g>
       <use xlink:href="#m7a898dcaf6" x="144" y="150.605357" style="fill: #0000ff; stroke: #0000ff; stroke-width: 0.8"/>
      </g>
     </g>
     <g id="text_15">
      <!-- 24 -->
      <g style="fill: #0000ff" transform="translate(124.275 154.404576) scale(0.1 -0.1)">
       <use xlink:href="#DejaVuSans-32"/>
       <use xlink:href="#DejaVuSans-34" x="63.623047"/>
      </g>
     </g>
    </g>
    <g id="ytick_8">
     <g id="line2d_15">
      <g>
       <use xlink:href="#m7a898dcaf6" x="144" y="93.291923" style="fill: #0000ff; stroke: #0000ff; stroke-width: 0.8"/>
      </g>
     </g>
     <g id="text_16">
      <!-- 26 -->
      <g style="fill: #0000ff" transform="translate(124.275 97.091142) scale(0.1 -0.1)">
       <use xlink:href="#DejaVuSans-32"/>
       <use xlink:href="#DejaVuSans-36" x="63.623047"/>
      </g>
     </g>
    </g>
    <g id="text_17">
     <!-- Price -->
     <g style="fill: #0000ff" transform="translate(118.195312 303.077656) rotate(-90) scale(0.1 -0.1)">
      <defs>
       <path id="DejaVuSans-50" d="M 1259 4147 
L 1259 2394 
L 2053 2394 
Q 2494 2394 2734 2622 
Q 2975 2850 2975 3272 
Q 2975 3691 2734 3919 
Q 2494 4147 2053 4147 
L 1259 4147 
z
M 628 4666 
L 2053 4666 
Q 2838 4666 3239 4311 
Q 3641 3956 3641 3272 
Q 3641 2581 3239 2228 
Q 2838 1875 2053 1875 
L 1259 1875 
L 1259 0 
L 628 0 
L 628 4666 
z
" transform="scale(0.015625)"/>
       <path id="DejaVuSans-72" d="M 2631 2963 
Q 2534 3019 2420 3045 
Q 2306 3072 2169 3072 
Q 1681 3072 1420 2755 
Q 1159 2438 1159 1844 
L 1159 0 
L 581 0 
L 581 3500 
L 1159 3500 
L 1159 2956 
Q 1341 3275 1631 3429 
Q 1922 3584 2338 3584 
Q 2397 3584 2469 3576 
Q 2541 3569 2628 3553 
L 2631 2963 
z
" transform="scale(0.015625)"/>
       <path id="DejaVuSans-69" d="M 603 3500 
L 1178 3500 
L 1178 0 
L 603 0 
L 603 3500 
z
M 603 4863 
L 1178 4863 
L 1178 4134 
L 603 4134 
L 603 4863 
z
" transform="scale(0.015625)"/>
       <path id="DejaVuSans-63" d="M 3122 3366 
L 3122 2828 
Q 2878 2963 2633 3030 
Q 2388 3097 2138 3097 
Q 1578 3097 1268 2742 
Q 959 2388 959 1747 
Q 959 1106 1268 751 
Q 1578 397 2138 397 
Q 2388 397 2633 464 
Q 2878 531 3122 666 
L 3122 134 
Q 2881 22 2623 -34 
Q 2366 -91 2075 -91 
Q 1284 -91 818 406 
Q 353 903 353 1747 
Q 353 2603 823 3093 
Q 1294 3584 2113 3584 
Q 2378 3584 2631 3529 
Q 2884 3475 3122 3366 
z
" transform="scale(0.015625)"/>
      </defs>
      <use xlink:href="#DejaVuSans-50"/>
      <use xlink:href="#DejaVuSans-72" x="58.552734"/>
      <use xlink:href="#DejaVuSans-69" x="99.666016"/>
      <use xlink:href="#DejaVuSans-63" x="127.449219"/>
      <use xlink:href="#DejaVuSans-65" x="182.429688"/>
     </g>
    </g>
   </g>
   <g id="line2d_16">
    <path d="M 184.581818 89.28 
L 186.799404 179.548648 
L 189.01699 107.333708 
L 195.669747 146.30686 
L 197.887332 225.68598 
L 200.104918 200.468038 
L 202.322504 190.438176 
L 204.540089 215.369544 
L 211.192846 248.038184 
L 213.410432 266.091946 
L 215.628018 290.450112 
L 217.845604 293.315795 
L 220.063189 302.485935 
L 226.715946 306.784487 
L 228.933532 293.888942 
L 231.151118 291.596407 
L 233.368703 311.082983 
L 242.239046 294.748663 
L 244.456632 291.02326 
L 246.674218 291.309833 
L 248.891803 328.277024 
L 251.109389 349.196415 
L 257.762146 352.63519 
L 259.979732 356.07402 
L 262.197317 366.67703 
L 264.414903 346.330732 
L 266.632489 357.793408 
L 273.285246 354.354633 
L 275.502832 300.766548 
L 277.720417 298.474013 
L 279.938003 350.342655 
L 282.155589 386.163579 
L 288.808346 377.566558 
L 291.025931 328.850117 
L 293.243517 312.802371 
L 295.461103 262.653116 
L 297.678689 345.757585 
L 304.331446 351.775524 
L 306.549031 330.856133 
L 308.766617 352.921764 
L 310.984203 353.208338 
L 313.201788 350.342655 
L 319.854545 347.763546 
L 322.072131 322.832233 
L 324.289717 354.927725 
L 326.507303 378.426279 
L 328.724888 356.647168 
L 335.377645 345.184492 
L 337.595231 307.35758 
L 339.812817 264.372504 
L 342.030402 289.877019 
L 344.247988 323.978473 
L 353.118331 338.020313 
L 355.335917 324.265047 
L 357.553502 389.888955 
L 359.771088 419.978486 
L 366.423845 416.253137 
L 368.641431 438.318795 
L 370.859016 438.891942 
L 373.076602 447.202389 
L 375.294188 442.044171 
L 381.946945 408.229237 
L 384.164531 419.69194 
L 386.382116 440.61133 
L 388.599702 422.844169 
L 390.817288 450.354618 
L 399.68763 440.61133 
L 401.905216 460.097906 
L 404.122802 468.408353 
L 406.340387 453.220301 
L 412.993145 430.008348 
L 415.21073 444.62328 
L 417.428316 453.506847 
L 419.645902 450.354618 
L 421.863487 448.921777 
L 428.516244 449.494924 
L 432.951416 432.01431 
L 435.169001 395.906867 
L 437.386587 413.387454 
L 444.039344 406.509849 
L 446.25693 413.100881 
L 448.474516 450.354618 
L 450.692101 448.348657 
L 452.909687 456.085956 
L 459.562444 452.074033 
L 461.78003 457.232224 
L 463.997615 444.050133 
L 466.215201 437.459101 
L 468.432787 448.635203 
L 475.085544 439.751636 
L 477.30313 441.184478 
L 479.520715 460.38448 
L 481.738301 425.423278 
L 483.955887 456.37253 
L 490.608644 447.775509 
L 492.82623 439.178489 
L 495.043815 377.279984 
L 497.261401 382.151628 
L 499.478987 348.336694 
L 506.131744 386.450125 
L 508.349329 380.145667 
L 510.566915 381.005361 
L 512.784501 384.15759 
L 515.002086 413.100881 
L 521.654844 413.674028 
L 523.872429 366.67703 
L 526.090015 357.506834 
L 528.307601 325.697916 
L 530.525186 342.605383 
L 537.177943 347.477027 
L 539.395529 352.062097 
L 541.613115 380.432241 
L 543.8307 345.471011 
L 546.048286 389.029234 
L 552.701043 406.223275 
L 554.918629 424.27701 
L 557.136215 440.61133 
L 559.3538 449.494924 
L 561.571386 463.250136 
L 570.441729 436.885954 
L 572.659314 424.27701 
L 574.8769 425.709851 
L 577.094486 441.757598 
L 583.747243 442.903865 
L 585.964829 430.581496 
L 588.182414 452.074033 
L 590.4 470.987462 
L 592.617586 443.190439 
L 599.270343 437.172527 
L 601.487928 434.020298 
L 603.705514 404.50386 
L 605.9231 335.727723 
L 608.140686 345.471011 
L 614.793443 354.068059 
L 617.011028 295.60833 
L 619.228614 316.241201 
L 621.4462 341.459088 
L 623.663785 336.30087 
L 630.316542 333.721761 
L 632.534128 271.536683 
L 634.751714 305.924766 
L 636.9693 308.503874 
L 639.186885 338.306832 
L 645.839642 331.142652 
L 648.057228 350.342655 
L 650.274814 377.279984 
L 652.492399 360.085943 
L 654.709985 284.718801 
L 661.362742 345.184492 
L 663.580328 325.984489 
L 665.797914 287.584484 
L 668.015499 225.112832 
L 670.233085 216.229265 
L 676.885842 254.629216 
L 679.103428 294.748663 
L 681.321013 259.787434 
L 683.538599 245.745649 
L 685.756185 228.838181 
L 692.408942 272.396404 
L 694.626528 318.533736 
L 699.061699 389.602381 
L 701.279285 411.094919 
L 708.024441 411.668039 
L 710.242027 413.960575 
L 712.459613 424.27701 
L 714.677198 400.205363 
L 716.894784 432.300883 
L 723.547541 415.393416 
L 725.765127 432.587457 
L 727.982712 432.01431 
L 730.200298 428.002387 
L 732.417884 442.903865 
L 739.070641 454.079995 
L 741.288227 455.799383 
L 743.505812 470.127741 
L 747.940984 481.303871 
L 754.593741 474.712839 
L 756.811326 474.712839 
L 759.028912 466.402392 
L 761.246498 468.12178 
L 763.464083 476.432226 
L 770.116841 463.536709 
L 772.334426 470.127741 
L 774.552012 466.688938 
L 776.769598 464.109829 
L 778.987183 484.4561 
L 785.63994 476.432226 
L 787.857526 492.48 
L 790.075112 489.041197 
L 792.292697 480.73075 
L 794.510283 486.462088 
L 801.16304 478.438188 
L 803.380626 479.297909 
L 805.598212 446.629242 
L 807.815797 447.202389 
L 810.033383 464.969551 
L 818.903726 466.115818 
L 821.121311 482.163564 
L 823.338897 481.017297 
L 825.556483 481.590444 
L 834.426826 460.097906 
L 836.644411 436.02626 
L 838.861997 433.447151 
L 841.079583 455.799383 
L 847.73234 463.536709 
L 849.949925 472.70685 
L 852.167511 474.712839 
L 854.385097 481.877018 
L 856.602683 474.426265 
L 865.473025 441.757598 
L 867.690611 414.533722 
L 869.908197 433.447151 
L 872.125782 457.232224 
L 878.778539 460.38448 
L 880.996125 478.724762 
L 883.213711 461.817294 
L 885.431297 452.933727 
L 887.648882 458.378491 
L 894.301639 448.635203 
L 896.519225 456.94565 
L 898.736811 427.142665 
L 900.954396 440.61133 
L 903.171982 441.471024 
L 909.824739 446.629242 
L 912.042325 464.109829 
L 914.259911 470.700888 
L 916.477496 471.847156 
L 918.695082 467.835206 
L 925.347839 439.178489 
L 927.565425 384.15759 
L 929.78301 426.282972 
L 932.000596 436.885954 
L 934.218182 430.294922 
L 943.088525 396.479987 
L 945.30611 398.772522 
L 949.741282 444.336707 
L 956.394039 444.62328 
L 958.611624 453.506847 
L 960.82921 441.757598 
L 963.046796 454.366569 
L 965.264382 462.677015 
L 971.917139 451.78746 
L 974.134724 423.990436 
L 976.35231 422.844169 
L 978.569896 424.563584 
L 980.787481 415.966563 
L 987.347839 402.211325 
L 989.565425 441.757598 
L 991.78301 444.336707 
L 994.000596 425.709851 
L 996.218182 425.423278 
L 996.218182 425.423278 
" clip-path="url(#p4cbb46c338)" style="fill: none; stroke: #0000ff; stroke-width: 1.5; stroke-linecap: square"/>
   </g>
   <g id="patch_3">
    <path d="M 144 512.64 
L 144 69.12 
" style="fill: none; stroke: #000000; stroke-width: 0.8; stroke-linejoin: miter; stroke-linecap: square"/>
   </g>
   <g id="patch_4">
    <path d="M 1036.8 512.64 
L 1036.8 69.12 
" style="fill: none; stroke: #000000; stroke-width: 0.8; stroke-linejoin: miter; stroke-linecap: square"/>
   </g>
   <g id="patch_5">
    <path d="M 144 512.64 
L 1036.8 512.64 
" style="fill: none; stroke: #000000; stroke-width: 0.8; stroke-linejoin: miter; stroke-linecap: square"/>
   </g>
   <g id="patch_6">
    <path d="M 144 69.12 
L 1036.8 69.12 
" style="fill: none; stroke: #000000; stroke-width: 0.8; stroke-linejoin: miter; stroke-linecap: square"/>
   </g>
  </g>
  <g id="axes_2">
   <g id="matplotlib.axis_3">
    <g id="ytick_9">
     <g id="line2d_17">
      <defs>
       <path id="m402dc3d959" d="M 0 0 
L 3.5 0 
" style="stroke: #ff0000; stroke-width: 0.8"/>
      </defs>
      <g>
       <use xlink:href="#m402dc3d959" x="1036.8" y="463.11305" style="fill: #ff0000; stroke: #ff0000; stroke-width: 0.8"/>
      </g>
     </g>
     <g id="text_18">
      <!-- 0.2 -->
      <g style="fill: #ff0000" transform="translate(1043.8 466.912269) scale(0.1 -0.1)">
       <defs>
        <path id="DejaVuSans-2e" d="M 684 794 
L 1344 794 
L 1344 0 
L 684 0 
L 684 794 
z
" transform="scale(0.015625)"/>
       </defs>
       <use xlink:href="#DejaVuSans-30"/>
       <use xlink:href="#DejaVuSans-2e" x="63.623047"/>
       <use xlink:href="#DejaVuSans-32" x="95.410156"/>
      </g>
     </g>
    </g>
    <g id="ytick_10">
     <g id="line2d_18">
      <g>
       <use xlink:href="#m402dc3d959" x="1036.8" y="408.207132" style="fill: #ff0000; stroke: #ff0000; stroke-width: 0.8"/>
      </g>
     </g>
     <g id="text_19">
      <!-- 0.3 -->
      <g style="fill: #ff0000" transform="translate(1043.8 412.006351) scale(0.1 -0.1)">
       <use xlink:href="#DejaVuSans-30"/>
       <use xlink:href="#DejaVuSans-2e" x="63.623047"/>
       <use xlink:href="#DejaVuSans-33" x="95.410156"/>
      </g>
     </g>
    </g>
    <g id="ytick_11">
     <g id="line2d_19">
      <g>
       <use xlink:href="#m402dc3d959" x="1036.8" y="353.301214" style="fill: #ff0000; stroke: #ff0000; stroke-width: 0.8"/>
      </g>
     </g>
     <g id="text_20">
      <!-- 0.4 -->
      <g style="fill: #ff0000" transform="translate(1043.8 357.100432) scale(0.1 -0.1)">
       <use xlink:href="#DejaVuSans-30"/>
       <use xlink:href="#DejaVuSans-2e" x="63.623047"/>
       <use xlink:href="#DejaVuSans-34" x="95.410156"/>
      </g>
     </g>
    </g>
    <g id="ytick_12">
     <g id="line2d_20">
      <g>
       <use xlink:href="#m402dc3d959" x="1036.8" y="298.395295" style="fill: #ff0000; stroke: #ff0000; stroke-width: 0.8"/>
      </g>
     </g>
     <g id="text_21">
      <!-- 0.5 -->
      <g style="fill: #ff0000" transform="translate(1043.8 302.194514) scale(0.1 -0.1)">
       <use xlink:href="#DejaVuSans-30"/>
       <use xlink:href="#DejaVuSans-2e" x="63.623047"/>
       <use xlink:href="#DejaVuSans-35" x="95.410156"/>
      </g>
     </g>
    </g>
    <g id="ytick_13">
     <g id="line2d_21">
      <g>
       <use xlink:href="#m402dc3d959" x="1036.8" y="243.489377" style="fill: #ff0000; stroke: #ff0000; stroke-width: 0.8"/>
      </g>
     </g>
     <g id="text_22">
      <!-- 0.6 -->
      <g style="fill: #ff0000" transform="translate(1043.8 247.288596) scale(0.1 -0.1)">
       <use xlink:href="#DejaVuSans-30"/>
       <use xlink:href="#DejaVuSans-2e" x="63.623047"/>
       <use xlink:href="#DejaVuSans-36" x="95.410156"/>
      </g>
     </g>
    </g>
    <g id="ytick_14">
     <g id="line2d_22">
      <g>
       <use xlink:href="#m402dc3d959" x="1036.8" y="188.583459" style="fill: #ff0000; stroke: #ff0000; stroke-width: 0.8"/>
      </g>
     </g>
     <g id="text_23">
      <!-- 0.7 -->
      <g style="fill: #ff0000" transform="translate(1043.8 192.382677) scale(0.1 -0.1)">
       <use xlink:href="#DejaVuSans-30"/>
       <use xlink:href="#DejaVuSans-2e" x="63.623047"/>
       <use xlink:href="#DejaVuSans-37" x="95.410156"/>
      </g>
     </g>
    </g>
    <g id="ytick_15">
     <g id="line2d_23">
      <g>
       <use xlink:href="#m402dc3d959" x="1036.8" y="133.67754" style="fill: #ff0000; stroke: #ff0000; stroke-width: 0.8"/>
      </g>
     </g>
     <g id="text_24">
      <!-- 0.8 -->
      <g style="fill: #ff0000" transform="translate(1043.8 137.476759) scale(0.1 -0.1)">
       <use xlink:href="#DejaVuSans-30"/>
       <use xlink:href="#DejaVuSans-2e" x="63.623047"/>
       <use xlink:href="#DejaVuSans-38" x="95.410156"/>
      </g>
     </g>
    </g>
    <g id="ytick_16">
     <g id="line2d_24">
      <g>
       <use xlink:href="#m402dc3d959" x="1036.8" y="78.771622" style="fill: #ff0000; stroke: #ff0000; stroke-width: 0.8"/>
      </g>
     </g>
     <g id="text_25">
      <!-- 0.9 -->
      <g style="fill: #ff0000" transform="translate(1043.8 82.57084) scale(0.1 -0.1)">
       <use xlink:href="#DejaVuSans-30"/>
       <use xlink:href="#DejaVuSans-2e" x="63.623047"/>
       <use xlink:href="#DejaVuSans-39" x="95.410156"/>
      </g>
     </g>
    </g>
    <g id="text_26">
     <!-- Indicator -->
     <g style="fill: #ff0000" transform="translate(1071.301563 312.975312) rotate(-90) scale(0.1 -0.1)">
      <defs>
       <path id="DejaVuSans-49" d="M 628 4666 
L 1259 4666 
L 1259 0 
L 628 0 
L 628 4666 
z
" transform="scale(0.015625)"/>
       <path id="DejaVuSans-6e" d="M 3513 2113 
L 3513 0 
L 2938 0 
L 2938 2094 
Q 2938 2591 2744 2837 
Q 2550 3084 2163 3084 
Q 1697 3084 1428 2787 
Q 1159 2491 1159 1978 
L 1159 0 
L 581 0 
L 581 3500 
L 1159 3500 
L 1159 2956 
Q 1366 3272 1645 3428 
Q 1925 3584 2291 3584 
Q 2894 3584 3203 3211 
Q 3513 2838 3513 2113 
z
" transform="scale(0.015625)"/>
       <path id="DejaVuSans-64" d="M 2906 2969 
L 2906 4863 
L 3481 4863 
L 3481 0 
L 2906 0 
L 2906 525 
Q 2725 213 2448 61 
Q 2172 -91 1784 -91 
Q 1150 -91 751 415 
Q 353 922 353 1747 
Q 353 2572 751 3078 
Q 1150 3584 1784 3584 
Q 2172 3584 2448 3432 
Q 2725 3281 2906 2969 
z
M 947 1747 
Q 947 1113 1208 752 
Q 1469 391 1925 391 
Q 2381 391 2643 752 
Q 2906 1113 2906 1747 
Q 2906 2381 2643 2742 
Q 2381 3103 1925 3103 
Q 1469 3103 1208 2742 
Q 947 2381 947 1747 
z
" transform="scale(0.015625)"/>
       <path id="DejaVuSans-6f" d="M 1959 3097 
Q 1497 3097 1228 2736 
Q 959 2375 959 1747 
Q 959 1119 1226 758 
Q 1494 397 1959 397 
Q 2419 397 2687 759 
Q 2956 1122 2956 1747 
Q 2956 2369 2687 2733 
Q 2419 3097 1959 3097 
z
M 1959 3584 
Q 2709 3584 3137 3096 
Q 3566 2609 3566 1747 
Q 3566 888 3137 398 
Q 2709 -91 1959 -91 
Q 1206 -91 779 398 
Q 353 888 353 1747 
Q 353 2609 779 3096 
Q 1206 3584 1959 3584 
z
" transform="scale(0.015625)"/>
      </defs>
      <use xlink:href="#DejaVuSans-49"/>
      <use xlink:href="#DejaVuSans-6e" x="29.492188"/>
      <use xlink:href="#DejaVuSans-64" x="92.871094"/>
      <use xlink:href="#DejaVuSans-69" x="156.347656"/>
      <use xlink:href="#DejaVuSans-63" x="184.130859"/>
      <use xlink:href="#DejaVuSans-61" x="239.111328"/>
      <use xlink:href="#DejaVuSans-74" x="300.390625"/>
      <use xlink:href="#DejaVuSans-6f" x="339.599609"/>
      <use xlink:href="#DejaVuSans-72" x="400.78125"/>
     </g>
    </g>
   </g>
   <g id="line2d_25">
    <path d="M 184.581818 97.22546 
L 186.799404 95.579836 
L 189.01699 93.545485 
L 197.887332 91.394231 
L 200.104918 90.456142 
L 202.322504 89.7055 
L 204.540089 89.451278 
L 215.628018 89.473387 
L 217.845604 89.28 
L 220.063189 89.641078 
L 226.715946 90.007546 
L 228.933532 90.999083 
L 233.368703 92.604133 
L 242.239046 93.367074 
L 246.674218 94.378655 
L 251.109389 96.007308 
L 257.762146 96.499662 
L 259.979732 97.080072 
L 262.197317 98.131376 
L 264.414903 98.803528 
L 266.632489 100.929015 
L 273.285246 104.080633 
L 275.502832 107.529058 
L 277.720417 109.914159 
L 279.938003 114.879784 
L 282.155589 119.38951 
L 288.808346 126.271329 
L 291.025931 131.715469 
L 293.243517 134.589637 
L 295.461103 136.765495 
L 297.678689 142.713409 
L 304.331446 148.64214 
L 306.549031 152.621662 
L 308.766617 157.149059 
L 313.201788 164.080638 
L 322.072131 167.980129 
L 324.289717 172.12721 
L 326.507303 178.534068 
L 328.724888 182.158603 
L 337.595231 187.829974 
L 339.812817 185.488301 
L 342.030402 182.275709 
L 344.247988 180.242774 
L 353.118331 179.091429 
L 355.335917 176.651241 
L 357.553502 178.423142 
L 359.771088 184.369156 
L 366.423845 189.467542 
L 368.641431 197.439585 
L 370.859016 212.436665 
L 373.076602 231.557719 
L 375.294188 244.983977 
L 381.946945 248.397483 
L 384.164531 255.100318 
L 388.599702 293.457274 
L 390.817288 326.811332 
L 399.68763 342.638913 
L 401.905216 359.282228 
L 404.122802 377.927122 
L 406.340387 389.785717 
L 412.993145 397.951976 
L 419.645902 425.513087 
L 421.863487 431.704955 
L 428.516244 435.991577 
L 432.951416 440.207565 
L 435.169001 442.871321 
L 437.386587 448.035682 
L 444.039344 454.211642 
L 446.25693 458.979619 
L 448.474516 463.392061 
L 450.692101 466.903382 
L 452.909687 470.738407 
L 459.562444 472.42624 
L 461.78003 473.403196 
L 463.997615 474.116213 
L 466.215201 474.09436 
L 468.432787 474.341285 
L 477.30313 474.130774 
L 479.520715 475.432829 
L 481.738301 475.57319 
L 483.955887 475.956473 
L 490.608644 476.554772 
L 492.82623 476.287766 
L 495.043815 474.737334 
L 497.261401 472.737049 
L 499.478987 469.437504 
L 506.131744 467.476535 
L 508.349329 465.947879 
L 510.566915 463.912024 
L 512.784501 461.575347 
L 515.002086 460.265956 
L 521.654844 458.990141 
L 526.090015 452.812611 
L 528.307601 449.770213 
L 530.525186 446.499407 
L 537.177943 443.600158 
L 539.395529 440.423152 
L 541.613115 436.538479 
L 543.8307 430.288943 
L 546.048286 425.830073 
L 552.701043 422.586452 
L 554.918629 420.150003 
L 557.136215 419.890489 
L 559.3538 420.794374 
L 561.571386 421.87552 
L 570.441729 421.664933 
L 572.659314 420.408505 
L 574.8769 417.754961 
L 577.094486 419.018067 
L 583.747243 417.97827 
L 585.964829 416.627302 
L 588.182414 417.643031 
L 590.4 424.592754 
L 592.617586 428.744409 
L 599.270343 434.318463 
L 601.487928 437.096435 
L 603.705514 438.467325 
L 605.9231 435.891569 
L 608.140686 433.593601 
L 614.793443 429.901889 
L 617.011028 421.770311 
L 619.228614 417.955974 
L 621.4462 416.69549 
L 623.663785 417.530913 
L 630.316542 416.831652 
L 632.534128 410.550463 
L 634.751714 406.451374 
L 636.9693 399.593565 
L 639.186885 398.877537 
L 645.839642 392.859757 
L 648.057228 386.639341 
L 650.274814 381.077044 
L 652.492399 370.80778 
L 654.709985 346.796083 
L 661.362742 327.303858 
L 663.580328 307.782538 
L 665.797914 283.253339 
L 668.015499 249.385306 
L 670.233085 217.666565 
L 676.885842 196.755984 
L 679.103428 184.345022 
L 681.321013 169.814937 
L 683.538599 156.2522 
L 685.756185 145.886585 
L 692.408942 139.184234 
L 694.626528 135.012241 
L 696.844113 133.336685 
L 699.061699 135.160638 
L 701.279285 137.491031 
L 708.024441 139.642325 
L 712.459613 149.214815 
L 714.677198 152.037892 
L 716.894784 157.008914 
L 723.547541 161.629315 
L 725.765127 171.98645 
L 727.982712 181.483208 
L 732.417884 202.235216 
L 739.070641 216.220114 
L 743.505812 243.368395 
L 747.940984 262.750842 
L 754.593741 296.086538 
L 759.028912 342.96191 
L 761.246498 369.693434 
L 763.464083 399.049951 
L 770.116841 420.515909 
L 772.334426 434.881638 
L 778.987183 462.459284 
L 785.63994 470.113489 
L 787.857526 475.866232 
L 790.075112 479.783679 
L 792.292697 482.420654 
L 794.510283 484.321756 
L 801.16304 485.582967 
L 803.380626 486.802908 
L 805.598212 487.376265 
L 807.815797 487.772639 
L 810.033383 488.866635 
L 818.903726 489.423224 
L 821.121311 490.494129 
L 825.556483 492.001934 
L 834.426826 492.48 
L 836.644411 492.378189 
L 838.861997 492.070691 
L 847.73234 491.971804 
L 849.949925 491.842337 
L 854.385097 491.950264 
L 856.602683 492.070691 
L 865.473025 491.673204 
L 867.690611 490.719222 
L 869.908197 490.244629 
L 872.125782 490.038997 
L 878.778539 489.937971 
L 880.996125 490.171671 
L 885.431297 489.4279 
L 887.648882 488.866635 
L 894.301639 488.188502 
L 896.519225 487.782485 
L 898.736811 486.747045 
L 903.171982 485.376941 
L 909.824739 485.376941 
L 912.042325 485.688124 
L 916.477496 485.897441 
L 925.347839 484.858902 
L 927.565425 482.97719 
L 929.78301 482.298967 
L 934.218182 482.252497 
L 943.088525 481.027852 
L 945.30611 479.639907 
L 947.523696 478.507187 
L 949.741282 477.815279 
L 956.394039 476.948303 
L 958.611624 476.452302 
L 960.82921 476.452302 
L 963.046796 477.391036 
L 965.264382 478.064847 
L 971.917139 477.940278 
L 974.134724 477.096477 
L 976.35231 475.761837 
L 980.787481 473.911761 
L 987.347839 472.449064 
L 989.565425 472.266066 
L 991.78301 471.928304 
L 994.000596 471.889736 
L 996.218182 471.478534 
L 996.218182 471.478534 
" clip-path="url(#p4cbb46c338)" style="fill: none; stroke: #ff0000; stroke-width: 1.5; stroke-linecap: square"/>
   </g>
   <g id="patch_7">
    <path d="M 144 512.64 
L 144 69.12 
" style="fill: none; stroke: #000000; stroke-width: 0.8; stroke-linejoin: miter; stroke-linecap: square"/>
   </g>
   <g id="patch_8">
    <path d="M 1036.8 512.64 
L 1036.8 69.12 
" style="fill: none; stroke: #000000; stroke-width: 0.8; stroke-linejoin: miter; stroke-linecap: square"/>
   </g>
   <g id="patch_9">
    <path d="M 144 512.64 
L 1036.8 512.64 
" style="fill: none; stroke: #000000; stroke-width: 0.8; stroke-linejoin: miter; stroke-linecap: square"/>
   </g>
   <g id="patch_10">
    <path d="M 144 69.12 
L 1036.8 69.12 
" style="fill: none; stroke: #000000; stroke-width: 0.8; stroke-linejoin: miter; stroke-linecap: square"/>
   </g>
   <g id="text_27">
    <!-- Price and Cumulative Probability Indicator - 1Y (Updated 2024-03-18 07:29:09) -->
    <g transform="translate(353.153437 63.12) scale(0.12 -0.12)">
     <defs>
      <path id="DejaVuSans-20" transform="scale(0.015625)"/>
      <path id="DejaVuSans-43" d="M 4122 4306 
L 4122 3641 
Q 3803 3938 3442 4084 
Q 3081 4231 2675 4231 
Q 1875 4231 1450 3742 
Q 1025 3253 1025 2328 
Q 1025 1406 1450 917 
Q 1875 428 2675 428 
Q 3081 428 3442 575 
Q 3803 722 4122 1019 
L 4122 359 
Q 3791 134 3420 21 
Q 3050 -91 2638 -91 
Q 1578 -91 968 557 
Q 359 1206 359 2328 
Q 359 3453 968 4101 
Q 1578 4750 2638 4750 
Q 3056 4750 3426 4639 
Q 3797 4528 4122 4306 
z
" transform="scale(0.015625)"/>
      <path id="DejaVuSans-75" d="M 544 1381 
L 544 3500 
L 1119 3500 
L 1119 1403 
Q 1119 906 1312 657 
Q 1506 409 1894 409 
Q 2359 409 2629 706 
Q 2900 1003 2900 1516 
L 2900 3500 
L 3475 3500 
L 3475 0 
L 2900 0 
L 2900 538 
Q 2691 219 2414 64 
Q 2138 -91 1772 -91 
Q 1169 -91 856 284 
Q 544 659 544 1381 
z
M 1991 3584 
L 1991 3584 
z
" transform="scale(0.015625)"/>
      <path id="DejaVuSans-6d" d="M 3328 2828 
Q 3544 3216 3844 3400 
Q 4144 3584 4550 3584 
Q 5097 3584 5394 3201 
Q 5691 2819 5691 2113 
L 5691 0 
L 5113 0 
L 5113 2094 
Q 5113 2597 4934 2840 
Q 4756 3084 4391 3084 
Q 3944 3084 3684 2787 
Q 3425 2491 3425 1978 
L 3425 0 
L 2847 0 
L 2847 2094 
Q 2847 2600 2669 2842 
Q 2491 3084 2119 3084 
Q 1678 3084 1418 2786 
Q 1159 2488 1159 1978 
L 1159 0 
L 581 0 
L 581 3500 
L 1159 3500 
L 1159 2956 
Q 1356 3278 1631 3431 
Q 1906 3584 2284 3584 
Q 2666 3584 2933 3390 
Q 3200 3197 3328 2828 
z
" transform="scale(0.015625)"/>
      <path id="DejaVuSans-6c" d="M 603 4863 
L 1178 4863 
L 1178 0 
L 603 0 
L 603 4863 
z
" transform="scale(0.015625)"/>
      <path id="DejaVuSans-76" d="M 191 3500 
L 800 3500 
L 1894 563 
L 2988 3500 
L 3597 3500 
L 2284 0 
L 1503 0 
L 191 3500 
z
" transform="scale(0.015625)"/>
      <path id="DejaVuSans-62" d="M 3116 1747 
Q 3116 2381 2855 2742 
Q 2594 3103 2138 3103 
Q 1681 3103 1420 2742 
Q 1159 2381 1159 1747 
Q 1159 1113 1420 752 
Q 1681 391 2138 391 
Q 2594 391 2855 752 
Q 3116 1113 3116 1747 
z
M 1159 2969 
Q 1341 3281 1617 3432 
Q 1894 3584 2278 3584 
Q 2916 3584 3314 3078 
Q 3713 2572 3713 1747 
Q 3713 922 3314 415 
Q 2916 -91 2278 -91 
Q 1894 -91 1617 61 
Q 1341 213 1159 525 
L 1159 0 
L 581 0 
L 581 4863 
L 1159 4863 
L 1159 2969 
z
" transform="scale(0.015625)"/>
      <path id="DejaVuSans-79" d="M 2059 -325 
Q 1816 -950 1584 -1140 
Q 1353 -1331 966 -1331 
L 506 -1331 
L 506 -850 
L 844 -850 
Q 1081 -850 1212 -737 
Q 1344 -625 1503 -206 
L 1606 56 
L 191 3500 
L 800 3500 
L 1894 763 
L 2988 3500 
L 3597 3500 
L 2059 -325 
z
" transform="scale(0.015625)"/>
      <path id="DejaVuSans-59" d="M -13 4666 
L 666 4666 
L 1959 2747 
L 3244 4666 
L 3922 4666 
L 2272 2222 
L 2272 0 
L 1638 0 
L 1638 2222 
L -13 4666 
z
" transform="scale(0.015625)"/>
      <path id="DejaVuSans-28" d="M 1984 4856 
Q 1566 4138 1362 3434 
Q 1159 2731 1159 2009 
Q 1159 1288 1364 580 
Q 1569 -128 1984 -844 
L 1484 -844 
Q 1016 -109 783 600 
Q 550 1309 550 2009 
Q 550 2706 781 3412 
Q 1013 4119 1484 4856 
L 1984 4856 
z
" transform="scale(0.015625)"/>
      <path id="DejaVuSans-55" d="M 556 4666 
L 1191 4666 
L 1191 1831 
Q 1191 1081 1462 751 
Q 1734 422 2344 422 
Q 2950 422 3222 751 
Q 3494 1081 3494 1831 
L 3494 4666 
L 4128 4666 
L 4128 1753 
Q 4128 841 3676 375 
Q 3225 -91 2344 -91 
Q 1459 -91 1007 375 
Q 556 841 556 1753 
L 556 4666 
z
" transform="scale(0.015625)"/>
      <path id="DejaVuSans-70" d="M 1159 525 
L 1159 -1331 
L 581 -1331 
L 581 3500 
L 1159 3500 
L 1159 2969 
Q 1341 3281 1617 3432 
Q 1894 3584 2278 3584 
Q 2916 3584 3314 3078 
Q 3713 2572 3713 1747 
Q 3713 922 3314 415 
Q 2916 -91 2278 -91 
Q 1894 -91 1617 61 
Q 1341 213 1159 525 
z
M 3116 1747 
Q 3116 2381 2855 2742 
Q 2594 3103 2138 3103 
Q 1681 3103 1420 2742 
Q 1159 2381 1159 1747 
Q 1159 1113 1420 752 
Q 1681 391 2138 391 
Q 2594 391 2855 752 
Q 3116 1113 3116 1747 
z
" transform="scale(0.015625)"/>
      <path id="DejaVuSans-3a" d="M 750 794 
L 1409 794 
L 1409 0 
L 750 0 
L 750 794 
z
M 750 3309 
L 1409 3309 
L 1409 2516 
L 750 2516 
L 750 3309 
z
" transform="scale(0.015625)"/>
      <path id="DejaVuSans-29" d="M 513 4856 
L 1013 4856 
Q 1481 4119 1714 3412 
Q 1947 2706 1947 2009 
Q 1947 1309 1714 600 
Q 1481 -109 1013 -844 
L 513 -844 
Q 928 -128 1133 580 
Q 1338 1288 1338 2009 
Q 1338 2731 1133 3434 
Q 928 4138 513 4856 
z
" transform="scale(0.015625)"/>
     </defs>
     <use xlink:href="#DejaVuSans-50"/>
     <use xlink:href="#DejaVuSans-72" x="58.552734"/>
     <use xlink:href="#DejaVuSans-69" x="99.666016"/>
     <use xlink:href="#DejaVuSans-63" x="127.449219"/>
     <use xlink:href="#DejaVuSans-65" x="182.429688"/>
     <use xlink:href="#DejaVuSans-20" x="243.953125"/>
     <use xlink:href="#DejaVuSans-61" x="275.740234"/>
     <use xlink:href="#DejaVuSans-6e" x="337.019531"/>
     <use xlink:href="#DejaVuSans-64" x="400.398438"/>
     <use xlink:href="#DejaVuSans-20" x="463.875"/>
     <use xlink:href="#DejaVuSans-43" x="495.662109"/>
     <use xlink:href="#DejaVuSans-75" x="565.486328"/>
     <use xlink:href="#DejaVuSans-6d" x="628.865234"/>
     <use xlink:href="#DejaVuSans-75" x="726.277344"/>
     <use xlink:href="#DejaVuSans-6c" x="789.65625"/>
     <use xlink:href="#DejaVuSans-61" x="817.439453"/>
     <use xlink:href="#DejaVuSans-74" x="878.71875"/>
     <use xlink:href="#DejaVuSans-69" x="917.927734"/>
     <use xlink:href="#DejaVuSans-76" x="945.710938"/>
     <use xlink:href="#DejaVuSans-65" x="1004.890625"/>
     <use xlink:href="#DejaVuSans-20" x="1066.414062"/>
     <use xlink:href="#DejaVuSans-50" x="1098.201172"/>
     <use xlink:href="#DejaVuSans-72" x="1156.753906"/>
     <use xlink:href="#DejaVuSans-6f" x="1195.617188"/>
     <use xlink:href="#DejaVuSans-62" x="1256.798828"/>
     <use xlink:href="#DejaVuSans-61" x="1320.275391"/>
     <use xlink:href="#DejaVuSans-62" x="1381.554688"/>
     <use xlink:href="#DejaVuSans-69" x="1445.03125"/>
     <use xlink:href="#DejaVuSans-6c" x="1472.814453"/>
     <use xlink:href="#DejaVuSans-69" x="1500.597656"/>
     <use xlink:href="#DejaVuSans-74" x="1528.380859"/>
     <use xlink:href="#DejaVuSans-79" x="1567.589844"/>
     <use xlink:href="#DejaVuSans-20" x="1626.769531"/>
     <use xlink:href="#DejaVuSans-49" x="1658.556641"/>
     <use xlink:href="#DejaVuSans-6e" x="1688.048828"/>
     <use xlink:href="#DejaVuSans-64" x="1751.427734"/>
     <use xlink:href="#DejaVuSans-69" x="1814.904297"/>
     <use xlink:href="#DejaVuSans-63" x="1842.6875"/>
     <use xlink:href="#DejaVuSans-61" x="1897.667969"/>
     <use xlink:href="#DejaVuSans-74" x="1958.947266"/>
     <use xlink:href="#DejaVuSans-6f" x="1998.15625"/>
     <use xlink:href="#DejaVuSans-72" x="2059.337891"/>
     <use xlink:href="#DejaVuSans-20" x="2100.451172"/>
     <use xlink:href="#DejaVuSans-2d" x="2132.238281"/>
     <use xlink:href="#DejaVuSans-20" x="2168.322266"/>
     <use xlink:href="#DejaVuSans-31" x="2200.109375"/>
     <use xlink:href="#DejaVuSans-59" x="2263.732422"/>
     <use xlink:href="#DejaVuSans-20" x="2324.816406"/>
     <use xlink:href="#DejaVuSans-28" x="2356.603516"/>
     <use xlink:href="#DejaVuSans-55" x="2395.617188"/>
     <use xlink:href="#DejaVuSans-70" x="2468.810547"/>
     <use xlink:href="#DejaVuSans-64" x="2532.287109"/>
     <use xlink:href="#DejaVuSans-61" x="2595.763672"/>
     <use xlink:href="#DejaVuSans-74" x="2657.042969"/>
     <use xlink:href="#DejaVuSans-65" x="2696.251953"/>
     <use xlink:href="#DejaVuSans-64" x="2757.775391"/>
     <use xlink:href="#DejaVuSans-20" x="2821.251953"/>
     <use xlink:href="#DejaVuSans-32" x="2853.039062"/>
     <use xlink:href="#DejaVuSans-30" x="2916.662109"/>
     <use xlink:href="#DejaVuSans-32" x="2980.285156"/>
     <use xlink:href="#DejaVuSans-34" x="3043.908203"/>
     <use xlink:href="#DejaVuSans-2d" x="3107.53125"/>
     <use xlink:href="#DejaVuSans-30" x="3143.615234"/>
     <use xlink:href="#DejaVuSans-33" x="3207.238281"/>
     <use xlink:href="#DejaVuSans-2d" x="3270.861328"/>
     <use xlink:href="#DejaVuSans-31" x="3306.945312"/>
     <use xlink:href="#DejaVuSans-38" x="3370.568359"/>
     <use xlink:href="#DejaVuSans-20" x="3434.191406"/>
     <use xlink:href="#DejaVuSans-30" x="3465.978516"/>
     <use xlink:href="#DejaVuSans-37" x="3529.601562"/>
     <use xlink:href="#DejaVuSans-3a" x="3593.224609"/>
     <use xlink:href="#DejaVuSans-32" x="3626.916016"/>
     <use xlink:href="#DejaVuSans-39" x="3690.539062"/>
     <use xlink:href="#DejaVuSans-3a" x="3754.162109"/>
     <use xlink:href="#DejaVuSans-30" x="3787.853516"/>
     <use xlink:href="#DejaVuSans-39" x="3851.476562"/>
     <use xlink:href="#DejaVuSans-29" x="3915.099609"/>
    </g>
   </g>
  </g>
  <g id="legend_1">
   <g id="patch_11">
    <path d="M 7 37.35625 
L 83.190625 37.35625 
Q 85.190625 37.35625 85.190625 35.35625 
L 85.190625 7 
Q 85.190625 5 83.190625 5 
L 7 5 
Q 5 5 5 7 
L 5 35.35625 
Q 5 37.35625 7 37.35625 
z
" style="fill: #ffffff; opacity: 0.8; stroke: #cccccc; stroke-linejoin: miter"/>
   </g>
   <g id="line2d_26">
    <path d="M 9 13.098438 
L 19 13.098438 
L 29 13.098438 
" style="fill: none; stroke: #0000ff; stroke-width: 1.5; stroke-linecap: square"/>
   </g>
   <g id="text_28">
    <!-- Price -->
    <g transform="translate(37 16.598438) scale(0.1 -0.1)">
     <use xlink:href="#DejaVuSans-50"/>
     <use xlink:href="#DejaVuSans-72" x="58.552734"/>
     <use xlink:href="#DejaVuSans-69" x="99.666016"/>
     <use xlink:href="#DejaVuSans-63" x="127.449219"/>
     <use xlink:href="#DejaVuSans-65" x="182.429688"/>
    </g>
   </g>
   <g id="line2d_27">
    <path d="M 9 27.776563 
L 19 27.776563 
L 29 27.776563 
" style="fill: none; stroke: #ff0000; stroke-width: 1.5; stroke-linecap: square"/>
   </g>
   <g id="text_29">
    <!-- Indicator -->
    <g transform="translate(37 31.276563) scale(0.1 -0.1)">
     <use xlink:href="#DejaVuSans-49"/>
     <use xlink:href="#DejaVuSans-6e" x="29.492188"/>
     <use xlink:href="#DejaVuSans-64" x="92.871094"/>
     <use xlink:href="#DejaVuSans-69" x="156.347656"/>
     <use xlink:href="#DejaVuSans-63" x="184.130859"/>
     <use xlink:href="#DejaVuSans-61" x="239.111328"/>
     <use xlink:href="#DejaVuSans-74" x="300.390625"/>
     <use xlink:href="#DejaVuSans-6f" x="339.599609"/>
     <use xlink:href="#DejaVuSans-72" x="400.78125"/>
    </g>
   </g>
  </g>
 </g>
 <defs>
  <clipPath id="p4cbb46c338">
   <rect x="144" y="69.12" width="892.8" height="443.52"/>
  </clipPath>
 </defs>
</svg>
