<?xml version="1.0" encoding="utf-8" standalone="no"?>
<!DOCTYPE svg PUBLIC "-//W3C//DTD SVG 1.1//EN"
  "http://www.w3.org/Graphics/SVG/1.1/DTD/svg11.dtd">
<svg xmlns:xlink="http://www.w3.org/1999/xlink" width="1296pt" height="288pt" viewBox="0 0 1296 288" xmlns="http://www.w3.org/2000/svg" version="1.1">
 <metadata>
  <rdf:RDF xmlns:dc="http://purl.org/dc/elements/1.1/" xmlns:cc="http://creativecommons.org/ns#" xmlns:rdf="http://www.w3.org/1999/02/22-rdf-syntax-ns#">
   <cc:Work>
    <dc:type rdf:resource="http://purl.org/dc/dcmitype/StillImage"/>
    <dc:date>2024-03-19T08:24:17.870550</dc:date>
    <dc:format>image/svg+xml</dc:format>
    <dc:creator>
     <cc:Agent>
      <dc:title>Matplotlib v3.8.0, https://matplotlib.org/</dc:title>
     </cc:Agent>
    </dc:creator>
   </cc:Work>
  </rdf:RDF>
 </metadata>
 <defs>
  <style type="text/css">*{stroke-linejoin: round; stroke-linecap: butt}</style>
 </defs>
 <g id="figure_1">
  <g id="patch_1">
   <path d="M 0 288 
L 1296 288 
L 1296 0 
L 0 0 
z
" style="fill: #ffffff"/>
  </g>
  <g id="axes_1">
   <g id="patch_2">
    <path d="M 162 256.32 
L 1166.4 256.32 
L 1166.4 34.56 
L 162 34.56 
z
" style="fill: #ffffff"/>
   </g>
   <g id="matplotlib.axis_1">
    <g id="xtick_1">
     <g id="line2d_1">
      <defs>
       <path id="m7ef8551f05" d="M 0 0 
L 0 3.5 
" style="stroke: #000000; stroke-width: 0.8"/>
      </defs>
      <g>
       <use xlink:href="#m7ef8551f05" x="243.478368" y="256.32" style="stroke: #000000; stroke-width: 0.8"/>
      </g>
     </g>
     <g id="text_1">
      <!-- 2021-05 -->
      <g transform="translate(222.586961 270.918437) scale(0.1 -0.1)">
       <defs>
        <path id="DejaVuSans-32" d="M 1228 531 
L 3431 531 
L 3431 0 
L 469 0 
L 469 531 
Q 828 903 1448 1529 
Q 2069 2156 2228 2338 
Q 2531 2678 2651 2914 
Q 2772 3150 2772 3378 
Q 2772 3750 2511 3984 
Q 2250 4219 1831 4219 
Q 1534 4219 1204 4116 
Q 875 4013 500 3803 
L 500 4441 
Q 881 4594 1212 4672 
Q 1544 4750 1819 4750 
Q 2544 4750 2975 4387 
Q 3406 4025 3406 3419 
Q 3406 3131 3298 2873 
Q 3191 2616 2906 2266 
Q 2828 2175 2409 1742 
Q 1991 1309 1228 531 
z
" transform="scale(0.015625)"/>
        <path id="DejaVuSans-30" d="M 2034 4250 
Q 1547 4250 1301 3770 
Q 1056 3291 1056 2328 
Q 1056 1369 1301 889 
Q 1547 409 2034 409 
Q 2525 409 2770 889 
Q 3016 1369 3016 2328 
Q 3016 3291 2770 3770 
Q 2525 4250 2034 4250 
z
M 2034 4750 
Q 2819 4750 3233 4129 
Q 3647 3509 3647 2328 
Q 3647 1150 3233 529 
Q 2819 -91 2034 -91 
Q 1250 -91 836 529 
Q 422 1150 422 2328 
Q 422 3509 836 4129 
Q 1250 4750 2034 4750 
z
" transform="scale(0.015625)"/>
        <path id="DejaVuSans-31" d="M 794 531 
L 1825 531 
L 1825 4091 
L 703 3866 
L 703 4441 
L 1819 4666 
L 2450 4666 
L 2450 531 
L 3481 531 
L 3481 0 
L 794 0 
L 794 531 
z
" transform="scale(0.015625)"/>
        <path id="DejaVuSans-2d" d="M 313 2009 
L 1997 2009 
L 1997 1497 
L 313 1497 
L 313 2009 
z
" transform="scale(0.015625)"/>
        <path id="DejaVuSans-35" d="M 691 4666 
L 3169 4666 
L 3169 4134 
L 1269 4134 
L 1269 2991 
Q 1406 3038 1543 3061 
Q 1681 3084 1819 3084 
Q 2600 3084 3056 2656 
Q 3513 2228 3513 1497 
Q 3513 744 3044 326 
Q 2575 -91 1722 -91 
Q 1428 -91 1123 -41 
Q 819 9 494 109 
L 494 744 
Q 775 591 1075 516 
Q 1375 441 1709 441 
Q 2250 441 2565 725 
Q 2881 1009 2881 1497 
Q 2881 1984 2565 2268 
Q 2250 2553 1709 2553 
Q 1456 2553 1204 2497 
Q 953 2441 691 2322 
L 691 4666 
z
" transform="scale(0.015625)"/>
       </defs>
       <use xlink:href="#DejaVuSans-32"/>
       <use xlink:href="#DejaVuSans-30" x="63.623047"/>
       <use xlink:href="#DejaVuSans-32" x="127.246094"/>
       <use xlink:href="#DejaVuSans-31" x="190.869141"/>
       <use xlink:href="#DejaVuSans-2d" x="254.492188"/>
       <use xlink:href="#DejaVuSans-30" x="290.576172"/>
       <use xlink:href="#DejaVuSans-35" x="354.199219"/>
      </g>
     </g>
    </g>
    <g id="xtick_2">
     <g id="line2d_2">
      <g>
       <use xlink:href="#m7ef8551f05" x="345.951161" y="256.32" style="stroke: #000000; stroke-width: 0.8"/>
      </g>
     </g>
     <g id="text_2">
      <!-- 2021-09 -->
      <g transform="translate(325.059755 270.918437) scale(0.1 -0.1)">
       <defs>
        <path id="DejaVuSans-39" d="M 703 97 
L 703 672 
Q 941 559 1184 500 
Q 1428 441 1663 441 
Q 2288 441 2617 861 
Q 2947 1281 2994 2138 
Q 2813 1869 2534 1725 
Q 2256 1581 1919 1581 
Q 1219 1581 811 2004 
Q 403 2428 403 3163 
Q 403 3881 828 4315 
Q 1253 4750 1959 4750 
Q 2769 4750 3195 4129 
Q 3622 3509 3622 2328 
Q 3622 1225 3098 567 
Q 2575 -91 1691 -91 
Q 1453 -91 1209 -44 
Q 966 3 703 97 
z
M 1959 2075 
Q 2384 2075 2632 2365 
Q 2881 2656 2881 3163 
Q 2881 3666 2632 3958 
Q 2384 4250 1959 4250 
Q 1534 4250 1286 3958 
Q 1038 3666 1038 3163 
Q 1038 2656 1286 2365 
Q 1534 2075 1959 2075 
z
" transform="scale(0.015625)"/>
       </defs>
       <use xlink:href="#DejaVuSans-32"/>
       <use xlink:href="#DejaVuSans-30" x="63.623047"/>
       <use xlink:href="#DejaVuSans-32" x="127.246094"/>
       <use xlink:href="#DejaVuSans-31" x="190.869141"/>
       <use xlink:href="#DejaVuSans-2d" x="254.492188"/>
       <use xlink:href="#DejaVuSans-30" x="290.576172"/>
       <use xlink:href="#DejaVuSans-39" x="354.199219"/>
      </g>
     </g>
    </g>
    <g id="xtick_3">
     <g id="line2d_3">
      <g>
       <use xlink:href="#m7ef8551f05" x="447.625556" y="256.32" style="stroke: #000000; stroke-width: 0.8"/>
      </g>
     </g>
     <g id="text_3">
      <!-- 2022-01 -->
      <g transform="translate(426.734149 270.918437) scale(0.1 -0.1)">
       <use xlink:href="#DejaVuSans-32"/>
       <use xlink:href="#DejaVuSans-30" x="63.623047"/>
       <use xlink:href="#DejaVuSans-32" x="127.246094"/>
       <use xlink:href="#DejaVuSans-32" x="190.869141"/>
       <use xlink:href="#DejaVuSans-2d" x="254.492188"/>
       <use xlink:href="#DejaVuSans-30" x="290.576172"/>
       <use xlink:href="#DejaVuSans-31" x="354.199219"/>
      </g>
     </g>
    </g>
    <g id="xtick_4">
     <g id="line2d_4">
      <g>
       <use xlink:href="#m7ef8551f05" x="547.5643" y="256.32" style="stroke: #000000; stroke-width: 0.8"/>
      </g>
     </g>
     <g id="text_4">
      <!-- 2022-05 -->
      <g transform="translate(526.672894 270.918437) scale(0.1 -0.1)">
       <use xlink:href="#DejaVuSans-32"/>
       <use xlink:href="#DejaVuSans-30" x="63.623047"/>
       <use xlink:href="#DejaVuSans-32" x="127.246094"/>
       <use xlink:href="#DejaVuSans-32" x="190.869141"/>
       <use xlink:href="#DejaVuSans-2d" x="254.492188"/>
       <use xlink:href="#DejaVuSans-30" x="290.576172"/>
       <use xlink:href="#DejaVuSans-35" x="354.199219"/>
      </g>
     </g>
    </g>
    <g id="xtick_5">
     <g id="line2d_5">
      <g>
       <use xlink:href="#m7ef8551f05" x="650.037094" y="256.32" style="stroke: #000000; stroke-width: 0.8"/>
      </g>
     </g>
     <g id="text_5">
      <!-- 2022-09 -->
      <g transform="translate(629.145687 270.918437) scale(0.1 -0.1)">
       <use xlink:href="#DejaVuSans-32"/>
       <use xlink:href="#DejaVuSans-30" x="63.623047"/>
       <use xlink:href="#DejaVuSans-32" x="127.246094"/>
       <use xlink:href="#DejaVuSans-32" x="190.869141"/>
       <use xlink:href="#DejaVuSans-2d" x="254.492188"/>
       <use xlink:href="#DejaVuSans-30" x="290.576172"/>
       <use xlink:href="#DejaVuSans-39" x="354.199219"/>
      </g>
     </g>
    </g>
    <g id="xtick_6">
     <g id="line2d_6">
      <g>
       <use xlink:href="#m7ef8551f05" x="751.711488" y="256.32" style="stroke: #000000; stroke-width: 0.8"/>
      </g>
     </g>
     <g id="text_6">
      <!-- 2023-01 -->
      <g transform="translate(730.820082 270.918437) scale(0.1 -0.1)">
       <defs>
        <path id="DejaVuSans-33" d="M 2597 2516 
Q 3050 2419 3304 2112 
Q 3559 1806 3559 1356 
Q 3559 666 3084 287 
Q 2609 -91 1734 -91 
Q 1441 -91 1130 -33 
Q 819 25 488 141 
L 488 750 
Q 750 597 1062 519 
Q 1375 441 1716 441 
Q 2309 441 2620 675 
Q 2931 909 2931 1356 
Q 2931 1769 2642 2001 
Q 2353 2234 1838 2234 
L 1294 2234 
L 1294 2753 
L 1863 2753 
Q 2328 2753 2575 2939 
Q 2822 3125 2822 3475 
Q 2822 3834 2567 4026 
Q 2313 4219 1838 4219 
Q 1578 4219 1281 4162 
Q 984 4106 628 3988 
L 628 4550 
Q 988 4650 1302 4700 
Q 1616 4750 1894 4750 
Q 2613 4750 3031 4423 
Q 3450 4097 3450 3541 
Q 3450 3153 3228 2886 
Q 3006 2619 2597 2516 
z
" transform="scale(0.015625)"/>
       </defs>
       <use xlink:href="#DejaVuSans-32"/>
       <use xlink:href="#DejaVuSans-30" x="63.623047"/>
       <use xlink:href="#DejaVuSans-32" x="127.246094"/>
       <use xlink:href="#DejaVuSans-33" x="190.869141"/>
       <use xlink:href="#DejaVuSans-2d" x="254.492188"/>
       <use xlink:href="#DejaVuSans-30" x="290.576172"/>
       <use xlink:href="#DejaVuSans-31" x="354.199219"/>
      </g>
     </g>
    </g>
    <g id="xtick_7">
     <g id="line2d_7">
      <g>
       <use xlink:href="#m7ef8551f05" x="851.650232" y="256.32" style="stroke: #000000; stroke-width: 0.8"/>
      </g>
     </g>
     <g id="text_7">
      <!-- 2023-05 -->
      <g transform="translate(830.758826 270.918437) scale(0.1 -0.1)">
       <use xlink:href="#DejaVuSans-32"/>
       <use xlink:href="#DejaVuSans-30" x="63.623047"/>
       <use xlink:href="#DejaVuSans-32" x="127.246094"/>
       <use xlink:href="#DejaVuSans-33" x="190.869141"/>
       <use xlink:href="#DejaVuSans-2d" x="254.492188"/>
       <use xlink:href="#DejaVuSans-30" x="290.576172"/>
       <use xlink:href="#DejaVuSans-35" x="354.199219"/>
      </g>
     </g>
    </g>
    <g id="xtick_8">
     <g id="line2d_8">
      <g>
       <use xlink:href="#m7ef8551f05" x="954.123026" y="256.32" style="stroke: #000000; stroke-width: 0.8"/>
      </g>
     </g>
     <g id="text_8">
      <!-- 2023-09 -->
      <g transform="translate(933.23162 270.918437) scale(0.1 -0.1)">
       <use xlink:href="#DejaVuSans-32"/>
       <use xlink:href="#DejaVuSans-30" x="63.623047"/>
       <use xlink:href="#DejaVuSans-32" x="127.246094"/>
       <use xlink:href="#DejaVuSans-33" x="190.869141"/>
       <use xlink:href="#DejaVuSans-2d" x="254.492188"/>
       <use xlink:href="#DejaVuSans-30" x="290.576172"/>
       <use xlink:href="#DejaVuSans-39" x="354.199219"/>
      </g>
     </g>
    </g>
    <g id="xtick_9">
     <g id="line2d_9">
      <g>
       <use xlink:href="#m7ef8551f05" x="1055.79742" y="256.32" style="stroke: #000000; stroke-width: 0.8"/>
      </g>
     </g>
     <g id="text_9">
      <!-- 2024-01 -->
      <g transform="translate(1034.906014 270.918437) scale(0.1 -0.1)">
       <defs>
        <path id="DejaVuSans-34" d="M 2419 4116 
L 825 1625 
L 2419 1625 
L 2419 4116 
z
M 2253 4666 
L 3047 4666 
L 3047 1625 
L 3713 1625 
L 3713 1100 
L 3047 1100 
L 3047 0 
L 2419 0 
L 2419 1100 
L 313 1100 
L 313 1709 
L 2253 4666 
z
" transform="scale(0.015625)"/>
       </defs>
       <use xlink:href="#DejaVuSans-32"/>
       <use xlink:href="#DejaVuSans-30" x="63.623047"/>
       <use xlink:href="#DejaVuSans-32" x="127.246094"/>
       <use xlink:href="#DejaVuSans-34" x="190.869141"/>
       <use xlink:href="#DejaVuSans-2d" x="254.492188"/>
       <use xlink:href="#DejaVuSans-30" x="290.576172"/>
       <use xlink:href="#DejaVuSans-31" x="354.199219"/>
      </g>
     </g>
    </g>
    <g id="xtick_10">
     <g id="line2d_10">
      <g>
       <use xlink:href="#m7ef8551f05" x="1156.569277" y="256.32" style="stroke: #000000; stroke-width: 0.8"/>
      </g>
     </g>
     <g id="text_10">
      <!-- 2024-05 -->
      <g transform="translate(1135.67787 270.918437) scale(0.1 -0.1)">
       <use xlink:href="#DejaVuSans-32"/>
       <use xlink:href="#DejaVuSans-30" x="63.623047"/>
       <use xlink:href="#DejaVuSans-32" x="127.246094"/>
       <use xlink:href="#DejaVuSans-34" x="190.869141"/>
       <use xlink:href="#DejaVuSans-2d" x="254.492188"/>
       <use xlink:href="#DejaVuSans-30" x="290.576172"/>
       <use xlink:href="#DejaVuSans-35" x="354.199219"/>
      </g>
     </g>
    </g>
    <g id="text_11">
     <!-- Date -->
     <g transform="translate(652.249219 284.596563) scale(0.1 -0.1)">
      <defs>
       <path id="DejaVuSans-44" d="M 1259 4147 
L 1259 519 
L 2022 519 
Q 2988 519 3436 956 
Q 3884 1394 3884 2338 
Q 3884 3275 3436 3711 
Q 2988 4147 2022 4147 
L 1259 4147 
z
M 628 4666 
L 1925 4666 
Q 3281 4666 3915 4102 
Q 4550 3538 4550 2338 
Q 4550 1131 3912 565 
Q 3275 0 1925 0 
L 628 0 
L 628 4666 
z
" transform="scale(0.015625)"/>
       <path id="DejaVuSans-61" d="M 2194 1759 
Q 1497 1759 1228 1600 
Q 959 1441 959 1056 
Q 959 750 1161 570 
Q 1363 391 1709 391 
Q 2188 391 2477 730 
Q 2766 1069 2766 1631 
L 2766 1759 
L 2194 1759 
z
M 3341 1997 
L 3341 0 
L 2766 0 
L 2766 531 
Q 2569 213 2275 61 
Q 1981 -91 1556 -91 
Q 1019 -91 701 211 
Q 384 513 384 1019 
Q 384 1609 779 1909 
Q 1175 2209 1959 2209 
L 2766 2209 
L 2766 2266 
Q 2766 2663 2505 2880 
Q 2244 3097 1772 3097 
Q 1472 3097 1187 3025 
Q 903 2953 641 2809 
L 641 3341 
Q 956 3463 1253 3523 
Q 1550 3584 1831 3584 
Q 2591 3584 2966 3190 
Q 3341 2797 3341 1997 
z
" transform="scale(0.015625)"/>
       <path id="DejaVuSans-74" d="M 1172 4494 
L 1172 3500 
L 2356 3500 
L 2356 3053 
L 1172 3053 
L 1172 1153 
Q 1172 725 1289 603 
Q 1406 481 1766 481 
L 2356 481 
L 2356 0 
L 1766 0 
Q 1100 0 847 248 
Q 594 497 594 1153 
L 594 3053 
L 172 3053 
L 172 3500 
L 594 3500 
L 594 4494 
L 1172 4494 
z
" transform="scale(0.015625)"/>
       <path id="DejaVuSans-65" d="M 3597 1894 
L 3597 1613 
L 953 1613 
Q 991 1019 1311 708 
Q 1631 397 2203 397 
Q 2534 397 2845 478 
Q 3156 559 3463 722 
L 3463 178 
Q 3153 47 2828 -22 
Q 2503 -91 2169 -91 
Q 1331 -91 842 396 
Q 353 884 353 1716 
Q 353 2575 817 3079 
Q 1281 3584 2069 3584 
Q 2775 3584 3186 3129 
Q 3597 2675 3597 1894 
z
M 3022 2063 
Q 3016 2534 2758 2815 
Q 2500 3097 2075 3097 
Q 1594 3097 1305 2825 
Q 1016 2553 972 2059 
L 3022 2063 
z
" transform="scale(0.015625)"/>
      </defs>
      <use xlink:href="#DejaVuSans-44"/>
      <use xlink:href="#DejaVuSans-61" x="77.001953"/>
      <use xlink:href="#DejaVuSans-74" x="138.28125"/>
      <use xlink:href="#DejaVuSans-65" x="177.490234"/>
     </g>
    </g>
   </g>
   <g id="matplotlib.axis_2">
    <g id="ytick_1">
     <g id="line2d_11">
      <defs>
       <path id="md1b55f7996" d="M 0 0 
L -3.5 0 
" style="stroke: #0000ff; stroke-width: 0.8"/>
      </defs>
      <g>
       <use xlink:href="#md1b55f7996" x="162" y="222.011615" style="fill: #0000ff; stroke: #0000ff; stroke-width: 0.8"/>
      </g>
     </g>
     <g id="text_12">
      <!-- 15 -->
      <g style="fill: #0000ff" transform="translate(142.275 225.810833) scale(0.1 -0.1)">
       <use xlink:href="#DejaVuSans-31"/>
       <use xlink:href="#DejaVuSans-35" x="63.623047"/>
      </g>
     </g>
    </g>
    <g id="ytick_2">
     <g id="line2d_12">
      <g>
       <use xlink:href="#md1b55f7996" x="162" y="180.666251" style="fill: #0000ff; stroke: #0000ff; stroke-width: 0.8"/>
      </g>
     </g>
     <g id="text_13">
      <!-- 20 -->
      <g style="fill: #0000ff" transform="translate(142.275 184.46547) scale(0.1 -0.1)">
       <use xlink:href="#DejaVuSans-32"/>
       <use xlink:href="#DejaVuSans-30" x="63.623047"/>
      </g>
     </g>
    </g>
    <g id="ytick_3">
     <g id="line2d_13">
      <g>
       <use xlink:href="#md1b55f7996" x="162" y="139.320888" style="fill: #0000ff; stroke: #0000ff; stroke-width: 0.8"/>
      </g>
     </g>
     <g id="text_14">
      <!-- 25 -->
      <g style="fill: #0000ff" transform="translate(142.275 143.120107) scale(0.1 -0.1)">
       <use xlink:href="#DejaVuSans-32"/>
       <use xlink:href="#DejaVuSans-35" x="63.623047"/>
      </g>
     </g>
    </g>
    <g id="ytick_4">
     <g id="line2d_14">
      <g>
       <use xlink:href="#md1b55f7996" x="162" y="97.975525" style="fill: #0000ff; stroke: #0000ff; stroke-width: 0.8"/>
      </g>
     </g>
     <g id="text_15">
      <!-- 30 -->
      <g style="fill: #0000ff" transform="translate(142.275 101.774744) scale(0.1 -0.1)">
       <use xlink:href="#DejaVuSans-33"/>
       <use xlink:href="#DejaVuSans-30" x="63.623047"/>
      </g>
     </g>
    </g>
    <g id="ytick_5">
     <g id="line2d_15">
      <g>
       <use xlink:href="#md1b55f7996" x="162" y="56.630162" style="fill: #0000ff; stroke: #0000ff; stroke-width: 0.8"/>
      </g>
     </g>
     <g id="text_16">
      <!-- 35 -->
      <g style="fill: #0000ff" transform="translate(142.275 60.42938) scale(0.1 -0.1)">
       <use xlink:href="#DejaVuSans-33"/>
       <use xlink:href="#DejaVuSans-35" x="63.623047"/>
      </g>
     </g>
    </g>
    <g id="text_17">
     <!-- VIX -->
     <g style="fill: #0000ff" transform="translate(136.195312 153.760312) rotate(-90) scale(0.1 -0.1)">
      <defs>
       <path id="DejaVuSans-56" d="M 1831 0 
L 50 4666 
L 709 4666 
L 2188 738 
L 3669 4666 
L 4325 4666 
L 2547 0 
L 1831 0 
z
" transform="scale(0.015625)"/>
       <path id="DejaVuSans-49" d="M 628 4666 
L 1259 4666 
L 1259 0 
L 628 0 
L 628 4666 
z
" transform="scale(0.015625)"/>
       <path id="DejaVuSans-58" d="M 403 4666 
L 1081 4666 
L 2241 2931 
L 3406 4666 
L 4084 4666 
L 2584 2425 
L 4184 0 
L 3506 0 
L 2194 1984 
L 872 0 
L 191 0 
L 1856 2491 
L 403 4666 
z
" transform="scale(0.015625)"/>
      </defs>
      <use xlink:href="#DejaVuSans-56"/>
      <use xlink:href="#DejaVuSans-49" x="68.408203"/>
      <use xlink:href="#DejaVuSans-58" x="97.900391"/>
     </g>
    </g>
   </g>
   <g id="line2d_16">
    <path d="M 207.654545 172.810626 
L 210.153882 189.92762 
L 210.986994 178.185536 
L 211.820106 170.743358 
L 212.653218 182.23738 
L 213.48633 190.092989 
L 215.985667 174.54714 
L 216.818779 183.891185 
L 217.651891 185.627698 
L 218.485003 202.744676 
L 221.817452 197.948614 
L 222.650564 196.212101 
L 223.483676 204.150419 
L 224.316788 205.886917 
L 225.1499 208.036877 
L 227.649237 206.217687 
L 228.482349 208.367648 
L 229.315461 205.556162 
L 230.148573 209.029173 
L 230.981685 211.675274 
L 233.481022 203.075431 
L 234.314134 191.581425 
L 235.147246 201.338933 
L 235.980358 191.333363 
L 236.81347 202.744676 
L 239.312807 200.181268 
L 240.145919 200.842793 
L 240.979031 203.158123 
L 241.812143 200.42933 
L 242.645255 192.160257 
L 245.144592 194.640989 
L 245.977704 184.966173 
L 246.810816 187.694966 
L 247.643928 193.979463 
L 248.47704 208.036877 
L 250.976377 183.477737 
L 251.809489 165.451156 
L 252.642601 117.903989 
L 254.308825 190.506452 
L 256.808162 182.981597 
L 257.641274 169.585693 
L 258.474386 162.63967 
L 259.307498 175.125972 
L 260.14061 179.425894 
L 262.639947 193.896771 
L 263.473059 190.258374 
L 264.306171 202.496598 
L 265.139283 207.62343 
L 265.972395 207.458045 
L 269.304844 198.031307 
L 270.137956 201.504318 
L 270.971068 196.873626 
L 271.80418 210.269531 
L 274.303517 210.269531 
L 275.136629 204.894637 
L 275.969741 198.114 
L 276.802853 212.915632 
L 277.635965 216.636721 
L 280.135302 210.517609 
L 280.968414 205.308084 
L 281.801526 195.964039 
L 282.634638 199.271665 
L 283.46775 174.877894 
L 285.967087 198.114 
L 286.800199 208.284955 
L 289.299536 216.884791 
L 291.798872 215.727118 
L 292.631984 213.577157 
L 293.465096 215.148285 
L 294.298208 218.042464 
L 295.131321 221.432782 
L 298.463769 210.104146 
L 299.296881 212.088721 
L 300.129993 188.935324 
L 300.963106 212.254106 
L 303.462442 212.336799 
L 304.295554 204.481174 
L 305.128666 211.013749 
L 305.961778 205.390777 
L 306.794891 193.483308 
L 309.294227 159.99357 
L 310.127339 182.898905 
L 310.960451 197.948614 
L 311.793563 199.767805 
L 312.626676 203.819648 
L 315.126012 200.677408 
L 315.959124 185.958453 
L 316.792236 194.640989 
L 317.625348 199.685112 
L 318.458461 195.219821 
L 320.957797 185.131558 
L 321.790909 196.873626 
L 322.624021 197.452475 
L 323.457133 203.158123 
L 324.290246 212.502184 
L 326.789582 207.788815 
L 327.622694 207.209967 
L 329.288918 217.13286 
L 330.122031 218.290534 
L 332.621367 212.750246 
L 333.454479 197.948614 
L 334.287591 167.68381 
L 335.120703 166.856899 
L 335.953816 192.57372 
L 338.453152 204.233112 
L 339.286264 203.654279 
L 340.119376 207.209967 
L 340.952488 190.258374 
L 341.785601 210.517609 
L 344.284937 212.171414 
L 345.118049 209.773391 
L 345.951161 212.832939 
L 346.784273 210.352223 
L 347.617386 210.352223 
L 350.949834 196.046732 
L 351.782946 197.535167 
L 352.616058 190.589145 
L 353.449171 172.810626 
L 355.948507 185.87576 
L 356.781619 185.131558 
L 357.614731 195.715961 
L 358.447843 191.498732 
L 359.280956 173.968307 
L 361.780292 133.449854 
L 362.613404 144.61309 
L 363.446516 173.472151 
L 364.279628 191.994888 
L 365.112741 199.271665 
L 367.612077 190.9199 
L 368.445189 153.791765 
L 369.278301 159.49743 
L 370.111413 154.701368 
L 370.944526 171.570268 
L 373.443862 156.189804 
L 374.276974 169.916463 
L 375.110086 172.397179 
L 375.943198 184.470017 
L 376.776311 190.837207 
L 379.275647 180.666251 
L 380.108759 181.906609 
L 380.941871 191.912195 
L 381.774983 206.631134 
L 382.608096 211.261826 
L 385.107432 211.179134 
L 385.940544 216.223265 
L 386.773656 217.959771 
L 387.606768 221.928922 
L 388.439881 218.455911 
L 390.939217 220.027039 
L 391.772329 213.907927 
L 392.605441 205.638855 
L 393.438553 209.359928 
L 394.271666 211.592581 
L 396.771002 210.352223 
L 397.604114 213.494464 
L 398.437226 221.184704 
L 399.270338 218.373226 
L 400.103451 209.773391 
L 402.6375 203.654279 
L 403.470612 199.023587 
L 404.303724 191.167977 
L 405.136836 200.015883 
L 405.969949 211.344503 
L 408.469285 209.690698 
L 409.302397 210.682978 
L 410.135509 204.563866 
L 410.968621 200.594715 
L 411.801734 197.948614 
L 414.30107 187.529581 
L 415.134182 185.793083 
L 415.967294 192.408335 
L 417.633519 109.386838 
L 420.132855 156.189804 
L 421.799079 88.714157 
L 422.632191 114.927118 
L 423.465304 92.435246 
L 425.96464 121.294307 
L 426.797752 165.037709 
L 427.630864 181.493162 
L 428.463976 167.601117 
L 429.297089 191.498732 
L 431.796425 178.102843 
L 432.629537 165.037709 
L 433.462649 186.537285 
L 434.295761 175.952882 
L 435.128874 167.68381 
L 437.62821 156.934006 
L 438.461322 172.314486 
L 439.294434 191.994888 
L 440.127546 197.535167 
L 443.459995 199.850497 
L 444.293107 201.008163 
L 445.126219 205.886917 
L 445.959331 202.744676 
L 446.792444 203.654279 
L 449.29178 208.781095 
L 450.124892 206.217687 
L 450.958004 182.898905 
L 451.791116 183.891185 
L 452.624229 190.9199 
L 455.123565 185.627698 
L 455.956677 193.814078 
L 456.789789 200.346637 
L 457.622901 178.102843 
L 458.456014 187.364196 
L 461.788462 157.595531 
L 462.621574 148.830319 
L 463.454686 134.442134 
L 464.287799 107.484955 
L 466.787135 98.802435 
L 467.620247 88.383402 
L 468.453359 81.76815 
L 469.286471 93.923681 
L 470.119584 117.325156 
L 472.61892 140.726631 
L 473.452032 164.458877 
L 474.285144 163.383888 
L 475.118256 144.695782 
L 475.951369 154.039843 
L 478.450705 157.016699 
L 480.116929 180.997022 
L 481.783154 119.805872 
L 484.28249 111.784877 
L 485.115602 133.532531 
L 485.948714 145.191922 
L 486.781826 113.604067 
L 487.614939 116.580938 
L 490.947387 107.815726 
L 491.780499 89.541067 
L 492.613611 95.329424 
L 493.446724 117.903989 
L 495.94606 96.735167 
L 496.779172 70.522206 
L 497.612284 91.856413 
L 498.445396 94.006374 
L 501.777845 44.64 
L 502.610957 55.555173 
L 503.444069 77.716291 
L 504.277181 96.073642 
L 505.110294 91.77372 
L 507.574917 83.339263 
L 508.408029 99.381268 
L 509.241141 125.511536 
L 510.074253 133.780609 
L 510.907366 148.664933 
L 513.406702 151.476419 
L 514.239814 156.355173 
L 515.072926 151.145665 
L 515.906038 166.856899 
L 516.739151 173.968307 
L 519.238487 183.725815 
L 520.071599 189.762234 
L 520.904711 186.206531 
L 521.737823 176.035575 
L 522.570936 183.725815 
L 525.070272 192.491028 
L 525.903384 172.149101 
L 526.736496 163.301196 
L 527.569608 167.849195 
L 528.402721 171.074128 
L 530.902057 144.530397 
L 531.735169 145.44 
L 532.568281 165.616542 
L 533.401393 158.339749 
L 536.733842 162.722363 
L 537.566954 169.337615 
L 538.400066 178.020151 
L 539.233179 158.505134 
L 540.066291 112.777173 
L 542.565627 122.617358 
L 543.398739 68.868385 
L 544.231851 84.745005 
L 545.064964 98.058218 
L 545.898076 69.860665 
L 548.397412 78.625894 
L 549.230524 104.177329 
L 550.063636 135.847877 
L 550.896749 88.052631 
L 551.729861 96.404397 
L 554.229197 58.69743 
L 555.062309 73.250984 
L 555.895421 76.806688 
L 556.728534 83.339263 
L 557.561646 107.31957 
L 560.060982 118.896284 
L 560.894094 130.224905 
L 561.727206 90.037223 
L 562.560319 103.350419 
L 563.393431 102.688894 
L 565.892767 110.544519 
L 566.725879 102.523509 
L 567.558991 111.454106 
L 568.392104 118.648207 
L 569.225216 133.367162 
L 572.557664 129.480687 
L 573.390776 133.615224 
L 574.223889 141.636234 
L 575.057001 141.057386 
L 577.556337 138.742056 
L 578.389449 147.424576 
L 579.222561 147.920731 
L 580.055674 130.307598 
L 580.888786 116.580938 
L 583.388122 64.733849 
L 584.221234 75.731731 
L 585.054346 101.117766 
L 585.887459 73.581754 
L 586.720571 88.63148 
L 590.053019 96.404397 
L 590.886131 106.658045 
L 591.719244 105.83115 
L 592.552356 120.88086 
L 595.051692 123.19619 
L 595.884804 111.536799 
L 596.717916 113.19062 
L 597.551029 108.642636 
L 598.384141 125.263458 
L 601.716589 118.317436 
L 602.549701 125.015396 
L 603.382814 130.39029 
L 604.215926 142.297759 
L 606.715262 129.646073 
L 607.548374 120.384704 
L 609.214599 127.74419 
L 610.047711 145.688078 
L 612.547047 136.840173 
L 613.380159 143.455424 
L 614.213271 148.582256 
L 615.046384 154.94943 
L 615.879496 155.610956 
L 618.378832 152.882162 
L 619.211944 141.884296 
L 620.045056 153.874458 
L 621.711281 169.668385 
L 624.210617 157.182084 
L 625.043729 148.168793 
L 625.876841 164.541553 
L 626.709954 168.758782 
L 627.543066 171.156821 
L 630.042402 169.99914 
L 630.875514 166.029989 
L 631.708626 182.816212 
L 632.541739 179.012431 
L 633.374851 184.55271 
L 635.874187 181.079699 
L 636.707299 183.229659 
L 637.540411 181.493162 
L 638.373524 184.304648 
L 641.705972 149.243782 
L 642.539084 146.680358 
L 643.372196 157.347469 
L 644.205309 165.947296 
L 645.038421 134.690212 
L 647.537757 129.315318 
L 648.370869 129.315318 
L 650.037094 134.690212 
L 650.870206 135.43443 
L 654.202654 123.526961 
L 655.035766 142.297759 
L 655.868879 150.814894 
L 656.701991 157.595531 
L 659.201327 148.664933 
L 660.034439 120.550089 
L 660.867551 129.728765 
L 661.700664 128.819162 
L 662.533776 128.5711 
L 665.033112 133.036391 
L 665.866224 121.459692 
L 666.699336 114.596363 
L 667.532449 119.888564 
L 668.365561 98.63705 
L 670.864897 79.287435 
L 671.698009 76.475949 
L 672.531121 96.487089 
L 673.364234 82.76043 
L 674.197346 84.57962 
L 676.696682 97.148614 
L 677.529794 105.665765 
L 678.362906 109.965687 
L 679.196019 93.675603 
L 680.029131 86.729581 
L 682.528467 77.716291 
L 683.361579 67.958782 
L 684.194691 68.454938 
L 685.027804 81.93352 
L 685.860916 81.271994 
L 688.360252 86.646888 
L 689.193364 93.840989 
L 690.026476 91.691028 
L 690.859589 98.14091 
L 691.692701 100.538933 
L 694.192037 99.215883 
L 695.025149 110.709904 
L 695.858261 120.467397 
L 696.691374 119.55781 
L 697.524486 133.119084 
L 700.023822 132.044111 
L 700.856934 132.622944 
L 701.690046 132.209481 
L 702.523159 136.840173 
L 703.356271 143.041977 
L 705.89032 144.695782 
L 706.723432 134.855581 
L 707.556544 130.307598 
L 708.389657 151.476419 
L 709.222769 159.828185 
L 711.722105 149.822614 
L 712.555217 143.124654 
L 713.388329 146.680358 
L 714.221442 148.168793 
L 715.054554 154.866738 
L 717.55389 161.151235 
L 719.220114 177.772073 
L 720.886339 176.531715 
L 723.385675 162.391608 
L 724.218787 165.037709 
L 725.051899 175.87019 
L 726.718124 188.439184 
L 729.21746 174.464447 
L 730.050572 162.722363 
L 730.883684 158.505134 
L 731.716797 161.730067 
L 732.549909 157.264776 
L 735.049245 139.320888 
L 735.882357 159.580122 
L 736.715469 171.239514 
L 737.548582 157.264776 
L 738.381694 159.001274 
L 740.88103 160.655095 
L 741.714142 168.428028 
L 742.547254 180.087419 
L 743.380367 164.376184 
L 744.213479 173.472151 
L 747.545927 167.022285 
L 748.379039 162.970441 
L 749.212152 168.758782 
L 750.045264 166.856899 
L 753.377712 156.685944 
L 754.210824 164.045413 
L 755.043937 160.32434 
L 755.877049 171.322206 
L 758.376385 164.376184 
L 759.209497 175.87019 
L 760.042609 171.652961 
L 760.875722 190.341067 
L 761.708834 194.310218 
L 765.041282 185.958453 
L 765.874394 177.854765 
L 766.707507 176.36633 
L 767.540619 181.906609 
L 770.039955 182.23738 
L 770.873067 187.281503 
L 771.706179 188.273799 
L 772.539292 191.167977 
L 773.372404 192.987168 
L 775.87174 181.162391 
L 776.704852 185.627698 
L 777.537964 198.279369 
L 778.371077 191.167977 
L 779.204189 194.475603 
L 781.703525 185.37962 
L 782.536637 191.74681 
L 784.202862 174.795217 
L 785.035974 176.283637 
L 787.53531 177.854765 
L 788.368422 189.679542 
L 789.201535 195.302514 
L 790.034647 179.260508 
L 790.867759 180.500866 
L 794.200207 156.934006 
L 795.03332 161.730067 
L 795.866432 171.239514 
L 796.699544 166.856899 
L 800.031992 174.877894 
L 800.865105 175.87019 
L 802.531329 193.152553 
L 805.030665 192.160257 
L 805.863777 184.05657 
L 806.69689 188.025721 
L 807.530002 159.083967 
L 808.363114 140.974709 
L 810.827737 126.751894 
L 811.660849 149.822614 
L 812.493962 129.89415 
L 813.327074 155.941726 
L 814.160186 135.103659 
L 816.659522 146.349603 
L 817.492634 169.254938 
L 818.325747 161.978145 
L 819.158859 159.083967 
L 819.991971 166.278067 
L 822.491307 175.704805 
L 823.324419 180.914329 
L 824.157532 187.943028 
L 824.990644 188.769939 
L 825.823756 191.41604 
L 828.323092 192.656413 
L 829.156204 188.935324 
L 829.989317 188.273799 
L 830.822429 193.896771 
L 834.987989 188.108414 
L 835.821102 188.191106 
L 836.654214 198.858218 
L 837.487326 204.894637 
L 839.986662 205.886917 
L 840.819774 206.879212 
L 841.652887 209.938776 
L 842.485999 204.067726 
L 843.319111 207.375352 
L 845.818447 206.383072 
L 846.651559 190.9199 
L 847.484672 190.258374 
L 848.317784 205.225391 
L 849.150896 215.56174 
L 851.650232 213.081017 
L 852.483344 199.023587 
L 853.316457 194.392911 
L 854.149569 179.922034 
L 854.982681 203.902341 
L 857.482017 205.638855 
L 858.315129 199.602435 
L 859.148242 205.969609 
L 859.981354 206.052302 
L 860.814466 205.225391 
L 863.313802 204.481174 
L 864.146914 197.287089 
L 864.980027 206.548442 
L 865.813139 213.329095 
L 866.646251 207.044598 
L 869.145587 203.736972 
L 869.978699 192.821782 
L 870.811812 180.418174 
L 871.644924 187.777659 
L 872.478036 197.617844 
L 875.810484 201.669703 
L 876.643597 197.700537 
L 877.476709 216.636721 
L 878.309821 225.319241 
L 880.809157 224.244268 
L 881.642269 230.61145 
L 882.475382 230.776835 
L 883.308494 233.174866 
L 884.141606 231.68643 
L 886.640942 221.928922 
L 887.474054 225.236556 
L 888.307167 231.272975 
L 889.140279 226.146151 
L 889.973391 234.084461 
L 893.305839 231.272975 
L 894.138952 236.895947 
L 894.972064 239.293978 
L 895.805176 234.911371 
L 898.304512 228.213419 
L 899.137624 232.430648 
L 899.970737 234.994056 
L 900.803849 234.084461 
L 901.636961 233.671006 
L 904.136297 233.836391 
L 905.802522 228.792252 
L 906.635634 218.373226 
L 907.468746 223.417358 
L 909.968082 221.432782 
L 910.801194 223.334665 
L 911.634307 234.084461 
L 912.467419 233.505628 
L 913.300531 235.738274 
L 915.799867 234.580609 
L 916.632979 236.069037 
L 917.466092 232.265263 
L 918.299204 230.36338 
L 919.132316 233.588313 
L 921.631652 231.024905 
L 922.464764 231.43836 
L 923.297877 236.97864 
L 924.130989 226.890369 
L 924.964101 235.820967 
L 927.463437 233.340243 
L 928.296549 230.85952 
L 929.129662 212.998324 
L 929.962774 214.404067 
L 930.795886 204.646559 
L 933.295222 215.644425 
L 934.128334 213.825235 
L 934.961447 214.073305 
L 935.794559 214.9829 
L 936.627671 223.334665 
L 939.127007 223.50005 
L 939.960119 209.938776 
L 940.793232 207.29266 
L 941.626344 198.114 
L 942.459456 202.992754 
L 944.958792 204.398497 
L 945.791904 205.721547 
L 946.625017 213.907927 
L 947.458129 203.819648 
L 948.291241 216.388643 
L 950.790577 221.350089 
L 952.456802 231.272975 
L 953.289914 233.836391 
L 954.123026 237.805542 
L 957.455474 230.197995 
L 958.288587 226.559606 
L 959.121699 226.973061 
L 959.954811 231.603738 
L 962.454147 231.9345 
L 963.287259 228.378804 
L 964.953484 240.038196 
L 965.786596 232.017193 
L 968.285932 230.280687 
L 969.119044 229.371092 
L 969.952157 220.853942 
L 970.785269 201.008163 
L 971.618381 203.819648 
L 974.117717 206.30038 
L 974.950829 189.431464 
L 975.783942 195.385206 
L 976.617054 202.661983 
L 977.450166 201.173548 
L 979.949502 200.42933 
L 980.782614 182.485442 
L 981.615727 192.408335 
L 982.448839 193.152553 
L 983.281951 201.75238 
L 985.781287 199.685112 
L 986.614399 205.225391 
L 987.447512 212.998324 
L 988.280624 208.036877 
L 989.113736 186.289223 
L 991.613072 203.736972 
L 992.446184 198.196692 
L 993.279297 187.116134 
L 994.112409 169.089553 
L 994.945521 166.526145 
L 997.444857 177.606688 
L 998.277969 189.183402 
L 999.111082 179.095123 
L 999.944194 175.043279 
L 1000.777306 170.164525 
L 1003.276642 182.73352 
L 1004.109754 196.046732 
L 1005.775979 216.554028 
L 1006.609091 222.755832 
L 1009.14314 222.92121 
L 1009.976252 223.582735 
L 1010.809365 226.559606 
L 1011.642477 219.613584 
L 1012.475589 228.874944 
L 1014.974925 223.99619 
L 1015.808037 228.957637 
L 1016.64115 228.792252 
L 1017.474262 227.634587 
L 1018.307374 231.9345 
L 1020.80671 235.159441 
L 1021.639822 235.655581 
L 1022.472935 239.790118 
L 1024.139159 243.015059 
L 1026.638495 241.113176 
L 1027.471607 241.113176 
L 1028.30472 238.715145 
L 1029.137832 239.211285 
L 1029.970944 241.609316 
L 1032.47028 237.888235 
L 1033.303393 239.790118 
L 1034.136505 238.79783 
L 1034.969617 238.053612 
L 1035.802729 243.924654 
L 1038.302065 241.609316 
L 1039.135178 246.24 
L 1039.96829 245.247712 
L 1040.801402 242.849681 
L 1041.634514 244.503494 
L 1044.13385 242.188148 
L 1044.966963 242.436226 
L 1045.800075 233.009481 
L 1046.633187 233.174866 
L 1047.466299 238.30169 
L 1050.798748 238.632453 
L 1051.63186 243.263129 
L 1052.464972 242.932366 
L 1053.298084 243.097751 
L 1056.630533 236.895947 
L 1057.463645 229.949925 
L 1058.296757 229.205707 
L 1059.129869 235.655581 
L 1061.629205 237.888235 
L 1062.462318 240.534335 
L 1063.29543 241.113176 
L 1064.128542 243.180444 
L 1064.961654 241.030483 
L 1068.294103 231.603738 
L 1069.127215 223.74812 
L 1069.960327 229.205707 
L 1070.793439 236.069037 
L 1073.292775 236.97864 
L 1074.125888 242.270841 
L 1074.959 237.392087 
L 1075.792112 234.828679 
L 1076.625224 236.399799 
L 1079.12456 233.588313 
L 1079.957673 235.986344 
L 1080.790785 227.386509 
L 1081.623897 231.272975 
L 1082.457009 231.521045 
L 1084.956345 233.009481 
L 1085.789458 238.053612 
L 1086.62257 239.955503 
L 1087.455682 240.286265 
L 1088.288794 239.128592 
L 1090.78813 230.85952 
L 1091.621243 214.9829 
L 1092.454355 227.138439 
L 1093.287467 230.197995 
L 1094.120579 228.296112 
L 1097.453028 218.538603 
L 1098.28614 219.200129 
L 1099.952364 232.347955 
L 1102.4517 232.430648 
L 1103.284813 234.994056 
L 1104.117925 231.603738 
L 1104.951037 235.242134 
L 1105.784149 237.640165 
L 1108.283485 234.497916 
L 1109.116598 226.476914 
L 1109.94971 226.146151 
L 1110.782822 226.642299 
L 1111.615934 224.161575 
L 1114.080557 220.192416 
L 1114.91367 231.603738 
L 1115.746782 232.347955 
L 1116.579894 226.973061 
L 1117.413006 226.890369 
L 1119.912342 227.551894 
L 1120.745455 225.815388 
L 1120.745455 225.815388 
" clip-path="url(#pae9b6fd566)" style="fill: none; stroke: #0000ff; stroke-width: 1.5; stroke-linecap: square"/>
   </g>
   <g id="patch_3">
    <path d="M 162 256.32 
L 162 34.56 
" style="fill: none; stroke: #000000; stroke-width: 0.8; stroke-linejoin: miter; stroke-linecap: square"/>
   </g>
   <g id="patch_4">
    <path d="M 1166.4 256.32 
L 1166.4 34.56 
" style="fill: none; stroke: #000000; stroke-width: 0.8; stroke-linejoin: miter; stroke-linecap: square"/>
   </g>
   <g id="patch_5">
    <path d="M 162 256.32 
L 1166.4 256.32 
" style="fill: none; stroke: #000000; stroke-width: 0.8; stroke-linejoin: miter; stroke-linecap: square"/>
   </g>
   <g id="patch_6">
    <path d="M 162 34.56 
L 1166.4 34.56 
" style="fill: none; stroke: #000000; stroke-width: 0.8; stroke-linejoin: miter; stroke-linecap: square"/>
   </g>
  </g>
  <g id="axes_2">
   <g id="matplotlib.axis_3">
    <g id="ytick_6">
     <g id="line2d_17">
      <defs>
       <path id="mad3b90553a" d="M 0 0 
L 3.5 0 
" style="stroke: #ff0000; stroke-width: 0.8"/>
      </defs>
      <g>
       <use xlink:href="#mad3b90553a" x="1166.4" y="234.495356" style="fill: #ff0000; stroke: #ff0000; stroke-width: 0.8"/>
      </g>
     </g>
     <g id="text_18">
      <!-- 0.2 -->
      <g style="fill: #ff0000" transform="translate(1173.4 238.294574) scale(0.1 -0.1)">
       <defs>
        <path id="DejaVuSans-2e" d="M 684 794 
L 1344 794 
L 1344 0 
L 684 0 
L 684 794 
z
" transform="scale(0.015625)"/>
       </defs>
       <use xlink:href="#DejaVuSans-30"/>
       <use xlink:href="#DejaVuSans-2e" x="63.623047"/>
       <use xlink:href="#DejaVuSans-32" x="95.410156"/>
      </g>
     </g>
    </g>
    <g id="ytick_7">
     <g id="line2d_18">
      <g>
       <use xlink:href="#mad3b90553a" x="1166.4" y="208.934447" style="fill: #ff0000; stroke: #ff0000; stroke-width: 0.8"/>
      </g>
     </g>
     <g id="text_19">
      <!-- 0.3 -->
      <g style="fill: #ff0000" transform="translate(1173.4 212.733666) scale(0.1 -0.1)">
       <use xlink:href="#DejaVuSans-30"/>
       <use xlink:href="#DejaVuSans-2e" x="63.623047"/>
       <use xlink:href="#DejaVuSans-33" x="95.410156"/>
      </g>
     </g>
    </g>
    <g id="ytick_8">
     <g id="line2d_19">
      <g>
       <use xlink:href="#mad3b90553a" x="1166.4" y="183.373538" style="fill: #ff0000; stroke: #ff0000; stroke-width: 0.8"/>
      </g>
     </g>
     <g id="text_20">
      <!-- 0.4 -->
      <g style="fill: #ff0000" transform="translate(1173.4 187.172757) scale(0.1 -0.1)">
       <use xlink:href="#DejaVuSans-30"/>
       <use xlink:href="#DejaVuSans-2e" x="63.623047"/>
       <use xlink:href="#DejaVuSans-34" x="95.410156"/>
      </g>
     </g>
    </g>
    <g id="ytick_9">
     <g id="line2d_20">
      <g>
       <use xlink:href="#mad3b90553a" x="1166.4" y="157.81263" style="fill: #ff0000; stroke: #ff0000; stroke-width: 0.8"/>
      </g>
     </g>
     <g id="text_21">
      <!-- 0.5 -->
      <g style="fill: #ff0000" transform="translate(1173.4 161.611848) scale(0.1 -0.1)">
       <use xlink:href="#DejaVuSans-30"/>
       <use xlink:href="#DejaVuSans-2e" x="63.623047"/>
       <use xlink:href="#DejaVuSans-35" x="95.410156"/>
      </g>
     </g>
    </g>
    <g id="ytick_10">
     <g id="line2d_21">
      <g>
       <use xlink:href="#mad3b90553a" x="1166.4" y="132.251721" style="fill: #ff0000; stroke: #ff0000; stroke-width: 0.8"/>
      </g>
     </g>
     <g id="text_22">
      <!-- 0.6 -->
      <g style="fill: #ff0000" transform="translate(1173.4 136.05094) scale(0.1 -0.1)">
       <defs>
        <path id="DejaVuSans-36" d="M 2113 2584 
Q 1688 2584 1439 2293 
Q 1191 2003 1191 1497 
Q 1191 994 1439 701 
Q 1688 409 2113 409 
Q 2538 409 2786 701 
Q 3034 994 3034 1497 
Q 3034 2003 2786 2293 
Q 2538 2584 2113 2584 
z
M 3366 4563 
L 3366 3988 
Q 3128 4100 2886 4159 
Q 2644 4219 2406 4219 
Q 1781 4219 1451 3797 
Q 1122 3375 1075 2522 
Q 1259 2794 1537 2939 
Q 1816 3084 2150 3084 
Q 2853 3084 3261 2657 
Q 3669 2231 3669 1497 
Q 3669 778 3244 343 
Q 2819 -91 2113 -91 
Q 1303 -91 875 529 
Q 447 1150 447 2328 
Q 447 3434 972 4092 
Q 1497 4750 2381 4750 
Q 2619 4750 2861 4703 
Q 3103 4656 3366 4563 
z
" transform="scale(0.015625)"/>
       </defs>
       <use xlink:href="#DejaVuSans-30"/>
       <use xlink:href="#DejaVuSans-2e" x="63.623047"/>
       <use xlink:href="#DejaVuSans-36" x="95.410156"/>
      </g>
     </g>
    </g>
    <g id="ytick_11">
     <g id="line2d_22">
      <g>
       <use xlink:href="#mad3b90553a" x="1166.4" y="106.690813" style="fill: #ff0000; stroke: #ff0000; stroke-width: 0.8"/>
      </g>
     </g>
     <g id="text_23">
      <!-- 0.7 -->
      <g style="fill: #ff0000" transform="translate(1173.4 110.490031) scale(0.1 -0.1)">
       <defs>
        <path id="DejaVuSans-37" d="M 525 4666 
L 3525 4666 
L 3525 4397 
L 1831 0 
L 1172 0 
L 2766 4134 
L 525 4134 
L 525 4666 
z
" transform="scale(0.015625)"/>
       </defs>
       <use xlink:href="#DejaVuSans-30"/>
       <use xlink:href="#DejaVuSans-2e" x="63.623047"/>
       <use xlink:href="#DejaVuSans-37" x="95.410156"/>
      </g>
     </g>
    </g>
    <g id="ytick_12">
     <g id="line2d_23">
      <g>
       <use xlink:href="#mad3b90553a" x="1166.4" y="81.129904" style="fill: #ff0000; stroke: #ff0000; stroke-width: 0.8"/>
      </g>
     </g>
     <g id="text_24">
      <!-- 0.8 -->
      <g style="fill: #ff0000" transform="translate(1173.4 84.929123) scale(0.1 -0.1)">
       <defs>
        <path id="DejaVuSans-38" d="M 2034 2216 
Q 1584 2216 1326 1975 
Q 1069 1734 1069 1313 
Q 1069 891 1326 650 
Q 1584 409 2034 409 
Q 2484 409 2743 651 
Q 3003 894 3003 1313 
Q 3003 1734 2745 1975 
Q 2488 2216 2034 2216 
z
M 1403 2484 
Q 997 2584 770 2862 
Q 544 3141 544 3541 
Q 544 4100 942 4425 
Q 1341 4750 2034 4750 
Q 2731 4750 3128 4425 
Q 3525 4100 3525 3541 
Q 3525 3141 3298 2862 
Q 3072 2584 2669 2484 
Q 3125 2378 3379 2068 
Q 3634 1759 3634 1313 
Q 3634 634 3220 271 
Q 2806 -91 2034 -91 
Q 1263 -91 848 271 
Q 434 634 434 1313 
Q 434 1759 690 2068 
Q 947 2378 1403 2484 
z
M 1172 3481 
Q 1172 3119 1398 2916 
Q 1625 2713 2034 2713 
Q 2441 2713 2670 2916 
Q 2900 3119 2900 3481 
Q 2900 3844 2670 4047 
Q 2441 4250 2034 4250 
Q 1625 4250 1398 4047 
Q 1172 3844 1172 3481 
z
" transform="scale(0.015625)"/>
       </defs>
       <use xlink:href="#DejaVuSans-30"/>
       <use xlink:href="#DejaVuSans-2e" x="63.623047"/>
       <use xlink:href="#DejaVuSans-38" x="95.410156"/>
      </g>
     </g>
    </g>
    <g id="ytick_13">
     <g id="line2d_24">
      <g>
       <use xlink:href="#mad3b90553a" x="1166.4" y="55.568995" style="fill: #ff0000; stroke: #ff0000; stroke-width: 0.8"/>
      </g>
     </g>
     <g id="text_25">
      <!-- 0.9 -->
      <g style="fill: #ff0000" transform="translate(1173.4 59.368214) scale(0.1 -0.1)">
       <use xlink:href="#DejaVuSans-30"/>
       <use xlink:href="#DejaVuSans-2e" x="63.623047"/>
       <use xlink:href="#DejaVuSans-39" x="95.410156"/>
      </g>
     </g>
    </g>
    <g id="text_26">
     <!-- Indicator -->
     <g style="fill: #ff0000" transform="translate(1200.901563 167.535313) rotate(-90) scale(0.1 -0.1)">
      <defs>
       <path id="DejaVuSans-6e" d="M 3513 2113 
L 3513 0 
L 2938 0 
L 2938 2094 
Q 2938 2591 2744 2837 
Q 2550 3084 2163 3084 
Q 1697 3084 1428 2787 
Q 1159 2491 1159 1978 
L 1159 0 
L 581 0 
L 581 3500 
L 1159 3500 
L 1159 2956 
Q 1366 3272 1645 3428 
Q 1925 3584 2291 3584 
Q 2894 3584 3203 3211 
Q 3513 2838 3513 2113 
z
" transform="scale(0.015625)"/>
       <path id="DejaVuSans-64" d="M 2906 2969 
L 2906 4863 
L 3481 4863 
L 3481 0 
L 2906 0 
L 2906 525 
Q 2725 213 2448 61 
Q 2172 -91 1784 -91 
Q 1150 -91 751 415 
Q 353 922 353 1747 
Q 353 2572 751 3078 
Q 1150 3584 1784 3584 
Q 2172 3584 2448 3432 
Q 2725 3281 2906 2969 
z
M 947 1747 
Q 947 1113 1208 752 
Q 1469 391 1925 391 
Q 2381 391 2643 752 
Q 2906 1113 2906 1747 
Q 2906 2381 2643 2742 
Q 2381 3103 1925 3103 
Q 1469 3103 1208 2742 
Q 947 2381 947 1747 
z
" transform="scale(0.015625)"/>
       <path id="DejaVuSans-69" d="M 603 3500 
L 1178 3500 
L 1178 0 
L 603 0 
L 603 3500 
z
M 603 4863 
L 1178 4863 
L 1178 4134 
L 603 4134 
L 603 4863 
z
" transform="scale(0.015625)"/>
       <path id="DejaVuSans-63" d="M 3122 3366 
L 3122 2828 
Q 2878 2963 2633 3030 
Q 2388 3097 2138 3097 
Q 1578 3097 1268 2742 
Q 959 2388 959 1747 
Q 959 1106 1268 751 
Q 1578 397 2138 397 
Q 2388 397 2633 464 
Q 2878 531 3122 666 
L 3122 134 
Q 2881 22 2623 -34 
Q 2366 -91 2075 -91 
Q 1284 -91 818 406 
Q 353 903 353 1747 
Q 353 2603 823 3093 
Q 1294 3584 2113 3584 
Q 2378 3584 2631 3529 
Q 2884 3475 3122 3366 
z
" transform="scale(0.015625)"/>
       <path id="DejaVuSans-6f" d="M 1959 3097 
Q 1497 3097 1228 2736 
Q 959 2375 959 1747 
Q 959 1119 1226 758 
Q 1494 397 1959 397 
Q 2419 397 2687 759 
Q 2956 1122 2956 1747 
Q 2956 2369 2687 2733 
Q 2419 3097 1959 3097 
z
M 1959 3584 
Q 2709 3584 3137 3096 
Q 3566 2609 3566 1747 
Q 3566 888 3137 398 
Q 2709 -91 1959 -91 
Q 1206 -91 779 398 
Q 353 888 353 1747 
Q 353 2609 779 3096 
Q 1206 3584 1959 3584 
z
" transform="scale(0.015625)"/>
       <path id="DejaVuSans-72" d="M 2631 2963 
Q 2534 3019 2420 3045 
Q 2306 3072 2169 3072 
Q 1681 3072 1420 2755 
Q 1159 2438 1159 1844 
L 1159 0 
L 581 0 
L 581 3500 
L 1159 3500 
L 1159 2956 
Q 1341 3275 1631 3429 
Q 1922 3584 2338 3584 
Q 2397 3584 2469 3576 
Q 2541 3569 2628 3553 
L 2631 2963 
z
" transform="scale(0.015625)"/>
      </defs>
      <use xlink:href="#DejaVuSans-49"/>
      <use xlink:href="#DejaVuSans-6e" x="29.492188"/>
      <use xlink:href="#DejaVuSans-64" x="92.871094"/>
      <use xlink:href="#DejaVuSans-69" x="156.347656"/>
      <use xlink:href="#DejaVuSans-63" x="184.130859"/>
      <use xlink:href="#DejaVuSans-61" x="239.111328"/>
      <use xlink:href="#DejaVuSans-74" x="300.390625"/>
      <use xlink:href="#DejaVuSans-6f" x="339.599609"/>
      <use xlink:href="#DejaVuSans-72" x="400.78125"/>
     </g>
    </g>
   </g>
   <g id="line2d_25">
    <path d="M 207.654545 53.063709 
L 211.820106 53.301205 
L 213.48633 53.63447 
L 215.985667 53.577466 
L 217.651891 53.873672 
L 218.485003 54.275294 
L 221.817452 54.610271 
L 224.316788 55.993527 
L 225.1499 57.218061 
L 227.649237 58.461839 
L 229.315461 60.240378 
L 230.148573 61.733873 
L 230.981685 63.833752 
L 233.481022 65.269427 
L 235.147246 68.301751 
L 235.980358 69.306159 
L 236.81347 70.590896 
L 239.312807 71.506605 
L 240.979031 73.118276 
L 241.812143 73.676788 
L 242.645255 74.748789 
L 245.144592 75.757989 
L 245.977704 75.52372 
L 246.810816 75.975357 
L 247.643928 77.126803 
L 248.47704 78.491425 
L 250.976377 78.132371 
L 251.809489 77.649118 
L 252.642601 74.468314 
L 253.475713 73.152241 
L 254.308825 72.656237 
L 256.808162 72.068477 
L 257.641274 71.070934 
L 258.474386 69.627397 
L 260.14061 67.768184 
L 262.639947 67.409179 
L 263.473059 66.896751 
L 265.972395 66.65725 
L 269.304844 66.519895 
L 270.137956 66.791344 
L 270.971068 66.668567 
L 271.80418 67.19644 
L 275.969741 67.468816 
L 276.802853 67.75356 
L 277.635965 68.238739 
L 280.135302 68.807565 
L 282.634638 69.893632 
L 283.46775 69.260415 
L 285.967087 68.941254 
L 286.800199 69.75164 
L 287.633311 71.359088 
L 288.466423 75.342261 
L 289.299536 78.473318 
L 291.798872 79.903059 
L 292.631984 81.781976 
L 293.465096 84.921374 
L 295.131321 93.891417 
L 298.463769 97.308146 
L 299.296881 99.53327 
L 300.129993 99.366032 
L 300.963106 100.620273 
L 303.462442 101.243811 
L 304.295554 100.848631 
L 305.128666 102.60721 
L 305.961778 103.151819 
L 306.794891 102.676257 
L 309.294227 96.328662 
L 310.127339 93.357894 
L 310.960451 92.650966 
L 311.793563 92.81765 
L 312.626676 91.913192 
L 315.126012 90.396208 
L 315.959124 88.222027 
L 316.792236 87.333271 
L 317.625348 87.639673 
L 318.458461 87.30622 
L 320.957797 88.158974 
L 321.790909 88.054238 
L 322.624021 87.157974 
L 323.457133 86.521492 
L 324.290246 86.404004 
L 326.789582 85.698353 
L 327.622694 85.056252 
L 328.455806 84.964203 
L 329.288918 85.111658 
L 330.122031 85.130156 
L 332.621367 84.491374 
L 333.454479 83.62606 
L 334.287591 80.725322 
L 335.120703 79.418342 
L 335.953816 78.320061 
L 340.119376 77.640441 
L 340.952488 76.86252 
L 341.785601 77.740459 
L 344.284937 80.700077 
L 345.118049 82.406902 
L 345.951161 83.413394 
L 346.784273 84.157829 
L 347.617386 84.629793 
L 350.949834 84.294233 
L 351.782946 85.1425 
L 352.616058 84.84204 
L 353.449171 82.943584 
L 355.948507 82.319629 
L 357.614731 82.24355 
L 358.447843 81.856447 
L 359.280956 80.054159 
L 361.780292 75.85253 
L 362.613404 73.060689 
L 363.446516 71.733485 
L 365.112741 70.347441 
L 367.612077 69.422465 
L 368.445189 67.598452 
L 369.278301 66.517654 
L 370.111413 66.170058 
L 370.944526 66.295291 
L 373.443862 65.355919 
L 375.110086 63.807896 
L 375.943198 63.309922 
L 376.776311 63.322369 
L 379.275647 62.695439 
L 380.108759 62.089425 
L 380.941871 61.744883 
L 381.774983 61.627426 
L 385.107432 61.660203 
L 386.773656 62.45191 
L 387.606768 63.098368 
L 388.439881 64.100747 
L 390.939217 64.902702 
L 391.772329 65.616528 
L 392.605441 65.871314 
L 393.438553 66.341704 
L 394.271666 67.38539 
L 396.771002 69.77383 
L 397.604114 72.267536 
L 398.437226 74.239079 
L 399.270338 75.430837 
L 400.103451 75.927716 
L 402.6375 76.548494 
L 403.470612 78.931019 
L 404.303724 80.786042 
L 405.969949 86.738397 
L 408.469285 91.424333 
L 410.135509 99.470452 
L 410.968621 101.576745 
L 411.801734 102.549776 
L 414.30107 103.515757 
L 415.134182 104.074819 
L 415.967294 104.146827 
L 417.633519 92.419293 
L 420.132855 87.434982 
L 421.799079 74.358788 
L 423.465304 66.377166 
L 425.96464 63.984335 
L 426.797752 62.795859 
L 428.463976 61.417219 
L 429.297089 61.090529 
L 431.796425 60.500561 
L 432.629537 59.745839 
L 433.462649 59.31882 
L 435.128874 57.917242 
L 437.62821 57.214868 
L 438.461322 56.81902 
L 439.294434 56.73224 
L 440.127546 56.810822 
L 443.459995 56.808773 
L 445.959331 56.538826 
L 446.792444 56.527853 
L 451.791116 56.64819 
L 452.624229 56.63005 
L 455.123565 57.601648 
L 455.956677 58.115449 
L 456.789789 59.280303 
L 458.456014 62.097512 
L 461.788462 63.440299 
L 462.621574 64.051806 
L 463.454686 63.374057 
L 464.287799 61.866626 
L 466.787135 60.610538 
L 467.620247 58.94432 
L 468.453359 57.580709 
L 470.119584 55.859982 
L 473.452032 55.434627 
L 474.285144 55.50473 
L 475.951369 54.814141 
L 478.450705 54.410623 
L 480.950041 53.406365 
L 481.783154 52.7074 
L 484.28249 51.992432 
L 485.948714 51.030995 
L 487.614939 50.168259 
L 490.947387 49.685942 
L 492.613611 48.663545 
L 493.446724 48.269782 
L 495.94606 47.901364 
L 496.779172 47.404231 
L 498.445396 46.926772 
L 499.278509 46.727872 
L 504.277181 46.35873 
L 507.574917 46.233441 
L 510.074253 45.867042 
L 514.239814 45.869452 
L 515.906038 45.767443 
L 519.238487 46.059562 
L 520.904711 46.511684 
L 521.737823 46.62325 
L 522.570936 46.884247 
L 525.070272 47.178948 
L 528.402721 48.315276 
L 530.902057 48.542386 
L 533.401393 49.649735 
L 536.733842 50.117927 
L 539.233179 52.348077 
L 540.066291 52.479069 
L 542.565627 52.726192 
L 545.064964 52.2782 
L 545.898076 51.798192 
L 548.397412 51.301534 
L 549.230524 50.982098 
L 550.063636 50.847365 
L 551.729861 50.021134 
L 554.229197 49.371893 
L 555.895421 48.254042 
L 556.728534 47.792423 
L 557.561646 47.500269 
L 560.060982 47.235642 
L 563.393431 46.236564 
L 567.558991 45.784328 
L 569.225216 45.558693 
L 573.390776 45.349995 
L 575.057001 45.191998 
L 578.389449 45.340902 
L 580.055674 45.722817 
L 580.888786 45.781687 
L 585.054346 45.746402 
L 585.887459 45.551822 
L 590.053019 45.553603 
L 592.552356 45.94952 
L 596.717916 46.076708 
L 597.551029 46.004846 
L 598.384141 46.122566 
L 602.549701 46.249643 
L 606.715262 46.52326 
L 618.378832 46.698811 
L 619.211944 46.792885 
L 621.711281 47.7727 
L 624.210617 48.144452 
L 626.709954 49.067787 
L 627.543066 49.414432 
L 630.042402 49.685942 
L 630.875514 49.930806 
L 633.374851 51.275384 
L 635.874187 51.667543 
L 638.373524 53.030284 
L 639.206636 53.315539 
L 641.705972 53.487131 
L 643.372196 54.027314 
L 644.205309 54.392092 
L 645.038421 54.285636 
L 648.370869 54.079352 
L 650.870206 53.558297 
L 655.868879 53.277602 
L 659.201327 53.065802 
L 660.034439 52.761871 
L 660.867551 52.612705 
L 662.533776 52.023997 
L 665.033112 51.742811 
L 667.532449 50.637273 
L 668.365561 50.142559 
L 670.864897 49.538476 
L 672.531121 48.550374 
L 674.197346 47.6506 
L 678.362906 47.006253 
L 680.029131 46.475609 
L 682.528467 46.275597 
L 685.860916 45.540135 
L 689.193364 45.303936 
L 691.692701 44.848714 
L 696.691374 44.64 
L 702.523159 44.771311 
L 703.356271 44.892243 
L 706.723432 45.243233 
L 708.389657 45.550551 
L 709.222769 45.786442 
L 712.555217 46.081417 
L 714.221442 46.394734 
L 715.054554 46.63926 
L 717.55389 46.951785 
L 719.220114 47.815804 
L 720.886339 48.240633 
L 723.385675 48.626298 
L 725.051899 49.454502 
L 726.718124 50.509141 
L 729.21746 50.984837 
L 730.883684 51.757223 
L 732.549909 52.351296 
L 735.049245 52.399721 
L 738.381694 53.334926 
L 740.88103 53.489324 
L 741.714142 53.701547 
L 743.380367 54.447792 
L 744.213479 54.665598 
L 747.545927 54.737916 
L 748.379039 54.871492 
L 750.045264 55.351681 
L 755.877049 55.549023 
L 759.209497 55.39619 
L 760.042609 55.496617 
L 761.708834 55.985011 
L 765.041282 56.030514 
L 765.874394 55.909622 
L 766.707507 55.931239 
L 767.540619 56.151893 
L 770.039955 56.431587 
L 771.706179 57.130075 
L 772.539292 57.813276 
L 773.372404 58.277321 
L 775.87174 58.418987 
L 776.704852 58.834076 
L 778.371077 59.924639 
L 779.204189 60.35922 
L 781.703525 60.449486 
L 782.536637 60.927439 
L 785.035974 61.498716 
L 787.53531 61.669583 
L 788.368422 62.108844 
L 789.201535 62.888458 
L 790.867759 63.646506 
L 796.699544 63.075653 
L 799.19888 62.710706 
L 800.031992 62.317854 
L 800.865105 62.118564 
L 801.698217 62.240708 
L 802.531329 62.577297 
L 806.69689 62.840361 
L 807.530002 62.248893 
L 808.363114 61.292177 
L 811.660849 59.622415 
L 812.493962 58.765254 
L 813.327074 58.154826 
L 814.160186 57.395152 
L 817.492634 56.585843 
L 819.158859 55.946304 
L 819.991971 55.84971 
L 825.823756 55.921834 
L 828.323092 56.060962 
L 829.989317 56.758709 
L 830.822429 57.041762 
L 834.154877 57.328266 
L 836.654214 58.021057 
L 837.487326 58.313746 
L 839.986662 58.49648 
L 840.819774 58.711472 
L 841.652887 59.099718 
L 842.485999 59.347149 
L 843.319111 60.125465 
L 845.818447 61.267926 
L 846.651559 62.501919 
L 847.484672 63.345514 
L 849.150896 66.616584 
L 851.650232 68.912321 
L 852.483344 70.681673 
L 853.316457 71.599471 
L 854.149569 72.286923 
L 854.982681 74.134534 
L 857.482017 75.931681 
L 859.981354 79.45157 
L 860.814466 80.419374 
L 864.146914 81.512854 
L 864.980027 82.659774 
L 865.813139 84.401554 
L 866.646251 85.371982 
L 869.978699 86.870809 
L 870.811812 86.254717 
L 871.644924 85.403166 
L 872.478036 84.860321 
L 875.810484 84.551455 
L 876.643597 83.893302 
L 877.476709 84.371691 
L 878.309821 85.958919 
L 880.809157 87.299464 
L 881.642269 89.36291 
L 882.475382 93.162532 
L 883.308494 97.929264 
L 884.141606 101.288011 
L 886.640942 102.150406 
L 887.474054 103.859664 
L 889.140279 114.410519 
L 889.973391 125.747261 
L 893.305839 132.402627 
L 894.138952 140.717231 
L 894.972064 152.106519 
L 895.805176 160.678311 
L 898.304512 167.190825 
L 899.970737 183.048344 
L 900.803849 191.872095 
L 901.636961 197.652422 
L 904.136297 201.627245 
L 905.802522 205.493379 
L 906.635634 207.906593 
L 907.468746 212.505202 
L 909.968082 217.842258 
L 911.634307 225.402036 
L 913.300531 231.108194 
L 915.799867 232.375564 
L 916.632979 233.101745 
L 917.466092 233.628327 
L 918.299204 233.612231 
L 919.132316 233.793954 
L 922.464764 233.639051 
L 923.297877 234.593154 
L 924.130989 234.695437 
L 924.964101 234.974181 
L 927.463437 235.407653 
L 928.296549 235.214452 
L 929.129662 234.084705 
L 929.962774 232.607178 
L 930.795886 230.12027 
L 933.295222 228.612766 
L 934.128334 227.422309 
L 934.961447 225.816072 
L 935.794559 223.943344 
L 936.627671 222.880412 
L 939.127007 221.835483 
L 942.459456 211.149202 
L 944.958792 208.562292 
L 945.791904 205.689617 
L 946.625017 202.131552 
L 947.458129 196.332886 
L 948.291241 192.168283 
L 950.790577 189.140134 
L 951.623689 186.872944 
L 952.456802 186.632031 
L 953.289914 187.471656 
L 954.123026 188.477702 
L 957.455474 188.281608 
L 958.288587 187.113041 
L 959.121699 184.654924 
L 959.954811 185.823116 
L 962.454147 184.861177 
L 963.287259 183.61538 
L 964.120372 184.55159 
L 964.953484 191.012354 
L 965.786596 194.891321 
L 968.285932 200.080096 
L 969.119044 202.645266 
L 969.952157 203.903837 
L 971.618381 199.407977 
L 974.117717 195.971822 
L 974.950829 188.379727 
L 975.783942 184.840578 
L 976.617054 183.67814 
L 977.450166 184.448115 
L 979.949502 183.803506 
L 980.782614 178.085047 
L 981.615727 174.442943 
L 982.448839 168.556263 
L 983.281951 167.958483 
L 985.781287 163.073381 
L 986.614399 158.29995 
L 987.447512 154.279187 
L 988.280624 147.4686 
L 989.113736 134.338518 
L 991.613072 125.939202 
L 993.279297 111.426507 
L 994.945521 94.470643 
L 997.444857 89.187371 
L 998.277969 85.952531 
L 999.944194 78.176897 
L 1000.777306 75.101796 
L 1003.276642 73.043786 
L 1004.109754 71.733484 
L 1004.942867 71.200739 
L 1005.775979 71.780485 
L 1006.609091 72.51476 
L 1009.14314 73.186271 
L 1010.809365 76.102999 
L 1011.642477 76.941841 
L 1012.475589 78.396541 
L 1014.974925 79.724154 
L 1016.64115 85.191925 
L 1018.307374 90.58788 
L 1020.80671 94.109434 
L 1022.472935 100.881385 
L 1024.139159 105.843973 
L 1026.638495 115.20825 
L 1027.471607 122.900486 
L 1028.30472 132.549968 
L 1029.137832 146.77604 
L 1029.970944 168.102115 
L 1032.47028 187.212834 
L 1033.303393 200.601561 
L 1034.969617 217.251843 
L 1035.802729 224.655424 
L 1038.302065 230.634831 
L 1039.135178 234.908627 
L 1039.96829 237.712798 
L 1040.801402 239.553136 
L 1041.634514 240.856825 
L 1044.13385 241.711208 
L 1044.966963 242.529773 
L 1046.633187 243.174994 
L 1047.466299 243.897159 
L 1050.798748 244.262258 
L 1051.63186 244.960377 
L 1053.298084 245.933711 
L 1056.630533 246.24 
L 1057.463645 246.174864 
L 1058.296757 245.977831 
L 1061.629205 245.914371 
L 1063.29543 245.831213 
L 1064.961654 245.977831 
L 1068.294103 245.722455 
L 1069.127215 245.106391 
L 1069.960327 244.798238 
L 1070.793439 244.664374 
L 1073.292775 244.598531 
L 1074.125888 244.750767 
L 1075.792112 244.265318 
L 1076.625224 243.897159 
L 1079.12456 243.450226 
L 1079.957673 243.181521 
L 1080.790785 242.492457 
L 1082.457009 241.572207 
L 1084.956345 241.572207 
L 1085.789458 241.782071 
L 1087.455682 241.922953 
L 1090.78813 241.221721 
L 1091.621243 239.936768 
L 1092.454355 239.469034 
L 1094.120579 239.436897 
L 1097.453028 238.585781 
L 1098.28614 237.611376 
L 1099.119252 236.808365 
L 1099.952364 236.314386 
L 1102.4517 235.691683 
L 1103.284813 235.333555 
L 1104.117925 235.333555 
L 1104.951037 236.010195 
L 1105.784149 236.492866 
L 1108.283485 236.403823 
L 1109.116598 235.798404 
L 1109.94971 234.832734 
L 1111.615934 233.477628 
L 1114.080557 232.39259 
L 1114.91367 232.255988 
L 1115.746782 232.003358 
L 1116.579894 231.974469 
L 1117.413006 231.665943 
L 1119.912342 231.382843 
L 1120.745455 230.860588 
L 1120.745455 230.860588 
" clip-path="url(#pae9b6fd566)" style="fill: none; stroke: #ff0000; stroke-width: 1.5; stroke-linecap: square"/>
   </g>
   <g id="patch_7">
    <path d="M 162 256.32 
L 162 34.56 
" style="fill: none; stroke: #000000; stroke-width: 0.8; stroke-linejoin: miter; stroke-linecap: square"/>
   </g>
   <g id="patch_8">
    <path d="M 1166.4 256.32 
L 1166.4 34.56 
" style="fill: none; stroke: #000000; stroke-width: 0.8; stroke-linejoin: miter; stroke-linecap: square"/>
   </g>
   <g id="patch_9">
    <path d="M 162 256.32 
L 1166.4 256.32 
" style="fill: none; stroke: #000000; stroke-width: 0.8; stroke-linejoin: miter; stroke-linecap: square"/>
   </g>
   <g id="patch_10">
    <path d="M 162 34.56 
L 1166.4 34.56 
" style="fill: none; stroke: #000000; stroke-width: 0.8; stroke-linejoin: miter; stroke-linecap: square"/>
   </g>
   <g id="text_27">
    <!-- VIX and Cumulative Probability Indicator (smoothed 30 periods) - 3Y (Updated 2024-03-19 08:24:17) -->
    <g transform="translate(361.360313 28.56) scale(0.12 -0.12)">
     <defs>
      <path id="DejaVuSans-20" transform="scale(0.015625)"/>
      <path id="DejaVuSans-43" d="M 4122 4306 
L 4122 3641 
Q 3803 3938 3442 4084 
Q 3081 4231 2675 4231 
Q 1875 4231 1450 3742 
Q 1025 3253 1025 2328 
Q 1025 1406 1450 917 
Q 1875 428 2675 428 
Q 3081 428 3442 575 
Q 3803 722 4122 1019 
L 4122 359 
Q 3791 134 3420 21 
Q 3050 -91 2638 -91 
Q 1578 -91 968 557 
Q 359 1206 359 2328 
Q 359 3453 968 4101 
Q 1578 4750 2638 4750 
Q 3056 4750 3426 4639 
Q 3797 4528 4122 4306 
z
" transform="scale(0.015625)"/>
      <path id="DejaVuSans-75" d="M 544 1381 
L 544 3500 
L 1119 3500 
L 1119 1403 
Q 1119 906 1312 657 
Q 1506 409 1894 409 
Q 2359 409 2629 706 
Q 2900 1003 2900 1516 
L 2900 3500 
L 3475 3500 
L 3475 0 
L 2900 0 
L 2900 538 
Q 2691 219 2414 64 
Q 2138 -91 1772 -91 
Q 1169 -91 856 284 
Q 544 659 544 1381 
z
M 1991 3584 
L 1991 3584 
z
" transform="scale(0.015625)"/>
      <path id="DejaVuSans-6d" d="M 3328 2828 
Q 3544 3216 3844 3400 
Q 4144 3584 4550 3584 
Q 5097 3584 5394 3201 
Q 5691 2819 5691 2113 
L 5691 0 
L 5113 0 
L 5113 2094 
Q 5113 2597 4934 2840 
Q 4756 3084 4391 3084 
Q 3944 3084 3684 2787 
Q 3425 2491 3425 1978 
L 3425 0 
L 2847 0 
L 2847 2094 
Q 2847 2600 2669 2842 
Q 2491 3084 2119 3084 
Q 1678 3084 1418 2786 
Q 1159 2488 1159 1978 
L 1159 0 
L 581 0 
L 581 3500 
L 1159 3500 
L 1159 2956 
Q 1356 3278 1631 3431 
Q 1906 3584 2284 3584 
Q 2666 3584 2933 3390 
Q 3200 3197 3328 2828 
z
" transform="scale(0.015625)"/>
      <path id="DejaVuSans-6c" d="M 603 4863 
L 1178 4863 
L 1178 0 
L 603 0 
L 603 4863 
z
" transform="scale(0.015625)"/>
      <path id="DejaVuSans-76" d="M 191 3500 
L 800 3500 
L 1894 563 
L 2988 3500 
L 3597 3500 
L 2284 0 
L 1503 0 
L 191 3500 
z
" transform="scale(0.015625)"/>
      <path id="DejaVuSans-50" d="M 1259 4147 
L 1259 2394 
L 2053 2394 
Q 2494 2394 2734 2622 
Q 2975 2850 2975 3272 
Q 2975 3691 2734 3919 
Q 2494 4147 2053 4147 
L 1259 4147 
z
M 628 4666 
L 2053 4666 
Q 2838 4666 3239 4311 
Q 3641 3956 3641 3272 
Q 3641 2581 3239 2228 
Q 2838 1875 2053 1875 
L 1259 1875 
L 1259 0 
L 628 0 
L 628 4666 
z
" transform="scale(0.015625)"/>
      <path id="DejaVuSans-62" d="M 3116 1747 
Q 3116 2381 2855 2742 
Q 2594 3103 2138 3103 
Q 1681 3103 1420 2742 
Q 1159 2381 1159 1747 
Q 1159 1113 1420 752 
Q 1681 391 2138 391 
Q 2594 391 2855 752 
Q 3116 1113 3116 1747 
z
M 1159 2969 
Q 1341 3281 1617 3432 
Q 1894 3584 2278 3584 
Q 2916 3584 3314 3078 
Q 3713 2572 3713 1747 
Q 3713 922 3314 415 
Q 2916 -91 2278 -91 
Q 1894 -91 1617 61 
Q 1341 213 1159 525 
L 1159 0 
L 581 0 
L 581 4863 
L 1159 4863 
L 1159 2969 
z
" transform="scale(0.015625)"/>
      <path id="DejaVuSans-79" d="M 2059 -325 
Q 1816 -950 1584 -1140 
Q 1353 -1331 966 -1331 
L 506 -1331 
L 506 -850 
L 844 -850 
Q 1081 -850 1212 -737 
Q 1344 -625 1503 -206 
L 1606 56 
L 191 3500 
L 800 3500 
L 1894 763 
L 2988 3500 
L 3597 3500 
L 2059 -325 
z
" transform="scale(0.015625)"/>
      <path id="DejaVuSans-28" d="M 1984 4856 
Q 1566 4138 1362 3434 
Q 1159 2731 1159 2009 
Q 1159 1288 1364 580 
Q 1569 -128 1984 -844 
L 1484 -844 
Q 1016 -109 783 600 
Q 550 1309 550 2009 
Q 550 2706 781 3412 
Q 1013 4119 1484 4856 
L 1984 4856 
z
" transform="scale(0.015625)"/>
      <path id="DejaVuSans-73" d="M 2834 3397 
L 2834 2853 
Q 2591 2978 2328 3040 
Q 2066 3103 1784 3103 
Q 1356 3103 1142 2972 
Q 928 2841 928 2578 
Q 928 2378 1081 2264 
Q 1234 2150 1697 2047 
L 1894 2003 
Q 2506 1872 2764 1633 
Q 3022 1394 3022 966 
Q 3022 478 2636 193 
Q 2250 -91 1575 -91 
Q 1294 -91 989 -36 
Q 684 19 347 128 
L 347 722 
Q 666 556 975 473 
Q 1284 391 1588 391 
Q 1994 391 2212 530 
Q 2431 669 2431 922 
Q 2431 1156 2273 1281 
Q 2116 1406 1581 1522 
L 1381 1569 
Q 847 1681 609 1914 
Q 372 2147 372 2553 
Q 372 3047 722 3315 
Q 1072 3584 1716 3584 
Q 2034 3584 2315 3537 
Q 2597 3491 2834 3397 
z
" transform="scale(0.015625)"/>
      <path id="DejaVuSans-68" d="M 3513 2113 
L 3513 0 
L 2938 0 
L 2938 2094 
Q 2938 2591 2744 2837 
Q 2550 3084 2163 3084 
Q 1697 3084 1428 2787 
Q 1159 2491 1159 1978 
L 1159 0 
L 581 0 
L 581 4863 
L 1159 4863 
L 1159 2956 
Q 1366 3272 1645 3428 
Q 1925 3584 2291 3584 
Q 2894 3584 3203 3211 
Q 3513 2838 3513 2113 
z
" transform="scale(0.015625)"/>
      <path id="DejaVuSans-70" d="M 1159 525 
L 1159 -1331 
L 581 -1331 
L 581 3500 
L 1159 3500 
L 1159 2969 
Q 1341 3281 1617 3432 
Q 1894 3584 2278 3584 
Q 2916 3584 3314 3078 
Q 3713 2572 3713 1747 
Q 3713 922 3314 415 
Q 2916 -91 2278 -91 
Q 1894 -91 1617 61 
Q 1341 213 1159 525 
z
M 3116 1747 
Q 3116 2381 2855 2742 
Q 2594 3103 2138 3103 
Q 1681 3103 1420 2742 
Q 1159 2381 1159 1747 
Q 1159 1113 1420 752 
Q 1681 391 2138 391 
Q 2594 391 2855 752 
Q 3116 1113 3116 1747 
z
" transform="scale(0.015625)"/>
      <path id="DejaVuSans-29" d="M 513 4856 
L 1013 4856 
Q 1481 4119 1714 3412 
Q 1947 2706 1947 2009 
Q 1947 1309 1714 600 
Q 1481 -109 1013 -844 
L 513 -844 
Q 928 -128 1133 580 
Q 1338 1288 1338 2009 
Q 1338 2731 1133 3434 
Q 928 4138 513 4856 
z
" transform="scale(0.015625)"/>
      <path id="DejaVuSans-59" d="M -13 4666 
L 666 4666 
L 1959 2747 
L 3244 4666 
L 3922 4666 
L 2272 2222 
L 2272 0 
L 1638 0 
L 1638 2222 
L -13 4666 
z
" transform="scale(0.015625)"/>
      <path id="DejaVuSans-55" d="M 556 4666 
L 1191 4666 
L 1191 1831 
Q 1191 1081 1462 751 
Q 1734 422 2344 422 
Q 2950 422 3222 751 
Q 3494 1081 3494 1831 
L 3494 4666 
L 4128 4666 
L 4128 1753 
Q 4128 841 3676 375 
Q 3225 -91 2344 -91 
Q 1459 -91 1007 375 
Q 556 841 556 1753 
L 556 4666 
z
" transform="scale(0.015625)"/>
      <path id="DejaVuSans-3a" d="M 750 794 
L 1409 794 
L 1409 0 
L 750 0 
L 750 794 
z
M 750 3309 
L 1409 3309 
L 1409 2516 
L 750 2516 
L 750 3309 
z
" transform="scale(0.015625)"/>
     </defs>
     <use xlink:href="#DejaVuSans-56"/>
     <use xlink:href="#DejaVuSans-49" x="68.408203"/>
     <use xlink:href="#DejaVuSans-58" x="97.900391"/>
     <use xlink:href="#DejaVuSans-20" x="166.40625"/>
     <use xlink:href="#DejaVuSans-61" x="198.193359"/>
     <use xlink:href="#DejaVuSans-6e" x="259.472656"/>
     <use xlink:href="#DejaVuSans-64" x="322.851562"/>
     <use xlink:href="#DejaVuSans-20" x="386.328125"/>
     <use xlink:href="#DejaVuSans-43" x="418.115234"/>
     <use xlink:href="#DejaVuSans-75" x="487.939453"/>
     <use xlink:href="#DejaVuSans-6d" x="551.318359"/>
     <use xlink:href="#DejaVuSans-75" x="648.730469"/>
     <use xlink:href="#DejaVuSans-6c" x="712.109375"/>
     <use xlink:href="#DejaVuSans-61" x="739.892578"/>
     <use xlink:href="#DejaVuSans-74" x="801.171875"/>
     <use xlink:href="#DejaVuSans-69" x="840.380859"/>
     <use xlink:href="#DejaVuSans-76" x="868.164062"/>
     <use xlink:href="#DejaVuSans-65" x="927.34375"/>
     <use xlink:href="#DejaVuSans-20" x="988.867188"/>
     <use xlink:href="#DejaVuSans-50" x="1020.654297"/>
     <use xlink:href="#DejaVuSans-72" x="1079.207031"/>
     <use xlink:href="#DejaVuSans-6f" x="1118.070312"/>
     <use xlink:href="#DejaVuSans-62" x="1179.251953"/>
     <use xlink:href="#DejaVuSans-61" x="1242.728516"/>
     <use xlink:href="#DejaVuSans-62" x="1304.007812"/>
     <use xlink:href="#DejaVuSans-69" x="1367.484375"/>
     <use xlink:href="#DejaVuSans-6c" x="1395.267578"/>
     <use xlink:href="#DejaVuSans-69" x="1423.050781"/>
     <use xlink:href="#DejaVuSans-74" x="1450.833984"/>
     <use xlink:href="#DejaVuSans-79" x="1490.042969"/>
     <use xlink:href="#DejaVuSans-20" x="1549.222656"/>
     <use xlink:href="#DejaVuSans-49" x="1581.009766"/>
     <use xlink:href="#DejaVuSans-6e" x="1610.501953"/>
     <use xlink:href="#DejaVuSans-64" x="1673.880859"/>
     <use xlink:href="#DejaVuSans-69" x="1737.357422"/>
     <use xlink:href="#DejaVuSans-63" x="1765.140625"/>
     <use xlink:href="#DejaVuSans-61" x="1820.121094"/>
     <use xlink:href="#DejaVuSans-74" x="1881.400391"/>
     <use xlink:href="#DejaVuSans-6f" x="1920.609375"/>
     <use xlink:href="#DejaVuSans-72" x="1981.791016"/>
     <use xlink:href="#DejaVuSans-20" x="2022.904297"/>
     <use xlink:href="#DejaVuSans-28" x="2054.691406"/>
     <use xlink:href="#DejaVuSans-73" x="2093.705078"/>
     <use xlink:href="#DejaVuSans-6d" x="2145.804688"/>
     <use xlink:href="#DejaVuSans-6f" x="2243.216797"/>
     <use xlink:href="#DejaVuSans-6f" x="2304.398438"/>
     <use xlink:href="#DejaVuSans-74" x="2365.580078"/>
     <use xlink:href="#DejaVuSans-68" x="2404.789062"/>
     <use xlink:href="#DejaVuSans-65" x="2468.167969"/>
     <use xlink:href="#DejaVuSans-64" x="2529.691406"/>
     <use xlink:href="#DejaVuSans-20" x="2593.167969"/>
     <use xlink:href="#DejaVuSans-33" x="2624.955078"/>
     <use xlink:href="#DejaVuSans-30" x="2688.578125"/>
     <use xlink:href="#DejaVuSans-20" x="2752.201172"/>
     <use xlink:href="#DejaVuSans-70" x="2783.988281"/>
     <use xlink:href="#DejaVuSans-65" x="2847.464844"/>
     <use xlink:href="#DejaVuSans-72" x="2908.988281"/>
     <use xlink:href="#DejaVuSans-69" x="2950.101562"/>
     <use xlink:href="#DejaVuSans-6f" x="2977.884766"/>
     <use xlink:href="#DejaVuSans-64" x="3039.066406"/>
     <use xlink:href="#DejaVuSans-73" x="3102.542969"/>
     <use xlink:href="#DejaVuSans-29" x="3154.642578"/>
     <use xlink:href="#DejaVuSans-20" x="3193.65625"/>
     <use xlink:href="#DejaVuSans-2d" x="3225.443359"/>
     <use xlink:href="#DejaVuSans-20" x="3261.527344"/>
     <use xlink:href="#DejaVuSans-33" x="3293.314453"/>
     <use xlink:href="#DejaVuSans-59" x="3356.9375"/>
     <use xlink:href="#DejaVuSans-20" x="3418.021484"/>
     <use xlink:href="#DejaVuSans-28" x="3449.808594"/>
     <use xlink:href="#DejaVuSans-55" x="3488.822266"/>
     <use xlink:href="#DejaVuSans-70" x="3562.015625"/>
     <use xlink:href="#DejaVuSans-64" x="3625.492188"/>
     <use xlink:href="#DejaVuSans-61" x="3688.96875"/>
     <use xlink:href="#DejaVuSans-74" x="3750.248047"/>
     <use xlink:href="#DejaVuSans-65" x="3789.457031"/>
     <use xlink:href="#DejaVuSans-64" x="3850.980469"/>
     <use xlink:href="#DejaVuSans-20" x="3914.457031"/>
     <use xlink:href="#DejaVuSans-32" x="3946.244141"/>
     <use xlink:href="#DejaVuSans-30" x="4009.867188"/>
     <use xlink:href="#DejaVuSans-32" x="4073.490234"/>
     <use xlink:href="#DejaVuSans-34" x="4137.113281"/>
     <use xlink:href="#DejaVuSans-2d" x="4200.736328"/>
     <use xlink:href="#DejaVuSans-30" x="4236.820312"/>
     <use xlink:href="#DejaVuSans-33" x="4300.443359"/>
     <use xlink:href="#DejaVuSans-2d" x="4364.066406"/>
     <use xlink:href="#DejaVuSans-31" x="4400.150391"/>
     <use xlink:href="#DejaVuSans-39" x="4463.773438"/>
     <use xlink:href="#DejaVuSans-20" x="4527.396484"/>
     <use xlink:href="#DejaVuSans-30" x="4559.183594"/>
     <use xlink:href="#DejaVuSans-38" x="4622.806641"/>
     <use xlink:href="#DejaVuSans-3a" x="4686.429688"/>
     <use xlink:href="#DejaVuSans-32" x="4720.121094"/>
     <use xlink:href="#DejaVuSans-34" x="4783.744141"/>
     <use xlink:href="#DejaVuSans-3a" x="4847.367188"/>
     <use xlink:href="#DejaVuSans-31" x="4881.058594"/>
     <use xlink:href="#DejaVuSans-37" x="4944.681641"/>
     <use xlink:href="#DejaVuSans-29" x="5008.304688"/>
    </g>
   </g>
  </g>
  <g id="legend_1">
   <g id="patch_11">
    <path d="M 7 37.35625 
L 83.190625 37.35625 
Q 85.190625 37.35625 85.190625 35.35625 
L 85.190625 7 
Q 85.190625 5 83.190625 5 
L 7 5 
Q 5 5 5 7 
L 5 35.35625 
Q 5 37.35625 7 37.35625 
z
" style="fill: #ffffff; opacity: 0.8; stroke: #cccccc; stroke-linejoin: miter"/>
   </g>
   <g id="line2d_26">
    <path d="M 9 13.098437 
L 19 13.098437 
L 29 13.098437 
" style="fill: none; stroke: #0000ff; stroke-width: 1.5; stroke-linecap: square"/>
   </g>
   <g id="text_28">
    <!-- VIX -->
    <g transform="translate(37 16.598437) scale(0.1 -0.1)">
     <use xlink:href="#DejaVuSans-56"/>
     <use xlink:href="#DejaVuSans-49" x="68.408203"/>
     <use xlink:href="#DejaVuSans-58" x="97.900391"/>
    </g>
   </g>
   <g id="line2d_27">
    <path d="M 9 27.776563 
L 19 27.776563 
L 29 27.776563 
" style="fill: none; stroke: #ff0000; stroke-width: 1.5; stroke-linecap: square"/>
   </g>
   <g id="text_29">
    <!-- Indicator -->
    <g transform="translate(37 31.276563) scale(0.1 -0.1)">
     <use xlink:href="#DejaVuSans-49"/>
     <use xlink:href="#DejaVuSans-6e" x="29.492188"/>
     <use xlink:href="#DejaVuSans-64" x="92.871094"/>
     <use xlink:href="#DejaVuSans-69" x="156.347656"/>
     <use xlink:href="#DejaVuSans-63" x="184.130859"/>
     <use xlink:href="#DejaVuSans-61" x="239.111328"/>
     <use xlink:href="#DejaVuSans-74" x="300.390625"/>
     <use xlink:href="#DejaVuSans-6f" x="339.599609"/>
     <use xlink:href="#DejaVuSans-72" x="400.78125"/>
    </g>
   </g>
  </g>
 </g>
 <defs>
  <clipPath id="pae9b6fd566">
   <rect x="162" y="34.56" width="1004.4" height="221.76"/>
  </clipPath>
 </defs>
</svg>
