<?xml version="1.0" encoding="utf-8" standalone="no"?>
<!DOCTYPE svg PUBLIC "-//W3C//DTD SVG 1.1//EN"
  "http://www.w3.org/Graphics/SVG/1.1/DTD/svg11.dtd">
<svg xmlns:xlink="http://www.w3.org/1999/xlink" width="1152pt" height="576pt" viewBox="0 0 1152 576" xmlns="http://www.w3.org/2000/svg" version="1.1">
 <metadata>
  <rdf:RDF xmlns:dc="http://purl.org/dc/elements/1.1/" xmlns:cc="http://creativecommons.org/ns#" xmlns:rdf="http://www.w3.org/1999/02/22-rdf-syntax-ns#">
   <cc:Work>
    <dc:type rdf:resource="http://purl.org/dc/dcmitype/StillImage"/>
    <dc:date>2024-03-18T18:51:22.870982</dc:date>
    <dc:format>image/svg+xml</dc:format>
    <dc:creator>
     <cc:Agent>
      <dc:title>Matplotlib v3.8.0, https://matplotlib.org/</dc:title>
     </cc:Agent>
    </dc:creator>
   </cc:Work>
  </rdf:RDF>
 </metadata>
 <defs>
  <style type="text/css">*{stroke-linejoin: round; stroke-linecap: butt}</style>
 </defs>
 <g id="figure_1">
  <g id="patch_1">
   <path d="M 0 576 
L 1152 576 
L 1152 0 
L 0 0 
z
" style="fill: #ffffff"/>
  </g>
  <g id="axes_1">
   <g id="patch_2">
    <path d="M 144 512.64 
L 1036.8 512.64 
L 1036.8 69.12 
L 144 69.12 
z
" style="fill: #ffffff"/>
   </g>
   <g id="matplotlib.axis_1">
    <g id="xtick_1">
     <g id="line2d_1">
      <defs>
       <path id="m27c5e5c6cf" d="M 0 0 
L 0 3.5 
" style="stroke: #000000; stroke-width: 0.8"/>
      </defs>
      <g>
       <use xlink:href="#m27c5e5c6cf" x="217.16576" y="512.64" style="stroke: #000000; stroke-width: 0.8"/>
      </g>
     </g>
     <g id="text_1">
      <!-- 2021-05 -->
      <g transform="translate(196.274354 527.238438) scale(0.1 -0.1)">
       <defs>
        <path id="DejaVuSans-32" d="M 1228 531 
L 3431 531 
L 3431 0 
L 469 0 
L 469 531 
Q 828 903 1448 1529 
Q 2069 2156 2228 2338 
Q 2531 2678 2651 2914 
Q 2772 3150 2772 3378 
Q 2772 3750 2511 3984 
Q 2250 4219 1831 4219 
Q 1534 4219 1204 4116 
Q 875 4013 500 3803 
L 500 4441 
Q 881 4594 1212 4672 
Q 1544 4750 1819 4750 
Q 2544 4750 2975 4387 
Q 3406 4025 3406 3419 
Q 3406 3131 3298 2873 
Q 3191 2616 2906 2266 
Q 2828 2175 2409 1742 
Q 1991 1309 1228 531 
z
" transform="scale(0.015625)"/>
        <path id="DejaVuSans-30" d="M 2034 4250 
Q 1547 4250 1301 3770 
Q 1056 3291 1056 2328 
Q 1056 1369 1301 889 
Q 1547 409 2034 409 
Q 2525 409 2770 889 
Q 3016 1369 3016 2328 
Q 3016 3291 2770 3770 
Q 2525 4250 2034 4250 
z
M 2034 4750 
Q 2819 4750 3233 4129 
Q 3647 3509 3647 2328 
Q 3647 1150 3233 529 
Q 2819 -91 2034 -91 
Q 1250 -91 836 529 
Q 422 1150 422 2328 
Q 422 3509 836 4129 
Q 1250 4750 2034 4750 
z
" transform="scale(0.015625)"/>
        <path id="DejaVuSans-31" d="M 794 531 
L 1825 531 
L 1825 4091 
L 703 3866 
L 703 4441 
L 1819 4666 
L 2450 4666 
L 2450 531 
L 3481 531 
L 3481 0 
L 794 0 
L 794 531 
z
" transform="scale(0.015625)"/>
        <path id="DejaVuSans-2d" d="M 313 2009 
L 1997 2009 
L 1997 1497 
L 313 1497 
L 313 2009 
z
" transform="scale(0.015625)"/>
        <path id="DejaVuSans-35" d="M 691 4666 
L 3169 4666 
L 3169 4134 
L 1269 4134 
L 1269 2991 
Q 1406 3038 1543 3061 
Q 1681 3084 1819 3084 
Q 2600 3084 3056 2656 
Q 3513 2228 3513 1497 
Q 3513 744 3044 326 
Q 2575 -91 1722 -91 
Q 1428 -91 1123 -41 
Q 819 9 494 109 
L 494 744 
Q 775 591 1075 516 
Q 1375 441 1709 441 
Q 2250 441 2565 725 
Q 2881 1009 2881 1497 
Q 2881 1984 2565 2268 
Q 2250 2553 1709 2553 
Q 1456 2553 1204 2497 
Q 953 2441 691 2322 
L 691 4666 
z
" transform="scale(0.015625)"/>
       </defs>
       <use xlink:href="#DejaVuSans-32"/>
       <use xlink:href="#DejaVuSans-30" x="63.623047"/>
       <use xlink:href="#DejaVuSans-32" x="127.246094"/>
       <use xlink:href="#DejaVuSans-31" x="190.869141"/>
       <use xlink:href="#DejaVuSans-2d" x="254.492188"/>
       <use xlink:href="#DejaVuSans-30" x="290.576172"/>
       <use xlink:href="#DejaVuSans-35" x="354.199219"/>
      </g>
     </g>
    </g>
    <g id="xtick_2">
     <g id="line2d_2">
      <g>
       <use xlink:href="#m27c5e5c6cf" x="308.252687" y="512.64" style="stroke: #000000; stroke-width: 0.8"/>
      </g>
     </g>
     <g id="text_2">
      <!-- 2021-09 -->
      <g transform="translate(287.361281 527.238438) scale(0.1 -0.1)">
       <defs>
        <path id="DejaVuSans-39" d="M 703 97 
L 703 672 
Q 941 559 1184 500 
Q 1428 441 1663 441 
Q 2288 441 2617 861 
Q 2947 1281 2994 2138 
Q 2813 1869 2534 1725 
Q 2256 1581 1919 1581 
Q 1219 1581 811 2004 
Q 403 2428 403 3163 
Q 403 3881 828 4315 
Q 1253 4750 1959 4750 
Q 2769 4750 3195 4129 
Q 3622 3509 3622 2328 
Q 3622 1225 3098 567 
Q 2575 -91 1691 -91 
Q 1453 -91 1209 -44 
Q 966 3 703 97 
z
M 1959 2075 
Q 2384 2075 2632 2365 
Q 2881 2656 2881 3163 
Q 2881 3666 2632 3958 
Q 2384 4250 1959 4250 
Q 1534 4250 1286 3958 
Q 1038 3666 1038 3163 
Q 1038 2656 1286 2365 
Q 1534 2075 1959 2075 
z
" transform="scale(0.015625)"/>
       </defs>
       <use xlink:href="#DejaVuSans-32"/>
       <use xlink:href="#DejaVuSans-30" x="63.623047"/>
       <use xlink:href="#DejaVuSans-32" x="127.246094"/>
       <use xlink:href="#DejaVuSans-31" x="190.869141"/>
       <use xlink:href="#DejaVuSans-2d" x="254.492188"/>
       <use xlink:href="#DejaVuSans-30" x="290.576172"/>
       <use xlink:href="#DejaVuSans-39" x="354.199219"/>
      </g>
     </g>
    </g>
    <g id="xtick_3">
     <g id="line2d_3">
      <g>
       <use xlink:href="#m27c5e5c6cf" x="398.629927" y="512.64" style="stroke: #000000; stroke-width: 0.8"/>
      </g>
     </g>
     <g id="text_3">
      <!-- 2022-01 -->
      <g transform="translate(377.738521 527.238438) scale(0.1 -0.1)">
       <use xlink:href="#DejaVuSans-32"/>
       <use xlink:href="#DejaVuSans-30" x="63.623047"/>
       <use xlink:href="#DejaVuSans-32" x="127.246094"/>
       <use xlink:href="#DejaVuSans-32" x="190.869141"/>
       <use xlink:href="#DejaVuSans-2d" x="254.492188"/>
       <use xlink:href="#DejaVuSans-30" x="290.576172"/>
       <use xlink:href="#DejaVuSans-31" x="354.199219"/>
      </g>
     </g>
    </g>
    <g id="xtick_4">
     <g id="line2d_4">
      <g>
       <use xlink:href="#m27c5e5c6cf" x="487.464366" y="512.64" style="stroke: #000000; stroke-width: 0.8"/>
      </g>
     </g>
     <g id="text_4">
      <!-- 2022-05 -->
      <g transform="translate(466.57296 527.238438) scale(0.1 -0.1)">
       <use xlink:href="#DejaVuSans-32"/>
       <use xlink:href="#DejaVuSans-30" x="63.623047"/>
       <use xlink:href="#DejaVuSans-32" x="127.246094"/>
       <use xlink:href="#DejaVuSans-32" x="190.869141"/>
       <use xlink:href="#DejaVuSans-2d" x="254.492188"/>
       <use xlink:href="#DejaVuSans-30" x="290.576172"/>
       <use xlink:href="#DejaVuSans-35" x="354.199219"/>
      </g>
     </g>
    </g>
    <g id="xtick_5">
     <g id="line2d_5">
      <g>
       <use xlink:href="#m27c5e5c6cf" x="578.551294" y="512.64" style="stroke: #000000; stroke-width: 0.8"/>
      </g>
     </g>
     <g id="text_5">
      <!-- 2022-09 -->
      <g transform="translate(557.659888 527.238438) scale(0.1 -0.1)">
       <use xlink:href="#DejaVuSans-32"/>
       <use xlink:href="#DejaVuSans-30" x="63.623047"/>
       <use xlink:href="#DejaVuSans-32" x="127.246094"/>
       <use xlink:href="#DejaVuSans-32" x="190.869141"/>
       <use xlink:href="#DejaVuSans-2d" x="254.492188"/>
       <use xlink:href="#DejaVuSans-30" x="290.576172"/>
       <use xlink:href="#DejaVuSans-39" x="354.199219"/>
      </g>
     </g>
    </g>
    <g id="xtick_6">
     <g id="line2d_6">
      <g>
       <use xlink:href="#m27c5e5c6cf" x="668.928534" y="512.64" style="stroke: #000000; stroke-width: 0.8"/>
      </g>
     </g>
     <g id="text_6">
      <!-- 2023-01 -->
      <g transform="translate(648.037127 527.238438) scale(0.1 -0.1)">
       <defs>
        <path id="DejaVuSans-33" d="M 2597 2516 
Q 3050 2419 3304 2112 
Q 3559 1806 3559 1356 
Q 3559 666 3084 287 
Q 2609 -91 1734 -91 
Q 1441 -91 1130 -33 
Q 819 25 488 141 
L 488 750 
Q 750 597 1062 519 
Q 1375 441 1716 441 
Q 2309 441 2620 675 
Q 2931 909 2931 1356 
Q 2931 1769 2642 2001 
Q 2353 2234 1838 2234 
L 1294 2234 
L 1294 2753 
L 1863 2753 
Q 2328 2753 2575 2939 
Q 2822 3125 2822 3475 
Q 2822 3834 2567 4026 
Q 2313 4219 1838 4219 
Q 1578 4219 1281 4162 
Q 984 4106 628 3988 
L 628 4550 
Q 988 4650 1302 4700 
Q 1616 4750 1894 4750 
Q 2613 4750 3031 4423 
Q 3450 4097 3450 3541 
Q 3450 3153 3228 2886 
Q 3006 2619 2597 2516 
z
" transform="scale(0.015625)"/>
       </defs>
       <use xlink:href="#DejaVuSans-32"/>
       <use xlink:href="#DejaVuSans-30" x="63.623047"/>
       <use xlink:href="#DejaVuSans-32" x="127.246094"/>
       <use xlink:href="#DejaVuSans-33" x="190.869141"/>
       <use xlink:href="#DejaVuSans-2d" x="254.492188"/>
       <use xlink:href="#DejaVuSans-30" x="290.576172"/>
       <use xlink:href="#DejaVuSans-31" x="354.199219"/>
      </g>
     </g>
    </g>
    <g id="xtick_7">
     <g id="line2d_7">
      <g>
       <use xlink:href="#m27c5e5c6cf" x="757.762973" y="512.64" style="stroke: #000000; stroke-width: 0.8"/>
      </g>
     </g>
     <g id="text_7">
      <!-- 2023-05 -->
      <g transform="translate(736.871567 527.238438) scale(0.1 -0.1)">
       <use xlink:href="#DejaVuSans-32"/>
       <use xlink:href="#DejaVuSans-30" x="63.623047"/>
       <use xlink:href="#DejaVuSans-32" x="127.246094"/>
       <use xlink:href="#DejaVuSans-33" x="190.869141"/>
       <use xlink:href="#DejaVuSans-2d" x="254.492188"/>
       <use xlink:href="#DejaVuSans-30" x="290.576172"/>
       <use xlink:href="#DejaVuSans-35" x="354.199219"/>
      </g>
     </g>
    </g>
    <g id="xtick_8">
     <g id="line2d_8">
      <g>
       <use xlink:href="#m27c5e5c6cf" x="848.8499" y="512.64" style="stroke: #000000; stroke-width: 0.8"/>
      </g>
     </g>
     <g id="text_8">
      <!-- 2023-09 -->
      <g transform="translate(827.958494 527.238438) scale(0.1 -0.1)">
       <use xlink:href="#DejaVuSans-32"/>
       <use xlink:href="#DejaVuSans-30" x="63.623047"/>
       <use xlink:href="#DejaVuSans-32" x="127.246094"/>
       <use xlink:href="#DejaVuSans-33" x="190.869141"/>
       <use xlink:href="#DejaVuSans-2d" x="254.492188"/>
       <use xlink:href="#DejaVuSans-30" x="290.576172"/>
       <use xlink:href="#DejaVuSans-39" x="354.199219"/>
      </g>
     </g>
    </g>
    <g id="xtick_9">
     <g id="line2d_9">
      <g>
       <use xlink:href="#m27c5e5c6cf" x="939.22714" y="512.64" style="stroke: #000000; stroke-width: 0.8"/>
      </g>
     </g>
     <g id="text_9">
      <!-- 2024-01 -->
      <g transform="translate(918.335734 527.238438) scale(0.1 -0.1)">
       <defs>
        <path id="DejaVuSans-34" d="M 2419 4116 
L 825 1625 
L 2419 1625 
L 2419 4116 
z
M 2253 4666 
L 3047 4666 
L 3047 1625 
L 3713 1625 
L 3713 1100 
L 3047 1100 
L 3047 0 
L 2419 0 
L 2419 1100 
L 313 1100 
L 313 1709 
L 2253 4666 
z
" transform="scale(0.015625)"/>
       </defs>
       <use xlink:href="#DejaVuSans-32"/>
       <use xlink:href="#DejaVuSans-30" x="63.623047"/>
       <use xlink:href="#DejaVuSans-32" x="127.246094"/>
       <use xlink:href="#DejaVuSans-34" x="190.869141"/>
       <use xlink:href="#DejaVuSans-2d" x="254.492188"/>
       <use xlink:href="#DejaVuSans-30" x="290.576172"/>
       <use xlink:href="#DejaVuSans-31" x="354.199219"/>
      </g>
     </g>
    </g>
    <g id="xtick_10">
     <g id="line2d_10">
      <g>
       <use xlink:href="#m27c5e5c6cf" x="1028.802123" y="512.64" style="stroke: #000000; stroke-width: 0.8"/>
      </g>
     </g>
     <g id="text_10">
      <!-- 2024-05 -->
      <g transform="translate(1007.910717 527.238438) scale(0.1 -0.1)">
       <use xlink:href="#DejaVuSans-32"/>
       <use xlink:href="#DejaVuSans-30" x="63.623047"/>
       <use xlink:href="#DejaVuSans-32" x="127.246094"/>
       <use xlink:href="#DejaVuSans-34" x="190.869141"/>
       <use xlink:href="#DejaVuSans-2d" x="254.492188"/>
       <use xlink:href="#DejaVuSans-30" x="290.576172"/>
       <use xlink:href="#DejaVuSans-35" x="354.199219"/>
      </g>
     </g>
    </g>
    <g id="text_11">
     <!-- Date -->
     <g transform="translate(578.449219 540.916563) scale(0.1 -0.1)">
      <defs>
       <path id="DejaVuSans-44" d="M 1259 4147 
L 1259 519 
L 2022 519 
Q 2988 519 3436 956 
Q 3884 1394 3884 2338 
Q 3884 3275 3436 3711 
Q 2988 4147 2022 4147 
L 1259 4147 
z
M 628 4666 
L 1925 4666 
Q 3281 4666 3915 4102 
Q 4550 3538 4550 2338 
Q 4550 1131 3912 565 
Q 3275 0 1925 0 
L 628 0 
L 628 4666 
z
" transform="scale(0.015625)"/>
       <path id="DejaVuSans-61" d="M 2194 1759 
Q 1497 1759 1228 1600 
Q 959 1441 959 1056 
Q 959 750 1161 570 
Q 1363 391 1709 391 
Q 2188 391 2477 730 
Q 2766 1069 2766 1631 
L 2766 1759 
L 2194 1759 
z
M 3341 1997 
L 3341 0 
L 2766 0 
L 2766 531 
Q 2569 213 2275 61 
Q 1981 -91 1556 -91 
Q 1019 -91 701 211 
Q 384 513 384 1019 
Q 384 1609 779 1909 
Q 1175 2209 1959 2209 
L 2766 2209 
L 2766 2266 
Q 2766 2663 2505 2880 
Q 2244 3097 1772 3097 
Q 1472 3097 1187 3025 
Q 903 2953 641 2809 
L 641 3341 
Q 956 3463 1253 3523 
Q 1550 3584 1831 3584 
Q 2591 3584 2966 3190 
Q 3341 2797 3341 1997 
z
" transform="scale(0.015625)"/>
       <path id="DejaVuSans-74" d="M 1172 4494 
L 1172 3500 
L 2356 3500 
L 2356 3053 
L 1172 3053 
L 1172 1153 
Q 1172 725 1289 603 
Q 1406 481 1766 481 
L 2356 481 
L 2356 0 
L 1766 0 
Q 1100 0 847 248 
Q 594 497 594 1153 
L 594 3053 
L 172 3053 
L 172 3500 
L 594 3500 
L 594 4494 
L 1172 4494 
z
" transform="scale(0.015625)"/>
       <path id="DejaVuSans-65" d="M 3597 1894 
L 3597 1613 
L 953 1613 
Q 991 1019 1311 708 
Q 1631 397 2203 397 
Q 2534 397 2845 478 
Q 3156 559 3463 722 
L 3463 178 
Q 3153 47 2828 -22 
Q 2503 -91 2169 -91 
Q 1331 -91 842 396 
Q 353 884 353 1716 
Q 353 2575 817 3079 
Q 1281 3584 2069 3584 
Q 2775 3584 3186 3129 
Q 3597 2675 3597 1894 
z
M 3022 2063 
Q 3016 2534 2758 2815 
Q 2500 3097 2075 3097 
Q 1594 3097 1305 2825 
Q 1016 2553 972 2059 
L 3022 2063 
z
" transform="scale(0.015625)"/>
      </defs>
      <use xlink:href="#DejaVuSans-44"/>
      <use xlink:href="#DejaVuSans-61" x="77.001953"/>
      <use xlink:href="#DejaVuSans-74" x="138.28125"/>
      <use xlink:href="#DejaVuSans-65" x="177.490234"/>
     </g>
    </g>
   </g>
   <g id="matplotlib.axis_2">
    <g id="ytick_1">
     <g id="line2d_11">
      <defs>
       <path id="m7d0a50e14e" d="M 0 0 
L -3.5 0 
" style="stroke: #0000ff; stroke-width: 0.8"/>
      </defs>
      <g>
       <use xlink:href="#m7d0a50e14e" x="144" y="444.023229" style="fill: #0000ff; stroke: #0000ff; stroke-width: 0.8"/>
      </g>
     </g>
     <g id="text_12">
      <!-- 15 -->
      <g style="fill: #0000ff" transform="translate(124.275 447.822448) scale(0.1 -0.1)">
       <use xlink:href="#DejaVuSans-31"/>
       <use xlink:href="#DejaVuSans-35" x="63.623047"/>
      </g>
     </g>
    </g>
    <g id="ytick_2">
     <g id="line2d_12">
      <g>
       <use xlink:href="#m7d0a50e14e" x="144" y="361.332503" style="fill: #0000ff; stroke: #0000ff; stroke-width: 0.8"/>
      </g>
     </g>
     <g id="text_13">
      <!-- 20 -->
      <g style="fill: #0000ff" transform="translate(124.275 365.131721) scale(0.1 -0.1)">
       <use xlink:href="#DejaVuSans-32"/>
       <use xlink:href="#DejaVuSans-30" x="63.623047"/>
      </g>
     </g>
    </g>
    <g id="ytick_3">
     <g id="line2d_13">
      <g>
       <use xlink:href="#m7d0a50e14e" x="144" y="278.641776" style="fill: #0000ff; stroke: #0000ff; stroke-width: 0.8"/>
      </g>
     </g>
     <g id="text_14">
      <!-- 25 -->
      <g style="fill: #0000ff" transform="translate(124.275 282.440995) scale(0.1 -0.1)">
       <use xlink:href="#DejaVuSans-32"/>
       <use xlink:href="#DejaVuSans-35" x="63.623047"/>
      </g>
     </g>
    </g>
    <g id="ytick_4">
     <g id="line2d_14">
      <g>
       <use xlink:href="#m7d0a50e14e" x="144" y="195.95105" style="fill: #0000ff; stroke: #0000ff; stroke-width: 0.8"/>
      </g>
     </g>
     <g id="text_15">
      <!-- 30 -->
      <g style="fill: #0000ff" transform="translate(124.275 199.750269) scale(0.1 -0.1)">
       <use xlink:href="#DejaVuSans-33"/>
       <use xlink:href="#DejaVuSans-30" x="63.623047"/>
      </g>
     </g>
    </g>
    <g id="ytick_5">
     <g id="line2d_15">
      <g>
       <use xlink:href="#m7d0a50e14e" x="144" y="113.260323" style="fill: #0000ff; stroke: #0000ff; stroke-width: 0.8"/>
      </g>
     </g>
     <g id="text_16">
      <!-- 35 -->
      <g style="fill: #0000ff" transform="translate(124.275 117.059542) scale(0.1 -0.1)">
       <use xlink:href="#DejaVuSans-33"/>
       <use xlink:href="#DejaVuSans-35" x="63.623047"/>
      </g>
     </g>
    </g>
    <g id="text_17">
     <!-- VIX -->
     <g style="fill: #0000ff" transform="translate(118.195312 299.200312) rotate(-90) scale(0.1 -0.1)">
      <defs>
       <path id="DejaVuSans-56" d="M 1831 0 
L 50 4666 
L 709 4666 
L 2188 738 
L 3669 4666 
L 4325 4666 
L 2547 0 
L 1831 0 
z
" transform="scale(0.015625)"/>
       <path id="DejaVuSans-49" d="M 628 4666 
L 1259 4666 
L 1259 0 
L 628 0 
L 628 4666 
z
" transform="scale(0.015625)"/>
       <path id="DejaVuSans-58" d="M 403 4666 
L 1081 4666 
L 2241 2931 
L 3406 4666 
L 4084 4666 
L 2584 2425 
L 4184 0 
L 3506 0 
L 2194 1984 
L 872 0 
L 191 0 
L 1856 2491 
L 403 4666 
z
" transform="scale(0.015625)"/>
      </defs>
      <use xlink:href="#DejaVuSans-56"/>
      <use xlink:href="#DejaVuSans-49" x="68.408203"/>
      <use xlink:href="#DejaVuSans-58" x="97.900391"/>
     </g>
    </g>
   </g>
   <g id="line2d_16">
    <path d="M 184.581818 335.202234 
L 185.322362 345.621252 
L 187.543995 379.855239 
L 188.284539 356.371072 
L 189.025083 341.486716 
L 189.765627 364.474759 
L 190.506171 380.185978 
L 192.727804 349.094279 
L 193.468348 367.782369 
L 194.208892 371.255396 
L 194.949436 405.489352 
L 197.911612 395.897229 
L 198.652157 392.424202 
L 199.392701 408.300838 
L 200.133245 411.773833 
L 200.873789 416.073755 
L 203.095421 412.435374 
L 203.835965 416.735296 
L 204.57651 411.112324 
L 205.317054 418.058346 
L 206.057598 423.350548 
L 208.27923 406.150861 
L 209.019774 383.162849 
L 209.760319 402.677866 
L 210.500863 382.666725 
L 211.241407 405.489352 
L 213.463039 400.362536 
L 214.203583 401.685586 
L 214.944127 406.316247 
L 215.684672 400.85866 
L 216.425216 384.320515 
L 218.646848 389.281977 
L 219.387392 369.932346 
L 220.127936 375.389933 
L 220.86848 387.958927 
L 221.609025 416.073755 
L 223.830657 366.955475 
L 224.571201 330.902313 
L 225.311745 235.807977 
L 226.792833 381.012904 
L 229.014466 365.963195 
L 229.75501 339.171386 
L 230.495554 325.279341 
L 231.236098 350.251944 
L 231.976642 358.851787 
L 234.198275 387.793542 
L 234.938819 380.516749 
L 235.679363 404.993196 
L 236.419907 415.24686 
L 237.160451 414.91609 
L 240.122628 396.062614 
L 240.863172 403.008636 
L 241.603716 393.747252 
L 242.34426 420.539062 
L 244.565893 420.539062 
L 245.306437 409.789274 
L 246.046981 396.227999 
L 246.787525 425.831263 
L 247.528069 433.273441 
L 249.749701 421.035217 
L 250.490246 410.616168 
L 251.23079 391.928078 
L 251.971334 398.54333 
L 252.711878 349.755788 
L 254.93351 396.227999 
L 255.674054 416.569911 
L 257.895687 433.769581 
L 260.117319 431.454235 
L 260.857863 427.154313 
L 261.598407 430.29657 
L 262.338952 436.084927 
L 263.079496 442.865564 
L 266.041672 420.208291 
L 266.782216 424.177442 
L 267.52276 377.870648 
L 268.263305 424.508213 
L 270.484937 424.673598 
L 271.225481 408.962347 
L 271.966025 422.027497 
L 272.706569 410.781553 
L 273.447113 386.966615 
L 275.668746 319.98714 
L 276.40929 365.79781 
L 277.149834 395.897229 
L 277.890378 399.53561 
L 278.630922 407.639297 
L 280.852555 401.354816 
L 281.593099 371.916906 
L 282.333643 389.281977 
L 283.074187 399.370224 
L 283.814731 390.439642 
L 286.036364 370.263116 
L 286.776908 393.747252 
L 287.517452 394.904949 
L 288.257996 406.316247 
L 288.99854 425.004368 
L 291.220173 415.577631 
L 291.960717 414.419934 
L 293.441805 434.265721 
L 294.182349 436.581067 
L 296.403981 425.500493 
L 297.144526 395.897229 
L 297.88507 335.36762 
L 298.625614 333.713799 
L 299.366158 385.147441 
L 301.58779 408.466223 
L 302.328334 407.308558 
L 303.068879 414.419934 
L 303.809423 380.516749 
L 304.549967 421.035217 
L 306.771599 424.342827 
L 307.512143 419.546782 
L 308.252687 425.665878 
L 308.993232 420.704447 
L 309.733776 420.704447 
L 312.695952 392.093463 
L 313.436496 395.070334 
L 314.17704 381.17829 
L 314.917585 345.621252 
L 317.139217 371.75152 
L 317.879761 370.263116 
L 318.620305 391.431922 
L 319.360849 382.997464 
L 320.101393 347.936614 
L 322.323026 266.899708 
L 323.06357 289.226179 
L 323.804114 346.944302 
L 324.544658 383.989776 
L 325.285202 398.54333 
L 327.506835 381.839799 
L 328.247379 307.583531 
L 328.987923 318.99486 
L 329.728467 309.402737 
L 330.469011 343.140537 
L 332.690644 312.379608 
L 333.431188 339.832926 
L 334.171732 344.794357 
L 334.912276 368.940034 
L 335.65282 381.674414 
L 337.874453 361.332503 
L 338.614997 363.813218 
L 339.355541 383.82439 
L 340.096085 413.262269 
L 340.836629 422.523653 
L 343.058261 422.358268 
L 343.798806 432.446531 
L 344.53935 435.919542 
L 345.279894 443.857844 
L 346.020438 436.911822 
L 348.24207 440.054078 
L 348.982614 427.815854 
L 349.723159 411.277709 
L 350.463703 418.719856 
L 351.204247 423.185162 
L 353.425879 420.704447 
L 354.166423 426.988928 
L 354.906967 442.369408 
L 355.647512 436.746452 
L 356.388056 419.546782 
L 358.640544 407.308558 
L 359.381088 398.047174 
L 360.121632 382.335955 
L 360.862177 400.031765 
L 361.602721 422.689007 
L 363.824353 419.381397 
L 364.564897 421.365956 
L 365.305441 409.127733 
L 366.045985 401.18943 
L 366.78653 395.897229 
L 369.008162 375.059162 
L 369.748706 371.586167 
L 370.48925 384.81667 
L 371.970338 218.773676 
L 374.191971 312.379608 
L 375.673059 177.428313 
L 376.413603 229.854235 
L 377.154147 184.870491 
L 379.37578 242.588614 
L 380.116324 330.075418 
L 380.856868 362.986324 
L 381.597412 335.202234 
L 382.337956 382.997464 
L 384.559589 356.205687 
L 385.300133 330.075418 
L 386.040677 373.074571 
L 386.781221 351.905765 
L 387.521765 335.36762 
L 389.743397 313.868012 
L 390.483942 344.628972 
L 391.224486 383.989776 
L 391.96503 395.070334 
L 394.927206 399.700995 
L 395.66775 402.016325 
L 396.408295 411.773833 
L 397.148839 405.489352 
L 397.889383 407.308558 
L 400.111015 417.56219 
L 400.851559 412.435374 
L 401.592104 365.79781 
L 402.332648 367.782369 
L 403.073192 381.839799 
L 405.294824 371.255396 
L 406.035368 387.628156 
L 406.775912 400.693275 
L 407.516457 356.205687 
L 408.257001 374.728392 
L 411.219177 315.191062 
L 411.959721 297.660637 
L 412.700265 268.884268 
L 413.44081 214.969911 
L 415.662442 197.604871 
L 416.402986 176.766804 
L 417.14353 163.5363 
L 417.884074 187.847362 
L 418.624618 234.650312 
L 420.846251 281.453262 
L 421.586795 328.917753 
L 422.327339 326.767777 
L 423.067883 289.391564 
L 423.808427 308.079686 
L 426.03006 314.033397 
L 427.511148 361.994044 
L 428.992236 239.611743 
L 431.213869 223.569754 
L 431.954413 267.065062 
L 432.694957 290.383844 
L 433.435501 227.208134 
L 434.176045 233.161877 
L 437.138222 215.631452 
L 437.878766 179.082134 
L 438.61931 190.658848 
L 439.359854 235.807977 
L 441.581486 193.470334 
L 442.322031 141.044412 
L 443.062575 183.712826 
L 443.803119 188.012748 
L 446.765295 89.28 
L 447.505839 111.110347 
L 448.246384 155.432581 
L 448.986928 192.147284 
L 449.727472 183.547441 
L 451.918248 166.678525 
L 452.658792 198.762536 
L 453.399336 251.023072 
L 454.139881 267.561218 
L 454.880425 297.329867 
L 457.102057 302.952838 
L 457.842601 312.710347 
L 458.583145 302.291329 
L 459.323689 333.713799 
L 460.064234 347.936614 
L 462.285866 367.45163 
L 463.02641 379.524469 
L 463.766954 372.413061 
L 464.507498 352.07115 
L 465.248042 367.45163 
L 467.469675 384.982056 
L 468.210219 344.298202 
L 468.950763 326.602391 
L 469.691307 335.69839 
L 470.431851 342.148257 
L 472.653484 289.060794 
L 473.394028 290.88 
L 474.134572 331.233083 
L 474.875116 316.679498 
L 477.837293 325.444726 
L 478.577837 338.67523 
L 479.318381 356.040301 
L 480.058925 317.010268 
L 480.799469 225.554345 
L 483.021102 245.234715 
L 483.761646 137.736771 
L 484.50219 169.490011 
L 485.242734 196.116435 
L 485.983278 139.721331 
L 488.20491 157.251787 
L 488.945455 208.354659 
L 489.685999 271.695754 
L 490.426543 176.105263 
L 491.167087 192.808793 
L 493.388719 117.39486 
L 494.129263 146.501968 
L 494.869808 153.613375 
L 495.610352 166.678525 
L 496.350896 214.63914 
L 498.572528 237.792569 
L 499.313072 260.44981 
L 500.053616 180.074445 
L 500.794161 206.700838 
L 501.534705 205.377788 
L 503.756337 221.089038 
L 504.496881 205.047017 
L 505.237425 222.908213 
L 505.977969 237.296413 
L 506.718514 266.734323 
L 509.68069 258.961375 
L 510.421234 267.230447 
L 511.161778 283.272468 
L 511.902322 282.114772 
L 514.123955 277.484111 
L 514.864499 294.849151 
L 515.605043 295.841463 
L 516.345587 260.615195 
L 517.086131 233.161877 
L 519.307764 129.467698 
L 520.048308 151.463462 
L 520.788852 202.235531 
L 521.529396 147.163509 
L 522.26994 177.262959 
L 525.232117 192.808793 
L 525.972661 213.31609 
L 526.713205 211.6623 
L 527.453749 241.76172 
L 529.675382 246.39238 
L 530.415926 223.073598 
L 531.15647 226.38124 
L 531.897014 217.285272 
L 532.637558 250.526917 
L 535.599735 236.634872 
L 536.340279 250.030792 
L 537.080823 260.780581 
L 537.821367 284.595519 
L 540.042999 259.292145 
L 540.783543 240.769408 
L 542.264632 255.488379 
L 543.005176 291.376156 
L 545.226808 273.680345 
L 545.967352 286.910849 
L 546.707896 297.164513 
L 547.448441 309.898861 
L 548.188985 311.221911 
L 550.410617 305.764324 
L 551.151161 283.768592 
L 551.891705 307.748916 
L 553.372794 339.336771 
L 555.594426 314.364168 
L 556.33497 296.337587 
L 557.075514 329.083107 
L 557.816058 337.517565 
L 558.556603 342.313642 
L 560.778235 339.99828 
L 561.518779 332.059978 
L 562.259323 365.632424 
L 562.999867 358.024861 
L 563.740411 369.10542 
L 565.962044 362.159397 
L 566.702588 366.459319 
L 567.443132 362.986324 
L 568.183676 368.609296 
L 571.145853 298.487563 
L 571.886397 293.360715 
L 572.626941 314.694938 
L 573.367485 331.894593 
L 574.108029 269.380424 
L 576.329662 258.630636 
L 577.070206 258.630636 
L 578.551294 269.380424 
L 579.291838 270.868859 
L 582.254015 247.053921 
L 582.994559 284.595519 
L 583.735103 301.629788 
L 584.475647 315.191062 
L 586.697279 297.329867 
L 587.437823 241.100179 
L 588.178368 259.45753 
L 588.918912 257.638324 
L 589.659456 257.1422 
L 591.881088 266.072782 
L 592.621632 242.919385 
L 593.362177 229.192726 
L 594.102721 239.777129 
L 594.843265 197.2741 
L 597.064897 158.574869 
L 597.805441 152.951897 
L 598.545985 192.974179 
L 599.28653 165.52086 
L 600.027074 169.159241 
L 602.248706 194.297229 
L 602.98925 211.33153 
L 603.729794 219.931373 
L 604.470338 187.351207 
L 605.210883 173.459162 
L 607.432515 155.432581 
L 608.173059 135.917565 
L 608.913603 136.909876 
L 609.654147 163.867039 
L 610.394691 162.543989 
L 612.616324 173.293777 
L 613.356868 187.681977 
L 614.097412 183.382056 
L 614.837956 196.28182 
L 615.5785 201.077866 
L 617.800133 198.431765 
L 618.540677 221.419809 
L 619.281221 240.934794 
L 620.021765 239.115619 
L 620.762309 266.238167 
L 622.983942 264.088222 
L 623.724486 265.245887 
L 624.46503 264.418961 
L 625.205574 273.680345 
L 625.946118 286.083954 
L 628.198607 289.391564 
L 628.939151 269.711163 
L 629.679695 260.615195 
L 630.420239 302.952838 
L 631.160783 319.656369 
L 633.382415 299.645228 
L 634.12296 286.249308 
L 634.863504 293.360715 
L 635.604048 296.337587 
L 636.344592 309.733476 
L 638.566224 322.30247 
L 640.047313 355.544146 
L 641.528401 353.06343 
L 643.750033 324.783217 
L 644.490577 330.075418 
L 645.231121 351.74038 
L 646.71221 376.878368 
L 648.933842 348.928894 
L 649.674386 325.444726 
L 650.41493 317.010268 
L 651.155474 323.460135 
L 651.896019 314.529553 
L 654.117651 278.641776 
L 654.858195 319.160245 
L 655.598739 342.479027 
L 656.339283 314.529553 
L 657.079827 318.002548 
L 659.30146 321.31019 
L 660.042004 336.856055 
L 660.782548 360.174838 
L 661.523092 328.752368 
L 662.263636 346.944302 
L 665.225813 334.044569 
L 665.966357 325.940882 
L 666.706901 337.517565 
L 667.447445 333.713799 
L 670.409622 313.371888 
L 671.150166 328.090827 
L 671.89071 320.64868 
L 672.631254 342.644412 
L 674.852887 328.752368 
L 675.593431 351.74038 
L 676.333975 343.305922 
L 677.074519 380.682134 
L 677.815063 388.620436 
L 680.77724 371.916906 
L 681.517784 355.709531 
L 682.258328 352.73266 
L 682.998872 363.813218 
L 685.220504 364.474759 
L 685.961048 374.563006 
L 686.701593 376.547598 
L 687.442137 382.335955 
L 688.182681 385.974335 
L 690.404313 362.324783 
L 691.144857 371.255396 
L 691.885401 396.558738 
L 692.625946 382.335955 
L 693.36649 388.951207 
L 695.588122 370.759241 
L 696.328666 383.49362 
L 697.809754 349.590435 
L 698.550299 352.567274 
L 700.771931 355.709531 
L 701.512475 379.359084 
L 702.253019 390.605027 
L 702.993563 358.521017 
L 703.734107 361.001732 
L 706.696284 313.868012 
L 707.436828 323.460135 
L 708.177372 342.479027 
L 708.917916 333.713799 
L 711.880093 349.755788 
L 712.620637 351.74038 
L 714.101725 386.305106 
L 716.323358 384.320515 
L 717.063902 368.11314 
L 717.804446 376.051442 
L 718.54499 318.167933 
L 719.285534 281.949418 
L 721.476311 253.503788 
L 722.216855 299.645228 
L 722.957399 259.788301 
L 723.697943 311.883452 
L 724.438487 270.207318 
L 726.660119 292.699206 
L 727.400664 338.509876 
L 728.141208 323.956291 
L 728.881752 318.167933 
L 729.622296 332.556134 
L 731.843928 351.409609 
L 732.584472 361.828658 
L 733.325017 375.886057 
L 734.065561 377.539878 
L 734.806105 382.832079 
L 737.027737 385.312826 
L 737.768281 377.870648 
L 738.508825 376.547598 
L 739.24937 387.793542 
L 742.95209 376.216827 
L 743.692634 376.382212 
L 744.433179 397.716435 
L 745.173723 409.789274 
L 747.395355 411.773833 
L 748.135899 413.758425 
L 748.876443 419.877552 
L 749.616987 408.135453 
L 750.357532 414.750704 
L 752.579164 412.766145 
L 753.319708 381.839799 
L 754.060252 380.516749 
L 754.800796 410.450783 
L 755.54134 431.12348 
L 757.762973 426.162034 
L 758.503517 398.047174 
L 759.244061 388.785821 
L 759.984605 359.844067 
L 760.725149 407.804682 
L 762.946782 411.277709 
L 763.687326 399.204871 
L 764.42787 411.939219 
L 765.168414 412.104604 
L 765.908958 410.450783 
L 768.130591 408.962347 
L 768.871135 394.574179 
L 769.611679 413.096884 
L 770.352223 426.658189 
L 771.092767 414.089195 
L 773.314399 407.473943 
L 774.795488 360.836347 
L 775.536032 375.555318 
L 776.276576 395.235688 
L 779.238752 403.339407 
L 779.979297 395.401073 
L 780.719841 433.273441 
L 781.460385 450.638481 
L 783.682017 448.488536 
L 784.422561 461.2229 
L 785.163106 461.55367 
L 785.90365 466.349732 
L 786.644194 463.37286 
L 788.865826 443.857844 
L 789.60637 450.473112 
L 790.346914 462.54595 
L 791.087459 452.292302 
L 791.828003 468.168922 
L 794.790179 462.54595 
L 795.530723 473.791894 
L 796.271267 478.587955 
L 797.011812 469.822743 
L 799.233444 456.426838 
L 799.973988 464.861296 
L 800.714532 469.988112 
L 801.455076 468.168922 
L 802.19562 467.342012 
L 804.417253 467.672782 
L 805.898341 457.584503 
L 806.638885 436.746452 
L 807.379429 446.834715 
L 809.601062 442.865564 
L 810.341606 446.66933 
L 811.08215 468.168922 
L 811.822694 467.011257 
L 812.563238 471.476548 
L 814.784871 469.161218 
L 815.525415 472.138073 
L 816.265959 464.530526 
L 817.006503 460.72676 
L 817.747047 467.176626 
L 819.968679 462.04981 
L 820.709224 462.876721 
L 821.449768 473.957279 
L 822.190312 453.780737 
L 822.930856 471.641933 
L 825.152488 466.680486 
L 825.893033 461.71904 
L 826.633577 425.996648 
L 827.374121 428.808134 
L 828.114665 409.293118 
L 830.336297 431.28885 
L 831.076841 427.650469 
L 831.817386 428.146609 
L 832.55793 429.965799 
L 833.298474 446.66933 
L 835.520106 447.0001 
L 836.26065 419.877552 
L 837.001194 414.585319 
L 837.741739 396.227999 
L 838.482283 405.985508 
L 840.703915 408.796994 
L 841.444459 411.443094 
L 842.185003 427.815854 
L 842.925547 407.639297 
L 843.666092 432.777285 
L 845.887724 442.700179 
L 847.368812 462.54595 
L 848.109356 467.672782 
L 848.8499 475.611084 
L 851.812077 460.395989 
L 852.552621 453.119212 
L 853.293165 453.946123 
L 854.033709 463.207475 
L 856.255342 463.869 
L 856.995886 456.757609 
L 858.476974 480.076391 
L 859.217518 464.034386 
L 861.439151 460.561375 
L 862.179695 458.742184 
L 862.920239 441.707883 
L 863.660783 402.016325 
L 864.401327 407.639297 
L 866.62296 412.600759 
L 867.363504 378.862928 
L 868.104048 390.770413 
L 868.844592 405.323967 
L 869.585136 402.347096 
L 871.806768 400.85866 
L 872.547313 364.970883 
L 873.287857 384.81667 
L 874.028401 386.305106 
L 874.768945 403.504761 
L 876.990577 399.370224 
L 877.731121 410.450783 
L 878.471666 425.996648 
L 879.21221 416.073755 
L 879.952754 372.578447 
L 882.174386 407.473943 
L 882.91493 396.393385 
L 883.655474 374.232267 
L 884.396019 338.179106 
L 885.136563 333.052289 
L 887.358195 355.213375 
L 888.098739 378.366804 
L 888.839283 358.190246 
L 889.579827 350.086559 
L 890.320372 340.329051 
L 892.542004 365.467039 
L 893.282548 392.093463 
L 894.763636 433.108056 
L 895.50418 445.511665 
L 897.756669 445.84242 
L 898.497213 447.16547 
L 899.237757 453.119212 
L 899.978301 439.227168 
L 900.718845 457.749889 
L 902.940478 447.99238 
L 903.681022 457.915274 
L 904.421566 457.584503 
L 905.16211 455.269173 
L 905.902654 463.869 
L 908.124287 470.318883 
L 908.864831 471.311163 
L 909.605375 479.580235 
L 911.086463 486.030118 
L 913.308096 482.226352 
L 914.04864 482.226352 
L 914.789184 477.43029 
L 915.529728 478.42257 
L 916.270272 483.218632 
L 918.491904 475.776469 
L 919.232449 479.580235 
L 919.972993 477.59566 
L 920.713537 476.107224 
L 921.454081 487.849308 
L 923.675713 483.218632 
L 924.416257 492.48 
L 925.156802 490.495424 
L 925.897346 485.699363 
L 926.63789 489.006989 
L 928.859522 484.376297 
L 929.600066 484.872453 
L 930.34061 466.018961 
L 931.081155 466.349732 
L 931.821699 476.60338 
L 934.783875 477.264905 
L 935.524419 486.526258 
L 936.264964 485.864732 
L 937.005508 486.195503 
L 939.967684 473.791894 
L 940.708228 459.899849 
L 941.448772 458.411414 
L 942.189317 471.311163 
L 944.410949 475.776469 
L 945.151493 481.068671 
L 945.892037 482.226352 
L 946.632581 486.360888 
L 947.373125 482.060967 
L 950.335302 463.207475 
L 951.075846 447.49624 
L 951.81639 458.411414 
L 952.556934 472.138073 
L 954.778567 473.957279 
L 955.519111 484.541682 
L 956.259655 474.784174 
L 957.000199 469.657358 
L 957.740743 472.799598 
L 959.962376 467.176626 
L 960.70292 471.972688 
L 961.443464 454.773017 
L 962.184008 462.54595 
L 962.924552 463.04209 
L 965.146184 466.018961 
L 965.886729 476.107224 
L 966.627273 479.911006 
L 967.367817 480.572531 
L 968.108361 478.257185 
L 970.329993 461.71904 
L 971.070537 429.965799 
L 971.811082 454.276877 
L 972.551626 460.395989 
L 973.29217 456.592223 
L 976.254346 437.077207 
L 976.994891 438.400257 
L 978.475979 464.695911 
L 980.697611 464.861296 
L 981.438155 469.988112 
L 982.178699 463.207475 
L 982.919244 470.484268 
L 983.659788 475.28033 
L 985.88142 468.995832 
L 986.621964 452.953827 
L 987.362508 452.292302 
L 988.103052 453.284598 
L 988.843597 448.323151 
L 991.034373 440.384833 
L 991.774917 463.207475 
L 992.515461 464.695911 
L 993.256005 453.946123 
L 993.996549 453.780737 
L 996.218182 455.599928 
L 996.218182 455.599928 
" clip-path="url(#p2ab769b959)" style="fill: none; stroke: #0000ff; stroke-width: 1.5; stroke-linecap: square"/>
   </g>
   <g id="patch_3">
    <path d="M 144 512.64 
L 144 69.12 
" style="fill: none; stroke: #000000; stroke-width: 0.8; stroke-linejoin: miter; stroke-linecap: square"/>
   </g>
   <g id="patch_4">
    <path d="M 1036.8 512.64 
L 1036.8 69.12 
" style="fill: none; stroke: #000000; stroke-width: 0.8; stroke-linejoin: miter; stroke-linecap: square"/>
   </g>
   <g id="patch_5">
    <path d="M 144 512.64 
L 1036.8 512.64 
" style="fill: none; stroke: #000000; stroke-width: 0.8; stroke-linejoin: miter; stroke-linecap: square"/>
   </g>
   <g id="patch_6">
    <path d="M 144 69.12 
L 1036.8 69.12 
" style="fill: none; stroke: #000000; stroke-width: 0.8; stroke-linejoin: miter; stroke-linecap: square"/>
   </g>
  </g>
  <g id="axes_2">
   <g id="matplotlib.axis_3">
    <g id="ytick_6">
     <g id="line2d_17">
      <defs>
       <path id="m917875fb49" d="M 0 0 
L 3.5 0 
" style="stroke: #ff0000; stroke-width: 0.8"/>
      </defs>
      <g>
       <use xlink:href="#m917875fb49" x="1036.8" y="465.038091" style="fill: #ff0000; stroke: #ff0000; stroke-width: 0.8"/>
      </g>
     </g>
     <g id="text_18">
      <!-- 0.2 -->
      <g style="fill: #ff0000" transform="translate(1043.8 468.83731) scale(0.1 -0.1)">
       <defs>
        <path id="DejaVuSans-2e" d="M 684 794 
L 1344 794 
L 1344 0 
L 684 0 
L 684 794 
z
" transform="scale(0.015625)"/>
       </defs>
       <use xlink:href="#DejaVuSans-30"/>
       <use xlink:href="#DejaVuSans-2e" x="63.623047"/>
       <use xlink:href="#DejaVuSans-32" x="95.410156"/>
      </g>
     </g>
    </g>
    <g id="ytick_7">
     <g id="line2d_18">
      <g>
       <use xlink:href="#m917875fb49" x="1036.8" y="413.717862" style="fill: #ff0000; stroke: #ff0000; stroke-width: 0.8"/>
      </g>
     </g>
     <g id="text_19">
      <!-- 0.3 -->
      <g style="fill: #ff0000" transform="translate(1043.8 417.517081) scale(0.1 -0.1)">
       <use xlink:href="#DejaVuSans-30"/>
       <use xlink:href="#DejaVuSans-2e" x="63.623047"/>
       <use xlink:href="#DejaVuSans-33" x="95.410156"/>
      </g>
     </g>
    </g>
    <g id="ytick_8">
     <g id="line2d_19">
      <g>
       <use xlink:href="#m917875fb49" x="1036.8" y="362.397633" style="fill: #ff0000; stroke: #ff0000; stroke-width: 0.8"/>
      </g>
     </g>
     <g id="text_20">
      <!-- 0.4 -->
      <g style="fill: #ff0000" transform="translate(1043.8 366.196852) scale(0.1 -0.1)">
       <use xlink:href="#DejaVuSans-30"/>
       <use xlink:href="#DejaVuSans-2e" x="63.623047"/>
       <use xlink:href="#DejaVuSans-34" x="95.410156"/>
      </g>
     </g>
    </g>
    <g id="ytick_9">
     <g id="line2d_20">
      <g>
       <use xlink:href="#m917875fb49" x="1036.8" y="311.077404" style="fill: #ff0000; stroke: #ff0000; stroke-width: 0.8"/>
      </g>
     </g>
     <g id="text_21">
      <!-- 0.5 -->
      <g style="fill: #ff0000" transform="translate(1043.8 314.876623) scale(0.1 -0.1)">
       <use xlink:href="#DejaVuSans-30"/>
       <use xlink:href="#DejaVuSans-2e" x="63.623047"/>
       <use xlink:href="#DejaVuSans-35" x="95.410156"/>
      </g>
     </g>
    </g>
    <g id="ytick_10">
     <g id="line2d_21">
      <g>
       <use xlink:href="#m917875fb49" x="1036.8" y="259.757175" style="fill: #ff0000; stroke: #ff0000; stroke-width: 0.8"/>
      </g>
     </g>
     <g id="text_22">
      <!-- 0.6 -->
      <g style="fill: #ff0000" transform="translate(1043.8 263.556394) scale(0.1 -0.1)">
       <defs>
        <path id="DejaVuSans-36" d="M 2113 2584 
Q 1688 2584 1439 2293 
Q 1191 2003 1191 1497 
Q 1191 994 1439 701 
Q 1688 409 2113 409 
Q 2538 409 2786 701 
Q 3034 994 3034 1497 
Q 3034 2003 2786 2293 
Q 2538 2584 2113 2584 
z
M 3366 4563 
L 3366 3988 
Q 3128 4100 2886 4159 
Q 2644 4219 2406 4219 
Q 1781 4219 1451 3797 
Q 1122 3375 1075 2522 
Q 1259 2794 1537 2939 
Q 1816 3084 2150 3084 
Q 2853 3084 3261 2657 
Q 3669 2231 3669 1497 
Q 3669 778 3244 343 
Q 2819 -91 2113 -91 
Q 1303 -91 875 529 
Q 447 1150 447 2328 
Q 447 3434 972 4092 
Q 1497 4750 2381 4750 
Q 2619 4750 2861 4703 
Q 3103 4656 3366 4563 
z
" transform="scale(0.015625)"/>
       </defs>
       <use xlink:href="#DejaVuSans-30"/>
       <use xlink:href="#DejaVuSans-2e" x="63.623047"/>
       <use xlink:href="#DejaVuSans-36" x="95.410156"/>
      </g>
     </g>
    </g>
    <g id="ytick_11">
     <g id="line2d_22">
      <g>
       <use xlink:href="#m917875fb49" x="1036.8" y="208.436947" style="fill: #ff0000; stroke: #ff0000; stroke-width: 0.8"/>
      </g>
     </g>
     <g id="text_23">
      <!-- 0.7 -->
      <g style="fill: #ff0000" transform="translate(1043.8 212.236165) scale(0.1 -0.1)">
       <defs>
        <path id="DejaVuSans-37" d="M 525 4666 
L 3525 4666 
L 3525 4397 
L 1831 0 
L 1172 0 
L 2766 4134 
L 525 4134 
L 525 4666 
z
" transform="scale(0.015625)"/>
       </defs>
       <use xlink:href="#DejaVuSans-30"/>
       <use xlink:href="#DejaVuSans-2e" x="63.623047"/>
       <use xlink:href="#DejaVuSans-37" x="95.410156"/>
      </g>
     </g>
    </g>
    <g id="ytick_12">
     <g id="line2d_23">
      <g>
       <use xlink:href="#m917875fb49" x="1036.8" y="157.116718" style="fill: #ff0000; stroke: #ff0000; stroke-width: 0.8"/>
      </g>
     </g>
     <g id="text_24">
      <!-- 0.8 -->
      <g style="fill: #ff0000" transform="translate(1043.8 160.915937) scale(0.1 -0.1)">
       <defs>
        <path id="DejaVuSans-38" d="M 2034 2216 
Q 1584 2216 1326 1975 
Q 1069 1734 1069 1313 
Q 1069 891 1326 650 
Q 1584 409 2034 409 
Q 2484 409 2743 651 
Q 3003 894 3003 1313 
Q 3003 1734 2745 1975 
Q 2488 2216 2034 2216 
z
M 1403 2484 
Q 997 2584 770 2862 
Q 544 3141 544 3541 
Q 544 4100 942 4425 
Q 1341 4750 2034 4750 
Q 2731 4750 3128 4425 
Q 3525 4100 3525 3541 
Q 3525 3141 3298 2862 
Q 3072 2584 2669 2484 
Q 3125 2378 3379 2068 
Q 3634 1759 3634 1313 
Q 3634 634 3220 271 
Q 2806 -91 2034 -91 
Q 1263 -91 848 271 
Q 434 634 434 1313 
Q 434 1759 690 2068 
Q 947 2378 1403 2484 
z
M 1172 3481 
Q 1172 3119 1398 2916 
Q 1625 2713 2034 2713 
Q 2441 2713 2670 2916 
Q 2900 3119 2900 3481 
Q 2900 3844 2670 4047 
Q 2441 4250 2034 4250 
Q 1625 4250 1398 4047 
Q 1172 3844 1172 3481 
z
" transform="scale(0.015625)"/>
       </defs>
       <use xlink:href="#DejaVuSans-30"/>
       <use xlink:href="#DejaVuSans-2e" x="63.623047"/>
       <use xlink:href="#DejaVuSans-38" x="95.410156"/>
      </g>
     </g>
    </g>
    <g id="ytick_13">
     <g id="line2d_24">
      <g>
       <use xlink:href="#m917875fb49" x="1036.8" y="105.796489" style="fill: #ff0000; stroke: #ff0000; stroke-width: 0.8"/>
      </g>
     </g>
     <g id="text_25">
      <!-- 0.9 -->
      <g style="fill: #ff0000" transform="translate(1043.8 109.595708) scale(0.1 -0.1)">
       <use xlink:href="#DejaVuSans-30"/>
       <use xlink:href="#DejaVuSans-2e" x="63.623047"/>
       <use xlink:href="#DejaVuSans-39" x="95.410156"/>
      </g>
     </g>
    </g>
    <g id="text_26">
     <!-- Indicator -->
     <g style="fill: #ff0000" transform="translate(1071.301563 312.975312) rotate(-90) scale(0.1 -0.1)">
      <defs>
       <path id="DejaVuSans-6e" d="M 3513 2113 
L 3513 0 
L 2938 0 
L 2938 2094 
Q 2938 2591 2744 2837 
Q 2550 3084 2163 3084 
Q 1697 3084 1428 2787 
Q 1159 2491 1159 1978 
L 1159 0 
L 581 0 
L 581 3500 
L 1159 3500 
L 1159 2956 
Q 1366 3272 1645 3428 
Q 1925 3584 2291 3584 
Q 2894 3584 3203 3211 
Q 3513 2838 3513 2113 
z
" transform="scale(0.015625)"/>
       <path id="DejaVuSans-64" d="M 2906 2969 
L 2906 4863 
L 3481 4863 
L 3481 0 
L 2906 0 
L 2906 525 
Q 2725 213 2448 61 
Q 2172 -91 1784 -91 
Q 1150 -91 751 415 
Q 353 922 353 1747 
Q 353 2572 751 3078 
Q 1150 3584 1784 3584 
Q 2172 3584 2448 3432 
Q 2725 3281 2906 2969 
z
M 947 1747 
Q 947 1113 1208 752 
Q 1469 391 1925 391 
Q 2381 391 2643 752 
Q 2906 1113 2906 1747 
Q 2906 2381 2643 2742 
Q 2381 3103 1925 3103 
Q 1469 3103 1208 2742 
Q 947 2381 947 1747 
z
" transform="scale(0.015625)"/>
       <path id="DejaVuSans-69" d="M 603 3500 
L 1178 3500 
L 1178 0 
L 603 0 
L 603 3500 
z
M 603 4863 
L 1178 4863 
L 1178 4134 
L 603 4134 
L 603 4863 
z
" transform="scale(0.015625)"/>
       <path id="DejaVuSans-63" d="M 3122 3366 
L 3122 2828 
Q 2878 2963 2633 3030 
Q 2388 3097 2138 3097 
Q 1578 3097 1268 2742 
Q 959 2388 959 1747 
Q 959 1106 1268 751 
Q 1578 397 2138 397 
Q 2388 397 2633 464 
Q 2878 531 3122 666 
L 3122 134 
Q 2881 22 2623 -34 
Q 2366 -91 2075 -91 
Q 1284 -91 818 406 
Q 353 903 353 1747 
Q 353 2603 823 3093 
Q 1294 3584 2113 3584 
Q 2378 3584 2631 3529 
Q 2884 3475 3122 3366 
z
" transform="scale(0.015625)"/>
       <path id="DejaVuSans-6f" d="M 1959 3097 
Q 1497 3097 1228 2736 
Q 959 2375 959 1747 
Q 959 1119 1226 758 
Q 1494 397 1959 397 
Q 2419 397 2687 759 
Q 2956 1122 2956 1747 
Q 2956 2369 2687 2733 
Q 2419 3097 1959 3097 
z
M 1959 3584 
Q 2709 3584 3137 3096 
Q 3566 2609 3566 1747 
Q 3566 888 3137 398 
Q 2709 -91 1959 -91 
Q 1206 -91 779 398 
Q 353 888 353 1747 
Q 353 2609 779 3096 
Q 1206 3584 1959 3584 
z
" transform="scale(0.015625)"/>
       <path id="DejaVuSans-72" d="M 2631 2963 
Q 2534 3019 2420 3045 
Q 2306 3072 2169 3072 
Q 1681 3072 1420 2755 
Q 1159 2438 1159 1844 
L 1159 0 
L 581 0 
L 581 3500 
L 1159 3500 
L 1159 2956 
Q 1341 3275 1631 3429 
Q 1922 3584 2338 3584 
Q 2397 3584 2469 3576 
Q 2541 3569 2628 3553 
L 2631 2963 
z
" transform="scale(0.015625)"/>
      </defs>
      <use xlink:href="#DejaVuSans-49"/>
      <use xlink:href="#DejaVuSans-6e" x="29.492188"/>
      <use xlink:href="#DejaVuSans-64" x="92.871094"/>
      <use xlink:href="#DejaVuSans-69" x="156.347656"/>
      <use xlink:href="#DejaVuSans-63" x="184.130859"/>
      <use xlink:href="#DejaVuSans-61" x="239.111328"/>
      <use xlink:href="#DejaVuSans-74" x="300.390625"/>
      <use xlink:href="#DejaVuSans-6f" x="339.599609"/>
      <use xlink:href="#DejaVuSans-72" x="400.78125"/>
     </g>
    </g>
   </g>
   <g id="line2d_25">
    <path d="M 184.581818 108.863977 
L 188.284539 109.498099 
L 189.025083 109.572086 
L 190.506171 110.375288 
L 192.727804 110.237754 
L 194.208892 110.953085 
L 194.949436 111.925698 
L 197.911612 112.739352 
L 200.133245 116.123746 
L 200.873789 119.154603 
L 203.095421 122.268937 
L 204.57651 126.789582 
L 205.317054 130.651264 
L 206.057598 136.189988 
L 208.27923 140.055091 
L 209.760319 148.444241 
L 210.500863 151.294456 
L 211.241407 154.994615 
L 213.463039 157.670245 
L 214.944127 162.459076 
L 215.684672 164.142796 
L 216.425216 167.410031 
L 218.646848 170.529095 
L 219.387392 169.801292 
L 220.127936 171.206439 
L 220.86848 174.827463 
L 221.609025 179.191165 
L 223.830657 178.03538 
L 224.571201 176.488403 
L 225.311745 166.550658 
L 226.052289 162.561109 
L 226.792833 161.075664 
L 229.014466 159.328109 
L 229.75501 156.393218 
L 230.495554 152.213856 
L 231.976642 146.944946 
L 234.198275 145.941844 
L 234.938819 144.51787 
L 235.679363 144.282978 
L 236.419907 144.175592 
L 237.160451 143.855441 
L 240.122628 143.476422 
L 240.863172 144.226086 
L 241.603716 143.886697 
L 242.34426 145.349561 
L 244.565893 145.948481 
L 245.306437 146.328921 
L 246.046981 146.108163 
L 246.787525 146.903996 
L 247.528069 148.26665 
L 249.749701 149.874995 
L 251.23079 151.868392 
L 251.971334 152.978744 
L 252.711878 151.163845 
L 254.93351 150.254704 
L 255.674054 152.570475 
L 256.414599 157.237023 
L 257.155143 169.239119 
L 257.895687 179.13275 
L 260.117319 183.787985 
L 260.857863 190.036339 
L 261.598407 200.798018 
L 263.079496 233.369726 
L 266.041672 246.17791 
L 266.782216 254.515974 
L 267.52276 253.89085 
L 268.263305 258.56937 
L 270.484937 260.885291 
L 271.225481 259.418404 
L 271.966025 265.919179 
L 272.706569 267.916422 
L 273.447113 266.172862 
L 275.668746 242.5009 
L 276.40929 231.378901 
L 277.149834 228.747666 
L 277.890378 229.36733 
L 278.630922 226.011052 
L 280.852555 220.42048 
L 281.593099 212.512387 
L 282.333643 209.321064 
L 283.074187 210.41837 
L 283.814731 209.224335 
L 286.036364 212.28514 
L 286.776908 211.907939 
L 287.517452 208.694691 
L 288.257996 206.429257 
L 288.99854 206.012626 
L 291.220173 203.520685 
L 291.960717 201.269032 
L 292.701261 200.947508 
L 293.441805 201.462717 
L 294.182349 201.527406 
L 296.403981 199.301029 
L 297.144526 196.310259 
L 297.88507 186.50428 
L 298.625614 182.200078 
L 299.366158 178.638871 
L 301.58779 177.241829 
L 302.328334 177.101443 
L 303.068879 176.460715 
L 303.809423 173.991435 
L 304.549967 176.780046 
L 306.771599 186.420461 
L 307.512143 192.146982 
L 308.252687 195.579734 
L 308.993232 198.144737 
L 309.733776 199.782144 
L 312.695952 198.617082 
L 313.436496 201.570582 
L 314.17704 200.521297 
L 314.917585 193.972311 
L 317.139217 191.851261 
L 317.879761 191.851261 
L 318.620305 191.593726 
L 319.360849 190.287016 
L 320.101393 184.285005 
L 322.323026 170.823455 
L 323.06357 162.286185 
L 323.804114 158.33819 
L 324.544658 156.130438 
L 325.285202 154.288667 
L 327.506835 151.626889 
L 328.247379 146.470129 
L 328.987923 143.470243 
L 329.728467 142.513975 
L 330.469011 142.858029 
L 332.690644 140.290066 
L 334.171732 136.120978 
L 334.912276 134.795885 
L 335.65282 134.828912 
L 337.874453 133.171178 
L 338.614997 131.57989 
L 339.355541 130.679965 
L 340.096085 130.373956 
L 343.058261 130.45931 
L 344.53935 132.530414 
L 345.279894 134.235245 
L 346.020438 136.903834 
L 348.24207 139.061519 
L 348.982614 140.999553 
L 349.723159 141.695358 
L 350.463703 142.985677 
L 351.204247 145.875536 
L 353.425879 152.634227 
L 354.166423 159.918429 
L 354.906967 165.850682 
L 355.647512 169.513364 
L 356.388056 171.057815 
L 358.640544 173.001866 
L 359.381088 180.613629 
L 360.121632 186.705987 
L 361.602721 207.199712 
L 363.824353 224.203751 
L 365.305441 254.281205 
L 366.045985 262.118592 
L 366.78653 265.708067 
L 369.008162 269.246214 
L 369.748706 271.280795 
L 370.48925 271.542099 
L 371.970338 227.88722 
L 374.191971 209.684972 
L 375.673059 166.21595 
L 377.154147 143.083255 
L 379.37578 136.592318 
L 380.116324 133.435916 
L 381.597412 129.827288 
L 382.337956 128.980171 
L 384.559589 127.457896 
L 385.300133 125.524306 
L 386.040677 124.436971 
L 387.521765 120.900711 
L 389.743397 119.146656 
L 390.483942 118.163194 
L 391.224486 117.948078 
L 391.96503 118.142865 
L 394.927206 118.137786 
L 395.66775 117.822443 
L 396.408295 117.707445 
L 397.148839 117.46924 
L 397.889383 117.442099 
L 400.111015 117.687503 
L 400.851559 117.938003 
L 402.332648 117.739888 
L 403.073192 117.694979 
L 405.294824 120.111118 
L 406.035368 121.397839 
L 406.775912 124.339126 
L 408.257001 131.601055 
L 411.219177 135.142077 
L 411.959721 136.772818 
L 412.700265 134.966117 
L 413.44081 130.997561 
L 415.662442 127.740941 
L 416.402986 123.487248 
L 417.14353 120.058817 
L 418.624618 115.795229 
L 420.846251 114.837153 
L 421.586795 114.751435 
L 422.327339 114.923199 
L 423.067883 114.196764 
L 423.808427 113.235653 
L 426.03006 112.25414 
L 426.770604 111.530155 
L 427.511148 111.076879 
L 428.251692 109.825308 
L 428.992236 108.146037 
L 431.213869 106.437322 
L 431.954413 105.141993 
L 434.176045 102.11577 
L 437.138222 100.98156 
L 438.61931 98.587817 
L 439.359854 97.669471 
L 441.581486 96.811919 
L 442.322031 95.657213 
L 443.803119 94.550709 
L 444.543663 94.090447 
L 446.765295 93.561178 
L 447.505839 93.207855 
L 448.246384 93.122024 
L 448.986928 93.237248 
L 449.727472 93.219872 
L 451.918248 92.947957 
L 453.399336 92.325479 
L 454.139881 92.102746 
L 457.102057 92.113243 
L 457.842601 92.108302 
L 459.323689 91.873189 
L 462.285866 92.546707 
L 463.02641 93.160551 
L 463.766954 93.590616 
L 464.507498 93.848502 
L 465.248042 94.45227 
L 467.469675 95.134828 
L 468.950763 96.46129 
L 469.691307 97.206175 
L 470.431851 97.775478 
L 472.653484 98.305044 
L 474.875116 100.896547 
L 477.837293 101.997254 
L 480.058925 107.286176 
L 480.799469 107.599378 
L 483.021102 108.191069 
L 484.50219 107.632225 
L 485.242734 107.11922 
L 485.983278 105.974617 
L 488.20491 104.794351 
L 488.945455 104.037337 
L 489.685999 103.718523 
L 491.167087 101.769441 
L 493.388719 100.244794 
L 494.869808 97.632802 
L 495.610352 96.558642 
L 496.350896 95.880072 
L 498.572528 95.266239 
L 499.313072 94.69923 
L 500.053616 93.983047 
L 501.534705 92.955167 
L 503.756337 92.483143 
L 505.977969 91.570537 
L 506.718514 91.392324 
L 509.68069 91.158646 
L 511.161778 90.66519 
L 511.902322 90.548457 
L 514.864499 90.891004 
L 515.605043 91.442249 
L 516.345587 91.770361 
L 517.086131 91.906013 
L 520.788852 91.824704 
L 521.529396 91.376503 
L 525.232117 91.380603 
L 527.453749 92.292906 
L 530.415926 92.63041 
L 531.15647 92.58626 
L 531.897014 92.420497 
L 532.637558 92.692066 
L 535.599735 92.809049 
L 537.080823 93.143932 
L 537.821367 93.467106 
L 540.783543 93.631791 
L 542.264632 93.542042 
L 543.005176 93.642104 
L 545.967352 93.622173 
L 551.151161 94.240846 
L 553.372794 96.512803 
L 555.594426 97.377567 
L 557.075514 98.795712 
L 558.556603 100.344512 
L 560.778235 100.981559 
L 561.518779 101.556964 
L 563.740411 104.73232 
L 565.962044 105.663749 
L 568.183676 108.920662 
L 568.92422 109.606589 
L 571.145853 110.01993 
L 571.886397 110.587833 
L 573.367485 112.209144 
L 574.108029 111.950784 
L 576.329662 111.77579 
L 577.81075 111.078731 
L 579.291838 110.191519 
L 582.254015 109.570362 
L 583.735103 109.515281 
L 584.475647 109.43636 
L 586.697279 109.005988 
L 587.437823 108.276587 
L 588.178368 107.919211 
L 589.659456 106.512573 
L 591.881088 105.842807 
L 594.102721 103.221945 
L 594.843265 102.055251 
L 597.064897 100.635432 
L 597.805441 99.33217 
L 600.027074 96.229119 
L 602.248706 95.471744 
L 604.470338 94.17508 
L 605.210883 93.507251 
L 607.432515 93.045279 
L 609.654147 91.732448 
L 610.394691 91.349592 
L 613.356868 90.80595 
L 615.5785 89.759365 
L 619.281221 89.336134 
L 620.762309 89.307535 
L 623.724486 89.369328 
L 625.205574 89.581555 
L 625.946118 89.859379 
L 628.198607 90.279626 
L 628.939151 90.666302 
L 629.679695 90.895526 
L 631.160783 91.916971 
L 633.382415 92.310436 
L 634.863504 92.883878 
L 636.344592 93.885519 
L 638.566224 94.608618 
L 640.047313 96.61299 
L 641.528401 97.601565 
L 643.750033 98.500867 
L 645.231121 100.438465 
L 646.71221 102.919417 
L 648.933842 104.043822 
L 649.674386 105.067836 
L 651.155474 106.604452 
L 651.896019 107.293868 
L 654.117651 107.409621 
L 654.858195 107.931921 
L 655.598739 108.688265 
L 657.079827 109.653262 
L 659.30146 110.025216 
L 660.042004 110.537202 
L 660.782548 111.549095 
L 661.523092 112.344414 
L 662.263636 112.873956 
L 665.225813 113.049992 
L 665.966357 113.375422 
L 667.447445 114.548341 
L 670.409622 114.773383 
L 671.150166 115.018452 
L 672.631254 115.031776 
L 675.593431 114.657304 
L 676.333975 114.903314 
L 677.074519 115.589429 
L 677.815063 116.102785 
L 680.77724 116.214801 
L 681.517784 115.917296 
L 682.258328 115.970471 
L 682.998872 116.513826 
L 685.220504 117.204111 
L 685.961048 117.970764 
L 686.701593 118.935688 
L 687.442137 120.640333 
L 688.182681 121.804544 
L 690.404313 122.161011 
L 691.144857 123.208356 
L 691.885401 124.732712 
L 693.36649 127.094615 
L 695.588122 127.326559 
L 696.328666 128.558393 
L 698.550299 130.039082 
L 700.771931 130.483743 
L 701.512475 131.630715 
L 702.253019 133.6803 
L 702.993563 134.528285 
L 703.734107 135.690685 
L 708.917916 134.175128 
L 711.139549 133.211408 
L 711.880093 132.178436 
L 712.620637 131.656159 
L 713.361181 131.976124 
L 714.101725 132.860108 
L 717.063902 133.512635 
L 717.804446 133.553332 
L 718.54499 131.99758 
L 719.285534 129.502695 
L 721.476311 126.516182 
L 722.216855 125.209537 
L 722.957399 123.034406 
L 723.697943 121.496714 
L 724.438487 119.595768 
L 727.400664 117.585561 
L 728.141208 116.70897 
L 728.881752 116.007534 
L 729.622296 115.769976 
L 733.325017 115.790635 
L 734.065561 115.609924 
L 734.806105 115.947335 
L 737.027737 116.289781 
L 738.508825 118.013672 
L 739.24937 118.71614 
L 742.211546 119.429056 
L 743.692634 120.374305 
L 745.173723 121.89615 
L 747.395355 122.356213 
L 748.135899 122.898554 
L 748.876443 123.880899 
L 749.616987 124.508958 
L 750.357532 126.494996 
L 752.579164 129.439794 
L 753.319708 132.661851 
L 754.060252 134.890341 
L 755.54134 143.743159 
L 757.762973 150.172472 
L 758.503517 155.258418 
L 759.244061 157.943404 
L 759.984605 159.976007 
L 760.725149 165.532164 
L 762.946782 171.07018 
L 765.908958 185.490284 
L 768.871135 189.132347 
L 769.611679 193.00558 
L 770.352223 198.989229 
L 771.092767 202.374279 
L 774.054944 207.670849 
L 774.795488 205.483938 
L 775.536032 202.483647 
L 776.276576 200.58504 
L 779.238752 199.509766 
L 779.979297 197.230789 
L 780.719841 198.885631 
L 781.460385 204.438753 
L 783.682017 209.200181 
L 784.422561 216.64525 
L 785.163106 230.650945 
L 785.90365 248.508751 
L 786.644194 261.049161 
L 788.865826 264.237668 
L 789.60637 270.498994 
L 791.087459 306.339243 
L 791.828003 337.520727 
L 794.790179 352.322269 
L 796.271267 385.330887 
L 797.011812 396.424824 
L 799.233444 404.064632 
L 801.455076 429.848317 
L 802.19562 435.640513 
L 804.417253 439.650331 
L 805.898341 443.593978 
L 806.638885 446.085611 
L 807.379429 450.916145 
L 809.601062 456.692664 
L 811.08215 465.278847 
L 812.563238 472.149247 
L 814.784871 473.727677 
L 815.525415 474.641298 
L 816.265959 475.308087 
L 817.006503 475.287651 
L 817.747047 475.518566 
L 820.709224 475.321704 
L 821.449768 476.539331 
L 822.190312 476.67059 
L 822.930856 477.029017 
L 825.152488 477.588515 
L 825.893033 477.338826 
L 826.633577 475.888935 
L 827.374121 474.018337 
L 828.114665 470.932654 
L 830.336297 469.098749 
L 831.076841 467.669126 
L 832.55793 463.579772 
L 833.298474 462.355155 
L 835.520106 461.16193 
L 838.482283 449.479193 
L 840.703915 446.767346 
L 841.444459 443.795637 
L 842.185003 440.16191 
L 842.925547 434.315917 
L 843.666092 430.144845 
L 845.887724 427.110529 
L 846.628268 424.831271 
L 847.368812 424.588499 
L 848.8499 426.445466 
L 851.812077 426.248466 
L 852.552621 425.073097 
L 853.293165 422.590728 
L 854.033709 423.772357 
L 856.255342 422.799633 
L 856.995886 421.535805 
L 857.73643 422.486018 
L 858.476974 428.987373 
L 859.217518 432.871086 
L 861.439151 438.085268 
L 862.179695 440.683828 
L 862.920239 441.966165 
L 864.401327 437.407213 
L 866.62296 433.953849 
L 867.363504 426.347046 
L 868.104048 422.778775 
L 868.844592 421.599594 
L 869.585136 422.381132 
L 871.806768 421.726975 
L 872.547313 415.850866 
L 873.287857 412.01608 
L 874.028401 405.600393 
L 874.768945 404.930525 
L 876.990577 399.300687 
L 878.471666 388.277664 
L 879.21221 378.670823 
L 879.952754 356.210388 
L 882.174386 337.981281 
L 882.91493 319.729563 
L 883.655474 296.802992 
L 885.136563 235.535197 
L 887.358195 216.006841 
L 888.098739 204.416215 
L 889.579827 178.178412 
L 890.320372 168.496249 
L 892.542004 162.235464 
L 893.282548 158.338186 
L 894.023092 156.77293 
L 894.763636 158.476814 
L 895.50418 160.653768 
L 897.756669 162.663384 
L 899.237757 171.605103 
L 899.978301 174.242049 
L 900.718845 178.885208 
L 902.940478 183.200748 
L 905.902654 221.123853 
L 908.124287 234.184336 
L 909.605375 259.540103 
L 911.086463 277.646137 
L 913.308096 308.796694 
L 914.789184 352.624355 
L 916.270272 405.091824 
L 918.491904 425.173572 
L 919.232449 438.612075 
L 921.454081 464.406473 
L 923.675713 471.564831 
L 924.416257 476.944629 
L 925.156802 480.607974 
L 925.897346 483.073842 
L 926.63789 484.851554 
L 928.859522 486.030893 
L 929.600066 487.17163 
L 930.34061 487.707758 
L 931.081155 488.078394 
L 931.821699 489.101346 
L 934.783875 489.621787 
L 935.524419 490.623135 
L 937.005508 492.032993 
L 939.967684 492.48 
L 940.708228 492.384804 
L 941.448772 492.097283 
L 944.410949 492.00482 
L 945.151493 491.883764 
L 946.632581 491.98468 
L 947.373125 492.097283 
L 950.335302 491.725619 
L 951.075846 490.833607 
L 951.81639 490.389841 
L 952.556934 490.197566 
L 954.778567 490.103102 
L 955.519111 490.321622 
L 957.000199 489.626159 
L 957.740743 489.101346 
L 959.962376 488.467252 
L 960.70292 488.087601 
L 961.443464 487.119394 
L 962.924552 485.838242 
L 965.146184 485.838242 
L 965.886729 486.129223 
L 967.367817 486.324951 
L 970.329993 485.353832 
L 971.070537 483.594259 
L 971.811082 482.960051 
L 973.29217 482.916597 
L 976.254346 481.771421 
L 976.994891 480.473529 
L 977.735435 479.414293 
L 978.475979 478.767266 
L 980.697611 477.956523 
L 981.438155 477.492691 
L 982.178699 477.492691 
L 982.919244 478.37054 
L 983.659788 479.000646 
L 985.88142 478.884158 
L 986.621964 478.095087 
L 987.362508 476.847004 
L 988.843597 475.116891 
L 991.034373 473.749021 
L 991.774917 473.577886 
L 992.515461 473.262019 
L 993.256005 473.225951 
L 993.996549 472.841403 
L 996.218182 472.511684 
L 996.218182 472.511684 
" clip-path="url(#p2ab769b959)" style="fill: none; stroke: #ff0000; stroke-width: 1.5; stroke-linecap: square"/>
   </g>
   <g id="patch_7">
    <path d="M 144 512.64 
L 144 69.12 
" style="fill: none; stroke: #000000; stroke-width: 0.8; stroke-linejoin: miter; stroke-linecap: square"/>
   </g>
   <g id="patch_8">
    <path d="M 1036.8 512.64 
L 1036.8 69.12 
" style="fill: none; stroke: #000000; stroke-width: 0.8; stroke-linejoin: miter; stroke-linecap: square"/>
   </g>
   <g id="patch_9">
    <path d="M 144 512.64 
L 1036.8 512.64 
" style="fill: none; stroke: #000000; stroke-width: 0.8; stroke-linejoin: miter; stroke-linecap: square"/>
   </g>
   <g id="patch_10">
    <path d="M 144 69.12 
L 1036.8 69.12 
" style="fill: none; stroke: #000000; stroke-width: 0.8; stroke-linejoin: miter; stroke-linecap: square"/>
   </g>
   <g id="text_27">
    <!-- Price and Cumulative Probability Indicator - 3Y (Updated 2024-03-18 18:51:22) -->
    <g transform="translate(353.153437 63.12) scale(0.12 -0.12)">
     <defs>
      <path id="DejaVuSans-50" d="M 1259 4147 
L 1259 2394 
L 2053 2394 
Q 2494 2394 2734 2622 
Q 2975 2850 2975 3272 
Q 2975 3691 2734 3919 
Q 2494 4147 2053 4147 
L 1259 4147 
z
M 628 4666 
L 2053 4666 
Q 2838 4666 3239 4311 
Q 3641 3956 3641 3272 
Q 3641 2581 3239 2228 
Q 2838 1875 2053 1875 
L 1259 1875 
L 1259 0 
L 628 0 
L 628 4666 
z
" transform="scale(0.015625)"/>
      <path id="DejaVuSans-20" transform="scale(0.015625)"/>
      <path id="DejaVuSans-43" d="M 4122 4306 
L 4122 3641 
Q 3803 3938 3442 4084 
Q 3081 4231 2675 4231 
Q 1875 4231 1450 3742 
Q 1025 3253 1025 2328 
Q 1025 1406 1450 917 
Q 1875 428 2675 428 
Q 3081 428 3442 575 
Q 3803 722 4122 1019 
L 4122 359 
Q 3791 134 3420 21 
Q 3050 -91 2638 -91 
Q 1578 -91 968 557 
Q 359 1206 359 2328 
Q 359 3453 968 4101 
Q 1578 4750 2638 4750 
Q 3056 4750 3426 4639 
Q 3797 4528 4122 4306 
z
" transform="scale(0.015625)"/>
      <path id="DejaVuSans-75" d="M 544 1381 
L 544 3500 
L 1119 3500 
L 1119 1403 
Q 1119 906 1312 657 
Q 1506 409 1894 409 
Q 2359 409 2629 706 
Q 2900 1003 2900 1516 
L 2900 3500 
L 3475 3500 
L 3475 0 
L 2900 0 
L 2900 538 
Q 2691 219 2414 64 
Q 2138 -91 1772 -91 
Q 1169 -91 856 284 
Q 544 659 544 1381 
z
M 1991 3584 
L 1991 3584 
z
" transform="scale(0.015625)"/>
      <path id="DejaVuSans-6d" d="M 3328 2828 
Q 3544 3216 3844 3400 
Q 4144 3584 4550 3584 
Q 5097 3584 5394 3201 
Q 5691 2819 5691 2113 
L 5691 0 
L 5113 0 
L 5113 2094 
Q 5113 2597 4934 2840 
Q 4756 3084 4391 3084 
Q 3944 3084 3684 2787 
Q 3425 2491 3425 1978 
L 3425 0 
L 2847 0 
L 2847 2094 
Q 2847 2600 2669 2842 
Q 2491 3084 2119 3084 
Q 1678 3084 1418 2786 
Q 1159 2488 1159 1978 
L 1159 0 
L 581 0 
L 581 3500 
L 1159 3500 
L 1159 2956 
Q 1356 3278 1631 3431 
Q 1906 3584 2284 3584 
Q 2666 3584 2933 3390 
Q 3200 3197 3328 2828 
z
" transform="scale(0.015625)"/>
      <path id="DejaVuSans-6c" d="M 603 4863 
L 1178 4863 
L 1178 0 
L 603 0 
L 603 4863 
z
" transform="scale(0.015625)"/>
      <path id="DejaVuSans-76" d="M 191 3500 
L 800 3500 
L 1894 563 
L 2988 3500 
L 3597 3500 
L 2284 0 
L 1503 0 
L 191 3500 
z
" transform="scale(0.015625)"/>
      <path id="DejaVuSans-62" d="M 3116 1747 
Q 3116 2381 2855 2742 
Q 2594 3103 2138 3103 
Q 1681 3103 1420 2742 
Q 1159 2381 1159 1747 
Q 1159 1113 1420 752 
Q 1681 391 2138 391 
Q 2594 391 2855 752 
Q 3116 1113 3116 1747 
z
M 1159 2969 
Q 1341 3281 1617 3432 
Q 1894 3584 2278 3584 
Q 2916 3584 3314 3078 
Q 3713 2572 3713 1747 
Q 3713 922 3314 415 
Q 2916 -91 2278 -91 
Q 1894 -91 1617 61 
Q 1341 213 1159 525 
L 1159 0 
L 581 0 
L 581 4863 
L 1159 4863 
L 1159 2969 
z
" transform="scale(0.015625)"/>
      <path id="DejaVuSans-79" d="M 2059 -325 
Q 1816 -950 1584 -1140 
Q 1353 -1331 966 -1331 
L 506 -1331 
L 506 -850 
L 844 -850 
Q 1081 -850 1212 -737 
Q 1344 -625 1503 -206 
L 1606 56 
L 191 3500 
L 800 3500 
L 1894 763 
L 2988 3500 
L 3597 3500 
L 2059 -325 
z
" transform="scale(0.015625)"/>
      <path id="DejaVuSans-59" d="M -13 4666 
L 666 4666 
L 1959 2747 
L 3244 4666 
L 3922 4666 
L 2272 2222 
L 2272 0 
L 1638 0 
L 1638 2222 
L -13 4666 
z
" transform="scale(0.015625)"/>
      <path id="DejaVuSans-28" d="M 1984 4856 
Q 1566 4138 1362 3434 
Q 1159 2731 1159 2009 
Q 1159 1288 1364 580 
Q 1569 -128 1984 -844 
L 1484 -844 
Q 1016 -109 783 600 
Q 550 1309 550 2009 
Q 550 2706 781 3412 
Q 1013 4119 1484 4856 
L 1984 4856 
z
" transform="scale(0.015625)"/>
      <path id="DejaVuSans-55" d="M 556 4666 
L 1191 4666 
L 1191 1831 
Q 1191 1081 1462 751 
Q 1734 422 2344 422 
Q 2950 422 3222 751 
Q 3494 1081 3494 1831 
L 3494 4666 
L 4128 4666 
L 4128 1753 
Q 4128 841 3676 375 
Q 3225 -91 2344 -91 
Q 1459 -91 1007 375 
Q 556 841 556 1753 
L 556 4666 
z
" transform="scale(0.015625)"/>
      <path id="DejaVuSans-70" d="M 1159 525 
L 1159 -1331 
L 581 -1331 
L 581 3500 
L 1159 3500 
L 1159 2969 
Q 1341 3281 1617 3432 
Q 1894 3584 2278 3584 
Q 2916 3584 3314 3078 
Q 3713 2572 3713 1747 
Q 3713 922 3314 415 
Q 2916 -91 2278 -91 
Q 1894 -91 1617 61 
Q 1341 213 1159 525 
z
M 3116 1747 
Q 3116 2381 2855 2742 
Q 2594 3103 2138 3103 
Q 1681 3103 1420 2742 
Q 1159 2381 1159 1747 
Q 1159 1113 1420 752 
Q 1681 391 2138 391 
Q 2594 391 2855 752 
Q 3116 1113 3116 1747 
z
" transform="scale(0.015625)"/>
      <path id="DejaVuSans-3a" d="M 750 794 
L 1409 794 
L 1409 0 
L 750 0 
L 750 794 
z
M 750 3309 
L 1409 3309 
L 1409 2516 
L 750 2516 
L 750 3309 
z
" transform="scale(0.015625)"/>
      <path id="DejaVuSans-29" d="M 513 4856 
L 1013 4856 
Q 1481 4119 1714 3412 
Q 1947 2706 1947 2009 
Q 1947 1309 1714 600 
Q 1481 -109 1013 -844 
L 513 -844 
Q 928 -128 1133 580 
Q 1338 1288 1338 2009 
Q 1338 2731 1133 3434 
Q 928 4138 513 4856 
z
" transform="scale(0.015625)"/>
     </defs>
     <use xlink:href="#DejaVuSans-50"/>
     <use xlink:href="#DejaVuSans-72" x="58.552734"/>
     <use xlink:href="#DejaVuSans-69" x="99.666016"/>
     <use xlink:href="#DejaVuSans-63" x="127.449219"/>
     <use xlink:href="#DejaVuSans-65" x="182.429688"/>
     <use xlink:href="#DejaVuSans-20" x="243.953125"/>
     <use xlink:href="#DejaVuSans-61" x="275.740234"/>
     <use xlink:href="#DejaVuSans-6e" x="337.019531"/>
     <use xlink:href="#DejaVuSans-64" x="400.398438"/>
     <use xlink:href="#DejaVuSans-20" x="463.875"/>
     <use xlink:href="#DejaVuSans-43" x="495.662109"/>
     <use xlink:href="#DejaVuSans-75" x="565.486328"/>
     <use xlink:href="#DejaVuSans-6d" x="628.865234"/>
     <use xlink:href="#DejaVuSans-75" x="726.277344"/>
     <use xlink:href="#DejaVuSans-6c" x="789.65625"/>
     <use xlink:href="#DejaVuSans-61" x="817.439453"/>
     <use xlink:href="#DejaVuSans-74" x="878.71875"/>
     <use xlink:href="#DejaVuSans-69" x="917.927734"/>
     <use xlink:href="#DejaVuSans-76" x="945.710938"/>
     <use xlink:href="#DejaVuSans-65" x="1004.890625"/>
     <use xlink:href="#DejaVuSans-20" x="1066.414062"/>
     <use xlink:href="#DejaVuSans-50" x="1098.201172"/>
     <use xlink:href="#DejaVuSans-72" x="1156.753906"/>
     <use xlink:href="#DejaVuSans-6f" x="1195.617188"/>
     <use xlink:href="#DejaVuSans-62" x="1256.798828"/>
     <use xlink:href="#DejaVuSans-61" x="1320.275391"/>
     <use xlink:href="#DejaVuSans-62" x="1381.554688"/>
     <use xlink:href="#DejaVuSans-69" x="1445.03125"/>
     <use xlink:href="#DejaVuSans-6c" x="1472.814453"/>
     <use xlink:href="#DejaVuSans-69" x="1500.597656"/>
     <use xlink:href="#DejaVuSans-74" x="1528.380859"/>
     <use xlink:href="#DejaVuSans-79" x="1567.589844"/>
     <use xlink:href="#DejaVuSans-20" x="1626.769531"/>
     <use xlink:href="#DejaVuSans-49" x="1658.556641"/>
     <use xlink:href="#DejaVuSans-6e" x="1688.048828"/>
     <use xlink:href="#DejaVuSans-64" x="1751.427734"/>
     <use xlink:href="#DejaVuSans-69" x="1814.904297"/>
     <use xlink:href="#DejaVuSans-63" x="1842.6875"/>
     <use xlink:href="#DejaVuSans-61" x="1897.667969"/>
     <use xlink:href="#DejaVuSans-74" x="1958.947266"/>
     <use xlink:href="#DejaVuSans-6f" x="1998.15625"/>
     <use xlink:href="#DejaVuSans-72" x="2059.337891"/>
     <use xlink:href="#DejaVuSans-20" x="2100.451172"/>
     <use xlink:href="#DejaVuSans-2d" x="2132.238281"/>
     <use xlink:href="#DejaVuSans-20" x="2168.322266"/>
     <use xlink:href="#DejaVuSans-33" x="2200.109375"/>
     <use xlink:href="#DejaVuSans-59" x="2263.732422"/>
     <use xlink:href="#DejaVuSans-20" x="2324.816406"/>
     <use xlink:href="#DejaVuSans-28" x="2356.603516"/>
     <use xlink:href="#DejaVuSans-55" x="2395.617188"/>
     <use xlink:href="#DejaVuSans-70" x="2468.810547"/>
     <use xlink:href="#DejaVuSans-64" x="2532.287109"/>
     <use xlink:href="#DejaVuSans-61" x="2595.763672"/>
     <use xlink:href="#DejaVuSans-74" x="2657.042969"/>
     <use xlink:href="#DejaVuSans-65" x="2696.251953"/>
     <use xlink:href="#DejaVuSans-64" x="2757.775391"/>
     <use xlink:href="#DejaVuSans-20" x="2821.251953"/>
     <use xlink:href="#DejaVuSans-32" x="2853.039062"/>
     <use xlink:href="#DejaVuSans-30" x="2916.662109"/>
     <use xlink:href="#DejaVuSans-32" x="2980.285156"/>
     <use xlink:href="#DejaVuSans-34" x="3043.908203"/>
     <use xlink:href="#DejaVuSans-2d" x="3107.53125"/>
     <use xlink:href="#DejaVuSans-30" x="3143.615234"/>
     <use xlink:href="#DejaVuSans-33" x="3207.238281"/>
     <use xlink:href="#DejaVuSans-2d" x="3270.861328"/>
     <use xlink:href="#DejaVuSans-31" x="3306.945312"/>
     <use xlink:href="#DejaVuSans-38" x="3370.568359"/>
     <use xlink:href="#DejaVuSans-20" x="3434.191406"/>
     <use xlink:href="#DejaVuSans-31" x="3465.978516"/>
     <use xlink:href="#DejaVuSans-38" x="3529.601562"/>
     <use xlink:href="#DejaVuSans-3a" x="3593.224609"/>
     <use xlink:href="#DejaVuSans-35" x="3626.916016"/>
     <use xlink:href="#DejaVuSans-31" x="3690.539062"/>
     <use xlink:href="#DejaVuSans-3a" x="3754.162109"/>
     <use xlink:href="#DejaVuSans-32" x="3787.853516"/>
     <use xlink:href="#DejaVuSans-32" x="3851.476562"/>
     <use xlink:href="#DejaVuSans-29" x="3915.099609"/>
    </g>
   </g>
  </g>
  <g id="legend_1">
   <g id="patch_11">
    <path d="M 7 37.35625 
L 83.190625 37.35625 
Q 85.190625 37.35625 85.190625 35.35625 
L 85.190625 7 
Q 85.190625 5 83.190625 5 
L 7 5 
Q 5 5 5 7 
L 5 35.35625 
Q 5 37.35625 7 37.35625 
z
" style="fill: #ffffff; opacity: 0.8; stroke: #cccccc; stroke-linejoin: miter"/>
   </g>
   <g id="line2d_26">
    <path d="M 9 13.098438 
L 19 13.098438 
L 29 13.098438 
" style="fill: none; stroke: #0000ff; stroke-width: 1.5; stroke-linecap: square"/>
   </g>
   <g id="text_28">
    <!-- VIX -->
    <g transform="translate(37 16.598438) scale(0.1 -0.1)">
     <use xlink:href="#DejaVuSans-56"/>
     <use xlink:href="#DejaVuSans-49" x="68.408203"/>
     <use xlink:href="#DejaVuSans-58" x="97.900391"/>
    </g>
   </g>
   <g id="line2d_27">
    <path d="M 9 27.776563 
L 19 27.776563 
L 29 27.776563 
" style="fill: none; stroke: #ff0000; stroke-width: 1.5; stroke-linecap: square"/>
   </g>
   <g id="text_29">
    <!-- Indicator -->
    <g transform="translate(37 31.276563) scale(0.1 -0.1)">
     <use xlink:href="#DejaVuSans-49"/>
     <use xlink:href="#DejaVuSans-6e" x="29.492188"/>
     <use xlink:href="#DejaVuSans-64" x="92.871094"/>
     <use xlink:href="#DejaVuSans-69" x="156.347656"/>
     <use xlink:href="#DejaVuSans-63" x="184.130859"/>
     <use xlink:href="#DejaVuSans-61" x="239.111328"/>
     <use xlink:href="#DejaVuSans-74" x="300.390625"/>
     <use xlink:href="#DejaVuSans-6f" x="339.599609"/>
     <use xlink:href="#DejaVuSans-72" x="400.78125"/>
    </g>
   </g>
  </g>
 </g>
 <defs>
  <clipPath id="p2ab769b959">
   <rect x="144" y="69.12" width="892.8" height="443.52"/>
  </clipPath>
 </defs>
</svg>
