<?xml version="1.0" encoding="utf-8" standalone="no"?>
<!DOCTYPE svg PUBLIC "-//W3C//DTD SVG 1.1//EN"
  "http://www.w3.org/Graphics/SVG/1.1/DTD/svg11.dtd">
<svg xmlns:xlink="http://www.w3.org/1999/xlink" width="1296pt" height="288pt" viewBox="0 0 1296 288" xmlns="http://www.w3.org/2000/svg" version="1.1">
 <metadata>
  <rdf:RDF xmlns:dc="http://purl.org/dc/elements/1.1/" xmlns:cc="http://creativecommons.org/ns#" xmlns:rdf="http://www.w3.org/1999/02/22-rdf-syntax-ns#">
   <cc:Work>
    <dc:type rdf:resource="http://purl.org/dc/dcmitype/StillImage"/>
    <dc:date>2024-03-21T15:00:28.196652</dc:date>
    <dc:format>image/svg+xml</dc:format>
    <dc:creator>
     <cc:Agent>
      <dc:title>Matplotlib v3.8.0, https://matplotlib.org/</dc:title>
     </cc:Agent>
    </dc:creator>
   </cc:Work>
  </rdf:RDF>
 </metadata>
 <defs>
  <style type="text/css">*{stroke-linejoin: round; stroke-linecap: butt}</style>
 </defs>
 <g id="figure_1">
  <g id="patch_1">
   <path d="M 0 288 
L 1296 288 
L 1296 0 
L 0 0 
z
" style="fill: #ffffff"/>
  </g>
  <g id="axes_1">
   <g id="patch_2">
    <path d="M 162 256.32 
L 1166.4 256.32 
L 1166.4 34.56 
L 162 34.56 
z
" style="fill: #ffffff"/>
   </g>
   <g id="matplotlib.axis_1">
    <g id="xtick_1">
     <g id="line2d_1">
      <defs>
       <path id="m0cd5c1f574" d="M 0 0 
L 0 3.5 
" style="stroke: #000000; stroke-width: 0.8"/>
      </defs>
      <g>
       <use xlink:href="#m0cd5c1f574" x="241.009465" y="256.32" style="stroke: #000000; stroke-width: 0.8"/>
      </g>
     </g>
     <g id="text_1">
      <!-- 2021-05 -->
      <g transform="translate(220.118058 270.918437) scale(0.1 -0.1)">
       <defs>
        <path id="DejaVuSans-32" d="M 1228 531 
L 3431 531 
L 3431 0 
L 469 0 
L 469 531 
Q 828 903 1448 1529 
Q 2069 2156 2228 2338 
Q 2531 2678 2651 2914 
Q 2772 3150 2772 3378 
Q 2772 3750 2511 3984 
Q 2250 4219 1831 4219 
Q 1534 4219 1204 4116 
Q 875 4013 500 3803 
L 500 4441 
Q 881 4594 1212 4672 
Q 1544 4750 1819 4750 
Q 2544 4750 2975 4387 
Q 3406 4025 3406 3419 
Q 3406 3131 3298 2873 
Q 3191 2616 2906 2266 
Q 2828 2175 2409 1742 
Q 1991 1309 1228 531 
z
" transform="scale(0.015625)"/>
        <path id="DejaVuSans-30" d="M 2034 4250 
Q 1547 4250 1301 3770 
Q 1056 3291 1056 2328 
Q 1056 1369 1301 889 
Q 1547 409 2034 409 
Q 2525 409 2770 889 
Q 3016 1369 3016 2328 
Q 3016 3291 2770 3770 
Q 2525 4250 2034 4250 
z
M 2034 4750 
Q 2819 4750 3233 4129 
Q 3647 3509 3647 2328 
Q 3647 1150 3233 529 
Q 2819 -91 2034 -91 
Q 1250 -91 836 529 
Q 422 1150 422 2328 
Q 422 3509 836 4129 
Q 1250 4750 2034 4750 
z
" transform="scale(0.015625)"/>
        <path id="DejaVuSans-31" d="M 794 531 
L 1825 531 
L 1825 4091 
L 703 3866 
L 703 4441 
L 1819 4666 
L 2450 4666 
L 2450 531 
L 3481 531 
L 3481 0 
L 794 0 
L 794 531 
z
" transform="scale(0.015625)"/>
        <path id="DejaVuSans-2d" d="M 313 2009 
L 1997 2009 
L 1997 1497 
L 313 1497 
L 313 2009 
z
" transform="scale(0.015625)"/>
        <path id="DejaVuSans-35" d="M 691 4666 
L 3169 4666 
L 3169 4134 
L 1269 4134 
L 1269 2991 
Q 1406 3038 1543 3061 
Q 1681 3084 1819 3084 
Q 2600 3084 3056 2656 
Q 3513 2228 3513 1497 
Q 3513 744 3044 326 
Q 2575 -91 1722 -91 
Q 1428 -91 1123 -41 
Q 819 9 494 109 
L 494 744 
Q 775 591 1075 516 
Q 1375 441 1709 441 
Q 2250 441 2565 725 
Q 2881 1009 2881 1497 
Q 2881 1984 2565 2268 
Q 2250 2553 1709 2553 
Q 1456 2553 1204 2497 
Q 953 2441 691 2322 
L 691 4666 
z
" transform="scale(0.015625)"/>
       </defs>
       <use xlink:href="#DejaVuSans-32"/>
       <use xlink:href="#DejaVuSans-30" x="63.623047"/>
       <use xlink:href="#DejaVuSans-32" x="127.246094"/>
       <use xlink:href="#DejaVuSans-31" x="190.869141"/>
       <use xlink:href="#DejaVuSans-2d" x="254.492188"/>
       <use xlink:href="#DejaVuSans-30" x="290.576172"/>
       <use xlink:href="#DejaVuSans-35" x="354.199219"/>
      </g>
     </g>
    </g>
    <g id="xtick_2">
     <g id="line2d_2">
      <g>
       <use xlink:href="#m0cd5c1f574" x="343.575841" y="256.32" style="stroke: #000000; stroke-width: 0.8"/>
      </g>
     </g>
     <g id="text_2">
      <!-- 2021-09 -->
      <g transform="translate(322.684434 270.918437) scale(0.1 -0.1)">
       <defs>
        <path id="DejaVuSans-39" d="M 703 97 
L 703 672 
Q 941 559 1184 500 
Q 1428 441 1663 441 
Q 2288 441 2617 861 
Q 2947 1281 2994 2138 
Q 2813 1869 2534 1725 
Q 2256 1581 1919 1581 
Q 1219 1581 811 2004 
Q 403 2428 403 3163 
Q 403 3881 828 4315 
Q 1253 4750 1959 4750 
Q 2769 4750 3195 4129 
Q 3622 3509 3622 2328 
Q 3622 1225 3098 567 
Q 2575 -91 1691 -91 
Q 1453 -91 1209 -44 
Q 966 3 703 97 
z
M 1959 2075 
Q 2384 2075 2632 2365 
Q 2881 2656 2881 3163 
Q 2881 3666 2632 3958 
Q 2384 4250 1959 4250 
Q 1534 4250 1286 3958 
Q 1038 3666 1038 3163 
Q 1038 2656 1286 2365 
Q 1534 2075 1959 2075 
z
" transform="scale(0.015625)"/>
       </defs>
       <use xlink:href="#DejaVuSans-32"/>
       <use xlink:href="#DejaVuSans-30" x="63.623047"/>
       <use xlink:href="#DejaVuSans-32" x="127.246094"/>
       <use xlink:href="#DejaVuSans-31" x="190.869141"/>
       <use xlink:href="#DejaVuSans-2d" x="254.492188"/>
       <use xlink:href="#DejaVuSans-30" x="290.576172"/>
       <use xlink:href="#DejaVuSans-39" x="354.199219"/>
      </g>
     </g>
    </g>
    <g id="xtick_3">
     <g id="line2d_3">
      <g>
       <use xlink:href="#m0cd5c1f574" x="445.343088" y="256.32" style="stroke: #000000; stroke-width: 0.8"/>
      </g>
     </g>
     <g id="text_3">
      <!-- 2022-01 -->
      <g transform="translate(424.451682 270.918437) scale(0.1 -0.1)">
       <use xlink:href="#DejaVuSans-32"/>
       <use xlink:href="#DejaVuSans-30" x="63.623047"/>
       <use xlink:href="#DejaVuSans-32" x="127.246094"/>
       <use xlink:href="#DejaVuSans-32" x="190.869141"/>
       <use xlink:href="#DejaVuSans-2d" x="254.492188"/>
       <use xlink:href="#DejaVuSans-30" x="290.576172"/>
       <use xlink:href="#DejaVuSans-31" x="354.199219"/>
      </g>
     </g>
    </g>
    <g id="xtick_4">
     <g id="line2d_4">
      <g>
       <use xlink:href="#m0cd5c1f574" x="545.373101" y="256.32" style="stroke: #000000; stroke-width: 0.8"/>
      </g>
     </g>
     <g id="text_4">
      <!-- 2022-05 -->
      <g transform="translate(524.481695 270.918437) scale(0.1 -0.1)">
       <use xlink:href="#DejaVuSans-32"/>
       <use xlink:href="#DejaVuSans-30" x="63.623047"/>
       <use xlink:href="#DejaVuSans-32" x="127.246094"/>
       <use xlink:href="#DejaVuSans-32" x="190.869141"/>
       <use xlink:href="#DejaVuSans-2d" x="254.492188"/>
       <use xlink:href="#DejaVuSans-30" x="290.576172"/>
       <use xlink:href="#DejaVuSans-35" x="354.199219"/>
      </g>
     </g>
    </g>
    <g id="xtick_5">
     <g id="line2d_5">
      <g>
       <use xlink:href="#m0cd5c1f574" x="647.939477" y="256.32" style="stroke: #000000; stroke-width: 0.8"/>
      </g>
     </g>
     <g id="text_5">
      <!-- 2022-09 -->
      <g transform="translate(627.048071 270.918437) scale(0.1 -0.1)">
       <use xlink:href="#DejaVuSans-32"/>
       <use xlink:href="#DejaVuSans-30" x="63.623047"/>
       <use xlink:href="#DejaVuSans-32" x="127.246094"/>
       <use xlink:href="#DejaVuSans-32" x="190.869141"/>
       <use xlink:href="#DejaVuSans-2d" x="254.492188"/>
       <use xlink:href="#DejaVuSans-30" x="290.576172"/>
       <use xlink:href="#DejaVuSans-39" x="354.199219"/>
      </g>
     </g>
    </g>
    <g id="xtick_6">
     <g id="line2d_6">
      <g>
       <use xlink:href="#m0cd5c1f574" x="749.706725" y="256.32" style="stroke: #000000; stroke-width: 0.8"/>
      </g>
     </g>
     <g id="text_6">
      <!-- 2023-01 -->
      <g transform="translate(728.815319 270.918437) scale(0.1 -0.1)">
       <defs>
        <path id="DejaVuSans-33" d="M 2597 2516 
Q 3050 2419 3304 2112 
Q 3559 1806 3559 1356 
Q 3559 666 3084 287 
Q 2609 -91 1734 -91 
Q 1441 -91 1130 -33 
Q 819 25 488 141 
L 488 750 
Q 750 597 1062 519 
Q 1375 441 1716 441 
Q 2309 441 2620 675 
Q 2931 909 2931 1356 
Q 2931 1769 2642 2001 
Q 2353 2234 1838 2234 
L 1294 2234 
L 1294 2753 
L 1863 2753 
Q 2328 2753 2575 2939 
Q 2822 3125 2822 3475 
Q 2822 3834 2567 4026 
Q 2313 4219 1838 4219 
Q 1578 4219 1281 4162 
Q 984 4106 628 3988 
L 628 4550 
Q 988 4650 1302 4700 
Q 1616 4750 1894 4750 
Q 2613 4750 3031 4423 
Q 3450 4097 3450 3541 
Q 3450 3153 3228 2886 
Q 3006 2619 2597 2516 
z
" transform="scale(0.015625)"/>
       </defs>
       <use xlink:href="#DejaVuSans-32"/>
       <use xlink:href="#DejaVuSans-30" x="63.623047"/>
       <use xlink:href="#DejaVuSans-32" x="127.246094"/>
       <use xlink:href="#DejaVuSans-33" x="190.869141"/>
       <use xlink:href="#DejaVuSans-2d" x="254.492188"/>
       <use xlink:href="#DejaVuSans-30" x="290.576172"/>
       <use xlink:href="#DejaVuSans-31" x="354.199219"/>
      </g>
     </g>
    </g>
    <g id="xtick_7">
     <g id="line2d_7">
      <g>
       <use xlink:href="#m0cd5c1f574" x="849.736737" y="256.32" style="stroke: #000000; stroke-width: 0.8"/>
      </g>
     </g>
     <g id="text_7">
      <!-- 2023-05 -->
      <g transform="translate(828.845331 270.918437) scale(0.1 -0.1)">
       <use xlink:href="#DejaVuSans-32"/>
       <use xlink:href="#DejaVuSans-30" x="63.623047"/>
       <use xlink:href="#DejaVuSans-32" x="127.246094"/>
       <use xlink:href="#DejaVuSans-33" x="190.869141"/>
       <use xlink:href="#DejaVuSans-2d" x="254.492188"/>
       <use xlink:href="#DejaVuSans-30" x="290.576172"/>
       <use xlink:href="#DejaVuSans-35" x="354.199219"/>
      </g>
     </g>
    </g>
    <g id="xtick_8">
     <g id="line2d_8">
      <g>
       <use xlink:href="#m0cd5c1f574" x="952.303113" y="256.32" style="stroke: #000000; stroke-width: 0.8"/>
      </g>
     </g>
     <g id="text_8">
      <!-- 2023-09 -->
      <g transform="translate(931.411707 270.918437) scale(0.1 -0.1)">
       <use xlink:href="#DejaVuSans-32"/>
       <use xlink:href="#DejaVuSans-30" x="63.623047"/>
       <use xlink:href="#DejaVuSans-32" x="127.246094"/>
       <use xlink:href="#DejaVuSans-33" x="190.869141"/>
       <use xlink:href="#DejaVuSans-2d" x="254.492188"/>
       <use xlink:href="#DejaVuSans-30" x="290.576172"/>
       <use xlink:href="#DejaVuSans-39" x="354.199219"/>
      </g>
     </g>
    </g>
    <g id="xtick_9">
     <g id="line2d_9">
      <g>
       <use xlink:href="#m0cd5c1f574" x="1054.070361" y="256.32" style="stroke: #000000; stroke-width: 0.8"/>
      </g>
     </g>
     <g id="text_9">
      <!-- 2024-01 -->
      <g transform="translate(1033.178955 270.918437) scale(0.1 -0.1)">
       <defs>
        <path id="DejaVuSans-34" d="M 2419 4116 
L 825 1625 
L 2419 1625 
L 2419 4116 
z
M 2253 4666 
L 3047 4666 
L 3047 1625 
L 3713 1625 
L 3713 1100 
L 3047 1100 
L 3047 0 
L 2419 0 
L 2419 1100 
L 313 1100 
L 313 1709 
L 2253 4666 
z
" transform="scale(0.015625)"/>
       </defs>
       <use xlink:href="#DejaVuSans-32"/>
       <use xlink:href="#DejaVuSans-30" x="63.623047"/>
       <use xlink:href="#DejaVuSans-32" x="127.246094"/>
       <use xlink:href="#DejaVuSans-34" x="190.869141"/>
       <use xlink:href="#DejaVuSans-2d" x="254.492188"/>
       <use xlink:href="#DejaVuSans-30" x="290.576172"/>
       <use xlink:href="#DejaVuSans-31" x="354.199219"/>
      </g>
     </g>
    </g>
    <g id="xtick_10">
     <g id="line2d_10">
      <g>
       <use xlink:href="#m0cd5c1f574" x="1154.934247" y="256.32" style="stroke: #000000; stroke-width: 0.8"/>
      </g>
     </g>
     <g id="text_10">
      <!-- 2024-05 -->
      <g transform="translate(1134.04284 270.918437) scale(0.1 -0.1)">
       <use xlink:href="#DejaVuSans-32"/>
       <use xlink:href="#DejaVuSans-30" x="63.623047"/>
       <use xlink:href="#DejaVuSans-32" x="127.246094"/>
       <use xlink:href="#DejaVuSans-34" x="190.869141"/>
       <use xlink:href="#DejaVuSans-2d" x="254.492188"/>
       <use xlink:href="#DejaVuSans-30" x="290.576172"/>
       <use xlink:href="#DejaVuSans-35" x="354.199219"/>
      </g>
     </g>
    </g>
    <g id="text_11">
     <!-- Date -->
     <g transform="translate(652.249219 284.596563) scale(0.1 -0.1)">
      <defs>
       <path id="DejaVuSans-44" d="M 1259 4147 
L 1259 519 
L 2022 519 
Q 2988 519 3436 956 
Q 3884 1394 3884 2338 
Q 3884 3275 3436 3711 
Q 2988 4147 2022 4147 
L 1259 4147 
z
M 628 4666 
L 1925 4666 
Q 3281 4666 3915 4102 
Q 4550 3538 4550 2338 
Q 4550 1131 3912 565 
Q 3275 0 1925 0 
L 628 0 
L 628 4666 
z
" transform="scale(0.015625)"/>
       <path id="DejaVuSans-61" d="M 2194 1759 
Q 1497 1759 1228 1600 
Q 959 1441 959 1056 
Q 959 750 1161 570 
Q 1363 391 1709 391 
Q 2188 391 2477 730 
Q 2766 1069 2766 1631 
L 2766 1759 
L 2194 1759 
z
M 3341 1997 
L 3341 0 
L 2766 0 
L 2766 531 
Q 2569 213 2275 61 
Q 1981 -91 1556 -91 
Q 1019 -91 701 211 
Q 384 513 384 1019 
Q 384 1609 779 1909 
Q 1175 2209 1959 2209 
L 2766 2209 
L 2766 2266 
Q 2766 2663 2505 2880 
Q 2244 3097 1772 3097 
Q 1472 3097 1187 3025 
Q 903 2953 641 2809 
L 641 3341 
Q 956 3463 1253 3523 
Q 1550 3584 1831 3584 
Q 2591 3584 2966 3190 
Q 3341 2797 3341 1997 
z
" transform="scale(0.015625)"/>
       <path id="DejaVuSans-74" d="M 1172 4494 
L 1172 3500 
L 2356 3500 
L 2356 3053 
L 1172 3053 
L 1172 1153 
Q 1172 725 1289 603 
Q 1406 481 1766 481 
L 2356 481 
L 2356 0 
L 1766 0 
Q 1100 0 847 248 
Q 594 497 594 1153 
L 594 3053 
L 172 3053 
L 172 3500 
L 594 3500 
L 594 4494 
L 1172 4494 
z
" transform="scale(0.015625)"/>
       <path id="DejaVuSans-65" d="M 3597 1894 
L 3597 1613 
L 953 1613 
Q 991 1019 1311 708 
Q 1631 397 2203 397 
Q 2534 397 2845 478 
Q 3156 559 3463 722 
L 3463 178 
Q 3153 47 2828 -22 
Q 2503 -91 2169 -91 
Q 1331 -91 842 396 
Q 353 884 353 1716 
Q 353 2575 817 3079 
Q 1281 3584 2069 3584 
Q 2775 3584 3186 3129 
Q 3597 2675 3597 1894 
z
M 3022 2063 
Q 3016 2534 2758 2815 
Q 2500 3097 2075 3097 
Q 1594 3097 1305 2825 
Q 1016 2553 972 2059 
L 3022 2063 
z
" transform="scale(0.015625)"/>
      </defs>
      <use xlink:href="#DejaVuSans-44"/>
      <use xlink:href="#DejaVuSans-61" x="77.001953"/>
      <use xlink:href="#DejaVuSans-74" x="138.28125"/>
      <use xlink:href="#DejaVuSans-65" x="177.490234"/>
     </g>
    </g>
   </g>
   <g id="matplotlib.axis_2">
    <g id="ytick_1">
     <g id="line2d_11">
      <defs>
       <path id="mf60f44b827" d="M 0 0 
L -3.5 0 
" style="stroke: #0000ff; stroke-width: 0.8"/>
      </defs>
      <g>
       <use xlink:href="#mf60f44b827" x="162" y="222.011615" style="fill: #0000ff; stroke: #0000ff; stroke-width: 0.8"/>
      </g>
     </g>
     <g id="text_12">
      <!-- 15 -->
      <g style="fill: #0000ff" transform="translate(142.275 225.810833) scale(0.1 -0.1)">
       <use xlink:href="#DejaVuSans-31"/>
       <use xlink:href="#DejaVuSans-35" x="63.623047"/>
      </g>
     </g>
    </g>
    <g id="ytick_2">
     <g id="line2d_12">
      <g>
       <use xlink:href="#mf60f44b827" x="162" y="180.666251" style="fill: #0000ff; stroke: #0000ff; stroke-width: 0.8"/>
      </g>
     </g>
     <g id="text_13">
      <!-- 20 -->
      <g style="fill: #0000ff" transform="translate(142.275 184.46547) scale(0.1 -0.1)">
       <use xlink:href="#DejaVuSans-32"/>
       <use xlink:href="#DejaVuSans-30" x="63.623047"/>
      </g>
     </g>
    </g>
    <g id="ytick_3">
     <g id="line2d_13">
      <g>
       <use xlink:href="#mf60f44b827" x="162" y="139.320888" style="fill: #0000ff; stroke: #0000ff; stroke-width: 0.8"/>
      </g>
     </g>
     <g id="text_14">
      <!-- 25 -->
      <g style="fill: #0000ff" transform="translate(142.275 143.120107) scale(0.1 -0.1)">
       <use xlink:href="#DejaVuSans-32"/>
       <use xlink:href="#DejaVuSans-35" x="63.623047"/>
      </g>
     </g>
    </g>
    <g id="ytick_4">
     <g id="line2d_14">
      <g>
       <use xlink:href="#mf60f44b827" x="162" y="97.975525" style="fill: #0000ff; stroke: #0000ff; stroke-width: 0.8"/>
      </g>
     </g>
     <g id="text_15">
      <!-- 30 -->
      <g style="fill: #0000ff" transform="translate(142.275 101.774744) scale(0.1 -0.1)">
       <use xlink:href="#DejaVuSans-33"/>
       <use xlink:href="#DejaVuSans-30" x="63.623047"/>
      </g>
     </g>
    </g>
    <g id="ytick_5">
     <g id="line2d_15">
      <g>
       <use xlink:href="#mf60f44b827" x="162" y="56.630162" style="fill: #0000ff; stroke: #0000ff; stroke-width: 0.8"/>
      </g>
     </g>
     <g id="text_16">
      <!-- 35 -->
      <g style="fill: #0000ff" transform="translate(142.275 60.42938) scale(0.1 -0.1)">
       <use xlink:href="#DejaVuSans-33"/>
       <use xlink:href="#DejaVuSans-35" x="63.623047"/>
      </g>
     </g>
    </g>
    <g id="text_17">
     <!-- VIX -->
     <g style="fill: #0000ff" transform="translate(136.195312 153.760312) rotate(-90) scale(0.1 -0.1)">
      <defs>
       <path id="DejaVuSans-56" d="M 1831 0 
L 50 4666 
L 709 4666 
L 2188 738 
L 3669 4666 
L 4325 4666 
L 2547 0 
L 1831 0 
z
" transform="scale(0.015625)"/>
       <path id="DejaVuSans-49" d="M 628 4666 
L 1259 4666 
L 1259 0 
L 628 0 
L 628 4666 
z
" transform="scale(0.015625)"/>
       <path id="DejaVuSans-58" d="M 403 4666 
L 1081 4666 
L 2241 2931 
L 3406 4666 
L 4084 4666 
L 2584 2425 
L 4184 0 
L 3506 0 
L 2194 1984 
L 872 0 
L 191 0 
L 1856 2491 
L 403 4666 
z
" transform="scale(0.015625)"/>
      </defs>
      <use xlink:href="#DejaVuSans-56"/>
      <use xlink:href="#DejaVuSans-49" x="68.408203"/>
      <use xlink:href="#DejaVuSans-58" x="97.900391"/>
     </g>
    </g>
   </g>
   <g id="line2d_16">
    <path d="M 207.654545 189.92762 
L 208.488418 178.185536 
L 209.322291 170.743358 
L 210.156164 182.23738 
L 210.990037 190.092989 
L 213.491656 174.54714 
L 214.325529 183.891185 
L 215.159402 185.627698 
L 215.993275 202.744676 
L 219.328767 197.948614 
L 220.16264 196.212101 
L 220.996513 204.150419 
L 221.830386 205.886917 
L 222.664259 208.036877 
L 225.165878 206.217687 
L 225.999751 208.367648 
L 226.833624 205.556162 
L 227.667497 209.029173 
L 228.50137 211.675274 
L 231.002989 203.075431 
L 231.836862 191.581425 
L 232.670735 201.338933 
L 233.504608 191.333363 
L 234.338481 202.744676 
L 236.8401 200.181268 
L 237.673973 200.842793 
L 238.507846 203.158123 
L 239.341719 200.42933 
L 240.175592 192.160257 
L 242.67721 194.640989 
L 243.511083 184.966173 
L 244.344956 187.694966 
L 245.178829 193.979463 
L 246.012702 208.036877 
L 248.514321 183.477737 
L 249.348194 165.451156 
L 250.182067 117.903989 
L 251.849813 190.506452 
L 254.351432 182.981597 
L 255.185305 169.585693 
L 256.019178 162.63967 
L 256.853051 175.125972 
L 257.686924 179.425894 
L 260.188543 193.896771 
L 261.022416 190.258374 
L 261.856289 202.496598 
L 262.690162 207.62343 
L 263.524035 207.458045 
L 266.859527 198.031307 
L 267.6934 201.504318 
L 268.527273 196.873626 
L 269.361146 210.269531 
L 271.862765 210.269531 
L 272.696638 204.894637 
L 273.530511 198.114 
L 274.364384 212.915632 
L 275.198257 216.636721 
L 277.699875 210.517609 
L 278.533748 205.308084 
L 279.367621 195.964039 
L 280.201494 199.271665 
L 281.035367 174.877894 
L 283.536986 198.114 
L 284.370859 208.284955 
L 286.872478 216.884791 
L 289.374097 215.727118 
L 290.20797 213.577157 
L 291.041843 215.148285 
L 291.875716 218.042464 
L 292.709589 221.432782 
L 296.045081 210.104146 
L 296.878954 212.088721 
L 297.712827 188.935324 
L 298.5467 212.254106 
L 301.048319 212.336799 
L 301.882192 204.481174 
L 302.716065 211.013749 
L 303.549938 205.390777 
L 304.383811 193.483308 
L 306.88543 159.99357 
L 307.719303 182.898905 
L 308.553176 197.948614 
L 309.387049 199.767805 
L 310.220922 203.819648 
L 312.72254 200.677408 
L 313.556413 185.958453 
L 314.390286 194.640989 
L 315.224159 199.685112 
L 316.058032 195.219821 
L 318.559651 185.131558 
L 319.393524 196.873626 
L 320.227397 197.452475 
L 321.06127 203.158123 
L 321.895143 212.502184 
L 324.396762 207.788815 
L 325.230635 207.209967 
L 326.898381 217.13286 
L 327.732254 218.290534 
L 330.233873 212.750246 
L 331.067746 197.948614 
L 331.901619 167.68381 
L 332.735492 166.856899 
L 333.569365 192.57372 
L 336.070984 204.233112 
L 336.904857 203.654279 
L 337.73873 207.209967 
L 338.572603 190.258374 
L 339.406476 210.517609 
L 341.908095 212.171414 
L 342.741968 209.773391 
L 343.575841 212.832939 
L 344.409714 210.352223 
L 345.243587 210.352223 
L 348.579078 196.046732 
L 349.412951 197.535167 
L 350.246824 190.589145 
L 351.080697 172.810626 
L 353.582316 185.87576 
L 354.416189 185.131558 
L 355.250062 195.715961 
L 356.083935 191.498732 
L 356.917808 173.968307 
L 359.419427 133.449854 
L 360.2533 144.61309 
L 361.087173 173.472151 
L 361.921046 191.994888 
L 362.754919 199.271665 
L 365.256538 190.9199 
L 366.090411 153.791765 
L 366.924284 159.49743 
L 367.758157 154.701368 
L 368.59203 171.570268 
L 371.093649 156.189804 
L 371.927522 169.916463 
L 372.761395 172.397179 
L 373.595268 184.470017 
L 374.429141 190.837207 
L 376.93076 180.666251 
L 377.764633 181.906609 
L 378.598506 191.912195 
L 379.432379 206.631134 
L 380.266252 211.261826 
L 382.76787 211.179134 
L 383.601743 216.223265 
L 384.435616 217.959771 
L 385.269489 221.928922 
L 386.103362 218.455911 
L 388.604981 220.027039 
L 389.438854 213.907927 
L 390.272727 205.638855 
L 391.1066 209.359928 
L 391.940473 211.592581 
L 394.442092 210.352223 
L 395.275965 213.494464 
L 396.109838 221.184704 
L 396.943711 218.373226 
L 397.777584 209.773391 
L 400.313948 203.654279 
L 401.147821 199.023587 
L 401.981694 191.167977 
L 402.815567 200.015883 
L 403.64944 211.344503 
L 406.151059 209.690698 
L 406.984932 210.682978 
L 407.818804 204.563866 
L 408.652677 200.594715 
L 409.48655 197.948614 
L 411.988169 187.529581 
L 412.822042 185.793083 
L 413.655915 192.408335 
L 415.323661 109.386838 
L 417.82528 156.189804 
L 419.493026 88.714157 
L 420.326899 114.927118 
L 421.160772 92.435246 
L 423.662391 121.294307 
L 424.496264 165.037709 
L 425.330137 181.493162 
L 426.16401 167.601117 
L 426.997883 191.498732 
L 429.499502 178.102843 
L 430.333375 165.037709 
L 431.167248 186.537285 
L 432.001121 175.952882 
L 432.834994 167.68381 
L 435.336613 156.934006 
L 436.170486 172.314486 
L 437.004359 191.994888 
L 437.838232 197.535167 
L 441.173724 199.850497 
L 442.007597 201.008163 
L 442.841469 205.886917 
L 443.675342 202.744676 
L 444.509215 203.654279 
L 447.010834 208.781095 
L 447.844707 206.217687 
L 448.67858 182.898905 
L 449.512453 183.891185 
L 450.346326 190.9199 
L 452.847945 185.627698 
L 453.681818 193.814078 
L 454.515691 200.346637 
L 455.349564 178.102843 
L 456.183437 187.364196 
L 459.518929 157.595531 
L 460.352802 148.830319 
L 461.186675 134.442134 
L 462.020548 107.484955 
L 464.522167 98.802435 
L 465.35604 88.383402 
L 466.189913 81.76815 
L 467.023786 93.923681 
L 467.857659 117.325156 
L 470.359278 140.726631 
L 471.193151 164.458877 
L 472.027024 163.383888 
L 472.860897 144.695782 
L 473.69477 154.039843 
L 476.196389 157.016699 
L 477.864134 180.997022 
L 479.53188 119.805872 
L 482.033499 111.784877 
L 482.867372 133.532531 
L 483.701245 145.191922 
L 484.535118 113.604067 
L 485.368991 116.580938 
L 488.704483 107.815726 
L 489.538356 89.541067 
L 490.372229 95.329424 
L 491.206102 117.903989 
L 493.707721 96.735167 
L 494.541594 70.522206 
L 495.375467 91.856413 
L 496.20934 94.006374 
L 499.544832 44.64 
L 500.378705 55.555173 
L 501.212578 77.716291 
L 502.046451 96.073642 
L 502.880324 91.77372 
L 505.347198 83.339263 
L 506.181071 99.381268 
L 507.014944 125.511536 
L 507.848817 133.780609 
L 508.68269 148.664933 
L 511.184309 151.476419 
L 512.018182 156.355173 
L 512.852055 151.145665 
L 513.685928 166.856899 
L 514.519801 173.968307 
L 517.02142 183.725815 
L 517.855293 189.762234 
L 518.689166 186.206531 
L 519.523039 176.035575 
L 520.356912 183.725815 
L 522.858531 192.491028 
L 523.692403 172.149101 
L 524.526276 163.301196 
L 525.360149 167.849195 
L 526.194022 171.074128 
L 528.695641 144.530397 
L 529.529514 145.44 
L 530.363387 165.616542 
L 531.19726 158.339749 
L 534.532752 162.722363 
L 535.366625 169.337615 
L 536.200498 178.020151 
L 537.034371 158.505134 
L 537.868244 112.777173 
L 540.369863 122.617358 
L 541.203736 68.868385 
L 542.037609 84.745005 
L 542.871482 98.058218 
L 543.705355 69.860665 
L 546.206974 78.625894 
L 547.040847 104.177329 
L 547.87472 135.847877 
L 548.708593 88.052631 
L 549.542466 96.404397 
L 552.044085 58.69743 
L 552.877958 73.250984 
L 553.711831 76.806688 
L 554.545704 83.339263 
L 555.379577 107.31957 
L 557.881196 118.896284 
L 558.715068 130.224905 
L 559.548941 90.037223 
L 560.382814 103.350419 
L 561.216687 102.688894 
L 563.718306 110.544519 
L 564.552179 102.523509 
L 565.386052 111.454106 
L 566.219925 118.648207 
L 567.053798 133.367162 
L 570.38929 129.480687 
L 571.223163 133.615224 
L 572.057036 141.636234 
L 572.890909 141.057386 
L 575.392528 138.742056 
L 576.226401 147.424576 
L 577.060274 147.920731 
L 577.894147 130.307598 
L 578.72802 116.580938 
L 581.229639 64.733849 
L 582.063512 75.731731 
L 582.897385 101.117766 
L 583.731258 73.581754 
L 584.565131 88.63148 
L 587.900623 96.404397 
L 588.734496 106.658045 
L 589.568369 105.83115 
L 590.402242 120.88086 
L 592.903861 123.19619 
L 593.737733 111.536799 
L 594.571606 113.19062 
L 595.405479 108.642636 
L 596.239352 125.263458 
L 599.574844 118.317436 
L 600.408717 125.015396 
L 601.24259 130.39029 
L 602.076463 142.297759 
L 604.578082 129.646073 
L 605.411955 120.384704 
L 607.079701 127.74419 
L 607.913574 145.688078 
L 610.415193 136.840173 
L 611.249066 143.455424 
L 612.082939 148.582256 
L 612.916812 154.94943 
L 613.750685 155.610956 
L 616.252304 152.882162 
L 617.086177 141.884296 
L 617.92005 153.874458 
L 619.587796 169.668385 
L 622.089415 157.182084 
L 622.923288 148.168793 
L 623.757161 164.541553 
L 624.591034 168.758782 
L 625.424907 171.156821 
L 627.926526 169.99914 
L 628.760399 166.029989 
L 629.594271 182.816212 
L 630.428144 179.012431 
L 631.262017 184.55271 
L 633.763636 181.079699 
L 634.597509 183.229659 
L 635.431382 181.493162 
L 636.265255 184.304648 
L 639.600747 149.243782 
L 640.43462 146.680358 
L 641.268493 157.347469 
L 642.102366 165.947296 
L 642.936239 134.690212 
L 645.437858 129.315318 
L 646.271731 129.315318 
L 647.939477 134.690212 
L 648.77335 135.43443 
L 652.108842 123.526961 
L 652.942715 142.297759 
L 653.776588 150.814894 
L 654.610461 157.595531 
L 657.11208 148.664933 
L 657.945953 120.550089 
L 658.779826 129.728765 
L 659.613699 128.819162 
L 660.447572 128.5711 
L 662.949191 133.036391 
L 663.783064 121.459692 
L 664.616936 114.596363 
L 665.450809 119.888564 
L 666.284682 98.63705 
L 668.786301 79.287435 
L 669.620174 76.475949 
L 670.454047 96.487089 
L 671.28792 82.76043 
L 672.121793 84.57962 
L 674.623412 97.148614 
L 675.457285 105.665765 
L 676.291158 109.965687 
L 677.125031 93.675603 
L 677.958904 86.729581 
L 680.460523 77.716291 
L 681.294396 67.958782 
L 682.128269 68.454938 
L 682.962142 81.93352 
L 683.796015 81.271994 
L 686.297634 86.646888 
L 687.131507 93.840989 
L 687.96538 91.691028 
L 688.799253 98.14091 
L 689.633126 100.538933 
L 692.134745 99.215883 
L 692.968618 110.709904 
L 693.802491 120.467397 
L 694.636364 119.55781 
L 695.470237 133.119084 
L 697.971856 132.044111 
L 698.805729 132.622944 
L 699.639601 132.209481 
L 700.473474 136.840173 
L 701.307347 143.041977 
L 703.843711 144.695782 
L 704.677584 134.855581 
L 705.511457 130.307598 
L 706.34533 151.476419 
L 707.179203 159.828185 
L 709.680822 149.822614 
L 710.514695 143.124654 
L 711.348568 146.680358 
L 712.182441 148.168793 
L 713.016314 154.866738 
L 715.517933 161.151235 
L 717.185679 177.772073 
L 718.853425 176.531715 
L 721.355044 162.391608 
L 722.188917 165.037709 
L 723.02279 175.87019 
L 724.690535 188.439184 
L 727.192154 174.464447 
L 728.026027 162.722363 
L 728.8599 158.505134 
L 729.693773 161.730067 
L 730.527646 157.264776 
L 733.029265 139.320888 
L 733.863138 159.580122 
L 734.697011 171.239514 
L 735.530884 157.264776 
L 736.364757 159.001274 
L 738.866376 160.655095 
L 739.700249 168.428028 
L 740.534122 180.087419 
L 741.367995 164.376184 
L 742.201868 173.472151 
L 745.53736 167.022285 
L 746.371233 162.970441 
L 747.205106 168.758782 
L 748.038979 166.856899 
L 751.374471 156.685944 
L 752.208344 164.045413 
L 753.042217 160.32434 
L 753.87609 171.322206 
L 756.377709 164.376184 
L 757.211582 175.87019 
L 758.045455 171.652961 
L 758.879328 190.341067 
L 759.7132 194.310218 
L 763.048692 185.958453 
L 763.882565 177.854765 
L 764.716438 176.36633 
L 765.550311 181.906609 
L 768.05193 182.23738 
L 768.885803 187.281503 
L 769.719676 188.273799 
L 770.553549 191.167977 
L 771.387422 192.987168 
L 773.889041 181.162391 
L 774.722914 185.627698 
L 775.556787 198.279369 
L 776.39066 191.167977 
L 777.224533 194.475603 
L 779.726152 185.37962 
L 780.560025 191.74681 
L 782.227771 174.795217 
L 783.061644 176.283637 
L 785.563263 177.854765 
L 786.397136 189.679542 
L 787.231009 195.302514 
L 788.064882 179.260508 
L 788.898755 180.500866 
L 792.234247 156.934006 
L 793.06812 161.730067 
L 793.901993 171.239514 
L 794.735866 166.856899 
L 798.071357 174.877894 
L 798.90523 175.87019 
L 800.572976 193.152553 
L 803.074595 192.160257 
L 803.908468 184.05657 
L 804.742341 188.025721 
L 805.576214 159.083967 
L 806.410087 140.974709 
L 808.876961 126.751894 
L 809.710834 149.822614 
L 810.544707 129.89415 
L 811.37858 155.941726 
L 812.212453 135.103659 
L 814.714072 146.349603 
L 815.547945 169.254938 
L 816.381818 161.978145 
L 817.215691 159.083967 
L 818.049564 166.278067 
L 820.551183 175.704805 
L 821.385056 180.914329 
L 822.218929 187.943028 
L 823.052802 188.769939 
L 823.886675 191.41604 
L 826.388294 192.656413 
L 827.222167 188.935324 
L 828.05604 188.273799 
L 828.889913 193.896771 
L 833.059278 188.108414 
L 833.893151 188.191106 
L 834.727024 198.858218 
L 835.560897 204.894637 
L 838.062516 205.886917 
L 838.896389 206.879212 
L 839.730262 209.938776 
L 840.564134 204.067726 
L 841.398007 207.375352 
L 843.899626 206.383072 
L 844.733499 190.9199 
L 845.567372 190.258374 
L 846.401245 205.225391 
L 847.235118 215.56174 
L 849.736737 213.081017 
L 850.57061 199.023587 
L 851.404483 194.392911 
L 852.238356 179.922034 
L 853.072229 203.902341 
L 855.573848 205.638855 
L 856.407721 199.602435 
L 857.241594 205.969609 
L 858.075467 206.052302 
L 858.90934 205.225391 
L 861.410959 204.481174 
L 862.244832 197.287089 
L 863.078705 206.548442 
L 863.912578 213.329095 
L 864.746451 207.044598 
L 867.24807 203.736972 
L 868.081943 192.821782 
L 868.915816 180.418174 
L 869.749689 187.777659 
L 870.583562 197.617844 
L 873.919054 201.669703 
L 874.752927 197.700537 
L 875.5868 216.636721 
L 876.420672 225.319241 
L 878.922291 224.244268 
L 879.756164 230.61145 
L 880.590037 230.776835 
L 881.42391 233.174866 
L 882.257783 231.68643 
L 884.759402 221.928922 
L 885.593275 225.236556 
L 886.427148 231.272975 
L 887.261021 226.146151 
L 888.094894 234.084461 
L 891.430386 231.272975 
L 892.264259 236.895947 
L 893.098132 239.293978 
L 893.932005 234.911371 
L 896.433624 228.213419 
L 897.267497 232.430648 
L 898.10137 234.994056 
L 898.935243 234.084461 
L 899.769116 233.671006 
L 902.270735 233.836391 
L 903.938481 228.792252 
L 904.772354 218.373226 
L 905.606227 223.417358 
L 908.107846 221.432782 
L 908.941719 223.334665 
L 909.775592 234.084461 
L 910.609465 233.505628 
L 911.443337 235.738274 
L 913.944956 234.580609 
L 914.778829 236.069037 
L 915.612702 232.265263 
L 916.446575 230.36338 
L 917.280448 233.588313 
L 919.782067 231.024905 
L 920.61594 231.43836 
L 921.449813 236.97864 
L 922.283686 226.890369 
L 923.117559 235.820967 
L 925.619178 233.340243 
L 926.453051 230.85952 
L 927.286924 212.998324 
L 928.120797 214.404067 
L 928.95467 204.646559 
L 931.456289 215.644425 
L 932.290162 213.825235 
L 933.124035 214.073305 
L 933.957908 214.9829 
L 934.791781 223.334665 
L 937.2934 223.50005 
L 938.127273 209.938776 
L 938.961146 207.29266 
L 939.795019 198.114 
L 940.628892 202.992754 
L 943.130511 204.398497 
L 943.964384 205.721547 
L 944.798257 213.907927 
L 945.63213 203.819648 
L 946.466002 216.388643 
L 948.967621 221.350089 
L 950.635367 231.272975 
L 951.46924 233.836391 
L 952.303113 237.805542 
L 955.638605 230.197995 
L 956.472478 226.559606 
L 957.306351 226.973061 
L 958.140224 231.603738 
L 960.641843 231.9345 
L 961.475716 228.378804 
L 963.143462 240.038196 
L 963.977335 232.017193 
L 966.478954 230.280687 
L 967.312827 229.371092 
L 968.1467 220.853942 
L 968.980573 201.008163 
L 969.814446 203.819648 
L 972.316065 206.30038 
L 973.149938 189.431464 
L 973.983811 195.385206 
L 974.817684 202.661983 
L 975.651557 201.173548 
L 978.153176 200.42933 
L 978.987049 182.485442 
L 979.820922 192.408335 
L 980.654795 193.152553 
L 981.488667 201.75238 
L 983.990286 199.685112 
L 984.824159 205.225391 
L 985.658032 212.998324 
L 986.491905 208.036877 
L 987.325778 186.289223 
L 989.827397 203.736972 
L 990.66127 198.196692 
L 991.495143 187.116134 
L 992.329016 169.089553 
L 993.162889 166.526145 
L 995.664508 177.606688 
L 996.498381 189.183402 
L 997.332254 179.095123 
L 998.166127 175.043279 
L 999 170.164525 
L 1001.501619 182.73352 
L 1002.335492 196.046732 
L 1004.003238 216.554028 
L 1004.837111 222.755832 
L 1007.373474 222.92121 
L 1008.207347 223.582735 
L 1009.04122 226.559606 
L 1009.875093 219.613584 
L 1010.708966 228.874944 
L 1013.210585 223.99619 
L 1014.044458 228.957637 
L 1014.878331 228.792252 
L 1015.712204 227.634587 
L 1016.546077 231.9345 
L 1019.047696 235.159441 
L 1019.881569 235.655581 
L 1020.715442 239.790118 
L 1022.383188 243.015059 
L 1024.884807 241.113176 
L 1025.71868 241.113176 
L 1026.552553 238.715145 
L 1027.386426 239.211285 
L 1028.220299 241.609316 
L 1030.721918 237.888235 
L 1031.555791 239.790118 
L 1032.389664 238.79783 
L 1033.223537 238.053612 
L 1034.05741 243.924654 
L 1036.559029 241.609316 
L 1037.392902 246.24 
L 1038.226775 245.247712 
L 1039.060648 242.849681 
L 1039.894521 244.503494 
L 1042.396139 242.188148 
L 1043.230012 242.436226 
L 1044.063885 233.009481 
L 1044.897758 233.174866 
L 1045.731631 238.30169 
L 1049.067123 238.632453 
L 1049.900996 243.263129 
L 1050.734869 242.932366 
L 1051.568742 243.097751 
L 1054.904234 236.895947 
L 1055.738107 229.949925 
L 1056.57198 229.205707 
L 1057.405853 235.655581 
L 1059.907472 237.888235 
L 1060.741345 240.534335 
L 1061.575218 241.113176 
L 1062.409091 243.180444 
L 1063.242964 241.030483 
L 1066.578456 231.603738 
L 1067.412329 223.74812 
L 1068.246202 229.205707 
L 1069.080075 236.069037 
L 1071.581694 236.97864 
L 1072.415567 242.270841 
L 1073.24944 237.392087 
L 1074.083313 234.828679 
L 1074.917186 236.399799 
L 1077.418804 233.588313 
L 1078.252677 235.986344 
L 1079.08655 227.386509 
L 1079.920423 231.272975 
L 1080.754296 231.521045 
L 1083.255915 233.009481 
L 1084.089788 238.053612 
L 1084.923661 239.955503 
L 1085.757534 240.286265 
L 1086.591407 239.128592 
L 1089.093026 230.85952 
L 1089.926899 214.9829 
L 1090.760772 227.138439 
L 1091.594645 230.197995 
L 1092.428518 228.296112 
L 1095.76401 218.538603 
L 1096.597883 219.200129 
L 1098.265629 232.347955 
L 1100.767248 232.430648 
L 1101.601121 234.994056 
L 1102.434994 231.603738 
L 1103.268867 235.242134 
L 1104.10274 237.640165 
L 1106.604359 234.497916 
L 1107.438232 226.476914 
L 1108.272105 226.146151 
L 1109.105978 226.642299 
L 1109.939851 224.161575 
L 1112.406725 220.192416 
L 1113.240598 231.603738 
L 1114.074471 232.347955 
L 1114.908344 226.973061 
L 1115.742217 226.890369 
L 1118.243836 227.551894 
L 1119.077709 231.769123 
L 1119.911582 238.218997 
L 1120.745455 240.534335 
L 1120.745455 240.534335 
" clip-path="url(#pc0ccece402)" style="fill: none; stroke: #0000ff; stroke-width: 1.5; stroke-linecap: square"/>
   </g>
   <g id="patch_3">
    <path d="M 162 256.32 
L 162 34.56 
" style="fill: none; stroke: #000000; stroke-width: 0.8; stroke-linejoin: miter; stroke-linecap: square"/>
   </g>
   <g id="patch_4">
    <path d="M 1166.4 256.32 
L 1166.4 34.56 
" style="fill: none; stroke: #000000; stroke-width: 0.8; stroke-linejoin: miter; stroke-linecap: square"/>
   </g>
   <g id="patch_5">
    <path d="M 162 256.32 
L 1166.4 256.32 
" style="fill: none; stroke: #000000; stroke-width: 0.8; stroke-linejoin: miter; stroke-linecap: square"/>
   </g>
   <g id="patch_6">
    <path d="M 162 34.56 
L 1166.4 34.56 
" style="fill: none; stroke: #000000; stroke-width: 0.8; stroke-linejoin: miter; stroke-linecap: square"/>
   </g>
  </g>
  <g id="axes_2">
   <g id="matplotlib.axis_3">
    <g id="ytick_6">
     <g id="line2d_17">
      <defs>
       <path id="mc3cb1f8120" d="M 0 0 
L 3.5 0 
" style="stroke: #ff0000; stroke-width: 0.8"/>
      </defs>
      <g>
       <use xlink:href="#mc3cb1f8120" x="1166.4" y="234.581641" style="fill: #ff0000; stroke: #ff0000; stroke-width: 0.8"/>
      </g>
     </g>
     <g id="text_18">
      <!-- 0.2 -->
      <g style="fill: #ff0000" transform="translate(1173.4 238.38086) scale(0.1 -0.1)">
       <defs>
        <path id="DejaVuSans-2e" d="M 684 794 
L 1344 794 
L 1344 0 
L 684 0 
L 684 794 
z
" transform="scale(0.015625)"/>
       </defs>
       <use xlink:href="#DejaVuSans-30"/>
       <use xlink:href="#DejaVuSans-2e" x="63.623047"/>
       <use xlink:href="#DejaVuSans-32" x="95.410156"/>
      </g>
     </g>
    </g>
    <g id="ytick_7">
     <g id="line2d_18">
      <g>
       <use xlink:href="#mc3cb1f8120" x="1166.4" y="209.014213" style="fill: #ff0000; stroke: #ff0000; stroke-width: 0.8"/>
      </g>
     </g>
     <g id="text_19">
      <!-- 0.3 -->
      <g style="fill: #ff0000" transform="translate(1173.4 212.813432) scale(0.1 -0.1)">
       <use xlink:href="#DejaVuSans-30"/>
       <use xlink:href="#DejaVuSans-2e" x="63.623047"/>
       <use xlink:href="#DejaVuSans-33" x="95.410156"/>
      </g>
     </g>
    </g>
    <g id="ytick_8">
     <g id="line2d_19">
      <g>
       <use xlink:href="#mc3cb1f8120" x="1166.4" y="183.446785" style="fill: #ff0000; stroke: #ff0000; stroke-width: 0.8"/>
      </g>
     </g>
     <g id="text_20">
      <!-- 0.4 -->
      <g style="fill: #ff0000" transform="translate(1173.4 187.246004) scale(0.1 -0.1)">
       <use xlink:href="#DejaVuSans-30"/>
       <use xlink:href="#DejaVuSans-2e" x="63.623047"/>
       <use xlink:href="#DejaVuSans-34" x="95.410156"/>
      </g>
     </g>
    </g>
    <g id="ytick_9">
     <g id="line2d_20">
      <g>
       <use xlink:href="#mc3cb1f8120" x="1166.4" y="157.879357" style="fill: #ff0000; stroke: #ff0000; stroke-width: 0.8"/>
      </g>
     </g>
     <g id="text_21">
      <!-- 0.5 -->
      <g style="fill: #ff0000" transform="translate(1173.4 161.678575) scale(0.1 -0.1)">
       <use xlink:href="#DejaVuSans-30"/>
       <use xlink:href="#DejaVuSans-2e" x="63.623047"/>
       <use xlink:href="#DejaVuSans-35" x="95.410156"/>
      </g>
     </g>
    </g>
    <g id="ytick_10">
     <g id="line2d_21">
      <g>
       <use xlink:href="#mc3cb1f8120" x="1166.4" y="132.311929" style="fill: #ff0000; stroke: #ff0000; stroke-width: 0.8"/>
      </g>
     </g>
     <g id="text_22">
      <!-- 0.6 -->
      <g style="fill: #ff0000" transform="translate(1173.4 136.111147) scale(0.1 -0.1)">
       <defs>
        <path id="DejaVuSans-36" d="M 2113 2584 
Q 1688 2584 1439 2293 
Q 1191 2003 1191 1497 
Q 1191 994 1439 701 
Q 1688 409 2113 409 
Q 2538 409 2786 701 
Q 3034 994 3034 1497 
Q 3034 2003 2786 2293 
Q 2538 2584 2113 2584 
z
M 3366 4563 
L 3366 3988 
Q 3128 4100 2886 4159 
Q 2644 4219 2406 4219 
Q 1781 4219 1451 3797 
Q 1122 3375 1075 2522 
Q 1259 2794 1537 2939 
Q 1816 3084 2150 3084 
Q 2853 3084 3261 2657 
Q 3669 2231 3669 1497 
Q 3669 778 3244 343 
Q 2819 -91 2113 -91 
Q 1303 -91 875 529 
Q 447 1150 447 2328 
Q 447 3434 972 4092 
Q 1497 4750 2381 4750 
Q 2619 4750 2861 4703 
Q 3103 4656 3366 4563 
z
" transform="scale(0.015625)"/>
       </defs>
       <use xlink:href="#DejaVuSans-30"/>
       <use xlink:href="#DejaVuSans-2e" x="63.623047"/>
       <use xlink:href="#DejaVuSans-36" x="95.410156"/>
      </g>
     </g>
    </g>
    <g id="ytick_11">
     <g id="line2d_22">
      <g>
       <use xlink:href="#mc3cb1f8120" x="1166.4" y="106.7445" style="fill: #ff0000; stroke: #ff0000; stroke-width: 0.8"/>
      </g>
     </g>
     <g id="text_23">
      <!-- 0.7 -->
      <g style="fill: #ff0000" transform="translate(1173.4 110.543719) scale(0.1 -0.1)">
       <defs>
        <path id="DejaVuSans-37" d="M 525 4666 
L 3525 4666 
L 3525 4397 
L 1831 0 
L 1172 0 
L 2766 4134 
L 525 4134 
L 525 4666 
z
" transform="scale(0.015625)"/>
       </defs>
       <use xlink:href="#DejaVuSans-30"/>
       <use xlink:href="#DejaVuSans-2e" x="63.623047"/>
       <use xlink:href="#DejaVuSans-37" x="95.410156"/>
      </g>
     </g>
    </g>
    <g id="ytick_12">
     <g id="line2d_23">
      <g>
       <use xlink:href="#mc3cb1f8120" x="1166.4" y="81.177072" style="fill: #ff0000; stroke: #ff0000; stroke-width: 0.8"/>
      </g>
     </g>
     <g id="text_24">
      <!-- 0.8 -->
      <g style="fill: #ff0000" transform="translate(1173.4 84.976291) scale(0.1 -0.1)">
       <defs>
        <path id="DejaVuSans-38" d="M 2034 2216 
Q 1584 2216 1326 1975 
Q 1069 1734 1069 1313 
Q 1069 891 1326 650 
Q 1584 409 2034 409 
Q 2484 409 2743 651 
Q 3003 894 3003 1313 
Q 3003 1734 2745 1975 
Q 2488 2216 2034 2216 
z
M 1403 2484 
Q 997 2584 770 2862 
Q 544 3141 544 3541 
Q 544 4100 942 4425 
Q 1341 4750 2034 4750 
Q 2731 4750 3128 4425 
Q 3525 4100 3525 3541 
Q 3525 3141 3298 2862 
Q 3072 2584 2669 2484 
Q 3125 2378 3379 2068 
Q 3634 1759 3634 1313 
Q 3634 634 3220 271 
Q 2806 -91 2034 -91 
Q 1263 -91 848 271 
Q 434 634 434 1313 
Q 434 1759 690 2068 
Q 947 2378 1403 2484 
z
M 1172 3481 
Q 1172 3119 1398 2916 
Q 1625 2713 2034 2713 
Q 2441 2713 2670 2916 
Q 2900 3119 2900 3481 
Q 2900 3844 2670 4047 
Q 2441 4250 2034 4250 
Q 1625 4250 1398 4047 
Q 1172 3844 1172 3481 
z
" transform="scale(0.015625)"/>
       </defs>
       <use xlink:href="#DejaVuSans-30"/>
       <use xlink:href="#DejaVuSans-2e" x="63.623047"/>
       <use xlink:href="#DejaVuSans-38" x="95.410156"/>
      </g>
     </g>
    </g>
    <g id="ytick_13">
     <g id="line2d_24">
      <g>
       <use xlink:href="#mc3cb1f8120" x="1166.4" y="55.609644" style="fill: #ff0000; stroke: #ff0000; stroke-width: 0.8"/>
      </g>
     </g>
     <g id="text_25">
      <!-- 0.9 -->
      <g style="fill: #ff0000" transform="translate(1173.4 59.408863) scale(0.1 -0.1)">
       <use xlink:href="#DejaVuSans-30"/>
       <use xlink:href="#DejaVuSans-2e" x="63.623047"/>
       <use xlink:href="#DejaVuSans-39" x="95.410156"/>
      </g>
     </g>
    </g>
    <g id="text_26">
     <!-- Indicator -->
     <g style="fill: #ff0000" transform="translate(1200.901563 167.535313) rotate(-90) scale(0.1 -0.1)">
      <defs>
       <path id="DejaVuSans-6e" d="M 3513 2113 
L 3513 0 
L 2938 0 
L 2938 2094 
Q 2938 2591 2744 2837 
Q 2550 3084 2163 3084 
Q 1697 3084 1428 2787 
Q 1159 2491 1159 1978 
L 1159 0 
L 581 0 
L 581 3500 
L 1159 3500 
L 1159 2956 
Q 1366 3272 1645 3428 
Q 1925 3584 2291 3584 
Q 2894 3584 3203 3211 
Q 3513 2838 3513 2113 
z
" transform="scale(0.015625)"/>
       <path id="DejaVuSans-64" d="M 2906 2969 
L 2906 4863 
L 3481 4863 
L 3481 0 
L 2906 0 
L 2906 525 
Q 2725 213 2448 61 
Q 2172 -91 1784 -91 
Q 1150 -91 751 415 
Q 353 922 353 1747 
Q 353 2572 751 3078 
Q 1150 3584 1784 3584 
Q 2172 3584 2448 3432 
Q 2725 3281 2906 2969 
z
M 947 1747 
Q 947 1113 1208 752 
Q 1469 391 1925 391 
Q 2381 391 2643 752 
Q 2906 1113 2906 1747 
Q 2906 2381 2643 2742 
Q 2381 3103 1925 3103 
Q 1469 3103 1208 2742 
Q 947 2381 947 1747 
z
" transform="scale(0.015625)"/>
       <path id="DejaVuSans-69" d="M 603 3500 
L 1178 3500 
L 1178 0 
L 603 0 
L 603 3500 
z
M 603 4863 
L 1178 4863 
L 1178 4134 
L 603 4134 
L 603 4863 
z
" transform="scale(0.015625)"/>
       <path id="DejaVuSans-63" d="M 3122 3366 
L 3122 2828 
Q 2878 2963 2633 3030 
Q 2388 3097 2138 3097 
Q 1578 3097 1268 2742 
Q 959 2388 959 1747 
Q 959 1106 1268 751 
Q 1578 397 2138 397 
Q 2388 397 2633 464 
Q 2878 531 3122 666 
L 3122 134 
Q 2881 22 2623 -34 
Q 2366 -91 2075 -91 
Q 1284 -91 818 406 
Q 353 903 353 1747 
Q 353 2603 823 3093 
Q 1294 3584 2113 3584 
Q 2378 3584 2631 3529 
Q 2884 3475 3122 3366 
z
" transform="scale(0.015625)"/>
       <path id="DejaVuSans-6f" d="M 1959 3097 
Q 1497 3097 1228 2736 
Q 959 2375 959 1747 
Q 959 1119 1226 758 
Q 1494 397 1959 397 
Q 2419 397 2687 759 
Q 2956 1122 2956 1747 
Q 2956 2369 2687 2733 
Q 2419 3097 1959 3097 
z
M 1959 3584 
Q 2709 3584 3137 3096 
Q 3566 2609 3566 1747 
Q 3566 888 3137 398 
Q 2709 -91 1959 -91 
Q 1206 -91 779 398 
Q 353 888 353 1747 
Q 353 2609 779 3096 
Q 1206 3584 1959 3584 
z
" transform="scale(0.015625)"/>
       <path id="DejaVuSans-72" d="M 2631 2963 
Q 2534 3019 2420 3045 
Q 2306 3072 2169 3072 
Q 1681 3072 1420 2755 
Q 1159 2438 1159 1844 
L 1159 0 
L 581 0 
L 581 3500 
L 1159 3500 
L 1159 2956 
Q 1341 3275 1631 3429 
Q 1922 3584 2338 3584 
Q 2397 3584 2469 3576 
Q 2541 3569 2628 3553 
L 2631 2963 
z
" transform="scale(0.015625)"/>
      </defs>
      <use xlink:href="#DejaVuSans-49"/>
      <use xlink:href="#DejaVuSans-6e" x="29.492188"/>
      <use xlink:href="#DejaVuSans-64" x="92.871094"/>
      <use xlink:href="#DejaVuSans-69" x="156.347656"/>
      <use xlink:href="#DejaVuSans-63" x="184.130859"/>
      <use xlink:href="#DejaVuSans-61" x="239.111328"/>
      <use xlink:href="#DejaVuSans-74" x="300.390625"/>
      <use xlink:href="#DejaVuSans-6f" x="339.599609"/>
      <use xlink:href="#DejaVuSans-72" x="400.78125"/>
     </g>
    </g>
   </g>
   <g id="line2d_25">
    <path d="M 207.654545 53.178743 
L 210.156164 53.432871 
L 210.990037 53.608021 
L 213.491656 53.551227 
L 215.159402 53.846334 
L 215.993275 54.246437 
L 219.328767 54.580124 
L 221.830386 55.957814 
L 222.664259 57.177092 
L 225.165878 58.415205 
L 226.833624 60.18505 
L 227.667497 61.67069 
L 228.50137 63.75864 
L 231.002989 65.185547 
L 232.670735 68.19768 
L 233.504608 69.194889 
L 234.338481 70.470046 
L 236.8401 71.378668 
L 238.507846 72.977344 
L 239.341719 73.531197 
L 240.175592 74.594029 
L 242.67721 75.594329 
L 243.511083 75.36215 
L 244.344956 75.809747 
L 245.178829 76.950655 
L 246.012702 78.302352 
L 248.514321 77.946745 
L 249.348194 77.468079 
L 250.182067 74.315982 
L 251.01594 73.011027 
L 251.849813 72.519098 
L 254.351432 71.936085 
L 255.185305 70.946395 
L 256.019178 69.513771 
L 257.686924 67.667832 
L 260.188543 67.31129 
L 261.022416 66.80232 
L 263.524035 66.564414 
L 266.859527 66.427967 
L 267.6934 66.697617 
L 268.527273 66.575655 
L 269.361146 67.099995 
L 273.530511 67.37052 
L 274.364384 67.653309 
L 275.198257 68.13511 
L 277.699875 68.6999 
L 280.201494 69.778033 
L 281.035367 69.149478 
L 283.536986 68.832629 
L 284.370859 69.637096 
L 285.204732 71.232307 
L 286.038605 75.182299 
L 286.872478 78.28442 
L 289.374097 79.700122 
L 290.20797 81.559817 
L 291.041843 84.665187 
L 292.709589 93.525979 
L 296.045081 96.897088 
L 296.878954 99.091557 
L 297.712827 98.926647 
L 298.5467 100.163352 
L 301.048319 100.778103 
L 301.882192 100.388497 
L 302.716065 102.122148 
L 303.549938 102.658977 
L 304.383811 102.190211 
L 306.88543 95.930874 
L 307.719303 92.999403 
L 308.553176 92.301598 
L 309.387049 92.46614 
L 310.220922 91.573247 
L 312.72254 90.075307 
L 313.556413 87.927605 
L 314.390286 87.049384 
L 315.224159 87.352173 
L 316.058032 87.02265 
L 318.559651 87.865305 
L 319.393524 87.761818 
L 320.227397 86.876144 
L 321.06127 86.247075 
L 321.895143 86.130945 
L 324.396762 85.433387 
L 325.230635 84.798552 
L 326.064508 84.707536 
L 326.898381 84.853335 
L 327.732254 84.871624 
L 330.233873 84.239986 
L 331.067746 83.384198 
L 331.901619 80.51408 
L 332.735492 79.220222 
L 333.569365 78.132638 
L 337.73873 77.459483 
L 338.572603 76.688821 
L 339.406476 77.558557 
L 341.908095 80.489092 
L 342.741968 82.178157 
L 343.575841 83.173845 
L 344.409714 83.910134 
L 345.243587 84.376865 
L 348.579078 84.04503 
L 349.412951 84.883829 
L 350.246824 84.586742 
L 351.080697 82.709109 
L 353.582316 82.09181 
L 355.250062 82.016536 
L 356.083935 81.633508 
L 356.917808 79.849709 
L 359.419427 75.688024 
L 360.2533 72.920232 
L 361.087173 71.603758 
L 362.754919 70.228438 
L 365.256538 69.310345 
L 366.090411 67.499268 
L 366.924284 66.42574 
L 367.758157 66.080421 
L 368.59203 66.204836 
L 371.093649 65.271495 
L 372.761395 63.732937 
L 373.595268 63.237885 
L 374.429141 63.250259 
L 376.93076 62.626924 
L 377.764633 62.024296 
L 378.598506 61.68164 
L 379.432379 61.564821 
L 382.76787 61.59742 
L 384.435616 62.384766 
L 385.269489 63.027554 
L 386.103362 64.024042 
L 388.604981 64.82111 
L 389.438854 65.530453 
L 390.272727 65.783608 
L 391.1066 66.250946 
L 391.940473 67.287663 
L 394.442092 69.659121 
L 395.275965 72.133546 
L 396.109838 74.088715 
L 396.943711 75.270092 
L 397.777584 75.762534 
L 400.313948 76.377681 
L 401.147821 78.737683 
L 401.981694 80.57418 
L 403.64944 86.461464 
L 406.151059 91.090575 
L 407.818804 99.029614 
L 408.652677 101.106329 
L 409.48655 102.065533 
L 411.988169 103.017701 
L 412.822042 103.568732 
L 413.655915 103.639704 
L 415.323661 92.072896 
L 417.82528 87.149898 
L 419.493026 74.207398 
L 421.160772 66.286176 
L 423.662391 63.908327 
L 424.496264 62.726775 
L 426.16401 61.355745 
L 426.997883 61.030793 
L 429.499502 60.443902 
L 430.333375 59.693 
L 431.167248 59.268085 
L 432.834994 57.873129 
L 435.336613 57.173913 
L 436.170486 56.779798 
L 437.004359 56.693394 
L 437.838232 56.771635 
L 441.173724 56.769596 
L 443.675342 56.500811 
L 444.509215 56.489885 
L 449.512453 56.609705 
L 450.346326 56.591644 
L 452.847945 57.558967 
L 453.681818 58.070426 
L 454.515691 59.229756 
L 456.183437 62.032339 
L 459.518929 63.367503 
L 460.352802 63.975395 
L 461.186675 63.301646 
L 462.020548 61.802721 
L 464.522167 60.553312 
L 465.35604 58.895396 
L 466.189913 57.538123 
L 467.857659 55.824823 
L 471.193151 55.401209 
L 472.027024 55.471028 
L 473.69477 54.783197 
L 476.196389 54.381247 
L 478.698007 53.380754 
L 479.53188 52.684296 
L 482.033499 51.971799 
L 483.701245 51.013541 
L 485.368991 50.153521 
L 488.704483 49.672669 
L 490.372229 48.653254 
L 491.206102 48.260597 
L 493.707721 47.893193 
L 494.541594 47.397396 
L 496.20934 46.921189 
L 497.043213 46.722801 
L 502.046451 46.354594 
L 505.347198 46.229619 
L 507.848817 45.864127 
L 512.018182 45.866531 
L 513.685928 45.764771 
L 517.02142 46.056173 
L 518.689166 46.507163 
L 519.523039 46.618446 
L 520.356912 46.878773 
L 522.858531 47.172708 
L 526.194022 48.305965 
L 528.695641 48.532438 
L 531.19726 49.63657 
L 534.532752 50.103344 
L 537.034371 52.326227 
L 537.868244 52.456765 
L 540.369863 52.703022 
L 542.871482 52.25659 
L 543.705355 51.778214 
L 546.206974 51.283202 
L 547.040847 50.964801 
L 547.87472 50.8305 
L 549.542466 50.006847 
L 552.044085 49.359554 
L 553.711831 48.244901 
L 554.545704 47.784548 
L 555.379577 47.493179 
L 557.881196 47.229253 
L 561.216687 46.232735 
L 565.386052 45.781614 
L 567.053798 45.556527 
L 571.223163 45.34833 
L 572.890909 45.190708 
L 576.226401 45.339259 
L 577.894147 45.720253 
L 578.72802 45.77898 
L 582.897385 45.743781 
L 583.731258 45.549673 
L 587.900623 45.551449 
L 590.402242 45.946402 
L 594.571606 46.073276 
L 595.405479 46.001592 
L 596.239352 46.119021 
L 600.408717 46.245781 
L 604.578082 46.518709 
L 616.252304 46.693814 
L 617.086177 46.787647 
L 619.587796 47.764878 
L 622.089415 48.135614 
L 624.591034 49.056337 
L 625.424907 49.401967 
L 627.926526 49.672669 
L 628.760399 49.916794 
L 631.262017 51.257137 
L 633.763636 51.648003 
L 636.265255 53.006033 
L 637.099128 53.290259 
L 639.600747 53.461225 
L 641.268493 53.999399 
L 642.102366 54.362788 
L 642.936239 54.256739 
L 646.271731 54.051239 
L 648.77335 53.532129 
L 653.776588 53.25246 
L 657.11208 53.041424 
L 657.945953 52.738575 
L 658.779826 52.589934 
L 660.447572 52.003257 
L 662.949191 51.723019 
L 665.450809 50.621074 
L 666.284682 50.127901 
L 668.786301 49.525643 
L 670.454047 48.540404 
L 672.121793 47.643107 
L 676.291158 47.000464 
L 677.958904 46.471179 
L 680.460523 46.27167 
L 683.796015 45.538013 
L 687.131507 45.302381 
L 689.633126 44.84823 
L 694.636364 44.64 
L 700.473474 44.771007 
L 701.307347 44.891658 
L 704.677584 45.241821 
L 706.34533 45.548404 
L 707.179203 45.783723 
L 710.514695 46.077973 
L 712.182441 46.390509 
L 713.016314 46.634415 
L 715.517933 46.946137 
L 717.185679 47.807866 
L 718.853425 48.23153 
L 721.355044 48.616113 
L 723.02279 49.441919 
L 724.690535 50.493345 
L 727.192154 50.967531 
L 728.8599 51.737383 
L 730.527646 52.329434 
L 733.029265 52.377692 
L 736.364757 53.309575 
L 738.866376 53.463409 
L 739.700249 53.674849 
L 741.367995 54.418274 
L 742.201868 54.635235 
L 745.53736 54.707271 
L 746.371233 54.840323 
L 748.038979 55.318598 
L 753.87609 55.51514 
L 757.211582 55.362927 
L 758.045455 55.462947 
L 759.7132 55.949333 
L 763.048692 55.994646 
L 763.882565 55.874257 
L 764.716438 55.895784 
L 765.550311 56.115518 
L 768.05193 56.394029 
L 769.719676 57.089494 
L 770.553549 57.769638 
L 771.387422 58.231548 
L 773.889041 58.372553 
L 774.722914 58.78568 
L 776.39066 59.870906 
L 777.224533 60.303286 
L 779.726152 60.39309 
L 780.560025 60.868562 
L 783.061644 61.436805 
L 785.563263 61.60675 
L 786.397136 62.043608 
L 787.231009 62.818846 
L 788.898755 63.5725 
L 794.735866 63.004969 
L 797.237484 62.642105 
L 798.071357 62.251459 
L 798.90523 62.053275 
L 799.739103 62.174742 
L 800.572976 62.509449 
L 804.742341 62.771023 
L 805.576214 62.182882 
L 806.410087 61.231371 
L 809.710834 59.570189 
L 810.544707 58.717186 
L 811.37858 58.109621 
L 812.212453 57.353396 
L 815.547945 56.547626 
L 817.215691 55.910787 
L 818.049564 55.814593 
L 823.886675 55.886418 
L 826.388294 56.024967 
L 828.05604 56.719748 
L 828.889913 57.001569 
L 832.225405 57.286808 
L 834.727024 57.976468 
L 835.560897 58.267803 
L 838.062516 58.449683 
L 838.896389 58.66366 
L 839.730262 59.050047 
L 840.564134 59.296276 
L 841.398007 60.070721 
L 843.899626 61.20725 
L 844.733499 62.434494 
L 845.567372 63.27327 
L 847.235118 66.524017 
L 849.736737 68.803904 
L 850.57061 70.560129 
L 851.404483 71.470803 
L 852.238356 72.152778 
L 853.072229 73.985064 
L 855.573848 75.766463 
L 858.075467 79.253121 
L 858.90934 80.211242 
L 862.244832 81.293501 
L 863.078705 82.428338 
L 863.912578 84.151163 
L 864.746451 85.11072 
L 868.081943 86.592335 
L 868.915816 85.983379 
L 869.749689 85.141552 
L 870.583562 84.604818 
L 873.919054 84.299399 
L 874.752927 83.648516 
L 875.5868 84.121631 
L 876.420672 85.690978 
L 878.922291 87.015973 
L 879.756164 89.054717 
L 880.590037 92.806571 
L 881.42391 97.509719 
L 882.257783 100.821679 
L 884.759402 101.67185 
L 885.593275 103.35667 
L 887.261021 113.753898 
L 888.094894 124.933295 
L 891.430386 131.508199 
L 892.264259 139.742347 
L 893.098132 151.069176 
L 893.932005 159.636664 
L 896.433624 166.171615 
L 898.10137 182.169143 
L 898.935243 191.112117 
L 899.769116 196.980711 
L 902.270735 201.019032 
L 903.938481 204.948042 
L 904.772354 207.400665 
L 905.606227 212.073866 
L 908.107846 217.495191 
L 909.775592 225.166754 
L 911.443337 230.949151 
L 913.944956 232.232341 
L 914.778829 232.967395 
L 915.612702 233.500321 
L 916.446575 233.484032 
L 917.280448 233.667927 
L 920.61594 233.511173 
L 921.449813 234.476573 
L 922.283686 234.580052 
L 923.117559 234.86204 
L 925.619178 235.300515 
L 926.453051 235.105091 
L 927.286924 233.962134 
L 928.120797 232.466801 
L 928.95467 229.948603 
L 931.456289 228.421358 
L 932.290162 227.214916 
L 933.124035 225.586582 
L 933.957908 223.68736 
L 934.791781 222.60906 
L 937.2934 221.548803 
L 940.628892 210.695997 
L 943.130511 208.067059 
L 943.964384 205.147485 
L 944.798257 201.531499 
L 945.63213 195.640518 
L 946.466002 191.41267 
L 948.967621 188.34088 
L 949.801494 186.042598 
L 950.635367 185.798469 
L 951.46924 186.649377 
L 952.303113 187.669213 
L 955.638605 187.470409 
L 956.472478 186.285918 
L 957.306351 183.795657 
L 958.140224 184.978887 
L 960.641843 184.004533 
L 961.475716 182.743113 
L 962.309589 183.691015 
L 963.143462 190.23982 
L 963.977335 194.176697 
L 966.478954 199.446977 
L 967.312827 202.053541 
L 968.1467 203.332575 
L 969.814446 198.764106 
L 972.316065 195.273847 
L 973.149938 187.569882 
L 973.983811 183.983671 
L 974.817684 182.806648 
L 975.651557 183.586233 
L 978.153176 182.933565 
L 978.987049 177.150276 
L 979.820922 173.473825 
L 980.654795 167.54452 
L 981.488667 166.943356 
L 983.990286 162.037421 
L 984.824159 157.255641 
L 985.658032 153.237133 
L 986.491905 146.449276 
L 987.325778 133.423132 
L 989.827397 125.122757 
L 991.495143 110.813379 
L 993.162889 94.097608 
L 995.664508 88.881314 
L 996.498381 85.684663 
L 998.166127 77.990845 
L 999 74.943953 
L 1001.501619 72.903469 
L 1002.335492 71.603757 
L 1003.169365 71.075193 
L 1004.003238 71.650387 
L 1004.837111 72.378772 
L 1007.373474 73.044775 
L 1009.04122 75.936237 
L 1009.875093 76.767409 
L 1010.708966 78.208382 
L 1013.210585 79.523002 
L 1014.878331 84.932697 
L 1016.546077 90.264598 
L 1019.047696 93.741144 
L 1020.715442 100.42079 
L 1022.383188 105.312323 
L 1024.884807 114.540072 
L 1025.71868 122.124186 
L 1026.552553 131.653901 
L 1027.386426 145.760311 
L 1028.220299 167.087784 
L 1030.721918 186.387054 
L 1031.555791 199.976814 
L 1033.223537 216.89563 
L 1034.05741 224.409603 
L 1036.559029 230.46977 
L 1037.392902 234.795725 
L 1038.226775 237.631363 
L 1039.060648 239.491116 
L 1039.894521 240.807953 
L 1042.396139 241.670678 
L 1043.230012 242.497028 
L 1044.897758 243.148244 
L 1045.731631 243.876969 
L 1049.067123 244.245324 
L 1049.900996 244.949557 
L 1051.568742 245.931167 
L 1054.904234 246.24 
L 1055.738107 246.174326 
L 1056.57198 245.975655 
L 1059.907472 245.911664 
L 1061.575218 245.827811 
L 1063.242964 245.975655 
L 1066.578456 245.718139 
L 1067.412329 245.09683 
L 1068.246202 244.786011 
L 1069.080075 244.65098 
L 1071.581694 244.584561 
L 1072.415567 244.738127 
L 1074.083313 244.248412 
L 1074.917186 243.876969 
L 1077.418804 243.425995 
L 1078.252677 243.154832 
L 1079.08655 242.459362 
L 1080.754296 241.530335 
L 1083.255915 241.530335 
L 1084.089788 241.742223 
L 1085.757534 241.884456 
L 1089.093026 241.176438 
L 1089.926899 239.87867 
L 1090.760772 239.406149 
L 1092.428518 239.37368 
L 1095.76401 238.51368 
L 1096.597883 237.528843 
L 1097.431756 236.717028 
L 1098.265629 236.21754 
L 1100.767248 235.587794 
L 1101.601121 235.225565 
L 1102.434994 235.225565 
L 1103.268867 235.909922 
L 1104.10274 236.398019 
L 1106.604359 236.307979 
L 1107.438232 235.69573 
L 1108.272105 234.71895 
L 1109.939851 233.347813 
L 1112.406725 232.249578 
L 1113.240598 232.111291 
L 1114.074471 231.855534 
L 1114.908344 231.826286 
L 1115.742217 231.513915 
L 1119.077709 231.136944 
L 1120.745455 231.191179 
L 1120.745455 231.191179 
" clip-path="url(#pc0ccece402)" style="fill: none; stroke: #ff0000; stroke-width: 1.5; stroke-linecap: square"/>
   </g>
   <g id="patch_7">
    <path d="M 162 256.32 
L 162 34.56 
" style="fill: none; stroke: #000000; stroke-width: 0.8; stroke-linejoin: miter; stroke-linecap: square"/>
   </g>
   <g id="patch_8">
    <path d="M 1166.4 256.32 
L 1166.4 34.56 
" style="fill: none; stroke: #000000; stroke-width: 0.8; stroke-linejoin: miter; stroke-linecap: square"/>
   </g>
   <g id="patch_9">
    <path d="M 162 256.32 
L 1166.4 256.32 
" style="fill: none; stroke: #000000; stroke-width: 0.8; stroke-linejoin: miter; stroke-linecap: square"/>
   </g>
   <g id="patch_10">
    <path d="M 162 34.56 
L 1166.4 34.56 
" style="fill: none; stroke: #000000; stroke-width: 0.8; stroke-linejoin: miter; stroke-linecap: square"/>
   </g>
   <g id="text_27">
    <!-- VIX and Cumulative Probability Indicator (smoothed 30 periods) - 3Y (Updated 2024-03-21 15:00:28) -->
    <g transform="translate(361.360313 28.56) scale(0.12 -0.12)">
     <defs>
      <path id="DejaVuSans-20" transform="scale(0.015625)"/>
      <path id="DejaVuSans-43" d="M 4122 4306 
L 4122 3641 
Q 3803 3938 3442 4084 
Q 3081 4231 2675 4231 
Q 1875 4231 1450 3742 
Q 1025 3253 1025 2328 
Q 1025 1406 1450 917 
Q 1875 428 2675 428 
Q 3081 428 3442 575 
Q 3803 722 4122 1019 
L 4122 359 
Q 3791 134 3420 21 
Q 3050 -91 2638 -91 
Q 1578 -91 968 557 
Q 359 1206 359 2328 
Q 359 3453 968 4101 
Q 1578 4750 2638 4750 
Q 3056 4750 3426 4639 
Q 3797 4528 4122 4306 
z
" transform="scale(0.015625)"/>
      <path id="DejaVuSans-75" d="M 544 1381 
L 544 3500 
L 1119 3500 
L 1119 1403 
Q 1119 906 1312 657 
Q 1506 409 1894 409 
Q 2359 409 2629 706 
Q 2900 1003 2900 1516 
L 2900 3500 
L 3475 3500 
L 3475 0 
L 2900 0 
L 2900 538 
Q 2691 219 2414 64 
Q 2138 -91 1772 -91 
Q 1169 -91 856 284 
Q 544 659 544 1381 
z
M 1991 3584 
L 1991 3584 
z
" transform="scale(0.015625)"/>
      <path id="DejaVuSans-6d" d="M 3328 2828 
Q 3544 3216 3844 3400 
Q 4144 3584 4550 3584 
Q 5097 3584 5394 3201 
Q 5691 2819 5691 2113 
L 5691 0 
L 5113 0 
L 5113 2094 
Q 5113 2597 4934 2840 
Q 4756 3084 4391 3084 
Q 3944 3084 3684 2787 
Q 3425 2491 3425 1978 
L 3425 0 
L 2847 0 
L 2847 2094 
Q 2847 2600 2669 2842 
Q 2491 3084 2119 3084 
Q 1678 3084 1418 2786 
Q 1159 2488 1159 1978 
L 1159 0 
L 581 0 
L 581 3500 
L 1159 3500 
L 1159 2956 
Q 1356 3278 1631 3431 
Q 1906 3584 2284 3584 
Q 2666 3584 2933 3390 
Q 3200 3197 3328 2828 
z
" transform="scale(0.015625)"/>
      <path id="DejaVuSans-6c" d="M 603 4863 
L 1178 4863 
L 1178 0 
L 603 0 
L 603 4863 
z
" transform="scale(0.015625)"/>
      <path id="DejaVuSans-76" d="M 191 3500 
L 800 3500 
L 1894 563 
L 2988 3500 
L 3597 3500 
L 2284 0 
L 1503 0 
L 191 3500 
z
" transform="scale(0.015625)"/>
      <path id="DejaVuSans-50" d="M 1259 4147 
L 1259 2394 
L 2053 2394 
Q 2494 2394 2734 2622 
Q 2975 2850 2975 3272 
Q 2975 3691 2734 3919 
Q 2494 4147 2053 4147 
L 1259 4147 
z
M 628 4666 
L 2053 4666 
Q 2838 4666 3239 4311 
Q 3641 3956 3641 3272 
Q 3641 2581 3239 2228 
Q 2838 1875 2053 1875 
L 1259 1875 
L 1259 0 
L 628 0 
L 628 4666 
z
" transform="scale(0.015625)"/>
      <path id="DejaVuSans-62" d="M 3116 1747 
Q 3116 2381 2855 2742 
Q 2594 3103 2138 3103 
Q 1681 3103 1420 2742 
Q 1159 2381 1159 1747 
Q 1159 1113 1420 752 
Q 1681 391 2138 391 
Q 2594 391 2855 752 
Q 3116 1113 3116 1747 
z
M 1159 2969 
Q 1341 3281 1617 3432 
Q 1894 3584 2278 3584 
Q 2916 3584 3314 3078 
Q 3713 2572 3713 1747 
Q 3713 922 3314 415 
Q 2916 -91 2278 -91 
Q 1894 -91 1617 61 
Q 1341 213 1159 525 
L 1159 0 
L 581 0 
L 581 4863 
L 1159 4863 
L 1159 2969 
z
" transform="scale(0.015625)"/>
      <path id="DejaVuSans-79" d="M 2059 -325 
Q 1816 -950 1584 -1140 
Q 1353 -1331 966 -1331 
L 506 -1331 
L 506 -850 
L 844 -850 
Q 1081 -850 1212 -737 
Q 1344 -625 1503 -206 
L 1606 56 
L 191 3500 
L 800 3500 
L 1894 763 
L 2988 3500 
L 3597 3500 
L 2059 -325 
z
" transform="scale(0.015625)"/>
      <path id="DejaVuSans-28" d="M 1984 4856 
Q 1566 4138 1362 3434 
Q 1159 2731 1159 2009 
Q 1159 1288 1364 580 
Q 1569 -128 1984 -844 
L 1484 -844 
Q 1016 -109 783 600 
Q 550 1309 550 2009 
Q 550 2706 781 3412 
Q 1013 4119 1484 4856 
L 1984 4856 
z
" transform="scale(0.015625)"/>
      <path id="DejaVuSans-73" d="M 2834 3397 
L 2834 2853 
Q 2591 2978 2328 3040 
Q 2066 3103 1784 3103 
Q 1356 3103 1142 2972 
Q 928 2841 928 2578 
Q 928 2378 1081 2264 
Q 1234 2150 1697 2047 
L 1894 2003 
Q 2506 1872 2764 1633 
Q 3022 1394 3022 966 
Q 3022 478 2636 193 
Q 2250 -91 1575 -91 
Q 1294 -91 989 -36 
Q 684 19 347 128 
L 347 722 
Q 666 556 975 473 
Q 1284 391 1588 391 
Q 1994 391 2212 530 
Q 2431 669 2431 922 
Q 2431 1156 2273 1281 
Q 2116 1406 1581 1522 
L 1381 1569 
Q 847 1681 609 1914 
Q 372 2147 372 2553 
Q 372 3047 722 3315 
Q 1072 3584 1716 3584 
Q 2034 3584 2315 3537 
Q 2597 3491 2834 3397 
z
" transform="scale(0.015625)"/>
      <path id="DejaVuSans-68" d="M 3513 2113 
L 3513 0 
L 2938 0 
L 2938 2094 
Q 2938 2591 2744 2837 
Q 2550 3084 2163 3084 
Q 1697 3084 1428 2787 
Q 1159 2491 1159 1978 
L 1159 0 
L 581 0 
L 581 4863 
L 1159 4863 
L 1159 2956 
Q 1366 3272 1645 3428 
Q 1925 3584 2291 3584 
Q 2894 3584 3203 3211 
Q 3513 2838 3513 2113 
z
" transform="scale(0.015625)"/>
      <path id="DejaVuSans-70" d="M 1159 525 
L 1159 -1331 
L 581 -1331 
L 581 3500 
L 1159 3500 
L 1159 2969 
Q 1341 3281 1617 3432 
Q 1894 3584 2278 3584 
Q 2916 3584 3314 3078 
Q 3713 2572 3713 1747 
Q 3713 922 3314 415 
Q 2916 -91 2278 -91 
Q 1894 -91 1617 61 
Q 1341 213 1159 525 
z
M 3116 1747 
Q 3116 2381 2855 2742 
Q 2594 3103 2138 3103 
Q 1681 3103 1420 2742 
Q 1159 2381 1159 1747 
Q 1159 1113 1420 752 
Q 1681 391 2138 391 
Q 2594 391 2855 752 
Q 3116 1113 3116 1747 
z
" transform="scale(0.015625)"/>
      <path id="DejaVuSans-29" d="M 513 4856 
L 1013 4856 
Q 1481 4119 1714 3412 
Q 1947 2706 1947 2009 
Q 1947 1309 1714 600 
Q 1481 -109 1013 -844 
L 513 -844 
Q 928 -128 1133 580 
Q 1338 1288 1338 2009 
Q 1338 2731 1133 3434 
Q 928 4138 513 4856 
z
" transform="scale(0.015625)"/>
      <path id="DejaVuSans-59" d="M -13 4666 
L 666 4666 
L 1959 2747 
L 3244 4666 
L 3922 4666 
L 2272 2222 
L 2272 0 
L 1638 0 
L 1638 2222 
L -13 4666 
z
" transform="scale(0.015625)"/>
      <path id="DejaVuSans-55" d="M 556 4666 
L 1191 4666 
L 1191 1831 
Q 1191 1081 1462 751 
Q 1734 422 2344 422 
Q 2950 422 3222 751 
Q 3494 1081 3494 1831 
L 3494 4666 
L 4128 4666 
L 4128 1753 
Q 4128 841 3676 375 
Q 3225 -91 2344 -91 
Q 1459 -91 1007 375 
Q 556 841 556 1753 
L 556 4666 
z
" transform="scale(0.015625)"/>
      <path id="DejaVuSans-3a" d="M 750 794 
L 1409 794 
L 1409 0 
L 750 0 
L 750 794 
z
M 750 3309 
L 1409 3309 
L 1409 2516 
L 750 2516 
L 750 3309 
z
" transform="scale(0.015625)"/>
     </defs>
     <use xlink:href="#DejaVuSans-56"/>
     <use xlink:href="#DejaVuSans-49" x="68.408203"/>
     <use xlink:href="#DejaVuSans-58" x="97.900391"/>
     <use xlink:href="#DejaVuSans-20" x="166.40625"/>
     <use xlink:href="#DejaVuSans-61" x="198.193359"/>
     <use xlink:href="#DejaVuSans-6e" x="259.472656"/>
     <use xlink:href="#DejaVuSans-64" x="322.851562"/>
     <use xlink:href="#DejaVuSans-20" x="386.328125"/>
     <use xlink:href="#DejaVuSans-43" x="418.115234"/>
     <use xlink:href="#DejaVuSans-75" x="487.939453"/>
     <use xlink:href="#DejaVuSans-6d" x="551.318359"/>
     <use xlink:href="#DejaVuSans-75" x="648.730469"/>
     <use xlink:href="#DejaVuSans-6c" x="712.109375"/>
     <use xlink:href="#DejaVuSans-61" x="739.892578"/>
     <use xlink:href="#DejaVuSans-74" x="801.171875"/>
     <use xlink:href="#DejaVuSans-69" x="840.380859"/>
     <use xlink:href="#DejaVuSans-76" x="868.164062"/>
     <use xlink:href="#DejaVuSans-65" x="927.34375"/>
     <use xlink:href="#DejaVuSans-20" x="988.867188"/>
     <use xlink:href="#DejaVuSans-50" x="1020.654297"/>
     <use xlink:href="#DejaVuSans-72" x="1079.207031"/>
     <use xlink:href="#DejaVuSans-6f" x="1118.070312"/>
     <use xlink:href="#DejaVuSans-62" x="1179.251953"/>
     <use xlink:href="#DejaVuSans-61" x="1242.728516"/>
     <use xlink:href="#DejaVuSans-62" x="1304.007812"/>
     <use xlink:href="#DejaVuSans-69" x="1367.484375"/>
     <use xlink:href="#DejaVuSans-6c" x="1395.267578"/>
     <use xlink:href="#DejaVuSans-69" x="1423.050781"/>
     <use xlink:href="#DejaVuSans-74" x="1450.833984"/>
     <use xlink:href="#DejaVuSans-79" x="1490.042969"/>
     <use xlink:href="#DejaVuSans-20" x="1549.222656"/>
     <use xlink:href="#DejaVuSans-49" x="1581.009766"/>
     <use xlink:href="#DejaVuSans-6e" x="1610.501953"/>
     <use xlink:href="#DejaVuSans-64" x="1673.880859"/>
     <use xlink:href="#DejaVuSans-69" x="1737.357422"/>
     <use xlink:href="#DejaVuSans-63" x="1765.140625"/>
     <use xlink:href="#DejaVuSans-61" x="1820.121094"/>
     <use xlink:href="#DejaVuSans-74" x="1881.400391"/>
     <use xlink:href="#DejaVuSans-6f" x="1920.609375"/>
     <use xlink:href="#DejaVuSans-72" x="1981.791016"/>
     <use xlink:href="#DejaVuSans-20" x="2022.904297"/>
     <use xlink:href="#DejaVuSans-28" x="2054.691406"/>
     <use xlink:href="#DejaVuSans-73" x="2093.705078"/>
     <use xlink:href="#DejaVuSans-6d" x="2145.804688"/>
     <use xlink:href="#DejaVuSans-6f" x="2243.216797"/>
     <use xlink:href="#DejaVuSans-6f" x="2304.398438"/>
     <use xlink:href="#DejaVuSans-74" x="2365.580078"/>
     <use xlink:href="#DejaVuSans-68" x="2404.789062"/>
     <use xlink:href="#DejaVuSans-65" x="2468.167969"/>
     <use xlink:href="#DejaVuSans-64" x="2529.691406"/>
     <use xlink:href="#DejaVuSans-20" x="2593.167969"/>
     <use xlink:href="#DejaVuSans-33" x="2624.955078"/>
     <use xlink:href="#DejaVuSans-30" x="2688.578125"/>
     <use xlink:href="#DejaVuSans-20" x="2752.201172"/>
     <use xlink:href="#DejaVuSans-70" x="2783.988281"/>
     <use xlink:href="#DejaVuSans-65" x="2847.464844"/>
     <use xlink:href="#DejaVuSans-72" x="2908.988281"/>
     <use xlink:href="#DejaVuSans-69" x="2950.101562"/>
     <use xlink:href="#DejaVuSans-6f" x="2977.884766"/>
     <use xlink:href="#DejaVuSans-64" x="3039.066406"/>
     <use xlink:href="#DejaVuSans-73" x="3102.542969"/>
     <use xlink:href="#DejaVuSans-29" x="3154.642578"/>
     <use xlink:href="#DejaVuSans-20" x="3193.65625"/>
     <use xlink:href="#DejaVuSans-2d" x="3225.443359"/>
     <use xlink:href="#DejaVuSans-20" x="3261.527344"/>
     <use xlink:href="#DejaVuSans-33" x="3293.314453"/>
     <use xlink:href="#DejaVuSans-59" x="3356.9375"/>
     <use xlink:href="#DejaVuSans-20" x="3418.021484"/>
     <use xlink:href="#DejaVuSans-28" x="3449.808594"/>
     <use xlink:href="#DejaVuSans-55" x="3488.822266"/>
     <use xlink:href="#DejaVuSans-70" x="3562.015625"/>
     <use xlink:href="#DejaVuSans-64" x="3625.492188"/>
     <use xlink:href="#DejaVuSans-61" x="3688.96875"/>
     <use xlink:href="#DejaVuSans-74" x="3750.248047"/>
     <use xlink:href="#DejaVuSans-65" x="3789.457031"/>
     <use xlink:href="#DejaVuSans-64" x="3850.980469"/>
     <use xlink:href="#DejaVuSans-20" x="3914.457031"/>
     <use xlink:href="#DejaVuSans-32" x="3946.244141"/>
     <use xlink:href="#DejaVuSans-30" x="4009.867188"/>
     <use xlink:href="#DejaVuSans-32" x="4073.490234"/>
     <use xlink:href="#DejaVuSans-34" x="4137.113281"/>
     <use xlink:href="#DejaVuSans-2d" x="4200.736328"/>
     <use xlink:href="#DejaVuSans-30" x="4236.820312"/>
     <use xlink:href="#DejaVuSans-33" x="4300.443359"/>
     <use xlink:href="#DejaVuSans-2d" x="4364.066406"/>
     <use xlink:href="#DejaVuSans-32" x="4400.150391"/>
     <use xlink:href="#DejaVuSans-31" x="4463.773438"/>
     <use xlink:href="#DejaVuSans-20" x="4527.396484"/>
     <use xlink:href="#DejaVuSans-31" x="4559.183594"/>
     <use xlink:href="#DejaVuSans-35" x="4622.806641"/>
     <use xlink:href="#DejaVuSans-3a" x="4686.429688"/>
     <use xlink:href="#DejaVuSans-30" x="4720.121094"/>
     <use xlink:href="#DejaVuSans-30" x="4783.744141"/>
     <use xlink:href="#DejaVuSans-3a" x="4847.367188"/>
     <use xlink:href="#DejaVuSans-32" x="4881.058594"/>
     <use xlink:href="#DejaVuSans-38" x="4944.681641"/>
     <use xlink:href="#DejaVuSans-29" x="5008.304688"/>
    </g>
   </g>
  </g>
  <g id="legend_1">
   <g id="patch_11">
    <path d="M 7 37.35625 
L 83.190625 37.35625 
Q 85.190625 37.35625 85.190625 35.35625 
L 85.190625 7 
Q 85.190625 5 83.190625 5 
L 7 5 
Q 5 5 5 7 
L 5 35.35625 
Q 5 37.35625 7 37.35625 
z
" style="fill: #ffffff; opacity: 0.8; stroke: #cccccc; stroke-linejoin: miter"/>
   </g>
   <g id="line2d_26">
    <path d="M 9 13.098437 
L 19 13.098437 
L 29 13.098437 
" style="fill: none; stroke: #0000ff; stroke-width: 1.5; stroke-linecap: square"/>
   </g>
   <g id="text_28">
    <!-- VIX -->
    <g transform="translate(37 16.598437) scale(0.1 -0.1)">
     <use xlink:href="#DejaVuSans-56"/>
     <use xlink:href="#DejaVuSans-49" x="68.408203"/>
     <use xlink:href="#DejaVuSans-58" x="97.900391"/>
    </g>
   </g>
   <g id="line2d_27">
    <path d="M 9 27.776563 
L 19 27.776563 
L 29 27.776563 
" style="fill: none; stroke: #ff0000; stroke-width: 1.5; stroke-linecap: square"/>
   </g>
   <g id="text_29">
    <!-- Indicator -->
    <g transform="translate(37 31.276563) scale(0.1 -0.1)">
     <use xlink:href="#DejaVuSans-49"/>
     <use xlink:href="#DejaVuSans-6e" x="29.492188"/>
     <use xlink:href="#DejaVuSans-64" x="92.871094"/>
     <use xlink:href="#DejaVuSans-69" x="156.347656"/>
     <use xlink:href="#DejaVuSans-63" x="184.130859"/>
     <use xlink:href="#DejaVuSans-61" x="239.111328"/>
     <use xlink:href="#DejaVuSans-74" x="300.390625"/>
     <use xlink:href="#DejaVuSans-6f" x="339.599609"/>
     <use xlink:href="#DejaVuSans-72" x="400.78125"/>
    </g>
   </g>
  </g>
 </g>
 <defs>
  <clipPath id="pc0ccece402">
   <rect x="162" y="34.56" width="1004.4" height="221.76"/>
  </clipPath>
 </defs>
</svg>
