<?xml version="1.0" encoding="utf-8" standalone="no"?>
<!DOCTYPE svg PUBLIC "-//W3C//DTD SVG 1.1//EN"
  "http://www.w3.org/Graphics/SVG/1.1/DTD/svg11.dtd">
<svg xmlns:xlink="http://www.w3.org/1999/xlink" width="1152pt" height="576pt" viewBox="0 0 1152 576" xmlns="http://www.w3.org/2000/svg" version="1.1">
 <metadata>
  <rdf:RDF xmlns:dc="http://purl.org/dc/elements/1.1/" xmlns:cc="http://creativecommons.org/ns#" xmlns:rdf="http://www.w3.org/1999/02/22-rdf-syntax-ns#">
   <cc:Work>
    <dc:type rdf:resource="http://purl.org/dc/dcmitype/StillImage"/>
    <dc:date>2024-03-18T07:29:10.570635</dc:date>
    <dc:format>image/svg+xml</dc:format>
    <dc:creator>
     <cc:Agent>
      <dc:title>Matplotlib v3.8.0, https://matplotlib.org/</dc:title>
     </cc:Agent>
    </dc:creator>
   </cc:Work>
  </rdf:RDF>
 </metadata>
 <defs>
  <style type="text/css">*{stroke-linejoin: round; stroke-linecap: butt}</style>
 </defs>
 <g id="figure_1">
  <g id="patch_1">
   <path d="M 0 576 
L 1152 576 
L 1152 0 
L 0 0 
z
" style="fill: #ffffff"/>
  </g>
  <g id="axes_1">
   <g id="patch_2">
    <path d="M 144 512.64 
L 1036.8 512.64 
L 1036.8 69.12 
L 144 69.12 
z
" style="fill: #ffffff"/>
   </g>
   <g id="matplotlib.axis_1">
    <g id="xtick_1">
     <g id="line2d_1">
      <defs>
       <path id="mfe451f4c92" d="M 0 0 
L 0 3.5 
" style="stroke: #000000; stroke-width: 0.8"/>
      </defs>
      <g>
       <use xlink:href="#mfe451f4c92" x="219.387392" y="512.64" style="stroke: #000000; stroke-width: 0.8"/>
      </g>
     </g>
     <g id="text_1">
      <!-- 2021-05 -->
      <g transform="translate(198.495986 527.238438) scale(0.1 -0.1)">
       <defs>
        <path id="DejaVuSans-32" d="M 1228 531 
L 3431 531 
L 3431 0 
L 469 0 
L 469 531 
Q 828 903 1448 1529 
Q 2069 2156 2228 2338 
Q 2531 2678 2651 2914 
Q 2772 3150 2772 3378 
Q 2772 3750 2511 3984 
Q 2250 4219 1831 4219 
Q 1534 4219 1204 4116 
Q 875 4013 500 3803 
L 500 4441 
Q 881 4594 1212 4672 
Q 1544 4750 1819 4750 
Q 2544 4750 2975 4387 
Q 3406 4025 3406 3419 
Q 3406 3131 3298 2873 
Q 3191 2616 2906 2266 
Q 2828 2175 2409 1742 
Q 1991 1309 1228 531 
z
" transform="scale(0.015625)"/>
        <path id="DejaVuSans-30" d="M 2034 4250 
Q 1547 4250 1301 3770 
Q 1056 3291 1056 2328 
Q 1056 1369 1301 889 
Q 1547 409 2034 409 
Q 2525 409 2770 889 
Q 3016 1369 3016 2328 
Q 3016 3291 2770 3770 
Q 2525 4250 2034 4250 
z
M 2034 4750 
Q 2819 4750 3233 4129 
Q 3647 3509 3647 2328 
Q 3647 1150 3233 529 
Q 2819 -91 2034 -91 
Q 1250 -91 836 529 
Q 422 1150 422 2328 
Q 422 3509 836 4129 
Q 1250 4750 2034 4750 
z
" transform="scale(0.015625)"/>
        <path id="DejaVuSans-31" d="M 794 531 
L 1825 531 
L 1825 4091 
L 703 3866 
L 703 4441 
L 1819 4666 
L 2450 4666 
L 2450 531 
L 3481 531 
L 3481 0 
L 794 0 
L 794 531 
z
" transform="scale(0.015625)"/>
        <path id="DejaVuSans-2d" d="M 313 2009 
L 1997 2009 
L 1997 1497 
L 313 1497 
L 313 2009 
z
" transform="scale(0.015625)"/>
        <path id="DejaVuSans-35" d="M 691 4666 
L 3169 4666 
L 3169 4134 
L 1269 4134 
L 1269 2991 
Q 1406 3038 1543 3061 
Q 1681 3084 1819 3084 
Q 2600 3084 3056 2656 
Q 3513 2228 3513 1497 
Q 3513 744 3044 326 
Q 2575 -91 1722 -91 
Q 1428 -91 1123 -41 
Q 819 9 494 109 
L 494 744 
Q 775 591 1075 516 
Q 1375 441 1709 441 
Q 2250 441 2565 725 
Q 2881 1009 2881 1497 
Q 2881 1984 2565 2268 
Q 2250 2553 1709 2553 
Q 1456 2553 1204 2497 
Q 953 2441 691 2322 
L 691 4666 
z
" transform="scale(0.015625)"/>
       </defs>
       <use xlink:href="#DejaVuSans-32"/>
       <use xlink:href="#DejaVuSans-30" x="63.623047"/>
       <use xlink:href="#DejaVuSans-32" x="127.246094"/>
       <use xlink:href="#DejaVuSans-31" x="190.869141"/>
       <use xlink:href="#DejaVuSans-2d" x="254.492188"/>
       <use xlink:href="#DejaVuSans-30" x="290.576172"/>
       <use xlink:href="#DejaVuSans-35" x="354.199219"/>
      </g>
     </g>
    </g>
    <g id="xtick_2">
     <g id="line2d_2">
      <g>
       <use xlink:href="#mfe451f4c92" x="310.47432" y="512.64" style="stroke: #000000; stroke-width: 0.8"/>
      </g>
     </g>
     <g id="text_2">
      <!-- 2021-09 -->
      <g transform="translate(289.582914 527.238438) scale(0.1 -0.1)">
       <defs>
        <path id="DejaVuSans-39" d="M 703 97 
L 703 672 
Q 941 559 1184 500 
Q 1428 441 1663 441 
Q 2288 441 2617 861 
Q 2947 1281 2994 2138 
Q 2813 1869 2534 1725 
Q 2256 1581 1919 1581 
Q 1219 1581 811 2004 
Q 403 2428 403 3163 
Q 403 3881 828 4315 
Q 1253 4750 1959 4750 
Q 2769 4750 3195 4129 
Q 3622 3509 3622 2328 
Q 3622 1225 3098 567 
Q 2575 -91 1691 -91 
Q 1453 -91 1209 -44 
Q 966 3 703 97 
z
M 1959 2075 
Q 2384 2075 2632 2365 
Q 2881 2656 2881 3163 
Q 2881 3666 2632 3958 
Q 2384 4250 1959 4250 
Q 1534 4250 1286 3958 
Q 1038 3666 1038 3163 
Q 1038 2656 1286 2365 
Q 1534 2075 1959 2075 
z
" transform="scale(0.015625)"/>
       </defs>
       <use xlink:href="#DejaVuSans-32"/>
       <use xlink:href="#DejaVuSans-30" x="63.623047"/>
       <use xlink:href="#DejaVuSans-32" x="127.246094"/>
       <use xlink:href="#DejaVuSans-31" x="190.869141"/>
       <use xlink:href="#DejaVuSans-2d" x="254.492188"/>
       <use xlink:href="#DejaVuSans-30" x="290.576172"/>
       <use xlink:href="#DejaVuSans-39" x="354.199219"/>
      </g>
     </g>
    </g>
    <g id="xtick_3">
     <g id="line2d_3">
      <g>
       <use xlink:href="#mfe451f4c92" x="400.851559" y="512.64" style="stroke: #000000; stroke-width: 0.8"/>
      </g>
     </g>
     <g id="text_3">
      <!-- 2022-01 -->
      <g transform="translate(379.960153 527.238438) scale(0.1 -0.1)">
       <use xlink:href="#DejaVuSans-32"/>
       <use xlink:href="#DejaVuSans-30" x="63.623047"/>
       <use xlink:href="#DejaVuSans-32" x="127.246094"/>
       <use xlink:href="#DejaVuSans-32" x="190.869141"/>
       <use xlink:href="#DejaVuSans-2d" x="254.492188"/>
       <use xlink:href="#DejaVuSans-30" x="290.576172"/>
       <use xlink:href="#DejaVuSans-31" x="354.199219"/>
      </g>
     </g>
    </g>
    <g id="xtick_4">
     <g id="line2d_4">
      <g>
       <use xlink:href="#mfe451f4c92" x="489.685999" y="512.64" style="stroke: #000000; stroke-width: 0.8"/>
      </g>
     </g>
     <g id="text_4">
      <!-- 2022-05 -->
      <g transform="translate(468.794592 527.238438) scale(0.1 -0.1)">
       <use xlink:href="#DejaVuSans-32"/>
       <use xlink:href="#DejaVuSans-30" x="63.623047"/>
       <use xlink:href="#DejaVuSans-32" x="127.246094"/>
       <use xlink:href="#DejaVuSans-32" x="190.869141"/>
       <use xlink:href="#DejaVuSans-2d" x="254.492188"/>
       <use xlink:href="#DejaVuSans-30" x="290.576172"/>
       <use xlink:href="#DejaVuSans-35" x="354.199219"/>
      </g>
     </g>
    </g>
    <g id="xtick_5">
     <g id="line2d_5">
      <g>
       <use xlink:href="#mfe451f4c92" x="580.772926" y="512.64" style="stroke: #000000; stroke-width: 0.8"/>
      </g>
     </g>
     <g id="text_5">
      <!-- 2022-09 -->
      <g transform="translate(559.88152 527.238438) scale(0.1 -0.1)">
       <use xlink:href="#DejaVuSans-32"/>
       <use xlink:href="#DejaVuSans-30" x="63.623047"/>
       <use xlink:href="#DejaVuSans-32" x="127.246094"/>
       <use xlink:href="#DejaVuSans-32" x="190.869141"/>
       <use xlink:href="#DejaVuSans-2d" x="254.492188"/>
       <use xlink:href="#DejaVuSans-30" x="290.576172"/>
       <use xlink:href="#DejaVuSans-39" x="354.199219"/>
      </g>
     </g>
    </g>
    <g id="xtick_6">
     <g id="line2d_6">
      <g>
       <use xlink:href="#mfe451f4c92" x="671.150166" y="512.64" style="stroke: #000000; stroke-width: 0.8"/>
      </g>
     </g>
     <g id="text_6">
      <!-- 2023-01 -->
      <g transform="translate(650.25876 527.238438) scale(0.1 -0.1)">
       <defs>
        <path id="DejaVuSans-33" d="M 2597 2516 
Q 3050 2419 3304 2112 
Q 3559 1806 3559 1356 
Q 3559 666 3084 287 
Q 2609 -91 1734 -91 
Q 1441 -91 1130 -33 
Q 819 25 488 141 
L 488 750 
Q 750 597 1062 519 
Q 1375 441 1716 441 
Q 2309 441 2620 675 
Q 2931 909 2931 1356 
Q 2931 1769 2642 2001 
Q 2353 2234 1838 2234 
L 1294 2234 
L 1294 2753 
L 1863 2753 
Q 2328 2753 2575 2939 
Q 2822 3125 2822 3475 
Q 2822 3834 2567 4026 
Q 2313 4219 1838 4219 
Q 1578 4219 1281 4162 
Q 984 4106 628 3988 
L 628 4550 
Q 988 4650 1302 4700 
Q 1616 4750 1894 4750 
Q 2613 4750 3031 4423 
Q 3450 4097 3450 3541 
Q 3450 3153 3228 2886 
Q 3006 2619 2597 2516 
z
" transform="scale(0.015625)"/>
       </defs>
       <use xlink:href="#DejaVuSans-32"/>
       <use xlink:href="#DejaVuSans-30" x="63.623047"/>
       <use xlink:href="#DejaVuSans-32" x="127.246094"/>
       <use xlink:href="#DejaVuSans-33" x="190.869141"/>
       <use xlink:href="#DejaVuSans-2d" x="254.492188"/>
       <use xlink:href="#DejaVuSans-30" x="290.576172"/>
       <use xlink:href="#DejaVuSans-31" x="354.199219"/>
      </g>
     </g>
    </g>
    <g id="xtick_7">
     <g id="line2d_7">
      <g>
       <use xlink:href="#mfe451f4c92" x="759.984605" y="512.64" style="stroke: #000000; stroke-width: 0.8"/>
      </g>
     </g>
     <g id="text_7">
      <!-- 2023-05 -->
      <g transform="translate(739.093199 527.238438) scale(0.1 -0.1)">
       <use xlink:href="#DejaVuSans-32"/>
       <use xlink:href="#DejaVuSans-30" x="63.623047"/>
       <use xlink:href="#DejaVuSans-32" x="127.246094"/>
       <use xlink:href="#DejaVuSans-33" x="190.869141"/>
       <use xlink:href="#DejaVuSans-2d" x="254.492188"/>
       <use xlink:href="#DejaVuSans-30" x="290.576172"/>
       <use xlink:href="#DejaVuSans-35" x="354.199219"/>
      </g>
     </g>
    </g>
    <g id="xtick_8">
     <g id="line2d_8">
      <g>
       <use xlink:href="#mfe451f4c92" x="851.071533" y="512.64" style="stroke: #000000; stroke-width: 0.8"/>
      </g>
     </g>
     <g id="text_8">
      <!-- 2023-09 -->
      <g transform="translate(830.180127 527.238438) scale(0.1 -0.1)">
       <use xlink:href="#DejaVuSans-32"/>
       <use xlink:href="#DejaVuSans-30" x="63.623047"/>
       <use xlink:href="#DejaVuSans-32" x="127.246094"/>
       <use xlink:href="#DejaVuSans-33" x="190.869141"/>
       <use xlink:href="#DejaVuSans-2d" x="254.492188"/>
       <use xlink:href="#DejaVuSans-30" x="290.576172"/>
       <use xlink:href="#DejaVuSans-39" x="354.199219"/>
      </g>
     </g>
    </g>
    <g id="xtick_9">
     <g id="line2d_9">
      <g>
       <use xlink:href="#mfe451f4c92" x="941.448772" y="512.64" style="stroke: #000000; stroke-width: 0.8"/>
      </g>
     </g>
     <g id="text_9">
      <!-- 2024-01 -->
      <g transform="translate(920.557366 527.238438) scale(0.1 -0.1)">
       <defs>
        <path id="DejaVuSans-34" d="M 2419 4116 
L 825 1625 
L 2419 1625 
L 2419 4116 
z
M 2253 4666 
L 3047 4666 
L 3047 1625 
L 3713 1625 
L 3713 1100 
L 3047 1100 
L 3047 0 
L 2419 0 
L 2419 1100 
L 313 1100 
L 313 1709 
L 2253 4666 
z
" transform="scale(0.015625)"/>
       </defs>
       <use xlink:href="#DejaVuSans-32"/>
       <use xlink:href="#DejaVuSans-30" x="63.623047"/>
       <use xlink:href="#DejaVuSans-32" x="127.246094"/>
       <use xlink:href="#DejaVuSans-34" x="190.869141"/>
       <use xlink:href="#DejaVuSans-2d" x="254.492188"/>
       <use xlink:href="#DejaVuSans-30" x="290.576172"/>
       <use xlink:href="#DejaVuSans-31" x="354.199219"/>
      </g>
     </g>
    </g>
    <g id="xtick_10">
     <g id="line2d_10">
      <g>
       <use xlink:href="#mfe451f4c92" x="1031.023756" y="512.64" style="stroke: #000000; stroke-width: 0.8"/>
      </g>
     </g>
     <g id="text_10">
      <!-- 2024-05 -->
      <g transform="translate(1010.13235 527.238438) scale(0.1 -0.1)">
       <use xlink:href="#DejaVuSans-32"/>
       <use xlink:href="#DejaVuSans-30" x="63.623047"/>
       <use xlink:href="#DejaVuSans-32" x="127.246094"/>
       <use xlink:href="#DejaVuSans-34" x="190.869141"/>
       <use xlink:href="#DejaVuSans-2d" x="254.492188"/>
       <use xlink:href="#DejaVuSans-30" x="290.576172"/>
       <use xlink:href="#DejaVuSans-35" x="354.199219"/>
      </g>
     </g>
    </g>
    <g id="text_11">
     <!-- Date -->
     <g transform="translate(578.449219 540.916563) scale(0.1 -0.1)">
      <defs>
       <path id="DejaVuSans-44" d="M 1259 4147 
L 1259 519 
L 2022 519 
Q 2988 519 3436 956 
Q 3884 1394 3884 2338 
Q 3884 3275 3436 3711 
Q 2988 4147 2022 4147 
L 1259 4147 
z
M 628 4666 
L 1925 4666 
Q 3281 4666 3915 4102 
Q 4550 3538 4550 2338 
Q 4550 1131 3912 565 
Q 3275 0 1925 0 
L 628 0 
L 628 4666 
z
" transform="scale(0.015625)"/>
       <path id="DejaVuSans-61" d="M 2194 1759 
Q 1497 1759 1228 1600 
Q 959 1441 959 1056 
Q 959 750 1161 570 
Q 1363 391 1709 391 
Q 2188 391 2477 730 
Q 2766 1069 2766 1631 
L 2766 1759 
L 2194 1759 
z
M 3341 1997 
L 3341 0 
L 2766 0 
L 2766 531 
Q 2569 213 2275 61 
Q 1981 -91 1556 -91 
Q 1019 -91 701 211 
Q 384 513 384 1019 
Q 384 1609 779 1909 
Q 1175 2209 1959 2209 
L 2766 2209 
L 2766 2266 
Q 2766 2663 2505 2880 
Q 2244 3097 1772 3097 
Q 1472 3097 1187 3025 
Q 903 2953 641 2809 
L 641 3341 
Q 956 3463 1253 3523 
Q 1550 3584 1831 3584 
Q 2591 3584 2966 3190 
Q 3341 2797 3341 1997 
z
" transform="scale(0.015625)"/>
       <path id="DejaVuSans-74" d="M 1172 4494 
L 1172 3500 
L 2356 3500 
L 2356 3053 
L 1172 3053 
L 1172 1153 
Q 1172 725 1289 603 
Q 1406 481 1766 481 
L 2356 481 
L 2356 0 
L 1766 0 
Q 1100 0 847 248 
Q 594 497 594 1153 
L 594 3053 
L 172 3053 
L 172 3500 
L 594 3500 
L 594 4494 
L 1172 4494 
z
" transform="scale(0.015625)"/>
       <path id="DejaVuSans-65" d="M 3597 1894 
L 3597 1613 
L 953 1613 
Q 991 1019 1311 708 
Q 1631 397 2203 397 
Q 2534 397 2845 478 
Q 3156 559 3463 722 
L 3463 178 
Q 3153 47 2828 -22 
Q 2503 -91 2169 -91 
Q 1331 -91 842 396 
Q 353 884 353 1716 
Q 353 2575 817 3079 
Q 1281 3584 2069 3584 
Q 2775 3584 3186 3129 
Q 3597 2675 3597 1894 
z
M 3022 2063 
Q 3016 2534 2758 2815 
Q 2500 3097 2075 3097 
Q 1594 3097 1305 2825 
Q 1016 2553 972 2059 
L 3022 2063 
z
" transform="scale(0.015625)"/>
      </defs>
      <use xlink:href="#DejaVuSans-44"/>
      <use xlink:href="#DejaVuSans-61" x="77.001953"/>
      <use xlink:href="#DejaVuSans-74" x="138.28125"/>
      <use xlink:href="#DejaVuSans-65" x="177.490234"/>
     </g>
    </g>
   </g>
   <g id="matplotlib.axis_2">
    <g id="ytick_1">
     <g id="line2d_11">
      <defs>
       <path id="mdd4c7324c1" d="M 0 0 
L -3.5 0 
" style="stroke: #0000ff; stroke-width: 0.8"/>
      </defs>
      <g>
       <use xlink:href="#mdd4c7324c1" x="144" y="444.023229" style="fill: #0000ff; stroke: #0000ff; stroke-width: 0.8"/>
      </g>
     </g>
     <g id="text_12">
      <!-- 15 -->
      <g style="fill: #0000ff" transform="translate(124.275 447.822448) scale(0.1 -0.1)">
       <use xlink:href="#DejaVuSans-31"/>
       <use xlink:href="#DejaVuSans-35" x="63.623047"/>
      </g>
     </g>
    </g>
    <g id="ytick_2">
     <g id="line2d_12">
      <g>
       <use xlink:href="#mdd4c7324c1" x="144" y="361.332503" style="fill: #0000ff; stroke: #0000ff; stroke-width: 0.8"/>
      </g>
     </g>
     <g id="text_13">
      <!-- 20 -->
      <g style="fill: #0000ff" transform="translate(124.275 365.131721) scale(0.1 -0.1)">
       <use xlink:href="#DejaVuSans-32"/>
       <use xlink:href="#DejaVuSans-30" x="63.623047"/>
      </g>
     </g>
    </g>
    <g id="ytick_3">
     <g id="line2d_13">
      <g>
       <use xlink:href="#mdd4c7324c1" x="144" y="278.641776" style="fill: #0000ff; stroke: #0000ff; stroke-width: 0.8"/>
      </g>
     </g>
     <g id="text_14">
      <!-- 25 -->
      <g style="fill: #0000ff" transform="translate(124.275 282.440995) scale(0.1 -0.1)">
       <use xlink:href="#DejaVuSans-32"/>
       <use xlink:href="#DejaVuSans-35" x="63.623047"/>
      </g>
     </g>
    </g>
    <g id="ytick_4">
     <g id="line2d_14">
      <g>
       <use xlink:href="#mdd4c7324c1" x="144" y="195.95105" style="fill: #0000ff; stroke: #0000ff; stroke-width: 0.8"/>
      </g>
     </g>
     <g id="text_15">
      <!-- 30 -->
      <g style="fill: #0000ff" transform="translate(124.275 199.750269) scale(0.1 -0.1)">
       <use xlink:href="#DejaVuSans-33"/>
       <use xlink:href="#DejaVuSans-30" x="63.623047"/>
      </g>
     </g>
    </g>
    <g id="ytick_5">
     <g id="line2d_15">
      <g>
       <use xlink:href="#mdd4c7324c1" x="144" y="113.260323" style="fill: #0000ff; stroke: #0000ff; stroke-width: 0.8"/>
      </g>
     </g>
     <g id="text_16">
      <!-- 35 -->
      <g style="fill: #0000ff" transform="translate(124.275 117.059542) scale(0.1 -0.1)">
       <use xlink:href="#DejaVuSans-33"/>
       <use xlink:href="#DejaVuSans-35" x="63.623047"/>
      </g>
     </g>
    </g>
    <g id="text_17">
     <!-- Price -->
     <g style="fill: #0000ff" transform="translate(118.195312 303.077656) rotate(-90) scale(0.1 -0.1)">
      <defs>
       <path id="DejaVuSans-50" d="M 1259 4147 
L 1259 2394 
L 2053 2394 
Q 2494 2394 2734 2622 
Q 2975 2850 2975 3272 
Q 2975 3691 2734 3919 
Q 2494 4147 2053 4147 
L 1259 4147 
z
M 628 4666 
L 2053 4666 
Q 2838 4666 3239 4311 
Q 3641 3956 3641 3272 
Q 3641 2581 3239 2228 
Q 2838 1875 2053 1875 
L 1259 1875 
L 1259 0 
L 628 0 
L 628 4666 
z
" transform="scale(0.015625)"/>
       <path id="DejaVuSans-72" d="M 2631 2963 
Q 2534 3019 2420 3045 
Q 2306 3072 2169 3072 
Q 1681 3072 1420 2755 
Q 1159 2438 1159 1844 
L 1159 0 
L 581 0 
L 581 3500 
L 1159 3500 
L 1159 2956 
Q 1341 3275 1631 3429 
Q 1922 3584 2338 3584 
Q 2397 3584 2469 3576 
Q 2541 3569 2628 3553 
L 2631 2963 
z
" transform="scale(0.015625)"/>
       <path id="DejaVuSans-69" d="M 603 3500 
L 1178 3500 
L 1178 0 
L 603 0 
L 603 3500 
z
M 603 4863 
L 1178 4863 
L 1178 4134 
L 603 4134 
L 603 4863 
z
" transform="scale(0.015625)"/>
       <path id="DejaVuSans-63" d="M 3122 3366 
L 3122 2828 
Q 2878 2963 2633 3030 
Q 2388 3097 2138 3097 
Q 1578 3097 1268 2742 
Q 959 2388 959 1747 
Q 959 1106 1268 751 
Q 1578 397 2138 397 
Q 2388 397 2633 464 
Q 2878 531 3122 666 
L 3122 134 
Q 2881 22 2623 -34 
Q 2366 -91 2075 -91 
Q 1284 -91 818 406 
Q 353 903 353 1747 
Q 353 2603 823 3093 
Q 1294 3584 2113 3584 
Q 2378 3584 2631 3529 
Q 2884 3475 3122 3366 
z
" transform="scale(0.015625)"/>
      </defs>
      <use xlink:href="#DejaVuSans-50"/>
      <use xlink:href="#DejaVuSans-72" x="58.552734"/>
      <use xlink:href="#DejaVuSans-69" x="99.666016"/>
      <use xlink:href="#DejaVuSans-63" x="127.449219"/>
      <use xlink:href="#DejaVuSans-65" x="182.429688"/>
     </g>
    </g>
   </g>
   <g id="line2d_16">
    <path d="M 184.581818 360.836347 
L 185.322362 364.805498 
L 186.062906 374.066882 
L 186.803451 335.202234 
L 187.543995 345.621252 
L 189.765627 379.855239 
L 190.506171 356.371072 
L 191.246715 341.486716 
L 191.987259 364.474759 
L 192.727804 380.185978 
L 194.949436 349.094279 
L 195.68998 367.782369 
L 196.430524 371.255396 
L 197.171068 405.489352 
L 200.133245 395.897229 
L 200.873789 392.424202 
L 201.614333 408.300838 
L 202.354877 411.773833 
L 203.095421 416.073755 
L 205.317054 412.435374 
L 206.057598 416.735296 
L 206.798142 411.112324 
L 207.538686 418.058346 
L 208.27923 423.350548 
L 210.500863 406.150861 
L 211.241407 383.162849 
L 211.981951 402.677866 
L 212.722495 382.666725 
L 213.463039 405.489352 
L 215.684672 400.362536 
L 216.425216 401.685586 
L 217.16576 406.316247 
L 217.906304 400.85866 
L 218.646848 384.320515 
L 220.86848 389.281977 
L 221.609025 369.932346 
L 222.349569 375.389933 
L 223.090113 387.958927 
L 223.830657 416.073755 
L 226.052289 366.955475 
L 226.792833 330.902313 
L 227.533378 235.807977 
L 229.014466 381.012904 
L 231.236098 365.963195 
L 231.976642 339.171386 
L 232.717186 325.279341 
L 233.457731 350.251944 
L 234.198275 358.851787 
L 236.419907 387.793542 
L 237.160451 380.516749 
L 237.900995 404.993196 
L 238.641539 415.24686 
L 239.382084 414.91609 
L 242.34426 396.062614 
L 243.084804 403.008636 
L 243.825348 393.747252 
L 244.565893 420.539062 
L 246.787525 420.539062 
L 247.528069 409.789274 
L 248.268613 396.227999 
L 249.009157 425.831263 
L 249.749701 433.273441 
L 251.971334 421.035217 
L 252.711878 410.616168 
L 253.452422 391.928078 
L 254.192966 398.54333 
L 254.93351 349.755788 
L 257.155143 396.227999 
L 257.895687 416.569911 
L 260.117319 433.769581 
L 262.338952 431.454235 
L 263.079496 427.154313 
L 263.82004 430.29657 
L 264.560584 436.084927 
L 265.301128 442.865564 
L 268.263305 420.208291 
L 269.003849 424.177442 
L 269.744393 377.870648 
L 270.484937 424.508213 
L 272.706569 424.673598 
L 273.447113 408.962347 
L 274.187658 422.027497 
L 274.928202 410.781553 
L 275.668746 386.966615 
L 277.890378 319.98714 
L 278.630922 365.79781 
L 279.371466 395.897229 
L 280.112011 399.53561 
L 280.852555 407.639297 
L 283.074187 401.354816 
L 283.814731 371.916906 
L 284.555275 389.281977 
L 285.29582 399.370224 
L 286.036364 390.439642 
L 288.257996 370.263116 
L 288.99854 393.747252 
L 289.739084 394.904949 
L 290.479628 406.316247 
L 291.220173 425.004368 
L 293.441805 415.577631 
L 294.182349 414.419934 
L 295.663437 434.265721 
L 296.403981 436.581067 
L 298.625614 425.500493 
L 299.366158 395.897229 
L 300.106702 335.36762 
L 300.847246 333.713799 
L 301.58779 385.147441 
L 303.809423 408.466223 
L 304.549967 407.308558 
L 305.290511 414.419934 
L 306.031055 380.516749 
L 306.771599 421.035217 
L 308.993232 424.342827 
L 309.733776 419.546782 
L 310.47432 425.665878 
L 311.214864 420.704447 
L 311.955408 420.704447 
L 314.917585 392.093463 
L 315.658129 395.070334 
L 316.398673 381.17829 
L 317.139217 345.621252 
L 319.360849 371.75152 
L 320.101393 370.263116 
L 320.841938 391.431922 
L 321.582482 382.997464 
L 322.323026 347.936614 
L 324.544658 266.899708 
L 325.285202 289.226179 
L 326.025747 346.944302 
L 326.766291 383.989776 
L 327.506835 398.54333 
L 329.728467 381.839799 
L 330.469011 307.583531 
L 331.209555 318.99486 
L 331.9501 309.402737 
L 332.690644 343.140537 
L 334.912276 312.379608 
L 335.65282 339.832926 
L 336.393364 344.794357 
L 337.133908 368.940034 
L 337.874453 381.674414 
L 340.096085 361.332503 
L 340.836629 363.813218 
L 341.577173 383.82439 
L 342.317717 413.262269 
L 343.058261 422.523653 
L 345.279894 422.358268 
L 346.020438 432.446531 
L 346.760982 435.919542 
L 347.501526 443.857844 
L 348.24207 436.911822 
L 350.463703 440.054078 
L 351.204247 427.815854 
L 351.944791 411.277709 
L 352.685335 418.719856 
L 353.425879 423.185162 
L 355.647512 420.704447 
L 356.388056 426.988928 
L 357.1286 442.369408 
L 357.869144 436.746452 
L 358.609688 419.546782 
L 360.862177 407.308558 
L 361.602721 398.047174 
L 362.343265 382.335955 
L 363.083809 400.031765 
L 363.824353 422.689007 
L 366.045985 419.381397 
L 366.78653 421.365956 
L 367.527074 409.127733 
L 368.267618 401.18943 
L 369.008162 395.897229 
L 371.229794 375.059162 
L 371.970338 371.586167 
L 372.710883 384.81667 
L 374.191971 218.773676 
L 376.413603 312.379608 
L 377.894691 177.428313 
L 378.635236 229.854235 
L 379.37578 184.870491 
L 381.597412 242.588614 
L 382.337956 330.075418 
L 383.0785 362.986324 
L 383.819044 335.202234 
L 384.559589 382.997464 
L 386.781221 356.205687 
L 387.521765 330.075418 
L 388.262309 373.074571 
L 389.002853 351.905765 
L 389.743397 335.36762 
L 391.96503 313.868012 
L 392.705574 344.628972 
L 393.446118 383.989776 
L 394.186662 395.070334 
L 397.148839 399.700995 
L 397.889383 402.016325 
L 398.629927 411.773833 
L 399.370471 405.489352 
L 400.111015 407.308558 
L 402.332648 417.56219 
L 403.073192 412.435374 
L 403.813736 365.79781 
L 404.55428 367.782369 
L 405.294824 381.839799 
L 407.516457 371.255396 
L 408.257001 387.628156 
L 408.997545 400.693275 
L 409.738089 356.205687 
L 410.478633 374.728392 
L 413.44081 315.191062 
L 414.181354 297.660637 
L 414.921898 268.884268 
L 415.662442 214.969911 
L 417.884074 197.604871 
L 418.624618 176.766804 
L 419.365163 163.5363 
L 420.105707 187.847362 
L 420.846251 234.650312 
L 423.067883 281.453262 
L 423.808427 328.917753 
L 424.548971 326.767777 
L 425.289516 289.391564 
L 426.03006 308.079686 
L 428.251692 314.033397 
L 429.73278 361.994044 
L 431.213869 239.611743 
L 433.435501 223.569754 
L 434.176045 267.065062 
L 434.916589 290.383844 
L 435.657133 227.208134 
L 436.397678 233.161877 
L 439.359854 215.631452 
L 440.100398 179.082134 
L 440.840942 190.658848 
L 441.581486 235.807977 
L 443.803119 193.470334 
L 444.543663 141.044412 
L 445.284207 183.712826 
L 446.024751 188.012748 
L 448.986928 89.28 
L 449.727472 111.110347 
L 450.468016 155.432581 
L 451.20856 192.147284 
L 451.949104 183.547441 
L 454.139881 166.678525 
L 454.880425 198.762536 
L 455.620969 251.023072 
L 456.361513 267.561218 
L 457.102057 297.329867 
L 459.323689 302.952838 
L 460.064234 312.710347 
L 460.804778 302.291329 
L 461.545322 333.713799 
L 462.285866 347.936614 
L 464.507498 367.45163 
L 465.248042 379.524469 
L 465.988587 372.413061 
L 466.729131 352.07115 
L 467.469675 367.45163 
L 469.691307 384.982056 
L 470.431851 344.298202 
L 471.172395 326.602391 
L 471.91294 335.69839 
L 472.653484 342.148257 
L 474.875116 289.060794 
L 475.61566 290.88 
L 476.356204 331.233083 
L 477.096749 316.679498 
L 480.058925 325.444726 
L 480.799469 338.67523 
L 481.540013 356.040301 
L 482.280557 317.010268 
L 483.021102 225.554345 
L 485.242734 245.234715 
L 485.983278 137.736771 
L 486.723822 169.490011 
L 487.464366 196.116435 
L 488.20491 139.721331 
L 490.426543 157.251787 
L 491.167087 208.354659 
L 491.907631 271.695754 
L 492.648175 176.105263 
L 493.388719 192.808793 
L 495.610352 117.39486 
L 496.350896 146.501968 
L 497.09144 153.613375 
L 497.831984 166.678525 
L 498.572528 214.63914 
L 500.794161 237.792569 
L 501.534705 260.44981 
L 502.275249 180.074445 
L 503.015793 206.700838 
L 503.756337 205.377788 
L 505.977969 221.089038 
L 506.718514 205.047017 
L 507.459058 222.908213 
L 508.199602 237.296413 
L 508.940146 266.734323 
L 511.902322 258.961375 
L 512.642867 267.230447 
L 513.383411 283.272468 
L 514.123955 282.114772 
L 516.345587 277.484111 
L 517.086131 294.849151 
L 517.826676 295.841463 
L 518.56722 260.615195 
L 519.307764 233.161877 
L 521.529396 129.467698 
L 522.26994 151.463462 
L 523.010484 202.235531 
L 523.751029 147.163509 
L 524.491573 177.262959 
L 527.453749 192.808793 
L 528.194293 213.31609 
L 528.934837 211.6623 
L 529.675382 241.76172 
L 531.897014 246.39238 
L 532.637558 223.073598 
L 533.378102 226.38124 
L 534.118646 217.285272 
L 534.85919 250.526917 
L 537.821367 236.634872 
L 538.561911 250.030792 
L 539.302455 260.780581 
L 540.042999 284.595519 
L 542.264632 259.292145 
L 543.005176 240.769408 
L 544.486264 255.488379 
L 545.226808 291.376156 
L 547.448441 273.680345 
L 548.188985 286.910849 
L 548.929529 297.164513 
L 549.670073 309.898861 
L 550.410617 311.221911 
L 552.63225 305.764324 
L 553.372794 283.768592 
L 554.113338 307.748916 
L 555.594426 339.336771 
L 557.816058 314.364168 
L 558.556603 296.337587 
L 559.297147 329.083107 
L 560.037691 337.517565 
L 560.778235 342.313642 
L 562.999867 339.99828 
L 563.740411 332.059978 
L 564.480956 365.632424 
L 565.2215 358.024861 
L 565.962044 369.10542 
L 568.183676 362.159397 
L 568.92422 366.459319 
L 569.664764 362.986324 
L 570.405309 368.609296 
L 573.367485 298.487563 
L 574.108029 293.360715 
L 574.848573 314.694938 
L 575.589117 331.894593 
L 576.329662 269.380424 
L 578.551294 258.630636 
L 579.291838 258.630636 
L 580.772926 269.380424 
L 581.51347 270.868859 
L 584.475647 247.053921 
L 585.216191 284.595519 
L 585.956735 301.629788 
L 586.697279 315.191062 
L 588.918912 297.329867 
L 589.659456 241.100179 
L 590.4 259.45753 
L 591.140544 257.638324 
L 591.881088 257.1422 
L 594.102721 266.072782 
L 594.843265 242.919385 
L 595.583809 229.192726 
L 596.324353 239.777129 
L 597.064897 197.2741 
L 599.28653 158.574869 
L 600.027074 152.951897 
L 600.767618 192.974179 
L 601.508162 165.52086 
L 602.248706 169.159241 
L 604.470338 194.297229 
L 605.210883 211.33153 
L 605.951427 219.931373 
L 606.691971 187.351207 
L 607.432515 173.459162 
L 609.654147 155.432581 
L 610.394691 135.917565 
L 611.135236 136.909876 
L 611.87578 163.867039 
L 612.616324 162.543989 
L 614.837956 173.293777 
L 615.5785 187.681977 
L 616.319044 183.382056 
L 617.059589 196.28182 
L 617.800133 201.077866 
L 620.021765 198.431765 
L 620.762309 221.419809 
L 621.502853 240.934794 
L 622.243397 239.115619 
L 622.983942 266.238167 
L 625.205574 264.088222 
L 625.946118 265.245887 
L 626.686662 264.418961 
L 627.427206 273.680345 
L 628.16775 286.083954 
L 630.420239 289.391564 
L 631.160783 269.711163 
L 631.901327 260.615195 
L 632.641871 302.952838 
L 633.382415 319.656369 
L 635.604048 299.645228 
L 636.344592 286.249308 
L 637.085136 293.360715 
L 637.82568 296.337587 
L 638.566224 309.733476 
L 640.787857 322.30247 
L 642.268945 355.544146 
L 643.750033 353.06343 
L 645.971666 324.783217 
L 646.71221 330.075418 
L 647.452754 351.74038 
L 648.933842 376.878368 
L 651.155474 348.928894 
L 651.896019 325.444726 
L 652.636563 317.010268 
L 653.377107 323.460135 
L 654.117651 314.529553 
L 656.339283 278.641776 
L 657.079827 319.160245 
L 657.820372 342.479027 
L 658.560916 314.529553 
L 659.30146 318.002548 
L 661.523092 321.31019 
L 662.263636 336.856055 
L 663.00418 360.174838 
L 663.744725 328.752368 
L 664.485269 346.944302 
L 667.447445 334.044569 
L 668.187989 325.940882 
L 668.928534 337.517565 
L 669.669078 333.713799 
L 672.631254 313.371888 
L 673.371798 328.090827 
L 674.112342 320.64868 
L 674.852887 342.644412 
L 677.074519 328.752368 
L 677.815063 351.74038 
L 678.555607 343.305922 
L 679.296151 380.682134 
L 680.036695 388.620436 
L 682.998872 371.916906 
L 683.739416 355.709531 
L 684.47996 352.73266 
L 685.220504 363.813218 
L 687.442137 364.474759 
L 688.182681 374.563006 
L 688.923225 376.547598 
L 689.663769 382.335955 
L 690.404313 385.974335 
L 692.625946 362.324783 
L 693.36649 371.255396 
L 694.107034 396.558738 
L 694.847578 382.335955 
L 695.588122 388.951207 
L 697.809754 370.759241 
L 698.550299 383.49362 
L 700.031387 349.590435 
L 700.771931 352.567274 
L 702.993563 355.709531 
L 703.734107 379.359084 
L 704.474652 390.605027 
L 705.215196 358.521017 
L 705.95574 361.001732 
L 708.917916 313.868012 
L 709.658461 323.460135 
L 710.399005 342.479027 
L 711.139549 333.713799 
L 714.101725 349.755788 
L 714.842269 351.74038 
L 716.323358 386.305106 
L 718.54499 384.320515 
L 719.285534 368.11314 
L 720.026078 376.051442 
L 720.766622 318.167933 
L 721.507167 281.949418 
L 723.697943 253.503788 
L 724.438487 299.645228 
L 725.179031 259.788301 
L 725.919575 311.883452 
L 726.660119 270.207318 
L 728.881752 292.699206 
L 729.622296 338.509876 
L 730.36284 323.956291 
L 731.103384 318.167933 
L 731.843928 332.556134 
L 734.065561 351.409609 
L 734.806105 361.828658 
L 735.546649 375.886057 
L 736.287193 377.539878 
L 737.027737 382.832079 
L 739.24937 385.312826 
L 739.989914 377.870648 
L 740.730458 376.547598 
L 741.471002 387.793542 
L 745.173723 376.216827 
L 745.914267 376.382212 
L 746.654811 397.716435 
L 747.395355 409.789274 
L 749.616987 411.773833 
L 750.357532 413.758425 
L 751.098076 419.877552 
L 751.83862 408.135453 
L 752.579164 414.750704 
L 754.800796 412.766145 
L 755.54134 381.839799 
L 756.281885 380.516749 
L 757.022429 410.450783 
L 757.762973 431.12348 
L 759.984605 426.162034 
L 760.725149 398.047174 
L 761.465693 388.785821 
L 762.206238 359.844067 
L 762.946782 407.804682 
L 765.168414 411.277709 
L 765.908958 399.204871 
L 766.649502 411.939219 
L 767.390046 412.104604 
L 768.130591 410.450783 
L 770.352223 408.962347 
L 771.092767 394.574179 
L 771.833311 413.096884 
L 772.573855 426.658189 
L 773.314399 414.089195 
L 775.536032 407.473943 
L 777.01712 360.836347 
L 777.757664 375.555318 
L 778.498208 395.235688 
L 781.460385 403.339407 
L 782.200929 395.401073 
L 782.941473 433.273441 
L 783.682017 450.638481 
L 785.90365 448.488536 
L 786.644194 461.2229 
L 787.384738 461.55367 
L 788.125282 466.349732 
L 788.865826 463.37286 
L 791.087459 443.857844 
L 791.828003 450.473112 
L 792.568547 462.54595 
L 793.309091 452.292302 
L 794.049635 468.168922 
L 797.011812 462.54595 
L 797.752356 473.791894 
L 798.4929 478.587955 
L 799.233444 469.822743 
L 801.455076 456.426838 
L 802.19562 464.861296 
L 802.936165 469.988112 
L 803.676709 468.168922 
L 804.417253 467.342012 
L 806.638885 467.672782 
L 808.119973 457.584503 
L 808.860518 436.746452 
L 809.601062 446.834715 
L 811.822694 442.865564 
L 812.563238 446.66933 
L 813.303782 468.168922 
L 814.044326 467.011257 
L 814.784871 471.476548 
L 817.006503 469.161218 
L 817.747047 472.138073 
L 818.487591 464.530526 
L 819.228135 460.72676 
L 819.968679 467.176626 
L 822.190312 462.04981 
L 822.930856 462.876721 
L 823.6714 473.957279 
L 824.411944 453.780737 
L 825.152488 471.641933 
L 827.374121 466.680486 
L 828.114665 461.71904 
L 828.855209 425.996648 
L 829.595753 428.808134 
L 830.336297 409.293118 
L 832.55793 431.28885 
L 833.298474 427.650469 
L 834.039018 428.146609 
L 834.779562 429.965799 
L 835.520106 446.66933 
L 837.741739 447.0001 
L 838.482283 419.877552 
L 839.222827 414.585319 
L 839.963371 396.227999 
L 840.703915 405.985508 
L 842.925547 408.796994 
L 843.666092 411.443094 
L 844.406636 427.815854 
L 845.14718 407.639297 
L 845.887724 432.777285 
L 848.109356 442.700179 
L 849.590445 462.54595 
L 850.330989 467.672782 
L 851.071533 475.611084 
L 854.033709 460.395989 
L 854.774253 453.119212 
L 855.514798 453.946123 
L 856.255342 463.207475 
L 858.476974 463.869 
L 859.217518 456.757609 
L 860.698607 480.076391 
L 861.439151 464.034386 
L 863.660783 460.561375 
L 864.401327 458.742184 
L 865.141871 441.707883 
L 865.882415 402.016325 
L 866.62296 407.639297 
L 868.844592 412.600759 
L 869.585136 378.862928 
L 870.32568 390.770413 
L 871.066224 405.323967 
L 871.806768 402.347096 
L 874.028401 400.85866 
L 874.768945 364.970883 
L 875.509489 384.81667 
L 876.250033 386.305106 
L 876.990577 403.504761 
L 879.21221 399.370224 
L 879.952754 410.450783 
L 880.693298 425.996648 
L 881.433842 416.073755 
L 882.174386 372.578447 
L 884.396019 407.473943 
L 885.136563 396.393385 
L 885.877107 374.232267 
L 886.617651 338.179106 
L 887.358195 333.052289 
L 889.579827 355.213375 
L 890.320372 378.366804 
L 891.060916 358.190246 
L 891.80146 350.086559 
L 892.542004 340.329051 
L 894.763636 365.467039 
L 895.50418 392.093463 
L 896.985269 433.108056 
L 897.725813 445.511665 
L 899.978301 445.84242 
L 900.718845 447.16547 
L 901.45939 453.119212 
L 902.199934 439.227168 
L 902.940478 457.749889 
L 905.16211 447.99238 
L 905.902654 457.915274 
L 906.643198 457.584503 
L 907.383743 455.269173 
L 908.124287 463.869 
L 910.345919 470.318883 
L 911.086463 471.311163 
L 911.827007 479.580235 
L 913.308096 486.030118 
L 915.529728 482.226352 
L 916.270272 482.226352 
L 917.010816 477.43029 
L 917.75136 478.42257 
L 918.491904 483.218632 
L 920.713537 475.776469 
L 921.454081 479.580235 
L 922.194625 477.59566 
L 922.935169 476.107224 
L 923.675713 487.849308 
L 925.897346 483.218632 
L 926.63789 492.48 
L 927.378434 490.495424 
L 928.118978 485.699363 
L 928.859522 489.006989 
L 931.081155 484.376297 
L 931.821699 484.872453 
L 932.562243 466.018961 
L 933.302787 466.349732 
L 934.043331 476.60338 
L 937.005508 477.264905 
L 937.746052 486.526258 
L 938.486596 485.864732 
L 939.22714 486.195503 
L 942.189317 473.791894 
L 942.929861 459.899849 
L 943.670405 458.411414 
L 944.410949 471.311163 
L 946.632581 475.776469 
L 947.373125 481.068671 
L 948.11367 482.226352 
L 948.854214 486.360888 
L 949.594758 482.060967 
L 952.556934 463.207475 
L 953.297478 447.49624 
L 954.038023 458.411414 
L 954.778567 472.138073 
L 957.000199 473.957279 
L 957.740743 484.541682 
L 958.481287 474.784174 
L 959.221831 469.657358 
L 959.962376 472.799598 
L 962.184008 467.176626 
L 962.924552 471.972688 
L 963.665096 454.773017 
L 964.40564 462.54595 
L 965.146184 463.04209 
L 967.367817 466.018961 
L 968.108361 476.107224 
L 968.848905 479.911006 
L 969.589449 480.572531 
L 970.329993 478.257185 
L 972.551626 461.71904 
L 973.29217 429.965799 
L 974.032714 454.276877 
L 974.773258 460.395989 
L 975.513802 456.592223 
L 978.475979 437.077207 
L 979.216523 438.400257 
L 980.697611 464.695911 
L 982.919244 464.861296 
L 983.659788 469.988112 
L 984.400332 463.207475 
L 985.140876 470.484268 
L 985.88142 475.28033 
L 988.103052 468.995832 
L 988.843597 452.953827 
L 989.584141 452.292302 
L 990.324685 453.284598 
L 991.065229 448.323151 
L 993.256005 440.384833 
L 993.996549 463.207475 
L 994.737094 464.695911 
L 995.477638 453.946123 
L 996.218182 453.780737 
L 996.218182 453.780737 
" clip-path="url(#p50d1e6b5c5)" style="fill: none; stroke: #0000ff; stroke-width: 1.5; stroke-linecap: square"/>
   </g>
   <g id="patch_3">
    <path d="M 144 512.64 
L 144 69.12 
" style="fill: none; stroke: #000000; stroke-width: 0.8; stroke-linejoin: miter; stroke-linecap: square"/>
   </g>
   <g id="patch_4">
    <path d="M 1036.8 512.64 
L 1036.8 69.12 
" style="fill: none; stroke: #000000; stroke-width: 0.8; stroke-linejoin: miter; stroke-linecap: square"/>
   </g>
   <g id="patch_5">
    <path d="M 144 512.64 
L 1036.8 512.64 
" style="fill: none; stroke: #000000; stroke-width: 0.8; stroke-linejoin: miter; stroke-linecap: square"/>
   </g>
   <g id="patch_6">
    <path d="M 144 69.12 
L 1036.8 69.12 
" style="fill: none; stroke: #000000; stroke-width: 0.8; stroke-linejoin: miter; stroke-linecap: square"/>
   </g>
  </g>
  <g id="axes_2">
   <g id="matplotlib.axis_3">
    <g id="ytick_6">
     <g id="line2d_17">
      <defs>
       <path id="mde3333cffa" d="M 0 0 
L 3.5 0 
" style="stroke: #ff0000; stroke-width: 0.8"/>
      </defs>
      <g>
       <use xlink:href="#mde3333cffa" x="1036.8" y="465.031124" style="fill: #ff0000; stroke: #ff0000; stroke-width: 0.8"/>
      </g>
     </g>
     <g id="text_18">
      <!-- 0.2 -->
      <g style="fill: #ff0000" transform="translate(1043.8 468.830343) scale(0.1 -0.1)">
       <defs>
        <path id="DejaVuSans-2e" d="M 684 794 
L 1344 794 
L 1344 0 
L 684 0 
L 684 794 
z
" transform="scale(0.015625)"/>
       </defs>
       <use xlink:href="#DejaVuSans-30"/>
       <use xlink:href="#DejaVuSans-2e" x="63.623047"/>
       <use xlink:href="#DejaVuSans-32" x="95.410156"/>
      </g>
     </g>
    </g>
    <g id="ytick_7">
     <g id="line2d_18">
      <g>
       <use xlink:href="#mde3333cffa" x="1036.8" y="413.711332" style="fill: #ff0000; stroke: #ff0000; stroke-width: 0.8"/>
      </g>
     </g>
     <g id="text_19">
      <!-- 0.3 -->
      <g style="fill: #ff0000" transform="translate(1043.8 417.510551) scale(0.1 -0.1)">
       <use xlink:href="#DejaVuSans-30"/>
       <use xlink:href="#DejaVuSans-2e" x="63.623047"/>
       <use xlink:href="#DejaVuSans-33" x="95.410156"/>
      </g>
     </g>
    </g>
    <g id="ytick_8">
     <g id="line2d_19">
      <g>
       <use xlink:href="#mde3333cffa" x="1036.8" y="362.39154" style="fill: #ff0000; stroke: #ff0000; stroke-width: 0.8"/>
      </g>
     </g>
     <g id="text_20">
      <!-- 0.4 -->
      <g style="fill: #ff0000" transform="translate(1043.8 366.190759) scale(0.1 -0.1)">
       <use xlink:href="#DejaVuSans-30"/>
       <use xlink:href="#DejaVuSans-2e" x="63.623047"/>
       <use xlink:href="#DejaVuSans-34" x="95.410156"/>
      </g>
     </g>
    </g>
    <g id="ytick_9">
     <g id="line2d_20">
      <g>
       <use xlink:href="#mde3333cffa" x="1036.8" y="311.071748" style="fill: #ff0000; stroke: #ff0000; stroke-width: 0.8"/>
      </g>
     </g>
     <g id="text_21">
      <!-- 0.5 -->
      <g style="fill: #ff0000" transform="translate(1043.8 314.870967) scale(0.1 -0.1)">
       <use xlink:href="#DejaVuSans-30"/>
       <use xlink:href="#DejaVuSans-2e" x="63.623047"/>
       <use xlink:href="#DejaVuSans-35" x="95.410156"/>
      </g>
     </g>
    </g>
    <g id="ytick_10">
     <g id="line2d_21">
      <g>
       <use xlink:href="#mde3333cffa" x="1036.8" y="259.751956" style="fill: #ff0000; stroke: #ff0000; stroke-width: 0.8"/>
      </g>
     </g>
     <g id="text_22">
      <!-- 0.6 -->
      <g style="fill: #ff0000" transform="translate(1043.8 263.551175) scale(0.1 -0.1)">
       <defs>
        <path id="DejaVuSans-36" d="M 2113 2584 
Q 1688 2584 1439 2293 
Q 1191 2003 1191 1497 
Q 1191 994 1439 701 
Q 1688 409 2113 409 
Q 2538 409 2786 701 
Q 3034 994 3034 1497 
Q 3034 2003 2786 2293 
Q 2538 2584 2113 2584 
z
M 3366 4563 
L 3366 3988 
Q 3128 4100 2886 4159 
Q 2644 4219 2406 4219 
Q 1781 4219 1451 3797 
Q 1122 3375 1075 2522 
Q 1259 2794 1537 2939 
Q 1816 3084 2150 3084 
Q 2853 3084 3261 2657 
Q 3669 2231 3669 1497 
Q 3669 778 3244 343 
Q 2819 -91 2113 -91 
Q 1303 -91 875 529 
Q 447 1150 447 2328 
Q 447 3434 972 4092 
Q 1497 4750 2381 4750 
Q 2619 4750 2861 4703 
Q 3103 4656 3366 4563 
z
" transform="scale(0.015625)"/>
       </defs>
       <use xlink:href="#DejaVuSans-30"/>
       <use xlink:href="#DejaVuSans-2e" x="63.623047"/>
       <use xlink:href="#DejaVuSans-36" x="95.410156"/>
      </g>
     </g>
    </g>
    <g id="ytick_11">
     <g id="line2d_22">
      <g>
       <use xlink:href="#mde3333cffa" x="1036.8" y="208.432164" style="fill: #ff0000; stroke: #ff0000; stroke-width: 0.8"/>
      </g>
     </g>
     <g id="text_23">
      <!-- 0.7 -->
      <g style="fill: #ff0000" transform="translate(1043.8 212.231383) scale(0.1 -0.1)">
       <defs>
        <path id="DejaVuSans-37" d="M 525 4666 
L 3525 4666 
L 3525 4397 
L 1831 0 
L 1172 0 
L 2766 4134 
L 525 4134 
L 525 4666 
z
" transform="scale(0.015625)"/>
       </defs>
       <use xlink:href="#DejaVuSans-30"/>
       <use xlink:href="#DejaVuSans-2e" x="63.623047"/>
       <use xlink:href="#DejaVuSans-37" x="95.410156"/>
      </g>
     </g>
    </g>
    <g id="ytick_12">
     <g id="line2d_23">
      <g>
       <use xlink:href="#mde3333cffa" x="1036.8" y="157.112372" style="fill: #ff0000; stroke: #ff0000; stroke-width: 0.8"/>
      </g>
     </g>
     <g id="text_24">
      <!-- 0.8 -->
      <g style="fill: #ff0000" transform="translate(1043.8 160.91159) scale(0.1 -0.1)">
       <defs>
        <path id="DejaVuSans-38" d="M 2034 2216 
Q 1584 2216 1326 1975 
Q 1069 1734 1069 1313 
Q 1069 891 1326 650 
Q 1584 409 2034 409 
Q 2484 409 2743 651 
Q 3003 894 3003 1313 
Q 3003 1734 2745 1975 
Q 2488 2216 2034 2216 
z
M 1403 2484 
Q 997 2584 770 2862 
Q 544 3141 544 3541 
Q 544 4100 942 4425 
Q 1341 4750 2034 4750 
Q 2731 4750 3128 4425 
Q 3525 4100 3525 3541 
Q 3525 3141 3298 2862 
Q 3072 2584 2669 2484 
Q 3125 2378 3379 2068 
Q 3634 1759 3634 1313 
Q 3634 634 3220 271 
Q 2806 -91 2034 -91 
Q 1263 -91 848 271 
Q 434 634 434 1313 
Q 434 1759 690 2068 
Q 947 2378 1403 2484 
z
M 1172 3481 
Q 1172 3119 1398 2916 
Q 1625 2713 2034 2713 
Q 2441 2713 2670 2916 
Q 2900 3119 2900 3481 
Q 2900 3844 2670 4047 
Q 2441 4250 2034 4250 
Q 1625 4250 1398 4047 
Q 1172 3844 1172 3481 
z
" transform="scale(0.015625)"/>
       </defs>
       <use xlink:href="#DejaVuSans-30"/>
       <use xlink:href="#DejaVuSans-2e" x="63.623047"/>
       <use xlink:href="#DejaVuSans-38" x="95.410156"/>
      </g>
     </g>
    </g>
    <g id="ytick_13">
     <g id="line2d_24">
      <g>
       <use xlink:href="#mde3333cffa" x="1036.8" y="105.79258" style="fill: #ff0000; stroke: #ff0000; stroke-width: 0.8"/>
      </g>
     </g>
     <g id="text_25">
      <!-- 0.9 -->
      <g style="fill: #ff0000" transform="translate(1043.8 109.591798) scale(0.1 -0.1)">
       <use xlink:href="#DejaVuSans-30"/>
       <use xlink:href="#DejaVuSans-2e" x="63.623047"/>
       <use xlink:href="#DejaVuSans-39" x="95.410156"/>
      </g>
     </g>
    </g>
    <g id="text_26">
     <!-- Indicator -->
     <g style="fill: #ff0000" transform="translate(1071.301563 312.975312) rotate(-90) scale(0.1 -0.1)">
      <defs>
       <path id="DejaVuSans-49" d="M 628 4666 
L 1259 4666 
L 1259 0 
L 628 0 
L 628 4666 
z
" transform="scale(0.015625)"/>
       <path id="DejaVuSans-6e" d="M 3513 2113 
L 3513 0 
L 2938 0 
L 2938 2094 
Q 2938 2591 2744 2837 
Q 2550 3084 2163 3084 
Q 1697 3084 1428 2787 
Q 1159 2491 1159 1978 
L 1159 0 
L 581 0 
L 581 3500 
L 1159 3500 
L 1159 2956 
Q 1366 3272 1645 3428 
Q 1925 3584 2291 3584 
Q 2894 3584 3203 3211 
Q 3513 2838 3513 2113 
z
" transform="scale(0.015625)"/>
       <path id="DejaVuSans-64" d="M 2906 2969 
L 2906 4863 
L 3481 4863 
L 3481 0 
L 2906 0 
L 2906 525 
Q 2725 213 2448 61 
Q 2172 -91 1784 -91 
Q 1150 -91 751 415 
Q 353 922 353 1747 
Q 353 2572 751 3078 
Q 1150 3584 1784 3584 
Q 2172 3584 2448 3432 
Q 2725 3281 2906 2969 
z
M 947 1747 
Q 947 1113 1208 752 
Q 1469 391 1925 391 
Q 2381 391 2643 752 
Q 2906 1113 2906 1747 
Q 2906 2381 2643 2742 
Q 2381 3103 1925 3103 
Q 1469 3103 1208 2742 
Q 947 2381 947 1747 
z
" transform="scale(0.015625)"/>
       <path id="DejaVuSans-6f" d="M 1959 3097 
Q 1497 3097 1228 2736 
Q 959 2375 959 1747 
Q 959 1119 1226 758 
Q 1494 397 1959 397 
Q 2419 397 2687 759 
Q 2956 1122 2956 1747 
Q 2956 2369 2687 2733 
Q 2419 3097 1959 3097 
z
M 1959 3584 
Q 2709 3584 3137 3096 
Q 3566 2609 3566 1747 
Q 3566 888 3137 398 
Q 2709 -91 1959 -91 
Q 1206 -91 779 398 
Q 353 888 353 1747 
Q 353 2609 779 3096 
Q 1206 3584 1959 3584 
z
" transform="scale(0.015625)"/>
      </defs>
      <use xlink:href="#DejaVuSans-49"/>
      <use xlink:href="#DejaVuSans-6e" x="29.492188"/>
      <use xlink:href="#DejaVuSans-64" x="92.871094"/>
      <use xlink:href="#DejaVuSans-69" x="156.347656"/>
      <use xlink:href="#DejaVuSans-63" x="184.130859"/>
      <use xlink:href="#DejaVuSans-61" x="239.111328"/>
      <use xlink:href="#DejaVuSans-74" x="300.390625"/>
      <use xlink:href="#DejaVuSans-6f" x="339.599609"/>
      <use xlink:href="#DejaVuSans-72" x="400.78125"/>
     </g>
    </g>
   </g>
   <g id="line2d_25">
    <path d="M 184.581818 106.059316 
L 185.322362 107.630417 
L 186.062906 108.646848 
L 187.543995 109.00413 
L 191.246715 109.575378 
L 192.727804 110.378754 
L 194.949436 110.24119 
L 196.430524 110.956678 
L 197.171068 111.929509 
L 200.133245 112.74335 
L 202.354877 116.128564 
L 203.095421 119.160217 
L 205.317054 122.275429 
L 206.798142 126.797464 
L 207.538686 130.660447 
L 208.27923 136.20122 
L 210.500863 140.067887 
L 211.981951 148.460814 
L 212.722495 151.312434 
L 213.463039 155.014507 
L 215.684672 157.691586 
L 217.16576 162.483145 
L 217.906304 164.167863 
L 218.646848 167.437096 
L 220.86848 170.558138 
L 221.609025 169.829868 
L 222.349569 171.235921 
L 223.090113 174.859343 
L 223.830657 179.226052 
L 226.052289 178.069459 
L 226.792833 176.521413 
L 227.533378 166.57719 
L 228.273922 162.585237 
L 229.014466 161.098927 
L 231.236098 159.350375 
L 231.976642 156.413861 
L 232.717186 152.232299 
L 234.198275 146.960805 
L 236.419907 145.957235 
L 237.160451 144.532609 
L 237.900995 144.297612 
L 238.641539 144.190177 
L 239.382084 143.869883 
L 242.34426 143.490694 
L 243.084804 144.240694 
L 243.825348 143.901152 
L 244.565893 145.364679 
L 246.787525 145.963875 
L 247.528069 146.344492 
L 248.268613 146.123631 
L 249.009157 146.919836 
L 249.749701 148.283137 
L 251.971334 149.892265 
L 253.452422 151.88666 
L 254.192966 152.99758 
L 254.93351 151.181757 
L 257.155143 150.272162 
L 257.895687 152.589101 
L 258.636231 157.258126 
L 259.376775 169.267336 
L 260.117319 179.167596 
L 262.338952 183.826169 
L 263.079496 190.079202 
L 263.82004 200.849394 
L 265.301128 233.448472 
L 268.263305 246.266975 
L 269.003849 254.611258 
L 269.744393 253.985686 
L 270.484937 258.667486 
L 272.706569 260.984959 
L 273.447113 259.517095 
L 274.187658 266.022045 
L 274.928202 268.020485 
L 275.668746 266.275882 
L 277.890378 242.587081 
L 278.630922 231.455987 
L 279.371466 228.822543 
L 280.112011 229.442729 
L 280.852555 226.083617 
L 283.074187 220.488299 
L 283.814731 212.573497 
L 284.555275 209.379488 
L 285.29582 210.477716 
L 286.036364 209.282679 
L 288.257996 212.346058 
L 288.99854 211.968539 
L 289.739084 208.752591 
L 290.479628 206.485267 
L 291.220173 206.06829 
L 293.441805 203.574289 
L 294.182349 201.320792 
L 294.922893 200.999006 
L 295.663437 201.514634 
L 296.403981 201.579377 
L 298.625614 199.351191 
L 299.366158 196.358023 
L 300.106702 186.544471 
L 300.847246 182.237109 
L 301.58779 178.673371 
L 303.809423 177.275357 
L 304.549967 177.134874 
L 305.290511 176.493706 
L 306.031055 174.022753 
L 306.771599 176.813256 
L 308.993232 186.46059 
L 309.733776 192.191472 
L 310.47432 195.626918 
L 311.214864 198.193968 
L 311.955408 199.832695 
L 314.917585 198.666693 
L 315.658129 201.622588 
L 316.398673 200.572448 
L 317.139217 194.018227 
L 319.360849 191.895523 
L 320.101393 191.895523 
L 320.841938 191.637788 
L 321.582482 190.330072 
L 322.323026 184.323553 
L 324.544658 170.852688 
L 325.285202 162.310152 
L 326.025747 158.359901 
L 326.766291 156.150939 
L 327.506835 154.308186 
L 329.728467 151.645034 
L 330.469011 146.485766 
L 331.209555 143.484513 
L 331.9501 142.527824 
L 332.690644 142.872028 
L 334.912276 140.302961 
L 336.393364 136.132184 
L 337.133908 134.806581 
L 337.874453 134.83962 
L 340.096085 133.181266 
L 340.836629 131.589401 
L 341.577173 130.689157 
L 342.317717 130.383042 
L 345.279894 130.468426 
L 346.760982 132.540267 
L 347.501526 134.245729 
L 348.24207 136.915347 
L 350.463703 139.073902 
L 351.204247 141.012747 
L 351.944791 141.708851 
L 352.685335 142.999733 
L 353.425879 145.890896 
L 355.647512 152.652886 
L 356.388056 159.941029 
L 357.1286 165.876784 
L 357.869144 169.541756 
L 358.609688 171.087201 
L 360.862177 173.032526 
L 361.602721 180.649522 
L 362.343265 186.746329 
L 363.824353 207.256363 
L 366.045985 224.274785 
L 367.527074 254.376321 
L 368.267618 262.219067 
L 369.008162 265.810804 
L 371.229794 269.351049 
L 371.970338 271.386774 
L 372.710883 271.648222 
L 374.191971 227.961371 
L 376.413603 209.743702 
L 377.894691 166.242276 
L 379.37578 143.097353 
L 381.597412 136.603708 
L 382.337956 133.446102 
L 383.819044 129.836185 
L 384.559589 128.988778 
L 386.781221 127.465997 
L 387.521765 125.531786 
L 388.262309 124.444113 
L 389.743397 120.906809 
L 391.96503 119.152268 
L 392.705574 118.168541 
L 393.446118 117.953367 
L 394.186662 118.148207 
L 397.148839 118.143126 
L 397.889383 117.8277 
L 398.629927 117.712671 
L 399.370471 117.474404 
L 400.111015 117.447256 
L 402.332648 117.692724 
L 403.073192 117.94329 
L 404.55428 117.745123 
L 405.294824 117.700202 
L 407.516457 120.116994 
L 408.257001 121.404079 
L 408.997545 124.346238 
L 410.478633 131.610574 
L 413.44081 135.152905 
L 414.181354 136.784279 
L 414.921898 134.976877 
L 415.662442 131.006866 
L 417.884074 127.749134 
L 418.624618 123.494101 
L 419.365163 120.064679 
L 420.846251 115.799965 
L 423.067883 114.841651 
L 423.808427 114.755913 
L 424.548971 114.927718 
L 425.289516 114.201107 
L 426.03006 113.239766 
L 428.251692 112.258026 
L 428.992236 111.533876 
L 429.73278 111.080499 
L 430.473324 109.828655 
L 431.213869 108.14903 
L 433.435501 106.439972 
L 434.176045 105.144394 
L 436.397678 102.117622 
L 439.359854 100.983218 
L 440.840942 98.589087 
L 441.581486 97.6706 
L 443.803119 96.812919 
L 444.543663 95.658044 
L 446.024751 94.551384 
L 446.765295 94.091058 
L 448.986928 93.561718 
L 449.727472 93.208348 
L 450.468016 93.122505 
L 451.20856 93.237745 
L 451.949104 93.220366 
L 454.139881 92.948415 
L 455.620969 92.325856 
L 456.361513 92.103094 
L 459.323689 92.113592 
L 460.064234 92.108651 
L 461.545322 91.873508 
L 464.507498 92.547112 
L 465.248042 93.161037 
L 465.988587 93.591159 
L 466.729131 93.849081 
L 467.469675 94.452931 
L 469.691307 95.135584 
L 471.172395 96.462237 
L 471.91294 97.207233 
L 472.653484 97.776622 
L 474.875116 98.30627 
L 477.096749 100.898191 
L 480.058925 101.999085 
L 482.280557 107.288994 
L 483.021102 107.602259 
L 485.242734 108.194071 
L 486.723822 107.635114 
L 487.464366 107.122005 
L 488.20491 105.977177 
L 490.426543 104.796686 
L 491.167087 104.039532 
L 491.907631 103.720659 
L 493.388719 101.771233 
L 495.610352 100.24633 
L 497.09144 97.633924 
L 497.831984 96.559604 
L 498.572528 95.880935 
L 500.794161 95.267014 
L 501.534705 94.699926 
L 502.275249 93.983644 
L 503.756337 92.955626 
L 505.977969 92.48354 
L 508.199602 91.570817 
L 508.940146 91.392581 
L 511.902322 91.158874 
L 513.383411 90.665357 
L 514.123955 90.54861 
L 517.086131 90.891199 
L 517.826676 91.442513 
L 518.56722 91.770667 
L 519.307764 91.906335 
L 523.010484 91.825017 
L 523.751029 91.376759 
L 527.453749 91.380859 
L 529.675382 92.293278 
L 532.637558 92.630827 
L 533.378102 92.586671 
L 534.118646 92.420886 
L 534.85919 92.692491 
L 537.821367 92.809488 
L 539.302455 93.144416 
L 540.042999 93.467634 
L 543.005176 93.632341 
L 544.486264 93.542579 
L 545.226808 93.642654 
L 548.188985 93.622721 
L 553.372794 94.241478 
L 555.594426 96.513758 
L 557.816058 97.378651 
L 559.297147 98.797014 
L 560.778235 100.346064 
L 562.999867 100.983217 
L 563.740411 101.558719 
L 565.962044 104.734643 
L 568.183676 105.666249 
L 570.405309 108.923816 
L 571.145853 109.609889 
L 573.367485 110.023318 
L 574.108029 110.591345 
L 575.589117 112.213019 
L 576.329662 111.954601 
L 578.551294 111.779567 
L 580.032382 111.082352 
L 581.51347 110.194944 
L 584.475647 109.573654 
L 585.956735 109.518561 
L 586.697279 109.439623 
L 588.918912 109.00916 
L 589.659456 108.279607 
L 590.4 107.922158 
L 591.881088 106.515238 
L 594.102721 105.845342 
L 596.324353 103.223992 
L 597.064897 102.057092 
L 599.28653 100.637032 
L 600.027074 99.333557 
L 602.248706 96.230032 
L 604.470338 95.472549 
L 606.691971 94.175703 
L 607.432515 93.507783 
L 609.654147 93.04575 
L 611.87578 91.732749 
L 612.616324 91.349844 
L 615.5785 90.806134 
L 617.800133 89.759422 
L 621.502853 89.336141 
L 622.983942 89.307539 
L 625.946118 89.369339 
L 627.427206 89.581591 
L 628.16775 89.859448 
L 630.420239 90.279746 
L 631.160783 90.666469 
L 631.901327 90.895722 
L 633.382415 91.917295 
L 635.604048 92.310811 
L 637.085136 92.884327 
L 638.566224 93.886102 
L 640.787857 94.609301 
L 642.268945 96.61396 
L 643.750033 97.602683 
L 645.971666 98.502123 
L 647.452754 100.440033 
L 648.933842 102.92141 
L 651.155474 104.046018 
L 651.896019 105.070222 
L 653.377107 106.607134 
L 654.117651 107.296688 
L 656.339283 107.412464 
L 657.079827 107.934871 
L 657.820372 108.691371 
L 659.30146 109.656571 
L 661.523092 110.028605 
L 662.263636 110.540703 
L 663.00418 111.552821 
L 663.744725 112.34832 
L 664.485269 112.877985 
L 667.447445 113.054062 
L 668.187989 113.379569 
L 669.669078 114.552768 
L 672.631254 114.777866 
L 673.371798 115.022994 
L 674.852887 115.036321 
L 677.815063 114.661758 
L 678.555607 114.907828 
L 679.296151 115.594113 
L 680.036695 116.107598 
L 682.998872 116.219642 
L 683.739416 115.922062 
L 684.47996 115.97525 
L 685.220504 116.518744 
L 687.442137 117.209205 
L 688.182681 117.976059 
L 688.923225 118.941242 
L 689.663769 120.646357 
L 690.404313 121.8109 
L 692.625946 122.167472 
L 693.36649 123.215125 
L 694.107034 124.739945 
L 695.588122 127.102597 
L 697.809754 127.334617 
L 698.550299 128.566858 
L 700.771931 130.048052 
L 702.993563 130.492867 
L 703.734107 131.640244 
L 704.474652 133.690576 
L 705.215196 134.538879 
L 705.95574 135.701724 
L 711.139549 134.185589 
L 713.361181 133.221511 
L 714.101725 132.188162 
L 714.842269 131.665697 
L 715.582814 131.985777 
L 716.323358 132.870082 
L 719.285534 133.522849 
L 720.026078 133.563561 
L 720.766622 132.00724 
L 721.507167 129.51148 
L 723.697943 126.523977 
L 724.438487 125.216918 
L 725.179031 123.041123 
L 725.919575 121.502982 
L 726.660119 119.601502 
L 729.622296 117.590755 
L 730.36284 116.713937 
L 731.103384 116.012323 
L 731.843928 115.774705 
L 735.546649 115.79537 
L 736.287193 115.614613 
L 737.027737 115.952108 
L 739.24937 116.294641 
L 740.730458 118.018979 
L 741.471002 118.721634 
L 744.433179 119.434744 
L 745.914267 120.380255 
L 747.395355 121.902534 
L 749.616987 122.362731 
L 750.357532 122.905231 
L 751.098076 123.887871 
L 751.83862 124.516121 
L 752.579164 126.502784 
L 754.800796 129.448558 
L 755.54134 132.671752 
L 756.281885 134.901073 
L 757.762973 143.75755 
L 759.984605 150.18989 
L 760.725149 155.278451 
L 761.465693 157.964896 
L 762.206238 159.99864 
L 762.946782 165.558071 
L 765.168414 171.099573 
L 768.130591 185.529721 
L 771.092767 189.17452 
L 771.833311 193.050739 
L 772.573855 199.03914 
L 773.314399 202.426941 
L 776.276576 207.727893 
L 777.01712 205.539163 
L 777.757664 202.536399 
L 778.498208 200.636243 
L 781.460385 199.560097 
L 782.200929 197.279288 
L 782.941473 198.935458 
L 783.682017 204.493114 
L 785.90365 209.258504 
L 786.644194 216.709861 
L 787.384738 230.727422 
L 788.125282 248.599602 
L 788.865826 261.148937 
L 791.087459 264.339494 
L 791.828003 270.60454 
L 793.309091 306.456249 
L 794.049635 337.631819 
L 797.011812 352.425637 
L 798.4929 385.409031 
L 799.233444 396.493093 
L 801.455076 404.125982 
L 803.676709 429.886966 
L 804.417253 435.674418 
L 806.638885 439.681063 
L 808.119973 443.621687 
L 808.860518 446.111463 
L 809.601062 450.938519 
L 811.822694 456.711103 
L 813.303782 465.291911 
L 814.784871 472.158438 
L 817.006503 473.736032 
L 817.747047 474.649179 
L 818.487591 475.315625 
L 819.228135 475.2952 
L 819.968679 475.525998 
L 822.930856 475.329235 
L 823.6714 476.546248 
L 824.411944 476.677441 
L 825.152488 477.035691 
L 827.374121 477.594912 
L 828.114665 477.345346 
L 828.855209 475.896179 
L 829.595753 474.02654 
L 830.336297 470.942502 
L 832.55793 469.109612 
L 833.298474 467.680799 
L 834.779562 463.593854 
L 835.520106 462.369984 
L 837.741739 461.177499 
L 840.703915 449.502584 
L 842.925547 446.792697 
L 843.666092 443.823194 
L 844.406636 440.192245 
L 845.14718 434.350891 
L 845.887724 430.183247 
L 848.109356 427.151481 
L 848.8499 424.874166 
L 849.590445 424.631602 
L 851.071533 426.486982 
L 854.033709 426.29015 
L 854.774253 425.115784 
L 855.514798 422.635554 
L 856.255342 423.816161 
L 858.476974 422.844278 
L 859.217518 421.581547 
L 859.958062 422.530934 
L 860.698607 429.026743 
L 861.439151 432.907237 
L 863.660783 438.117227 
L 864.401327 440.713758 
L 865.141871 441.99511 
L 866.62296 437.439709 
L 868.844592 433.989117 
L 869.585136 426.388645 
L 870.32568 422.823438 
L 871.066224 421.645281 
L 871.806768 422.426139 
L 874.028401 421.77255 
L 874.768945 415.90161 
L 875.509489 412.070249 
L 876.250033 405.660352 
L 876.990577 404.991091 
L 879.21221 399.366356 
L 880.693298 388.353219 
L 881.433842 378.754682 
L 882.174386 356.311286 
L 884.396019 338.092176 
L 885.136563 319.845872 
L 885.877107 296.918773 
L 887.358195 235.615736 
L 889.579827 216.070909 
L 890.320372 204.470557 
L 891.80146 178.21259 
L 892.542004 168.523995 
L 894.763636 162.259401 
L 895.50418 158.359898 
L 896.244725 156.793779 
L 896.985269 158.498602 
L 897.725813 160.676789 
L 899.978301 162.687572 
L 901.45939 171.634845 
L 902.199934 174.273535 
L 902.940478 178.91988 
L 905.16211 183.238504 
L 908.124287 221.19227 
L 910.345919 234.263758 
L 911.827007 259.638875 
L 913.308096 277.755377 
L 915.529728 308.913785 
L 917.010816 352.727538 
L 918.491904 405.152243 
L 920.713537 425.216173 
L 921.454081 438.643619 
L 923.675713 464.420057 
L 925.897346 471.574336 
L 926.63789 476.951344 
L 927.378434 480.612927 
L 928.118978 483.077671 
L 928.859522 484.854603 
L 931.081155 486.03344 
L 931.821699 487.173702 
L 932.562243 487.70961 
L 933.302787 488.080095 
L 934.043331 489.102638 
L 937.005508 489.622874 
L 937.746052 490.623834 
L 939.22714 492.033158 
L 942.189317 492.48 
L 942.929861 492.384839 
L 943.670405 492.097425 
L 946.632581 492.004996 
L 947.373125 491.883985 
L 948.854214 491.984863 
L 949.594758 492.097425 
L 952.556934 491.725899 
L 953.297478 490.834225 
L 954.038023 490.39063 
L 954.778567 490.198428 
L 957.000199 490.104001 
L 957.740743 490.322437 
L 959.221831 489.627244 
L 959.962376 489.102639 
L 962.184008 488.468797 
L 962.924552 488.089299 
L 963.665096 487.121487 
L 965.146184 485.84087 
L 967.367817 485.84087 
L 968.108361 486.131729 
L 969.589449 486.327374 
L 972.551626 485.356667 
L 973.29217 483.597857 
L 974.032714 482.963931 
L 975.513802 482.920496 
L 978.475979 481.775837 
L 979.216523 480.478545 
L 979.957067 479.419808 
L 980.697611 478.773091 
L 982.919244 477.96274 
L 983.659788 477.499135 
L 984.400332 477.499135 
L 985.140876 478.376557 
L 985.88142 479.006359 
L 988.103052 478.889926 
L 988.843597 478.101237 
L 989.584141 476.853768 
L 991.065229 475.124527 
L 993.256005 473.757365 
L 993.996549 473.58632 
L 994.737094 473.270618 
L 995.477638 473.234569 
L 996.218182 472.850224 
L 996.218182 472.850224 
" clip-path="url(#p50d1e6b5c5)" style="fill: none; stroke: #ff0000; stroke-width: 1.5; stroke-linecap: square"/>
   </g>
   <g id="patch_7">
    <path d="M 144 512.64 
L 144 69.12 
" style="fill: none; stroke: #000000; stroke-width: 0.8; stroke-linejoin: miter; stroke-linecap: square"/>
   </g>
   <g id="patch_8">
    <path d="M 1036.8 512.64 
L 1036.8 69.12 
" style="fill: none; stroke: #000000; stroke-width: 0.8; stroke-linejoin: miter; stroke-linecap: square"/>
   </g>
   <g id="patch_9">
    <path d="M 144 512.64 
L 1036.8 512.64 
" style="fill: none; stroke: #000000; stroke-width: 0.8; stroke-linejoin: miter; stroke-linecap: square"/>
   </g>
   <g id="patch_10">
    <path d="M 144 69.12 
L 1036.8 69.12 
" style="fill: none; stroke: #000000; stroke-width: 0.8; stroke-linejoin: miter; stroke-linecap: square"/>
   </g>
   <g id="text_27">
    <!-- Price and Cumulative Probability Indicator - 3Y (Updated 2024-03-18 07:29:10) -->
    <g transform="translate(353.153437 63.12) scale(0.12 -0.12)">
     <defs>
      <path id="DejaVuSans-20" transform="scale(0.015625)"/>
      <path id="DejaVuSans-43" d="M 4122 4306 
L 4122 3641 
Q 3803 3938 3442 4084 
Q 3081 4231 2675 4231 
Q 1875 4231 1450 3742 
Q 1025 3253 1025 2328 
Q 1025 1406 1450 917 
Q 1875 428 2675 428 
Q 3081 428 3442 575 
Q 3803 722 4122 1019 
L 4122 359 
Q 3791 134 3420 21 
Q 3050 -91 2638 -91 
Q 1578 -91 968 557 
Q 359 1206 359 2328 
Q 359 3453 968 4101 
Q 1578 4750 2638 4750 
Q 3056 4750 3426 4639 
Q 3797 4528 4122 4306 
z
" transform="scale(0.015625)"/>
      <path id="DejaVuSans-75" d="M 544 1381 
L 544 3500 
L 1119 3500 
L 1119 1403 
Q 1119 906 1312 657 
Q 1506 409 1894 409 
Q 2359 409 2629 706 
Q 2900 1003 2900 1516 
L 2900 3500 
L 3475 3500 
L 3475 0 
L 2900 0 
L 2900 538 
Q 2691 219 2414 64 
Q 2138 -91 1772 -91 
Q 1169 -91 856 284 
Q 544 659 544 1381 
z
M 1991 3584 
L 1991 3584 
z
" transform="scale(0.015625)"/>
      <path id="DejaVuSans-6d" d="M 3328 2828 
Q 3544 3216 3844 3400 
Q 4144 3584 4550 3584 
Q 5097 3584 5394 3201 
Q 5691 2819 5691 2113 
L 5691 0 
L 5113 0 
L 5113 2094 
Q 5113 2597 4934 2840 
Q 4756 3084 4391 3084 
Q 3944 3084 3684 2787 
Q 3425 2491 3425 1978 
L 3425 0 
L 2847 0 
L 2847 2094 
Q 2847 2600 2669 2842 
Q 2491 3084 2119 3084 
Q 1678 3084 1418 2786 
Q 1159 2488 1159 1978 
L 1159 0 
L 581 0 
L 581 3500 
L 1159 3500 
L 1159 2956 
Q 1356 3278 1631 3431 
Q 1906 3584 2284 3584 
Q 2666 3584 2933 3390 
Q 3200 3197 3328 2828 
z
" transform="scale(0.015625)"/>
      <path id="DejaVuSans-6c" d="M 603 4863 
L 1178 4863 
L 1178 0 
L 603 0 
L 603 4863 
z
" transform="scale(0.015625)"/>
      <path id="DejaVuSans-76" d="M 191 3500 
L 800 3500 
L 1894 563 
L 2988 3500 
L 3597 3500 
L 2284 0 
L 1503 0 
L 191 3500 
z
" transform="scale(0.015625)"/>
      <path id="DejaVuSans-62" d="M 3116 1747 
Q 3116 2381 2855 2742 
Q 2594 3103 2138 3103 
Q 1681 3103 1420 2742 
Q 1159 2381 1159 1747 
Q 1159 1113 1420 752 
Q 1681 391 2138 391 
Q 2594 391 2855 752 
Q 3116 1113 3116 1747 
z
M 1159 2969 
Q 1341 3281 1617 3432 
Q 1894 3584 2278 3584 
Q 2916 3584 3314 3078 
Q 3713 2572 3713 1747 
Q 3713 922 3314 415 
Q 2916 -91 2278 -91 
Q 1894 -91 1617 61 
Q 1341 213 1159 525 
L 1159 0 
L 581 0 
L 581 4863 
L 1159 4863 
L 1159 2969 
z
" transform="scale(0.015625)"/>
      <path id="DejaVuSans-79" d="M 2059 -325 
Q 1816 -950 1584 -1140 
Q 1353 -1331 966 -1331 
L 506 -1331 
L 506 -850 
L 844 -850 
Q 1081 -850 1212 -737 
Q 1344 -625 1503 -206 
L 1606 56 
L 191 3500 
L 800 3500 
L 1894 763 
L 2988 3500 
L 3597 3500 
L 2059 -325 
z
" transform="scale(0.015625)"/>
      <path id="DejaVuSans-59" d="M -13 4666 
L 666 4666 
L 1959 2747 
L 3244 4666 
L 3922 4666 
L 2272 2222 
L 2272 0 
L 1638 0 
L 1638 2222 
L -13 4666 
z
" transform="scale(0.015625)"/>
      <path id="DejaVuSans-28" d="M 1984 4856 
Q 1566 4138 1362 3434 
Q 1159 2731 1159 2009 
Q 1159 1288 1364 580 
Q 1569 -128 1984 -844 
L 1484 -844 
Q 1016 -109 783 600 
Q 550 1309 550 2009 
Q 550 2706 781 3412 
Q 1013 4119 1484 4856 
L 1984 4856 
z
" transform="scale(0.015625)"/>
      <path id="DejaVuSans-55" d="M 556 4666 
L 1191 4666 
L 1191 1831 
Q 1191 1081 1462 751 
Q 1734 422 2344 422 
Q 2950 422 3222 751 
Q 3494 1081 3494 1831 
L 3494 4666 
L 4128 4666 
L 4128 1753 
Q 4128 841 3676 375 
Q 3225 -91 2344 -91 
Q 1459 -91 1007 375 
Q 556 841 556 1753 
L 556 4666 
z
" transform="scale(0.015625)"/>
      <path id="DejaVuSans-70" d="M 1159 525 
L 1159 -1331 
L 581 -1331 
L 581 3500 
L 1159 3500 
L 1159 2969 
Q 1341 3281 1617 3432 
Q 1894 3584 2278 3584 
Q 2916 3584 3314 3078 
Q 3713 2572 3713 1747 
Q 3713 922 3314 415 
Q 2916 -91 2278 -91 
Q 1894 -91 1617 61 
Q 1341 213 1159 525 
z
M 3116 1747 
Q 3116 2381 2855 2742 
Q 2594 3103 2138 3103 
Q 1681 3103 1420 2742 
Q 1159 2381 1159 1747 
Q 1159 1113 1420 752 
Q 1681 391 2138 391 
Q 2594 391 2855 752 
Q 3116 1113 3116 1747 
z
" transform="scale(0.015625)"/>
      <path id="DejaVuSans-3a" d="M 750 794 
L 1409 794 
L 1409 0 
L 750 0 
L 750 794 
z
M 750 3309 
L 1409 3309 
L 1409 2516 
L 750 2516 
L 750 3309 
z
" transform="scale(0.015625)"/>
      <path id="DejaVuSans-29" d="M 513 4856 
L 1013 4856 
Q 1481 4119 1714 3412 
Q 1947 2706 1947 2009 
Q 1947 1309 1714 600 
Q 1481 -109 1013 -844 
L 513 -844 
Q 928 -128 1133 580 
Q 1338 1288 1338 2009 
Q 1338 2731 1133 3434 
Q 928 4138 513 4856 
z
" transform="scale(0.015625)"/>
     </defs>
     <use xlink:href="#DejaVuSans-50"/>
     <use xlink:href="#DejaVuSans-72" x="58.552734"/>
     <use xlink:href="#DejaVuSans-69" x="99.666016"/>
     <use xlink:href="#DejaVuSans-63" x="127.449219"/>
     <use xlink:href="#DejaVuSans-65" x="182.429688"/>
     <use xlink:href="#DejaVuSans-20" x="243.953125"/>
     <use xlink:href="#DejaVuSans-61" x="275.740234"/>
     <use xlink:href="#DejaVuSans-6e" x="337.019531"/>
     <use xlink:href="#DejaVuSans-64" x="400.398438"/>
     <use xlink:href="#DejaVuSans-20" x="463.875"/>
     <use xlink:href="#DejaVuSans-43" x="495.662109"/>
     <use xlink:href="#DejaVuSans-75" x="565.486328"/>
     <use xlink:href="#DejaVuSans-6d" x="628.865234"/>
     <use xlink:href="#DejaVuSans-75" x="726.277344"/>
     <use xlink:href="#DejaVuSans-6c" x="789.65625"/>
     <use xlink:href="#DejaVuSans-61" x="817.439453"/>
     <use xlink:href="#DejaVuSans-74" x="878.71875"/>
     <use xlink:href="#DejaVuSans-69" x="917.927734"/>
     <use xlink:href="#DejaVuSans-76" x="945.710938"/>
     <use xlink:href="#DejaVuSans-65" x="1004.890625"/>
     <use xlink:href="#DejaVuSans-20" x="1066.414062"/>
     <use xlink:href="#DejaVuSans-50" x="1098.201172"/>
     <use xlink:href="#DejaVuSans-72" x="1156.753906"/>
     <use xlink:href="#DejaVuSans-6f" x="1195.617188"/>
     <use xlink:href="#DejaVuSans-62" x="1256.798828"/>
     <use xlink:href="#DejaVuSans-61" x="1320.275391"/>
     <use xlink:href="#DejaVuSans-62" x="1381.554688"/>
     <use xlink:href="#DejaVuSans-69" x="1445.03125"/>
     <use xlink:href="#DejaVuSans-6c" x="1472.814453"/>
     <use xlink:href="#DejaVuSans-69" x="1500.597656"/>
     <use xlink:href="#DejaVuSans-74" x="1528.380859"/>
     <use xlink:href="#DejaVuSans-79" x="1567.589844"/>
     <use xlink:href="#DejaVuSans-20" x="1626.769531"/>
     <use xlink:href="#DejaVuSans-49" x="1658.556641"/>
     <use xlink:href="#DejaVuSans-6e" x="1688.048828"/>
     <use xlink:href="#DejaVuSans-64" x="1751.427734"/>
     <use xlink:href="#DejaVuSans-69" x="1814.904297"/>
     <use xlink:href="#DejaVuSans-63" x="1842.6875"/>
     <use xlink:href="#DejaVuSans-61" x="1897.667969"/>
     <use xlink:href="#DejaVuSans-74" x="1958.947266"/>
     <use xlink:href="#DejaVuSans-6f" x="1998.15625"/>
     <use xlink:href="#DejaVuSans-72" x="2059.337891"/>
     <use xlink:href="#DejaVuSans-20" x="2100.451172"/>
     <use xlink:href="#DejaVuSans-2d" x="2132.238281"/>
     <use xlink:href="#DejaVuSans-20" x="2168.322266"/>
     <use xlink:href="#DejaVuSans-33" x="2200.109375"/>
     <use xlink:href="#DejaVuSans-59" x="2263.732422"/>
     <use xlink:href="#DejaVuSans-20" x="2324.816406"/>
     <use xlink:href="#DejaVuSans-28" x="2356.603516"/>
     <use xlink:href="#DejaVuSans-55" x="2395.617188"/>
     <use xlink:href="#DejaVuSans-70" x="2468.810547"/>
     <use xlink:href="#DejaVuSans-64" x="2532.287109"/>
     <use xlink:href="#DejaVuSans-61" x="2595.763672"/>
     <use xlink:href="#DejaVuSans-74" x="2657.042969"/>
     <use xlink:href="#DejaVuSans-65" x="2696.251953"/>
     <use xlink:href="#DejaVuSans-64" x="2757.775391"/>
     <use xlink:href="#DejaVuSans-20" x="2821.251953"/>
     <use xlink:href="#DejaVuSans-32" x="2853.039062"/>
     <use xlink:href="#DejaVuSans-30" x="2916.662109"/>
     <use xlink:href="#DejaVuSans-32" x="2980.285156"/>
     <use xlink:href="#DejaVuSans-34" x="3043.908203"/>
     <use xlink:href="#DejaVuSans-2d" x="3107.53125"/>
     <use xlink:href="#DejaVuSans-30" x="3143.615234"/>
     <use xlink:href="#DejaVuSans-33" x="3207.238281"/>
     <use xlink:href="#DejaVuSans-2d" x="3270.861328"/>
     <use xlink:href="#DejaVuSans-31" x="3306.945312"/>
     <use xlink:href="#DejaVuSans-38" x="3370.568359"/>
     <use xlink:href="#DejaVuSans-20" x="3434.191406"/>
     <use xlink:href="#DejaVuSans-30" x="3465.978516"/>
     <use xlink:href="#DejaVuSans-37" x="3529.601562"/>
     <use xlink:href="#DejaVuSans-3a" x="3593.224609"/>
     <use xlink:href="#DejaVuSans-32" x="3626.916016"/>
     <use xlink:href="#DejaVuSans-39" x="3690.539062"/>
     <use xlink:href="#DejaVuSans-3a" x="3754.162109"/>
     <use xlink:href="#DejaVuSans-31" x="3787.853516"/>
     <use xlink:href="#DejaVuSans-30" x="3851.476562"/>
     <use xlink:href="#DejaVuSans-29" x="3915.099609"/>
    </g>
   </g>
  </g>
  <g id="legend_1">
   <g id="patch_11">
    <path d="M 7 37.35625 
L 83.190625 37.35625 
Q 85.190625 37.35625 85.190625 35.35625 
L 85.190625 7 
Q 85.190625 5 83.190625 5 
L 7 5 
Q 5 5 5 7 
L 5 35.35625 
Q 5 37.35625 7 37.35625 
z
" style="fill: #ffffff; opacity: 0.8; stroke: #cccccc; stroke-linejoin: miter"/>
   </g>
   <g id="line2d_26">
    <path d="M 9 13.098438 
L 19 13.098438 
L 29 13.098438 
" style="fill: none; stroke: #0000ff; stroke-width: 1.5; stroke-linecap: square"/>
   </g>
   <g id="text_28">
    <!-- Price -->
    <g transform="translate(37 16.598438) scale(0.1 -0.1)">
     <use xlink:href="#DejaVuSans-50"/>
     <use xlink:href="#DejaVuSans-72" x="58.552734"/>
     <use xlink:href="#DejaVuSans-69" x="99.666016"/>
     <use xlink:href="#DejaVuSans-63" x="127.449219"/>
     <use xlink:href="#DejaVuSans-65" x="182.429688"/>
    </g>
   </g>
   <g id="line2d_27">
    <path d="M 9 27.776563 
L 19 27.776563 
L 29 27.776563 
" style="fill: none; stroke: #ff0000; stroke-width: 1.5; stroke-linecap: square"/>
   </g>
   <g id="text_29">
    <!-- Indicator -->
    <g transform="translate(37 31.276563) scale(0.1 -0.1)">
     <use xlink:href="#DejaVuSans-49"/>
     <use xlink:href="#DejaVuSans-6e" x="29.492188"/>
     <use xlink:href="#DejaVuSans-64" x="92.871094"/>
     <use xlink:href="#DejaVuSans-69" x="156.347656"/>
     <use xlink:href="#DejaVuSans-63" x="184.130859"/>
     <use xlink:href="#DejaVuSans-61" x="239.111328"/>
     <use xlink:href="#DejaVuSans-74" x="300.390625"/>
     <use xlink:href="#DejaVuSans-6f" x="339.599609"/>
     <use xlink:href="#DejaVuSans-72" x="400.78125"/>
    </g>
   </g>
  </g>
 </g>
 <defs>
  <clipPath id="p50d1e6b5c5">
   <rect x="144" y="69.12" width="892.8" height="443.52"/>
  </clipPath>
 </defs>
</svg>
