<?xml version="1.0" encoding="utf-8" standalone="no"?>
<!DOCTYPE svg PUBLIC "-//W3C//DTD SVG 1.1//EN"
  "http://www.w3.org/Graphics/SVG/1.1/DTD/svg11.dtd">
<svg xmlns:xlink="http://www.w3.org/1999/xlink" width="1296pt" height="288pt" viewBox="0 0 1296 288" xmlns="http://www.w3.org/2000/svg" version="1.1">
 <metadata>
  <rdf:RDF xmlns:dc="http://purl.org/dc/elements/1.1/" xmlns:cc="http://creativecommons.org/ns#" xmlns:rdf="http://www.w3.org/1999/02/22-rdf-syntax-ns#">
   <cc:Work>
    <dc:type rdf:resource="http://purl.org/dc/dcmitype/StillImage"/>
    <dc:date>2024-03-19T05:11:51.385216</dc:date>
    <dc:format>image/svg+xml</dc:format>
    <dc:creator>
     <cc:Agent>
      <dc:title>Matplotlib v3.8.0, https://matplotlib.org/</dc:title>
     </cc:Agent>
    </dc:creator>
   </cc:Work>
  </rdf:RDF>
 </metadata>
 <defs>
  <style type="text/css">*{stroke-linejoin: round; stroke-linecap: butt}</style>
 </defs>
 <g id="figure_1">
  <g id="patch_1">
   <path d="M 0 288 
L 1296 288 
L 1296 0 
L 0 0 
z
" style="fill: #ffffff"/>
  </g>
  <g id="axes_1">
   <g id="patch_2">
    <path d="M 162 256.32 
L 1166.4 256.32 
L 1166.4 34.56 
L 162 34.56 
z
" style="fill: #ffffff"/>
   </g>
   <g id="matplotlib.axis_1">
    <g id="xtick_1">
     <g id="line2d_1">
      <defs>
       <path id="m48c3359f82" d="M 0 0 
L 0 3.5 
" style="stroke: #000000; stroke-width: 0.8"/>
      </defs>
      <g>
       <use xlink:href="#m48c3359f82" x="244.31148" y="256.32" style="stroke: #000000; stroke-width: 0.8"/>
      </g>
     </g>
     <g id="text_1">
      <!-- 2021-05 -->
      <g transform="translate(223.420074 270.918437) scale(0.1 -0.1)">
       <defs>
        <path id="DejaVuSans-32" d="M 1228 531 
L 3431 531 
L 3431 0 
L 469 0 
L 469 531 
Q 828 903 1448 1529 
Q 2069 2156 2228 2338 
Q 2531 2678 2651 2914 
Q 2772 3150 2772 3378 
Q 2772 3750 2511 3984 
Q 2250 4219 1831 4219 
Q 1534 4219 1204 4116 
Q 875 4013 500 3803 
L 500 4441 
Q 881 4594 1212 4672 
Q 1544 4750 1819 4750 
Q 2544 4750 2975 4387 
Q 3406 4025 3406 3419 
Q 3406 3131 3298 2873 
Q 3191 2616 2906 2266 
Q 2828 2175 2409 1742 
Q 1991 1309 1228 531 
z
" transform="scale(0.015625)"/>
        <path id="DejaVuSans-30" d="M 2034 4250 
Q 1547 4250 1301 3770 
Q 1056 3291 1056 2328 
Q 1056 1369 1301 889 
Q 1547 409 2034 409 
Q 2525 409 2770 889 
Q 3016 1369 3016 2328 
Q 3016 3291 2770 3770 
Q 2525 4250 2034 4250 
z
M 2034 4750 
Q 2819 4750 3233 4129 
Q 3647 3509 3647 2328 
Q 3647 1150 3233 529 
Q 2819 -91 2034 -91 
Q 1250 -91 836 529 
Q 422 1150 422 2328 
Q 422 3509 836 4129 
Q 1250 4750 2034 4750 
z
" transform="scale(0.015625)"/>
        <path id="DejaVuSans-31" d="M 794 531 
L 1825 531 
L 1825 4091 
L 703 3866 
L 703 4441 
L 1819 4666 
L 2450 4666 
L 2450 531 
L 3481 531 
L 3481 0 
L 794 0 
L 794 531 
z
" transform="scale(0.015625)"/>
        <path id="DejaVuSans-2d" d="M 313 2009 
L 1997 2009 
L 1997 1497 
L 313 1497 
L 313 2009 
z
" transform="scale(0.015625)"/>
        <path id="DejaVuSans-35" d="M 691 4666 
L 3169 4666 
L 3169 4134 
L 1269 4134 
L 1269 2991 
Q 1406 3038 1543 3061 
Q 1681 3084 1819 3084 
Q 2600 3084 3056 2656 
Q 3513 2228 3513 1497 
Q 3513 744 3044 326 
Q 2575 -91 1722 -91 
Q 1428 -91 1123 -41 
Q 819 9 494 109 
L 494 744 
Q 775 591 1075 516 
Q 1375 441 1709 441 
Q 2250 441 2565 725 
Q 2881 1009 2881 1497 
Q 2881 1984 2565 2268 
Q 2250 2553 1709 2553 
Q 1456 2553 1204 2497 
Q 953 2441 691 2322 
L 691 4666 
z
" transform="scale(0.015625)"/>
       </defs>
       <use xlink:href="#DejaVuSans-32"/>
       <use xlink:href="#DejaVuSans-30" x="63.623047"/>
       <use xlink:href="#DejaVuSans-32" x="127.246094"/>
       <use xlink:href="#DejaVuSans-31" x="190.869141"/>
       <use xlink:href="#DejaVuSans-2d" x="254.492188"/>
       <use xlink:href="#DejaVuSans-30" x="290.576172"/>
       <use xlink:href="#DejaVuSans-35" x="354.199219"/>
      </g>
     </g>
    </g>
    <g id="xtick_2">
     <g id="line2d_2">
      <g>
       <use xlink:href="#m48c3359f82" x="346.784273" y="256.32" style="stroke: #000000; stroke-width: 0.8"/>
      </g>
     </g>
     <g id="text_2">
      <!-- 2021-09 -->
      <g transform="translate(325.892867 270.918437) scale(0.1 -0.1)">
       <defs>
        <path id="DejaVuSans-39" d="M 703 97 
L 703 672 
Q 941 559 1184 500 
Q 1428 441 1663 441 
Q 2288 441 2617 861 
Q 2947 1281 2994 2138 
Q 2813 1869 2534 1725 
Q 2256 1581 1919 1581 
Q 1219 1581 811 2004 
Q 403 2428 403 3163 
Q 403 3881 828 4315 
Q 1253 4750 1959 4750 
Q 2769 4750 3195 4129 
Q 3622 3509 3622 2328 
Q 3622 1225 3098 567 
Q 2575 -91 1691 -91 
Q 1453 -91 1209 -44 
Q 966 3 703 97 
z
M 1959 2075 
Q 2384 2075 2632 2365 
Q 2881 2656 2881 3163 
Q 2881 3666 2632 3958 
Q 2384 4250 1959 4250 
Q 1534 4250 1286 3958 
Q 1038 3666 1038 3163 
Q 1038 2656 1286 2365 
Q 1534 2075 1959 2075 
z
" transform="scale(0.015625)"/>
       </defs>
       <use xlink:href="#DejaVuSans-32"/>
       <use xlink:href="#DejaVuSans-30" x="63.623047"/>
       <use xlink:href="#DejaVuSans-32" x="127.246094"/>
       <use xlink:href="#DejaVuSans-31" x="190.869141"/>
       <use xlink:href="#DejaVuSans-2d" x="254.492188"/>
       <use xlink:href="#DejaVuSans-30" x="290.576172"/>
       <use xlink:href="#DejaVuSans-39" x="354.199219"/>
      </g>
     </g>
    </g>
    <g id="xtick_3">
     <g id="line2d_3">
      <g>
       <use xlink:href="#m48c3359f82" x="448.458668" y="256.32" style="stroke: #000000; stroke-width: 0.8"/>
      </g>
     </g>
     <g id="text_3">
      <!-- 2022-01 -->
      <g transform="translate(427.567262 270.918437) scale(0.1 -0.1)">
       <use xlink:href="#DejaVuSans-32"/>
       <use xlink:href="#DejaVuSans-30" x="63.623047"/>
       <use xlink:href="#DejaVuSans-32" x="127.246094"/>
       <use xlink:href="#DejaVuSans-32" x="190.869141"/>
       <use xlink:href="#DejaVuSans-2d" x="254.492188"/>
       <use xlink:href="#DejaVuSans-30" x="290.576172"/>
       <use xlink:href="#DejaVuSans-31" x="354.199219"/>
      </g>
     </g>
    </g>
    <g id="xtick_4">
     <g id="line2d_4">
      <g>
       <use xlink:href="#m48c3359f82" x="548.397412" y="256.32" style="stroke: #000000; stroke-width: 0.8"/>
      </g>
     </g>
     <g id="text_4">
      <!-- 2022-05 -->
      <g transform="translate(527.506006 270.918437) scale(0.1 -0.1)">
       <use xlink:href="#DejaVuSans-32"/>
       <use xlink:href="#DejaVuSans-30" x="63.623047"/>
       <use xlink:href="#DejaVuSans-32" x="127.246094"/>
       <use xlink:href="#DejaVuSans-32" x="190.869141"/>
       <use xlink:href="#DejaVuSans-2d" x="254.492188"/>
       <use xlink:href="#DejaVuSans-30" x="290.576172"/>
       <use xlink:href="#DejaVuSans-35" x="354.199219"/>
      </g>
     </g>
    </g>
    <g id="xtick_5">
     <g id="line2d_5">
      <g>
       <use xlink:href="#m48c3359f82" x="650.870206" y="256.32" style="stroke: #000000; stroke-width: 0.8"/>
      </g>
     </g>
     <g id="text_5">
      <!-- 2022-09 -->
      <g transform="translate(629.978799 270.918437) scale(0.1 -0.1)">
       <use xlink:href="#DejaVuSans-32"/>
       <use xlink:href="#DejaVuSans-30" x="63.623047"/>
       <use xlink:href="#DejaVuSans-32" x="127.246094"/>
       <use xlink:href="#DejaVuSans-32" x="190.869141"/>
       <use xlink:href="#DejaVuSans-2d" x="254.492188"/>
       <use xlink:href="#DejaVuSans-30" x="290.576172"/>
       <use xlink:href="#DejaVuSans-39" x="354.199219"/>
      </g>
     </g>
    </g>
    <g id="xtick_6">
     <g id="line2d_6">
      <g>
       <use xlink:href="#m48c3359f82" x="752.5446" y="256.32" style="stroke: #000000; stroke-width: 0.8"/>
      </g>
     </g>
     <g id="text_6">
      <!-- 2023-01 -->
      <g transform="translate(731.653194 270.918437) scale(0.1 -0.1)">
       <defs>
        <path id="DejaVuSans-33" d="M 2597 2516 
Q 3050 2419 3304 2112 
Q 3559 1806 3559 1356 
Q 3559 666 3084 287 
Q 2609 -91 1734 -91 
Q 1441 -91 1130 -33 
Q 819 25 488 141 
L 488 750 
Q 750 597 1062 519 
Q 1375 441 1716 441 
Q 2309 441 2620 675 
Q 2931 909 2931 1356 
Q 2931 1769 2642 2001 
Q 2353 2234 1838 2234 
L 1294 2234 
L 1294 2753 
L 1863 2753 
Q 2328 2753 2575 2939 
Q 2822 3125 2822 3475 
Q 2822 3834 2567 4026 
Q 2313 4219 1838 4219 
Q 1578 4219 1281 4162 
Q 984 4106 628 3988 
L 628 4550 
Q 988 4650 1302 4700 
Q 1616 4750 1894 4750 
Q 2613 4750 3031 4423 
Q 3450 4097 3450 3541 
Q 3450 3153 3228 2886 
Q 3006 2619 2597 2516 
z
" transform="scale(0.015625)"/>
       </defs>
       <use xlink:href="#DejaVuSans-32"/>
       <use xlink:href="#DejaVuSans-30" x="63.623047"/>
       <use xlink:href="#DejaVuSans-32" x="127.246094"/>
       <use xlink:href="#DejaVuSans-33" x="190.869141"/>
       <use xlink:href="#DejaVuSans-2d" x="254.492188"/>
       <use xlink:href="#DejaVuSans-30" x="290.576172"/>
       <use xlink:href="#DejaVuSans-31" x="354.199219"/>
      </g>
     </g>
    </g>
    <g id="xtick_7">
     <g id="line2d_7">
      <g>
       <use xlink:href="#m48c3359f82" x="852.483344" y="256.32" style="stroke: #000000; stroke-width: 0.8"/>
      </g>
     </g>
     <g id="text_7">
      <!-- 2023-05 -->
      <g transform="translate(831.591938 270.918437) scale(0.1 -0.1)">
       <use xlink:href="#DejaVuSans-32"/>
       <use xlink:href="#DejaVuSans-30" x="63.623047"/>
       <use xlink:href="#DejaVuSans-32" x="127.246094"/>
       <use xlink:href="#DejaVuSans-33" x="190.869141"/>
       <use xlink:href="#DejaVuSans-2d" x="254.492188"/>
       <use xlink:href="#DejaVuSans-30" x="290.576172"/>
       <use xlink:href="#DejaVuSans-35" x="354.199219"/>
      </g>
     </g>
    </g>
    <g id="xtick_8">
     <g id="line2d_8">
      <g>
       <use xlink:href="#m48c3359f82" x="954.956138" y="256.32" style="stroke: #000000; stroke-width: 0.8"/>
      </g>
     </g>
     <g id="text_8">
      <!-- 2023-09 -->
      <g transform="translate(934.064732 270.918437) scale(0.1 -0.1)">
       <use xlink:href="#DejaVuSans-32"/>
       <use xlink:href="#DejaVuSans-30" x="63.623047"/>
       <use xlink:href="#DejaVuSans-32" x="127.246094"/>
       <use xlink:href="#DejaVuSans-33" x="190.869141"/>
       <use xlink:href="#DejaVuSans-2d" x="254.492188"/>
       <use xlink:href="#DejaVuSans-30" x="290.576172"/>
       <use xlink:href="#DejaVuSans-39" x="354.199219"/>
      </g>
     </g>
    </g>
    <g id="xtick_9">
     <g id="line2d_9">
      <g>
       <use xlink:href="#m48c3359f82" x="1056.630533" y="256.32" style="stroke: #000000; stroke-width: 0.8"/>
      </g>
     </g>
     <g id="text_9">
      <!-- 2024-01 -->
      <g transform="translate(1035.739126 270.918437) scale(0.1 -0.1)">
       <defs>
        <path id="DejaVuSans-34" d="M 2419 4116 
L 825 1625 
L 2419 1625 
L 2419 4116 
z
M 2253 4666 
L 3047 4666 
L 3047 1625 
L 3713 1625 
L 3713 1100 
L 3047 1100 
L 3047 0 
L 2419 0 
L 2419 1100 
L 313 1100 
L 313 1709 
L 2253 4666 
z
" transform="scale(0.015625)"/>
       </defs>
       <use xlink:href="#DejaVuSans-32"/>
       <use xlink:href="#DejaVuSans-30" x="63.623047"/>
       <use xlink:href="#DejaVuSans-32" x="127.246094"/>
       <use xlink:href="#DejaVuSans-34" x="190.869141"/>
       <use xlink:href="#DejaVuSans-2d" x="254.492188"/>
       <use xlink:href="#DejaVuSans-30" x="290.576172"/>
       <use xlink:href="#DejaVuSans-31" x="354.199219"/>
      </g>
     </g>
    </g>
    <g id="xtick_10">
     <g id="line2d_10">
      <g>
       <use xlink:href="#m48c3359f82" x="1157.402389" y="256.32" style="stroke: #000000; stroke-width: 0.8"/>
      </g>
     </g>
     <g id="text_10">
      <!-- 2024-05 -->
      <g transform="translate(1136.510983 270.918437) scale(0.1 -0.1)">
       <use xlink:href="#DejaVuSans-32"/>
       <use xlink:href="#DejaVuSans-30" x="63.623047"/>
       <use xlink:href="#DejaVuSans-32" x="127.246094"/>
       <use xlink:href="#DejaVuSans-34" x="190.869141"/>
       <use xlink:href="#DejaVuSans-2d" x="254.492188"/>
       <use xlink:href="#DejaVuSans-30" x="290.576172"/>
       <use xlink:href="#DejaVuSans-35" x="354.199219"/>
      </g>
     </g>
    </g>
    <g id="text_11">
     <!-- Date -->
     <g transform="translate(652.249219 284.596563) scale(0.1 -0.1)">
      <defs>
       <path id="DejaVuSans-44" d="M 1259 4147 
L 1259 519 
L 2022 519 
Q 2988 519 3436 956 
Q 3884 1394 3884 2338 
Q 3884 3275 3436 3711 
Q 2988 4147 2022 4147 
L 1259 4147 
z
M 628 4666 
L 1925 4666 
Q 3281 4666 3915 4102 
Q 4550 3538 4550 2338 
Q 4550 1131 3912 565 
Q 3275 0 1925 0 
L 628 0 
L 628 4666 
z
" transform="scale(0.015625)"/>
       <path id="DejaVuSans-61" d="M 2194 1759 
Q 1497 1759 1228 1600 
Q 959 1441 959 1056 
Q 959 750 1161 570 
Q 1363 391 1709 391 
Q 2188 391 2477 730 
Q 2766 1069 2766 1631 
L 2766 1759 
L 2194 1759 
z
M 3341 1997 
L 3341 0 
L 2766 0 
L 2766 531 
Q 2569 213 2275 61 
Q 1981 -91 1556 -91 
Q 1019 -91 701 211 
Q 384 513 384 1019 
Q 384 1609 779 1909 
Q 1175 2209 1959 2209 
L 2766 2209 
L 2766 2266 
Q 2766 2663 2505 2880 
Q 2244 3097 1772 3097 
Q 1472 3097 1187 3025 
Q 903 2953 641 2809 
L 641 3341 
Q 956 3463 1253 3523 
Q 1550 3584 1831 3584 
Q 2591 3584 2966 3190 
Q 3341 2797 3341 1997 
z
" transform="scale(0.015625)"/>
       <path id="DejaVuSans-74" d="M 1172 4494 
L 1172 3500 
L 2356 3500 
L 2356 3053 
L 1172 3053 
L 1172 1153 
Q 1172 725 1289 603 
Q 1406 481 1766 481 
L 2356 481 
L 2356 0 
L 1766 0 
Q 1100 0 847 248 
Q 594 497 594 1153 
L 594 3053 
L 172 3053 
L 172 3500 
L 594 3500 
L 594 4494 
L 1172 4494 
z
" transform="scale(0.015625)"/>
       <path id="DejaVuSans-65" d="M 3597 1894 
L 3597 1613 
L 953 1613 
Q 991 1019 1311 708 
Q 1631 397 2203 397 
Q 2534 397 2845 478 
Q 3156 559 3463 722 
L 3463 178 
Q 3153 47 2828 -22 
Q 2503 -91 2169 -91 
Q 1331 -91 842 396 
Q 353 884 353 1716 
Q 353 2575 817 3079 
Q 1281 3584 2069 3584 
Q 2775 3584 3186 3129 
Q 3597 2675 3597 1894 
z
M 3022 2063 
Q 3016 2534 2758 2815 
Q 2500 3097 2075 3097 
Q 1594 3097 1305 2825 
Q 1016 2553 972 2059 
L 3022 2063 
z
" transform="scale(0.015625)"/>
      </defs>
      <use xlink:href="#DejaVuSans-44"/>
      <use xlink:href="#DejaVuSans-61" x="77.001953"/>
      <use xlink:href="#DejaVuSans-74" x="138.28125"/>
      <use xlink:href="#DejaVuSans-65" x="177.490234"/>
     </g>
    </g>
   </g>
   <g id="matplotlib.axis_2">
    <g id="ytick_1">
     <g id="line2d_11">
      <defs>
       <path id="mb1da9feade" d="M 0 0 
L -3.5 0 
" style="stroke: #0000ff; stroke-width: 0.8"/>
      </defs>
      <g>
       <use xlink:href="#mb1da9feade" x="162" y="222.011615" style="fill: #0000ff; stroke: #0000ff; stroke-width: 0.8"/>
      </g>
     </g>
     <g id="text_12">
      <!-- 15 -->
      <g style="fill: #0000ff" transform="translate(142.275 225.810833) scale(0.1 -0.1)">
       <use xlink:href="#DejaVuSans-31"/>
       <use xlink:href="#DejaVuSans-35" x="63.623047"/>
      </g>
     </g>
    </g>
    <g id="ytick_2">
     <g id="line2d_12">
      <g>
       <use xlink:href="#mb1da9feade" x="162" y="180.666251" style="fill: #0000ff; stroke: #0000ff; stroke-width: 0.8"/>
      </g>
     </g>
     <g id="text_13">
      <!-- 20 -->
      <g style="fill: #0000ff" transform="translate(142.275 184.46547) scale(0.1 -0.1)">
       <use xlink:href="#DejaVuSans-32"/>
       <use xlink:href="#DejaVuSans-30" x="63.623047"/>
      </g>
     </g>
    </g>
    <g id="ytick_3">
     <g id="line2d_13">
      <g>
       <use xlink:href="#mb1da9feade" x="162" y="139.320888" style="fill: #0000ff; stroke: #0000ff; stroke-width: 0.8"/>
      </g>
     </g>
     <g id="text_14">
      <!-- 25 -->
      <g style="fill: #0000ff" transform="translate(142.275 143.120107) scale(0.1 -0.1)">
       <use xlink:href="#DejaVuSans-32"/>
       <use xlink:href="#DejaVuSans-35" x="63.623047"/>
      </g>
     </g>
    </g>
    <g id="ytick_4">
     <g id="line2d_14">
      <g>
       <use xlink:href="#mb1da9feade" x="162" y="97.975525" style="fill: #0000ff; stroke: #0000ff; stroke-width: 0.8"/>
      </g>
     </g>
     <g id="text_15">
      <!-- 30 -->
      <g style="fill: #0000ff" transform="translate(142.275 101.774744) scale(0.1 -0.1)">
       <use xlink:href="#DejaVuSans-33"/>
       <use xlink:href="#DejaVuSans-30" x="63.623047"/>
      </g>
     </g>
    </g>
    <g id="ytick_5">
     <g id="line2d_15">
      <g>
       <use xlink:href="#mb1da9feade" x="162" y="56.630162" style="fill: #0000ff; stroke: #0000ff; stroke-width: 0.8"/>
      </g>
     </g>
     <g id="text_16">
      <!-- 35 -->
      <g style="fill: #0000ff" transform="translate(142.275 60.42938) scale(0.1 -0.1)">
       <use xlink:href="#DejaVuSans-33"/>
       <use xlink:href="#DejaVuSans-35" x="63.623047"/>
      </g>
     </g>
    </g>
    <g id="text_17">
     <!-- VIX -->
     <g style="fill: #0000ff" transform="translate(136.195312 153.760312) rotate(-90) scale(0.1 -0.1)">
      <defs>
       <path id="DejaVuSans-56" d="M 1831 0 
L 50 4666 
L 709 4666 
L 2188 738 
L 3669 4666 
L 4325 4666 
L 2547 0 
L 1831 0 
z
" transform="scale(0.015625)"/>
       <path id="DejaVuSans-49" d="M 628 4666 
L 1259 4666 
L 1259 0 
L 628 0 
L 628 4666 
z
" transform="scale(0.015625)"/>
       <path id="DejaVuSans-58" d="M 403 4666 
L 1081 4666 
L 2241 2931 
L 3406 4666 
L 4084 4666 
L 2584 2425 
L 4184 0 
L 3506 0 
L 2194 1984 
L 872 0 
L 191 0 
L 1856 2491 
L 403 4666 
z
" transform="scale(0.015625)"/>
      </defs>
      <use xlink:href="#DejaVuSans-56"/>
      <use xlink:href="#DejaVuSans-49" x="68.408203"/>
      <use xlink:href="#DejaVuSans-58" x="97.900391"/>
     </g>
    </g>
   </g>
   <g id="line2d_16">
    <path d="M 207.654545 167.601117 
L 208.487658 172.810626 
L 210.986994 189.92762 
L 211.820106 178.185536 
L 212.653218 170.743358 
L 213.48633 182.23738 
L 214.319443 190.092989 
L 216.818779 174.54714 
L 217.651891 183.891185 
L 218.485003 185.627698 
L 219.318115 202.744676 
L 222.650564 197.948614 
L 223.483676 196.212101 
L 224.316788 204.150419 
L 225.1499 205.886917 
L 225.983013 208.036877 
L 228.482349 206.217687 
L 229.315461 208.367648 
L 230.148573 205.556162 
L 230.981685 209.029173 
L 231.814798 211.675274 
L 234.314134 203.075431 
L 235.147246 191.581425 
L 235.980358 201.338933 
L 236.81347 191.333363 
L 237.646583 202.744676 
L 240.145919 200.181268 
L 240.979031 200.842793 
L 241.812143 203.158123 
L 242.645255 200.42933 
L 243.478368 192.160257 
L 245.977704 194.640989 
L 246.810816 184.966173 
L 247.643928 187.694966 
L 248.47704 193.979463 
L 249.310153 208.036877 
L 251.809489 183.477737 
L 252.642601 165.451156 
L 253.475713 117.903989 
L 255.141938 190.506452 
L 257.641274 182.981597 
L 258.474386 169.585693 
L 259.307498 162.63967 
L 260.14061 175.125972 
L 260.973723 179.425894 
L 263.473059 193.896771 
L 264.306171 190.258374 
L 265.139283 202.496598 
L 265.972395 207.62343 
L 266.805508 207.458045 
L 270.137956 198.031307 
L 270.971068 201.504318 
L 271.80418 196.873626 
L 272.637293 210.269531 
L 275.136629 210.269531 
L 275.969741 204.894637 
L 276.802853 198.114 
L 277.635965 212.915632 
L 278.469078 216.636721 
L 280.968414 210.517609 
L 281.801526 205.308084 
L 282.634638 195.964039 
L 283.46775 199.271665 
L 284.300863 174.877894 
L 286.800199 198.114 
L 287.633311 208.284955 
L 290.132648 216.884791 
L 292.631984 215.727118 
L 293.465096 213.577157 
L 294.298208 215.148285 
L 295.131321 218.042464 
L 295.964433 221.432782 
L 299.296881 210.104146 
L 300.129993 212.088721 
L 300.963106 188.935324 
L 301.796218 212.254106 
L 304.295554 212.336799 
L 305.128666 204.481174 
L 305.961778 211.013749 
L 306.794891 205.390777 
L 307.628003 193.483308 
L 310.127339 159.99357 
L 310.960451 182.898905 
L 311.793563 197.948614 
L 312.626676 199.767805 
L 313.459788 203.819648 
L 315.959124 200.677408 
L 316.792236 185.958453 
L 317.625348 194.640989 
L 318.458461 199.685112 
L 319.291573 195.219821 
L 321.790909 185.131558 
L 322.624021 196.873626 
L 323.457133 197.452475 
L 324.290246 203.158123 
L 325.123358 212.502184 
L 327.622694 207.788815 
L 328.455806 207.209967 
L 330.122031 217.13286 
L 330.955143 218.290534 
L 333.454479 212.750246 
L 334.287591 197.948614 
L 335.120703 167.68381 
L 335.953816 166.856899 
L 336.786928 192.57372 
L 339.286264 204.233112 
L 340.119376 203.654279 
L 340.952488 207.209967 
L 341.785601 190.258374 
L 342.618713 210.517609 
L 345.118049 212.171414 
L 345.951161 209.773391 
L 346.784273 212.832939 
L 347.617386 210.352223 
L 348.450498 210.352223 
L 351.782946 196.046732 
L 352.616058 197.535167 
L 353.449171 190.589145 
L 354.282283 172.810626 
L 356.781619 185.87576 
L 357.614731 185.131558 
L 358.447843 195.715961 
L 359.280956 191.498732 
L 360.114068 173.968307 
L 362.613404 133.449854 
L 363.446516 144.61309 
L 364.279628 173.472151 
L 365.112741 191.994888 
L 365.945853 199.271665 
L 368.445189 190.9199 
L 369.278301 153.791765 
L 370.111413 159.49743 
L 370.944526 154.701368 
L 371.777638 171.570268 
L 374.276974 156.189804 
L 375.110086 169.916463 
L 375.943198 172.397179 
L 376.776311 184.470017 
L 377.609423 190.837207 
L 380.108759 180.666251 
L 380.941871 181.906609 
L 381.774983 191.912195 
L 382.608096 206.631134 
L 383.441208 211.261826 
L 385.940544 211.179134 
L 386.773656 216.223265 
L 387.606768 217.959771 
L 388.439881 221.928922 
L 389.272993 218.455911 
L 391.772329 220.027039 
L 392.605441 213.907927 
L 393.438553 205.638855 
L 394.271666 209.359928 
L 395.104778 211.592581 
L 397.604114 210.352223 
L 398.437226 213.494464 
L 399.270338 221.184704 
L 400.103451 218.373226 
L 400.936563 209.773391 
L 403.470612 203.654279 
L 404.303724 199.023587 
L 405.136836 191.167977 
L 405.969949 200.015883 
L 406.803061 211.344503 
L 409.302397 209.690698 
L 410.135509 210.682978 
L 410.968621 204.563866 
L 411.801734 200.594715 
L 412.634846 197.948614 
L 415.134182 187.529581 
L 415.967294 185.793083 
L 416.800406 192.408335 
L 418.466631 109.386838 
L 420.965967 156.189804 
L 422.632191 88.714157 
L 423.465304 114.927118 
L 424.298416 92.435246 
L 426.797752 121.294307 
L 427.630864 165.037709 
L 428.463976 181.493162 
L 429.297089 167.601117 
L 430.130201 191.498732 
L 432.629537 178.102843 
L 433.462649 165.037709 
L 434.295761 186.537285 
L 435.128874 175.952882 
L 435.961986 167.68381 
L 438.461322 156.934006 
L 439.294434 172.314486 
L 440.127546 191.994888 
L 440.960659 197.535167 
L 444.293107 199.850497 
L 445.126219 201.008163 
L 445.959331 205.886917 
L 446.792444 202.744676 
L 447.625556 203.654279 
L 450.124892 208.781095 
L 450.958004 206.217687 
L 451.791116 182.898905 
L 452.624229 183.891185 
L 453.457341 190.9199 
L 455.956677 185.627698 
L 456.789789 193.814078 
L 457.622901 200.346637 
L 458.456014 178.102843 
L 459.289126 187.364196 
L 462.621574 157.595531 
L 463.454686 148.830319 
L 464.287799 134.442134 
L 465.120911 107.484955 
L 467.620247 98.802435 
L 468.453359 88.383402 
L 469.286471 81.76815 
L 470.119584 93.923681 
L 470.952696 117.325156 
L 473.452032 140.726631 
L 474.285144 164.458877 
L 475.118256 163.383888 
L 475.951369 144.695782 
L 476.784481 154.039843 
L 479.283817 157.016699 
L 480.950041 180.997022 
L 482.616266 119.805872 
L 485.115602 111.784877 
L 485.948714 133.532531 
L 486.781826 145.191922 
L 487.614939 113.604067 
L 488.448051 116.580938 
L 491.780499 107.815726 
L 492.613611 89.541067 
L 493.446724 95.329424 
L 494.279836 117.903989 
L 496.779172 96.735167 
L 497.612284 70.522206 
L 498.445396 91.856413 
L 499.278509 94.006374 
L 502.610957 44.64 
L 503.444069 55.555173 
L 504.277181 77.716291 
L 505.110294 96.073642 
L 505.943406 91.77372 
L 508.408029 83.339263 
L 509.241141 99.381268 
L 510.074253 125.511536 
L 510.907366 133.780609 
L 511.740478 148.664933 
L 514.239814 151.476419 
L 515.072926 156.355173 
L 515.906038 151.145665 
L 516.739151 166.856899 
L 517.572263 173.968307 
L 520.071599 183.725815 
L 520.904711 189.762234 
L 521.737823 186.206531 
L 522.570936 176.035575 
L 523.404048 183.725815 
L 525.903384 192.491028 
L 526.736496 172.149101 
L 527.569608 163.301196 
L 528.402721 167.849195 
L 529.235833 171.074128 
L 531.735169 144.530397 
L 532.568281 145.44 
L 533.401393 165.616542 
L 534.234506 158.339749 
L 537.566954 162.722363 
L 538.400066 169.337615 
L 539.233179 178.020151 
L 540.066291 158.505134 
L 540.899403 112.777173 
L 543.398739 122.617358 
L 544.231851 68.868385 
L 545.064964 84.745005 
L 545.898076 98.058218 
L 546.731188 69.860665 
L 549.230524 78.625894 
L 550.063636 104.177329 
L 550.896749 135.847877 
L 551.729861 88.052631 
L 552.562973 96.404397 
L 555.062309 58.69743 
L 555.895421 73.250984 
L 556.728534 76.806688 
L 557.561646 83.339263 
L 558.394758 107.31957 
L 560.894094 118.896284 
L 561.727206 130.224905 
L 562.560319 90.037223 
L 563.393431 103.350419 
L 564.226543 102.688894 
L 566.725879 110.544519 
L 567.558991 102.523509 
L 568.392104 111.454106 
L 569.225216 118.648207 
L 570.058328 133.367162 
L 573.390776 129.480687 
L 574.223889 133.615224 
L 575.057001 141.636234 
L 575.890113 141.057386 
L 578.389449 138.742056 
L 579.222561 147.424576 
L 580.055674 147.920731 
L 580.888786 130.307598 
L 581.721898 116.580938 
L 584.221234 64.733849 
L 585.054346 75.731731 
L 585.887459 101.117766 
L 586.720571 73.581754 
L 587.553683 88.63148 
L 590.886131 96.404397 
L 591.719244 106.658045 
L 592.552356 105.83115 
L 593.385468 120.88086 
L 595.884804 123.19619 
L 596.717916 111.536799 
L 597.551029 113.19062 
L 598.384141 108.642636 
L 599.217253 125.263458 
L 602.549701 118.317436 
L 603.382814 125.015396 
L 604.215926 130.39029 
L 605.049038 142.297759 
L 607.548374 129.646073 
L 608.381486 120.384704 
L 610.047711 127.74419 
L 610.880823 145.688078 
L 613.380159 136.840173 
L 614.213271 143.455424 
L 615.046384 148.582256 
L 615.879496 154.94943 
L 616.712608 155.610956 
L 619.211944 152.882162 
L 620.045056 141.884296 
L 620.878169 153.874458 
L 622.544393 169.668385 
L 625.043729 157.182084 
L 625.876841 148.168793 
L 626.709954 164.541553 
L 627.543066 168.758782 
L 628.376178 171.156821 
L 630.875514 169.99914 
L 631.708626 166.029989 
L 632.541739 182.816212 
L 633.374851 179.012431 
L 634.207963 184.55271 
L 636.707299 181.079699 
L 637.540411 183.229659 
L 638.373524 181.493162 
L 639.206636 184.304648 
L 642.539084 149.243782 
L 643.372196 146.680358 
L 644.205309 157.347469 
L 645.038421 165.947296 
L 645.871533 134.690212 
L 648.370869 129.315318 
L 649.203981 129.315318 
L 650.870206 134.690212 
L 651.703318 135.43443 
L 655.035766 123.526961 
L 655.868879 142.297759 
L 656.701991 150.814894 
L 657.535103 157.595531 
L 660.034439 148.664933 
L 660.867551 120.550089 
L 661.700664 129.728765 
L 662.533776 128.819162 
L 663.366888 128.5711 
L 665.866224 133.036391 
L 666.699336 121.459692 
L 667.532449 114.596363 
L 668.365561 119.888564 
L 669.198673 98.63705 
L 671.698009 79.287435 
L 672.531121 76.475949 
L 673.364234 96.487089 
L 674.197346 82.76043 
L 675.030458 84.57962 
L 677.529794 97.148614 
L 678.362906 105.665765 
L 679.196019 109.965687 
L 680.029131 93.675603 
L 680.862243 86.729581 
L 683.361579 77.716291 
L 684.194691 67.958782 
L 685.027804 68.454938 
L 685.860916 81.93352 
L 686.694028 81.271994 
L 689.193364 86.646888 
L 690.026476 93.840989 
L 690.859589 91.691028 
L 691.692701 98.14091 
L 692.525813 100.538933 
L 695.025149 99.215883 
L 695.858261 110.709904 
L 696.691374 120.467397 
L 697.524486 119.55781 
L 698.357598 133.119084 
L 700.856934 132.044111 
L 701.690046 132.622944 
L 702.523159 132.209481 
L 703.356271 136.840173 
L 704.189383 143.041977 
L 706.723432 144.695782 
L 707.556544 134.855581 
L 708.389657 130.307598 
L 709.222769 151.476419 
L 710.055881 159.828185 
L 712.555217 149.822614 
L 713.388329 143.124654 
L 714.221442 146.680358 
L 715.054554 148.168793 
L 715.887666 154.866738 
L 718.387002 161.151235 
L 720.053227 177.772073 
L 721.719451 176.531715 
L 724.218787 162.391608 
L 725.051899 165.037709 
L 725.885012 175.87019 
L 727.551236 188.439184 
L 730.050572 174.464447 
L 730.883684 162.722363 
L 731.716797 158.505134 
L 732.549909 161.730067 
L 733.383021 157.264776 
L 735.882357 139.320888 
L 736.715469 159.580122 
L 737.548582 171.239514 
L 738.381694 157.264776 
L 739.214806 159.001274 
L 741.714142 160.655095 
L 742.547254 168.428028 
L 743.380367 180.087419 
L 744.213479 164.376184 
L 745.046591 173.472151 
L 748.379039 167.022285 
L 749.212152 162.970441 
L 750.045264 168.758782 
L 750.878376 166.856899 
L 754.210824 156.685944 
L 755.043937 164.045413 
L 755.877049 160.32434 
L 756.710161 171.322206 
L 759.209497 164.376184 
L 760.042609 175.87019 
L 760.875722 171.652961 
L 761.708834 190.341067 
L 762.541946 194.310218 
L 765.874394 185.958453 
L 766.707507 177.854765 
L 767.540619 176.36633 
L 768.373731 181.906609 
L 770.873067 182.23738 
L 771.706179 187.281503 
L 772.539292 188.273799 
L 773.372404 191.167977 
L 774.205516 192.987168 
L 776.704852 181.162391 
L 777.537964 185.627698 
L 778.371077 198.279369 
L 779.204189 191.167977 
L 780.037301 194.475603 
L 782.536637 185.37962 
L 783.36975 191.74681 
L 785.035974 174.795217 
L 785.869086 176.283637 
L 788.368422 177.854765 
L 789.201535 189.679542 
L 790.034647 195.302514 
L 790.867759 179.260508 
L 791.700871 180.500866 
L 795.03332 156.934006 
L 795.866432 161.730067 
L 796.699544 171.239514 
L 797.532656 166.856899 
L 800.865105 174.877894 
L 801.698217 175.87019 
L 803.364441 193.152553 
L 805.863777 192.160257 
L 806.69689 184.05657 
L 807.530002 188.025721 
L 808.363114 159.083967 
L 809.196226 140.974709 
L 811.660849 126.751894 
L 812.493962 149.822614 
L 813.327074 129.89415 
L 814.160186 155.941726 
L 814.993298 135.103659 
L 817.492634 146.349603 
L 818.325747 169.254938 
L 819.158859 161.978145 
L 819.991971 159.083967 
L 820.825083 166.278067 
L 823.324419 175.704805 
L 824.157532 180.914329 
L 824.990644 187.943028 
L 825.823756 188.769939 
L 826.656868 191.41604 
L 829.156204 192.656413 
L 829.989317 188.935324 
L 830.822429 188.273799 
L 831.655541 193.896771 
L 835.821102 188.108414 
L 836.654214 188.191106 
L 837.487326 198.858218 
L 838.320438 204.894637 
L 840.819774 205.886917 
L 841.652887 206.879212 
L 842.485999 209.938776 
L 843.319111 204.067726 
L 844.152223 207.375352 
L 846.651559 206.383072 
L 847.484672 190.9199 
L 848.317784 190.258374 
L 849.150896 205.225391 
L 849.984008 215.56174 
L 852.483344 213.081017 
L 853.316457 199.023587 
L 854.149569 194.392911 
L 854.982681 179.922034 
L 855.815793 203.902341 
L 858.315129 205.638855 
L 859.148242 199.602435 
L 859.981354 205.969609 
L 860.814466 206.052302 
L 861.647578 205.225391 
L 864.146914 204.481174 
L 864.980027 197.287089 
L 865.813139 206.548442 
L 866.646251 213.329095 
L 867.479363 207.044598 
L 869.978699 203.736972 
L 870.811812 192.821782 
L 871.644924 180.418174 
L 872.478036 187.777659 
L 873.311148 197.617844 
L 876.643597 201.669703 
L 877.476709 197.700537 
L 878.309821 216.636721 
L 879.142933 225.319241 
L 881.642269 224.244268 
L 882.475382 230.61145 
L 883.308494 230.776835 
L 884.141606 233.174866 
L 884.974718 231.68643 
L 887.474054 221.928922 
L 888.307167 225.236556 
L 889.140279 231.272975 
L 889.973391 226.146151 
L 890.806503 234.084461 
L 894.138952 231.272975 
L 894.972064 236.895947 
L 895.805176 239.293978 
L 896.638288 234.911371 
L 899.137624 228.213419 
L 899.970737 232.430648 
L 900.803849 234.994056 
L 901.636961 234.084461 
L 902.470073 233.671006 
L 904.969409 233.836391 
L 906.635634 228.792252 
L 907.468746 218.373226 
L 908.301858 223.417358 
L 910.801194 221.432782 
L 911.634307 223.334665 
L 912.467419 234.084461 
L 913.300531 233.505628 
L 914.133643 235.738274 
L 916.632979 234.580609 
L 917.466092 236.069037 
L 918.299204 232.265263 
L 919.132316 230.36338 
L 919.965428 233.588313 
L 922.464764 231.024905 
L 923.297877 231.43836 
L 924.130989 236.97864 
L 924.964101 226.890369 
L 925.797213 235.820967 
L 928.296549 233.340243 
L 929.129662 230.85952 
L 929.962774 212.998324 
L 930.795886 214.404067 
L 931.628998 204.646559 
L 934.128334 215.644425 
L 934.961447 213.825235 
L 935.794559 214.073305 
L 936.627671 214.9829 
L 937.460783 223.334665 
L 939.960119 223.50005 
L 940.793232 209.938776 
L 941.626344 207.29266 
L 942.459456 198.114 
L 943.292568 202.992754 
L 945.791904 204.398497 
L 946.625017 205.721547 
L 947.458129 213.907927 
L 948.291241 203.819648 
L 949.124353 216.388643 
L 951.623689 221.350089 
L 953.289914 231.272975 
L 954.123026 233.836391 
L 954.956138 237.805542 
L 958.288587 230.197995 
L 959.121699 226.559606 
L 959.954811 226.973061 
L 960.787923 231.603738 
L 963.287259 231.9345 
L 964.120372 228.378804 
L 965.786596 240.038196 
L 966.619708 232.017193 
L 969.119044 230.280687 
L 969.952157 229.371092 
L 970.785269 220.853942 
L 971.618381 201.008163 
L 972.451493 203.819648 
L 974.950829 206.30038 
L 975.783942 189.431464 
L 976.617054 195.385206 
L 977.450166 202.661983 
L 978.283278 201.173548 
L 980.782614 200.42933 
L 981.615727 182.485442 
L 982.448839 192.408335 
L 983.281951 193.152553 
L 984.115063 201.75238 
L 986.614399 199.685112 
L 987.447512 205.225391 
L 988.280624 212.998324 
L 989.113736 208.036877 
L 989.946848 186.289223 
L 992.446184 203.736972 
L 993.279297 198.196692 
L 994.112409 187.116134 
L 994.945521 169.089553 
L 995.778633 166.526145 
L 998.277969 177.606688 
L 999.111082 189.183402 
L 999.944194 179.095123 
L 1000.777306 175.043279 
L 1001.610418 170.164525 
L 1004.109754 182.73352 
L 1004.942867 196.046732 
L 1006.609091 216.554028 
L 1007.442203 222.755832 
L 1009.976252 222.92121 
L 1010.809365 223.582735 
L 1011.642477 226.559606 
L 1012.475589 219.613584 
L 1013.308701 228.874944 
L 1015.808037 223.99619 
L 1016.64115 228.957637 
L 1017.474262 228.792252 
L 1018.307374 227.634587 
L 1019.140486 231.9345 
L 1021.639822 235.159441 
L 1022.472935 235.655581 
L 1023.306047 239.790118 
L 1024.972271 243.015059 
L 1027.471607 241.113176 
L 1028.30472 241.113176 
L 1029.137832 238.715145 
L 1029.970944 239.211285 
L 1030.804056 241.609316 
L 1033.303393 237.888235 
L 1034.136505 239.790118 
L 1034.969617 238.79783 
L 1035.802729 238.053612 
L 1036.635841 243.924654 
L 1039.135178 241.609316 
L 1039.96829 246.24 
L 1040.801402 245.247712 
L 1041.634514 242.849681 
L 1042.467626 244.503494 
L 1044.966963 242.188148 
L 1045.800075 242.436226 
L 1046.633187 233.009481 
L 1047.466299 233.174866 
L 1048.299411 238.30169 
L 1051.63186 238.632453 
L 1052.464972 243.263129 
L 1053.298084 242.932366 
L 1054.131196 243.097751 
L 1057.463645 236.895947 
L 1058.296757 229.949925 
L 1059.129869 229.205707 
L 1059.962981 235.655581 
L 1062.462318 237.888235 
L 1063.29543 240.534335 
L 1064.128542 241.113176 
L 1064.961654 243.180444 
L 1065.794766 241.030483 
L 1069.127215 231.603738 
L 1069.960327 223.74812 
L 1070.793439 229.205707 
L 1071.626551 236.069037 
L 1074.125888 236.97864 
L 1074.959 242.270841 
L 1075.792112 237.392087 
L 1076.625224 234.828679 
L 1077.458336 236.399799 
L 1079.957673 233.588313 
L 1080.790785 235.986344 
L 1081.623897 227.386509 
L 1082.457009 231.272975 
L 1083.290121 231.521045 
L 1085.789458 233.009481 
L 1086.62257 238.053612 
L 1087.455682 239.955503 
L 1088.288794 240.286265 
L 1089.121906 239.128592 
L 1091.621243 230.85952 
L 1092.454355 214.9829 
L 1093.287467 227.138439 
L 1094.120579 230.197995 
L 1094.953691 228.296112 
L 1098.28614 218.538603 
L 1099.119252 219.200129 
L 1100.785476 232.347955 
L 1103.284813 232.430648 
L 1104.117925 234.994056 
L 1104.951037 231.603738 
L 1105.784149 235.242134 
L 1106.617261 237.640165 
L 1109.116598 234.497916 
L 1109.94971 226.476914 
L 1110.782822 226.146151 
L 1111.615934 226.642299 
L 1112.449046 224.161575 
L 1114.91367 220.192416 
L 1115.746782 231.603738 
L 1116.579894 232.347955 
L 1117.413006 226.973061 
L 1118.246118 226.890369 
L 1120.745455 227.551894 
L 1120.745455 227.551894 
" clip-path="url(#pd1311590d5)" style="fill: none; stroke: #0000ff; stroke-width: 1.5; stroke-linecap: square"/>
   </g>
   <g id="patch_3">
    <path d="M 162 256.32 
L 162 34.56 
" style="fill: none; stroke: #000000; stroke-width: 0.8; stroke-linejoin: miter; stroke-linecap: square"/>
   </g>
   <g id="patch_4">
    <path d="M 1166.4 256.32 
L 1166.4 34.56 
" style="fill: none; stroke: #000000; stroke-width: 0.8; stroke-linejoin: miter; stroke-linecap: square"/>
   </g>
   <g id="patch_5">
    <path d="M 162 256.32 
L 1166.4 256.32 
" style="fill: none; stroke: #000000; stroke-width: 0.8; stroke-linejoin: miter; stroke-linecap: square"/>
   </g>
   <g id="patch_6">
    <path d="M 162 34.56 
L 1166.4 34.56 
" style="fill: none; stroke: #000000; stroke-width: 0.8; stroke-linejoin: miter; stroke-linecap: square"/>
   </g>
  </g>
  <g id="axes_2">
   <g id="matplotlib.axis_3">
    <g id="ytick_6">
     <g id="line2d_17">
      <defs>
       <path id="m560225fb8d" d="M 0 0 
L 3.5 0 
" style="stroke: #ff0000; stroke-width: 0.8"/>
      </defs>
      <g>
       <use xlink:href="#m560225fb8d" x="1166.4" y="234.908349" style="fill: #ff0000; stroke: #ff0000; stroke-width: 0.8"/>
      </g>
     </g>
     <g id="text_18">
      <!-- 0.2 -->
      <g style="fill: #ff0000" transform="translate(1173.4 238.707568) scale(0.1 -0.1)">
       <defs>
        <path id="DejaVuSans-2e" d="M 684 794 
L 1344 794 
L 1344 0 
L 684 0 
L 684 794 
z
" transform="scale(0.015625)"/>
       </defs>
       <use xlink:href="#DejaVuSans-30"/>
       <use xlink:href="#DejaVuSans-2e" x="63.623047"/>
       <use xlink:href="#DejaVuSans-32" x="95.410156"/>
      </g>
     </g>
    </g>
    <g id="ytick_7">
     <g id="line2d_18">
      <g>
       <use xlink:href="#m560225fb8d" x="1166.4" y="209.275757" style="fill: #ff0000; stroke: #ff0000; stroke-width: 0.8"/>
      </g>
     </g>
     <g id="text_19">
      <!-- 0.3 -->
      <g style="fill: #ff0000" transform="translate(1173.4 213.074976) scale(0.1 -0.1)">
       <use xlink:href="#DejaVuSans-30"/>
       <use xlink:href="#DejaVuSans-2e" x="63.623047"/>
       <use xlink:href="#DejaVuSans-33" x="95.410156"/>
      </g>
     </g>
    </g>
    <g id="ytick_8">
     <g id="line2d_19">
      <g>
       <use xlink:href="#m560225fb8d" x="1166.4" y="183.643165" style="fill: #ff0000; stroke: #ff0000; stroke-width: 0.8"/>
      </g>
     </g>
     <g id="text_20">
      <!-- 0.4 -->
      <g style="fill: #ff0000" transform="translate(1173.4 187.442384) scale(0.1 -0.1)">
       <use xlink:href="#DejaVuSans-30"/>
       <use xlink:href="#DejaVuSans-2e" x="63.623047"/>
       <use xlink:href="#DejaVuSans-34" x="95.410156"/>
      </g>
     </g>
    </g>
    <g id="ytick_9">
     <g id="line2d_20">
      <g>
       <use xlink:href="#m560225fb8d" x="1166.4" y="158.010573" style="fill: #ff0000; stroke: #ff0000; stroke-width: 0.8"/>
      </g>
     </g>
     <g id="text_21">
      <!-- 0.5 -->
      <g style="fill: #ff0000" transform="translate(1173.4 161.809792) scale(0.1 -0.1)">
       <use xlink:href="#DejaVuSans-30"/>
       <use xlink:href="#DejaVuSans-2e" x="63.623047"/>
       <use xlink:href="#DejaVuSans-35" x="95.410156"/>
      </g>
     </g>
    </g>
    <g id="ytick_10">
     <g id="line2d_21">
      <g>
       <use xlink:href="#m560225fb8d" x="1166.4" y="132.377981" style="fill: #ff0000; stroke: #ff0000; stroke-width: 0.8"/>
      </g>
     </g>
     <g id="text_22">
      <!-- 0.6 -->
      <g style="fill: #ff0000" transform="translate(1173.4 136.177199) scale(0.1 -0.1)">
       <defs>
        <path id="DejaVuSans-36" d="M 2113 2584 
Q 1688 2584 1439 2293 
Q 1191 2003 1191 1497 
Q 1191 994 1439 701 
Q 1688 409 2113 409 
Q 2538 409 2786 701 
Q 3034 994 3034 1497 
Q 3034 2003 2786 2293 
Q 2538 2584 2113 2584 
z
M 3366 4563 
L 3366 3988 
Q 3128 4100 2886 4159 
Q 2644 4219 2406 4219 
Q 1781 4219 1451 3797 
Q 1122 3375 1075 2522 
Q 1259 2794 1537 2939 
Q 1816 3084 2150 3084 
Q 2853 3084 3261 2657 
Q 3669 2231 3669 1497 
Q 3669 778 3244 343 
Q 2819 -91 2113 -91 
Q 1303 -91 875 529 
Q 447 1150 447 2328 
Q 447 3434 972 4092 
Q 1497 4750 2381 4750 
Q 2619 4750 2861 4703 
Q 3103 4656 3366 4563 
z
" transform="scale(0.015625)"/>
       </defs>
       <use xlink:href="#DejaVuSans-30"/>
       <use xlink:href="#DejaVuSans-2e" x="63.623047"/>
       <use xlink:href="#DejaVuSans-36" x="95.410156"/>
      </g>
     </g>
    </g>
    <g id="ytick_11">
     <g id="line2d_22">
      <g>
       <use xlink:href="#m560225fb8d" x="1166.4" y="106.745388" style="fill: #ff0000; stroke: #ff0000; stroke-width: 0.8"/>
      </g>
     </g>
     <g id="text_23">
      <!-- 0.7 -->
      <g style="fill: #ff0000" transform="translate(1173.4 110.544607) scale(0.1 -0.1)">
       <defs>
        <path id="DejaVuSans-37" d="M 525 4666 
L 3525 4666 
L 3525 4397 
L 1831 0 
L 1172 0 
L 2766 4134 
L 525 4134 
L 525 4666 
z
" transform="scale(0.015625)"/>
       </defs>
       <use xlink:href="#DejaVuSans-30"/>
       <use xlink:href="#DejaVuSans-2e" x="63.623047"/>
       <use xlink:href="#DejaVuSans-37" x="95.410156"/>
      </g>
     </g>
    </g>
    <g id="ytick_12">
     <g id="line2d_23">
      <g>
       <use xlink:href="#m560225fb8d" x="1166.4" y="81.112796" style="fill: #ff0000; stroke: #ff0000; stroke-width: 0.8"/>
      </g>
     </g>
     <g id="text_24">
      <!-- 0.8 -->
      <g style="fill: #ff0000" transform="translate(1173.4 84.912015) scale(0.1 -0.1)">
       <defs>
        <path id="DejaVuSans-38" d="M 2034 2216 
Q 1584 2216 1326 1975 
Q 1069 1734 1069 1313 
Q 1069 891 1326 650 
Q 1584 409 2034 409 
Q 2484 409 2743 651 
Q 3003 894 3003 1313 
Q 3003 1734 2745 1975 
Q 2488 2216 2034 2216 
z
M 1403 2484 
Q 997 2584 770 2862 
Q 544 3141 544 3541 
Q 544 4100 942 4425 
Q 1341 4750 2034 4750 
Q 2731 4750 3128 4425 
Q 3525 4100 3525 3541 
Q 3525 3141 3298 2862 
Q 3072 2584 2669 2484 
Q 3125 2378 3379 2068 
Q 3634 1759 3634 1313 
Q 3634 634 3220 271 
Q 2806 -91 2034 -91 
Q 1263 -91 848 271 
Q 434 634 434 1313 
Q 434 1759 690 2068 
Q 947 2378 1403 2484 
z
M 1172 3481 
Q 1172 3119 1398 2916 
Q 1625 2713 2034 2713 
Q 2441 2713 2670 2916 
Q 2900 3119 2900 3481 
Q 2900 3844 2670 4047 
Q 2441 4250 2034 4250 
Q 1625 4250 1398 4047 
Q 1172 3844 1172 3481 
z
" transform="scale(0.015625)"/>
       </defs>
       <use xlink:href="#DejaVuSans-30"/>
       <use xlink:href="#DejaVuSans-2e" x="63.623047"/>
       <use xlink:href="#DejaVuSans-38" x="95.410156"/>
      </g>
     </g>
    </g>
    <g id="ytick_13">
     <g id="line2d_24">
      <g>
       <use xlink:href="#m560225fb8d" x="1166.4" y="55.480204" style="fill: #ff0000; stroke: #ff0000; stroke-width: 0.8"/>
      </g>
     </g>
     <g id="text_25">
      <!-- 0.9 -->
      <g style="fill: #ff0000" transform="translate(1173.4 59.279423) scale(0.1 -0.1)">
       <use xlink:href="#DejaVuSans-30"/>
       <use xlink:href="#DejaVuSans-2e" x="63.623047"/>
       <use xlink:href="#DejaVuSans-39" x="95.410156"/>
      </g>
     </g>
    </g>
    <g id="text_26">
     <!-- Indicator -->
     <g style="fill: #ff0000" transform="translate(1200.901563 167.535313) rotate(-90) scale(0.1 -0.1)">
      <defs>
       <path id="DejaVuSans-6e" d="M 3513 2113 
L 3513 0 
L 2938 0 
L 2938 2094 
Q 2938 2591 2744 2837 
Q 2550 3084 2163 3084 
Q 1697 3084 1428 2787 
Q 1159 2491 1159 1978 
L 1159 0 
L 581 0 
L 581 3500 
L 1159 3500 
L 1159 2956 
Q 1366 3272 1645 3428 
Q 1925 3584 2291 3584 
Q 2894 3584 3203 3211 
Q 3513 2838 3513 2113 
z
" transform="scale(0.015625)"/>
       <path id="DejaVuSans-64" d="M 2906 2969 
L 2906 4863 
L 3481 4863 
L 3481 0 
L 2906 0 
L 2906 525 
Q 2725 213 2448 61 
Q 2172 -91 1784 -91 
Q 1150 -91 751 415 
Q 353 922 353 1747 
Q 353 2572 751 3078 
Q 1150 3584 1784 3584 
Q 2172 3584 2448 3432 
Q 2725 3281 2906 2969 
z
M 947 1747 
Q 947 1113 1208 752 
Q 1469 391 1925 391 
Q 2381 391 2643 752 
Q 2906 1113 2906 1747 
Q 2906 2381 2643 2742 
Q 2381 3103 1925 3103 
Q 1469 3103 1208 2742 
Q 947 2381 947 1747 
z
" transform="scale(0.015625)"/>
       <path id="DejaVuSans-69" d="M 603 3500 
L 1178 3500 
L 1178 0 
L 603 0 
L 603 3500 
z
M 603 4863 
L 1178 4863 
L 1178 4134 
L 603 4134 
L 603 4863 
z
" transform="scale(0.015625)"/>
       <path id="DejaVuSans-63" d="M 3122 3366 
L 3122 2828 
Q 2878 2963 2633 3030 
Q 2388 3097 2138 3097 
Q 1578 3097 1268 2742 
Q 959 2388 959 1747 
Q 959 1106 1268 751 
Q 1578 397 2138 397 
Q 2388 397 2633 464 
Q 2878 531 3122 666 
L 3122 134 
Q 2881 22 2623 -34 
Q 2366 -91 2075 -91 
Q 1284 -91 818 406 
Q 353 903 353 1747 
Q 353 2603 823 3093 
Q 1294 3584 2113 3584 
Q 2378 3584 2631 3529 
Q 2884 3475 3122 3366 
z
" transform="scale(0.015625)"/>
       <path id="DejaVuSans-6f" d="M 1959 3097 
Q 1497 3097 1228 2736 
Q 959 2375 959 1747 
Q 959 1119 1226 758 
Q 1494 397 1959 397 
Q 2419 397 2687 759 
Q 2956 1122 2956 1747 
Q 2956 2369 2687 2733 
Q 2419 3097 1959 3097 
z
M 1959 3584 
Q 2709 3584 3137 3096 
Q 3566 2609 3566 1747 
Q 3566 888 3137 398 
Q 2709 -91 1959 -91 
Q 1206 -91 779 398 
Q 353 888 353 1747 
Q 353 2609 779 3096 
Q 1206 3584 1959 3584 
z
" transform="scale(0.015625)"/>
       <path id="DejaVuSans-72" d="M 2631 2963 
Q 2534 3019 2420 3045 
Q 2306 3072 2169 3072 
Q 1681 3072 1420 2755 
Q 1159 2438 1159 1844 
L 1159 0 
L 581 0 
L 581 3500 
L 1159 3500 
L 1159 2956 
Q 1341 3275 1631 3429 
Q 1922 3584 2338 3584 
Q 2397 3584 2469 3576 
Q 2541 3569 2628 3553 
L 2631 2963 
z
" transform="scale(0.015625)"/>
      </defs>
      <use xlink:href="#DejaVuSans-49"/>
      <use xlink:href="#DejaVuSans-6e" x="29.492188"/>
      <use xlink:href="#DejaVuSans-64" x="92.871094"/>
      <use xlink:href="#DejaVuSans-69" x="156.347656"/>
      <use xlink:href="#DejaVuSans-63" x="184.130859"/>
      <use xlink:href="#DejaVuSans-61" x="239.111328"/>
      <use xlink:href="#DejaVuSans-74" x="300.390625"/>
      <use xlink:href="#DejaVuSans-6f" x="339.599609"/>
      <use xlink:href="#DejaVuSans-72" x="400.78125"/>
     </g>
    </g>
   </g>
   <g id="line2d_25">
    <path d="M 207.654545 53.006525 
L 213.48633 53.457021 
L 214.319443 53.632196 
L 216.818779 53.575396 
L 218.485003 53.870515 
L 219.318115 54.270559 
L 222.650564 54.60413 
L 225.1499 55.9807 
L 225.983013 57.198137 
L 228.482349 58.433575 
L 230.148573 60.198207 
L 230.981685 61.678228 
L 231.814798 63.756392 
L 234.314134 65.175365 
L 235.980358 68.167488 
L 236.81347 69.157116 
L 237.646583 70.421899 
L 240.145919 71.32267 
L 241.812143 72.906616 
L 242.645255 73.455098 
L 243.478368 74.507243 
L 245.977704 75.497032 
L 246.810816 75.267331 
L 247.643928 75.710129 
L 248.47704 76.838418 
L 249.310153 78.174456 
L 251.809489 77.823041 
L 252.642601 77.349937 
L 253.475713 74.232039 
L 254.308825 72.939977 
L 255.141938 72.452711 
L 257.641274 71.875083 
L 258.474386 70.89418 
L 259.307498 69.473475 
L 260.973723 67.641476 
L 263.473059 67.28744 
L 264.306171 66.781942 
L 266.805508 66.545615 
L 270.137956 66.410062 
L 270.971068 66.677938 
L 271.80418 66.556783 
L 272.637293 67.077601 
L 276.802853 67.346258 
L 277.635965 67.627056 
L 278.469078 68.105378 
L 280.968414 68.665949 
L 283.46775 69.735611 
L 284.300863 69.112061 
L 286.800199 68.797664 
L 287.633311 69.595812 
L 288.466423 71.177599 
L 289.299536 75.089384 
L 290.132648 78.156736 
L 292.631984 79.555243 
L 293.465096 81.391136 
L 294.298208 84.453831 
L 295.964433 93.175177 
L 299.296881 96.487595 
L 300.129993 98.642582 
L 300.963106 98.480669 
L 301.796218 99.694784 
L 304.295554 100.298217 
L 305.128666 99.915791 
L 305.961778 101.61733 
L 306.794891 102.144137 
L 307.628003 101.684124 
L 310.127339 95.538463 
L 310.960451 92.657524 
L 311.793563 91.971434 
L 312.626676 92.133225 
L 313.459788 91.255172 
L 315.959124 89.781628 
L 316.792236 87.66774 
L 317.625348 86.802928 
L 318.458461 87.101123 
L 319.291573 86.776599 
L 321.790909 87.606401 
L 322.624021 87.504504 
L 323.457133 86.632304 
L 324.290246 86.012646 
L 325.123358 85.89824 
L 327.622694 85.210935 
L 328.455806 84.585284 
L 329.288918 84.495573 
L 330.122031 84.63928 
L 330.955143 84.657306 
L 333.454479 84.034682 
L 334.287591 83.190876 
L 335.120703 80.35895 
L 336.786928 78.006749 
L 340.952488 77.341441 
L 341.785601 76.579529 
L 342.618713 77.439372 
L 345.118049 80.334281 
L 345.951161 82.001265 
L 346.784273 82.983427 
L 347.617386 83.709479 
L 348.450498 84.169619 
L 351.782946 83.842479 
L 352.616058 84.669336 
L 353.449171 84.376507 
L 354.282283 82.52505 
L 356.781619 81.916073 
L 358.447843 81.841804 
L 359.280956 81.463856 
L 360.114068 79.702965 
L 362.613404 75.589719 
L 363.446516 72.850051 
L 364.279628 71.545757 
L 365.945853 70.182315 
L 368.445189 69.271665 
L 369.278301 67.474105 
L 370.111413 66.40785 
L 370.944526 66.064752 
L 371.777638 66.188374 
L 374.276974 65.260803 
L 375.943198 63.730824 
L 376.776311 63.238282 
L 377.609423 63.250595 
L 380.108759 62.630252 
L 380.941871 62.03033 
L 381.774983 61.689132 
L 382.608096 61.572796 
L 385.940544 61.605261 
L 387.606768 62.389204 
L 388.439881 63.028981 
L 389.272993 64.020395 
L 391.772329 64.81305 
L 392.605441 65.518203 
L 393.438553 65.769802 
L 394.271666 66.234188 
L 395.104778 67.263977 
L 397.604114 69.61766 
L 398.437226 72.070738 
L 399.270338 74.007072 
L 400.103451 75.176249 
L 400.936563 75.663426 
L 403.470612 76.27185 
L 404.303724 78.604582 
L 405.136836 80.418283 
L 406.803061 86.223843 
L 409.302397 90.78043 
L 410.968621 98.581765 
L 411.801734 100.620376 
L 412.634846 101.56177 
L 415.134182 102.496145 
L 415.967294 103.036834 
L 416.800406 103.106472 
L 418.466631 91.746543 
L 420.965967 86.901921 
L 422.632191 74.124558 
L 424.298416 66.26919 
L 426.797752 63.905294 
L 427.630864 62.729637 
L 429.297089 61.364568 
L 430.130201 61.040889 
L 432.629537 60.456161 
L 433.462649 59.707769 
L 434.295761 59.284146 
L 435.961986 57.89277 
L 438.461322 57.194964 
L 439.294434 56.80153 
L 440.127546 56.715264 
L 440.960659 56.79338 
L 444.293107 56.791344 
L 446.792444 56.522975 
L 447.625556 56.512065 
L 452.624229 56.631706 
L 453.457341 56.613672 
L 455.956677 57.579273 
L 456.789789 58.089622 
L 457.622901 59.245929 
L 459.289126 62.038338 
L 462.621574 63.367255 
L 463.454686 63.972007 
L 464.287799 63.301727 
L 465.120911 61.809705 
L 467.620247 60.565181 
L 468.453359 58.912513 
L 469.286471 57.558471 
L 470.952696 55.847862 
L 474.285144 55.424671 
L 475.118256 55.494427 
L 476.784481 54.807103 
L 479.283817 54.40533 
L 481.783154 53.404894 
L 482.616266 52.708148 
L 485.115602 51.995076 
L 486.781826 51.035592 
L 488.448051 50.174025 
L 491.780499 49.69212 
L 493.446724 48.670022 
L 494.279836 48.276166 
L 496.779172 47.907556 
L 497.612284 47.410001 
L 499.278509 46.931961 
L 500.111621 46.732769 
L 505.110294 46.363003 
L 508.408029 46.237479 
L 510.907366 45.870325 
L 515.072926 45.87274 
L 516.739151 45.770502 
L 520.071599 46.063255 
L 521.737823 46.516229 
L 522.570936 46.627981 
L 523.404048 46.889376 
L 525.903384 47.184465 
L 529.235833 48.321677 
L 531.735169 48.548847 
L 534.234506 49.655937 
L 537.566954 50.123744 
L 540.066291 52.349826 
L 540.899403 52.480464 
L 543.398739 52.726885 
L 545.898076 52.280131 
L 546.731188 51.801286 
L 549.230524 51.305651 
L 550.063636 50.986776 
L 550.896749 50.852258 
L 552.562973 50.027044 
L 555.062309 49.378246 
L 556.728534 48.26042 
L 557.561646 47.798538 
L 558.394758 47.506135 
L 560.894094 47.241227 
L 564.226543 46.240609 
L 567.558991 45.897217 
L 570.058328 45.561259 
L 574.223889 45.352036 
L 575.890113 45.193618 
L 579.222561 45.342919 
L 580.888786 45.725774 
L 581.721898 45.784778 
L 585.887459 45.749413 
L 586.720571 45.554372 
L 590.886131 45.556157 
L 593.385468 45.952982 
L 597.551029 46.080435 
L 598.384141 46.008425 
L 599.217253 46.126387 
L 603.382814 46.253713 
L 607.548374 46.527824 
L 619.211944 46.703662 
L 620.045056 46.797881 
L 622.544393 47.7788 
L 625.043729 48.150782 
L 627.543066 49.07424 
L 628.376178 49.420765 
L 630.875514 49.69212 
L 631.708626 49.936796 
L 634.207963 51.27955 
L 636.707299 51.670924 
L 639.206636 53.030052 
L 640.039748 53.314376 
L 642.539084 53.48538 
L 644.205309 54.023568 
L 645.038421 54.386876 
L 645.871533 54.280859 
L 649.203981 54.075401 
L 651.703318 53.556295 
L 656.701991 53.276567 
L 660.034439 53.065457 
L 660.867551 52.762459 
L 661.700664 52.613726 
L 663.366888 52.026565 
L 665.866224 51.746028 
L 668.365561 50.642473 
L 669.198673 50.148352 
L 671.698009 49.544745 
L 673.364234 48.556837 
L 675.030458 47.656602 
L 679.196019 47.011551 
L 680.862243 46.480091 
L 683.361579 46.279716 
L 686.694028 45.542656 
L 690.026476 45.305856 
L 692.525813 44.849354 
L 697.524486 44.64 
L 703.356271 44.771717 
L 704.189383 44.893013 
L 707.556544 45.244991 
L 709.222769 45.553097 
L 710.055881 45.789544 
L 713.388329 46.085154 
L 715.054554 46.399073 
L 715.887666 46.644016 
L 718.387002 46.957009 
L 720.053227 47.821937 
L 721.719451 48.247006 
L 724.218787 48.632772 
L 725.885012 49.460816 
L 727.551236 50.514511 
L 730.050572 50.989511 
L 731.716797 51.760409 
L 733.383021 52.353036 
L 735.882357 52.401332 
L 739.214806 53.333697 
L 741.714142 53.487565 
L 742.547254 53.699029 
L 744.213479 54.442344 
L 745.046591 54.659216 
L 748.379039 54.731217 
L 749.212152 54.864196 
L 750.878376 55.342131 
L 756.710161 55.538498 
L 760.042609 55.386423 
L 760.875722 55.486354 
L 762.541946 55.972229 
L 765.874394 56.017488 
L 766.707507 55.89724 
L 767.540619 55.918743 
L 768.373731 56.13821 
L 770.873067 56.416348 
L 772.539292 57.110698 
L 773.372404 57.789503 
L 774.205516 58.250365 
L 776.704852 58.391029 
L 777.537964 58.803094 
L 779.204189 59.885107 
L 780.037301 60.316037 
L 782.536637 60.405528 
L 783.36975 60.879273 
L 785.869086 61.445302 
L 788.368422 61.614552 
L 789.201535 62.049559 
L 790.034647 62.821274 
L 791.700871 63.571214 
L 797.532656 63.006506 
L 800.031992 62.645362 
L 800.865105 62.256494 
L 801.698217 62.059183 
L 802.531329 62.180118 
L 803.364441 62.513319 
L 807.530002 62.773677 
L 808.363114 62.188222 
L 809.196226 61.240688 
L 812.493962 59.585341 
L 813.327074 58.734782 
L 814.160186 58.128726 
L 814.993298 57.37411 
L 818.325747 56.56972 
L 819.991971 55.933728 
L 820.825083 55.837643 
L 826.656868 55.909388 
L 829.156204 56.047772 
L 830.822429 56.741576 
L 831.655541 57.022928 
L 834.987989 57.307648 
L 837.487326 57.995878 
L 838.320438 58.286534 
L 840.819774 58.467967 
L 841.652887 58.681396 
L 842.485999 59.066734 
L 843.319111 59.312253 
L 844.152223 60.084264 
L 846.651559 61.216661 
L 847.484672 62.438707 
L 848.317784 63.273492 
L 849.984008 66.505484 
L 852.483344 68.76916 
L 853.316457 70.511221 
L 854.149569 71.413988 
L 854.982681 72.089792 
L 855.815793 73.904462 
L 858.315129 75.667313 
L 860.814466 79.113759 
L 861.647578 80.059956 
L 864.980027 81.128311 
L 865.813139 82.248083 
L 866.646251 83.947115 
L 867.479363 84.892954 
L 870.811812 86.352757 
L 871.644924 85.752857 
L 872.478036 84.923339 
L 873.311148 84.394325 
L 876.643597 84.093253 
L 877.476709 83.451522 
L 878.309821 83.918 
L 879.142933 85.464759 
L 881.642269 86.770023 
L 882.475382 88.777283 
L 883.308494 92.467942 
L 884.141606 97.089295 
L 884.974718 100.340988 
L 887.474054 101.175412 
L 888.307167 102.828756 
L 889.973391 113.028487 
L 890.806503 124.006304 
L 894.138952 130.478095 
L 894.972064 138.608494 
L 895.805176 149.852223 
L 896.638288 158.409693 
L 899.137624 164.968583 
L 900.803849 181.128669 
L 901.636961 190.211884 
L 902.470073 196.184212 
L 904.969409 200.29699 
L 906.635634 204.299556 
L 907.468746 206.798193 
L 908.301858 211.558317 
L 910.801194 217.077673 
L 912.467419 224.879476 
L 914.133643 230.751548 
L 916.632979 232.053539 
L 917.466092 232.799178 
L 918.299204 233.339694 
L 919.132316 233.323174 
L 919.965428 233.509672 
L 923.297877 233.3507 
L 924.130989 234.329665 
L 924.964101 234.434585 
L 925.797213 234.720483 
L 928.296549 235.165 
L 929.129662 234.96689 
L 929.962774 233.808027 
L 930.795886 232.29139 
L 931.628998 229.736057 
L 934.128334 228.185532 
L 934.961447 226.960305 
L 935.794559 225.306078 
L 936.627671 223.375897 
L 937.460783 222.279673 
L 939.960119 221.201555 
L 943.292568 210.154985 
L 945.791904 207.477063 
L 946.625017 204.502743 
L 947.458129 200.819012 
L 948.291241 194.819764 
L 949.124353 190.517572 
L 951.623689 187.394435 
L 952.456802 185.05957 
L 953.289914 184.811657 
L 954.123026 185.675839 
L 954.956138 186.711903 
L 958.288587 186.509909 
L 959.121699 185.30668 
L 959.954811 182.778612 
L 960.787923 183.979527 
L 963.287259 182.990572 
L 964.120372 181.710786 
L 964.953484 182.672432 
L 965.786596 189.324815 
L 966.619708 193.329794 
L 969.119044 198.69575 
L 969.952157 201.350803 
L 970.785269 202.65378 
L 972.451493 198.000273 
L 974.950829 194.446507 
L 975.783942 186.610976 
L 976.617054 182.969402 
L 977.450166 181.775232 
L 978.283278 182.566113 
L 980.782614 181.903971 
L 981.615727 176.044656 
L 982.448839 172.328181 
L 983.281951 166.349892 
L 984.115063 165.744907 
L 986.614399 160.816109 
L 987.447512 156.026714 
L 988.280624 152.013193 
L 989.113736 145.25703 
L 989.946848 132.366105 
L 992.446184 124.192592 
L 994.112409 110.143802 
L 995.778633 93.73704 
L 998.277969 88.60661 
L 999.111082 85.458536 
L 1000.777306 77.866624 
L 1001.610418 74.853539 
L 1004.109754 72.833447 
L 1004.942867 71.545755 
L 1005.775979 71.021859 
L 1006.609091 71.591967 
L 1007.442203 72.313695 
L 1009.976252 72.973401 
L 1011.642477 75.835247 
L 1012.475589 76.657236 
L 1013.308701 78.081599 
L 1015.808037 79.380318 
L 1017.474262 84.717501 
L 1019.140486 89.967872 
L 1021.639822 93.386675 
L 1023.306047 99.947489 
L 1024.972271 104.747516 
L 1027.471607 113.799836 
L 1028.30472 121.245417 
L 1029.137832 130.621694 
L 1029.970944 144.572866 
L 1030.804056 165.890233 
L 1033.303393 185.409399 
L 1034.136505 199.235399 
L 1035.802729 216.467475 
L 1036.635841 224.110008 
L 1039.135178 230.265038 
L 1039.96829 234.653251 
L 1040.801402 237.527155 
L 1041.634514 239.410917 
L 1042.467626 240.744242 
L 1044.966963 241.617542 
L 1045.800075 242.453856 
L 1047.466299 243.112811 
L 1048.299411 243.850081 
L 1051.63186 244.222709 
L 1052.464972 244.935026 
L 1054.131196 245.927722 
L 1057.463645 246.24 
L 1058.296757 246.173595 
L 1059.129869 245.972708 
L 1062.462318 245.908002 
L 1064.128542 245.823209 
L 1065.794766 245.972708 
L 1069.127215 245.712307 
L 1069.960327 245.083976 
L 1070.793439 244.769612 
L 1071.626551 244.633035 
L 1074.125888 244.565854 
L 1074.959 244.721181 
L 1076.625224 244.225832 
L 1077.458336 243.850081 
L 1079.957673 243.393833 
L 1080.790785 243.119476 
L 1081.623897 242.415739 
L 1083.290121 241.475491 
L 1085.789458 241.475491 
L 1086.62257 241.689956 
L 1088.288794 241.833913 
L 1091.621243 241.117266 
L 1092.454355 239.803367 
L 1093.287467 239.324871 
L 1094.953691 239.29199 
L 1098.28614 238.420968 
L 1099.119252 237.423286 
L 1099.952364 236.6007 
L 1100.785476 236.094504 
L 1103.284813 235.456211 
L 1104.117925 235.089021 
L 1104.951037 235.089021 
L 1105.784149 235.782724 
L 1106.617261 236.277414 
L 1109.116598 236.186163 
L 1109.94971 235.565619 
L 1110.782822 234.575411 
L 1112.449046 233.185022 
L 1114.91367 232.071026 
L 1115.746782 231.930733 
L 1116.579894 231.671253 
L 1117.413006 231.641579 
L 1118.246118 231.324637 
L 1120.745455 231.03377 
L 1120.745455 231.03377 
" clip-path="url(#pd1311590d5)" style="fill: none; stroke: #ff0000; stroke-width: 1.5; stroke-linecap: square"/>
   </g>
   <g id="patch_7">
    <path d="M 162 256.32 
L 162 34.56 
" style="fill: none; stroke: #000000; stroke-width: 0.8; stroke-linejoin: miter; stroke-linecap: square"/>
   </g>
   <g id="patch_8">
    <path d="M 1166.4 256.32 
L 1166.4 34.56 
" style="fill: none; stroke: #000000; stroke-width: 0.8; stroke-linejoin: miter; stroke-linecap: square"/>
   </g>
   <g id="patch_9">
    <path d="M 162 256.32 
L 1166.4 256.32 
" style="fill: none; stroke: #000000; stroke-width: 0.8; stroke-linejoin: miter; stroke-linecap: square"/>
   </g>
   <g id="patch_10">
    <path d="M 162 34.56 
L 1166.4 34.56 
" style="fill: none; stroke: #000000; stroke-width: 0.8; stroke-linejoin: miter; stroke-linecap: square"/>
   </g>
   <g id="text_27">
    <!-- VIX and Cumulative Probability Indicator (smoothed 30 periods) - 3Y (Updated 2024-03-19 05:11:51) -->
    <g transform="translate(361.360313 28.56) scale(0.12 -0.12)">
     <defs>
      <path id="DejaVuSans-20" transform="scale(0.015625)"/>
      <path id="DejaVuSans-43" d="M 4122 4306 
L 4122 3641 
Q 3803 3938 3442 4084 
Q 3081 4231 2675 4231 
Q 1875 4231 1450 3742 
Q 1025 3253 1025 2328 
Q 1025 1406 1450 917 
Q 1875 428 2675 428 
Q 3081 428 3442 575 
Q 3803 722 4122 1019 
L 4122 359 
Q 3791 134 3420 21 
Q 3050 -91 2638 -91 
Q 1578 -91 968 557 
Q 359 1206 359 2328 
Q 359 3453 968 4101 
Q 1578 4750 2638 4750 
Q 3056 4750 3426 4639 
Q 3797 4528 4122 4306 
z
" transform="scale(0.015625)"/>
      <path id="DejaVuSans-75" d="M 544 1381 
L 544 3500 
L 1119 3500 
L 1119 1403 
Q 1119 906 1312 657 
Q 1506 409 1894 409 
Q 2359 409 2629 706 
Q 2900 1003 2900 1516 
L 2900 3500 
L 3475 3500 
L 3475 0 
L 2900 0 
L 2900 538 
Q 2691 219 2414 64 
Q 2138 -91 1772 -91 
Q 1169 -91 856 284 
Q 544 659 544 1381 
z
M 1991 3584 
L 1991 3584 
z
" transform="scale(0.015625)"/>
      <path id="DejaVuSans-6d" d="M 3328 2828 
Q 3544 3216 3844 3400 
Q 4144 3584 4550 3584 
Q 5097 3584 5394 3201 
Q 5691 2819 5691 2113 
L 5691 0 
L 5113 0 
L 5113 2094 
Q 5113 2597 4934 2840 
Q 4756 3084 4391 3084 
Q 3944 3084 3684 2787 
Q 3425 2491 3425 1978 
L 3425 0 
L 2847 0 
L 2847 2094 
Q 2847 2600 2669 2842 
Q 2491 3084 2119 3084 
Q 1678 3084 1418 2786 
Q 1159 2488 1159 1978 
L 1159 0 
L 581 0 
L 581 3500 
L 1159 3500 
L 1159 2956 
Q 1356 3278 1631 3431 
Q 1906 3584 2284 3584 
Q 2666 3584 2933 3390 
Q 3200 3197 3328 2828 
z
" transform="scale(0.015625)"/>
      <path id="DejaVuSans-6c" d="M 603 4863 
L 1178 4863 
L 1178 0 
L 603 0 
L 603 4863 
z
" transform="scale(0.015625)"/>
      <path id="DejaVuSans-76" d="M 191 3500 
L 800 3500 
L 1894 563 
L 2988 3500 
L 3597 3500 
L 2284 0 
L 1503 0 
L 191 3500 
z
" transform="scale(0.015625)"/>
      <path id="DejaVuSans-50" d="M 1259 4147 
L 1259 2394 
L 2053 2394 
Q 2494 2394 2734 2622 
Q 2975 2850 2975 3272 
Q 2975 3691 2734 3919 
Q 2494 4147 2053 4147 
L 1259 4147 
z
M 628 4666 
L 2053 4666 
Q 2838 4666 3239 4311 
Q 3641 3956 3641 3272 
Q 3641 2581 3239 2228 
Q 2838 1875 2053 1875 
L 1259 1875 
L 1259 0 
L 628 0 
L 628 4666 
z
" transform="scale(0.015625)"/>
      <path id="DejaVuSans-62" d="M 3116 1747 
Q 3116 2381 2855 2742 
Q 2594 3103 2138 3103 
Q 1681 3103 1420 2742 
Q 1159 2381 1159 1747 
Q 1159 1113 1420 752 
Q 1681 391 2138 391 
Q 2594 391 2855 752 
Q 3116 1113 3116 1747 
z
M 1159 2969 
Q 1341 3281 1617 3432 
Q 1894 3584 2278 3584 
Q 2916 3584 3314 3078 
Q 3713 2572 3713 1747 
Q 3713 922 3314 415 
Q 2916 -91 2278 -91 
Q 1894 -91 1617 61 
Q 1341 213 1159 525 
L 1159 0 
L 581 0 
L 581 4863 
L 1159 4863 
L 1159 2969 
z
" transform="scale(0.015625)"/>
      <path id="DejaVuSans-79" d="M 2059 -325 
Q 1816 -950 1584 -1140 
Q 1353 -1331 966 -1331 
L 506 -1331 
L 506 -850 
L 844 -850 
Q 1081 -850 1212 -737 
Q 1344 -625 1503 -206 
L 1606 56 
L 191 3500 
L 800 3500 
L 1894 763 
L 2988 3500 
L 3597 3500 
L 2059 -325 
z
" transform="scale(0.015625)"/>
      <path id="DejaVuSans-28" d="M 1984 4856 
Q 1566 4138 1362 3434 
Q 1159 2731 1159 2009 
Q 1159 1288 1364 580 
Q 1569 -128 1984 -844 
L 1484 -844 
Q 1016 -109 783 600 
Q 550 1309 550 2009 
Q 550 2706 781 3412 
Q 1013 4119 1484 4856 
L 1984 4856 
z
" transform="scale(0.015625)"/>
      <path id="DejaVuSans-73" d="M 2834 3397 
L 2834 2853 
Q 2591 2978 2328 3040 
Q 2066 3103 1784 3103 
Q 1356 3103 1142 2972 
Q 928 2841 928 2578 
Q 928 2378 1081 2264 
Q 1234 2150 1697 2047 
L 1894 2003 
Q 2506 1872 2764 1633 
Q 3022 1394 3022 966 
Q 3022 478 2636 193 
Q 2250 -91 1575 -91 
Q 1294 -91 989 -36 
Q 684 19 347 128 
L 347 722 
Q 666 556 975 473 
Q 1284 391 1588 391 
Q 1994 391 2212 530 
Q 2431 669 2431 922 
Q 2431 1156 2273 1281 
Q 2116 1406 1581 1522 
L 1381 1569 
Q 847 1681 609 1914 
Q 372 2147 372 2553 
Q 372 3047 722 3315 
Q 1072 3584 1716 3584 
Q 2034 3584 2315 3537 
Q 2597 3491 2834 3397 
z
" transform="scale(0.015625)"/>
      <path id="DejaVuSans-68" d="M 3513 2113 
L 3513 0 
L 2938 0 
L 2938 2094 
Q 2938 2591 2744 2837 
Q 2550 3084 2163 3084 
Q 1697 3084 1428 2787 
Q 1159 2491 1159 1978 
L 1159 0 
L 581 0 
L 581 4863 
L 1159 4863 
L 1159 2956 
Q 1366 3272 1645 3428 
Q 1925 3584 2291 3584 
Q 2894 3584 3203 3211 
Q 3513 2838 3513 2113 
z
" transform="scale(0.015625)"/>
      <path id="DejaVuSans-70" d="M 1159 525 
L 1159 -1331 
L 581 -1331 
L 581 3500 
L 1159 3500 
L 1159 2969 
Q 1341 3281 1617 3432 
Q 1894 3584 2278 3584 
Q 2916 3584 3314 3078 
Q 3713 2572 3713 1747 
Q 3713 922 3314 415 
Q 2916 -91 2278 -91 
Q 1894 -91 1617 61 
Q 1341 213 1159 525 
z
M 3116 1747 
Q 3116 2381 2855 2742 
Q 2594 3103 2138 3103 
Q 1681 3103 1420 2742 
Q 1159 2381 1159 1747 
Q 1159 1113 1420 752 
Q 1681 391 2138 391 
Q 2594 391 2855 752 
Q 3116 1113 3116 1747 
z
" transform="scale(0.015625)"/>
      <path id="DejaVuSans-29" d="M 513 4856 
L 1013 4856 
Q 1481 4119 1714 3412 
Q 1947 2706 1947 2009 
Q 1947 1309 1714 600 
Q 1481 -109 1013 -844 
L 513 -844 
Q 928 -128 1133 580 
Q 1338 1288 1338 2009 
Q 1338 2731 1133 3434 
Q 928 4138 513 4856 
z
" transform="scale(0.015625)"/>
      <path id="DejaVuSans-59" d="M -13 4666 
L 666 4666 
L 1959 2747 
L 3244 4666 
L 3922 4666 
L 2272 2222 
L 2272 0 
L 1638 0 
L 1638 2222 
L -13 4666 
z
" transform="scale(0.015625)"/>
      <path id="DejaVuSans-55" d="M 556 4666 
L 1191 4666 
L 1191 1831 
Q 1191 1081 1462 751 
Q 1734 422 2344 422 
Q 2950 422 3222 751 
Q 3494 1081 3494 1831 
L 3494 4666 
L 4128 4666 
L 4128 1753 
Q 4128 841 3676 375 
Q 3225 -91 2344 -91 
Q 1459 -91 1007 375 
Q 556 841 556 1753 
L 556 4666 
z
" transform="scale(0.015625)"/>
      <path id="DejaVuSans-3a" d="M 750 794 
L 1409 794 
L 1409 0 
L 750 0 
L 750 794 
z
M 750 3309 
L 1409 3309 
L 1409 2516 
L 750 2516 
L 750 3309 
z
" transform="scale(0.015625)"/>
     </defs>
     <use xlink:href="#DejaVuSans-56"/>
     <use xlink:href="#DejaVuSans-49" x="68.408203"/>
     <use xlink:href="#DejaVuSans-58" x="97.900391"/>
     <use xlink:href="#DejaVuSans-20" x="166.40625"/>
     <use xlink:href="#DejaVuSans-61" x="198.193359"/>
     <use xlink:href="#DejaVuSans-6e" x="259.472656"/>
     <use xlink:href="#DejaVuSans-64" x="322.851562"/>
     <use xlink:href="#DejaVuSans-20" x="386.328125"/>
     <use xlink:href="#DejaVuSans-43" x="418.115234"/>
     <use xlink:href="#DejaVuSans-75" x="487.939453"/>
     <use xlink:href="#DejaVuSans-6d" x="551.318359"/>
     <use xlink:href="#DejaVuSans-75" x="648.730469"/>
     <use xlink:href="#DejaVuSans-6c" x="712.109375"/>
     <use xlink:href="#DejaVuSans-61" x="739.892578"/>
     <use xlink:href="#DejaVuSans-74" x="801.171875"/>
     <use xlink:href="#DejaVuSans-69" x="840.380859"/>
     <use xlink:href="#DejaVuSans-76" x="868.164062"/>
     <use xlink:href="#DejaVuSans-65" x="927.34375"/>
     <use xlink:href="#DejaVuSans-20" x="988.867188"/>
     <use xlink:href="#DejaVuSans-50" x="1020.654297"/>
     <use xlink:href="#DejaVuSans-72" x="1079.207031"/>
     <use xlink:href="#DejaVuSans-6f" x="1118.070312"/>
     <use xlink:href="#DejaVuSans-62" x="1179.251953"/>
     <use xlink:href="#DejaVuSans-61" x="1242.728516"/>
     <use xlink:href="#DejaVuSans-62" x="1304.007812"/>
     <use xlink:href="#DejaVuSans-69" x="1367.484375"/>
     <use xlink:href="#DejaVuSans-6c" x="1395.267578"/>
     <use xlink:href="#DejaVuSans-69" x="1423.050781"/>
     <use xlink:href="#DejaVuSans-74" x="1450.833984"/>
     <use xlink:href="#DejaVuSans-79" x="1490.042969"/>
     <use xlink:href="#DejaVuSans-20" x="1549.222656"/>
     <use xlink:href="#DejaVuSans-49" x="1581.009766"/>
     <use xlink:href="#DejaVuSans-6e" x="1610.501953"/>
     <use xlink:href="#DejaVuSans-64" x="1673.880859"/>
     <use xlink:href="#DejaVuSans-69" x="1737.357422"/>
     <use xlink:href="#DejaVuSans-63" x="1765.140625"/>
     <use xlink:href="#DejaVuSans-61" x="1820.121094"/>
     <use xlink:href="#DejaVuSans-74" x="1881.400391"/>
     <use xlink:href="#DejaVuSans-6f" x="1920.609375"/>
     <use xlink:href="#DejaVuSans-72" x="1981.791016"/>
     <use xlink:href="#DejaVuSans-20" x="2022.904297"/>
     <use xlink:href="#DejaVuSans-28" x="2054.691406"/>
     <use xlink:href="#DejaVuSans-73" x="2093.705078"/>
     <use xlink:href="#DejaVuSans-6d" x="2145.804688"/>
     <use xlink:href="#DejaVuSans-6f" x="2243.216797"/>
     <use xlink:href="#DejaVuSans-6f" x="2304.398438"/>
     <use xlink:href="#DejaVuSans-74" x="2365.580078"/>
     <use xlink:href="#DejaVuSans-68" x="2404.789062"/>
     <use xlink:href="#DejaVuSans-65" x="2468.167969"/>
     <use xlink:href="#DejaVuSans-64" x="2529.691406"/>
     <use xlink:href="#DejaVuSans-20" x="2593.167969"/>
     <use xlink:href="#DejaVuSans-33" x="2624.955078"/>
     <use xlink:href="#DejaVuSans-30" x="2688.578125"/>
     <use xlink:href="#DejaVuSans-20" x="2752.201172"/>
     <use xlink:href="#DejaVuSans-70" x="2783.988281"/>
     <use xlink:href="#DejaVuSans-65" x="2847.464844"/>
     <use xlink:href="#DejaVuSans-72" x="2908.988281"/>
     <use xlink:href="#DejaVuSans-69" x="2950.101562"/>
     <use xlink:href="#DejaVuSans-6f" x="2977.884766"/>
     <use xlink:href="#DejaVuSans-64" x="3039.066406"/>
     <use xlink:href="#DejaVuSans-73" x="3102.542969"/>
     <use xlink:href="#DejaVuSans-29" x="3154.642578"/>
     <use xlink:href="#DejaVuSans-20" x="3193.65625"/>
     <use xlink:href="#DejaVuSans-2d" x="3225.443359"/>
     <use xlink:href="#DejaVuSans-20" x="3261.527344"/>
     <use xlink:href="#DejaVuSans-33" x="3293.314453"/>
     <use xlink:href="#DejaVuSans-59" x="3356.9375"/>
     <use xlink:href="#DejaVuSans-20" x="3418.021484"/>
     <use xlink:href="#DejaVuSans-28" x="3449.808594"/>
     <use xlink:href="#DejaVuSans-55" x="3488.822266"/>
     <use xlink:href="#DejaVuSans-70" x="3562.015625"/>
     <use xlink:href="#DejaVuSans-64" x="3625.492188"/>
     <use xlink:href="#DejaVuSans-61" x="3688.96875"/>
     <use xlink:href="#DejaVuSans-74" x="3750.248047"/>
     <use xlink:href="#DejaVuSans-65" x="3789.457031"/>
     <use xlink:href="#DejaVuSans-64" x="3850.980469"/>
     <use xlink:href="#DejaVuSans-20" x="3914.457031"/>
     <use xlink:href="#DejaVuSans-32" x="3946.244141"/>
     <use xlink:href="#DejaVuSans-30" x="4009.867188"/>
     <use xlink:href="#DejaVuSans-32" x="4073.490234"/>
     <use xlink:href="#DejaVuSans-34" x="4137.113281"/>
     <use xlink:href="#DejaVuSans-2d" x="4200.736328"/>
     <use xlink:href="#DejaVuSans-30" x="4236.820312"/>
     <use xlink:href="#DejaVuSans-33" x="4300.443359"/>
     <use xlink:href="#DejaVuSans-2d" x="4364.066406"/>
     <use xlink:href="#DejaVuSans-31" x="4400.150391"/>
     <use xlink:href="#DejaVuSans-39" x="4463.773438"/>
     <use xlink:href="#DejaVuSans-20" x="4527.396484"/>
     <use xlink:href="#DejaVuSans-30" x="4559.183594"/>
     <use xlink:href="#DejaVuSans-35" x="4622.806641"/>
     <use xlink:href="#DejaVuSans-3a" x="4686.429688"/>
     <use xlink:href="#DejaVuSans-31" x="4720.121094"/>
     <use xlink:href="#DejaVuSans-31" x="4783.744141"/>
     <use xlink:href="#DejaVuSans-3a" x="4847.367188"/>
     <use xlink:href="#DejaVuSans-35" x="4881.058594"/>
     <use xlink:href="#DejaVuSans-31" x="4944.681641"/>
     <use xlink:href="#DejaVuSans-29" x="5008.304688"/>
    </g>
   </g>
  </g>
  <g id="legend_1">
   <g id="patch_11">
    <path d="M 7 37.35625 
L 83.190625 37.35625 
Q 85.190625 37.35625 85.190625 35.35625 
L 85.190625 7 
Q 85.190625 5 83.190625 5 
L 7 5 
Q 5 5 5 7 
L 5 35.35625 
Q 5 37.35625 7 37.35625 
z
" style="fill: #ffffff; opacity: 0.8; stroke: #cccccc; stroke-linejoin: miter"/>
   </g>
   <g id="line2d_26">
    <path d="M 9 13.098437 
L 19 13.098437 
L 29 13.098437 
" style="fill: none; stroke: #0000ff; stroke-width: 1.5; stroke-linecap: square"/>
   </g>
   <g id="text_28">
    <!-- VIX -->
    <g transform="translate(37 16.598437) scale(0.1 -0.1)">
     <use xlink:href="#DejaVuSans-56"/>
     <use xlink:href="#DejaVuSans-49" x="68.408203"/>
     <use xlink:href="#DejaVuSans-58" x="97.900391"/>
    </g>
   </g>
   <g id="line2d_27">
    <path d="M 9 27.776563 
L 19 27.776563 
L 29 27.776563 
" style="fill: none; stroke: #ff0000; stroke-width: 1.5; stroke-linecap: square"/>
   </g>
   <g id="text_29">
    <!-- Indicator -->
    <g transform="translate(37 31.276563) scale(0.1 -0.1)">
     <use xlink:href="#DejaVuSans-49"/>
     <use xlink:href="#DejaVuSans-6e" x="29.492188"/>
     <use xlink:href="#DejaVuSans-64" x="92.871094"/>
     <use xlink:href="#DejaVuSans-69" x="156.347656"/>
     <use xlink:href="#DejaVuSans-63" x="184.130859"/>
     <use xlink:href="#DejaVuSans-61" x="239.111328"/>
     <use xlink:href="#DejaVuSans-74" x="300.390625"/>
     <use xlink:href="#DejaVuSans-6f" x="339.599609"/>
     <use xlink:href="#DejaVuSans-72" x="400.78125"/>
    </g>
   </g>
  </g>
 </g>
 <defs>
  <clipPath id="pd1311590d5">
   <rect x="162" y="34.56" width="1004.4" height="221.76"/>
  </clipPath>
 </defs>
</svg>
