<?xml version="1.0" encoding="utf-8" standalone="no"?>
<!DOCTYPE svg PUBLIC "-//W3C//DTD SVG 1.1//EN"
  "http://www.w3.org/Graphics/SVG/1.1/DTD/svg11.dtd">
<svg xmlns:xlink="http://www.w3.org/1999/xlink" width="1296pt" height="288pt" viewBox="0 0 1296 288" xmlns="http://www.w3.org/2000/svg" version="1.1">
 <metadata>
  <rdf:RDF xmlns:dc="http://purl.org/dc/elements/1.1/" xmlns:cc="http://creativecommons.org/ns#" xmlns:rdf="http://www.w3.org/1999/02/22-rdf-syntax-ns#">
   <cc:Work>
    <dc:type rdf:resource="http://purl.org/dc/dcmitype/StillImage"/>
    <dc:date>2024-03-20T15:25:33.377290</dc:date>
    <dc:format>image/svg+xml</dc:format>
    <dc:creator>
     <cc:Agent>
      <dc:title>Matplotlib v3.8.0, https://matplotlib.org/</dc:title>
     </cc:Agent>
    </dc:creator>
   </cc:Work>
  </rdf:RDF>
 </metadata>
 <defs>
  <style type="text/css">*{stroke-linejoin: round; stroke-linecap: butt}</style>
 </defs>
 <g id="figure_1">
  <g id="patch_1">
   <path d="M 0 288 
L 1296 288 
L 1296 0 
L 0 0 
z
" style="fill: #ffffff"/>
  </g>
  <g id="axes_1">
   <g id="patch_2">
    <path d="M 162 256.32 
L 1166.4 256.32 
L 1166.4 34.56 
L 162 34.56 
z
" style="fill: #ffffff"/>
   </g>
   <g id="matplotlib.axis_1">
    <g id="xtick_1">
     <g id="line2d_1">
      <defs>
       <path id="m0f56f7f10d" d="M 0 0 
L 0 3.5 
" style="stroke: #000000; stroke-width: 0.8"/>
      </defs>
      <g>
       <use xlink:href="#m0f56f7f10d" x="241.039953" y="256.32" style="stroke: #000000; stroke-width: 0.8"/>
      </g>
     </g>
     <g id="text_1">
      <!-- 2021-05 -->
      <g transform="translate(220.148547 270.918437) scale(0.1 -0.1)">
       <defs>
        <path id="DejaVuSans-32" d="M 1228 531 
L 3431 531 
L 3431 0 
L 469 0 
L 469 531 
Q 828 903 1448 1529 
Q 2069 2156 2228 2338 
Q 2531 2678 2651 2914 
Q 2772 3150 2772 3378 
Q 2772 3750 2511 3984 
Q 2250 4219 1831 4219 
Q 1534 4219 1204 4116 
Q 875 4013 500 3803 
L 500 4441 
Q 881 4594 1212 4672 
Q 1544 4750 1819 4750 
Q 2544 4750 2975 4387 
Q 3406 4025 3406 3419 
Q 3406 3131 3298 2873 
Q 3191 2616 2906 2266 
Q 2828 2175 2409 1742 
Q 1991 1309 1228 531 
z
" transform="scale(0.015625)"/>
        <path id="DejaVuSans-30" d="M 2034 4250 
Q 1547 4250 1301 3770 
Q 1056 3291 1056 2328 
Q 1056 1369 1301 889 
Q 1547 409 2034 409 
Q 2525 409 2770 889 
Q 3016 1369 3016 2328 
Q 3016 3291 2770 3770 
Q 2525 4250 2034 4250 
z
M 2034 4750 
Q 2819 4750 3233 4129 
Q 3647 3509 3647 2328 
Q 3647 1150 3233 529 
Q 2819 -91 2034 -91 
Q 1250 -91 836 529 
Q 422 1150 422 2328 
Q 422 3509 836 4129 
Q 1250 4750 2034 4750 
z
" transform="scale(0.015625)"/>
        <path id="DejaVuSans-31" d="M 794 531 
L 1825 531 
L 1825 4091 
L 703 3866 
L 703 4441 
L 1819 4666 
L 2450 4666 
L 2450 531 
L 3481 531 
L 3481 0 
L 794 0 
L 794 531 
z
" transform="scale(0.015625)"/>
        <path id="DejaVuSans-2d" d="M 313 2009 
L 1997 2009 
L 1997 1497 
L 313 1497 
L 313 2009 
z
" transform="scale(0.015625)"/>
        <path id="DejaVuSans-35" d="M 691 4666 
L 3169 4666 
L 3169 4134 
L 1269 4134 
L 1269 2991 
Q 1406 3038 1543 3061 
Q 1681 3084 1819 3084 
Q 2600 3084 3056 2656 
Q 3513 2228 3513 1497 
Q 3513 744 3044 326 
Q 2575 -91 1722 -91 
Q 1428 -91 1123 -41 
Q 819 9 494 109 
L 494 744 
Q 775 591 1075 516 
Q 1375 441 1709 441 
Q 2250 441 2565 725 
Q 2881 1009 2881 1497 
Q 2881 1984 2565 2268 
Q 2250 2553 1709 2553 
Q 1456 2553 1204 2497 
Q 953 2441 691 2322 
L 691 4666 
z
" transform="scale(0.015625)"/>
       </defs>
       <use xlink:href="#DejaVuSans-32"/>
       <use xlink:href="#DejaVuSans-30" x="63.623047"/>
       <use xlink:href="#DejaVuSans-32" x="127.246094"/>
       <use xlink:href="#DejaVuSans-31" x="190.869141"/>
       <use xlink:href="#DejaVuSans-2d" x="254.492188"/>
       <use xlink:href="#DejaVuSans-30" x="290.576172"/>
       <use xlink:href="#DejaVuSans-35" x="354.199219"/>
      </g>
     </g>
    </g>
    <g id="xtick_2">
     <g id="line2d_2">
      <g>
       <use xlink:href="#m0f56f7f10d" x="343.700083" y="256.32" style="stroke: #000000; stroke-width: 0.8"/>
      </g>
     </g>
     <g id="text_2">
      <!-- 2021-09 -->
      <g transform="translate(322.808677 270.918437) scale(0.1 -0.1)">
       <defs>
        <path id="DejaVuSans-39" d="M 703 97 
L 703 672 
Q 941 559 1184 500 
Q 1428 441 1663 441 
Q 2288 441 2617 861 
Q 2947 1281 2994 2138 
Q 2813 1869 2534 1725 
Q 2256 1581 1919 1581 
Q 1219 1581 811 2004 
Q 403 2428 403 3163 
Q 403 3881 828 4315 
Q 1253 4750 1959 4750 
Q 2769 4750 3195 4129 
Q 3622 3509 3622 2328 
Q 3622 1225 3098 567 
Q 2575 -91 1691 -91 
Q 1453 -91 1209 -44 
Q 966 3 703 97 
z
M 1959 2075 
Q 2384 2075 2632 2365 
Q 2881 2656 2881 3163 
Q 2881 3666 2632 3958 
Q 2384 4250 1959 4250 
Q 1534 4250 1286 3958 
Q 1038 3666 1038 3163 
Q 1038 2656 1286 2365 
Q 1534 2075 1959 2075 
z
" transform="scale(0.015625)"/>
       </defs>
       <use xlink:href="#DejaVuSans-32"/>
       <use xlink:href="#DejaVuSans-30" x="63.623047"/>
       <use xlink:href="#DejaVuSans-32" x="127.246094"/>
       <use xlink:href="#DejaVuSans-31" x="190.869141"/>
       <use xlink:href="#DejaVuSans-2d" x="254.492188"/>
       <use xlink:href="#DejaVuSans-30" x="290.576172"/>
       <use xlink:href="#DejaVuSans-39" x="354.199219"/>
      </g>
     </g>
    </g>
    <g id="xtick_3">
     <g id="line2d_3">
      <g>
       <use xlink:href="#m0f56f7f10d" x="445.560354" y="256.32" style="stroke: #000000; stroke-width: 0.8"/>
      </g>
     </g>
     <g id="text_3">
      <!-- 2022-01 -->
      <g transform="translate(424.668948 270.918437) scale(0.1 -0.1)">
       <use xlink:href="#DejaVuSans-32"/>
       <use xlink:href="#DejaVuSans-30" x="63.623047"/>
       <use xlink:href="#DejaVuSans-32" x="127.246094"/>
       <use xlink:href="#DejaVuSans-32" x="190.869141"/>
       <use xlink:href="#DejaVuSans-2d" x="254.492188"/>
       <use xlink:href="#DejaVuSans-30" x="290.576172"/>
       <use xlink:href="#DejaVuSans-31" x="354.199219"/>
      </g>
     </g>
    </g>
    <g id="xtick_4">
     <g id="line2d_4">
      <g>
       <use xlink:href="#m0f56f7f10d" x="545.681802" y="256.32" style="stroke: #000000; stroke-width: 0.8"/>
      </g>
     </g>
     <g id="text_4">
      <!-- 2022-05 -->
      <g transform="translate(524.790395 270.918437) scale(0.1 -0.1)">
       <use xlink:href="#DejaVuSans-32"/>
       <use xlink:href="#DejaVuSans-30" x="63.623047"/>
       <use xlink:href="#DejaVuSans-32" x="127.246094"/>
       <use xlink:href="#DejaVuSans-32" x="190.869141"/>
       <use xlink:href="#DejaVuSans-2d" x="254.492188"/>
       <use xlink:href="#DejaVuSans-30" x="290.576172"/>
       <use xlink:href="#DejaVuSans-35" x="354.199219"/>
      </g>
     </g>
    </g>
    <g id="xtick_5">
     <g id="line2d_5">
      <g>
       <use xlink:href="#m0f56f7f10d" x="648.341931" y="256.32" style="stroke: #000000; stroke-width: 0.8"/>
      </g>
     </g>
     <g id="text_5">
      <!-- 2022-09 -->
      <g transform="translate(627.450525 270.918437) scale(0.1 -0.1)">
       <use xlink:href="#DejaVuSans-32"/>
       <use xlink:href="#DejaVuSans-30" x="63.623047"/>
       <use xlink:href="#DejaVuSans-32" x="127.246094"/>
       <use xlink:href="#DejaVuSans-32" x="190.869141"/>
       <use xlink:href="#DejaVuSans-2d" x="254.492188"/>
       <use xlink:href="#DejaVuSans-30" x="290.576172"/>
       <use xlink:href="#DejaVuSans-39" x="354.199219"/>
      </g>
     </g>
    </g>
    <g id="xtick_6">
     <g id="line2d_6">
      <g>
       <use xlink:href="#m0f56f7f10d" x="750.202202" y="256.32" style="stroke: #000000; stroke-width: 0.8"/>
      </g>
     </g>
     <g id="text_6">
      <!-- 2023-01 -->
      <g transform="translate(729.310796 270.918437) scale(0.1 -0.1)">
       <defs>
        <path id="DejaVuSans-33" d="M 2597 2516 
Q 3050 2419 3304 2112 
Q 3559 1806 3559 1356 
Q 3559 666 3084 287 
Q 2609 -91 1734 -91 
Q 1441 -91 1130 -33 
Q 819 25 488 141 
L 488 750 
Q 750 597 1062 519 
Q 1375 441 1716 441 
Q 2309 441 2620 675 
Q 2931 909 2931 1356 
Q 2931 1769 2642 2001 
Q 2353 2234 1838 2234 
L 1294 2234 
L 1294 2753 
L 1863 2753 
Q 2328 2753 2575 2939 
Q 2822 3125 2822 3475 
Q 2822 3834 2567 4026 
Q 2313 4219 1838 4219 
Q 1578 4219 1281 4162 
Q 984 4106 628 3988 
L 628 4550 
Q 988 4650 1302 4700 
Q 1616 4750 1894 4750 
Q 2613 4750 3031 4423 
Q 3450 4097 3450 3541 
Q 3450 3153 3228 2886 
Q 3006 2619 2597 2516 
z
" transform="scale(0.015625)"/>
       </defs>
       <use xlink:href="#DejaVuSans-32"/>
       <use xlink:href="#DejaVuSans-30" x="63.623047"/>
       <use xlink:href="#DejaVuSans-32" x="127.246094"/>
       <use xlink:href="#DejaVuSans-33" x="190.869141"/>
       <use xlink:href="#DejaVuSans-2d" x="254.492188"/>
       <use xlink:href="#DejaVuSans-30" x="290.576172"/>
       <use xlink:href="#DejaVuSans-31" x="354.199219"/>
      </g>
     </g>
    </g>
    <g id="xtick_7">
     <g id="line2d_7">
      <g>
       <use xlink:href="#m0f56f7f10d" x="850.32365" y="256.32" style="stroke: #000000; stroke-width: 0.8"/>
      </g>
     </g>
     <g id="text_7">
      <!-- 2023-05 -->
      <g transform="translate(829.432243 270.918437) scale(0.1 -0.1)">
       <use xlink:href="#DejaVuSans-32"/>
       <use xlink:href="#DejaVuSans-30" x="63.623047"/>
       <use xlink:href="#DejaVuSans-32" x="127.246094"/>
       <use xlink:href="#DejaVuSans-33" x="190.869141"/>
       <use xlink:href="#DejaVuSans-2d" x="254.492188"/>
       <use xlink:href="#DejaVuSans-30" x="290.576172"/>
       <use xlink:href="#DejaVuSans-35" x="354.199219"/>
      </g>
     </g>
    </g>
    <g id="xtick_8">
     <g id="line2d_8">
      <g>
       <use xlink:href="#m0f56f7f10d" x="952.983779" y="256.32" style="stroke: #000000; stroke-width: 0.8"/>
      </g>
     </g>
     <g id="text_8">
      <!-- 2023-09 -->
      <g transform="translate(932.092373 270.918437) scale(0.1 -0.1)">
       <use xlink:href="#DejaVuSans-32"/>
       <use xlink:href="#DejaVuSans-30" x="63.623047"/>
       <use xlink:href="#DejaVuSans-32" x="127.246094"/>
       <use xlink:href="#DejaVuSans-33" x="190.869141"/>
       <use xlink:href="#DejaVuSans-2d" x="254.492188"/>
       <use xlink:href="#DejaVuSans-30" x="290.576172"/>
       <use xlink:href="#DejaVuSans-39" x="354.199219"/>
      </g>
     </g>
    </g>
    <g id="xtick_9">
     <g id="line2d_9">
      <g>
       <use xlink:href="#m0f56f7f10d" x="1054.84405" y="256.32" style="stroke: #000000; stroke-width: 0.8"/>
      </g>
     </g>
     <g id="text_9">
      <!-- 2024-01 -->
      <g transform="translate(1033.952644 270.918437) scale(0.1 -0.1)">
       <defs>
        <path id="DejaVuSans-34" d="M 2419 4116 
L 825 1625 
L 2419 1625 
L 2419 4116 
z
M 2253 4666 
L 3047 4666 
L 3047 1625 
L 3713 1625 
L 3713 1100 
L 3047 1100 
L 3047 0 
L 2419 0 
L 2419 1100 
L 313 1100 
L 313 1709 
L 2253 4666 
z
" transform="scale(0.015625)"/>
       </defs>
       <use xlink:href="#DejaVuSans-32"/>
       <use xlink:href="#DejaVuSans-30" x="63.623047"/>
       <use xlink:href="#DejaVuSans-32" x="127.246094"/>
       <use xlink:href="#DejaVuSans-34" x="190.869141"/>
       <use xlink:href="#DejaVuSans-2d" x="254.492188"/>
       <use xlink:href="#DejaVuSans-30" x="290.576172"/>
       <use xlink:href="#DejaVuSans-31" x="354.199219"/>
      </g>
     </g>
    </g>
    <g id="xtick_10">
     <g id="line2d_10">
      <g>
       <use xlink:href="#m0f56f7f10d" x="1155.800133" y="256.32" style="stroke: #000000; stroke-width: 0.8"/>
      </g>
     </g>
     <g id="text_10">
      <!-- 2024-05 -->
      <g transform="translate(1134.908727 270.918437) scale(0.1 -0.1)">
       <use xlink:href="#DejaVuSans-32"/>
       <use xlink:href="#DejaVuSans-30" x="63.623047"/>
       <use xlink:href="#DejaVuSans-32" x="127.246094"/>
       <use xlink:href="#DejaVuSans-34" x="190.869141"/>
       <use xlink:href="#DejaVuSans-2d" x="254.492188"/>
       <use xlink:href="#DejaVuSans-30" x="290.576172"/>
       <use xlink:href="#DejaVuSans-35" x="354.199219"/>
      </g>
     </g>
    </g>
    <g id="text_11">
     <!-- Date -->
     <g transform="translate(652.249219 284.596563) scale(0.1 -0.1)">
      <defs>
       <path id="DejaVuSans-44" d="M 1259 4147 
L 1259 519 
L 2022 519 
Q 2988 519 3436 956 
Q 3884 1394 3884 2338 
Q 3884 3275 3436 3711 
Q 2988 4147 2022 4147 
L 1259 4147 
z
M 628 4666 
L 1925 4666 
Q 3281 4666 3915 4102 
Q 4550 3538 4550 2338 
Q 4550 1131 3912 565 
Q 3275 0 1925 0 
L 628 0 
L 628 4666 
z
" transform="scale(0.015625)"/>
       <path id="DejaVuSans-61" d="M 2194 1759 
Q 1497 1759 1228 1600 
Q 959 1441 959 1056 
Q 959 750 1161 570 
Q 1363 391 1709 391 
Q 2188 391 2477 730 
Q 2766 1069 2766 1631 
L 2766 1759 
L 2194 1759 
z
M 3341 1997 
L 3341 0 
L 2766 0 
L 2766 531 
Q 2569 213 2275 61 
Q 1981 -91 1556 -91 
Q 1019 -91 701 211 
Q 384 513 384 1019 
Q 384 1609 779 1909 
Q 1175 2209 1959 2209 
L 2766 2209 
L 2766 2266 
Q 2766 2663 2505 2880 
Q 2244 3097 1772 3097 
Q 1472 3097 1187 3025 
Q 903 2953 641 2809 
L 641 3341 
Q 956 3463 1253 3523 
Q 1550 3584 1831 3584 
Q 2591 3584 2966 3190 
Q 3341 2797 3341 1997 
z
" transform="scale(0.015625)"/>
       <path id="DejaVuSans-74" d="M 1172 4494 
L 1172 3500 
L 2356 3500 
L 2356 3053 
L 1172 3053 
L 1172 1153 
Q 1172 725 1289 603 
Q 1406 481 1766 481 
L 2356 481 
L 2356 0 
L 1766 0 
Q 1100 0 847 248 
Q 594 497 594 1153 
L 594 3053 
L 172 3053 
L 172 3500 
L 594 3500 
L 594 4494 
L 1172 4494 
z
" transform="scale(0.015625)"/>
       <path id="DejaVuSans-65" d="M 3597 1894 
L 3597 1613 
L 953 1613 
Q 991 1019 1311 708 
Q 1631 397 2203 397 
Q 2534 397 2845 478 
Q 3156 559 3463 722 
L 3463 178 
Q 3153 47 2828 -22 
Q 2503 -91 2169 -91 
Q 1331 -91 842 396 
Q 353 884 353 1716 
Q 353 2575 817 3079 
Q 1281 3584 2069 3584 
Q 2775 3584 3186 3129 
Q 3597 2675 3597 1894 
z
M 3022 2063 
Q 3016 2534 2758 2815 
Q 2500 3097 2075 3097 
Q 1594 3097 1305 2825 
Q 1016 2553 972 2059 
L 3022 2063 
z
" transform="scale(0.015625)"/>
      </defs>
      <use xlink:href="#DejaVuSans-44"/>
      <use xlink:href="#DejaVuSans-61" x="77.001953"/>
      <use xlink:href="#DejaVuSans-74" x="138.28125"/>
      <use xlink:href="#DejaVuSans-65" x="177.490234"/>
     </g>
    </g>
   </g>
   <g id="matplotlib.axis_2">
    <g id="ytick_1">
     <g id="line2d_11">
      <defs>
       <path id="m5af7085fd3" d="M 0 0 
L -3.5 0 
" style="stroke: #0000ff; stroke-width: 0.8"/>
      </defs>
      <g>
       <use xlink:href="#m5af7085fd3" x="162" y="222.011615" style="fill: #0000ff; stroke: #0000ff; stroke-width: 0.8"/>
      </g>
     </g>
     <g id="text_12">
      <!-- 15 -->
      <g style="fill: #0000ff" transform="translate(142.275 225.810833) scale(0.1 -0.1)">
       <use xlink:href="#DejaVuSans-31"/>
       <use xlink:href="#DejaVuSans-35" x="63.623047"/>
      </g>
     </g>
    </g>
    <g id="ytick_2">
     <g id="line2d_12">
      <g>
       <use xlink:href="#m5af7085fd3" x="162" y="180.666251" style="fill: #0000ff; stroke: #0000ff; stroke-width: 0.8"/>
      </g>
     </g>
     <g id="text_13">
      <!-- 20 -->
      <g style="fill: #0000ff" transform="translate(142.275 184.46547) scale(0.1 -0.1)">
       <use xlink:href="#DejaVuSans-32"/>
       <use xlink:href="#DejaVuSans-30" x="63.623047"/>
      </g>
     </g>
    </g>
    <g id="ytick_3">
     <g id="line2d_13">
      <g>
       <use xlink:href="#m5af7085fd3" x="162" y="139.320888" style="fill: #0000ff; stroke: #0000ff; stroke-width: 0.8"/>
      </g>
     </g>
     <g id="text_14">
      <!-- 25 -->
      <g style="fill: #0000ff" transform="translate(142.275 143.120107) scale(0.1 -0.1)">
       <use xlink:href="#DejaVuSans-32"/>
       <use xlink:href="#DejaVuSans-35" x="63.623047"/>
      </g>
     </g>
    </g>
    <g id="ytick_4">
     <g id="line2d_14">
      <g>
       <use xlink:href="#m5af7085fd3" x="162" y="97.975525" style="fill: #0000ff; stroke: #0000ff; stroke-width: 0.8"/>
      </g>
     </g>
     <g id="text_15">
      <!-- 30 -->
      <g style="fill: #0000ff" transform="translate(142.275 101.774744) scale(0.1 -0.1)">
       <use xlink:href="#DejaVuSans-33"/>
       <use xlink:href="#DejaVuSans-30" x="63.623047"/>
      </g>
     </g>
    </g>
    <g id="ytick_5">
     <g id="line2d_15">
      <g>
       <use xlink:href="#m5af7085fd3" x="162" y="56.630162" style="fill: #0000ff; stroke: #0000ff; stroke-width: 0.8"/>
      </g>
     </g>
     <g id="text_16">
      <!-- 35 -->
      <g style="fill: #0000ff" transform="translate(142.275 60.42938) scale(0.1 -0.1)">
       <use xlink:href="#DejaVuSans-33"/>
       <use xlink:href="#DejaVuSans-35" x="63.623047"/>
      </g>
     </g>
    </g>
    <g id="text_17">
     <!-- VIX -->
     <g style="fill: #0000ff" transform="translate(136.195312 153.760312) rotate(-90) scale(0.1 -0.1)">
      <defs>
       <path id="DejaVuSans-56" d="M 1831 0 
L 50 4666 
L 709 4666 
L 2188 738 
L 3669 4666 
L 4325 4666 
L 2547 0 
L 1831 0 
z
" transform="scale(0.015625)"/>
       <path id="DejaVuSans-49" d="M 628 4666 
L 1259 4666 
L 1259 0 
L 628 0 
L 628 4666 
z
" transform="scale(0.015625)"/>
       <path id="DejaVuSans-58" d="M 403 4666 
L 1081 4666 
L 2241 2931 
L 3406 4666 
L 4084 4666 
L 2584 2425 
L 4184 0 
L 3506 0 
L 2194 1984 
L 872 0 
L 191 0 
L 1856 2491 
L 403 4666 
z
" transform="scale(0.015625)"/>
      </defs>
      <use xlink:href="#DejaVuSans-56"/>
      <use xlink:href="#DejaVuSans-49" x="68.408203"/>
      <use xlink:href="#DejaVuSans-58" x="97.900391"/>
     </g>
    </g>
   </g>
   <g id="line2d_16">
    <path d="M 207.654545 189.92762 
L 208.489181 178.185536 
L 209.323816 170.743358 
L 210.158451 182.23738 
L 210.993086 190.092989 
L 213.496992 174.54714 
L 214.331627 183.891185 
L 215.166262 185.627698 
L 216.000897 202.744676 
L 219.339438 197.948614 
L 220.174073 196.212101 
L 221.008709 204.150419 
L 221.843344 205.886917 
L 222.677979 208.036877 
L 225.181885 206.217687 
L 226.01652 208.367648 
L 226.851155 205.556162 
L 227.68579 209.029173 
L 228.520425 211.675274 
L 231.024331 203.075431 
L 231.858966 191.581425 
L 232.693601 201.338933 
L 233.528237 191.333363 
L 234.362872 202.744676 
L 236.866777 200.181268 
L 237.701413 200.842793 
L 238.536048 203.158123 
L 239.370683 200.42933 
L 240.205318 192.160257 
L 242.709224 194.640989 
L 243.543859 184.966173 
L 244.378494 187.694966 
L 245.213129 193.979463 
L 246.047765 208.036877 
L 248.55167 183.477737 
L 249.386305 165.451156 
L 250.220941 117.903989 
L 251.890211 190.506452 
L 254.394117 182.981597 
L 255.228752 169.585693 
L 256.063387 162.63967 
L 256.898022 175.125972 
L 257.732657 179.425894 
L 260.236563 193.896771 
L 261.071198 190.258374 
L 261.905833 202.496598 
L 262.740469 207.62343 
L 263.575104 207.458045 
L 266.913645 198.031307 
L 267.74828 201.504318 
L 268.582915 196.873626 
L 269.41755 210.269531 
L 271.921456 210.269531 
L 272.756091 204.894637 
L 273.590726 198.114 
L 274.425361 212.915632 
L 275.259997 216.636721 
L 277.763902 210.517609 
L 278.598537 205.308084 
L 279.433173 195.964039 
L 280.267808 199.271665 
L 281.102443 174.877894 
L 283.606349 198.114 
L 284.440984 208.284955 
L 286.944889 216.884791 
L 289.448795 215.727118 
L 290.28343 213.577157 
L 291.118065 215.148285 
L 291.952701 218.042464 
L 292.787336 221.432782 
L 296.125877 210.104146 
L 296.960512 212.088721 
L 297.795147 188.935324 
L 298.629782 212.254106 
L 301.133688 212.336799 
L 301.968323 204.481174 
L 302.802958 211.013749 
L 303.637593 205.390777 
L 304.472229 193.483308 
L 306.976134 159.99357 
L 307.810769 182.898905 
L 308.645405 197.948614 
L 309.48004 199.767805 
L 310.314675 203.819648 
L 312.818581 200.677408 
L 313.653216 185.958453 
L 314.487851 194.640989 
L 315.322486 199.685112 
L 316.157121 195.219821 
L 318.661027 185.131558 
L 319.495662 196.873626 
L 320.330297 197.452475 
L 321.164933 203.158123 
L 321.999568 212.502184 
L 324.503473 207.788815 
L 325.338109 207.209967 
L 327.007379 217.13286 
L 327.842014 218.290534 
L 330.34592 212.750246 
L 331.180555 197.948614 
L 332.01519 167.68381 
L 332.849825 166.856899 
L 333.684461 192.57372 
L 336.188366 204.233112 
L 337.023001 203.654279 
L 337.857637 207.209967 
L 338.692272 190.258374 
L 339.526907 210.517609 
L 342.030813 212.171414 
L 342.865448 209.773391 
L 343.700083 212.832939 
L 344.534718 210.352223 
L 345.369353 210.352223 
L 348.707894 196.046732 
L 349.542529 197.535167 
L 350.377165 190.589145 
L 351.2118 172.810626 
L 353.715706 185.87576 
L 354.550341 185.131558 
L 355.384976 195.715961 
L 356.219611 191.498732 
L 357.054246 173.968307 
L 359.558152 133.449854 
L 360.392787 144.61309 
L 361.227422 173.472151 
L 362.062058 191.994888 
L 362.896693 199.271665 
L 365.400598 190.9199 
L 366.235234 153.791765 
L 367.069869 159.49743 
L 367.904504 154.701368 
L 368.739139 171.570268 
L 371.243045 156.189804 
L 372.07768 169.916463 
L 372.912315 172.397179 
L 373.74695 184.470017 
L 374.581586 190.837207 
L 377.085491 180.666251 
L 377.920126 181.906609 
L 378.754762 191.912195 
L 379.589397 206.631134 
L 380.424032 211.261826 
L 382.927938 211.179134 
L 383.762573 216.223265 
L 384.597208 217.959771 
L 385.431843 221.928922 
L 386.266478 218.455911 
L 388.770384 220.027039 
L 389.605019 213.907927 
L 390.439654 205.638855 
L 391.27429 209.359928 
L 392.108925 211.592581 
L 394.61283 210.352223 
L 395.447466 213.494464 
L 396.282101 221.184704 
L 397.116736 218.373226 
L 397.951371 209.773391 
L 400.490053 203.654279 
L 401.324688 199.023587 
L 402.159324 191.167977 
L 402.993959 200.015883 
L 403.828594 211.344503 
L 406.3325 209.690698 
L 407.167135 210.682978 
L 408.00177 204.563866 
L 408.836405 200.594715 
L 409.67104 197.948614 
L 412.174946 187.529581 
L 413.009581 185.793083 
L 413.844216 192.408335 
L 415.513487 109.386838 
L 418.017392 156.189804 
L 419.686663 88.714157 
L 420.521298 114.927118 
L 421.355933 92.435246 
L 423.859839 121.294307 
L 424.694474 165.037709 
L 425.529109 181.493162 
L 426.363744 167.601117 
L 427.19838 191.498732 
L 429.702285 178.102843 
L 430.53692 165.037709 
L 431.371556 186.537285 
L 432.206191 175.952882 
L 433.040826 167.68381 
L 435.544732 156.934006 
L 436.379367 172.314486 
L 437.214002 191.994888 
L 438.048637 197.535167 
L 441.387178 199.850497 
L 442.221813 201.008163 
L 443.056448 205.886917 
L 443.891084 202.744676 
L 444.725719 203.654279 
L 447.229624 208.781095 
L 448.06426 206.217687 
L 448.898895 182.898905 
L 449.73353 183.891185 
L 450.568165 190.9199 
L 453.072071 185.627698 
L 453.906706 193.814078 
L 454.741341 200.346637 
L 455.575976 178.102843 
L 456.410612 187.364196 
L 459.749152 157.595531 
L 460.583788 148.830319 
L 461.418423 134.442134 
L 462.253058 107.484955 
L 464.756964 98.802435 
L 465.591599 88.383402 
L 466.426234 81.76815 
L 467.260869 93.923681 
L 468.095504 117.325156 
L 470.59941 140.726631 
L 471.434045 164.458877 
L 472.26868 163.383888 
L 473.103316 144.695782 
L 473.937951 154.039843 
L 476.441856 157.016699 
L 478.111127 180.997022 
L 479.780397 119.805872 
L 482.284303 111.784877 
L 483.118938 133.532531 
L 483.953573 145.191922 
L 484.788208 113.604067 
L 485.622844 116.580938 
L 488.961384 107.815726 
L 489.79602 89.541067 
L 490.630655 95.329424 
L 491.46529 117.903989 
L 493.969196 96.735167 
L 494.803831 70.522206 
L 495.638466 91.856413 
L 496.473101 94.006374 
L 499.811642 44.64 
L 500.646277 55.555173 
L 501.480912 77.716291 
L 502.315548 96.073642 
L 503.150183 91.77372 
L 505.619312 83.339263 
L 506.453947 99.381268 
L 507.288582 125.511536 
L 508.123218 133.780609 
L 508.957853 148.664933 
L 511.461758 151.476419 
L 512.296394 156.355173 
L 513.131029 151.145665 
L 513.965664 166.856899 
L 514.800299 173.968307 
L 517.304205 183.725815 
L 518.13884 189.762234 
L 518.973475 186.206531 
L 519.80811 176.035575 
L 520.642746 183.725815 
L 523.146651 192.491028 
L 523.981286 172.149101 
L 524.815922 163.301196 
L 525.650557 167.849195 
L 526.485192 171.074128 
L 528.989098 144.530397 
L 529.823733 145.44 
L 530.658368 165.616542 
L 531.493003 158.339749 
L 534.831544 162.722363 
L 535.666179 169.337615 
L 536.500814 178.020151 
L 537.33545 158.505134 
L 538.170085 112.777173 
L 540.67399 122.617358 
L 541.508626 68.868385 
L 542.343261 84.745005 
L 543.177896 98.058218 
L 544.012531 69.860665 
L 546.516437 78.625894 
L 547.351072 104.177329 
L 548.185707 135.847877 
L 549.020342 88.052631 
L 549.854978 96.404397 
L 552.358883 58.69743 
L 553.193518 73.250984 
L 554.028154 76.806688 
L 554.862789 83.339263 
L 555.697424 107.31957 
L 558.20133 118.896284 
L 559.035965 130.224905 
L 559.8706 90.037223 
L 560.705235 103.350419 
L 561.53987 102.688894 
L 564.043776 110.544519 
L 564.878411 102.523509 
L 565.713046 111.454106 
L 566.547682 118.648207 
L 567.382317 133.367162 
L 570.720858 129.480687 
L 571.555493 133.615224 
L 572.390128 141.636234 
L 573.224763 141.057386 
L 575.728669 138.742056 
L 576.563304 147.424576 
L 577.397939 147.920731 
L 578.232574 130.307598 
L 579.06721 116.580938 
L 581.571115 64.733849 
L 582.40575 75.731731 
L 583.240386 101.117766 
L 584.075021 73.581754 
L 584.909656 88.63148 
L 588.248197 96.404397 
L 589.082832 106.658045 
L 589.917467 105.83115 
L 590.752102 120.88086 
L 593.256008 123.19619 
L 594.090643 111.536799 
L 594.925278 113.19062 
L 595.759914 108.642636 
L 596.594549 125.263458 
L 599.93309 118.317436 
L 600.767725 125.015396 
L 601.60236 130.39029 
L 602.436995 142.297759 
L 604.940901 129.646073 
L 605.775536 120.384704 
L 607.444806 127.74419 
L 608.279442 145.688078 
L 610.783347 136.840173 
L 611.617982 143.455424 
L 612.452618 148.582256 
L 613.287253 154.94943 
L 614.121888 155.610956 
L 616.625794 152.882162 
L 617.460429 141.884296 
L 618.295064 153.874458 
L 619.964334 169.668385 
L 622.46824 157.182084 
L 623.302875 148.168793 
L 624.13751 164.541553 
L 624.972146 168.758782 
L 625.806781 171.156821 
L 628.310686 169.99914 
L 629.145322 166.029989 
L 629.979957 182.816212 
L 630.814592 179.012431 
L 631.649227 184.55271 
L 634.153133 181.079699 
L 634.987768 183.229659 
L 635.822403 181.493162 
L 636.657038 184.304648 
L 639.995579 149.243782 
L 640.830214 146.680358 
L 641.66485 157.347469 
L 642.499485 165.947296 
L 643.33412 134.690212 
L 645.838026 129.315318 
L 646.672661 129.315318 
L 648.341931 134.690212 
L 649.176566 135.43443 
L 652.515107 123.526961 
L 653.349742 142.297759 
L 654.184378 150.814894 
L 655.019013 157.595531 
L 657.522918 148.664933 
L 658.357554 120.550089 
L 659.192189 129.728765 
L 660.026824 128.819162 
L 660.861459 128.5711 
L 663.365365 133.036391 
L 664.2 121.459692 
L 665.034635 114.596363 
L 665.86927 119.888564 
L 666.703906 98.63705 
L 669.207811 79.287435 
L 670.042446 76.475949 
L 670.877082 96.487089 
L 671.711717 82.76043 
L 672.546352 84.57962 
L 675.050258 97.148614 
L 675.884893 105.665765 
L 676.719528 109.965687 
L 677.554163 93.675603 
L 678.388798 86.729581 
L 680.892704 77.716291 
L 681.727339 67.958782 
L 682.561974 68.454938 
L 683.39661 81.93352 
L 684.231245 81.271994 
L 686.73515 86.646888 
L 687.569786 93.840989 
L 688.404421 91.691028 
L 689.239056 98.14091 
L 690.073691 100.538933 
L 692.577597 99.215883 
L 693.412232 110.709904 
L 694.246867 120.467397 
L 695.081502 119.55781 
L 695.916138 133.119084 
L 698.420043 132.044111 
L 699.254678 132.622944 
L 700.089314 132.209481 
L 700.923949 136.840173 
L 701.758584 143.041977 
L 704.297266 144.695782 
L 705.131901 134.855581 
L 705.966536 130.307598 
L 706.801172 151.476419 
L 707.635807 159.828185 
L 710.139712 149.822614 
L 710.974348 143.124654 
L 711.808983 146.680358 
L 712.643618 148.168793 
L 713.478253 154.866738 
L 715.982159 161.151235 
L 717.651429 177.772073 
L 719.3207 176.531715 
L 721.824605 162.391608 
L 722.65924 165.037709 
L 723.493876 175.87019 
L 725.163146 188.439184 
L 727.667052 174.464447 
L 728.501687 162.722363 
L 729.336322 158.505134 
L 730.170957 161.730067 
L 731.005592 157.264776 
L 733.509498 139.320888 
L 734.344133 159.580122 
L 735.178768 171.239514 
L 736.013404 157.264776 
L 736.848039 159.001274 
L 739.351944 160.655095 
L 740.18658 168.428028 
L 741.021215 180.087419 
L 741.85585 164.376184 
L 742.690485 173.472151 
L 746.029026 167.022285 
L 746.863661 162.970441 
L 747.698296 168.758782 
L 748.532932 166.856899 
L 751.871472 156.685944 
L 752.706108 164.045413 
L 753.540743 160.32434 
L 754.375378 171.322206 
L 756.879284 164.376184 
L 757.713919 175.87019 
L 758.548554 171.652961 
L 759.383189 190.341067 
L 760.217824 194.310218 
L 763.556365 185.958453 
L 764.391 177.854765 
L 765.225636 176.36633 
L 766.060271 181.906609 
L 768.564176 182.23738 
L 769.398812 187.281503 
L 770.233447 188.273799 
L 771.068082 191.167977 
L 771.902717 192.987168 
L 774.406623 181.162391 
L 775.241258 185.627698 
L 776.075893 198.279369 
L 776.910529 191.167977 
L 777.745164 194.475603 
L 780.249069 185.37962 
L 781.083705 191.74681 
L 782.752975 174.795217 
L 783.58761 176.283637 
L 786.091516 177.854765 
L 786.926151 189.679542 
L 787.760786 195.302514 
L 788.595421 179.260508 
L 789.430057 180.500866 
L 792.768597 156.934006 
L 793.603233 161.730067 
L 794.437868 171.239514 
L 795.272503 166.856899 
L 798.611044 174.877894 
L 799.445679 175.87019 
L 801.114949 193.152553 
L 803.618855 192.160257 
L 804.45349 184.05657 
L 805.288125 188.025721 
L 806.122761 159.083967 
L 806.957396 140.974709 
L 809.426525 126.751894 
L 810.26116 149.822614 
L 811.095795 129.89415 
L 811.93043 155.941726 
L 812.765066 135.103659 
L 815.268971 146.349603 
L 816.103606 169.254938 
L 816.938242 161.978145 
L 817.772877 159.083967 
L 818.607512 166.278067 
L 821.111418 175.704805 
L 821.946053 180.914329 
L 822.780688 187.943028 
L 823.615323 188.769939 
L 824.449958 191.41604 
L 826.953864 192.656413 
L 827.788499 188.935324 
L 828.623134 188.273799 
L 829.45777 193.896771 
L 833.630946 188.108414 
L 834.465581 188.191106 
L 835.300216 198.858218 
L 836.134851 204.894637 
L 838.638757 205.886917 
L 839.473392 206.879212 
L 840.308027 209.938776 
L 841.142662 204.067726 
L 841.977298 207.375352 
L 844.481203 206.383072 
L 845.315838 190.9199 
L 846.150474 190.258374 
L 846.985109 205.225391 
L 847.819744 215.56174 
L 850.32365 213.081017 
L 851.158285 199.023587 
L 851.99292 194.392911 
L 852.827555 179.922034 
L 853.66219 203.902341 
L 856.166096 205.638855 
L 857.000731 199.602435 
L 857.835366 205.969609 
L 858.670002 206.052302 
L 859.504637 205.225391 
L 862.008542 204.481174 
L 862.843178 197.287089 
L 863.677813 206.548442 
L 864.512448 213.329095 
L 865.347083 207.044598 
L 867.850989 203.736972 
L 868.685624 192.821782 
L 869.520259 180.418174 
L 870.354894 187.777659 
L 871.18953 197.617844 
L 874.52807 201.669703 
L 875.362706 197.700537 
L 876.197341 216.636721 
L 877.031976 225.319241 
L 879.535882 224.244268 
L 880.370517 230.61145 
L 881.205152 230.776835 
L 882.039787 233.174866 
L 882.874422 231.68643 
L 885.378328 221.928922 
L 886.212963 225.236556 
L 887.047598 231.272975 
L 887.882234 226.146151 
L 888.716869 234.084461 
L 892.05541 231.272975 
L 892.890045 236.895947 
L 893.72468 239.293978 
L 894.559315 234.911371 
L 897.063221 228.213419 
L 897.897856 232.430648 
L 898.732491 234.994056 
L 899.567126 234.084461 
L 900.401762 233.671006 
L 902.905667 233.836391 
L 904.574938 228.792252 
L 905.409573 218.373226 
L 906.244208 223.417358 
L 908.748114 221.432782 
L 909.582749 223.334665 
L 910.417384 234.084461 
L 911.252019 233.505628 
L 912.086654 235.738274 
L 914.59056 234.580609 
L 915.425195 236.069037 
L 916.25983 232.265263 
L 917.094466 230.36338 
L 917.929101 233.588313 
L 920.433006 231.024905 
L 921.267642 231.43836 
L 922.102277 236.97864 
L 922.936912 226.890369 
L 923.771547 235.820967 
L 926.275453 233.340243 
L 927.110088 230.85952 
L 927.944723 212.998324 
L 928.779358 214.404067 
L 929.613994 204.646559 
L 932.117899 215.644425 
L 932.952534 213.825235 
L 933.78717 214.073305 
L 934.621805 214.9829 
L 935.45644 223.334665 
L 937.960346 223.50005 
L 938.794981 209.938776 
L 939.629616 207.29266 
L 940.464251 198.114 
L 941.298886 202.992754 
L 943.802792 204.398497 
L 944.637427 205.721547 
L 945.472062 213.907927 
L 946.306698 203.819648 
L 947.141333 216.388643 
L 949.645238 221.350089 
L 951.314509 231.272975 
L 952.149144 233.836391 
L 952.983779 237.805542 
L 956.32232 230.197995 
L 957.156955 226.559606 
L 957.99159 226.973061 
L 958.826226 231.603738 
L 961.330131 231.9345 
L 962.164766 228.378804 
L 963.834037 240.038196 
L 964.668672 232.017193 
L 967.172578 230.280687 
L 968.007213 229.371092 
L 968.841848 220.853942 
L 969.676483 201.008163 
L 970.511118 203.819648 
L 973.015024 206.30038 
L 973.849659 189.431464 
L 974.684294 195.385206 
L 975.51893 202.661983 
L 976.353565 201.173548 
L 978.857471 200.42933 
L 979.692106 182.485442 
L 980.526741 192.408335 
L 981.361376 193.152553 
L 982.196011 201.75238 
L 984.699917 199.685112 
L 985.534552 205.225391 
L 986.369187 212.998324 
L 987.203823 208.036877 
L 988.038458 186.289223 
L 990.542363 203.736972 
L 991.376999 198.196692 
L 992.211634 187.116134 
L 993.046269 169.089553 
L 993.880904 166.526145 
L 996.38481 177.606688 
L 997.219445 189.183402 
L 998.05408 179.095123 
L 998.888715 175.043279 
L 999.723351 170.164525 
L 1002.227256 182.73352 
L 1003.061891 196.046732 
L 1004.731162 216.554028 
L 1005.565797 222.755832 
L 1008.104479 222.92121 
L 1008.939114 223.582735 
L 1009.773749 226.559606 
L 1010.608385 219.613584 
L 1011.44302 228.874944 
L 1013.946925 223.99619 
L 1014.781561 228.957637 
L 1015.616196 228.792252 
L 1016.450831 227.634587 
L 1017.285466 231.9345 
L 1019.789372 235.159441 
L 1020.624007 235.655581 
L 1021.458642 239.790118 
L 1023.127913 243.015059 
L 1025.631818 241.113176 
L 1026.466453 241.113176 
L 1027.301089 238.715145 
L 1028.135724 239.211285 
L 1028.970359 241.609316 
L 1031.474265 237.888235 
L 1032.3089 239.790118 
L 1033.143535 238.79783 
L 1033.97817 238.053612 
L 1034.812805 243.924654 
L 1037.316711 241.609316 
L 1038.151346 246.24 
L 1038.985981 245.247712 
L 1039.820617 242.849681 
L 1040.655252 244.503494 
L 1043.159157 242.188148 
L 1043.993793 242.436226 
L 1044.828428 233.009481 
L 1045.663063 233.174866 
L 1046.497698 238.30169 
L 1049.836239 238.632453 
L 1050.670874 243.263129 
L 1051.505509 242.932366 
L 1052.340145 243.097751 
L 1055.678685 236.895947 
L 1056.513321 229.949925 
L 1057.347956 229.205707 
L 1058.182591 235.655581 
L 1060.686497 237.888235 
L 1061.521132 240.534335 
L 1062.355767 241.113176 
L 1063.190402 243.180444 
L 1064.025037 241.030483 
L 1067.363578 231.603738 
L 1068.198213 223.74812 
L 1069.032849 229.205707 
L 1069.867484 236.069037 
L 1072.371389 236.97864 
L 1073.206025 242.270841 
L 1074.04066 237.392087 
L 1074.875295 234.828679 
L 1075.70993 236.399799 
L 1078.213836 233.588313 
L 1079.048471 235.986344 
L 1079.883106 227.386509 
L 1080.717741 231.272975 
L 1081.552377 231.521045 
L 1084.056282 233.009481 
L 1084.890917 238.053612 
L 1085.725553 239.955503 
L 1086.560188 240.286265 
L 1087.394823 239.128592 
L 1089.898729 230.85952 
L 1090.733364 214.9829 
L 1091.567999 227.138439 
L 1092.402634 230.197995 
L 1093.237269 228.296112 
L 1096.57581 218.538603 
L 1097.410445 219.200129 
L 1099.079716 232.347955 
L 1101.583621 232.430648 
L 1102.418257 234.994056 
L 1103.252892 231.603738 
L 1104.087527 235.242134 
L 1104.922162 237.640165 
L 1107.426068 234.497916 
L 1108.260703 226.476914 
L 1109.095338 226.146151 
L 1109.929973 226.642299 
L 1110.764609 224.161575 
L 1113.233738 220.192416 
L 1114.068373 231.603738 
L 1114.903008 232.347955 
L 1115.737643 226.973061 
L 1116.572279 226.890369 
L 1119.076184 227.551894 
L 1119.910819 231.769123 
L 1120.745455 230.528757 
L 1120.745455 230.528757 
" clip-path="url(#p5de16d0b48)" style="fill: none; stroke: #0000ff; stroke-width: 1.5; stroke-linecap: square"/>
   </g>
   <g id="patch_3">
    <path d="M 162 256.32 
L 162 34.56 
" style="fill: none; stroke: #000000; stroke-width: 0.8; stroke-linejoin: miter; stroke-linecap: square"/>
   </g>
   <g id="patch_4">
    <path d="M 1166.4 256.32 
L 1166.4 34.56 
" style="fill: none; stroke: #000000; stroke-width: 0.8; stroke-linejoin: miter; stroke-linecap: square"/>
   </g>
   <g id="patch_5">
    <path d="M 162 256.32 
L 1166.4 256.32 
" style="fill: none; stroke: #000000; stroke-width: 0.8; stroke-linejoin: miter; stroke-linecap: square"/>
   </g>
   <g id="patch_6">
    <path d="M 162 34.56 
L 1166.4 34.56 
" style="fill: none; stroke: #000000; stroke-width: 0.8; stroke-linejoin: miter; stroke-linecap: square"/>
   </g>
  </g>
  <g id="axes_2">
   <g id="matplotlib.axis_3">
    <g id="ytick_6">
     <g id="line2d_17">
      <defs>
       <path id="md3cee790ad" d="M 0 0 
L 3.5 0 
" style="stroke: #ff0000; stroke-width: 0.8"/>
      </defs>
      <g>
       <use xlink:href="#md3cee790ad" x="1166.4" y="234.539451" style="fill: #ff0000; stroke: #ff0000; stroke-width: 0.8"/>
      </g>
     </g>
     <g id="text_18">
      <!-- 0.2 -->
      <g style="fill: #ff0000" transform="translate(1173.4 238.33867) scale(0.1 -0.1)">
       <defs>
        <path id="DejaVuSans-2e" d="M 684 794 
L 1344 794 
L 1344 0 
L 684 0 
L 684 794 
z
" transform="scale(0.015625)"/>
       </defs>
       <use xlink:href="#DejaVuSans-30"/>
       <use xlink:href="#DejaVuSans-2e" x="63.623047"/>
       <use xlink:href="#DejaVuSans-32" x="95.410156"/>
      </g>
     </g>
    </g>
    <g id="ytick_7">
     <g id="line2d_18">
      <g>
       <use xlink:href="#md3cee790ad" x="1166.4" y="208.975153" style="fill: #ff0000; stroke: #ff0000; stroke-width: 0.8"/>
      </g>
     </g>
     <g id="text_19">
      <!-- 0.3 -->
      <g style="fill: #ff0000" transform="translate(1173.4 212.774372) scale(0.1 -0.1)">
       <use xlink:href="#DejaVuSans-30"/>
       <use xlink:href="#DejaVuSans-2e" x="63.623047"/>
       <use xlink:href="#DejaVuSans-33" x="95.410156"/>
      </g>
     </g>
    </g>
    <g id="ytick_8">
     <g id="line2d_19">
      <g>
       <use xlink:href="#md3cee790ad" x="1166.4" y="183.410855" style="fill: #ff0000; stroke: #ff0000; stroke-width: 0.8"/>
      </g>
     </g>
     <g id="text_20">
      <!-- 0.4 -->
      <g style="fill: #ff0000" transform="translate(1173.4 187.210073) scale(0.1 -0.1)">
       <use xlink:href="#DejaVuSans-30"/>
       <use xlink:href="#DejaVuSans-2e" x="63.623047"/>
       <use xlink:href="#DejaVuSans-34" x="95.410156"/>
      </g>
     </g>
    </g>
    <g id="ytick_9">
     <g id="line2d_20">
      <g>
       <use xlink:href="#md3cee790ad" x="1166.4" y="157.846557" style="fill: #ff0000; stroke: #ff0000; stroke-width: 0.8"/>
      </g>
     </g>
     <g id="text_21">
      <!-- 0.5 -->
      <g style="fill: #ff0000" transform="translate(1173.4 161.645775) scale(0.1 -0.1)">
       <use xlink:href="#DejaVuSans-30"/>
       <use xlink:href="#DejaVuSans-2e" x="63.623047"/>
       <use xlink:href="#DejaVuSans-35" x="95.410156"/>
      </g>
     </g>
    </g>
    <g id="ytick_10">
     <g id="line2d_21">
      <g>
       <use xlink:href="#md3cee790ad" x="1166.4" y="132.282258" style="fill: #ff0000; stroke: #ff0000; stroke-width: 0.8"/>
      </g>
     </g>
     <g id="text_22">
      <!-- 0.6 -->
      <g style="fill: #ff0000" transform="translate(1173.4 136.081477) scale(0.1 -0.1)">
       <defs>
        <path id="DejaVuSans-36" d="M 2113 2584 
Q 1688 2584 1439 2293 
Q 1191 2003 1191 1497 
Q 1191 994 1439 701 
Q 1688 409 2113 409 
Q 2538 409 2786 701 
Q 3034 994 3034 1497 
Q 3034 2003 2786 2293 
Q 2538 2584 2113 2584 
z
M 3366 4563 
L 3366 3988 
Q 3128 4100 2886 4159 
Q 2644 4219 2406 4219 
Q 1781 4219 1451 3797 
Q 1122 3375 1075 2522 
Q 1259 2794 1537 2939 
Q 1816 3084 2150 3084 
Q 2853 3084 3261 2657 
Q 3669 2231 3669 1497 
Q 3669 778 3244 343 
Q 2819 -91 2113 -91 
Q 1303 -91 875 529 
Q 447 1150 447 2328 
Q 447 3434 972 4092 
Q 1497 4750 2381 4750 
Q 2619 4750 2861 4703 
Q 3103 4656 3366 4563 
z
" transform="scale(0.015625)"/>
       </defs>
       <use xlink:href="#DejaVuSans-30"/>
       <use xlink:href="#DejaVuSans-2e" x="63.623047"/>
       <use xlink:href="#DejaVuSans-36" x="95.410156"/>
      </g>
     </g>
    </g>
    <g id="ytick_11">
     <g id="line2d_22">
      <g>
       <use xlink:href="#md3cee790ad" x="1166.4" y="106.71796" style="fill: #ff0000; stroke: #ff0000; stroke-width: 0.8"/>
      </g>
     </g>
     <g id="text_23">
      <!-- 0.7 -->
      <g style="fill: #ff0000" transform="translate(1173.4 110.517179) scale(0.1 -0.1)">
       <defs>
        <path id="DejaVuSans-37" d="M 525 4666 
L 3525 4666 
L 3525 4397 
L 1831 0 
L 1172 0 
L 2766 4134 
L 525 4134 
L 525 4666 
z
" transform="scale(0.015625)"/>
       </defs>
       <use xlink:href="#DejaVuSans-30"/>
       <use xlink:href="#DejaVuSans-2e" x="63.623047"/>
       <use xlink:href="#DejaVuSans-37" x="95.410156"/>
      </g>
     </g>
    </g>
    <g id="ytick_12">
     <g id="line2d_23">
      <g>
       <use xlink:href="#md3cee790ad" x="1166.4" y="81.153662" style="fill: #ff0000; stroke: #ff0000; stroke-width: 0.8"/>
      </g>
     </g>
     <g id="text_24">
      <!-- 0.8 -->
      <g style="fill: #ff0000" transform="translate(1173.4 84.952881) scale(0.1 -0.1)">
       <defs>
        <path id="DejaVuSans-38" d="M 2034 2216 
Q 1584 2216 1326 1975 
Q 1069 1734 1069 1313 
Q 1069 891 1326 650 
Q 1584 409 2034 409 
Q 2484 409 2743 651 
Q 3003 894 3003 1313 
Q 3003 1734 2745 1975 
Q 2488 2216 2034 2216 
z
M 1403 2484 
Q 997 2584 770 2862 
Q 544 3141 544 3541 
Q 544 4100 942 4425 
Q 1341 4750 2034 4750 
Q 2731 4750 3128 4425 
Q 3525 4100 3525 3541 
Q 3525 3141 3298 2862 
Q 3072 2584 2669 2484 
Q 3125 2378 3379 2068 
Q 3634 1759 3634 1313 
Q 3634 634 3220 271 
Q 2806 -91 2034 -91 
Q 1263 -91 848 271 
Q 434 634 434 1313 
Q 434 1759 690 2068 
Q 947 2378 1403 2484 
z
M 1172 3481 
Q 1172 3119 1398 2916 
Q 1625 2713 2034 2713 
Q 2441 2713 2670 2916 
Q 2900 3119 2900 3481 
Q 2900 3844 2670 4047 
Q 2441 4250 2034 4250 
Q 1625 4250 1398 4047 
Q 1172 3844 1172 3481 
z
" transform="scale(0.015625)"/>
       </defs>
       <use xlink:href="#DejaVuSans-30"/>
       <use xlink:href="#DejaVuSans-2e" x="63.623047"/>
       <use xlink:href="#DejaVuSans-38" x="95.410156"/>
      </g>
     </g>
    </g>
    <g id="ytick_13">
     <g id="line2d_24">
      <g>
       <use xlink:href="#md3cee790ad" x="1166.4" y="55.589364" style="fill: #ff0000; stroke: #ff0000; stroke-width: 0.8"/>
      </g>
     </g>
     <g id="text_25">
      <!-- 0.9 -->
      <g style="fill: #ff0000" transform="translate(1173.4 59.388583) scale(0.1 -0.1)">
       <use xlink:href="#DejaVuSans-30"/>
       <use xlink:href="#DejaVuSans-2e" x="63.623047"/>
       <use xlink:href="#DejaVuSans-39" x="95.410156"/>
      </g>
     </g>
    </g>
    <g id="text_26">
     <!-- Indicator -->
     <g style="fill: #ff0000" transform="translate(1200.901563 167.535313) rotate(-90) scale(0.1 -0.1)">
      <defs>
       <path id="DejaVuSans-6e" d="M 3513 2113 
L 3513 0 
L 2938 0 
L 2938 2094 
Q 2938 2591 2744 2837 
Q 2550 3084 2163 3084 
Q 1697 3084 1428 2787 
Q 1159 2491 1159 1978 
L 1159 0 
L 581 0 
L 581 3500 
L 1159 3500 
L 1159 2956 
Q 1366 3272 1645 3428 
Q 1925 3584 2291 3584 
Q 2894 3584 3203 3211 
Q 3513 2838 3513 2113 
z
" transform="scale(0.015625)"/>
       <path id="DejaVuSans-64" d="M 2906 2969 
L 2906 4863 
L 3481 4863 
L 3481 0 
L 2906 0 
L 2906 525 
Q 2725 213 2448 61 
Q 2172 -91 1784 -91 
Q 1150 -91 751 415 
Q 353 922 353 1747 
Q 353 2572 751 3078 
Q 1150 3584 1784 3584 
Q 2172 3584 2448 3432 
Q 2725 3281 2906 2969 
z
M 947 1747 
Q 947 1113 1208 752 
Q 1469 391 1925 391 
Q 2381 391 2643 752 
Q 2906 1113 2906 1747 
Q 2906 2381 2643 2742 
Q 2381 3103 1925 3103 
Q 1469 3103 1208 2742 
Q 947 2381 947 1747 
z
" transform="scale(0.015625)"/>
       <path id="DejaVuSans-69" d="M 603 3500 
L 1178 3500 
L 1178 0 
L 603 0 
L 603 3500 
z
M 603 4863 
L 1178 4863 
L 1178 4134 
L 603 4134 
L 603 4863 
z
" transform="scale(0.015625)"/>
       <path id="DejaVuSans-63" d="M 3122 3366 
L 3122 2828 
Q 2878 2963 2633 3030 
Q 2388 3097 2138 3097 
Q 1578 3097 1268 2742 
Q 959 2388 959 1747 
Q 959 1106 1268 751 
Q 1578 397 2138 397 
Q 2388 397 2633 464 
Q 2878 531 3122 666 
L 3122 134 
Q 2881 22 2623 -34 
Q 2366 -91 2075 -91 
Q 1284 -91 818 406 
Q 353 903 353 1747 
Q 353 2603 823 3093 
Q 1294 3584 2113 3584 
Q 2378 3584 2631 3529 
Q 2884 3475 3122 3366 
z
" transform="scale(0.015625)"/>
       <path id="DejaVuSans-6f" d="M 1959 3097 
Q 1497 3097 1228 2736 
Q 959 2375 959 1747 
Q 959 1119 1226 758 
Q 1494 397 1959 397 
Q 2419 397 2687 759 
Q 2956 1122 2956 1747 
Q 2956 2369 2687 2733 
Q 2419 3097 1959 3097 
z
M 1959 3584 
Q 2709 3584 3137 3096 
Q 3566 2609 3566 1747 
Q 3566 888 3137 398 
Q 2709 -91 1959 -91 
Q 1206 -91 779 398 
Q 353 888 353 1747 
Q 353 2609 779 3096 
Q 1206 3584 1959 3584 
z
" transform="scale(0.015625)"/>
       <path id="DejaVuSans-72" d="M 2631 2963 
Q 2534 3019 2420 3045 
Q 2306 3072 2169 3072 
Q 1681 3072 1420 2755 
Q 1159 2438 1159 1844 
L 1159 0 
L 581 0 
L 581 3500 
L 1159 3500 
L 1159 2956 
Q 1341 3275 1631 3429 
Q 1922 3584 2338 3584 
Q 2397 3584 2469 3576 
Q 2541 3569 2628 3553 
L 2631 2963 
z
" transform="scale(0.015625)"/>
      </defs>
      <use xlink:href="#DejaVuSans-49"/>
      <use xlink:href="#DejaVuSans-6e" x="29.492188"/>
      <use xlink:href="#DejaVuSans-64" x="92.871094"/>
      <use xlink:href="#DejaVuSans-69" x="156.347656"/>
      <use xlink:href="#DejaVuSans-63" x="184.130859"/>
      <use xlink:href="#DejaVuSans-61" x="239.111328"/>
      <use xlink:href="#DejaVuSans-74" x="300.390625"/>
      <use xlink:href="#DejaVuSans-6f" x="339.599609"/>
      <use xlink:href="#DejaVuSans-72" x="400.78125"/>
     </g>
    </g>
   </g>
   <g id="line2d_25">
    <path d="M 207.654545 53.191047 
L 210.158451 53.445632 
L 210.993086 53.621101 
L 213.496992 53.564203 
L 215.166262 53.859852 
L 216.000897 54.260703 
L 219.339438 54.595026 
L 221.843344 55.975457 
L 222.677979 57.197322 
L 225.181885 58.438222 
L 226.851155 60.212342 
L 227.68579 61.701842 
L 228.520425 63.79565 
L 231.024331 65.226862 
L 232.693601 68.248902 
L 233.528237 69.249641 
L 234.362872 70.529496 
L 236.866777 71.441593 
L 238.536048 73.046638 
L 239.370683 73.602775 
L 240.205318 74.6701 
L 242.709224 75.67476 
L 243.543859 75.441557 
L 244.378494 75.891133 
L 245.213129 77.037203 
L 246.047765 78.395231 
L 248.55167 78.037935 
L 249.386305 77.557023 
L 250.220941 74.390863 
L 251.055576 73.08046 
L 251.890211 72.586533 
L 254.394117 72.001194 
L 255.228752 71.007654 
L 256.063387 69.569679 
L 257.732657 67.717229 
L 260.236563 67.359479 
L 261.071198 66.848813 
L 263.575104 66.610124 
L 266.913645 66.473231 
L 267.74828 66.743764 
L 268.582915 66.621402 
L 269.41755 67.147476 
L 273.590726 67.418909 
L 274.425361 67.702657 
L 275.259997 68.186115 
L 277.763902 68.752884 
L 280.267808 69.834909 
L 281.102443 69.204067 
L 283.606349 68.886084 
L 284.440984 69.693455 
L 285.275619 71.294665 
L 286.110254 75.260918 
L 286.944889 78.377213 
L 289.448795 79.79979 
L 290.28343 81.668896 
L 291.118065 84.790922 
L 292.787336 93.705167 
L 296.125877 97.098592 
L 296.960512 99.308057 
L 297.795147 99.142008 
L 298.629782 100.387292 
L 301.133688 101.006342 
L 301.968323 100.614009 
L 302.802958 102.359855 
L 303.637593 102.90049 
L 304.472229 102.4284 
L 306.976134 96.125887 
L 307.810769 93.175193 
L 308.645405 92.472925 
L 309.48004 92.638515 
L 310.314675 91.739964 
L 312.818581 90.232707 
L 313.653216 88.07205 
L 314.487851 87.188674 
L 315.322486 87.493231 
L 316.157121 87.161785 
L 318.661027 88.009382 
L 319.495662 87.905284 
L 320.330297 87.014428 
L 321.164933 86.381731 
L 321.999568 86.264937 
L 324.503473 85.563419 
L 325.338109 84.925027 
L 326.172744 84.833506 
L 327.007379 84.980115 
L 327.842014 84.998507 
L 330.34592 84.363372 
L 331.180555 83.502922 
L 332.01519 80.617814 
L 332.849825 79.317531 
L 333.684461 78.224708 
L 337.857637 77.548387 
L 338.692272 76.77417 
L 339.526907 77.647924 
L 342.030813 80.5927 
L 342.865448 82.29046 
L 343.700083 83.291436 
L 344.534718 84.031712 
L 345.369353 84.501005 
L 348.707894 84.167347 
L 349.542529 85.01078 
L 350.377165 84.712042 
L 351.2118 82.824217 
L 353.715706 82.203659 
L 355.384976 82.127992 
L 356.219611 81.742969 
L 357.054246 79.950117 
L 359.558152 75.76887 
L 360.392787 72.989293 
L 361.227422 71.66756 
L 362.896693 70.286983 
L 365.400598 69.365515 
L 366.235234 67.548093 
L 367.069869 66.470998 
L 367.904504 66.124561 
L 368.739139 66.249377 
L 371.243045 65.313077 
L 372.912315 63.769873 
L 373.74695 63.273386 
L 374.581586 63.285795 
L 377.085491 62.660694 
L 377.920126 62.056403 
L 378.754762 61.712821 
L 379.589397 61.595689 
L 382.927938 61.628375 
L 384.597208 62.417864 
L 385.431843 63.062454 
L 386.266478 64.061834 
L 388.770384 64.861302 
L 389.605019 65.572845 
L 390.439654 65.826801 
L 391.27429 66.295637 
L 392.108925 67.335773 
L 394.61283 69.71556 
L 395.447466 72.199438 
L 396.282101 74.162632 
L 397.116736 75.349095 
L 397.951371 75.843711 
L 400.490053 76.461616 
L 401.324688 78.832649 
L 402.159324 80.678218 
L 403.828594 86.597352 
L 406.3325 91.254265 
L 408.00177 99.245686 
L 408.836405 101.33687 
L 409.67104 102.302839 
L 412.174946 103.261766 
L 413.009581 103.816726 
L 413.844216 103.888205 
L 415.513487 92.24277 
L 418.017392 87.289774 
L 419.686663 74.281818 
L 421.355933 66.33098 
L 423.859839 63.945777 
L 424.694474 62.760825 
L 426.363744 61.386057 
L 427.19838 61.060251 
L 429.702285 60.471848 
L 430.53692 59.719068 
L 431.371556 59.293119 
L 433.040826 57.894906 
L 435.544732 57.194137 
L 436.379367 56.799168 
L 437.214002 56.71258 
L 438.048637 56.790989 
L 441.387178 56.788944 
L 443.891084 56.519587 
L 444.725719 56.508638 
L 449.73353 56.628713 
L 450.568165 56.610613 
L 453.072071 57.580039 
L 453.906706 58.092651 
L 454.741341 59.254697 
L 456.410612 62.064468 
L 459.749152 63.403376 
L 460.583788 64.013043 
L 461.418423 63.33733 
L 462.253058 61.834227 
L 464.756964 60.581537 
L 465.591599 58.919539 
L 466.426234 57.559149 
L 468.095504 55.842194 
L 471.434045 55.417722 
L 472.26868 55.487681 
L 473.937951 54.798491 
L 476.441856 54.395769 
L 478.945762 53.393421 
L 479.780397 52.695726 
L 482.284303 51.98201 
L 483.953573 51.022183 
L 485.622844 50.160822 
L 488.961384 49.679246 
L 490.630655 48.658356 
L 491.46529 48.265152 
L 493.969196 47.897246 
L 494.803831 47.400787 
L 496.473101 46.92396 
L 497.307736 46.725318 
L 502.315548 46.356647 
L 505.619312 46.231517 
L 508.123218 45.865575 
L 512.296394 45.867982 
L 513.965664 45.766098 
L 517.304205 46.057856 
L 518.973475 46.509408 
L 519.80811 46.620831 
L 520.642746 46.88149 
L 523.146651 47.175804 
L 526.485192 48.310582 
L 528.989098 48.537371 
L 531.493003 49.643093 
L 534.831544 50.110568 
L 537.33545 52.337039 
L 538.170085 52.467801 
L 540.67399 52.714485 
L 543.177896 52.267283 
L 544.012531 51.788102 
L 546.516437 51.292278 
L 547.351072 50.973366 
L 548.185707 50.838851 
L 549.854978 50.013925 
L 552.358883 49.365669 
L 554.028154 48.249434 
L 554.862789 47.788454 
L 555.697424 47.496697 
L 558.20133 47.232423 
L 561.53987 46.234636 
L 565.713046 45.782962 
L 567.382317 45.557602 
L 571.555493 45.349157 
L 573.224763 45.191349 
L 576.563304 45.340075 
L 578.232574 45.721527 
L 579.06721 45.780324 
L 583.240386 45.745083 
L 584.075021 45.55074 
L 588.248197 45.552519 
L 590.752102 45.947951 
L 594.925278 46.07498 
L 595.759914 46.003208 
L 596.594549 46.120781 
L 600.767725 46.247699 
L 604.940901 46.520968 
L 616.625794 46.696294 
L 617.460429 46.790247 
L 619.964334 47.768758 
L 622.46824 48.139997 
L 624.972146 49.062013 
L 625.806781 49.408144 
L 628.310686 49.679246 
L 629.145322 49.923736 
L 631.649227 51.266171 
L 634.153133 51.657675 
L 636.657038 53.018029 
L 637.491674 53.302762 
L 639.995579 53.474037 
L 641.66485 54.013201 
L 642.499485 54.377274 
L 643.33412 54.271025 
L 646.672661 54.065139 
L 649.176566 53.54507 
L 654.184378 53.264896 
L 657.522918 53.053483 
L 658.357554 52.7501 
L 659.192189 52.6012 
L 660.861459 52.013521 
L 663.365365 51.732815 
L 665.86927 50.629097 
L 666.703906 50.135162 
L 669.207811 49.532002 
L 670.877082 48.545347 
L 672.546352 47.646824 
L 676.719528 47.003337 
L 678.388798 46.473378 
L 680.892704 46.273619 
L 684.231245 45.539067 
L 687.569786 45.303153 
L 690.073691 44.84847 
L 695.081502 44.64 
L 700.923949 44.771158 
L 701.758584 44.891949 
L 705.131901 45.242522 
L 706.801172 45.54947 
L 707.635807 45.785073 
L 710.974348 46.079683 
L 712.643618 46.392606 
L 713.478253 46.63682 
L 715.982159 46.94894 
L 717.651429 47.811804 
L 719.3207 48.236044 
L 721.824605 48.621163 
L 723.493876 49.448154 
L 725.163146 50.501168 
L 727.667052 50.9761 
L 729.336322 51.747203 
L 731.005592 52.340252 
L 733.509498 52.388592 
L 736.848039 53.322113 
L 739.351944 53.476226 
L 740.18658 53.688051 
L 741.85585 54.432866 
L 742.690485 54.650243 
L 746.029026 54.722418 
L 746.863661 54.855729 
L 748.532932 55.334946 
L 754.375378 55.531882 
L 757.713919 55.379364 
L 758.548554 55.479584 
L 760.217824 55.966959 
L 763.556365 56.012366 
L 764.391 55.891729 
L 765.225636 55.913301 
L 766.060271 56.133487 
L 768.564176 56.412581 
L 770.233447 57.109534 
L 771.068082 57.791181 
L 771.902717 58.254141 
L 774.406623 58.395472 
L 775.241258 58.809564 
L 776.910529 59.897413 
L 777.745164 60.330875 
L 780.249069 60.420907 
L 781.083705 60.897598 
L 783.58761 61.467332 
L 786.091516 61.63773 
L 786.926151 62.075768 
L 787.760786 62.853156 
L 789.430057 63.608967 
L 795.272503 63.039805 
L 797.776409 62.675918 
L 798.611044 62.284188 
L 799.445679 62.085461 
L 800.280314 62.207261 
L 801.114949 62.542892 
L 805.288125 62.805198 
L 806.122761 62.215423 
L 806.957396 61.261355 
L 810.26116 59.595956 
L 811.095795 58.740908 
L 811.93043 58.131935 
L 812.765066 57.374014 
L 816.103606 56.566502 
L 817.772877 55.928334 
L 818.607512 55.831943 
L 824.449958 55.903915 
L 826.953864 56.042749 
L 828.623134 56.73899 
L 829.45777 57.021418 
L 832.79631 57.307279 
L 835.300216 57.998479 
L 836.134851 58.29048 
L 838.638757 58.47278 
L 839.473392 58.687256 
L 840.308027 59.074558 
L 841.142662 59.321377 
L 841.977298 60.097726 
L 844.481203 61.23717 
L 845.315838 62.46773 
L 846.150474 63.308872 
L 847.819744 66.569595 
L 850.32365 68.857257 
L 851.158285 70.61992 
L 851.99292 71.534086 
L 852.827555 72.218746 
L 853.66219 74.058542 
L 856.166096 75.847657 
L 858.670002 79.350591 
L 859.504637 80.313453 
L 862.843178 81.401206 
L 863.677813 82.541959 
L 864.512448 84.274061 
L 865.347083 85.238938 
L 868.685624 86.728976 
L 869.520259 86.116529 
L 870.354894 85.269943 
L 871.18953 84.730218 
L 874.52807 84.423112 
L 875.362706 83.768671 
L 876.197341 84.244367 
L 877.031976 85.822465 
L 879.535882 87.155069 
L 880.370517 89.2059 
L 881.205152 92.981123 
L 882.039787 97.715375 
L 882.874422 101.050223 
L 885.378328 101.906375 
L 886.212963 103.603151 
L 887.882234 114.075593 
L 888.716869 125.332207 
L 892.05541 131.946741 
L 892.890045 140.220719 
L 893.72468 151.57892 
L 894.559315 160.149139 
L 897.063221 166.673511 
L 898.732491 182.602936 
L 899.567126 191.487371 
L 900.401762 197.312494 
L 902.905667 201.319499 
L 904.574938 205.217472 
L 905.409573 207.650633 
L 906.244208 212.286979 
L 908.748114 217.666653 
L 910.417384 225.282959 
L 912.086654 231.027678 
L 914.59056 232.303051 
L 915.425195 233.033722 
L 916.25983 233.563514 
L 917.094466 233.54732 
L 917.929101 233.730142 
L 921.267642 233.574302 
L 922.102277 234.534122 
L 922.936912 234.63701 
L 923.771547 234.917395 
L 926.275453 235.3534 
L 927.110088 235.159074 
L 927.944723 234.022642 
L 928.779358 232.536105 
L 929.613994 230.033368 
L 932.117899 228.515879 
L 932.952534 227.317336 
L 933.78717 225.699924 
L 934.621805 223.813798 
L 935.45644 222.743095 
L 937.960346 221.690414 
L 941.298886 210.919917 
L 943.802792 208.311744 
L 944.637427 205.415332 
L 945.472062 201.827939 
L 946.306698 195.982482 
L 947.141333 191.785776 
L 949.645238 188.735446 
L 950.479874 186.452435 
L 951.314509 186.209885 
L 952.149144 187.055253 
L 952.983779 188.068317 
L 956.32232 187.870844 
L 957.156955 186.694173 
L 957.99159 184.219682 
L 958.826226 185.395537 
L 961.330131 184.427272 
L 962.164766 183.173509 
L 962.999402 184.115681 
L 963.834037 190.62125 
L 964.668672 194.529625 
L 967.172578 199.75973 
L 968.007213 202.345871 
L 968.841848 203.614805 
L 970.511118 199.082162 
L 973.015024 195.618574 
L 973.849659 187.969652 
L 974.684294 184.406539 
L 975.51893 183.236665 
L 976.353565 184.01154 
L 978.857471 183.362822 
L 979.692106 177.611237 
L 980.526741 173.951512 
L 981.361376 168.042832 
L 982.196011 167.443294 
L 984.699917 162.547271 
L 985.534552 157.769252 
L 986.369187 153.749345 
L 987.203823 146.949859 
L 988.038458 133.872023 
L 990.542363 125.522888 
L 992.211634 111.113769 
L 993.880904 94.280512 
L 996.38481 89.031452 
L 997.219445 85.816114 
L 998.888715 78.082244 
L 999.723351 75.021534 
L 1002.227256 72.972462 
L 1003.061891 71.667559 
L 1003.896527 71.136945 
L 1004.731162 71.714371 
L 1005.565797 72.445644 
L 1008.104479 73.114346 
L 1009.773749 76.018187 
L 1010.608385 76.853117 
L 1011.44302 78.300813 
L 1013.946925 79.621796 
L 1015.616196 85.05992 
L 1017.285466 90.423163 
L 1019.789372 93.921727 
L 1021.458642 100.646527 
L 1023.127913 105.572827 
L 1025.631818 114.86743 
L 1026.466453 122.504587 
L 1027.301089 132.093252 
L 1028.135724 146.259084 
L 1028.970359 167.58734 
L 1031.474265 186.79465 
L 1032.3089 200.285438 
L 1033.97817 217.071613 
L 1034.812805 224.531018 
L 1037.316711 230.551271 
L 1038.151346 234.851457 
L 1038.985981 237.671554 
L 1039.820617 239.521721 
L 1040.655252 240.832067 
L 1043.159157 241.690675 
L 1043.993793 242.513183 
L 1045.663063 243.161441 
L 1046.497698 243.886929 
L 1049.836239 244.253677 
L 1050.670874 244.954894 
L 1052.340145 245.932422 
L 1055.678685 246.24 
L 1056.513321 246.174591 
L 1057.347956 245.976728 
L 1060.686497 245.912999 
L 1062.355767 245.829489 
L 1064.025037 245.976728 
L 1067.363578 245.720268 
L 1068.198213 245.101546 
L 1069.032849 244.792042 
L 1069.867484 244.657587 
L 1072.371389 244.591452 
L 1073.206025 244.744362 
L 1074.875295 244.256751 
L 1075.70993 243.886929 
L 1078.213836 243.437948 
L 1079.048471 243.167998 
L 1079.883106 242.475689 
L 1081.552377 241.550994 
L 1084.056282 241.550994 
L 1084.890917 241.761883 
L 1086.560188 241.903449 
L 1089.898729 241.198781 
L 1090.733364 239.907338 
L 1091.567999 239.437181 
L 1093.237269 239.404875 
L 1096.57581 238.549261 
L 1097.410445 237.569576 
L 1098.245081 236.762108 
L 1099.079716 236.265341 
L 1101.583621 235.639073 
L 1102.418257 235.27887 
L 1103.252892 235.27887 
L 1104.087527 235.959416 
L 1104.922162 236.444833 
L 1107.426068 236.355285 
L 1108.260703 235.746409 
L 1109.095338 234.775117 
L 1110.764609 233.411899 
L 1113.233738 232.320184 
L 1114.068373 232.182729 
L 1114.903008 231.928517 
L 1115.737643 231.899447 
L 1116.572279 231.588976 
L 1119.910819 231.214314 
L 1120.745455 230.662086 
L 1120.745455 230.662086 
" clip-path="url(#p5de16d0b48)" style="fill: none; stroke: #ff0000; stroke-width: 1.5; stroke-linecap: square"/>
   </g>
   <g id="patch_7">
    <path d="M 162 256.32 
L 162 34.56 
" style="fill: none; stroke: #000000; stroke-width: 0.8; stroke-linejoin: miter; stroke-linecap: square"/>
   </g>
   <g id="patch_8">
    <path d="M 1166.4 256.32 
L 1166.4 34.56 
" style="fill: none; stroke: #000000; stroke-width: 0.8; stroke-linejoin: miter; stroke-linecap: square"/>
   </g>
   <g id="patch_9">
    <path d="M 162 256.32 
L 1166.4 256.32 
" style="fill: none; stroke: #000000; stroke-width: 0.8; stroke-linejoin: miter; stroke-linecap: square"/>
   </g>
   <g id="patch_10">
    <path d="M 162 34.56 
L 1166.4 34.56 
" style="fill: none; stroke: #000000; stroke-width: 0.8; stroke-linejoin: miter; stroke-linecap: square"/>
   </g>
   <g id="text_27">
    <!-- VIX and Cumulative Probability Indicator (smoothed 30 periods) - 3Y (Updated 2024-03-20 15:25:33) -->
    <g transform="translate(361.360313 28.56) scale(0.12 -0.12)">
     <defs>
      <path id="DejaVuSans-20" transform="scale(0.015625)"/>
      <path id="DejaVuSans-43" d="M 4122 4306 
L 4122 3641 
Q 3803 3938 3442 4084 
Q 3081 4231 2675 4231 
Q 1875 4231 1450 3742 
Q 1025 3253 1025 2328 
Q 1025 1406 1450 917 
Q 1875 428 2675 428 
Q 3081 428 3442 575 
Q 3803 722 4122 1019 
L 4122 359 
Q 3791 134 3420 21 
Q 3050 -91 2638 -91 
Q 1578 -91 968 557 
Q 359 1206 359 2328 
Q 359 3453 968 4101 
Q 1578 4750 2638 4750 
Q 3056 4750 3426 4639 
Q 3797 4528 4122 4306 
z
" transform="scale(0.015625)"/>
      <path id="DejaVuSans-75" d="M 544 1381 
L 544 3500 
L 1119 3500 
L 1119 1403 
Q 1119 906 1312 657 
Q 1506 409 1894 409 
Q 2359 409 2629 706 
Q 2900 1003 2900 1516 
L 2900 3500 
L 3475 3500 
L 3475 0 
L 2900 0 
L 2900 538 
Q 2691 219 2414 64 
Q 2138 -91 1772 -91 
Q 1169 -91 856 284 
Q 544 659 544 1381 
z
M 1991 3584 
L 1991 3584 
z
" transform="scale(0.015625)"/>
      <path id="DejaVuSans-6d" d="M 3328 2828 
Q 3544 3216 3844 3400 
Q 4144 3584 4550 3584 
Q 5097 3584 5394 3201 
Q 5691 2819 5691 2113 
L 5691 0 
L 5113 0 
L 5113 2094 
Q 5113 2597 4934 2840 
Q 4756 3084 4391 3084 
Q 3944 3084 3684 2787 
Q 3425 2491 3425 1978 
L 3425 0 
L 2847 0 
L 2847 2094 
Q 2847 2600 2669 2842 
Q 2491 3084 2119 3084 
Q 1678 3084 1418 2786 
Q 1159 2488 1159 1978 
L 1159 0 
L 581 0 
L 581 3500 
L 1159 3500 
L 1159 2956 
Q 1356 3278 1631 3431 
Q 1906 3584 2284 3584 
Q 2666 3584 2933 3390 
Q 3200 3197 3328 2828 
z
" transform="scale(0.015625)"/>
      <path id="DejaVuSans-6c" d="M 603 4863 
L 1178 4863 
L 1178 0 
L 603 0 
L 603 4863 
z
" transform="scale(0.015625)"/>
      <path id="DejaVuSans-76" d="M 191 3500 
L 800 3500 
L 1894 563 
L 2988 3500 
L 3597 3500 
L 2284 0 
L 1503 0 
L 191 3500 
z
" transform="scale(0.015625)"/>
      <path id="DejaVuSans-50" d="M 1259 4147 
L 1259 2394 
L 2053 2394 
Q 2494 2394 2734 2622 
Q 2975 2850 2975 3272 
Q 2975 3691 2734 3919 
Q 2494 4147 2053 4147 
L 1259 4147 
z
M 628 4666 
L 2053 4666 
Q 2838 4666 3239 4311 
Q 3641 3956 3641 3272 
Q 3641 2581 3239 2228 
Q 2838 1875 2053 1875 
L 1259 1875 
L 1259 0 
L 628 0 
L 628 4666 
z
" transform="scale(0.015625)"/>
      <path id="DejaVuSans-62" d="M 3116 1747 
Q 3116 2381 2855 2742 
Q 2594 3103 2138 3103 
Q 1681 3103 1420 2742 
Q 1159 2381 1159 1747 
Q 1159 1113 1420 752 
Q 1681 391 2138 391 
Q 2594 391 2855 752 
Q 3116 1113 3116 1747 
z
M 1159 2969 
Q 1341 3281 1617 3432 
Q 1894 3584 2278 3584 
Q 2916 3584 3314 3078 
Q 3713 2572 3713 1747 
Q 3713 922 3314 415 
Q 2916 -91 2278 -91 
Q 1894 -91 1617 61 
Q 1341 213 1159 525 
L 1159 0 
L 581 0 
L 581 4863 
L 1159 4863 
L 1159 2969 
z
" transform="scale(0.015625)"/>
      <path id="DejaVuSans-79" d="M 2059 -325 
Q 1816 -950 1584 -1140 
Q 1353 -1331 966 -1331 
L 506 -1331 
L 506 -850 
L 844 -850 
Q 1081 -850 1212 -737 
Q 1344 -625 1503 -206 
L 1606 56 
L 191 3500 
L 800 3500 
L 1894 763 
L 2988 3500 
L 3597 3500 
L 2059 -325 
z
" transform="scale(0.015625)"/>
      <path id="DejaVuSans-28" d="M 1984 4856 
Q 1566 4138 1362 3434 
Q 1159 2731 1159 2009 
Q 1159 1288 1364 580 
Q 1569 -128 1984 -844 
L 1484 -844 
Q 1016 -109 783 600 
Q 550 1309 550 2009 
Q 550 2706 781 3412 
Q 1013 4119 1484 4856 
L 1984 4856 
z
" transform="scale(0.015625)"/>
      <path id="DejaVuSans-73" d="M 2834 3397 
L 2834 2853 
Q 2591 2978 2328 3040 
Q 2066 3103 1784 3103 
Q 1356 3103 1142 2972 
Q 928 2841 928 2578 
Q 928 2378 1081 2264 
Q 1234 2150 1697 2047 
L 1894 2003 
Q 2506 1872 2764 1633 
Q 3022 1394 3022 966 
Q 3022 478 2636 193 
Q 2250 -91 1575 -91 
Q 1294 -91 989 -36 
Q 684 19 347 128 
L 347 722 
Q 666 556 975 473 
Q 1284 391 1588 391 
Q 1994 391 2212 530 
Q 2431 669 2431 922 
Q 2431 1156 2273 1281 
Q 2116 1406 1581 1522 
L 1381 1569 
Q 847 1681 609 1914 
Q 372 2147 372 2553 
Q 372 3047 722 3315 
Q 1072 3584 1716 3584 
Q 2034 3584 2315 3537 
Q 2597 3491 2834 3397 
z
" transform="scale(0.015625)"/>
      <path id="DejaVuSans-68" d="M 3513 2113 
L 3513 0 
L 2938 0 
L 2938 2094 
Q 2938 2591 2744 2837 
Q 2550 3084 2163 3084 
Q 1697 3084 1428 2787 
Q 1159 2491 1159 1978 
L 1159 0 
L 581 0 
L 581 4863 
L 1159 4863 
L 1159 2956 
Q 1366 3272 1645 3428 
Q 1925 3584 2291 3584 
Q 2894 3584 3203 3211 
Q 3513 2838 3513 2113 
z
" transform="scale(0.015625)"/>
      <path id="DejaVuSans-70" d="M 1159 525 
L 1159 -1331 
L 581 -1331 
L 581 3500 
L 1159 3500 
L 1159 2969 
Q 1341 3281 1617 3432 
Q 1894 3584 2278 3584 
Q 2916 3584 3314 3078 
Q 3713 2572 3713 1747 
Q 3713 922 3314 415 
Q 2916 -91 2278 -91 
Q 1894 -91 1617 61 
Q 1341 213 1159 525 
z
M 3116 1747 
Q 3116 2381 2855 2742 
Q 2594 3103 2138 3103 
Q 1681 3103 1420 2742 
Q 1159 2381 1159 1747 
Q 1159 1113 1420 752 
Q 1681 391 2138 391 
Q 2594 391 2855 752 
Q 3116 1113 3116 1747 
z
" transform="scale(0.015625)"/>
      <path id="DejaVuSans-29" d="M 513 4856 
L 1013 4856 
Q 1481 4119 1714 3412 
Q 1947 2706 1947 2009 
Q 1947 1309 1714 600 
Q 1481 -109 1013 -844 
L 513 -844 
Q 928 -128 1133 580 
Q 1338 1288 1338 2009 
Q 1338 2731 1133 3434 
Q 928 4138 513 4856 
z
" transform="scale(0.015625)"/>
      <path id="DejaVuSans-59" d="M -13 4666 
L 666 4666 
L 1959 2747 
L 3244 4666 
L 3922 4666 
L 2272 2222 
L 2272 0 
L 1638 0 
L 1638 2222 
L -13 4666 
z
" transform="scale(0.015625)"/>
      <path id="DejaVuSans-55" d="M 556 4666 
L 1191 4666 
L 1191 1831 
Q 1191 1081 1462 751 
Q 1734 422 2344 422 
Q 2950 422 3222 751 
Q 3494 1081 3494 1831 
L 3494 4666 
L 4128 4666 
L 4128 1753 
Q 4128 841 3676 375 
Q 3225 -91 2344 -91 
Q 1459 -91 1007 375 
Q 556 841 556 1753 
L 556 4666 
z
" transform="scale(0.015625)"/>
      <path id="DejaVuSans-3a" d="M 750 794 
L 1409 794 
L 1409 0 
L 750 0 
L 750 794 
z
M 750 3309 
L 1409 3309 
L 1409 2516 
L 750 2516 
L 750 3309 
z
" transform="scale(0.015625)"/>
     </defs>
     <use xlink:href="#DejaVuSans-56"/>
     <use xlink:href="#DejaVuSans-49" x="68.408203"/>
     <use xlink:href="#DejaVuSans-58" x="97.900391"/>
     <use xlink:href="#DejaVuSans-20" x="166.40625"/>
     <use xlink:href="#DejaVuSans-61" x="198.193359"/>
     <use xlink:href="#DejaVuSans-6e" x="259.472656"/>
     <use xlink:href="#DejaVuSans-64" x="322.851562"/>
     <use xlink:href="#DejaVuSans-20" x="386.328125"/>
     <use xlink:href="#DejaVuSans-43" x="418.115234"/>
     <use xlink:href="#DejaVuSans-75" x="487.939453"/>
     <use xlink:href="#DejaVuSans-6d" x="551.318359"/>
     <use xlink:href="#DejaVuSans-75" x="648.730469"/>
     <use xlink:href="#DejaVuSans-6c" x="712.109375"/>
     <use xlink:href="#DejaVuSans-61" x="739.892578"/>
     <use xlink:href="#DejaVuSans-74" x="801.171875"/>
     <use xlink:href="#DejaVuSans-69" x="840.380859"/>
     <use xlink:href="#DejaVuSans-76" x="868.164062"/>
     <use xlink:href="#DejaVuSans-65" x="927.34375"/>
     <use xlink:href="#DejaVuSans-20" x="988.867188"/>
     <use xlink:href="#DejaVuSans-50" x="1020.654297"/>
     <use xlink:href="#DejaVuSans-72" x="1079.207031"/>
     <use xlink:href="#DejaVuSans-6f" x="1118.070312"/>
     <use xlink:href="#DejaVuSans-62" x="1179.251953"/>
     <use xlink:href="#DejaVuSans-61" x="1242.728516"/>
     <use xlink:href="#DejaVuSans-62" x="1304.007812"/>
     <use xlink:href="#DejaVuSans-69" x="1367.484375"/>
     <use xlink:href="#DejaVuSans-6c" x="1395.267578"/>
     <use xlink:href="#DejaVuSans-69" x="1423.050781"/>
     <use xlink:href="#DejaVuSans-74" x="1450.833984"/>
     <use xlink:href="#DejaVuSans-79" x="1490.042969"/>
     <use xlink:href="#DejaVuSans-20" x="1549.222656"/>
     <use xlink:href="#DejaVuSans-49" x="1581.009766"/>
     <use xlink:href="#DejaVuSans-6e" x="1610.501953"/>
     <use xlink:href="#DejaVuSans-64" x="1673.880859"/>
     <use xlink:href="#DejaVuSans-69" x="1737.357422"/>
     <use xlink:href="#DejaVuSans-63" x="1765.140625"/>
     <use xlink:href="#DejaVuSans-61" x="1820.121094"/>
     <use xlink:href="#DejaVuSans-74" x="1881.400391"/>
     <use xlink:href="#DejaVuSans-6f" x="1920.609375"/>
     <use xlink:href="#DejaVuSans-72" x="1981.791016"/>
     <use xlink:href="#DejaVuSans-20" x="2022.904297"/>
     <use xlink:href="#DejaVuSans-28" x="2054.691406"/>
     <use xlink:href="#DejaVuSans-73" x="2093.705078"/>
     <use xlink:href="#DejaVuSans-6d" x="2145.804688"/>
     <use xlink:href="#DejaVuSans-6f" x="2243.216797"/>
     <use xlink:href="#DejaVuSans-6f" x="2304.398438"/>
     <use xlink:href="#DejaVuSans-74" x="2365.580078"/>
     <use xlink:href="#DejaVuSans-68" x="2404.789062"/>
     <use xlink:href="#DejaVuSans-65" x="2468.167969"/>
     <use xlink:href="#DejaVuSans-64" x="2529.691406"/>
     <use xlink:href="#DejaVuSans-20" x="2593.167969"/>
     <use xlink:href="#DejaVuSans-33" x="2624.955078"/>
     <use xlink:href="#DejaVuSans-30" x="2688.578125"/>
     <use xlink:href="#DejaVuSans-20" x="2752.201172"/>
     <use xlink:href="#DejaVuSans-70" x="2783.988281"/>
     <use xlink:href="#DejaVuSans-65" x="2847.464844"/>
     <use xlink:href="#DejaVuSans-72" x="2908.988281"/>
     <use xlink:href="#DejaVuSans-69" x="2950.101562"/>
     <use xlink:href="#DejaVuSans-6f" x="2977.884766"/>
     <use xlink:href="#DejaVuSans-64" x="3039.066406"/>
     <use xlink:href="#DejaVuSans-73" x="3102.542969"/>
     <use xlink:href="#DejaVuSans-29" x="3154.642578"/>
     <use xlink:href="#DejaVuSans-20" x="3193.65625"/>
     <use xlink:href="#DejaVuSans-2d" x="3225.443359"/>
     <use xlink:href="#DejaVuSans-20" x="3261.527344"/>
     <use xlink:href="#DejaVuSans-33" x="3293.314453"/>
     <use xlink:href="#DejaVuSans-59" x="3356.9375"/>
     <use xlink:href="#DejaVuSans-20" x="3418.021484"/>
     <use xlink:href="#DejaVuSans-28" x="3449.808594"/>
     <use xlink:href="#DejaVuSans-55" x="3488.822266"/>
     <use xlink:href="#DejaVuSans-70" x="3562.015625"/>
     <use xlink:href="#DejaVuSans-64" x="3625.492188"/>
     <use xlink:href="#DejaVuSans-61" x="3688.96875"/>
     <use xlink:href="#DejaVuSans-74" x="3750.248047"/>
     <use xlink:href="#DejaVuSans-65" x="3789.457031"/>
     <use xlink:href="#DejaVuSans-64" x="3850.980469"/>
     <use xlink:href="#DejaVuSans-20" x="3914.457031"/>
     <use xlink:href="#DejaVuSans-32" x="3946.244141"/>
     <use xlink:href="#DejaVuSans-30" x="4009.867188"/>
     <use xlink:href="#DejaVuSans-32" x="4073.490234"/>
     <use xlink:href="#DejaVuSans-34" x="4137.113281"/>
     <use xlink:href="#DejaVuSans-2d" x="4200.736328"/>
     <use xlink:href="#DejaVuSans-30" x="4236.820312"/>
     <use xlink:href="#DejaVuSans-33" x="4300.443359"/>
     <use xlink:href="#DejaVuSans-2d" x="4364.066406"/>
     <use xlink:href="#DejaVuSans-32" x="4400.150391"/>
     <use xlink:href="#DejaVuSans-30" x="4463.773438"/>
     <use xlink:href="#DejaVuSans-20" x="4527.396484"/>
     <use xlink:href="#DejaVuSans-31" x="4559.183594"/>
     <use xlink:href="#DejaVuSans-35" x="4622.806641"/>
     <use xlink:href="#DejaVuSans-3a" x="4686.429688"/>
     <use xlink:href="#DejaVuSans-32" x="4720.121094"/>
     <use xlink:href="#DejaVuSans-35" x="4783.744141"/>
     <use xlink:href="#DejaVuSans-3a" x="4847.367188"/>
     <use xlink:href="#DejaVuSans-33" x="4881.058594"/>
     <use xlink:href="#DejaVuSans-33" x="4944.681641"/>
     <use xlink:href="#DejaVuSans-29" x="5008.304688"/>
    </g>
   </g>
  </g>
  <g id="legend_1">
   <g id="patch_11">
    <path d="M 7 37.35625 
L 83.190625 37.35625 
Q 85.190625 37.35625 85.190625 35.35625 
L 85.190625 7 
Q 85.190625 5 83.190625 5 
L 7 5 
Q 5 5 5 7 
L 5 35.35625 
Q 5 37.35625 7 37.35625 
z
" style="fill: #ffffff; opacity: 0.8; stroke: #cccccc; stroke-linejoin: miter"/>
   </g>
   <g id="line2d_26">
    <path d="M 9 13.098437 
L 19 13.098437 
L 29 13.098437 
" style="fill: none; stroke: #0000ff; stroke-width: 1.5; stroke-linecap: square"/>
   </g>
   <g id="text_28">
    <!-- VIX -->
    <g transform="translate(37 16.598437) scale(0.1 -0.1)">
     <use xlink:href="#DejaVuSans-56"/>
     <use xlink:href="#DejaVuSans-49" x="68.408203"/>
     <use xlink:href="#DejaVuSans-58" x="97.900391"/>
    </g>
   </g>
   <g id="line2d_27">
    <path d="M 9 27.776563 
L 19 27.776563 
L 29 27.776563 
" style="fill: none; stroke: #ff0000; stroke-width: 1.5; stroke-linecap: square"/>
   </g>
   <g id="text_29">
    <!-- Indicator -->
    <g transform="translate(37 31.276563) scale(0.1 -0.1)">
     <use xlink:href="#DejaVuSans-49"/>
     <use xlink:href="#DejaVuSans-6e" x="29.492188"/>
     <use xlink:href="#DejaVuSans-64" x="92.871094"/>
     <use xlink:href="#DejaVuSans-69" x="156.347656"/>
     <use xlink:href="#DejaVuSans-63" x="184.130859"/>
     <use xlink:href="#DejaVuSans-61" x="239.111328"/>
     <use xlink:href="#DejaVuSans-74" x="300.390625"/>
     <use xlink:href="#DejaVuSans-6f" x="339.599609"/>
     <use xlink:href="#DejaVuSans-72" x="400.78125"/>
    </g>
   </g>
  </g>
 </g>
 <defs>
  <clipPath id="p5de16d0b48">
   <rect x="162" y="34.56" width="1004.4" height="221.76"/>
  </clipPath>
 </defs>
</svg>
