<?xml version="1.0" encoding="utf-8" standalone="no"?>
<!DOCTYPE svg PUBLIC "-//W3C//DTD SVG 1.1//EN"
  "http://www.w3.org/Graphics/SVG/1.1/DTD/svg11.dtd">
<svg xmlns:xlink="http://www.w3.org/1999/xlink" width="1296pt" height="288pt" viewBox="0 0 1296 288" xmlns="http://www.w3.org/2000/svg" version="1.1">
 <metadata>
  <rdf:RDF xmlns:dc="http://purl.org/dc/elements/1.1/" xmlns:cc="http://creativecommons.org/ns#" xmlns:rdf="http://www.w3.org/1999/02/22-rdf-syntax-ns#">
   <cc:Work>
    <dc:type rdf:resource="http://purl.org/dc/dcmitype/StillImage"/>
    <dc:date>2024-03-19T05:11:50.798573</dc:date>
    <dc:format>image/svg+xml</dc:format>
    <dc:creator>
     <cc:Agent>
      <dc:title>Matplotlib v3.8.0, https://matplotlib.org/</dc:title>
     </cc:Agent>
    </dc:creator>
   </cc:Work>
  </rdf:RDF>
 </metadata>
 <defs>
  <style type="text/css">*{stroke-linejoin: round; stroke-linecap: butt}</style>
 </defs>
 <g id="figure_1">
  <g id="patch_1">
   <path d="M 0 288 
L 1296 288 
L 1296 0 
L 0 0 
z
" style="fill: #ffffff"/>
  </g>
  <g id="axes_1">
   <g id="patch_2">
    <path d="M 162 256.32 
L 1166.4 256.32 
L 1166.4 34.56 
L 162 34.56 
z
" style="fill: #ffffff"/>
   </g>
   <g id="matplotlib.axis_1">
    <g id="xtick_1">
     <g id="line2d_1">
      <defs>
       <path id="m21ef19ae84" d="M 0 0 
L 0 3.5 
" style="stroke: #000000; stroke-width: 0.8"/>
      </defs>
      <g>
       <use xlink:href="#m21ef19ae84" x="313.011189" y="256.32" style="stroke: #000000; stroke-width: 0.8"/>
      </g>
     </g>
     <g id="text_1">
      <!-- 2023-05 -->
      <g transform="translate(292.119783 270.918437) scale(0.1 -0.1)">
       <defs>
        <path id="DejaVuSans-32" d="M 1228 531 
L 3431 531 
L 3431 0 
L 469 0 
L 469 531 
Q 828 903 1448 1529 
Q 2069 2156 2228 2338 
Q 2531 2678 2651 2914 
Q 2772 3150 2772 3378 
Q 2772 3750 2511 3984 
Q 2250 4219 1831 4219 
Q 1534 4219 1204 4116 
Q 875 4013 500 3803 
L 500 4441 
Q 881 4594 1212 4672 
Q 1544 4750 1819 4750 
Q 2544 4750 2975 4387 
Q 3406 4025 3406 3419 
Q 3406 3131 3298 2873 
Q 3191 2616 2906 2266 
Q 2828 2175 2409 1742 
Q 1991 1309 1228 531 
z
" transform="scale(0.015625)"/>
        <path id="DejaVuSans-30" d="M 2034 4250 
Q 1547 4250 1301 3770 
Q 1056 3291 1056 2328 
Q 1056 1369 1301 889 
Q 1547 409 2034 409 
Q 2525 409 2770 889 
Q 3016 1369 3016 2328 
Q 3016 3291 2770 3770 
Q 2525 4250 2034 4250 
z
M 2034 4750 
Q 2819 4750 3233 4129 
Q 3647 3509 3647 2328 
Q 3647 1150 3233 529 
Q 2819 -91 2034 -91 
Q 1250 -91 836 529 
Q 422 1150 422 2328 
Q 422 3509 836 4129 
Q 1250 4750 2034 4750 
z
" transform="scale(0.015625)"/>
        <path id="DejaVuSans-33" d="M 2597 2516 
Q 3050 2419 3304 2112 
Q 3559 1806 3559 1356 
Q 3559 666 3084 287 
Q 2609 -91 1734 -91 
Q 1441 -91 1130 -33 
Q 819 25 488 141 
L 488 750 
Q 750 597 1062 519 
Q 1375 441 1716 441 
Q 2309 441 2620 675 
Q 2931 909 2931 1356 
Q 2931 1769 2642 2001 
Q 2353 2234 1838 2234 
L 1294 2234 
L 1294 2753 
L 1863 2753 
Q 2328 2753 2575 2939 
Q 2822 3125 2822 3475 
Q 2822 3834 2567 4026 
Q 2313 4219 1838 4219 
Q 1578 4219 1281 4162 
Q 984 4106 628 3988 
L 628 4550 
Q 988 4650 1302 4700 
Q 1616 4750 1894 4750 
Q 2613 4750 3031 4423 
Q 3450 4097 3450 3541 
Q 3450 3153 3228 2886 
Q 3006 2619 2597 2516 
z
" transform="scale(0.015625)"/>
        <path id="DejaVuSans-2d" d="M 313 2009 
L 1997 2009 
L 1997 1497 
L 313 1497 
L 313 2009 
z
" transform="scale(0.015625)"/>
        <path id="DejaVuSans-35" d="M 691 4666 
L 3169 4666 
L 3169 4134 
L 1269 4134 
L 1269 2991 
Q 1406 3038 1543 3061 
Q 1681 3084 1819 3084 
Q 2600 3084 3056 2656 
Q 3513 2228 3513 1497 
Q 3513 744 3044 326 
Q 2575 -91 1722 -91 
Q 1428 -91 1123 -41 
Q 819 9 494 109 
L 494 744 
Q 775 591 1075 516 
Q 1375 441 1709 441 
Q 2250 441 2565 725 
Q 2881 1009 2881 1497 
Q 2881 1984 2565 2268 
Q 2250 2553 1709 2553 
Q 1456 2553 1204 2497 
Q 953 2441 691 2322 
L 691 4666 
z
" transform="scale(0.015625)"/>
       </defs>
       <use xlink:href="#DejaVuSans-32"/>
       <use xlink:href="#DejaVuSans-30" x="63.623047"/>
       <use xlink:href="#DejaVuSans-32" x="127.246094"/>
       <use xlink:href="#DejaVuSans-33" x="190.869141"/>
       <use xlink:href="#DejaVuSans-2d" x="254.492188"/>
       <use xlink:href="#DejaVuSans-30" x="290.576172"/>
       <use xlink:href="#DejaVuSans-35" x="354.199219"/>
      </g>
     </g>
    </g>
    <g id="xtick_2">
     <g id="line2d_2">
      <g>
       <use xlink:href="#m21ef19ae84" x="466.029171" y="256.32" style="stroke: #000000; stroke-width: 0.8"/>
      </g>
     </g>
     <g id="text_2">
      <!-- 2023-07 -->
      <g transform="translate(445.137765 270.918437) scale(0.1 -0.1)">
       <defs>
        <path id="DejaVuSans-37" d="M 525 4666 
L 3525 4666 
L 3525 4397 
L 1831 0 
L 1172 0 
L 2766 4134 
L 525 4134 
L 525 4666 
z
" transform="scale(0.015625)"/>
       </defs>
       <use xlink:href="#DejaVuSans-32"/>
       <use xlink:href="#DejaVuSans-30" x="63.623047"/>
       <use xlink:href="#DejaVuSans-32" x="127.246094"/>
       <use xlink:href="#DejaVuSans-33" x="190.869141"/>
       <use xlink:href="#DejaVuSans-2d" x="254.492188"/>
       <use xlink:href="#DejaVuSans-30" x="290.576172"/>
       <use xlink:href="#DejaVuSans-37" x="354.199219"/>
      </g>
     </g>
    </g>
    <g id="xtick_3">
     <g id="line2d_3">
      <g>
       <use xlink:href="#m21ef19ae84" x="621.555644" y="256.32" style="stroke: #000000; stroke-width: 0.8"/>
      </g>
     </g>
     <g id="text_3">
      <!-- 2023-09 -->
      <g transform="translate(600.664238 270.918437) scale(0.1 -0.1)">
       <defs>
        <path id="DejaVuSans-39" d="M 703 97 
L 703 672 
Q 941 559 1184 500 
Q 1428 441 1663 441 
Q 2288 441 2617 861 
Q 2947 1281 2994 2138 
Q 2813 1869 2534 1725 
Q 2256 1581 1919 1581 
Q 1219 1581 811 2004 
Q 403 2428 403 3163 
Q 403 3881 828 4315 
Q 1253 4750 1959 4750 
Q 2769 4750 3195 4129 
Q 3622 3509 3622 2328 
Q 3622 1225 3098 567 
Q 2575 -91 1691 -91 
Q 1453 -91 1209 -44 
Q 966 3 703 97 
z
M 1959 2075 
Q 2384 2075 2632 2365 
Q 2881 2656 2881 3163 
Q 2881 3666 2632 3958 
Q 2384 4250 1959 4250 
Q 1534 4250 1286 3958 
Q 1038 3666 1038 3163 
Q 1038 2656 1286 2365 
Q 1534 2075 1959 2075 
z
" transform="scale(0.015625)"/>
       </defs>
       <use xlink:href="#DejaVuSans-32"/>
       <use xlink:href="#DejaVuSans-30" x="63.623047"/>
       <use xlink:href="#DejaVuSans-32" x="127.246094"/>
       <use xlink:href="#DejaVuSans-33" x="190.869141"/>
       <use xlink:href="#DejaVuSans-2d" x="254.492188"/>
       <use xlink:href="#DejaVuSans-30" x="290.576172"/>
       <use xlink:href="#DejaVuSans-39" x="354.199219"/>
      </g>
     </g>
    </g>
    <g id="xtick_4">
     <g id="line2d_4">
      <g>
       <use xlink:href="#m21ef19ae84" x="774.573626" y="256.32" style="stroke: #000000; stroke-width: 0.8"/>
      </g>
     </g>
     <g id="text_4">
      <!-- 2023-11 -->
      <g transform="translate(753.68222 270.918437) scale(0.1 -0.1)">
       <defs>
        <path id="DejaVuSans-31" d="M 794 531 
L 1825 531 
L 1825 4091 
L 703 3866 
L 703 4441 
L 1819 4666 
L 2450 4666 
L 2450 531 
L 3481 531 
L 3481 0 
L 794 0 
L 794 531 
z
" transform="scale(0.015625)"/>
       </defs>
       <use xlink:href="#DejaVuSans-32"/>
       <use xlink:href="#DejaVuSans-30" x="63.623047"/>
       <use xlink:href="#DejaVuSans-32" x="127.246094"/>
       <use xlink:href="#DejaVuSans-33" x="190.869141"/>
       <use xlink:href="#DejaVuSans-2d" x="254.492188"/>
       <use xlink:href="#DejaVuSans-31" x="290.576172"/>
       <use xlink:href="#DejaVuSans-31" x="354.199219"/>
      </g>
     </g>
    </g>
    <g id="xtick_5">
     <g id="line2d_5">
      <g>
       <use xlink:href="#m21ef19ae84" x="927.696129" y="256.32" style="stroke: #000000; stroke-width: 0.8"/>
      </g>
     </g>
     <g id="text_5">
      <!-- 2024-01 -->
      <g transform="translate(906.804723 270.918437) scale(0.1 -0.1)">
       <defs>
        <path id="DejaVuSans-34" d="M 2419 4116 
L 825 1625 
L 2419 1625 
L 2419 4116 
z
M 2253 4666 
L 3047 4666 
L 3047 1625 
L 3713 1625 
L 3713 1100 
L 3047 1100 
L 3047 0 
L 2419 0 
L 2419 1100 
L 313 1100 
L 313 1709 
L 2253 4666 
z
" transform="scale(0.015625)"/>
       </defs>
       <use xlink:href="#DejaVuSans-32"/>
       <use xlink:href="#DejaVuSans-30" x="63.623047"/>
       <use xlink:href="#DejaVuSans-32" x="127.246094"/>
       <use xlink:href="#DejaVuSans-34" x="190.869141"/>
       <use xlink:href="#DejaVuSans-2d" x="254.492188"/>
       <use xlink:href="#DejaVuSans-30" x="290.576172"/>
       <use xlink:href="#DejaVuSans-31" x="354.199219"/>
      </g>
     </g>
    </g>
    <g id="xtick_6">
     <g id="line2d_6">
      <g>
       <use xlink:href="#m21ef19ae84" x="1078.205619" y="256.32" style="stroke: #000000; stroke-width: 0.8"/>
      </g>
     </g>
     <g id="text_6">
      <!-- 2024-03 -->
      <g transform="translate(1057.314213 270.918437) scale(0.1 -0.1)">
       <use xlink:href="#DejaVuSans-32"/>
       <use xlink:href="#DejaVuSans-30" x="63.623047"/>
       <use xlink:href="#DejaVuSans-32" x="127.246094"/>
       <use xlink:href="#DejaVuSans-34" x="190.869141"/>
       <use xlink:href="#DejaVuSans-2d" x="254.492188"/>
       <use xlink:href="#DejaVuSans-30" x="290.576172"/>
       <use xlink:href="#DejaVuSans-33" x="354.199219"/>
      </g>
     </g>
    </g>
    <g id="text_7">
     <!-- Date -->
     <g transform="translate(652.249219 284.596563) scale(0.1 -0.1)">
      <defs>
       <path id="DejaVuSans-44" d="M 1259 4147 
L 1259 519 
L 2022 519 
Q 2988 519 3436 956 
Q 3884 1394 3884 2338 
Q 3884 3275 3436 3711 
Q 2988 4147 2022 4147 
L 1259 4147 
z
M 628 4666 
L 1925 4666 
Q 3281 4666 3915 4102 
Q 4550 3538 4550 2338 
Q 4550 1131 3912 565 
Q 3275 0 1925 0 
L 628 0 
L 628 4666 
z
" transform="scale(0.015625)"/>
       <path id="DejaVuSans-61" d="M 2194 1759 
Q 1497 1759 1228 1600 
Q 959 1441 959 1056 
Q 959 750 1161 570 
Q 1363 391 1709 391 
Q 2188 391 2477 730 
Q 2766 1069 2766 1631 
L 2766 1759 
L 2194 1759 
z
M 3341 1997 
L 3341 0 
L 2766 0 
L 2766 531 
Q 2569 213 2275 61 
Q 1981 -91 1556 -91 
Q 1019 -91 701 211 
Q 384 513 384 1019 
Q 384 1609 779 1909 
Q 1175 2209 1959 2209 
L 2766 2209 
L 2766 2266 
Q 2766 2663 2505 2880 
Q 2244 3097 1772 3097 
Q 1472 3097 1187 3025 
Q 903 2953 641 2809 
L 641 3341 
Q 956 3463 1253 3523 
Q 1550 3584 1831 3584 
Q 2591 3584 2966 3190 
Q 3341 2797 3341 1997 
z
" transform="scale(0.015625)"/>
       <path id="DejaVuSans-74" d="M 1172 4494 
L 1172 3500 
L 2356 3500 
L 2356 3053 
L 1172 3053 
L 1172 1153 
Q 1172 725 1289 603 
Q 1406 481 1766 481 
L 2356 481 
L 2356 0 
L 1766 0 
Q 1100 0 847 248 
Q 594 497 594 1153 
L 594 3053 
L 172 3053 
L 172 3500 
L 594 3500 
L 594 4494 
L 1172 4494 
z
" transform="scale(0.015625)"/>
       <path id="DejaVuSans-65" d="M 3597 1894 
L 3597 1613 
L 953 1613 
Q 991 1019 1311 708 
Q 1631 397 2203 397 
Q 2534 397 2845 478 
Q 3156 559 3463 722 
L 3463 178 
Q 3153 47 2828 -22 
Q 2503 -91 2169 -91 
Q 1331 -91 842 396 
Q 353 884 353 1716 
Q 353 2575 817 3079 
Q 1281 3584 2069 3584 
Q 2775 3584 3186 3129 
Q 3597 2675 3597 1894 
z
M 3022 2063 
Q 3016 2534 2758 2815 
Q 2500 3097 2075 3097 
Q 1594 3097 1305 2825 
Q 1016 2553 972 2059 
L 3022 2063 
z
" transform="scale(0.015625)"/>
      </defs>
      <use xlink:href="#DejaVuSans-44"/>
      <use xlink:href="#DejaVuSans-61" x="77.001953"/>
      <use xlink:href="#DejaVuSans-74" x="138.28125"/>
      <use xlink:href="#DejaVuSans-65" x="177.490234"/>
     </g>
    </g>
   </g>
   <g id="matplotlib.axis_2">
    <g id="ytick_1">
     <g id="line2d_7">
      <defs>
       <path id="mbecd45c365" d="M 0 0 
L -3.5 0 
" style="stroke: #0000ff; stroke-width: 0.8"/>
      </defs>
      <g>
       <use xlink:href="#mbecd45c365" x="162" y="247.408207" style="fill: #0000ff; stroke: #0000ff; stroke-width: 0.8"/>
      </g>
     </g>
     <g id="text_8">
      <!-- 12 -->
      <g style="fill: #0000ff" transform="translate(142.275 251.207426) scale(0.1 -0.1)">
       <use xlink:href="#DejaVuSans-31"/>
       <use xlink:href="#DejaVuSans-32" x="63.623047"/>
      </g>
     </g>
    </g>
    <g id="ytick_2">
     <g id="line2d_8">
      <g>
       <use xlink:href="#mbecd45c365" x="162" y="214.030723" style="fill: #0000ff; stroke: #0000ff; stroke-width: 0.8"/>
      </g>
     </g>
     <g id="text_9">
      <!-- 14 -->
      <g style="fill: #0000ff" transform="translate(142.275 217.829942) scale(0.1 -0.1)">
       <use xlink:href="#DejaVuSans-31"/>
       <use xlink:href="#DejaVuSans-34" x="63.623047"/>
      </g>
     </g>
    </g>
    <g id="ytick_3">
     <g id="line2d_9">
      <g>
       <use xlink:href="#mbecd45c365" x="162" y="180.65324" style="fill: #0000ff; stroke: #0000ff; stroke-width: 0.8"/>
      </g>
     </g>
     <g id="text_10">
      <!-- 16 -->
      <g style="fill: #0000ff" transform="translate(142.275 184.452458) scale(0.1 -0.1)">
       <defs>
        <path id="DejaVuSans-36" d="M 2113 2584 
Q 1688 2584 1439 2293 
Q 1191 2003 1191 1497 
Q 1191 994 1439 701 
Q 1688 409 2113 409 
Q 2538 409 2786 701 
Q 3034 994 3034 1497 
Q 3034 2003 2786 2293 
Q 2538 2584 2113 2584 
z
M 3366 4563 
L 3366 3988 
Q 3128 4100 2886 4159 
Q 2644 4219 2406 4219 
Q 1781 4219 1451 3797 
Q 1122 3375 1075 2522 
Q 1259 2794 1537 2939 
Q 1816 3084 2150 3084 
Q 2853 3084 3261 2657 
Q 3669 2231 3669 1497 
Q 3669 778 3244 343 
Q 2819 -91 2113 -91 
Q 1303 -91 875 529 
Q 447 1150 447 2328 
Q 447 3434 972 4092 
Q 1497 4750 2381 4750 
Q 2619 4750 2861 4703 
Q 3103 4656 3366 4563 
z
" transform="scale(0.015625)"/>
       </defs>
       <use xlink:href="#DejaVuSans-31"/>
       <use xlink:href="#DejaVuSans-36" x="63.623047"/>
      </g>
     </g>
    </g>
    <g id="ytick_4">
     <g id="line2d_10">
      <g>
       <use xlink:href="#mbecd45c365" x="162" y="147.275756" style="fill: #0000ff; stroke: #0000ff; stroke-width: 0.8"/>
      </g>
     </g>
     <g id="text_11">
      <!-- 18 -->
      <g style="fill: #0000ff" transform="translate(142.275 151.074975) scale(0.1 -0.1)">
       <defs>
        <path id="DejaVuSans-38" d="M 2034 2216 
Q 1584 2216 1326 1975 
Q 1069 1734 1069 1313 
Q 1069 891 1326 650 
Q 1584 409 2034 409 
Q 2484 409 2743 651 
Q 3003 894 3003 1313 
Q 3003 1734 2745 1975 
Q 2488 2216 2034 2216 
z
M 1403 2484 
Q 997 2584 770 2862 
Q 544 3141 544 3541 
Q 544 4100 942 4425 
Q 1341 4750 2034 4750 
Q 2731 4750 3128 4425 
Q 3525 4100 3525 3541 
Q 3525 3141 3298 2862 
Q 3072 2584 2669 2484 
Q 3125 2378 3379 2068 
Q 3634 1759 3634 1313 
Q 3634 634 3220 271 
Q 2806 -91 2034 -91 
Q 1263 -91 848 271 
Q 434 634 434 1313 
Q 434 1759 690 2068 
Q 947 2378 1403 2484 
z
M 1172 3481 
Q 1172 3119 1398 2916 
Q 1625 2713 2034 2713 
Q 2441 2713 2670 2916 
Q 2900 3119 2900 3481 
Q 2900 3844 2670 4047 
Q 2441 4250 2034 4250 
Q 1625 4250 1398 4047 
Q 1172 3844 1172 3481 
z
" transform="scale(0.015625)"/>
       </defs>
       <use xlink:href="#DejaVuSans-31"/>
       <use xlink:href="#DejaVuSans-38" x="63.623047"/>
      </g>
     </g>
    </g>
    <g id="ytick_5">
     <g id="line2d_11">
      <g>
       <use xlink:href="#mbecd45c365" x="162" y="113.898272" style="fill: #0000ff; stroke: #0000ff; stroke-width: 0.8"/>
      </g>
     </g>
     <g id="text_12">
      <!-- 20 -->
      <g style="fill: #0000ff" transform="translate(142.275 117.697491) scale(0.1 -0.1)">
       <use xlink:href="#DejaVuSans-32"/>
       <use xlink:href="#DejaVuSans-30" x="63.623047"/>
      </g>
     </g>
    </g>
    <g id="ytick_6">
     <g id="line2d_12">
      <g>
       <use xlink:href="#mbecd45c365" x="162" y="80.520789" style="fill: #0000ff; stroke: #0000ff; stroke-width: 0.8"/>
      </g>
     </g>
     <g id="text_13">
      <!-- 22 -->
      <g style="fill: #0000ff" transform="translate(142.275 84.320007) scale(0.1 -0.1)">
       <use xlink:href="#DejaVuSans-32"/>
       <use xlink:href="#DejaVuSans-32" x="63.623047"/>
      </g>
     </g>
    </g>
    <g id="ytick_7">
     <g id="line2d_13">
      <g>
       <use xlink:href="#mbecd45c365" x="162" y="47.143305" style="fill: #0000ff; stroke: #0000ff; stroke-width: 0.8"/>
      </g>
     </g>
     <g id="text_14">
      <!-- 24 -->
      <g style="fill: #0000ff" transform="translate(142.275 50.942524) scale(0.1 -0.1)">
       <use xlink:href="#DejaVuSans-32"/>
       <use xlink:href="#DejaVuSans-34" x="63.623047"/>
      </g>
     </g>
    </g>
    <g id="text_15">
     <!-- VIX -->
     <g style="fill: #0000ff" transform="translate(136.195312 153.760312) rotate(-90) scale(0.1 -0.1)">
      <defs>
       <path id="DejaVuSans-56" d="M 1831 0 
L 50 4666 
L 709 4666 
L 2188 738 
L 3669 4666 
L 4325 4666 
L 2547 0 
L 1831 0 
z
" transform="scale(0.015625)"/>
       <path id="DejaVuSans-49" d="M 628 4666 
L 1259 4666 
L 1259 0 
L 628 0 
L 628 4666 
z
" transform="scale(0.015625)"/>
       <path id="DejaVuSans-58" d="M 403 4666 
L 1081 4666 
L 2241 2931 
L 3406 4666 
L 4084 4666 
L 2584 2425 
L 4184 0 
L 3506 0 
L 2194 1984 
L 872 0 
L 191 0 
L 1856 2491 
L 403 4666 
z
" transform="scale(0.015625)"/>
      </defs>
      <use xlink:href="#DejaVuSans-56"/>
      <use xlink:href="#DejaVuSans-49" x="68.408203"/>
      <use xlink:href="#DejaVuSans-58" x="97.900391"/>
     </g>
    </g>
   </g>
   <g id="line2d_14">
    <path d="M 207.654545 44.64 
L 210.163037 90.867823 
L 212.671528 76.181712 
L 215.18002 70.340646 
L 217.688511 84.859865 
L 225.213986 103.885021 
L 227.722478 114.398946 
L 230.230969 128.584351 
L 232.739461 130.253232 
L 235.247952 135.593624 
L 242.773427 138.096961 
L 245.281918 130.587014 
L 247.79041 129.251916 
L 250.298901 140.600266 
L 260.332867 131.087688 
L 262.841359 128.918133 
L 265.34985 129.085025 
L 267.858342 150.613517 
L 270.366833 162.796291 
L 277.892308 164.798922 
L 280.400799 166.801585 
L 282.909291 172.976434 
L 285.417782 161.12741 
L 287.926274 167.802901 
L 295.451748 165.800269 
L 297.96024 134.592308 
L 300.468731 133.25721 
L 302.977223 163.463824 
L 305.485714 184.324767 
L 313.011189 179.318141 
L 315.51968 150.947268 
L 318.028172 141.601581 
L 320.536663 112.396283 
L 323.045155 160.793628 
L 330.570629 164.29828 
L 333.079121 152.115506 
L 335.587612 164.965813 
L 338.096104 165.132705 
L 340.604595 163.463824 
L 348.13007 161.961835 
L 350.638561 147.442647 
L 353.147053 166.13402 
L 355.655544 179.818815 
L 358.164036 167.135368 
L 365.68951 160.459877 
L 368.198002 138.430711 
L 370.706494 113.397599 
L 373.214985 128.2506 
L 375.723477 148.11018 
L 385.757443 156.287692 
L 388.265934 148.277071 
L 390.774426 186.494306 
L 393.282917 204.017472 
L 400.808392 201.847949 
L 403.316883 214.698272 
L 405.825375 215.032055 
L 408.333866 219.871789 
L 410.842358 216.867811 
L 418.367832 197.17509 
L 420.876324 203.850596 
L 423.384815 216.03337 
L 425.893307 205.686352 
L 428.401798 221.707545 
L 438.435764 216.03337 
L 440.944256 227.38172 
L 443.452747 232.221454 
L 445.961239 223.376426 
L 453.486713 209.858538 
L 455.995205 218.3698 
L 458.503696 223.543301 
L 461.012188 221.707545 
L 463.520679 220.873105 
L 471.046154 221.206887 
L 476.063137 211.026745 
L 478.571628 189.998942 
L 481.08012 200.179069 
L 488.605594 196.173775 
L 491.114086 200.012177 
L 493.622577 221.707545 
L 496.131069 220.539338 
L 498.63956 225.04529 
L 506.165035 222.708877 
L 508.673526 225.712839 
L 511.182018 218.036017 
L 513.690509 214.197614 
L 516.199001 220.706214 
L 523.724476 215.532712 
L 526.232967 216.367153 
L 528.741459 227.548611 
L 531.24995 207.188342 
L 533.758442 225.212181 
L 541.283916 220.205556 
L 543.792408 215.19893 
L 546.300899 179.15125 
L 548.809391 181.988338 
L 551.317882 162.295617 
L 558.843357 184.491643 
L 561.351848 180.820131 
L 563.86034 181.320789 
L 566.368831 183.156544 
L 568.877323 200.012177 
L 576.402797 200.34596 
L 578.911289 172.976434 
L 581.41978 167.636009 
L 583.928272 149.111528 
L 586.436763 158.957888 
L 593.962238 161.794975 
L 596.470729 164.465171 
L 598.979221 180.987022 
L 601.487712 160.626737 
L 603.996204 185.993632 
L 611.521678 196.006883 
L 614.03017 206.520793 
L 616.538661 216.03337 
L 619.047153 221.206887 
L 621.555644 229.217476 
L 631.58961 213.863832 
L 634.098102 206.520793 
L 636.606593 207.355233 
L 639.115085 216.700919 
L 646.640559 217.368468 
L 649.149051 210.19232 
L 651.657542 222.708877 
L 654.166034 233.723444 
L 656.674525 217.53536 
L 664.2 214.030723 
L 666.708492 212.194967 
L 669.216983 195.005552 
L 671.725475 154.952562 
L 674.233966 160.626737 
L 681.759441 165.633378 
L 684.267932 131.58833 
L 686.776424 143.604244 
L 689.284915 158.290323 
L 691.793407 155.286344 
L 699.318881 153.784355 
L 701.827373 117.569784 
L 704.335864 137.596287 
L 706.844356 139.098276 
L 709.352847 156.454551 
L 716.878322 152.282366 
L 719.386813 163.463824 
L 721.895305 179.15125 
L 724.403796 169.137999 
L 726.912288 125.246622 
L 734.437762 160.459877 
L 736.946254 149.278419 
L 739.454745 126.915502 
L 741.963237 90.53404 
L 744.471728 85.360539 
L 751.997203 107.723424 
L 754.505694 131.087688 
L 757.014186 110.727402 
L 759.522677 102.549923 
L 762.031169 92.703562 
L 769.556643 118.070458 
L 772.065135 144.939342 
L 774.573626 166.13402 
L 777.082118 186.327414 
L 779.590609 198.843971 
L 787.220604 199.177737 
L 789.729096 200.512835 
L 792.237587 206.520793 
L 794.746079 192.502247 
L 797.25457 211.193636 
L 804.780045 201.347276 
L 807.288536 211.360527 
L 809.797028 211.026745 
L 812.305519 208.690331 
L 814.814011 217.368468 
L 822.339486 223.877083 
L 824.847977 224.878399 
L 827.356469 233.22277 
L 832.373452 239.731385 
L 839.898926 235.892982 
L 842.407418 235.892982 
L 844.915909 231.053247 
L 847.424401 232.054563 
L 849.932892 236.894298 
L 857.458367 229.384367 
L 859.966858 233.22277 
L 862.47535 231.220123 
L 864.983841 229.718133 
L 867.492333 241.567141 
L 875.017807 236.894298 
L 877.526299 246.24 
L 880.03479 244.237353 
L 882.543282 239.397618 
L 885.051773 242.735364 
L 892.577248 238.062504 
L 895.085739 238.563178 
L 897.594231 219.538007 
L 900.102722 219.871789 
L 902.611214 230.218807 
L 912.64518 230.886356 
L 915.153671 240.232043 
L 917.662163 239.564494 
L 920.170654 239.898276 
L 930.20462 227.38172 
L 932.713112 213.363174 
L 935.221603 211.861185 
L 937.730095 224.878399 
L 945.255569 229.384367 
L 947.764061 234.724759 
L 950.272552 235.892982 
L 952.781044 240.065167 
L 955.289535 235.726091 
L 965.323501 216.700919 
L 967.831993 200.846618 
L 970.340485 211.861185 
L 972.848976 225.712839 
L 980.374451 227.548611 
L 982.882942 238.229396 
L 985.391434 228.383035 
L 987.899925 223.209534 
L 990.408417 226.380388 
L 997.933891 220.706214 
L 1000.442383 225.545948 
L 1002.950874 208.189657 
L 1005.459366 216.03337 
L 1007.967857 216.534028 
L 1015.493332 219.538007 
L 1018.001823 229.718133 
L 1020.510315 233.556552 
L 1023.018806 234.224101 
L 1025.527298 231.887672 
L 1033.052772 215.19893 
L 1035.561264 183.156544 
L 1038.069755 207.688999 
L 1040.578247 213.863832 
L 1043.086738 210.025429 
L 1053.120704 190.332709 
L 1055.629196 191.667807 
L 1060.646179 218.202909 
L 1068.171653 218.3698 
L 1070.680145 223.543301 
L 1073.188636 216.700919 
L 1075.697128 224.043975 
L 1078.205619 228.883709 
L 1085.731094 222.541985 
L 1088.239585 206.353901 
L 1090.748077 205.686352 
L 1093.256568 206.687684 
L 1095.76506 201.681058 
L 1103.186014 193.670454 
L 1105.694505 216.700919 
L 1108.202997 218.202909 
L 1110.711489 207.355233 
L 1113.21998 207.188342 
L 1120.745455 208.52344 
L 1120.745455 208.52344 
" clip-path="url(#pdfda48e274)" style="fill: none; stroke: #0000ff; stroke-width: 1.5; stroke-linecap: square"/>
   </g>
   <g id="patch_3">
    <path d="M 162 256.32 
L 162 34.56 
" style="fill: none; stroke: #000000; stroke-width: 0.8; stroke-linejoin: miter; stroke-linecap: square"/>
   </g>
   <g id="patch_4">
    <path d="M 1166.4 256.32 
L 1166.4 34.56 
" style="fill: none; stroke: #000000; stroke-width: 0.8; stroke-linejoin: miter; stroke-linecap: square"/>
   </g>
   <g id="patch_5">
    <path d="M 162 256.32 
L 1166.4 256.32 
" style="fill: none; stroke: #000000; stroke-width: 0.8; stroke-linejoin: miter; stroke-linecap: square"/>
   </g>
   <g id="patch_6">
    <path d="M 162 34.56 
L 1166.4 34.56 
" style="fill: none; stroke: #000000; stroke-width: 0.8; stroke-linejoin: miter; stroke-linecap: square"/>
   </g>
  </g>
  <g id="axes_2">
   <g id="matplotlib.axis_3">
    <g id="ytick_8">
     <g id="line2d_15">
      <defs>
       <path id="m819db6d34f" d="M 0 0 
L 3.5 0 
" style="stroke: #ff0000; stroke-width: 0.8"/>
      </defs>
      <g>
       <use xlink:href="#m819db6d34f" x="1166.4" y="234.246011" style="fill: #ff0000; stroke: #ff0000; stroke-width: 0.8"/>
      </g>
     </g>
     <g id="text_16">
      <!-- 0.2 -->
      <g style="fill: #ff0000" transform="translate(1173.4 238.04523) scale(0.1 -0.1)">
       <defs>
        <path id="DejaVuSans-2e" d="M 684 794 
L 1344 794 
L 1344 0 
L 684 0 
L 684 794 
z
" transform="scale(0.015625)"/>
       </defs>
       <use xlink:href="#DejaVuSans-30"/>
       <use xlink:href="#DejaVuSans-2e" x="63.623047"/>
       <use xlink:href="#DejaVuSans-32" x="95.410156"/>
      </g>
     </g>
    </g>
    <g id="ytick_9">
     <g id="line2d_16">
      <g>
       <use xlink:href="#m819db6d34f" x="1166.4" y="207.115187" style="fill: #ff0000; stroke: #ff0000; stroke-width: 0.8"/>
      </g>
     </g>
     <g id="text_17">
      <!-- 0.3 -->
      <g style="fill: #ff0000" transform="translate(1173.4 210.914406) scale(0.1 -0.1)">
       <use xlink:href="#DejaVuSans-30"/>
       <use xlink:href="#DejaVuSans-2e" x="63.623047"/>
       <use xlink:href="#DejaVuSans-33" x="95.410156"/>
      </g>
     </g>
    </g>
    <g id="ytick_10">
     <g id="line2d_17">
      <g>
       <use xlink:href="#m819db6d34f" x="1166.4" y="179.984363" style="fill: #ff0000; stroke: #ff0000; stroke-width: 0.8"/>
      </g>
     </g>
     <g id="text_18">
      <!-- 0.4 -->
      <g style="fill: #ff0000" transform="translate(1173.4 183.783581) scale(0.1 -0.1)">
       <use xlink:href="#DejaVuSans-30"/>
       <use xlink:href="#DejaVuSans-2e" x="63.623047"/>
       <use xlink:href="#DejaVuSans-34" x="95.410156"/>
      </g>
     </g>
    </g>
    <g id="ytick_11">
     <g id="line2d_18">
      <g>
       <use xlink:href="#m819db6d34f" x="1166.4" y="152.853538" style="fill: #ff0000; stroke: #ff0000; stroke-width: 0.8"/>
      </g>
     </g>
     <g id="text_19">
      <!-- 0.5 -->
      <g style="fill: #ff0000" transform="translate(1173.4 156.652757) scale(0.1 -0.1)">
       <use xlink:href="#DejaVuSans-30"/>
       <use xlink:href="#DejaVuSans-2e" x="63.623047"/>
       <use xlink:href="#DejaVuSans-35" x="95.410156"/>
      </g>
     </g>
    </g>
    <g id="ytick_12">
     <g id="line2d_19">
      <g>
       <use xlink:href="#m819db6d34f" x="1166.4" y="125.722714" style="fill: #ff0000; stroke: #ff0000; stroke-width: 0.8"/>
      </g>
     </g>
     <g id="text_20">
      <!-- 0.6 -->
      <g style="fill: #ff0000" transform="translate(1173.4 129.521933) scale(0.1 -0.1)">
       <use xlink:href="#DejaVuSans-30"/>
       <use xlink:href="#DejaVuSans-2e" x="63.623047"/>
       <use xlink:href="#DejaVuSans-36" x="95.410156"/>
      </g>
     </g>
    </g>
    <g id="ytick_13">
     <g id="line2d_20">
      <g>
       <use xlink:href="#m819db6d34f" x="1166.4" y="98.59189" style="fill: #ff0000; stroke: #ff0000; stroke-width: 0.8"/>
      </g>
     </g>
     <g id="text_21">
      <!-- 0.7 -->
      <g style="fill: #ff0000" transform="translate(1173.4 102.391109) scale(0.1 -0.1)">
       <use xlink:href="#DejaVuSans-30"/>
       <use xlink:href="#DejaVuSans-2e" x="63.623047"/>
       <use xlink:href="#DejaVuSans-37" x="95.410156"/>
      </g>
     </g>
    </g>
    <g id="ytick_14">
     <g id="line2d_21">
      <g>
       <use xlink:href="#m819db6d34f" x="1166.4" y="71.461065" style="fill: #ff0000; stroke: #ff0000; stroke-width: 0.8"/>
      </g>
     </g>
     <g id="text_22">
      <!-- 0.8 -->
      <g style="fill: #ff0000" transform="translate(1173.4 75.260284) scale(0.1 -0.1)">
       <use xlink:href="#DejaVuSans-30"/>
       <use xlink:href="#DejaVuSans-2e" x="63.623047"/>
       <use xlink:href="#DejaVuSans-38" x="95.410156"/>
      </g>
     </g>
    </g>
    <g id="ytick_15">
     <g id="line2d_22">
      <g>
       <use xlink:href="#m819db6d34f" x="1166.4" y="44.330241" style="fill: #ff0000; stroke: #ff0000; stroke-width: 0.8"/>
      </g>
     </g>
     <g id="text_23">
      <!-- 0.9 -->
      <g style="fill: #ff0000" transform="translate(1173.4 48.12946) scale(0.1 -0.1)">
       <use xlink:href="#DejaVuSans-30"/>
       <use xlink:href="#DejaVuSans-2e" x="63.623047"/>
       <use xlink:href="#DejaVuSans-39" x="95.410156"/>
      </g>
     </g>
    </g>
    <g id="text_24">
     <!-- Indicator -->
     <g style="fill: #ff0000" transform="translate(1200.901563 167.535313) rotate(-90) scale(0.1 -0.1)">
      <defs>
       <path id="DejaVuSans-6e" d="M 3513 2113 
L 3513 0 
L 2938 0 
L 2938 2094 
Q 2938 2591 2744 2837 
Q 2550 3084 2163 3084 
Q 1697 3084 1428 2787 
Q 1159 2491 1159 1978 
L 1159 0 
L 581 0 
L 581 3500 
L 1159 3500 
L 1159 2956 
Q 1366 3272 1645 3428 
Q 1925 3584 2291 3584 
Q 2894 3584 3203 3211 
Q 3513 2838 3513 2113 
z
" transform="scale(0.015625)"/>
       <path id="DejaVuSans-64" d="M 2906 2969 
L 2906 4863 
L 3481 4863 
L 3481 0 
L 2906 0 
L 2906 525 
Q 2725 213 2448 61 
Q 2172 -91 1784 -91 
Q 1150 -91 751 415 
Q 353 922 353 1747 
Q 353 2572 751 3078 
Q 1150 3584 1784 3584 
Q 2172 3584 2448 3432 
Q 2725 3281 2906 2969 
z
M 947 1747 
Q 947 1113 1208 752 
Q 1469 391 1925 391 
Q 2381 391 2643 752 
Q 2906 1113 2906 1747 
Q 2906 2381 2643 2742 
Q 2381 3103 1925 3103 
Q 1469 3103 1208 2742 
Q 947 2381 947 1747 
z
" transform="scale(0.015625)"/>
       <path id="DejaVuSans-69" d="M 603 3500 
L 1178 3500 
L 1178 0 
L 603 0 
L 603 3500 
z
M 603 4863 
L 1178 4863 
L 1178 4134 
L 603 4134 
L 603 4863 
z
" transform="scale(0.015625)"/>
       <path id="DejaVuSans-63" d="M 3122 3366 
L 3122 2828 
Q 2878 2963 2633 3030 
Q 2388 3097 2138 3097 
Q 1578 3097 1268 2742 
Q 959 2388 959 1747 
Q 959 1106 1268 751 
Q 1578 397 2138 397 
Q 2388 397 2633 464 
Q 2878 531 3122 666 
L 3122 134 
Q 2881 22 2623 -34 
Q 2366 -91 2075 -91 
Q 1284 -91 818 406 
Q 353 903 353 1747 
Q 353 2603 823 3093 
Q 1294 3584 2113 3584 
Q 2378 3584 2631 3529 
Q 2884 3475 3122 3366 
z
" transform="scale(0.015625)"/>
       <path id="DejaVuSans-6f" d="M 1959 3097 
Q 1497 3097 1228 2736 
Q 959 2375 959 1747 
Q 959 1119 1226 758 
Q 1494 397 1959 397 
Q 2419 397 2687 759 
Q 2956 1122 2956 1747 
Q 2956 2369 2687 2733 
Q 2419 3097 1959 3097 
z
M 1959 3584 
Q 2709 3584 3137 3096 
Q 3566 2609 3566 1747 
Q 3566 888 3137 398 
Q 2709 -91 1959 -91 
Q 1206 -91 779 398 
Q 353 888 353 1747 
Q 353 2609 779 3096 
Q 1206 3584 1959 3584 
z
" transform="scale(0.015625)"/>
       <path id="DejaVuSans-72" d="M 2631 2963 
Q 2534 3019 2420 3045 
Q 2306 3072 2169 3072 
Q 1681 3072 1420 2755 
Q 1159 2438 1159 1844 
L 1159 0 
L 581 0 
L 581 3500 
L 1159 3500 
L 1159 2956 
Q 1341 3275 1631 3429 
Q 1922 3584 2338 3584 
Q 2397 3584 2469 3576 
Q 2541 3569 2628 3553 
L 2631 2963 
z
" transform="scale(0.015625)"/>
      </defs>
      <use xlink:href="#DejaVuSans-49"/>
      <use xlink:href="#DejaVuSans-6e" x="29.492188"/>
      <use xlink:href="#DejaVuSans-64" x="92.871094"/>
      <use xlink:href="#DejaVuSans-69" x="156.347656"/>
      <use xlink:href="#DejaVuSans-63" x="184.130859"/>
      <use xlink:href="#DejaVuSans-61" x="239.111328"/>
      <use xlink:href="#DejaVuSans-74" x="300.390625"/>
      <use xlink:href="#DejaVuSans-6f" x="339.599609"/>
      <use xlink:href="#DejaVuSans-72" x="400.78125"/>
     </g>
    </g>
   </g>
   <g id="line2d_23">
    <path d="M 207.654545 45.691111 
L 210.163037 45.48344 
L 215.18002 44.810274 
L 217.688511 44.708573 
L 235.247952 44.784511 
L 242.773427 44.930984 
L 247.79041 45.665341 
L 250.298901 45.963138 
L 260.332867 46.2645 
L 267.858342 46.992957 
L 270.366833 47.300602 
L 277.892308 47.492639 
L 280.400799 47.718544 
L 282.909291 48.126405 
L 285.417782 48.386275 
L 287.926274 49.20341 
L 295.451748 50.401995 
L 297.96024 51.69547 
L 300.468731 52.579049 
L 302.977223 54.38956 
L 305.485714 55.999952 
L 313.011189 58.39594 
L 315.51968 60.239826 
L 318.028172 61.195359 
L 320.536663 61.910664 
L 323.045155 63.831402 
L 330.570629 65.697292 
L 333.079121 66.923715 
L 335.587612 68.294759 
L 340.604595 70.346687 
L 350.638561 71.477487 
L 353.147053 72.66271 
L 355.655544 74.461051 
L 358.164036 75.462174 
L 368.198002 77.007303 
L 370.706494 76.372339 
L 373.214985 75.494336 
L 375.723477 74.9344 
L 385.757443 74.61573 
L 388.265934 73.93649 
L 390.774426 74.430234 
L 393.282917 76.067402 
L 400.808392 77.448959 
L 403.316883 79.573544 
L 405.825375 83.479923 
L 408.333866 88.371395 
L 410.842358 91.81315 
L 418.367832 92.696347 
L 420.876324 94.446329 
L 423.384815 99.53081 
L 425.893307 105.242237 
L 428.401798 116.861711 
L 438.435764 123.711779 
L 440.944256 132.317403 
L 443.452747 144.218331 
L 445.961239 153.275987 
L 453.486713 160.218246 
L 455.995205 168.527377 
L 458.503696 177.322893 
L 461.012188 186.937025 
L 463.520679 193.258437 
L 471.046154 197.611609 
L 476.063137 201.848126 
L 478.571628 204.492808 
L 481.08012 209.531163 
L 488.605594 215.373127 
L 491.114086 219.728596 
L 493.622577 223.630947 
L 496.131069 226.645803 
L 498.63956 229.846243 
L 506.165035 231.224337 
L 508.673526 232.013558 
L 511.182018 232.585668 
L 513.690509 232.568182 
L 516.199001 232.765581 
L 526.232967 232.597317 
L 528.741459 233.633503 
L 531.24995 233.744555 
L 533.758442 234.047165 
L 541.283916 234.517663 
L 543.792408 234.307973 
L 546.300899 233.081375 
L 548.809391 231.47609 
L 551.317882 228.771397 
L 558.843357 227.130244 
L 561.351848 225.833402 
L 563.86034 224.082484 
L 566.368831 222.039484 
L 568.877323 220.879185 
L 576.402797 219.738051 
L 583.928272 211.193405 
L 586.436763 208.045806 
L 593.962238 205.211358 
L 596.470729 202.063188 
L 598.979221 198.164142 
L 601.487712 191.814237 
L 603.996204 187.260581 
L 611.521678 183.954895 
L 614.03017 181.483556 
L 616.538661 181.221154 
L 619.047153 182.135847 
L 621.555644 183.232469 
L 631.58961 183.018668 
L 634.098102 181.745111 
L 636.606593 179.069277 
L 639.115085 180.340385 
L 646.640559 179.293625 
L 649.149051 177.939036 
L 651.657542 178.95689 
L 654.166034 185.998106 
L 656.674525 190.237178 
L 664.2 195.916775 
L 666.708492 198.727017 
L 669.216983 200.106154 
L 671.725475 197.510487 
L 674.233966 195.180648 
L 681.759441 191.419163 
L 684.267932 183.125643 
L 686.776424 179.271218 
L 689.284915 178.007248 
L 691.793407 178.844357 
L 699.318881 178.143513 
L 701.827373 171.941718 
L 704.335864 168.008015 
L 706.844356 161.680293 
L 709.352847 161.039946 
L 716.878322 155.823059 
L 719.386813 150.753722 
L 721.895305 146.50561 
L 724.403796 139.354548 
L 726.912288 125.710144 
L 734.437762 117.058888 
L 736.946254 109.868415 
L 739.454745 102.188942 
L 741.963237 92.95284 
L 744.471728 84.8232 
L 751.997203 79.392894 
L 754.505694 76.060815 
L 759.522677 68.025154 
L 762.031169 64.835953 
L 769.556643 62.697787 
L 772.065135 61.334828 
L 774.573626 60.78031 
L 777.082118 61.383741 
L 779.590609 62.147655 
L 787.220604 62.845921 
L 792.237587 65.875042 
L 794.746079 66.745076 
L 797.25457 68.252694 
L 804.780045 69.627324 
L 807.288536 72.622763 
L 812.305519 78.090403 
L 814.814011 80.833722 
L 822.339486 84.452356 
L 827.356469 91.396651 
L 832.373452 96.477241 
L 839.898926 106.058672 
L 842.407418 113.939449 
L 844.915909 123.863772 
L 847.424401 138.630394 
L 849.932892 161.193767 
L 857.458367 181.853833 
L 859.966858 196.487967 
L 862.47535 205.8336 
L 864.983841 214.727263 
L 867.492333 222.816503 
L 875.017807 229.331297 
L 877.526299 233.976002 
L 880.03479 237.017887 
L 882.543282 239.011755 
L 885.051773 240.423013 
L 892.577248 241.347358 
L 895.085739 242.232555 
L 897.594231 242.645594 
L 900.102722 242.930026 
L 902.611214 243.710389 
L 912.64518 244.104798 
L 915.153671 244.85875 
L 920.170654 245.90947 
L 930.20462 246.24 
L 932.713112 246.169714 
L 935.221603 245.957085 
L 945.255569 245.888596 
L 950.272552 245.798847 
L 955.289535 245.957085 
L 965.323501 245.681463 
L 967.831993 245.016406 
L 970.340485 244.683668 
L 972.848976 244.539108 
L 980.374451 244.468 
L 982.882942 244.632405 
L 987.899925 244.108104 
L 990.408417 243.71039 
L 997.933891 243.227474 
L 1000.442383 242.937081 
L 1002.950874 242.19221 
L 1007.967857 241.197004 
L 1015.493332 241.197004 
L 1018.001823 241.424004 
L 1023.018806 241.576376 
L 1033.052772 240.81784 
L 1035.561264 239.427144 
L 1038.069755 238.92068 
L 1043.086738 238.885877 
L 1053.120704 237.963944 
L 1055.629196 236.907947 
L 1058.137687 236.037281 
L 1060.646179 235.501497 
L 1068.171653 234.825895 
L 1070.680145 234.437243 
L 1073.188636 234.437243 
L 1075.697128 235.171493 
L 1078.205619 235.695098 
L 1085.731094 235.598513 
L 1088.239585 234.941698 
L 1090.748077 233.893613 
L 1095.76506 232.421955 
L 1103.186014 231.242845 
L 1105.694505 231.094352 
L 1108.202997 230.819706 
L 1110.711489 230.788297 
L 1113.21998 230.452829 
L 1120.745455 230.144962 
L 1120.745455 230.144962 
" clip-path="url(#pdfda48e274)" style="fill: none; stroke: #ff0000; stroke-width: 1.5; stroke-linecap: square"/>
   </g>
   <g id="patch_7">
    <path d="M 162 256.32 
L 162 34.56 
" style="fill: none; stroke: #000000; stroke-width: 0.8; stroke-linejoin: miter; stroke-linecap: square"/>
   </g>
   <g id="patch_8">
    <path d="M 1166.4 256.32 
L 1166.4 34.56 
" style="fill: none; stroke: #000000; stroke-width: 0.8; stroke-linejoin: miter; stroke-linecap: square"/>
   </g>
   <g id="patch_9">
    <path d="M 162 256.32 
L 1166.4 256.32 
" style="fill: none; stroke: #000000; stroke-width: 0.8; stroke-linejoin: miter; stroke-linecap: square"/>
   </g>
   <g id="patch_10">
    <path d="M 162 34.56 
L 1166.4 34.56 
" style="fill: none; stroke: #000000; stroke-width: 0.8; stroke-linejoin: miter; stroke-linecap: square"/>
   </g>
   <g id="text_25">
    <!-- VIX and Cumulative Probability Indicator (smoothed 30 periods) - 1Y (Updated 2024-03-19 05:11:50) -->
    <g transform="translate(361.360313 28.56) scale(0.12 -0.12)">
     <defs>
      <path id="DejaVuSans-20" transform="scale(0.015625)"/>
      <path id="DejaVuSans-43" d="M 4122 4306 
L 4122 3641 
Q 3803 3938 3442 4084 
Q 3081 4231 2675 4231 
Q 1875 4231 1450 3742 
Q 1025 3253 1025 2328 
Q 1025 1406 1450 917 
Q 1875 428 2675 428 
Q 3081 428 3442 575 
Q 3803 722 4122 1019 
L 4122 359 
Q 3791 134 3420 21 
Q 3050 -91 2638 -91 
Q 1578 -91 968 557 
Q 359 1206 359 2328 
Q 359 3453 968 4101 
Q 1578 4750 2638 4750 
Q 3056 4750 3426 4639 
Q 3797 4528 4122 4306 
z
" transform="scale(0.015625)"/>
      <path id="DejaVuSans-75" d="M 544 1381 
L 544 3500 
L 1119 3500 
L 1119 1403 
Q 1119 906 1312 657 
Q 1506 409 1894 409 
Q 2359 409 2629 706 
Q 2900 1003 2900 1516 
L 2900 3500 
L 3475 3500 
L 3475 0 
L 2900 0 
L 2900 538 
Q 2691 219 2414 64 
Q 2138 -91 1772 -91 
Q 1169 -91 856 284 
Q 544 659 544 1381 
z
M 1991 3584 
L 1991 3584 
z
" transform="scale(0.015625)"/>
      <path id="DejaVuSans-6d" d="M 3328 2828 
Q 3544 3216 3844 3400 
Q 4144 3584 4550 3584 
Q 5097 3584 5394 3201 
Q 5691 2819 5691 2113 
L 5691 0 
L 5113 0 
L 5113 2094 
Q 5113 2597 4934 2840 
Q 4756 3084 4391 3084 
Q 3944 3084 3684 2787 
Q 3425 2491 3425 1978 
L 3425 0 
L 2847 0 
L 2847 2094 
Q 2847 2600 2669 2842 
Q 2491 3084 2119 3084 
Q 1678 3084 1418 2786 
Q 1159 2488 1159 1978 
L 1159 0 
L 581 0 
L 581 3500 
L 1159 3500 
L 1159 2956 
Q 1356 3278 1631 3431 
Q 1906 3584 2284 3584 
Q 2666 3584 2933 3390 
Q 3200 3197 3328 2828 
z
" transform="scale(0.015625)"/>
      <path id="DejaVuSans-6c" d="M 603 4863 
L 1178 4863 
L 1178 0 
L 603 0 
L 603 4863 
z
" transform="scale(0.015625)"/>
      <path id="DejaVuSans-76" d="M 191 3500 
L 800 3500 
L 1894 563 
L 2988 3500 
L 3597 3500 
L 2284 0 
L 1503 0 
L 191 3500 
z
" transform="scale(0.015625)"/>
      <path id="DejaVuSans-50" d="M 1259 4147 
L 1259 2394 
L 2053 2394 
Q 2494 2394 2734 2622 
Q 2975 2850 2975 3272 
Q 2975 3691 2734 3919 
Q 2494 4147 2053 4147 
L 1259 4147 
z
M 628 4666 
L 2053 4666 
Q 2838 4666 3239 4311 
Q 3641 3956 3641 3272 
Q 3641 2581 3239 2228 
Q 2838 1875 2053 1875 
L 1259 1875 
L 1259 0 
L 628 0 
L 628 4666 
z
" transform="scale(0.015625)"/>
      <path id="DejaVuSans-62" d="M 3116 1747 
Q 3116 2381 2855 2742 
Q 2594 3103 2138 3103 
Q 1681 3103 1420 2742 
Q 1159 2381 1159 1747 
Q 1159 1113 1420 752 
Q 1681 391 2138 391 
Q 2594 391 2855 752 
Q 3116 1113 3116 1747 
z
M 1159 2969 
Q 1341 3281 1617 3432 
Q 1894 3584 2278 3584 
Q 2916 3584 3314 3078 
Q 3713 2572 3713 1747 
Q 3713 922 3314 415 
Q 2916 -91 2278 -91 
Q 1894 -91 1617 61 
Q 1341 213 1159 525 
L 1159 0 
L 581 0 
L 581 4863 
L 1159 4863 
L 1159 2969 
z
" transform="scale(0.015625)"/>
      <path id="DejaVuSans-79" d="M 2059 -325 
Q 1816 -950 1584 -1140 
Q 1353 -1331 966 -1331 
L 506 -1331 
L 506 -850 
L 844 -850 
Q 1081 -850 1212 -737 
Q 1344 -625 1503 -206 
L 1606 56 
L 191 3500 
L 800 3500 
L 1894 763 
L 2988 3500 
L 3597 3500 
L 2059 -325 
z
" transform="scale(0.015625)"/>
      <path id="DejaVuSans-28" d="M 1984 4856 
Q 1566 4138 1362 3434 
Q 1159 2731 1159 2009 
Q 1159 1288 1364 580 
Q 1569 -128 1984 -844 
L 1484 -844 
Q 1016 -109 783 600 
Q 550 1309 550 2009 
Q 550 2706 781 3412 
Q 1013 4119 1484 4856 
L 1984 4856 
z
" transform="scale(0.015625)"/>
      <path id="DejaVuSans-73" d="M 2834 3397 
L 2834 2853 
Q 2591 2978 2328 3040 
Q 2066 3103 1784 3103 
Q 1356 3103 1142 2972 
Q 928 2841 928 2578 
Q 928 2378 1081 2264 
Q 1234 2150 1697 2047 
L 1894 2003 
Q 2506 1872 2764 1633 
Q 3022 1394 3022 966 
Q 3022 478 2636 193 
Q 2250 -91 1575 -91 
Q 1294 -91 989 -36 
Q 684 19 347 128 
L 347 722 
Q 666 556 975 473 
Q 1284 391 1588 391 
Q 1994 391 2212 530 
Q 2431 669 2431 922 
Q 2431 1156 2273 1281 
Q 2116 1406 1581 1522 
L 1381 1569 
Q 847 1681 609 1914 
Q 372 2147 372 2553 
Q 372 3047 722 3315 
Q 1072 3584 1716 3584 
Q 2034 3584 2315 3537 
Q 2597 3491 2834 3397 
z
" transform="scale(0.015625)"/>
      <path id="DejaVuSans-68" d="M 3513 2113 
L 3513 0 
L 2938 0 
L 2938 2094 
Q 2938 2591 2744 2837 
Q 2550 3084 2163 3084 
Q 1697 3084 1428 2787 
Q 1159 2491 1159 1978 
L 1159 0 
L 581 0 
L 581 4863 
L 1159 4863 
L 1159 2956 
Q 1366 3272 1645 3428 
Q 1925 3584 2291 3584 
Q 2894 3584 3203 3211 
Q 3513 2838 3513 2113 
z
" transform="scale(0.015625)"/>
      <path id="DejaVuSans-70" d="M 1159 525 
L 1159 -1331 
L 581 -1331 
L 581 3500 
L 1159 3500 
L 1159 2969 
Q 1341 3281 1617 3432 
Q 1894 3584 2278 3584 
Q 2916 3584 3314 3078 
Q 3713 2572 3713 1747 
Q 3713 922 3314 415 
Q 2916 -91 2278 -91 
Q 1894 -91 1617 61 
Q 1341 213 1159 525 
z
M 3116 1747 
Q 3116 2381 2855 2742 
Q 2594 3103 2138 3103 
Q 1681 3103 1420 2742 
Q 1159 2381 1159 1747 
Q 1159 1113 1420 752 
Q 1681 391 2138 391 
Q 2594 391 2855 752 
Q 3116 1113 3116 1747 
z
" transform="scale(0.015625)"/>
      <path id="DejaVuSans-29" d="M 513 4856 
L 1013 4856 
Q 1481 4119 1714 3412 
Q 1947 2706 1947 2009 
Q 1947 1309 1714 600 
Q 1481 -109 1013 -844 
L 513 -844 
Q 928 -128 1133 580 
Q 1338 1288 1338 2009 
Q 1338 2731 1133 3434 
Q 928 4138 513 4856 
z
" transform="scale(0.015625)"/>
      <path id="DejaVuSans-59" d="M -13 4666 
L 666 4666 
L 1959 2747 
L 3244 4666 
L 3922 4666 
L 2272 2222 
L 2272 0 
L 1638 0 
L 1638 2222 
L -13 4666 
z
" transform="scale(0.015625)"/>
      <path id="DejaVuSans-55" d="M 556 4666 
L 1191 4666 
L 1191 1831 
Q 1191 1081 1462 751 
Q 1734 422 2344 422 
Q 2950 422 3222 751 
Q 3494 1081 3494 1831 
L 3494 4666 
L 4128 4666 
L 4128 1753 
Q 4128 841 3676 375 
Q 3225 -91 2344 -91 
Q 1459 -91 1007 375 
Q 556 841 556 1753 
L 556 4666 
z
" transform="scale(0.015625)"/>
      <path id="DejaVuSans-3a" d="M 750 794 
L 1409 794 
L 1409 0 
L 750 0 
L 750 794 
z
M 750 3309 
L 1409 3309 
L 1409 2516 
L 750 2516 
L 750 3309 
z
" transform="scale(0.015625)"/>
     </defs>
     <use xlink:href="#DejaVuSans-56"/>
     <use xlink:href="#DejaVuSans-49" x="68.408203"/>
     <use xlink:href="#DejaVuSans-58" x="97.900391"/>
     <use xlink:href="#DejaVuSans-20" x="166.40625"/>
     <use xlink:href="#DejaVuSans-61" x="198.193359"/>
     <use xlink:href="#DejaVuSans-6e" x="259.472656"/>
     <use xlink:href="#DejaVuSans-64" x="322.851562"/>
     <use xlink:href="#DejaVuSans-20" x="386.328125"/>
     <use xlink:href="#DejaVuSans-43" x="418.115234"/>
     <use xlink:href="#DejaVuSans-75" x="487.939453"/>
     <use xlink:href="#DejaVuSans-6d" x="551.318359"/>
     <use xlink:href="#DejaVuSans-75" x="648.730469"/>
     <use xlink:href="#DejaVuSans-6c" x="712.109375"/>
     <use xlink:href="#DejaVuSans-61" x="739.892578"/>
     <use xlink:href="#DejaVuSans-74" x="801.171875"/>
     <use xlink:href="#DejaVuSans-69" x="840.380859"/>
     <use xlink:href="#DejaVuSans-76" x="868.164062"/>
     <use xlink:href="#DejaVuSans-65" x="927.34375"/>
     <use xlink:href="#DejaVuSans-20" x="988.867188"/>
     <use xlink:href="#DejaVuSans-50" x="1020.654297"/>
     <use xlink:href="#DejaVuSans-72" x="1079.207031"/>
     <use xlink:href="#DejaVuSans-6f" x="1118.070312"/>
     <use xlink:href="#DejaVuSans-62" x="1179.251953"/>
     <use xlink:href="#DejaVuSans-61" x="1242.728516"/>
     <use xlink:href="#DejaVuSans-62" x="1304.007812"/>
     <use xlink:href="#DejaVuSans-69" x="1367.484375"/>
     <use xlink:href="#DejaVuSans-6c" x="1395.267578"/>
     <use xlink:href="#DejaVuSans-69" x="1423.050781"/>
     <use xlink:href="#DejaVuSans-74" x="1450.833984"/>
     <use xlink:href="#DejaVuSans-79" x="1490.042969"/>
     <use xlink:href="#DejaVuSans-20" x="1549.222656"/>
     <use xlink:href="#DejaVuSans-49" x="1581.009766"/>
     <use xlink:href="#DejaVuSans-6e" x="1610.501953"/>
     <use xlink:href="#DejaVuSans-64" x="1673.880859"/>
     <use xlink:href="#DejaVuSans-69" x="1737.357422"/>
     <use xlink:href="#DejaVuSans-63" x="1765.140625"/>
     <use xlink:href="#DejaVuSans-61" x="1820.121094"/>
     <use xlink:href="#DejaVuSans-74" x="1881.400391"/>
     <use xlink:href="#DejaVuSans-6f" x="1920.609375"/>
     <use xlink:href="#DejaVuSans-72" x="1981.791016"/>
     <use xlink:href="#DejaVuSans-20" x="2022.904297"/>
     <use xlink:href="#DejaVuSans-28" x="2054.691406"/>
     <use xlink:href="#DejaVuSans-73" x="2093.705078"/>
     <use xlink:href="#DejaVuSans-6d" x="2145.804688"/>
     <use xlink:href="#DejaVuSans-6f" x="2243.216797"/>
     <use xlink:href="#DejaVuSans-6f" x="2304.398438"/>
     <use xlink:href="#DejaVuSans-74" x="2365.580078"/>
     <use xlink:href="#DejaVuSans-68" x="2404.789062"/>
     <use xlink:href="#DejaVuSans-65" x="2468.167969"/>
     <use xlink:href="#DejaVuSans-64" x="2529.691406"/>
     <use xlink:href="#DejaVuSans-20" x="2593.167969"/>
     <use xlink:href="#DejaVuSans-33" x="2624.955078"/>
     <use xlink:href="#DejaVuSans-30" x="2688.578125"/>
     <use xlink:href="#DejaVuSans-20" x="2752.201172"/>
     <use xlink:href="#DejaVuSans-70" x="2783.988281"/>
     <use xlink:href="#DejaVuSans-65" x="2847.464844"/>
     <use xlink:href="#DejaVuSans-72" x="2908.988281"/>
     <use xlink:href="#DejaVuSans-69" x="2950.101562"/>
     <use xlink:href="#DejaVuSans-6f" x="2977.884766"/>
     <use xlink:href="#DejaVuSans-64" x="3039.066406"/>
     <use xlink:href="#DejaVuSans-73" x="3102.542969"/>
     <use xlink:href="#DejaVuSans-29" x="3154.642578"/>
     <use xlink:href="#DejaVuSans-20" x="3193.65625"/>
     <use xlink:href="#DejaVuSans-2d" x="3225.443359"/>
     <use xlink:href="#DejaVuSans-20" x="3261.527344"/>
     <use xlink:href="#DejaVuSans-31" x="3293.314453"/>
     <use xlink:href="#DejaVuSans-59" x="3356.9375"/>
     <use xlink:href="#DejaVuSans-20" x="3418.021484"/>
     <use xlink:href="#DejaVuSans-28" x="3449.808594"/>
     <use xlink:href="#DejaVuSans-55" x="3488.822266"/>
     <use xlink:href="#DejaVuSans-70" x="3562.015625"/>
     <use xlink:href="#DejaVuSans-64" x="3625.492188"/>
     <use xlink:href="#DejaVuSans-61" x="3688.96875"/>
     <use xlink:href="#DejaVuSans-74" x="3750.248047"/>
     <use xlink:href="#DejaVuSans-65" x="3789.457031"/>
     <use xlink:href="#DejaVuSans-64" x="3850.980469"/>
     <use xlink:href="#DejaVuSans-20" x="3914.457031"/>
     <use xlink:href="#DejaVuSans-32" x="3946.244141"/>
     <use xlink:href="#DejaVuSans-30" x="4009.867188"/>
     <use xlink:href="#DejaVuSans-32" x="4073.490234"/>
     <use xlink:href="#DejaVuSans-34" x="4137.113281"/>
     <use xlink:href="#DejaVuSans-2d" x="4200.736328"/>
     <use xlink:href="#DejaVuSans-30" x="4236.820312"/>
     <use xlink:href="#DejaVuSans-33" x="4300.443359"/>
     <use xlink:href="#DejaVuSans-2d" x="4364.066406"/>
     <use xlink:href="#DejaVuSans-31" x="4400.150391"/>
     <use xlink:href="#DejaVuSans-39" x="4463.773438"/>
     <use xlink:href="#DejaVuSans-20" x="4527.396484"/>
     <use xlink:href="#DejaVuSans-30" x="4559.183594"/>
     <use xlink:href="#DejaVuSans-35" x="4622.806641"/>
     <use xlink:href="#DejaVuSans-3a" x="4686.429688"/>
     <use xlink:href="#DejaVuSans-31" x="4720.121094"/>
     <use xlink:href="#DejaVuSans-31" x="4783.744141"/>
     <use xlink:href="#DejaVuSans-3a" x="4847.367188"/>
     <use xlink:href="#DejaVuSans-35" x="4881.058594"/>
     <use xlink:href="#DejaVuSans-30" x="4944.681641"/>
     <use xlink:href="#DejaVuSans-29" x="5008.304688"/>
    </g>
   </g>
  </g>
  <g id="legend_1">
   <g id="patch_11">
    <path d="M 7 37.35625 
L 83.190625 37.35625 
Q 85.190625 37.35625 85.190625 35.35625 
L 85.190625 7 
Q 85.190625 5 83.190625 5 
L 7 5 
Q 5 5 5 7 
L 5 35.35625 
Q 5 37.35625 7 37.35625 
z
" style="fill: #ffffff; opacity: 0.8; stroke: #cccccc; stroke-linejoin: miter"/>
   </g>
   <g id="line2d_24">
    <path d="M 9 13.098437 
L 19 13.098437 
L 29 13.098437 
" style="fill: none; stroke: #0000ff; stroke-width: 1.5; stroke-linecap: square"/>
   </g>
   <g id="text_26">
    <!-- VIX -->
    <g transform="translate(37 16.598437) scale(0.1 -0.1)">
     <use xlink:href="#DejaVuSans-56"/>
     <use xlink:href="#DejaVuSans-49" x="68.408203"/>
     <use xlink:href="#DejaVuSans-58" x="97.900391"/>
    </g>
   </g>
   <g id="line2d_25">
    <path d="M 9 27.776563 
L 19 27.776563 
L 29 27.776563 
" style="fill: none; stroke: #ff0000; stroke-width: 1.5; stroke-linecap: square"/>
   </g>
   <g id="text_27">
    <!-- Indicator -->
    <g transform="translate(37 31.276563) scale(0.1 -0.1)">
     <use xlink:href="#DejaVuSans-49"/>
     <use xlink:href="#DejaVuSans-6e" x="29.492188"/>
     <use xlink:href="#DejaVuSans-64" x="92.871094"/>
     <use xlink:href="#DejaVuSans-69" x="156.347656"/>
     <use xlink:href="#DejaVuSans-63" x="184.130859"/>
     <use xlink:href="#DejaVuSans-61" x="239.111328"/>
     <use xlink:href="#DejaVuSans-74" x="300.390625"/>
     <use xlink:href="#DejaVuSans-6f" x="339.599609"/>
     <use xlink:href="#DejaVuSans-72" x="400.78125"/>
    </g>
   </g>
  </g>
 </g>
 <defs>
  <clipPath id="pdfda48e274">
   <rect x="162" y="34.56" width="1004.4" height="221.76"/>
  </clipPath>
 </defs>
</svg>
