<?xml version="1.0" encoding="utf-8" standalone="no"?>
<!DOCTYPE svg PUBLIC "-//W3C//DTD SVG 1.1//EN"
  "http://www.w3.org/Graphics/SVG/1.1/DTD/svg11.dtd">
<svg xmlns:xlink="http://www.w3.org/1999/xlink" width="1296pt" height="288pt" viewBox="0 0 1296 288" xmlns="http://www.w3.org/2000/svg" version="1.1">
 <metadata>
  <rdf:RDF xmlns:dc="http://purl.org/dc/elements/1.1/" xmlns:cc="http://creativecommons.org/ns#" xmlns:rdf="http://www.w3.org/1999/02/22-rdf-syntax-ns#">
   <cc:Work>
    <dc:type rdf:resource="http://purl.org/dc/dcmitype/StillImage"/>
    <dc:date>2024-03-21T03:34:58.149959</dc:date>
    <dc:format>image/svg+xml</dc:format>
    <dc:creator>
     <cc:Agent>
      <dc:title>Matplotlib v3.8.0, https://matplotlib.org/</dc:title>
     </cc:Agent>
    </dc:creator>
   </cc:Work>
  </rdf:RDF>
 </metadata>
 <defs>
  <style type="text/css">*{stroke-linejoin: round; stroke-linecap: butt}</style>
 </defs>
 <g id="figure_1">
  <g id="patch_1">
   <path d="M 0 288 
L 1296 288 
L 1296 0 
L 0 0 
z
" style="fill: #ffffff"/>
  </g>
  <g id="axes_1">
   <g id="patch_2">
    <path d="M 162 256.32 
L 1166.4 256.32 
L 1166.4 34.56 
L 162 34.56 
z
" style="fill: #ffffff"/>
   </g>
   <g id="matplotlib.axis_1">
    <g id="xtick_1">
     <g id="line2d_1">
      <defs>
       <path id="mf01915580f" d="M 0 0 
L 0 3.5 
" style="stroke: #000000; stroke-width: 0.8"/>
      </defs>
      <g>
       <use xlink:href="#mf01915580f" x="312.435469" y="256.32" style="stroke: #000000; stroke-width: 0.8"/>
      </g>
     </g>
     <g id="text_1">
      <!-- 2023-05 -->
      <g transform="translate(291.544063 270.918437) scale(0.1 -0.1)">
       <defs>
        <path id="DejaVuSans-32" d="M 1228 531 
L 3431 531 
L 3431 0 
L 469 0 
L 469 531 
Q 828 903 1448 1529 
Q 2069 2156 2228 2338 
Q 2531 2678 2651 2914 
Q 2772 3150 2772 3378 
Q 2772 3750 2511 3984 
Q 2250 4219 1831 4219 
Q 1534 4219 1204 4116 
Q 875 4013 500 3803 
L 500 4441 
Q 881 4594 1212 4672 
Q 1544 4750 1819 4750 
Q 2544 4750 2975 4387 
Q 3406 4025 3406 3419 
Q 3406 3131 3298 2873 
Q 3191 2616 2906 2266 
Q 2828 2175 2409 1742 
Q 1991 1309 1228 531 
z
" transform="scale(0.015625)"/>
        <path id="DejaVuSans-30" d="M 2034 4250 
Q 1547 4250 1301 3770 
Q 1056 3291 1056 2328 
Q 1056 1369 1301 889 
Q 1547 409 2034 409 
Q 2525 409 2770 889 
Q 3016 1369 3016 2328 
Q 3016 3291 2770 3770 
Q 2525 4250 2034 4250 
z
M 2034 4750 
Q 2819 4750 3233 4129 
Q 3647 3509 3647 2328 
Q 3647 1150 3233 529 
Q 2819 -91 2034 -91 
Q 1250 -91 836 529 
Q 422 1150 422 2328 
Q 422 3509 836 4129 
Q 1250 4750 2034 4750 
z
" transform="scale(0.015625)"/>
        <path id="DejaVuSans-33" d="M 2597 2516 
Q 3050 2419 3304 2112 
Q 3559 1806 3559 1356 
Q 3559 666 3084 287 
Q 2609 -91 1734 -91 
Q 1441 -91 1130 -33 
Q 819 25 488 141 
L 488 750 
Q 750 597 1062 519 
Q 1375 441 1716 441 
Q 2309 441 2620 675 
Q 2931 909 2931 1356 
Q 2931 1769 2642 2001 
Q 2353 2234 1838 2234 
L 1294 2234 
L 1294 2753 
L 1863 2753 
Q 2328 2753 2575 2939 
Q 2822 3125 2822 3475 
Q 2822 3834 2567 4026 
Q 2313 4219 1838 4219 
Q 1578 4219 1281 4162 
Q 984 4106 628 3988 
L 628 4550 
Q 988 4650 1302 4700 
Q 1616 4750 1894 4750 
Q 2613 4750 3031 4423 
Q 3450 4097 3450 3541 
Q 3450 3153 3228 2886 
Q 3006 2619 2597 2516 
z
" transform="scale(0.015625)"/>
        <path id="DejaVuSans-2d" d="M 313 2009 
L 1997 2009 
L 1997 1497 
L 313 1497 
L 313 2009 
z
" transform="scale(0.015625)"/>
        <path id="DejaVuSans-35" d="M 691 4666 
L 3169 4666 
L 3169 4134 
L 1269 4134 
L 1269 2991 
Q 1406 3038 1543 3061 
Q 1681 3084 1819 3084 
Q 2600 3084 3056 2656 
Q 3513 2228 3513 1497 
Q 3513 744 3044 326 
Q 2575 -91 1722 -91 
Q 1428 -91 1123 -41 
Q 819 9 494 109 
L 494 744 
Q 775 591 1075 516 
Q 1375 441 1709 441 
Q 2250 441 2565 725 
Q 2881 1009 2881 1497 
Q 2881 1984 2565 2268 
Q 2250 2553 1709 2553 
Q 1456 2553 1204 2497 
Q 953 2441 691 2322 
L 691 4666 
z
" transform="scale(0.015625)"/>
       </defs>
       <use xlink:href="#DejaVuSans-32"/>
       <use xlink:href="#DejaVuSans-30" x="63.623047"/>
       <use xlink:href="#DejaVuSans-32" x="127.246094"/>
       <use xlink:href="#DejaVuSans-33" x="190.869141"/>
       <use xlink:href="#DejaVuSans-2d" x="254.492188"/>
       <use xlink:href="#DejaVuSans-30" x="290.576172"/>
       <use xlink:href="#DejaVuSans-35" x="354.199219"/>
      </g>
     </g>
    </g>
    <g id="xtick_2">
     <g id="line2d_2">
      <g>
       <use xlink:href="#mf01915580f" x="464.617288" y="256.32" style="stroke: #000000; stroke-width: 0.8"/>
      </g>
     </g>
     <g id="text_2">
      <!-- 2023-07 -->
      <g transform="translate(443.725881 270.918437) scale(0.1 -0.1)">
       <defs>
        <path id="DejaVuSans-37" d="M 525 4666 
L 3525 4666 
L 3525 4397 
L 1831 0 
L 1172 0 
L 2766 4134 
L 525 4134 
L 525 4666 
z
" transform="scale(0.015625)"/>
       </defs>
       <use xlink:href="#DejaVuSans-32"/>
       <use xlink:href="#DejaVuSans-30" x="63.623047"/>
       <use xlink:href="#DejaVuSans-32" x="127.246094"/>
       <use xlink:href="#DejaVuSans-33" x="190.869141"/>
       <use xlink:href="#DejaVuSans-2d" x="254.492188"/>
       <use xlink:href="#DejaVuSans-30" x="290.576172"/>
       <use xlink:href="#DejaVuSans-37" x="354.199219"/>
      </g>
     </g>
    </g>
    <g id="xtick_3">
     <g id="line2d_3">
      <g>
       <use xlink:href="#mf01915580f" x="619.29389" y="256.32" style="stroke: #000000; stroke-width: 0.8"/>
      </g>
     </g>
     <g id="text_3">
      <!-- 2023-09 -->
      <g transform="translate(598.402483 270.918437) scale(0.1 -0.1)">
       <defs>
        <path id="DejaVuSans-39" d="M 703 97 
L 703 672 
Q 941 559 1184 500 
Q 1428 441 1663 441 
Q 2288 441 2617 861 
Q 2947 1281 2994 2138 
Q 2813 1869 2534 1725 
Q 2256 1581 1919 1581 
Q 1219 1581 811 2004 
Q 403 2428 403 3163 
Q 403 3881 828 4315 
Q 1253 4750 1959 4750 
Q 2769 4750 3195 4129 
Q 3622 3509 3622 2328 
Q 3622 1225 3098 567 
Q 2575 -91 1691 -91 
Q 1453 -91 1209 -44 
Q 966 3 703 97 
z
M 1959 2075 
Q 2384 2075 2632 2365 
Q 2881 2656 2881 3163 
Q 2881 3666 2632 3958 
Q 2384 4250 1959 4250 
Q 1534 4250 1286 3958 
Q 1038 3666 1038 3163 
Q 1038 2656 1286 2365 
Q 1534 2075 1959 2075 
z
" transform="scale(0.015625)"/>
       </defs>
       <use xlink:href="#DejaVuSans-32"/>
       <use xlink:href="#DejaVuSans-30" x="63.623047"/>
       <use xlink:href="#DejaVuSans-32" x="127.246094"/>
       <use xlink:href="#DejaVuSans-33" x="190.869141"/>
       <use xlink:href="#DejaVuSans-2d" x="254.492188"/>
       <use xlink:href="#DejaVuSans-30" x="290.576172"/>
       <use xlink:href="#DejaVuSans-39" x="354.199219"/>
      </g>
     </g>
    </g>
    <g id="xtick_4">
     <g id="line2d_4">
      <g>
       <use xlink:href="#mf01915580f" x="771.475708" y="256.32" style="stroke: #000000; stroke-width: 0.8"/>
      </g>
     </g>
     <g id="text_4">
      <!-- 2023-11 -->
      <g transform="translate(750.584302 270.918437) scale(0.1 -0.1)">
       <defs>
        <path id="DejaVuSans-31" d="M 794 531 
L 1825 531 
L 1825 4091 
L 703 3866 
L 703 4441 
L 1819 4666 
L 2450 4666 
L 2450 531 
L 3481 531 
L 3481 0 
L 794 0 
L 794 531 
z
" transform="scale(0.015625)"/>
       </defs>
       <use xlink:href="#DejaVuSans-32"/>
       <use xlink:href="#DejaVuSans-30" x="63.623047"/>
       <use xlink:href="#DejaVuSans-32" x="127.246094"/>
       <use xlink:href="#DejaVuSans-33" x="190.869141"/>
       <use xlink:href="#DejaVuSans-2d" x="254.492188"/>
       <use xlink:href="#DejaVuSans-31" x="290.576172"/>
       <use xlink:href="#DejaVuSans-31" x="354.199219"/>
      </g>
     </g>
    </g>
    <g id="xtick_5">
     <g id="line2d_5">
      <g>
       <use xlink:href="#mf01915580f" x="923.761475" y="256.32" style="stroke: #000000; stroke-width: 0.8"/>
      </g>
     </g>
     <g id="text_5">
      <!-- 2024-01 -->
      <g transform="translate(902.870069 270.918437) scale(0.1 -0.1)">
       <defs>
        <path id="DejaVuSans-34" d="M 2419 4116 
L 825 1625 
L 2419 1625 
L 2419 4116 
z
M 2253 4666 
L 3047 4666 
L 3047 1625 
L 3713 1625 
L 3713 1100 
L 3047 1100 
L 3047 0 
L 2419 0 
L 2419 1100 
L 313 1100 
L 313 1709 
L 2253 4666 
z
" transform="scale(0.015625)"/>
       </defs>
       <use xlink:href="#DejaVuSans-32"/>
       <use xlink:href="#DejaVuSans-30" x="63.623047"/>
       <use xlink:href="#DejaVuSans-32" x="127.246094"/>
       <use xlink:href="#DejaVuSans-34" x="190.869141"/>
       <use xlink:href="#DejaVuSans-2d" x="254.492188"/>
       <use xlink:href="#DejaVuSans-30" x="290.576172"/>
       <use xlink:href="#DejaVuSans-31" x="354.199219"/>
      </g>
     </g>
    </g>
    <g id="xtick_6">
     <g id="line2d_6">
      <g>
       <use xlink:href="#mf01915580f" x="1073.44851" y="256.32" style="stroke: #000000; stroke-width: 0.8"/>
      </g>
     </g>
     <g id="text_6">
      <!-- 2024-03 -->
      <g transform="translate(1052.557103 270.918437) scale(0.1 -0.1)">
       <use xlink:href="#DejaVuSans-32"/>
       <use xlink:href="#DejaVuSans-30" x="63.623047"/>
       <use xlink:href="#DejaVuSans-32" x="127.246094"/>
       <use xlink:href="#DejaVuSans-34" x="190.869141"/>
       <use xlink:href="#DejaVuSans-2d" x="254.492188"/>
       <use xlink:href="#DejaVuSans-30" x="290.576172"/>
       <use xlink:href="#DejaVuSans-33" x="354.199219"/>
      </g>
     </g>
    </g>
    <g id="text_7">
     <!-- Date -->
     <g transform="translate(652.249219 284.596563) scale(0.1 -0.1)">
      <defs>
       <path id="DejaVuSans-44" d="M 1259 4147 
L 1259 519 
L 2022 519 
Q 2988 519 3436 956 
Q 3884 1394 3884 2338 
Q 3884 3275 3436 3711 
Q 2988 4147 2022 4147 
L 1259 4147 
z
M 628 4666 
L 1925 4666 
Q 3281 4666 3915 4102 
Q 4550 3538 4550 2338 
Q 4550 1131 3912 565 
Q 3275 0 1925 0 
L 628 0 
L 628 4666 
z
" transform="scale(0.015625)"/>
       <path id="DejaVuSans-61" d="M 2194 1759 
Q 1497 1759 1228 1600 
Q 959 1441 959 1056 
Q 959 750 1161 570 
Q 1363 391 1709 391 
Q 2188 391 2477 730 
Q 2766 1069 2766 1631 
L 2766 1759 
L 2194 1759 
z
M 3341 1997 
L 3341 0 
L 2766 0 
L 2766 531 
Q 2569 213 2275 61 
Q 1981 -91 1556 -91 
Q 1019 -91 701 211 
Q 384 513 384 1019 
Q 384 1609 779 1909 
Q 1175 2209 1959 2209 
L 2766 2209 
L 2766 2266 
Q 2766 2663 2505 2880 
Q 2244 3097 1772 3097 
Q 1472 3097 1187 3025 
Q 903 2953 641 2809 
L 641 3341 
Q 956 3463 1253 3523 
Q 1550 3584 1831 3584 
Q 2591 3584 2966 3190 
Q 3341 2797 3341 1997 
z
" transform="scale(0.015625)"/>
       <path id="DejaVuSans-74" d="M 1172 4494 
L 1172 3500 
L 2356 3500 
L 2356 3053 
L 1172 3053 
L 1172 1153 
Q 1172 725 1289 603 
Q 1406 481 1766 481 
L 2356 481 
L 2356 0 
L 1766 0 
Q 1100 0 847 248 
Q 594 497 594 1153 
L 594 3053 
L 172 3053 
L 172 3500 
L 594 3500 
L 594 4494 
L 1172 4494 
z
" transform="scale(0.015625)"/>
       <path id="DejaVuSans-65" d="M 3597 1894 
L 3597 1613 
L 953 1613 
Q 991 1019 1311 708 
Q 1631 397 2203 397 
Q 2534 397 2845 478 
Q 3156 559 3463 722 
L 3463 178 
Q 3153 47 2828 -22 
Q 2503 -91 2169 -91 
Q 1331 -91 842 396 
Q 353 884 353 1716 
Q 353 2575 817 3079 
Q 1281 3584 2069 3584 
Q 2775 3584 3186 3129 
Q 3597 2675 3597 1894 
z
M 3022 2063 
Q 3016 2534 2758 2815 
Q 2500 3097 2075 3097 
Q 1594 3097 1305 2825 
Q 1016 2553 972 2059 
L 3022 2063 
z
" transform="scale(0.015625)"/>
      </defs>
      <use xlink:href="#DejaVuSans-44"/>
      <use xlink:href="#DejaVuSans-61" x="77.001953"/>
      <use xlink:href="#DejaVuSans-74" x="138.28125"/>
      <use xlink:href="#DejaVuSans-65" x="177.490234"/>
     </g>
    </g>
   </g>
   <g id="matplotlib.axis_2">
    <g id="ytick_1">
     <g id="line2d_7">
      <defs>
       <path id="m3adfc16dbb" d="M 0 0 
L -3.5 0 
" style="stroke: #0000ff; stroke-width: 0.8"/>
      </defs>
      <g>
       <use xlink:href="#m3adfc16dbb" x="162" y="247.408207" style="fill: #0000ff; stroke: #0000ff; stroke-width: 0.8"/>
      </g>
     </g>
     <g id="text_8">
      <!-- 12 -->
      <g style="fill: #0000ff" transform="translate(142.275 251.207426) scale(0.1 -0.1)">
       <use xlink:href="#DejaVuSans-31"/>
       <use xlink:href="#DejaVuSans-32" x="63.623047"/>
      </g>
     </g>
    </g>
    <g id="ytick_2">
     <g id="line2d_8">
      <g>
       <use xlink:href="#m3adfc16dbb" x="162" y="214.030723" style="fill: #0000ff; stroke: #0000ff; stroke-width: 0.8"/>
      </g>
     </g>
     <g id="text_9">
      <!-- 14 -->
      <g style="fill: #0000ff" transform="translate(142.275 217.829942) scale(0.1 -0.1)">
       <use xlink:href="#DejaVuSans-31"/>
       <use xlink:href="#DejaVuSans-34" x="63.623047"/>
      </g>
     </g>
    </g>
    <g id="ytick_3">
     <g id="line2d_9">
      <g>
       <use xlink:href="#m3adfc16dbb" x="162" y="180.65324" style="fill: #0000ff; stroke: #0000ff; stroke-width: 0.8"/>
      </g>
     </g>
     <g id="text_10">
      <!-- 16 -->
      <g style="fill: #0000ff" transform="translate(142.275 184.452458) scale(0.1 -0.1)">
       <defs>
        <path id="DejaVuSans-36" d="M 2113 2584 
Q 1688 2584 1439 2293 
Q 1191 2003 1191 1497 
Q 1191 994 1439 701 
Q 1688 409 2113 409 
Q 2538 409 2786 701 
Q 3034 994 3034 1497 
Q 3034 2003 2786 2293 
Q 2538 2584 2113 2584 
z
M 3366 4563 
L 3366 3988 
Q 3128 4100 2886 4159 
Q 2644 4219 2406 4219 
Q 1781 4219 1451 3797 
Q 1122 3375 1075 2522 
Q 1259 2794 1537 2939 
Q 1816 3084 2150 3084 
Q 2853 3084 3261 2657 
Q 3669 2231 3669 1497 
Q 3669 778 3244 343 
Q 2819 -91 2113 -91 
Q 1303 -91 875 529 
Q 447 1150 447 2328 
Q 447 3434 972 4092 
Q 1497 4750 2381 4750 
Q 2619 4750 2861 4703 
Q 3103 4656 3366 4563 
z
" transform="scale(0.015625)"/>
       </defs>
       <use xlink:href="#DejaVuSans-31"/>
       <use xlink:href="#DejaVuSans-36" x="63.623047"/>
      </g>
     </g>
    </g>
    <g id="ytick_4">
     <g id="line2d_10">
      <g>
       <use xlink:href="#m3adfc16dbb" x="162" y="147.275756" style="fill: #0000ff; stroke: #0000ff; stroke-width: 0.8"/>
      </g>
     </g>
     <g id="text_11">
      <!-- 18 -->
      <g style="fill: #0000ff" transform="translate(142.275 151.074975) scale(0.1 -0.1)">
       <defs>
        <path id="DejaVuSans-38" d="M 2034 2216 
Q 1584 2216 1326 1975 
Q 1069 1734 1069 1313 
Q 1069 891 1326 650 
Q 1584 409 2034 409 
Q 2484 409 2743 651 
Q 3003 894 3003 1313 
Q 3003 1734 2745 1975 
Q 2488 2216 2034 2216 
z
M 1403 2484 
Q 997 2584 770 2862 
Q 544 3141 544 3541 
Q 544 4100 942 4425 
Q 1341 4750 2034 4750 
Q 2731 4750 3128 4425 
Q 3525 4100 3525 3541 
Q 3525 3141 3298 2862 
Q 3072 2584 2669 2484 
Q 3125 2378 3379 2068 
Q 3634 1759 3634 1313 
Q 3634 634 3220 271 
Q 2806 -91 2034 -91 
Q 1263 -91 848 271 
Q 434 634 434 1313 
Q 434 1759 690 2068 
Q 947 2378 1403 2484 
z
M 1172 3481 
Q 1172 3119 1398 2916 
Q 1625 2713 2034 2713 
Q 2441 2713 2670 2916 
Q 2900 3119 2900 3481 
Q 2900 3844 2670 4047 
Q 2441 4250 2034 4250 
Q 1625 4250 1398 4047 
Q 1172 3844 1172 3481 
z
" transform="scale(0.015625)"/>
       </defs>
       <use xlink:href="#DejaVuSans-31"/>
       <use xlink:href="#DejaVuSans-38" x="63.623047"/>
      </g>
     </g>
    </g>
    <g id="ytick_5">
     <g id="line2d_11">
      <g>
       <use xlink:href="#m3adfc16dbb" x="162" y="113.898272" style="fill: #0000ff; stroke: #0000ff; stroke-width: 0.8"/>
      </g>
     </g>
     <g id="text_12">
      <!-- 20 -->
      <g style="fill: #0000ff" transform="translate(142.275 117.697491) scale(0.1 -0.1)">
       <use xlink:href="#DejaVuSans-32"/>
       <use xlink:href="#DejaVuSans-30" x="63.623047"/>
      </g>
     </g>
    </g>
    <g id="ytick_6">
     <g id="line2d_12">
      <g>
       <use xlink:href="#m3adfc16dbb" x="162" y="80.520789" style="fill: #0000ff; stroke: #0000ff; stroke-width: 0.8"/>
      </g>
     </g>
     <g id="text_13">
      <!-- 22 -->
      <g style="fill: #0000ff" transform="translate(142.275 84.320007) scale(0.1 -0.1)">
       <use xlink:href="#DejaVuSans-32"/>
       <use xlink:href="#DejaVuSans-32" x="63.623047"/>
      </g>
     </g>
    </g>
    <g id="ytick_7">
     <g id="line2d_13">
      <g>
       <use xlink:href="#m3adfc16dbb" x="162" y="47.143305" style="fill: #0000ff; stroke: #0000ff; stroke-width: 0.8"/>
      </g>
     </g>
     <g id="text_14">
      <!-- 24 -->
      <g style="fill: #0000ff" transform="translate(142.275 50.942524) scale(0.1 -0.1)">
       <use xlink:href="#DejaVuSans-32"/>
       <use xlink:href="#DejaVuSans-34" x="63.623047"/>
      </g>
     </g>
    </g>
    <g id="text_15">
     <!-- VIX -->
     <g style="fill: #0000ff" transform="translate(136.195312 153.760312) rotate(-90) scale(0.1 -0.1)">
      <defs>
       <path id="DejaVuSans-56" d="M 1831 0 
L 50 4666 
L 709 4666 
L 2188 738 
L 3669 4666 
L 4325 4666 
L 2547 0 
L 1831 0 
z
" transform="scale(0.015625)"/>
       <path id="DejaVuSans-49" d="M 628 4666 
L 1259 4666 
L 1259 0 
L 628 0 
L 628 4666 
z
" transform="scale(0.015625)"/>
       <path id="DejaVuSans-58" d="M 403 4666 
L 1081 4666 
L 2241 2931 
L 3406 4666 
L 4084 4666 
L 2584 2425 
L 4184 0 
L 3506 0 
L 2194 1984 
L 872 0 
L 191 0 
L 1856 2491 
L 403 4666 
z
" transform="scale(0.015625)"/>
      </defs>
      <use xlink:href="#DejaVuSans-56"/>
      <use xlink:href="#DejaVuSans-49" x="68.408203"/>
      <use xlink:href="#DejaVuSans-58" x="97.900391"/>
     </g>
    </g>
   </g>
   <g id="line2d_14">
    <path d="M 207.654545 44.64 
L 210.149329 90.867823 
L 212.644113 76.181712 
L 215.138897 70.340646 
L 217.633681 84.859865 
L 225.118033 103.885021 
L 227.612817 114.398946 
L 230.107601 128.584351 
L 232.602385 130.253232 
L 235.097168 135.593624 
L 242.58152 138.096961 
L 245.076304 130.587014 
L 247.571088 129.251916 
L 250.065872 140.600266 
L 260.045007 131.087688 
L 262.539791 128.918133 
L 265.034575 129.085025 
L 267.529359 150.613517 
L 270.024143 162.796291 
L 277.508495 164.798922 
L 280.003279 166.801585 
L 282.498063 172.976434 
L 284.992846 161.12741 
L 287.48763 167.802901 
L 294.971982 165.800269 
L 297.466766 134.592308 
L 299.96155 133.25721 
L 302.456334 163.463824 
L 304.951118 184.324767 
L 312.435469 179.318141 
L 314.930253 150.947268 
L 317.425037 141.601581 
L 319.919821 112.396283 
L 322.414605 160.793628 
L 329.898957 164.29828 
L 332.393741 152.115506 
L 334.888525 164.965813 
L 337.383308 165.132705 
L 339.878092 163.463824 
L 347.362444 161.961835 
L 349.857228 147.442647 
L 352.352012 166.13402 
L 354.846796 179.818815 
L 357.34158 167.135368 
L 364.825931 160.459877 
L 367.320715 138.430711 
L 369.815499 113.397599 
L 372.310283 128.2506 
L 374.805067 148.11018 
L 384.784203 156.287692 
L 387.278987 148.277071 
L 389.77377 186.494306 
L 392.268554 204.017472 
L 399.752906 201.847949 
L 402.24769 214.698272 
L 404.742474 215.032055 
L 407.237258 219.871789 
L 409.732042 216.867811 
L 417.216393 197.17509 
L 419.711177 203.850596 
L 422.205961 216.03337 
L 424.700745 205.686352 
L 427.195529 221.707545 
L 437.174665 216.03337 
L 439.669449 227.38172 
L 442.164232 232.221454 
L 444.659016 223.376426 
L 452.143368 209.858538 
L 454.638152 218.3698 
L 457.132936 223.543301 
L 459.62772 221.707545 
L 462.122504 220.873105 
L 469.606855 221.206887 
L 474.596423 211.026745 
L 477.091207 189.998942 
L 479.585991 200.179069 
L 487.070343 196.173775 
L 489.565127 200.012177 
L 492.059911 221.707545 
L 494.554694 220.539338 
L 497.049478 225.04529 
L 504.53383 222.708877 
L 507.028614 225.712839 
L 509.523398 218.036017 
L 512.018182 214.197614 
L 514.512966 220.706214 
L 521.997317 215.532712 
L 524.492101 216.367153 
L 526.986885 227.548611 
L 529.481669 207.188342 
L 531.976453 225.212181 
L 539.460805 220.205556 
L 541.955589 215.19893 
L 544.450373 179.15125 
L 546.945156 181.988338 
L 549.43994 162.295617 
L 556.924292 184.491643 
L 559.419076 180.820131 
L 561.91386 181.320789 
L 564.408644 183.156544 
L 566.903428 200.012177 
L 574.387779 200.34596 
L 576.882563 172.976434 
L 579.377347 167.636009 
L 581.872131 149.111528 
L 584.366915 158.957888 
L 591.851267 161.794975 
L 594.346051 164.465171 
L 596.840835 180.987022 
L 599.335618 160.626737 
L 601.830402 185.993632 
L 609.314754 196.006883 
L 611.809538 206.520793 
L 614.304322 216.03337 
L 616.799106 221.206887 
L 619.29389 229.217476 
L 629.273025 213.863832 
L 631.767809 206.520793 
L 634.262593 207.355233 
L 636.757377 216.700919 
L 644.241729 217.368468 
L 646.736513 210.19232 
L 649.231297 222.708877 
L 651.72608 233.723444 
L 654.220864 217.53536 
L 661.705216 214.030723 
L 664.2 212.194967 
L 666.694784 195.005552 
L 669.189568 154.952562 
L 671.684352 160.626737 
L 679.168703 165.633378 
L 681.663487 131.58833 
L 684.158271 143.604244 
L 686.653055 158.290323 
L 689.147839 155.286344 
L 696.632191 153.784355 
L 699.126975 117.569784 
L 701.621759 137.596287 
L 704.116542 139.098276 
L 706.611326 156.454551 
L 714.095678 152.282366 
L 716.590462 163.463824 
L 719.085246 179.15125 
L 721.58003 169.137999 
L 724.074814 125.246622 
L 731.559165 160.459877 
L 734.053949 149.278419 
L 736.548733 126.915502 
L 739.043517 90.53404 
L 741.538301 85.360539 
L 749.022653 107.723424 
L 751.517437 131.087688 
L 754.012221 110.727402 
L 756.507004 102.549923 
L 759.001788 92.703562 
L 766.48614 118.070458 
L 768.980924 144.939342 
L 771.475708 166.13402 
L 773.970492 186.327414 
L 776.465276 198.843971 
L 784.053577 199.177737 
L 786.548361 200.512835 
L 789.043145 206.520793 
L 791.537928 192.502247 
L 794.032712 211.193636 
L 801.517064 201.347276 
L 804.011848 211.360527 
L 806.506632 211.026745 
L 809.001416 208.690331 
L 811.4962 217.368468 
L 818.980551 223.877083 
L 821.475335 224.878399 
L 823.970119 233.22277 
L 828.959687 239.731385 
L 836.444039 235.892982 
L 838.938823 235.892982 
L 841.433607 231.053247 
L 843.92839 232.054563 
L 846.423174 236.894298 
L 853.907526 229.384367 
L 856.40231 233.22277 
L 858.897094 231.220123 
L 861.391878 229.718133 
L 863.886662 241.567141 
L 871.371013 236.894298 
L 873.865797 246.24 
L 876.360581 244.237353 
L 878.855365 239.397618 
L 881.350149 242.735364 
L 888.834501 238.062504 
L 891.329285 238.563178 
L 893.824069 219.538007 
L 896.318852 219.871789 
L 898.813636 230.218807 
L 908.792772 230.886356 
L 911.287556 240.232043 
L 913.78234 239.564494 
L 916.277124 239.898276 
L 926.256259 227.38172 
L 928.751043 213.363174 
L 931.245827 211.861185 
L 933.740611 224.878399 
L 941.224963 229.384367 
L 943.719747 234.724759 
L 946.214531 235.892982 
L 948.709314 240.065167 
L 951.204098 235.726091 
L 961.183234 216.700919 
L 963.678018 200.846618 
L 966.172802 211.861185 
L 968.667586 225.712839 
L 976.151937 227.548611 
L 978.646721 238.229396 
L 981.141505 228.383035 
L 983.636289 223.209534 
L 986.131073 226.380388 
L 993.615425 220.706214 
L 996.110209 225.545948 
L 998.604993 208.189657 
L 1001.099776 216.03337 
L 1003.59456 216.534028 
L 1011.078912 219.538007 
L 1013.573696 229.718133 
L 1016.06848 233.556552 
L 1018.563264 234.224101 
L 1021.058048 231.887672 
L 1028.542399 215.19893 
L 1031.037183 183.156544 
L 1033.531967 207.688999 
L 1036.026751 213.863832 
L 1038.521535 210.025429 
L 1048.500671 190.332709 
L 1050.995455 191.667807 
L 1055.985022 218.202909 
L 1063.469374 218.3698 
L 1065.964158 223.543301 
L 1068.458942 216.700919 
L 1070.953726 224.043975 
L 1073.44851 228.883709 
L 1080.932861 222.541985 
L 1083.427645 206.353901 
L 1085.922429 205.686352 
L 1088.417213 206.687684 
L 1090.911997 201.681058 
L 1098.292399 193.670454 
L 1100.787183 216.700919 
L 1103.281967 218.202909 
L 1105.776751 207.355233 
L 1108.271535 207.188342 
L 1115.755887 208.52344 
L 1118.250671 217.034702 
L 1120.745455 230.051916 
L 1120.745455 230.051916 
" clip-path="url(#p132277049f)" style="fill: none; stroke: #0000ff; stroke-width: 1.5; stroke-linecap: square"/>
   </g>
   <g id="patch_3">
    <path d="M 162 256.32 
L 162 34.56 
" style="fill: none; stroke: #000000; stroke-width: 0.8; stroke-linejoin: miter; stroke-linecap: square"/>
   </g>
   <g id="patch_4">
    <path d="M 1166.4 256.32 
L 1166.4 34.56 
" style="fill: none; stroke: #000000; stroke-width: 0.8; stroke-linejoin: miter; stroke-linecap: square"/>
   </g>
   <g id="patch_5">
    <path d="M 162 256.32 
L 1166.4 256.32 
" style="fill: none; stroke: #000000; stroke-width: 0.8; stroke-linejoin: miter; stroke-linecap: square"/>
   </g>
   <g id="patch_6">
    <path d="M 162 34.56 
L 1166.4 34.56 
" style="fill: none; stroke: #000000; stroke-width: 0.8; stroke-linejoin: miter; stroke-linecap: square"/>
   </g>
  </g>
  <g id="axes_2">
   <g id="matplotlib.axis_3">
    <g id="ytick_8">
     <g id="line2d_15">
      <defs>
       <path id="m7ab2614864" d="M 0 0 
L 3.5 0 
" style="stroke: #ff0000; stroke-width: 0.8"/>
      </defs>
      <g>
       <use xlink:href="#m7ab2614864" x="1166.4" y="233.854415" style="fill: #ff0000; stroke: #ff0000; stroke-width: 0.8"/>
      </g>
     </g>
     <g id="text_16">
      <!-- 0.2 -->
      <g style="fill: #ff0000" transform="translate(1173.4 237.653633) scale(0.1 -0.1)">
       <defs>
        <path id="DejaVuSans-2e" d="M 684 794 
L 1344 794 
L 1344 0 
L 684 0 
L 684 794 
z
" transform="scale(0.015625)"/>
       </defs>
       <use xlink:href="#DejaVuSans-30"/>
       <use xlink:href="#DejaVuSans-2e" x="63.623047"/>
       <use xlink:href="#DejaVuSans-32" x="95.410156"/>
      </g>
     </g>
    </g>
    <g id="ytick_9">
     <g id="line2d_16">
      <g>
       <use xlink:href="#m7ab2614864" x="1166.4" y="206.796964" style="fill: #ff0000; stroke: #ff0000; stroke-width: 0.8"/>
      </g>
     </g>
     <g id="text_17">
      <!-- 0.3 -->
      <g style="fill: #ff0000" transform="translate(1173.4 210.596183) scale(0.1 -0.1)">
       <use xlink:href="#DejaVuSans-30"/>
       <use xlink:href="#DejaVuSans-2e" x="63.623047"/>
       <use xlink:href="#DejaVuSans-33" x="95.410156"/>
      </g>
     </g>
    </g>
    <g id="ytick_10">
     <g id="line2d_17">
      <g>
       <use xlink:href="#m7ab2614864" x="1166.4" y="179.739513" style="fill: #ff0000; stroke: #ff0000; stroke-width: 0.8"/>
      </g>
     </g>
     <g id="text_18">
      <!-- 0.4 -->
      <g style="fill: #ff0000" transform="translate(1173.4 183.538732) scale(0.1 -0.1)">
       <use xlink:href="#DejaVuSans-30"/>
       <use xlink:href="#DejaVuSans-2e" x="63.623047"/>
       <use xlink:href="#DejaVuSans-34" x="95.410156"/>
      </g>
     </g>
    </g>
    <g id="ytick_11">
     <g id="line2d_18">
      <g>
       <use xlink:href="#m7ab2614864" x="1166.4" y="152.682062" style="fill: #ff0000; stroke: #ff0000; stroke-width: 0.8"/>
      </g>
     </g>
     <g id="text_19">
      <!-- 0.5 -->
      <g style="fill: #ff0000" transform="translate(1173.4 156.481281) scale(0.1 -0.1)">
       <use xlink:href="#DejaVuSans-30"/>
       <use xlink:href="#DejaVuSans-2e" x="63.623047"/>
       <use xlink:href="#DejaVuSans-35" x="95.410156"/>
      </g>
     </g>
    </g>
    <g id="ytick_12">
     <g id="line2d_19">
      <g>
       <use xlink:href="#m7ab2614864" x="1166.4" y="125.624612" style="fill: #ff0000; stroke: #ff0000; stroke-width: 0.8"/>
      </g>
     </g>
     <g id="text_20">
      <!-- 0.6 -->
      <g style="fill: #ff0000" transform="translate(1173.4 129.42383) scale(0.1 -0.1)">
       <use xlink:href="#DejaVuSans-30"/>
       <use xlink:href="#DejaVuSans-2e" x="63.623047"/>
       <use xlink:href="#DejaVuSans-36" x="95.410156"/>
      </g>
     </g>
    </g>
    <g id="ytick_13">
     <g id="line2d_20">
      <g>
       <use xlink:href="#m7ab2614864" x="1166.4" y="98.567161" style="fill: #ff0000; stroke: #ff0000; stroke-width: 0.8"/>
      </g>
     </g>
     <g id="text_21">
      <!-- 0.7 -->
      <g style="fill: #ff0000" transform="translate(1173.4 102.36638) scale(0.1 -0.1)">
       <use xlink:href="#DejaVuSans-30"/>
       <use xlink:href="#DejaVuSans-2e" x="63.623047"/>
       <use xlink:href="#DejaVuSans-37" x="95.410156"/>
      </g>
     </g>
    </g>
    <g id="ytick_14">
     <g id="line2d_21">
      <g>
       <use xlink:href="#m7ab2614864" x="1166.4" y="71.50971" style="fill: #ff0000; stroke: #ff0000; stroke-width: 0.8"/>
      </g>
     </g>
     <g id="text_22">
      <!-- 0.8 -->
      <g style="fill: #ff0000" transform="translate(1173.4 75.308929) scale(0.1 -0.1)">
       <use xlink:href="#DejaVuSans-30"/>
       <use xlink:href="#DejaVuSans-2e" x="63.623047"/>
       <use xlink:href="#DejaVuSans-38" x="95.410156"/>
      </g>
     </g>
    </g>
    <g id="ytick_15">
     <g id="line2d_22">
      <g>
       <use xlink:href="#m7ab2614864" x="1166.4" y="44.45226" style="fill: #ff0000; stroke: #ff0000; stroke-width: 0.8"/>
      </g>
     </g>
     <g id="text_23">
      <!-- 0.9 -->
      <g style="fill: #ff0000" transform="translate(1173.4 48.251478) scale(0.1 -0.1)">
       <use xlink:href="#DejaVuSans-30"/>
       <use xlink:href="#DejaVuSans-2e" x="63.623047"/>
       <use xlink:href="#DejaVuSans-39" x="95.410156"/>
      </g>
     </g>
    </g>
    <g id="text_24">
     <!-- Indicator -->
     <g style="fill: #ff0000" transform="translate(1200.901563 167.535313) rotate(-90) scale(0.1 -0.1)">
      <defs>
       <path id="DejaVuSans-6e" d="M 3513 2113 
L 3513 0 
L 2938 0 
L 2938 2094 
Q 2938 2591 2744 2837 
Q 2550 3084 2163 3084 
Q 1697 3084 1428 2787 
Q 1159 2491 1159 1978 
L 1159 0 
L 581 0 
L 581 3500 
L 1159 3500 
L 1159 2956 
Q 1366 3272 1645 3428 
Q 1925 3584 2291 3584 
Q 2894 3584 3203 3211 
Q 3513 2838 3513 2113 
z
" transform="scale(0.015625)"/>
       <path id="DejaVuSans-64" d="M 2906 2969 
L 2906 4863 
L 3481 4863 
L 3481 0 
L 2906 0 
L 2906 525 
Q 2725 213 2448 61 
Q 2172 -91 1784 -91 
Q 1150 -91 751 415 
Q 353 922 353 1747 
Q 353 2572 751 3078 
Q 1150 3584 1784 3584 
Q 2172 3584 2448 3432 
Q 2725 3281 2906 2969 
z
M 947 1747 
Q 947 1113 1208 752 
Q 1469 391 1925 391 
Q 2381 391 2643 752 
Q 2906 1113 2906 1747 
Q 2906 2381 2643 2742 
Q 2381 3103 1925 3103 
Q 1469 3103 1208 2742 
Q 947 2381 947 1747 
z
" transform="scale(0.015625)"/>
       <path id="DejaVuSans-69" d="M 603 3500 
L 1178 3500 
L 1178 0 
L 603 0 
L 603 3500 
z
M 603 4863 
L 1178 4863 
L 1178 4134 
L 603 4134 
L 603 4863 
z
" transform="scale(0.015625)"/>
       <path id="DejaVuSans-63" d="M 3122 3366 
L 3122 2828 
Q 2878 2963 2633 3030 
Q 2388 3097 2138 3097 
Q 1578 3097 1268 2742 
Q 959 2388 959 1747 
Q 959 1106 1268 751 
Q 1578 397 2138 397 
Q 2388 397 2633 464 
Q 2878 531 3122 666 
L 3122 134 
Q 2881 22 2623 -34 
Q 2366 -91 2075 -91 
Q 1284 -91 818 406 
Q 353 903 353 1747 
Q 353 2603 823 3093 
Q 1294 3584 2113 3584 
Q 2378 3584 2631 3529 
Q 2884 3475 3122 3366 
z
" transform="scale(0.015625)"/>
       <path id="DejaVuSans-6f" d="M 1959 3097 
Q 1497 3097 1228 2736 
Q 959 2375 959 1747 
Q 959 1119 1226 758 
Q 1494 397 1959 397 
Q 2419 397 2687 759 
Q 2956 1122 2956 1747 
Q 2956 2369 2687 2733 
Q 2419 3097 1959 3097 
z
M 1959 3584 
Q 2709 3584 3137 3096 
Q 3566 2609 3566 1747 
Q 3566 888 3137 398 
Q 2709 -91 1959 -91 
Q 1206 -91 779 398 
Q 353 888 353 1747 
Q 353 2609 779 3096 
Q 1206 3584 1959 3584 
z
" transform="scale(0.015625)"/>
       <path id="DejaVuSans-72" d="M 2631 2963 
Q 2534 3019 2420 3045 
Q 2306 3072 2169 3072 
Q 1681 3072 1420 2755 
Q 1159 2438 1159 1844 
L 1159 0 
L 581 0 
L 581 3500 
L 1159 3500 
L 1159 2956 
Q 1341 3275 1631 3429 
Q 1922 3584 2338 3584 
Q 2397 3584 2469 3576 
Q 2541 3569 2628 3553 
L 2631 2963 
z
" transform="scale(0.015625)"/>
      </defs>
      <use xlink:href="#DejaVuSans-49"/>
      <use xlink:href="#DejaVuSans-6e" x="29.492188"/>
      <use xlink:href="#DejaVuSans-64" x="92.871094"/>
      <use xlink:href="#DejaVuSans-69" x="156.347656"/>
      <use xlink:href="#DejaVuSans-63" x="184.130859"/>
      <use xlink:href="#DejaVuSans-61" x="239.111328"/>
      <use xlink:href="#DejaVuSans-74" x="300.390625"/>
      <use xlink:href="#DejaVuSans-6f" x="339.599609"/>
      <use xlink:href="#DejaVuSans-72" x="400.78125"/>
     </g>
    </g>
   </g>
   <g id="line2d_23">
    <path d="M 207.654545 45.694708 
L 210.149329 45.486274 
L 215.138897 44.810811 
L 217.633681 44.708787 
L 235.097168 44.784966 
L 242.58152 44.931913 
L 247.571088 45.668842 
L 250.065872 45.967776 
L 260.045007 46.270343 
L 267.529359 47.001941 
L 270.024143 47.311008 
L 277.508495 47.503963 
L 280.003279 47.730974 
L 282.498063 48.140913 
L 284.992846 48.402158 
L 287.48763 49.223885 
L 294.971982 50.429932 
L 297.466766 51.732425 
L 299.96155 52.62274 
L 302.456334 54.448507 
L 304.951118 56.0741 
L 312.435469 58.495528 
L 314.930253 60.361267 
L 317.425037 61.328896 
L 319.919821 62.053597 
L 322.414605 64.000998 
L 329.898957 65.894763 
L 332.393741 67.140548 
L 334.888525 68.534197 
L 339.878092 70.62181 
L 349.857228 71.773204 
L 352.352012 72.980702 
L 354.846796 74.814157 
L 357.34158 75.835495 
L 367.320715 77.412729 
L 369.815499 76.764441 
L 372.310283 75.868314 
L 374.805067 75.297006 
L 384.784203 74.971929 
L 387.278987 74.279193 
L 389.77377 74.782725 
L 392.268554 76.453169 
L 399.752906 77.863758 
L 402.24769 80.034611 
L 404.742474 84.030798 
L 407.237258 89.042177 
L 409.732042 92.572255 
L 417.216393 93.478529 
L 419.711177 95.274644 
L 422.205961 100.495227 
L 424.700745 106.360222 
L 427.195529 118.275803 
L 437.174665 125.277444 
L 439.669449 134.035463 
L 442.164232 146.057717 
L 444.659016 155.128618 
L 452.143368 162.033934 
L 454.638152 170.248647 
L 457.132936 178.89273 
L 459.62772 188.295174 
L 462.122504 194.459853 
L 469.606855 198.70041 
L 474.596423 202.825574 
L 477.091207 205.400549 
L 479.585991 210.307125 
L 487.070343 216.000373 
L 489.565127 220.249467 
L 492.059911 224.060685 
L 494.554694 227.008213 
L 497.049478 230.140366 
L 504.53383 231.490112 
L 507.028614 232.263392 
L 509.523398 232.82408 
L 512.018182 232.806942 
L 514.512966 233.000426 
L 524.492101 232.835498 
L 526.986885 233.851293 
L 529.481669 233.960182 
L 531.976453 234.25692 
L 539.460805 234.718352 
L 541.955589 234.512693 
L 544.450373 233.309984 
L 546.945156 231.736756 
L 549.43994 229.088075 
L 556.924292 227.482102 
L 559.419076 226.213676 
L 561.91386 224.501961 
L 564.408644 222.50587 
L 566.903428 221.372746 
L 574.387779 220.258696 
L 581.872131 211.926484 
L 584.366915 208.860382 
L 591.851267 206.100192 
L 594.346051 203.034966 
L 596.840835 199.238485 
L 599.335618 193.052316 
L 601.830402 188.610975 
L 609.314754 185.382816 
L 611.809538 182.966698 
L 614.304322 182.710005 
L 616.799106 183.604663 
L 619.29389 184.676793 
L 629.273025 184.467807 
L 631.767809 183.22253 
L 634.262593 180.603755 
L 636.757377 181.848174 
L 644.241729 180.82345 
L 646.736513 179.496576 
L 649.231297 180.49369 
L 651.72608 187.378562 
L 654.220864 191.514771 
L 661.705216 197.04973 
L 664.2 199.786604 
L 666.694784 201.129497 
L 669.189568 198.601932 
L 671.684352 196.332669 
L 679.168703 192.667195 
L 681.663487 184.572375 
L 684.158271 180.801508 
L 686.653055 179.563415 
L 689.147839 180.383476 
L 696.632191 179.696929 
L 699.126975 173.609897 
L 701.621759 169.736671 
L 704.116542 163.483184 
L 706.611326 162.848651 
L 714.095678 157.666794 
L 716.590462 152.609729 
L 719.085246 148.354972 
L 721.58003 141.158084 
L 724.074814 127.315378 
L 731.559165 118.477645 
L 734.053949 111.108319 
L 736.548733 103.22499 
L 739.043517 93.741753 
L 741.538301 85.406245 
L 749.022653 79.849953 
L 751.517437 76.446446 
L 756.507004 68.260067 
L 759.001788 65.020317 
L 766.48614 62.851395 
L 768.980924 61.470175 
L 771.475708 60.90853 
L 773.970492 61.519725 
L 776.465276 62.293765 
L 784.053577 63.001577 
L 789.043145 66.075268 
L 791.537928 66.959038 
L 794.032712 68.491423 
L 801.517064 69.889687 
L 804.011848 72.939994 
L 806.506632 75.646001 
L 811.4962 81.323117 
L 818.980551 85.026459 
L 823.970119 92.144925 
L 828.959687 97.359638 
L 836.444039 107.198418 
L 838.938823 115.28267 
L 841.433607 125.432527 
L 843.92839 140.426925 
L 846.423174 163.001105 
L 853.907526 183.328865 
L 856.40231 197.606079 
L 858.897094 206.706083 
L 861.391878 215.370648 
L 863.886662 223.264904 
L 871.371013 229.636178 
L 873.865797 234.187135 
L 876.360581 237.17171 
L 878.855365 239.129795 
L 881.350149 240.516576 
L 888.834501 241.42527 
L 891.329285 242.295759 
L 893.824069 242.702029 
L 896.318852 242.981834 
L 898.813636 243.749646 
L 908.792772 244.137791 
L 911.287556 244.879917 
L 916.277124 245.914477 
L 926.256259 246.24 
L 928.751043 246.170775 
L 931.245827 245.961368 
L 941.224963 245.893921 
L 946.214531 245.805538 
L 951.204098 245.961368 
L 961.183234 245.689945 
L 963.678018 245.035125 
L 966.172802 244.707564 
L 968.667586 244.565265 
L 976.151937 244.495272 
L 978.646721 244.657102 
L 983.636289 244.141045 
L 986.131073 243.749647 
L 993.615425 243.274473 
L 996.110209 242.988774 
L 998.604993 242.256078 
L 1003.59456 241.277441 
L 1011.078912 241.277441 
L 1013.573696 241.500632 
L 1018.563264 241.650456 
L 1028.542399 240.904681 
L 1031.037183 239.537905 
L 1033.531967 239.040324 
L 1038.521535 239.006134 
L 1048.500671 238.100613 
L 1050.995455 237.063785 
L 1053.490238 236.209221 
L 1055.985022 235.68348 
L 1063.469374 235.020687 
L 1065.964158 234.639476 
L 1068.458942 234.639476 
L 1070.953726 235.359712 
L 1073.44851 235.873441 
L 1080.932861 235.778671 
L 1083.427645 235.134283 
L 1085.922429 234.106344 
L 1090.911997 232.663624 
L 1098.292399 231.508244 
L 1100.787183 231.362773 
L 1103.281967 231.093737 
L 1105.776751 231.062971 
L 1108.271535 230.734395 
L 1118.250671 230.337885 
L 1120.745455 230.350574 
L 1120.745455 230.350574 
" clip-path="url(#p132277049f)" style="fill: none; stroke: #ff0000; stroke-width: 1.5; stroke-linecap: square"/>
   </g>
   <g id="patch_7">
    <path d="M 162 256.32 
L 162 34.56 
" style="fill: none; stroke: #000000; stroke-width: 0.8; stroke-linejoin: miter; stroke-linecap: square"/>
   </g>
   <g id="patch_8">
    <path d="M 1166.4 256.32 
L 1166.4 34.56 
" style="fill: none; stroke: #000000; stroke-width: 0.8; stroke-linejoin: miter; stroke-linecap: square"/>
   </g>
   <g id="patch_9">
    <path d="M 162 256.32 
L 1166.4 256.32 
" style="fill: none; stroke: #000000; stroke-width: 0.8; stroke-linejoin: miter; stroke-linecap: square"/>
   </g>
   <g id="patch_10">
    <path d="M 162 34.56 
L 1166.4 34.56 
" style="fill: none; stroke: #000000; stroke-width: 0.8; stroke-linejoin: miter; stroke-linecap: square"/>
   </g>
   <g id="text_25">
    <!-- VIX and Cumulative Probability Indicator (smoothed 30 periods) - 1Y (Updated 2024-03-21 03:34:58) -->
    <g transform="translate(361.360313 28.56) scale(0.12 -0.12)">
     <defs>
      <path id="DejaVuSans-20" transform="scale(0.015625)"/>
      <path id="DejaVuSans-43" d="M 4122 4306 
L 4122 3641 
Q 3803 3938 3442 4084 
Q 3081 4231 2675 4231 
Q 1875 4231 1450 3742 
Q 1025 3253 1025 2328 
Q 1025 1406 1450 917 
Q 1875 428 2675 428 
Q 3081 428 3442 575 
Q 3803 722 4122 1019 
L 4122 359 
Q 3791 134 3420 21 
Q 3050 -91 2638 -91 
Q 1578 -91 968 557 
Q 359 1206 359 2328 
Q 359 3453 968 4101 
Q 1578 4750 2638 4750 
Q 3056 4750 3426 4639 
Q 3797 4528 4122 4306 
z
" transform="scale(0.015625)"/>
      <path id="DejaVuSans-75" d="M 544 1381 
L 544 3500 
L 1119 3500 
L 1119 1403 
Q 1119 906 1312 657 
Q 1506 409 1894 409 
Q 2359 409 2629 706 
Q 2900 1003 2900 1516 
L 2900 3500 
L 3475 3500 
L 3475 0 
L 2900 0 
L 2900 538 
Q 2691 219 2414 64 
Q 2138 -91 1772 -91 
Q 1169 -91 856 284 
Q 544 659 544 1381 
z
M 1991 3584 
L 1991 3584 
z
" transform="scale(0.015625)"/>
      <path id="DejaVuSans-6d" d="M 3328 2828 
Q 3544 3216 3844 3400 
Q 4144 3584 4550 3584 
Q 5097 3584 5394 3201 
Q 5691 2819 5691 2113 
L 5691 0 
L 5113 0 
L 5113 2094 
Q 5113 2597 4934 2840 
Q 4756 3084 4391 3084 
Q 3944 3084 3684 2787 
Q 3425 2491 3425 1978 
L 3425 0 
L 2847 0 
L 2847 2094 
Q 2847 2600 2669 2842 
Q 2491 3084 2119 3084 
Q 1678 3084 1418 2786 
Q 1159 2488 1159 1978 
L 1159 0 
L 581 0 
L 581 3500 
L 1159 3500 
L 1159 2956 
Q 1356 3278 1631 3431 
Q 1906 3584 2284 3584 
Q 2666 3584 2933 3390 
Q 3200 3197 3328 2828 
z
" transform="scale(0.015625)"/>
      <path id="DejaVuSans-6c" d="M 603 4863 
L 1178 4863 
L 1178 0 
L 603 0 
L 603 4863 
z
" transform="scale(0.015625)"/>
      <path id="DejaVuSans-76" d="M 191 3500 
L 800 3500 
L 1894 563 
L 2988 3500 
L 3597 3500 
L 2284 0 
L 1503 0 
L 191 3500 
z
" transform="scale(0.015625)"/>
      <path id="DejaVuSans-50" d="M 1259 4147 
L 1259 2394 
L 2053 2394 
Q 2494 2394 2734 2622 
Q 2975 2850 2975 3272 
Q 2975 3691 2734 3919 
Q 2494 4147 2053 4147 
L 1259 4147 
z
M 628 4666 
L 2053 4666 
Q 2838 4666 3239 4311 
Q 3641 3956 3641 3272 
Q 3641 2581 3239 2228 
Q 2838 1875 2053 1875 
L 1259 1875 
L 1259 0 
L 628 0 
L 628 4666 
z
" transform="scale(0.015625)"/>
      <path id="DejaVuSans-62" d="M 3116 1747 
Q 3116 2381 2855 2742 
Q 2594 3103 2138 3103 
Q 1681 3103 1420 2742 
Q 1159 2381 1159 1747 
Q 1159 1113 1420 752 
Q 1681 391 2138 391 
Q 2594 391 2855 752 
Q 3116 1113 3116 1747 
z
M 1159 2969 
Q 1341 3281 1617 3432 
Q 1894 3584 2278 3584 
Q 2916 3584 3314 3078 
Q 3713 2572 3713 1747 
Q 3713 922 3314 415 
Q 2916 -91 2278 -91 
Q 1894 -91 1617 61 
Q 1341 213 1159 525 
L 1159 0 
L 581 0 
L 581 4863 
L 1159 4863 
L 1159 2969 
z
" transform="scale(0.015625)"/>
      <path id="DejaVuSans-79" d="M 2059 -325 
Q 1816 -950 1584 -1140 
Q 1353 -1331 966 -1331 
L 506 -1331 
L 506 -850 
L 844 -850 
Q 1081 -850 1212 -737 
Q 1344 -625 1503 -206 
L 1606 56 
L 191 3500 
L 800 3500 
L 1894 763 
L 2988 3500 
L 3597 3500 
L 2059 -325 
z
" transform="scale(0.015625)"/>
      <path id="DejaVuSans-28" d="M 1984 4856 
Q 1566 4138 1362 3434 
Q 1159 2731 1159 2009 
Q 1159 1288 1364 580 
Q 1569 -128 1984 -844 
L 1484 -844 
Q 1016 -109 783 600 
Q 550 1309 550 2009 
Q 550 2706 781 3412 
Q 1013 4119 1484 4856 
L 1984 4856 
z
" transform="scale(0.015625)"/>
      <path id="DejaVuSans-73" d="M 2834 3397 
L 2834 2853 
Q 2591 2978 2328 3040 
Q 2066 3103 1784 3103 
Q 1356 3103 1142 2972 
Q 928 2841 928 2578 
Q 928 2378 1081 2264 
Q 1234 2150 1697 2047 
L 1894 2003 
Q 2506 1872 2764 1633 
Q 3022 1394 3022 966 
Q 3022 478 2636 193 
Q 2250 -91 1575 -91 
Q 1294 -91 989 -36 
Q 684 19 347 128 
L 347 722 
Q 666 556 975 473 
Q 1284 391 1588 391 
Q 1994 391 2212 530 
Q 2431 669 2431 922 
Q 2431 1156 2273 1281 
Q 2116 1406 1581 1522 
L 1381 1569 
Q 847 1681 609 1914 
Q 372 2147 372 2553 
Q 372 3047 722 3315 
Q 1072 3584 1716 3584 
Q 2034 3584 2315 3537 
Q 2597 3491 2834 3397 
z
" transform="scale(0.015625)"/>
      <path id="DejaVuSans-68" d="M 3513 2113 
L 3513 0 
L 2938 0 
L 2938 2094 
Q 2938 2591 2744 2837 
Q 2550 3084 2163 3084 
Q 1697 3084 1428 2787 
Q 1159 2491 1159 1978 
L 1159 0 
L 581 0 
L 581 4863 
L 1159 4863 
L 1159 2956 
Q 1366 3272 1645 3428 
Q 1925 3584 2291 3584 
Q 2894 3584 3203 3211 
Q 3513 2838 3513 2113 
z
" transform="scale(0.015625)"/>
      <path id="DejaVuSans-70" d="M 1159 525 
L 1159 -1331 
L 581 -1331 
L 581 3500 
L 1159 3500 
L 1159 2969 
Q 1341 3281 1617 3432 
Q 1894 3584 2278 3584 
Q 2916 3584 3314 3078 
Q 3713 2572 3713 1747 
Q 3713 922 3314 415 
Q 2916 -91 2278 -91 
Q 1894 -91 1617 61 
Q 1341 213 1159 525 
z
M 3116 1747 
Q 3116 2381 2855 2742 
Q 2594 3103 2138 3103 
Q 1681 3103 1420 2742 
Q 1159 2381 1159 1747 
Q 1159 1113 1420 752 
Q 1681 391 2138 391 
Q 2594 391 2855 752 
Q 3116 1113 3116 1747 
z
" transform="scale(0.015625)"/>
      <path id="DejaVuSans-29" d="M 513 4856 
L 1013 4856 
Q 1481 4119 1714 3412 
Q 1947 2706 1947 2009 
Q 1947 1309 1714 600 
Q 1481 -109 1013 -844 
L 513 -844 
Q 928 -128 1133 580 
Q 1338 1288 1338 2009 
Q 1338 2731 1133 3434 
Q 928 4138 513 4856 
z
" transform="scale(0.015625)"/>
      <path id="DejaVuSans-59" d="M -13 4666 
L 666 4666 
L 1959 2747 
L 3244 4666 
L 3922 4666 
L 2272 2222 
L 2272 0 
L 1638 0 
L 1638 2222 
L -13 4666 
z
" transform="scale(0.015625)"/>
      <path id="DejaVuSans-55" d="M 556 4666 
L 1191 4666 
L 1191 1831 
Q 1191 1081 1462 751 
Q 1734 422 2344 422 
Q 2950 422 3222 751 
Q 3494 1081 3494 1831 
L 3494 4666 
L 4128 4666 
L 4128 1753 
Q 4128 841 3676 375 
Q 3225 -91 2344 -91 
Q 1459 -91 1007 375 
Q 556 841 556 1753 
L 556 4666 
z
" transform="scale(0.015625)"/>
      <path id="DejaVuSans-3a" d="M 750 794 
L 1409 794 
L 1409 0 
L 750 0 
L 750 794 
z
M 750 3309 
L 1409 3309 
L 1409 2516 
L 750 2516 
L 750 3309 
z
" transform="scale(0.015625)"/>
     </defs>
     <use xlink:href="#DejaVuSans-56"/>
     <use xlink:href="#DejaVuSans-49" x="68.408203"/>
     <use xlink:href="#DejaVuSans-58" x="97.900391"/>
     <use xlink:href="#DejaVuSans-20" x="166.40625"/>
     <use xlink:href="#DejaVuSans-61" x="198.193359"/>
     <use xlink:href="#DejaVuSans-6e" x="259.472656"/>
     <use xlink:href="#DejaVuSans-64" x="322.851562"/>
     <use xlink:href="#DejaVuSans-20" x="386.328125"/>
     <use xlink:href="#DejaVuSans-43" x="418.115234"/>
     <use xlink:href="#DejaVuSans-75" x="487.939453"/>
     <use xlink:href="#DejaVuSans-6d" x="551.318359"/>
     <use xlink:href="#DejaVuSans-75" x="648.730469"/>
     <use xlink:href="#DejaVuSans-6c" x="712.109375"/>
     <use xlink:href="#DejaVuSans-61" x="739.892578"/>
     <use xlink:href="#DejaVuSans-74" x="801.171875"/>
     <use xlink:href="#DejaVuSans-69" x="840.380859"/>
     <use xlink:href="#DejaVuSans-76" x="868.164062"/>
     <use xlink:href="#DejaVuSans-65" x="927.34375"/>
     <use xlink:href="#DejaVuSans-20" x="988.867188"/>
     <use xlink:href="#DejaVuSans-50" x="1020.654297"/>
     <use xlink:href="#DejaVuSans-72" x="1079.207031"/>
     <use xlink:href="#DejaVuSans-6f" x="1118.070312"/>
     <use xlink:href="#DejaVuSans-62" x="1179.251953"/>
     <use xlink:href="#DejaVuSans-61" x="1242.728516"/>
     <use xlink:href="#DejaVuSans-62" x="1304.007812"/>
     <use xlink:href="#DejaVuSans-69" x="1367.484375"/>
     <use xlink:href="#DejaVuSans-6c" x="1395.267578"/>
     <use xlink:href="#DejaVuSans-69" x="1423.050781"/>
     <use xlink:href="#DejaVuSans-74" x="1450.833984"/>
     <use xlink:href="#DejaVuSans-79" x="1490.042969"/>
     <use xlink:href="#DejaVuSans-20" x="1549.222656"/>
     <use xlink:href="#DejaVuSans-49" x="1581.009766"/>
     <use xlink:href="#DejaVuSans-6e" x="1610.501953"/>
     <use xlink:href="#DejaVuSans-64" x="1673.880859"/>
     <use xlink:href="#DejaVuSans-69" x="1737.357422"/>
     <use xlink:href="#DejaVuSans-63" x="1765.140625"/>
     <use xlink:href="#DejaVuSans-61" x="1820.121094"/>
     <use xlink:href="#DejaVuSans-74" x="1881.400391"/>
     <use xlink:href="#DejaVuSans-6f" x="1920.609375"/>
     <use xlink:href="#DejaVuSans-72" x="1981.791016"/>
     <use xlink:href="#DejaVuSans-20" x="2022.904297"/>
     <use xlink:href="#DejaVuSans-28" x="2054.691406"/>
     <use xlink:href="#DejaVuSans-73" x="2093.705078"/>
     <use xlink:href="#DejaVuSans-6d" x="2145.804688"/>
     <use xlink:href="#DejaVuSans-6f" x="2243.216797"/>
     <use xlink:href="#DejaVuSans-6f" x="2304.398438"/>
     <use xlink:href="#DejaVuSans-74" x="2365.580078"/>
     <use xlink:href="#DejaVuSans-68" x="2404.789062"/>
     <use xlink:href="#DejaVuSans-65" x="2468.167969"/>
     <use xlink:href="#DejaVuSans-64" x="2529.691406"/>
     <use xlink:href="#DejaVuSans-20" x="2593.167969"/>
     <use xlink:href="#DejaVuSans-33" x="2624.955078"/>
     <use xlink:href="#DejaVuSans-30" x="2688.578125"/>
     <use xlink:href="#DejaVuSans-20" x="2752.201172"/>
     <use xlink:href="#DejaVuSans-70" x="2783.988281"/>
     <use xlink:href="#DejaVuSans-65" x="2847.464844"/>
     <use xlink:href="#DejaVuSans-72" x="2908.988281"/>
     <use xlink:href="#DejaVuSans-69" x="2950.101562"/>
     <use xlink:href="#DejaVuSans-6f" x="2977.884766"/>
     <use xlink:href="#DejaVuSans-64" x="3039.066406"/>
     <use xlink:href="#DejaVuSans-73" x="3102.542969"/>
     <use xlink:href="#DejaVuSans-29" x="3154.642578"/>
     <use xlink:href="#DejaVuSans-20" x="3193.65625"/>
     <use xlink:href="#DejaVuSans-2d" x="3225.443359"/>
     <use xlink:href="#DejaVuSans-20" x="3261.527344"/>
     <use xlink:href="#DejaVuSans-31" x="3293.314453"/>
     <use xlink:href="#DejaVuSans-59" x="3356.9375"/>
     <use xlink:href="#DejaVuSans-20" x="3418.021484"/>
     <use xlink:href="#DejaVuSans-28" x="3449.808594"/>
     <use xlink:href="#DejaVuSans-55" x="3488.822266"/>
     <use xlink:href="#DejaVuSans-70" x="3562.015625"/>
     <use xlink:href="#DejaVuSans-64" x="3625.492188"/>
     <use xlink:href="#DejaVuSans-61" x="3688.96875"/>
     <use xlink:href="#DejaVuSans-74" x="3750.248047"/>
     <use xlink:href="#DejaVuSans-65" x="3789.457031"/>
     <use xlink:href="#DejaVuSans-64" x="3850.980469"/>
     <use xlink:href="#DejaVuSans-20" x="3914.457031"/>
     <use xlink:href="#DejaVuSans-32" x="3946.244141"/>
     <use xlink:href="#DejaVuSans-30" x="4009.867188"/>
     <use xlink:href="#DejaVuSans-32" x="4073.490234"/>
     <use xlink:href="#DejaVuSans-34" x="4137.113281"/>
     <use xlink:href="#DejaVuSans-2d" x="4200.736328"/>
     <use xlink:href="#DejaVuSans-30" x="4236.820312"/>
     <use xlink:href="#DejaVuSans-33" x="4300.443359"/>
     <use xlink:href="#DejaVuSans-2d" x="4364.066406"/>
     <use xlink:href="#DejaVuSans-32" x="4400.150391"/>
     <use xlink:href="#DejaVuSans-31" x="4463.773438"/>
     <use xlink:href="#DejaVuSans-20" x="4527.396484"/>
     <use xlink:href="#DejaVuSans-30" x="4559.183594"/>
     <use xlink:href="#DejaVuSans-33" x="4622.806641"/>
     <use xlink:href="#DejaVuSans-3a" x="4686.429688"/>
     <use xlink:href="#DejaVuSans-33" x="4720.121094"/>
     <use xlink:href="#DejaVuSans-34" x="4783.744141"/>
     <use xlink:href="#DejaVuSans-3a" x="4847.367188"/>
     <use xlink:href="#DejaVuSans-35" x="4881.058594"/>
     <use xlink:href="#DejaVuSans-38" x="4944.681641"/>
     <use xlink:href="#DejaVuSans-29" x="5008.304688"/>
    </g>
   </g>
  </g>
  <g id="legend_1">
   <g id="patch_11">
    <path d="M 7 37.35625 
L 83.190625 37.35625 
Q 85.190625 37.35625 85.190625 35.35625 
L 85.190625 7 
Q 85.190625 5 83.190625 5 
L 7 5 
Q 5 5 5 7 
L 5 35.35625 
Q 5 37.35625 7 37.35625 
z
" style="fill: #ffffff; opacity: 0.8; stroke: #cccccc; stroke-linejoin: miter"/>
   </g>
   <g id="line2d_24">
    <path d="M 9 13.098437 
L 19 13.098437 
L 29 13.098437 
" style="fill: none; stroke: #0000ff; stroke-width: 1.5; stroke-linecap: square"/>
   </g>
   <g id="text_26">
    <!-- VIX -->
    <g transform="translate(37 16.598437) scale(0.1 -0.1)">
     <use xlink:href="#DejaVuSans-56"/>
     <use xlink:href="#DejaVuSans-49" x="68.408203"/>
     <use xlink:href="#DejaVuSans-58" x="97.900391"/>
    </g>
   </g>
   <g id="line2d_25">
    <path d="M 9 27.776563 
L 19 27.776563 
L 29 27.776563 
" style="fill: none; stroke: #ff0000; stroke-width: 1.5; stroke-linecap: square"/>
   </g>
   <g id="text_27">
    <!-- Indicator -->
    <g transform="translate(37 31.276563) scale(0.1 -0.1)">
     <use xlink:href="#DejaVuSans-49"/>
     <use xlink:href="#DejaVuSans-6e" x="29.492188"/>
     <use xlink:href="#DejaVuSans-64" x="92.871094"/>
     <use xlink:href="#DejaVuSans-69" x="156.347656"/>
     <use xlink:href="#DejaVuSans-63" x="184.130859"/>
     <use xlink:href="#DejaVuSans-61" x="239.111328"/>
     <use xlink:href="#DejaVuSans-74" x="300.390625"/>
     <use xlink:href="#DejaVuSans-6f" x="339.599609"/>
     <use xlink:href="#DejaVuSans-72" x="400.78125"/>
    </g>
   </g>
  </g>
 </g>
 <defs>
  <clipPath id="p132277049f">
   <rect x="162" y="34.56" width="1004.4" height="221.76"/>
  </clipPath>
 </defs>
</svg>
