<?xml version="1.0" encoding="utf-8" standalone="no"?>
<!DOCTYPE svg PUBLIC "-//W3C//DTD SVG 1.1//EN"
  "http://www.w3.org/Graphics/SVG/1.1/DTD/svg11.dtd">
<svg xmlns:xlink="http://www.w3.org/1999/xlink" width="1296pt" height="288pt" viewBox="0 0 1296 288" xmlns="http://www.w3.org/2000/svg" version="1.1">
 <metadata>
  <rdf:RDF xmlns:dc="http://purl.org/dc/elements/1.1/" xmlns:cc="http://creativecommons.org/ns#" xmlns:rdf="http://www.w3.org/1999/02/22-rdf-syntax-ns#">
   <cc:Work>
    <dc:type rdf:resource="http://purl.org/dc/dcmitype/StillImage"/>
    <dc:date>2024-03-24T05:47:22.075736</dc:date>
    <dc:format>image/svg+xml</dc:format>
    <dc:creator>
     <cc:Agent>
      <dc:title>Matplotlib v3.8.0, https://matplotlib.org/</dc:title>
     </cc:Agent>
    </dc:creator>
   </cc:Work>
  </rdf:RDF>
 </metadata>
 <defs>
  <style type="text/css">*{stroke-linejoin: round; stroke-linecap: butt}</style>
 </defs>
 <g id="figure_1">
  <g id="patch_1">
   <path d="M 0 288 
L 1296 288 
L 1296 0 
L 0 0 
z
" style="fill: #ffffff"/>
  </g>
  <g id="axes_1">
   <g id="patch_2">
    <path d="M 162 256.32 
L 1166.4 256.32 
L 1166.4 34.56 
L 162 34.56 
z
" style="fill: #ffffff"/>
   </g>
   <g id="matplotlib.axis_1">
    <g id="xtick_1">
     <g id="line2d_1">
      <defs>
       <path id="mf2896ae9a7" d="M 0 0 
L 0 3.5 
" style="stroke: #000000; stroke-width: 0.8"/>
      </defs>
      <g>
       <use xlink:href="#mf2896ae9a7" x="240.979031" y="256.32" style="stroke: #000000; stroke-width: 0.8"/>
      </g>
     </g>
     <g id="text_1">
      <!-- 2021-05 -->
      <g transform="translate(220.087625 270.918437) scale(0.1 -0.1)">
       <defs>
        <path id="DejaVuSans-32" d="M 1228 531 
L 3431 531 
L 3431 0 
L 469 0 
L 469 531 
Q 828 903 1448 1529 
Q 2069 2156 2228 2338 
Q 2531 2678 2651 2914 
Q 2772 3150 2772 3378 
Q 2772 3750 2511 3984 
Q 2250 4219 1831 4219 
Q 1534 4219 1204 4116 
Q 875 4013 500 3803 
L 500 4441 
Q 881 4594 1212 4672 
Q 1544 4750 1819 4750 
Q 2544 4750 2975 4387 
Q 3406 4025 3406 3419 
Q 3406 3131 3298 2873 
Q 3191 2616 2906 2266 
Q 2828 2175 2409 1742 
Q 1991 1309 1228 531 
z
" transform="scale(0.015625)"/>
        <path id="DejaVuSans-30" d="M 2034 4250 
Q 1547 4250 1301 3770 
Q 1056 3291 1056 2328 
Q 1056 1369 1301 889 
Q 1547 409 2034 409 
Q 2525 409 2770 889 
Q 3016 1369 3016 2328 
Q 3016 3291 2770 3770 
Q 2525 4250 2034 4250 
z
M 2034 4750 
Q 2819 4750 3233 4129 
Q 3647 3509 3647 2328 
Q 3647 1150 3233 529 
Q 2819 -91 2034 -91 
Q 1250 -91 836 529 
Q 422 1150 422 2328 
Q 422 3509 836 4129 
Q 1250 4750 2034 4750 
z
" transform="scale(0.015625)"/>
        <path id="DejaVuSans-31" d="M 794 531 
L 1825 531 
L 1825 4091 
L 703 3866 
L 703 4441 
L 1819 4666 
L 2450 4666 
L 2450 531 
L 3481 531 
L 3481 0 
L 794 0 
L 794 531 
z
" transform="scale(0.015625)"/>
        <path id="DejaVuSans-2d" d="M 313 2009 
L 1997 2009 
L 1997 1497 
L 313 1497 
L 313 2009 
z
" transform="scale(0.015625)"/>
        <path id="DejaVuSans-35" d="M 691 4666 
L 3169 4666 
L 3169 4134 
L 1269 4134 
L 1269 2991 
Q 1406 3038 1543 3061 
Q 1681 3084 1819 3084 
Q 2600 3084 3056 2656 
Q 3513 2228 3513 1497 
Q 3513 744 3044 326 
Q 2575 -91 1722 -91 
Q 1428 -91 1123 -41 
Q 819 9 494 109 
L 494 744 
Q 775 591 1075 516 
Q 1375 441 1709 441 
Q 2250 441 2565 725 
Q 2881 1009 2881 1497 
Q 2881 1984 2565 2268 
Q 2250 2553 1709 2553 
Q 1456 2553 1204 2497 
Q 953 2441 691 2322 
L 691 4666 
z
" transform="scale(0.015625)"/>
       </defs>
       <use xlink:href="#DejaVuSans-32"/>
       <use xlink:href="#DejaVuSans-30" x="63.623047"/>
       <use xlink:href="#DejaVuSans-32" x="127.246094"/>
       <use xlink:href="#DejaVuSans-31" x="190.869141"/>
       <use xlink:href="#DejaVuSans-2d" x="254.492188"/>
       <use xlink:href="#DejaVuSans-30" x="290.576172"/>
       <use xlink:href="#DejaVuSans-35" x="354.199219"/>
      </g>
     </g>
    </g>
    <g id="xtick_2">
     <g id="line2d_2">
      <g>
       <use xlink:href="#mf2896ae9a7" x="343.451825" y="256.32" style="stroke: #000000; stroke-width: 0.8"/>
      </g>
     </g>
     <g id="text_2">
      <!-- 2021-09 -->
      <g transform="translate(322.560419 270.918437) scale(0.1 -0.1)">
       <defs>
        <path id="DejaVuSans-39" d="M 703 97 
L 703 672 
Q 941 559 1184 500 
Q 1428 441 1663 441 
Q 2288 441 2617 861 
Q 2947 1281 2994 2138 
Q 2813 1869 2534 1725 
Q 2256 1581 1919 1581 
Q 1219 1581 811 2004 
Q 403 2428 403 3163 
Q 403 3881 828 4315 
Q 1253 4750 1959 4750 
Q 2769 4750 3195 4129 
Q 3622 3509 3622 2328 
Q 3622 1225 3098 567 
Q 2575 -91 1691 -91 
Q 1453 -91 1209 -44 
Q 966 3 703 97 
z
M 1959 2075 
Q 2384 2075 2632 2365 
Q 2881 2656 2881 3163 
Q 2881 3666 2632 3958 
Q 2384 4250 1959 4250 
Q 1534 4250 1286 3958 
Q 1038 3666 1038 3163 
Q 1038 2656 1286 2365 
Q 1534 2075 1959 2075 
z
" transform="scale(0.015625)"/>
       </defs>
       <use xlink:href="#DejaVuSans-32"/>
       <use xlink:href="#DejaVuSans-30" x="63.623047"/>
       <use xlink:href="#DejaVuSans-32" x="127.246094"/>
       <use xlink:href="#DejaVuSans-31" x="190.869141"/>
       <use xlink:href="#DejaVuSans-2d" x="254.492188"/>
       <use xlink:href="#DejaVuSans-30" x="290.576172"/>
       <use xlink:href="#DejaVuSans-39" x="354.199219"/>
      </g>
     </g>
    </g>
    <g id="xtick_3">
     <g id="line2d_3">
      <g>
       <use xlink:href="#mf2896ae9a7" x="445.126219" y="256.32" style="stroke: #000000; stroke-width: 0.8"/>
      </g>
     </g>
     <g id="text_3">
      <!-- 2022-01 -->
      <g transform="translate(424.234813 270.918437) scale(0.1 -0.1)">
       <use xlink:href="#DejaVuSans-32"/>
       <use xlink:href="#DejaVuSans-30" x="63.623047"/>
       <use xlink:href="#DejaVuSans-32" x="127.246094"/>
       <use xlink:href="#DejaVuSans-32" x="190.869141"/>
       <use xlink:href="#DejaVuSans-2d" x="254.492188"/>
       <use xlink:href="#DejaVuSans-30" x="290.576172"/>
       <use xlink:href="#DejaVuSans-31" x="354.199219"/>
      </g>
     </g>
    </g>
    <g id="xtick_4">
     <g id="line2d_4">
      <g>
       <use xlink:href="#mf2896ae9a7" x="545.064964" y="256.32" style="stroke: #000000; stroke-width: 0.8"/>
      </g>
     </g>
     <g id="text_4">
      <!-- 2022-05 -->
      <g transform="translate(524.173557 270.918437) scale(0.1 -0.1)">
       <use xlink:href="#DejaVuSans-32"/>
       <use xlink:href="#DejaVuSans-30" x="63.623047"/>
       <use xlink:href="#DejaVuSans-32" x="127.246094"/>
       <use xlink:href="#DejaVuSans-32" x="190.869141"/>
       <use xlink:href="#DejaVuSans-2d" x="254.492188"/>
       <use xlink:href="#DejaVuSans-30" x="290.576172"/>
       <use xlink:href="#DejaVuSans-35" x="354.199219"/>
      </g>
     </g>
    </g>
    <g id="xtick_5">
     <g id="line2d_5">
      <g>
       <use xlink:href="#mf2896ae9a7" x="647.537757" y="256.32" style="stroke: #000000; stroke-width: 0.8"/>
      </g>
     </g>
     <g id="text_5">
      <!-- 2022-09 -->
      <g transform="translate(626.646351 270.918437) scale(0.1 -0.1)">
       <use xlink:href="#DejaVuSans-32"/>
       <use xlink:href="#DejaVuSans-30" x="63.623047"/>
       <use xlink:href="#DejaVuSans-32" x="127.246094"/>
       <use xlink:href="#DejaVuSans-32" x="190.869141"/>
       <use xlink:href="#DejaVuSans-2d" x="254.492188"/>
       <use xlink:href="#DejaVuSans-30" x="290.576172"/>
       <use xlink:href="#DejaVuSans-39" x="354.199219"/>
      </g>
     </g>
    </g>
    <g id="xtick_6">
     <g id="line2d_6">
      <g>
       <use xlink:href="#mf2896ae9a7" x="749.212152" y="256.32" style="stroke: #000000; stroke-width: 0.8"/>
      </g>
     </g>
     <g id="text_6">
      <!-- 2023-01 -->
      <g transform="translate(728.320745 270.918437) scale(0.1 -0.1)">
       <defs>
        <path id="DejaVuSans-33" d="M 2597 2516 
Q 3050 2419 3304 2112 
Q 3559 1806 3559 1356 
Q 3559 666 3084 287 
Q 2609 -91 1734 -91 
Q 1441 -91 1130 -33 
Q 819 25 488 141 
L 488 750 
Q 750 597 1062 519 
Q 1375 441 1716 441 
Q 2309 441 2620 675 
Q 2931 909 2931 1356 
Q 2931 1769 2642 2001 
Q 2353 2234 1838 2234 
L 1294 2234 
L 1294 2753 
L 1863 2753 
Q 2328 2753 2575 2939 
Q 2822 3125 2822 3475 
Q 2822 3834 2567 4026 
Q 2313 4219 1838 4219 
Q 1578 4219 1281 4162 
Q 984 4106 628 3988 
L 628 4550 
Q 988 4650 1302 4700 
Q 1616 4750 1894 4750 
Q 2613 4750 3031 4423 
Q 3450 4097 3450 3541 
Q 3450 3153 3228 2886 
Q 3006 2619 2597 2516 
z
" transform="scale(0.015625)"/>
       </defs>
       <use xlink:href="#DejaVuSans-32"/>
       <use xlink:href="#DejaVuSans-30" x="63.623047"/>
       <use xlink:href="#DejaVuSans-32" x="127.246094"/>
       <use xlink:href="#DejaVuSans-33" x="190.869141"/>
       <use xlink:href="#DejaVuSans-2d" x="254.492188"/>
       <use xlink:href="#DejaVuSans-30" x="290.576172"/>
       <use xlink:href="#DejaVuSans-31" x="354.199219"/>
      </g>
     </g>
    </g>
    <g id="xtick_7">
     <g id="line2d_7">
      <g>
       <use xlink:href="#mf2896ae9a7" x="849.150896" y="256.32" style="stroke: #000000; stroke-width: 0.8"/>
      </g>
     </g>
     <g id="text_7">
      <!-- 2023-05 -->
      <g transform="translate(828.25949 270.918437) scale(0.1 -0.1)">
       <use xlink:href="#DejaVuSans-32"/>
       <use xlink:href="#DejaVuSans-30" x="63.623047"/>
       <use xlink:href="#DejaVuSans-32" x="127.246094"/>
       <use xlink:href="#DejaVuSans-33" x="190.869141"/>
       <use xlink:href="#DejaVuSans-2d" x="254.492188"/>
       <use xlink:href="#DejaVuSans-30" x="290.576172"/>
       <use xlink:href="#DejaVuSans-35" x="354.199219"/>
      </g>
     </g>
    </g>
    <g id="xtick_8">
     <g id="line2d_8">
      <g>
       <use xlink:href="#mf2896ae9a7" x="951.623689" y="256.32" style="stroke: #000000; stroke-width: 0.8"/>
      </g>
     </g>
     <g id="text_8">
      <!-- 2023-09 -->
      <g transform="translate(930.732283 270.918437) scale(0.1 -0.1)">
       <use xlink:href="#DejaVuSans-32"/>
       <use xlink:href="#DejaVuSans-30" x="63.623047"/>
       <use xlink:href="#DejaVuSans-32" x="127.246094"/>
       <use xlink:href="#DejaVuSans-33" x="190.869141"/>
       <use xlink:href="#DejaVuSans-2d" x="254.492188"/>
       <use xlink:href="#DejaVuSans-30" x="290.576172"/>
       <use xlink:href="#DejaVuSans-39" x="354.199219"/>
      </g>
     </g>
    </g>
    <g id="xtick_9">
     <g id="line2d_9">
      <g>
       <use xlink:href="#mf2896ae9a7" x="1053.298084" y="256.32" style="stroke: #000000; stroke-width: 0.8"/>
      </g>
     </g>
     <g id="text_9">
      <!-- 2024-01 -->
      <g transform="translate(1032.406678 270.918437) scale(0.1 -0.1)">
       <defs>
        <path id="DejaVuSans-34" d="M 2419 4116 
L 825 1625 
L 2419 1625 
L 2419 4116 
z
M 2253 4666 
L 3047 4666 
L 3047 1625 
L 3713 1625 
L 3713 1100 
L 3047 1100 
L 3047 0 
L 2419 0 
L 2419 1100 
L 313 1100 
L 313 1709 
L 2253 4666 
z
" transform="scale(0.015625)"/>
       </defs>
       <use xlink:href="#DejaVuSans-32"/>
       <use xlink:href="#DejaVuSans-30" x="63.623047"/>
       <use xlink:href="#DejaVuSans-32" x="127.246094"/>
       <use xlink:href="#DejaVuSans-34" x="190.869141"/>
       <use xlink:href="#DejaVuSans-2d" x="254.492188"/>
       <use xlink:href="#DejaVuSans-30" x="290.576172"/>
       <use xlink:href="#DejaVuSans-31" x="354.199219"/>
      </g>
     </g>
    </g>
    <g id="xtick_10">
     <g id="line2d_10">
      <g>
       <use xlink:href="#mf2896ae9a7" x="1154.06994" y="256.32" style="stroke: #000000; stroke-width: 0.8"/>
      </g>
     </g>
     <g id="text_10">
      <!-- 2024-05 -->
      <g transform="translate(1133.178534 270.918437) scale(0.1 -0.1)">
       <use xlink:href="#DejaVuSans-32"/>
       <use xlink:href="#DejaVuSans-30" x="63.623047"/>
       <use xlink:href="#DejaVuSans-32" x="127.246094"/>
       <use xlink:href="#DejaVuSans-34" x="190.869141"/>
       <use xlink:href="#DejaVuSans-2d" x="254.492188"/>
       <use xlink:href="#DejaVuSans-30" x="290.576172"/>
       <use xlink:href="#DejaVuSans-35" x="354.199219"/>
      </g>
     </g>
    </g>
    <g id="text_11">
     <!-- Date -->
     <g transform="translate(652.249219 284.596563) scale(0.1 -0.1)">
      <defs>
       <path id="DejaVuSans-44" d="M 1259 4147 
L 1259 519 
L 2022 519 
Q 2988 519 3436 956 
Q 3884 1394 3884 2338 
Q 3884 3275 3436 3711 
Q 2988 4147 2022 4147 
L 1259 4147 
z
M 628 4666 
L 1925 4666 
Q 3281 4666 3915 4102 
Q 4550 3538 4550 2338 
Q 4550 1131 3912 565 
Q 3275 0 1925 0 
L 628 0 
L 628 4666 
z
" transform="scale(0.015625)"/>
       <path id="DejaVuSans-61" d="M 2194 1759 
Q 1497 1759 1228 1600 
Q 959 1441 959 1056 
Q 959 750 1161 570 
Q 1363 391 1709 391 
Q 2188 391 2477 730 
Q 2766 1069 2766 1631 
L 2766 1759 
L 2194 1759 
z
M 3341 1997 
L 3341 0 
L 2766 0 
L 2766 531 
Q 2569 213 2275 61 
Q 1981 -91 1556 -91 
Q 1019 -91 701 211 
Q 384 513 384 1019 
Q 384 1609 779 1909 
Q 1175 2209 1959 2209 
L 2766 2209 
L 2766 2266 
Q 2766 2663 2505 2880 
Q 2244 3097 1772 3097 
Q 1472 3097 1187 3025 
Q 903 2953 641 2809 
L 641 3341 
Q 956 3463 1253 3523 
Q 1550 3584 1831 3584 
Q 2591 3584 2966 3190 
Q 3341 2797 3341 1997 
z
" transform="scale(0.015625)"/>
       <path id="DejaVuSans-74" d="M 1172 4494 
L 1172 3500 
L 2356 3500 
L 2356 3053 
L 1172 3053 
L 1172 1153 
Q 1172 725 1289 603 
Q 1406 481 1766 481 
L 2356 481 
L 2356 0 
L 1766 0 
Q 1100 0 847 248 
Q 594 497 594 1153 
L 594 3053 
L 172 3053 
L 172 3500 
L 594 3500 
L 594 4494 
L 1172 4494 
z
" transform="scale(0.015625)"/>
       <path id="DejaVuSans-65" d="M 3597 1894 
L 3597 1613 
L 953 1613 
Q 991 1019 1311 708 
Q 1631 397 2203 397 
Q 2534 397 2845 478 
Q 3156 559 3463 722 
L 3463 178 
Q 3153 47 2828 -22 
Q 2503 -91 2169 -91 
Q 1331 -91 842 396 
Q 353 884 353 1716 
Q 353 2575 817 3079 
Q 1281 3584 2069 3584 
Q 2775 3584 3186 3129 
Q 3597 2675 3597 1894 
z
M 3022 2063 
Q 3016 2534 2758 2815 
Q 2500 3097 2075 3097 
Q 1594 3097 1305 2825 
Q 1016 2553 972 2059 
L 3022 2063 
z
" transform="scale(0.015625)"/>
      </defs>
      <use xlink:href="#DejaVuSans-44"/>
      <use xlink:href="#DejaVuSans-61" x="77.001953"/>
      <use xlink:href="#DejaVuSans-74" x="138.28125"/>
      <use xlink:href="#DejaVuSans-65" x="177.490234"/>
     </g>
    </g>
   </g>
   <g id="matplotlib.axis_2">
    <g id="ytick_1">
     <g id="line2d_11">
      <defs>
       <path id="m59777712a6" d="M 0 0 
L -3.5 0 
" style="stroke: #0000ff; stroke-width: 0.8"/>
      </defs>
      <g>
       <use xlink:href="#m59777712a6" x="162" y="222.011615" style="fill: #0000ff; stroke: #0000ff; stroke-width: 0.8"/>
      </g>
     </g>
     <g id="text_12">
      <!-- 15 -->
      <g style="fill: #0000ff" transform="translate(142.275 225.810833) scale(0.1 -0.1)">
       <use xlink:href="#DejaVuSans-31"/>
       <use xlink:href="#DejaVuSans-35" x="63.623047"/>
      </g>
     </g>
    </g>
    <g id="ytick_2">
     <g id="line2d_12">
      <g>
       <use xlink:href="#m59777712a6" x="162" y="180.666251" style="fill: #0000ff; stroke: #0000ff; stroke-width: 0.8"/>
      </g>
     </g>
     <g id="text_13">
      <!-- 20 -->
      <g style="fill: #0000ff" transform="translate(142.275 184.46547) scale(0.1 -0.1)">
       <use xlink:href="#DejaVuSans-32"/>
       <use xlink:href="#DejaVuSans-30" x="63.623047"/>
      </g>
     </g>
    </g>
    <g id="ytick_3">
     <g id="line2d_13">
      <g>
       <use xlink:href="#m59777712a6" x="162" y="139.320888" style="fill: #0000ff; stroke: #0000ff; stroke-width: 0.8"/>
      </g>
     </g>
     <g id="text_14">
      <!-- 25 -->
      <g style="fill: #0000ff" transform="translate(142.275 143.120107) scale(0.1 -0.1)">
       <use xlink:href="#DejaVuSans-32"/>
       <use xlink:href="#DejaVuSans-35" x="63.623047"/>
      </g>
     </g>
    </g>
    <g id="ytick_4">
     <g id="line2d_14">
      <g>
       <use xlink:href="#m59777712a6" x="162" y="97.975525" style="fill: #0000ff; stroke: #0000ff; stroke-width: 0.8"/>
      </g>
     </g>
     <g id="text_15">
      <!-- 30 -->
      <g style="fill: #0000ff" transform="translate(142.275 101.774744) scale(0.1 -0.1)">
       <use xlink:href="#DejaVuSans-33"/>
       <use xlink:href="#DejaVuSans-30" x="63.623047"/>
      </g>
     </g>
    </g>
    <g id="ytick_5">
     <g id="line2d_15">
      <g>
       <use xlink:href="#m59777712a6" x="162" y="56.630162" style="fill: #0000ff; stroke: #0000ff; stroke-width: 0.8"/>
      </g>
     </g>
     <g id="text_16">
      <!-- 35 -->
      <g style="fill: #0000ff" transform="translate(142.275 60.42938) scale(0.1 -0.1)">
       <use xlink:href="#DejaVuSans-33"/>
       <use xlink:href="#DejaVuSans-35" x="63.623047"/>
      </g>
     </g>
    </g>
    <g id="text_17">
     <!-- VIX -->
     <g style="fill: #0000ff" transform="translate(136.195312 153.760312) rotate(-90) scale(0.1 -0.1)">
      <defs>
       <path id="DejaVuSans-56" d="M 1831 0 
L 50 4666 
L 709 4666 
L 2188 738 
L 3669 4666 
L 4325 4666 
L 2547 0 
L 1831 0 
z
" transform="scale(0.015625)"/>
       <path id="DejaVuSans-49" d="M 628 4666 
L 1259 4666 
L 1259 0 
L 628 0 
L 628 4666 
z
" transform="scale(0.015625)"/>
       <path id="DejaVuSans-58" d="M 403 4666 
L 1081 4666 
L 2241 2931 
L 3406 4666 
L 4084 4666 
L 2584 2425 
L 4184 0 
L 3506 0 
L 2194 1984 
L 872 0 
L 191 0 
L 1856 2491 
L 403 4666 
z
" transform="scale(0.015625)"/>
      </defs>
      <use xlink:href="#DejaVuSans-56"/>
      <use xlink:href="#DejaVuSans-49" x="68.408203"/>
      <use xlink:href="#DejaVuSans-58" x="97.900391"/>
     </g>
    </g>
   </g>
   <g id="line2d_16">
    <path d="M 207.654545 189.92762 
L 208.487658 178.185536 
L 209.32077 170.743358 
L 210.153882 182.23738 
L 210.986994 190.092989 
L 213.48633 174.54714 
L 214.319443 183.891185 
L 215.152555 185.627698 
L 215.985667 202.744676 
L 219.318115 197.948614 
L 220.151228 196.212101 
L 220.98434 204.150419 
L 221.817452 205.886917 
L 222.650564 208.036877 
L 225.1499 206.217687 
L 225.983013 208.367648 
L 226.816125 205.556162 
L 227.649237 209.029173 
L 228.482349 211.675274 
L 230.981685 203.075431 
L 231.814798 191.581425 
L 232.64791 201.338933 
L 233.481022 191.333363 
L 234.314134 202.744676 
L 236.81347 200.181268 
L 237.646583 200.842793 
L 238.479695 203.158123 
L 239.312807 200.42933 
L 240.145919 192.160257 
L 242.645255 194.640989 
L 243.478368 184.966173 
L 244.31148 187.694966 
L 245.144592 193.979463 
L 245.977704 208.036877 
L 248.47704 183.477737 
L 249.310153 165.451156 
L 250.143265 117.903989 
L 251.809489 190.506452 
L 254.308825 182.981597 
L 255.141938 169.585693 
L 255.97505 162.63967 
L 256.808162 175.125972 
L 257.641274 179.425894 
L 260.14061 193.896771 
L 260.973723 190.258374 
L 261.806835 202.496598 
L 262.639947 207.62343 
L 263.473059 207.458045 
L 266.805508 198.031307 
L 267.63862 201.504318 
L 268.471732 196.873626 
L 269.304844 210.269531 
L 271.80418 210.269531 
L 272.637293 204.894637 
L 273.470405 198.114 
L 274.303517 212.915632 
L 275.136629 216.636721 
L 277.635965 210.517609 
L 278.469078 205.308084 
L 279.30219 195.964039 
L 280.135302 199.271665 
L 280.968414 174.877894 
L 283.46775 198.114 
L 284.300863 208.284955 
L 286.800199 216.884791 
L 289.299536 215.727118 
L 290.132648 213.577157 
L 290.96576 215.148285 
L 291.798872 218.042464 
L 292.631984 221.432782 
L 295.964433 210.104146 
L 296.797545 212.088721 
L 297.630657 188.935324 
L 298.463769 212.254106 
L 300.963106 212.336799 
L 301.796218 204.481174 
L 302.62933 211.013749 
L 303.462442 205.390777 
L 304.295554 193.483308 
L 306.794891 159.99357 
L 307.628003 182.898905 
L 308.461115 197.948614 
L 309.294227 199.767805 
L 310.127339 203.819648 
L 312.626676 200.677408 
L 313.459788 185.958453 
L 314.2929 194.640989 
L 315.126012 199.685112 
L 315.959124 195.219821 
L 318.458461 185.131558 
L 319.291573 196.873626 
L 320.124685 197.452475 
L 320.957797 203.158123 
L 321.790909 212.502184 
L 324.290246 207.788815 
L 325.123358 207.209967 
L 326.789582 217.13286 
L 327.622694 218.290534 
L 330.122031 212.750246 
L 330.955143 197.948614 
L 331.788255 167.68381 
L 332.621367 166.856899 
L 333.454479 192.57372 
L 335.953816 204.233112 
L 336.786928 203.654279 
L 337.62004 207.209967 
L 338.453152 190.258374 
L 339.286264 210.517609 
L 341.785601 212.171414 
L 342.618713 209.773391 
L 343.451825 212.832939 
L 344.284937 210.352223 
L 345.118049 210.352223 
L 348.450498 196.046732 
L 349.28361 197.535167 
L 350.116722 190.589145 
L 350.949834 172.810626 
L 353.449171 185.87576 
L 354.282283 185.131558 
L 355.115395 195.715961 
L 355.948507 191.498732 
L 356.781619 173.968307 
L 359.280956 133.449854 
L 360.114068 144.61309 
L 360.94718 173.472151 
L 361.780292 191.994888 
L 362.613404 199.271665 
L 365.112741 190.9199 
L 365.945853 153.791765 
L 366.778965 159.49743 
L 367.612077 154.701368 
L 368.445189 171.570268 
L 370.944526 156.189804 
L 371.777638 169.916463 
L 372.61075 172.397179 
L 373.443862 184.470017 
L 374.276974 190.837207 
L 376.776311 180.666251 
L 377.609423 181.906609 
L 378.442535 191.912195 
L 379.275647 206.631134 
L 380.108759 211.261826 
L 382.608096 211.179134 
L 383.441208 216.223265 
L 384.27432 217.959771 
L 385.107432 221.928922 
L 385.940544 218.455911 
L 388.439881 220.027039 
L 389.272993 213.907927 
L 390.106105 205.638855 
L 390.939217 209.359928 
L 391.772329 211.592581 
L 394.271666 210.352223 
L 395.104778 213.494464 
L 395.93789 221.184704 
L 396.771002 218.373226 
L 397.604114 209.773391 
L 400.138164 203.654279 
L 400.971276 199.023587 
L 401.804388 191.167977 
L 402.6375 200.015883 
L 403.470612 211.344503 
L 405.969949 209.690698 
L 406.803061 210.682978 
L 407.636173 204.563866 
L 408.469285 200.594715 
L 409.302397 197.948614 
L 411.801734 187.529581 
L 412.634846 185.793083 
L 413.467958 192.408335 
L 415.134182 109.386838 
L 417.633519 156.189804 
L 419.299743 88.714157 
L 420.132855 114.927118 
L 420.965967 92.435246 
L 423.465304 121.294307 
L 424.298416 165.037709 
L 425.131528 181.493162 
L 425.96464 167.601117 
L 426.797752 191.498732 
L 429.297089 178.102843 
L 430.130201 165.037709 
L 430.963313 186.537285 
L 431.796425 175.952882 
L 432.629537 167.68381 
L 435.128874 156.934006 
L 435.961986 172.314486 
L 436.795098 191.994888 
L 437.62821 197.535167 
L 440.960659 199.850497 
L 441.793771 201.008163 
L 442.626883 205.886917 
L 443.459995 202.744676 
L 444.293107 203.654279 
L 446.792444 208.781095 
L 447.625556 206.217687 
L 448.458668 182.898905 
L 449.29178 183.891185 
L 450.124892 190.9199 
L 452.624229 185.627698 
L 453.457341 193.814078 
L 454.290453 200.346637 
L 455.123565 178.102843 
L 455.956677 187.364196 
L 459.289126 157.595531 
L 460.122238 148.830319 
L 460.95535 134.442134 
L 461.788462 107.484955 
L 464.287799 98.802435 
L 465.120911 88.383402 
L 465.954023 81.76815 
L 466.787135 93.923681 
L 467.620247 117.325156 
L 470.119584 140.726631 
L 470.952696 164.458877 
L 471.785808 163.383888 
L 472.61892 144.695782 
L 473.452032 154.039843 
L 475.951369 157.016699 
L 477.617593 180.997022 
L 479.283817 119.805872 
L 481.783154 111.784877 
L 482.616266 133.532531 
L 483.449378 145.191922 
L 484.28249 113.604067 
L 485.115602 116.580938 
L 488.448051 107.815726 
L 489.281163 89.541067 
L 490.114275 95.329424 
L 490.947387 117.903989 
L 493.446724 96.735167 
L 494.279836 70.522206 
L 495.112948 91.856413 
L 495.94606 94.006374 
L 499.278509 44.64 
L 500.111621 55.555173 
L 500.944733 77.716291 
L 501.777845 96.073642 
L 502.610957 91.77372 
L 505.075581 83.339263 
L 505.908693 99.381268 
L 506.741805 125.511536 
L 507.574917 133.780609 
L 508.408029 148.664933 
L 510.907366 151.476419 
L 511.740478 156.355173 
L 512.57359 151.145665 
L 513.406702 166.856899 
L 514.239814 173.968307 
L 516.739151 183.725815 
L 517.572263 189.762234 
L 518.405375 186.206531 
L 519.238487 176.035575 
L 520.071599 183.725815 
L 522.570936 192.491028 
L 523.404048 172.149101 
L 524.23716 163.301196 
L 525.070272 167.849195 
L 525.903384 171.074128 
L 528.402721 144.530397 
L 529.235833 145.44 
L 530.068945 165.616542 
L 530.902057 158.339749 
L 534.234506 162.722363 
L 535.067618 169.337615 
L 535.90073 178.020151 
L 536.733842 158.505134 
L 537.566954 112.777173 
L 540.066291 122.617358 
L 540.899403 68.868385 
L 541.732515 84.745005 
L 542.565627 98.058218 
L 543.398739 69.860665 
L 545.898076 78.625894 
L 546.731188 104.177329 
L 547.5643 135.847877 
L 548.397412 88.052631 
L 549.230524 96.404397 
L 551.729861 58.69743 
L 552.562973 73.250984 
L 553.396085 76.806688 
L 554.229197 83.339263 
L 555.062309 107.31957 
L 557.561646 118.896284 
L 558.394758 130.224905 
L 559.22787 90.037223 
L 560.060982 103.350419 
L 560.894094 102.688894 
L 563.393431 110.544519 
L 564.226543 102.523509 
L 565.059655 111.454106 
L 565.892767 118.648207 
L 566.725879 133.367162 
L 570.058328 129.480687 
L 570.89144 133.615224 
L 571.724552 141.636234 
L 572.557664 141.057386 
L 575.057001 138.742056 
L 575.890113 147.424576 
L 576.723225 147.920731 
L 577.556337 130.307598 
L 578.389449 116.580938 
L 580.888786 64.733849 
L 581.721898 75.731731 
L 582.55501 101.117766 
L 583.388122 73.581754 
L 584.221234 88.63148 
L 587.553683 96.404397 
L 588.386795 106.658045 
L 589.219907 105.83115 
L 590.053019 120.88086 
L 592.552356 123.19619 
L 593.385468 111.536799 
L 594.21858 113.19062 
L 595.051692 108.642636 
L 595.884804 125.263458 
L 599.217253 118.317436 
L 600.050365 125.015396 
L 600.883477 130.39029 
L 601.716589 142.297759 
L 604.215926 129.646073 
L 605.049038 120.384704 
L 606.715262 127.74419 
L 607.548374 145.688078 
L 610.047711 136.840173 
L 610.880823 143.455424 
L 611.713935 148.582256 
L 612.547047 154.94943 
L 613.380159 155.610956 
L 615.879496 152.882162 
L 616.712608 141.884296 
L 617.54572 153.874458 
L 619.211944 169.668385 
L 621.711281 157.182084 
L 622.544393 148.168793 
L 623.377505 164.541553 
L 624.210617 168.758782 
L 625.043729 171.156821 
L 627.543066 169.99914 
L 628.376178 166.029989 
L 629.20929 182.816212 
L 630.042402 179.012431 
L 630.875514 184.55271 
L 633.374851 181.079699 
L 634.207963 183.229659 
L 635.041075 181.493162 
L 635.874187 184.304648 
L 639.206636 149.243782 
L 640.039748 146.680358 
L 640.87286 157.347469 
L 641.705972 165.947296 
L 642.539084 134.690212 
L 645.038421 129.315318 
L 645.871533 129.315318 
L 647.537757 134.690212 
L 648.370869 135.43443 
L 651.703318 123.526961 
L 652.53643 142.297759 
L 653.369542 150.814894 
L 654.202654 157.595531 
L 656.701991 148.664933 
L 657.535103 120.550089 
L 658.368215 129.728765 
L 659.201327 128.819162 
L 660.034439 128.5711 
L 662.533776 133.036391 
L 663.366888 121.459692 
L 664.2 114.596363 
L 665.033112 119.888564 
L 665.866224 98.63705 
L 668.365561 79.287435 
L 669.198673 76.475949 
L 670.031785 96.487089 
L 670.864897 82.76043 
L 671.698009 84.57962 
L 674.197346 97.148614 
L 675.030458 105.665765 
L 675.86357 109.965687 
L 676.696682 93.675603 
L 677.529794 86.729581 
L 680.029131 77.716291 
L 680.862243 67.958782 
L 681.695355 68.454938 
L 682.528467 81.93352 
L 683.361579 81.271994 
L 685.860916 86.646888 
L 686.694028 93.840989 
L 687.52714 91.691028 
L 688.360252 98.14091 
L 689.193364 100.538933 
L 691.692701 99.215883 
L 692.525813 110.709904 
L 693.358925 120.467397 
L 694.192037 119.55781 
L 695.025149 133.119084 
L 697.524486 132.044111 
L 698.357598 132.622944 
L 699.19071 132.209481 
L 700.023822 136.840173 
L 700.856934 143.041977 
L 703.390984 144.695782 
L 704.224096 134.855581 
L 705.057208 130.307598 
L 705.89032 151.476419 
L 706.723432 159.828185 
L 709.222769 149.822614 
L 710.055881 143.124654 
L 710.888993 146.680358 
L 711.722105 148.168793 
L 712.555217 154.866738 
L 715.054554 161.151235 
L 716.720778 177.772073 
L 718.387002 176.531715 
L 720.886339 162.391608 
L 721.719451 165.037709 
L 722.552563 175.87019 
L 724.218787 188.439184 
L 726.718124 174.464447 
L 727.551236 162.722363 
L 728.384348 158.505134 
L 729.21746 161.730067 
L 730.050572 157.264776 
L 732.549909 139.320888 
L 733.383021 159.580122 
L 734.216133 171.239514 
L 735.049245 157.264776 
L 735.882357 159.001274 
L 738.381694 160.655095 
L 739.214806 168.428028 
L 740.047918 180.087419 
L 740.88103 164.376184 
L 741.714142 173.472151 
L 745.046591 167.022285 
L 745.879703 162.970441 
L 746.712815 168.758782 
L 747.545927 166.856899 
L 750.878376 156.685944 
L 751.711488 164.045413 
L 752.5446 160.32434 
L 753.377712 171.322206 
L 755.877049 164.376184 
L 756.710161 175.87019 
L 757.543273 171.652961 
L 758.376385 190.341067 
L 759.209497 194.310218 
L 762.541946 185.958453 
L 763.375058 177.854765 
L 764.20817 176.36633 
L 765.041282 181.906609 
L 767.540619 182.23738 
L 768.373731 187.281503 
L 769.206843 188.273799 
L 770.039955 191.167977 
L 770.873067 192.987168 
L 773.372404 181.162391 
L 774.205516 185.627698 
L 775.038628 198.279369 
L 775.87174 191.167977 
L 776.704852 194.475603 
L 779.204189 185.37962 
L 780.037301 191.74681 
L 781.703525 174.795217 
L 782.536637 176.283637 
L 785.035974 177.854765 
L 785.869086 189.679542 
L 786.702198 195.302514 
L 787.53531 179.260508 
L 788.368422 180.500866 
L 791.700871 156.934006 
L 792.533983 161.730067 
L 793.367095 171.239514 
L 794.200207 166.856899 
L 797.532656 174.877894 
L 798.365768 175.87019 
L 800.031992 193.152553 
L 802.531329 192.160257 
L 803.364441 184.05657 
L 804.197553 188.025721 
L 805.030665 159.083967 
L 805.863777 140.974709 
L 808.328401 126.751894 
L 809.161513 149.822614 
L 809.994625 129.89415 
L 810.827737 155.941726 
L 811.660849 135.103659 
L 814.160186 146.349603 
L 814.993298 169.254938 
L 815.82641 161.978145 
L 816.659522 159.083967 
L 817.492634 166.278067 
L 819.991971 175.704805 
L 820.825083 180.914329 
L 821.658195 187.943028 
L 822.491307 188.769939 
L 823.324419 191.41604 
L 825.823756 192.656413 
L 826.656868 188.935324 
L 827.48998 188.273799 
L 828.323092 193.896771 
L 832.488653 188.108414 
L 833.321765 188.191106 
L 834.154877 198.858218 
L 834.987989 204.894637 
L 837.487326 205.886917 
L 838.320438 206.879212 
L 839.15355 209.938776 
L 839.986662 204.067726 
L 840.819774 207.375352 
L 843.319111 206.383072 
L 844.152223 190.9199 
L 844.985335 190.258374 
L 845.818447 205.225391 
L 846.651559 215.56174 
L 849.150896 213.081017 
L 849.984008 199.023587 
L 850.81712 194.392911 
L 851.650232 179.922034 
L 852.483344 203.902341 
L 854.982681 205.638855 
L 855.815793 199.602435 
L 856.648905 205.969609 
L 857.482017 206.052302 
L 858.315129 205.225391 
L 860.814466 204.481174 
L 861.647578 197.287089 
L 862.48069 206.548442 
L 863.313802 213.329095 
L 864.146914 207.044598 
L 866.646251 203.736972 
L 867.479363 192.821782 
L 868.312475 180.418174 
L 869.145587 187.777659 
L 869.978699 197.617844 
L 873.311148 201.669703 
L 874.14426 197.700537 
L 874.977372 216.636721 
L 875.810484 225.319241 
L 878.309821 224.244268 
L 879.142933 230.61145 
L 879.976045 230.776835 
L 880.809157 233.174866 
L 881.642269 231.68643 
L 884.141606 221.928922 
L 884.974718 225.236556 
L 885.80783 231.272975 
L 886.640942 226.146151 
L 887.474054 234.084461 
L 890.806503 231.272975 
L 891.639615 236.895947 
L 892.472727 239.293978 
L 893.305839 234.911371 
L 895.805176 228.213419 
L 896.638288 232.430648 
L 897.4714 234.994056 
L 898.304512 234.084461 
L 899.137624 233.671006 
L 901.636961 233.836391 
L 903.303185 228.792252 
L 904.136297 218.373226 
L 904.969409 223.417358 
L 907.468746 221.432782 
L 908.301858 223.334665 
L 909.13497 234.084461 
L 909.968082 233.505628 
L 910.801194 235.738274 
L 913.300531 234.580609 
L 914.133643 236.069037 
L 914.966755 232.265263 
L 915.799867 230.36338 
L 916.632979 233.588313 
L 919.132316 231.024905 
L 919.965428 231.43836 
L 920.79854 236.97864 
L 921.631652 226.890369 
L 922.464764 235.820967 
L 924.964101 233.340243 
L 925.797213 230.85952 
L 926.630325 212.998324 
L 927.463437 214.404067 
L 928.296549 204.646559 
L 930.795886 215.644425 
L 931.628998 213.825235 
L 932.46211 214.073305 
L 933.295222 214.9829 
L 934.128334 223.334665 
L 936.627671 223.50005 
L 937.460783 209.938776 
L 938.293895 207.29266 
L 939.127007 198.114 
L 939.960119 202.992754 
L 942.459456 204.398497 
L 943.292568 205.721547 
L 944.12568 213.907927 
L 944.958792 203.819648 
L 945.791904 216.388643 
L 948.291241 221.350089 
L 949.957465 231.272975 
L 950.790577 233.836391 
L 951.623689 237.805542 
L 954.956138 230.197995 
L 955.78925 226.559606 
L 956.622362 226.973061 
L 957.455474 231.603738 
L 959.954811 231.9345 
L 960.787923 228.378804 
L 962.454147 240.038196 
L 963.287259 232.017193 
L 965.786596 230.280687 
L 966.619708 229.371092 
L 967.45282 220.853942 
L 968.285932 201.008163 
L 969.119044 203.819648 
L 971.618381 206.30038 
L 972.451493 189.431464 
L 973.284605 195.385206 
L 974.117717 202.661983 
L 974.950829 201.173548 
L 977.450166 200.42933 
L 978.283278 182.485442 
L 979.11639 192.408335 
L 979.949502 193.152553 
L 980.782614 201.75238 
L 983.281951 199.685112 
L 984.115063 205.225391 
L 984.948175 212.998324 
L 985.781287 208.036877 
L 986.614399 186.289223 
L 989.113736 203.736972 
L 989.946848 198.196692 
L 990.77996 187.116134 
L 991.613072 169.089553 
L 992.446184 166.526145 
L 994.945521 177.606688 
L 995.778633 189.183402 
L 996.611745 179.095123 
L 997.444857 175.043279 
L 998.277969 170.164525 
L 1000.777306 182.73352 
L 1001.610418 196.046732 
L 1003.276642 216.554028 
L 1004.109754 222.755832 
L 1006.643804 222.92121 
L 1007.476916 223.582735 
L 1008.310028 226.559606 
L 1009.14314 219.613584 
L 1009.976252 228.874944 
L 1012.475589 223.99619 
L 1013.308701 228.957637 
L 1014.141813 228.792252 
L 1014.974925 227.634587 
L 1015.808037 231.9345 
L 1018.307374 235.159441 
L 1019.140486 235.655581 
L 1019.973598 239.790118 
L 1021.639822 243.015059 
L 1024.139159 241.113176 
L 1024.972271 241.113176 
L 1025.805383 238.715145 
L 1026.638495 239.211285 
L 1027.471607 241.609316 
L 1029.970944 237.888235 
L 1030.804056 239.790118 
L 1031.637168 238.79783 
L 1032.47028 238.053612 
L 1033.303393 243.924654 
L 1035.802729 241.609316 
L 1036.635841 246.24 
L 1037.468953 245.247712 
L 1038.302065 242.849681 
L 1039.135178 244.503494 
L 1041.634514 242.188148 
L 1042.467626 242.436226 
L 1043.300738 233.009481 
L 1044.13385 233.174866 
L 1044.966963 238.30169 
L 1048.299411 238.632453 
L 1049.132523 243.263129 
L 1049.965635 242.932366 
L 1050.798748 243.097751 
L 1054.131196 236.895947 
L 1054.964308 229.949925 
L 1055.79742 229.205707 
L 1056.630533 235.655581 
L 1059.129869 237.888235 
L 1059.962981 240.534335 
L 1060.796093 241.113176 
L 1061.629205 243.180444 
L 1062.462318 241.030483 
L 1065.794766 231.603738 
L 1066.627878 223.74812 
L 1067.46099 229.205707 
L 1068.294103 236.069037 
L 1070.793439 236.97864 
L 1071.626551 242.270841 
L 1072.459663 237.392087 
L 1073.292775 234.828679 
L 1074.125888 236.399799 
L 1076.625224 233.588313 
L 1077.458336 235.986344 
L 1078.291448 227.386509 
L 1079.12456 231.272975 
L 1079.957673 231.521045 
L 1082.457009 233.009481 
L 1083.290121 238.053612 
L 1084.123233 239.955503 
L 1084.956345 240.286265 
L 1085.789458 239.128592 
L 1088.288794 230.85952 
L 1089.121906 214.9829 
L 1089.955018 227.138439 
L 1090.78813 230.197995 
L 1091.621243 228.296112 
L 1094.953691 218.538603 
L 1095.786803 219.200129 
L 1097.453028 232.347955 
L 1099.952364 232.430648 
L 1100.785476 234.994056 
L 1101.618588 231.603738 
L 1102.4517 235.242134 
L 1103.284813 237.640165 
L 1105.784149 234.497916 
L 1106.617261 226.476914 
L 1107.450373 226.146151 
L 1108.283485 226.642299 
L 1109.116598 224.161575 
L 1111.581221 220.192416 
L 1112.414333 231.603738 
L 1113.247445 232.347955 
L 1114.080557 226.973061 
L 1114.91367 226.890369 
L 1117.413006 227.551894 
L 1118.246118 231.769123 
L 1119.07923 238.218997 
L 1119.912342 239.211285 
L 1120.745455 238.053612 
L 1120.745455 238.053612 
" clip-path="url(#pfd55ab782e)" style="fill: none; stroke: #0000ff; stroke-width: 1.5; stroke-linecap: square"/>
   </g>
   <g id="patch_3">
    <path d="M 162 256.32 
L 162 34.56 
" style="fill: none; stroke: #000000; stroke-width: 0.8; stroke-linejoin: miter; stroke-linecap: square"/>
   </g>
   <g id="patch_4">
    <path d="M 1166.4 256.32 
L 1166.4 34.56 
" style="fill: none; stroke: #000000; stroke-width: 0.8; stroke-linejoin: miter; stroke-linecap: square"/>
   </g>
   <g id="patch_5">
    <path d="M 162 256.32 
L 1166.4 256.32 
" style="fill: none; stroke: #000000; stroke-width: 0.8; stroke-linejoin: miter; stroke-linecap: square"/>
   </g>
   <g id="patch_6">
    <path d="M 162 34.56 
L 1166.4 34.56 
" style="fill: none; stroke: #000000; stroke-width: 0.8; stroke-linejoin: miter; stroke-linecap: square"/>
   </g>
  </g>
  <g id="axes_2">
   <g id="matplotlib.axis_3">
    <g id="ytick_6">
     <g id="line2d_17">
      <defs>
       <path id="m7af1e54f2e" d="M 0 0 
L 3.5 0 
" style="stroke: #ff0000; stroke-width: 0.8"/>
      </defs>
      <g>
       <use xlink:href="#m7af1e54f2e" x="1166.4" y="234.636017" style="fill: #ff0000; stroke: #ff0000; stroke-width: 0.8"/>
      </g>
     </g>
     <g id="text_18">
      <!-- 0.2 -->
      <g style="fill: #ff0000" transform="translate(1173.4 238.435236) scale(0.1 -0.1)">
       <defs>
        <path id="DejaVuSans-2e" d="M 684 794 
L 1344 794 
L 1344 0 
L 684 0 
L 684 794 
z
" transform="scale(0.015625)"/>
       </defs>
       <use xlink:href="#DejaVuSans-30"/>
       <use xlink:href="#DejaVuSans-2e" x="63.623047"/>
       <use xlink:href="#DejaVuSans-32" x="95.410156"/>
      </g>
     </g>
    </g>
    <g id="ytick_7">
     <g id="line2d_18">
      <g>
       <use xlink:href="#m7af1e54f2e" x="1166.4" y="209.062008" style="fill: #ff0000; stroke: #ff0000; stroke-width: 0.8"/>
      </g>
     </g>
     <g id="text_19">
      <!-- 0.3 -->
      <g style="fill: #ff0000" transform="translate(1173.4 212.861226) scale(0.1 -0.1)">
       <use xlink:href="#DejaVuSans-30"/>
       <use xlink:href="#DejaVuSans-2e" x="63.623047"/>
       <use xlink:href="#DejaVuSans-33" x="95.410156"/>
      </g>
     </g>
    </g>
    <g id="ytick_8">
     <g id="line2d_19">
      <g>
       <use xlink:href="#m7af1e54f2e" x="1166.4" y="183.487998" style="fill: #ff0000; stroke: #ff0000; stroke-width: 0.8"/>
      </g>
     </g>
     <g id="text_20">
      <!-- 0.4 -->
      <g style="fill: #ff0000" transform="translate(1173.4 187.287217) scale(0.1 -0.1)">
       <use xlink:href="#DejaVuSans-30"/>
       <use xlink:href="#DejaVuSans-2e" x="63.623047"/>
       <use xlink:href="#DejaVuSans-34" x="95.410156"/>
      </g>
     </g>
    </g>
    <g id="ytick_9">
     <g id="line2d_20">
      <g>
       <use xlink:href="#m7af1e54f2e" x="1166.4" y="157.913989" style="fill: #ff0000; stroke: #ff0000; stroke-width: 0.8"/>
      </g>
     </g>
     <g id="text_21">
      <!-- 0.5 -->
      <g style="fill: #ff0000" transform="translate(1173.4 161.713208) scale(0.1 -0.1)">
       <use xlink:href="#DejaVuSans-30"/>
       <use xlink:href="#DejaVuSans-2e" x="63.623047"/>
       <use xlink:href="#DejaVuSans-35" x="95.410156"/>
      </g>
     </g>
    </g>
    <g id="ytick_10">
     <g id="line2d_21">
      <g>
       <use xlink:href="#m7af1e54f2e" x="1166.4" y="132.339979" style="fill: #ff0000; stroke: #ff0000; stroke-width: 0.8"/>
      </g>
     </g>
     <g id="text_22">
      <!-- 0.6 -->
      <g style="fill: #ff0000" transform="translate(1173.4 136.139198) scale(0.1 -0.1)">
       <defs>
        <path id="DejaVuSans-36" d="M 2113 2584 
Q 1688 2584 1439 2293 
Q 1191 2003 1191 1497 
Q 1191 994 1439 701 
Q 1688 409 2113 409 
Q 2538 409 2786 701 
Q 3034 994 3034 1497 
Q 3034 2003 2786 2293 
Q 2538 2584 2113 2584 
z
M 3366 4563 
L 3366 3988 
Q 3128 4100 2886 4159 
Q 2644 4219 2406 4219 
Q 1781 4219 1451 3797 
Q 1122 3375 1075 2522 
Q 1259 2794 1537 2939 
Q 1816 3084 2150 3084 
Q 2853 3084 3261 2657 
Q 3669 2231 3669 1497 
Q 3669 778 3244 343 
Q 2819 -91 2113 -91 
Q 1303 -91 875 529 
Q 447 1150 447 2328 
Q 447 3434 972 4092 
Q 1497 4750 2381 4750 
Q 2619 4750 2861 4703 
Q 3103 4656 3366 4563 
z
" transform="scale(0.015625)"/>
       </defs>
       <use xlink:href="#DejaVuSans-30"/>
       <use xlink:href="#DejaVuSans-2e" x="63.623047"/>
       <use xlink:href="#DejaVuSans-36" x="95.410156"/>
      </g>
     </g>
    </g>
    <g id="ytick_11">
     <g id="line2d_22">
      <g>
       <use xlink:href="#m7af1e54f2e" x="1166.4" y="106.76597" style="fill: #ff0000; stroke: #ff0000; stroke-width: 0.8"/>
      </g>
     </g>
     <g id="text_23">
      <!-- 0.7 -->
      <g style="fill: #ff0000" transform="translate(1173.4 110.565189) scale(0.1 -0.1)">
       <defs>
        <path id="DejaVuSans-37" d="M 525 4666 
L 3525 4666 
L 3525 4397 
L 1831 0 
L 1172 0 
L 2766 4134 
L 525 4134 
L 525 4666 
z
" transform="scale(0.015625)"/>
       </defs>
       <use xlink:href="#DejaVuSans-30"/>
       <use xlink:href="#DejaVuSans-2e" x="63.623047"/>
       <use xlink:href="#DejaVuSans-37" x="95.410156"/>
      </g>
     </g>
    </g>
    <g id="ytick_12">
     <g id="line2d_23">
      <g>
       <use xlink:href="#m7af1e54f2e" x="1166.4" y="81.191961" style="fill: #ff0000; stroke: #ff0000; stroke-width: 0.8"/>
      </g>
     </g>
     <g id="text_24">
      <!-- 0.8 -->
      <g style="fill: #ff0000" transform="translate(1173.4 84.99118) scale(0.1 -0.1)">
       <defs>
        <path id="DejaVuSans-38" d="M 2034 2216 
Q 1584 2216 1326 1975 
Q 1069 1734 1069 1313 
Q 1069 891 1326 650 
Q 1584 409 2034 409 
Q 2484 409 2743 651 
Q 3003 894 3003 1313 
Q 3003 1734 2745 1975 
Q 2488 2216 2034 2216 
z
M 1403 2484 
Q 997 2584 770 2862 
Q 544 3141 544 3541 
Q 544 4100 942 4425 
Q 1341 4750 2034 4750 
Q 2731 4750 3128 4425 
Q 3525 4100 3525 3541 
Q 3525 3141 3298 2862 
Q 3072 2584 2669 2484 
Q 3125 2378 3379 2068 
Q 3634 1759 3634 1313 
Q 3634 634 3220 271 
Q 2806 -91 2034 -91 
Q 1263 -91 848 271 
Q 434 634 434 1313 
Q 434 1759 690 2068 
Q 947 2378 1403 2484 
z
M 1172 3481 
Q 1172 3119 1398 2916 
Q 1625 2713 2034 2713 
Q 2441 2713 2670 2916 
Q 2900 3119 2900 3481 
Q 2900 3844 2670 4047 
Q 2441 4250 2034 4250 
Q 1625 4250 1398 4047 
Q 1172 3844 1172 3481 
z
" transform="scale(0.015625)"/>
       </defs>
       <use xlink:href="#DejaVuSans-30"/>
       <use xlink:href="#DejaVuSans-2e" x="63.623047"/>
       <use xlink:href="#DejaVuSans-38" x="95.410156"/>
      </g>
     </g>
    </g>
    <g id="ytick_13">
     <g id="line2d_24">
      <g>
       <use xlink:href="#m7af1e54f2e" x="1166.4" y="55.617951" style="fill: #ff0000; stroke: #ff0000; stroke-width: 0.8"/>
      </g>
     </g>
     <g id="text_25">
      <!-- 0.9 -->
      <g style="fill: #ff0000" transform="translate(1173.4 59.41717) scale(0.1 -0.1)">
       <use xlink:href="#DejaVuSans-30"/>
       <use xlink:href="#DejaVuSans-2e" x="63.623047"/>
       <use xlink:href="#DejaVuSans-39" x="95.410156"/>
      </g>
     </g>
    </g>
    <g id="text_26">
     <!-- Indicator -->
     <g style="fill: #ff0000" transform="translate(1200.901563 167.535313) rotate(-90) scale(0.1 -0.1)">
      <defs>
       <path id="DejaVuSans-6e" d="M 3513 2113 
L 3513 0 
L 2938 0 
L 2938 2094 
Q 2938 2591 2744 2837 
Q 2550 3084 2163 3084 
Q 1697 3084 1428 2787 
Q 1159 2491 1159 1978 
L 1159 0 
L 581 0 
L 581 3500 
L 1159 3500 
L 1159 2956 
Q 1366 3272 1645 3428 
Q 1925 3584 2291 3584 
Q 2894 3584 3203 3211 
Q 3513 2838 3513 2113 
z
" transform="scale(0.015625)"/>
       <path id="DejaVuSans-64" d="M 2906 2969 
L 2906 4863 
L 3481 4863 
L 3481 0 
L 2906 0 
L 2906 525 
Q 2725 213 2448 61 
Q 2172 -91 1784 -91 
Q 1150 -91 751 415 
Q 353 922 353 1747 
Q 353 2572 751 3078 
Q 1150 3584 1784 3584 
Q 2172 3584 2448 3432 
Q 2725 3281 2906 2969 
z
M 947 1747 
Q 947 1113 1208 752 
Q 1469 391 1925 391 
Q 2381 391 2643 752 
Q 2906 1113 2906 1747 
Q 2906 2381 2643 2742 
Q 2381 3103 1925 3103 
Q 1469 3103 1208 2742 
Q 947 2381 947 1747 
z
" transform="scale(0.015625)"/>
       <path id="DejaVuSans-69" d="M 603 3500 
L 1178 3500 
L 1178 0 
L 603 0 
L 603 3500 
z
M 603 4863 
L 1178 4863 
L 1178 4134 
L 603 4134 
L 603 4863 
z
" transform="scale(0.015625)"/>
       <path id="DejaVuSans-63" d="M 3122 3366 
L 3122 2828 
Q 2878 2963 2633 3030 
Q 2388 3097 2138 3097 
Q 1578 3097 1268 2742 
Q 959 2388 959 1747 
Q 959 1106 1268 751 
Q 1578 397 2138 397 
Q 2388 397 2633 464 
Q 2878 531 3122 666 
L 3122 134 
Q 2881 22 2623 -34 
Q 2366 -91 2075 -91 
Q 1284 -91 818 406 
Q 353 903 353 1747 
Q 353 2603 823 3093 
Q 1294 3584 2113 3584 
Q 2378 3584 2631 3529 
Q 2884 3475 3122 3366 
z
" transform="scale(0.015625)"/>
       <path id="DejaVuSans-6f" d="M 1959 3097 
Q 1497 3097 1228 2736 
Q 959 2375 959 1747 
Q 959 1119 1226 758 
Q 1494 397 1959 397 
Q 2419 397 2687 759 
Q 2956 1122 2956 1747 
Q 2956 2369 2687 2733 
Q 2419 3097 1959 3097 
z
M 1959 3584 
Q 2709 3584 3137 3096 
Q 3566 2609 3566 1747 
Q 3566 888 3137 398 
Q 2709 -91 1959 -91 
Q 1206 -91 779 398 
Q 353 888 353 1747 
Q 353 2609 779 3096 
Q 1206 3584 1959 3584 
z
" transform="scale(0.015625)"/>
       <path id="DejaVuSans-72" d="M 2631 2963 
Q 2534 3019 2420 3045 
Q 2306 3072 2169 3072 
Q 1681 3072 1420 2755 
Q 1159 2438 1159 1844 
L 1159 0 
L 581 0 
L 581 3500 
L 1159 3500 
L 1159 2956 
Q 1341 3275 1631 3429 
Q 1922 3584 2338 3584 
Q 2397 3584 2469 3576 
Q 2541 3569 2628 3553 
L 2631 2963 
z
" transform="scale(0.015625)"/>
      </defs>
      <use xlink:href="#DejaVuSans-49"/>
      <use xlink:href="#DejaVuSans-6e" x="29.492188"/>
      <use xlink:href="#DejaVuSans-64" x="92.871094"/>
      <use xlink:href="#DejaVuSans-69" x="156.347656"/>
      <use xlink:href="#DejaVuSans-63" x="184.130859"/>
      <use xlink:href="#DejaVuSans-61" x="239.111328"/>
      <use xlink:href="#DejaVuSans-74" x="300.390625"/>
      <use xlink:href="#DejaVuSans-6f" x="339.599609"/>
      <use xlink:href="#DejaVuSans-72" x="400.78125"/>
     </g>
    </g>
   </g>
   <g id="line2d_25">
    <path d="M 207.654545 53.170373 
L 210.153882 53.424138 
L 210.986994 53.599034 
L 213.48633 53.542323 
L 215.152555 53.836996 
L 215.985667 54.236495 
L 219.318115 54.569665 
L 221.817452 55.945088 
L 222.650564 57.162178 
L 225.1499 58.397891 
L 226.816125 60.163987 
L 227.649237 61.646185 
L 228.482349 63.728832 
L 230.981685 65.151799 
L 232.64791 68.154755 
L 233.481022 69.148667 
L 234.314134 70.419418 
L 236.81347 71.324772 
L 238.479695 72.917436 
L 239.312807 73.469128 
L 240.145919 74.527703 
L 242.645255 75.523862 
L 243.478368 75.292655 
L 244.31148 75.73837 
L 245.144592 76.874367 
L 245.977704 78.220029 
L 248.47704 77.866032 
L 249.310153 77.389508 
L 250.143265 74.250783 
L 250.976377 72.950989 
L 251.809489 72.460947 
L 254.308825 71.880131 
L 255.141938 70.894068 
L 255.97505 69.466467 
L 257.641274 67.626607 
L 260.14061 67.271187 
L 260.973723 66.763793 
L 263.473059 66.52661 
L 266.805508 66.390575 
L 267.63862 66.659409 
L 268.471732 66.537818 
L 269.304844 67.06055 
L 273.470405 67.330232 
L 274.303517 67.612129 
L 275.136629 68.092388 
L 277.635965 68.655331 
L 280.135302 69.729823 
L 280.968414 69.103409 
L 283.46775 68.787619 
L 284.300863 69.589371 
L 285.133975 71.178945 
L 285.967087 75.113553 
L 286.800199 78.202179 
L 289.299536 79.611317 
L 290.132648 81.46201 
L 290.96576 84.551419 
L 292.631984 93.360857 
L 295.964433 96.710503 
L 296.797545 98.890546 
L 297.630657 98.72673 
L 298.463769 99.955183 
L 300.963106 100.565799 
L 301.796218 100.178816 
L 302.62933 101.900734 
L 303.462442 102.4339 
L 304.295554 101.968333 
L 306.794891 95.750532 
L 307.628003 92.837548 
L 308.461115 92.144035 
L 309.294227 92.307569 
L 310.127339 91.420116 
L 312.626676 89.931132 
L 313.459788 87.795877 
L 314.2929 86.922606 
L 315.126012 87.223698 
L 315.959124 86.896022 
L 318.458461 87.733931 
L 319.291573 87.631031 
L 320.124685 86.750333 
L 320.957797 86.124745 
L 321.790909 86.009254 
L 324.290246 85.315497 
L 325.123358 84.684073 
L 325.95647 84.593542 
L 326.789582 84.738563 
L 327.622694 84.756755 
L 330.122031 84.128471 
L 330.955143 83.277152 
L 331.788255 80.421387 
L 332.621367 79.13367 
L 333.454479 78.051085 
L 337.62004 77.380951 
L 338.453152 76.613675 
L 339.286264 77.479584 
L 341.785601 80.39652 
L 342.618713 82.077264 
L 343.451825 83.067884 
L 344.284937 83.800351 
L 345.118049 84.264627 
L 348.450498 83.934541 
L 349.28361 84.768895 
L 350.116722 84.473391 
L 350.949834 82.605528 
L 353.449171 81.99135 
L 355.115395 81.916453 
L 355.948507 81.535336 
L 356.781619 79.760195 
L 359.280956 75.617162 
L 360.114068 72.860545 
L 360.94718 71.549036 
L 362.613404 70.178662 
L 365.112741 69.263733 
L 365.945853 67.458576 
L 366.778965 66.388356 
L 367.612077 66.044069 
L 368.445189 66.168114 
L 370.944526 65.237502 
L 372.61075 63.703199 
L 373.443862 63.209451 
L 374.276974 63.221793 
L 376.776311 62.600058 
L 377.609423 61.998931 
L 378.442535 61.657109 
L 379.275647 61.54057 
L 382.608096 61.573091 
L 384.27432 62.35851 
L 385.107432 62.999665 
L 385.940544 63.993521 
L 388.439881 64.788393 
L 389.272993 65.495714 
L 390.106105 65.748131 
L 390.939217 66.214086 
L 391.772329 67.247634 
L 394.271666 69.61132 
L 395.104778 72.076854 
L 395.93789 74.024432 
L 396.771002 75.200981 
L 397.604114 75.691358 
L 400.138164 76.30388 
L 400.971276 78.653367 
L 401.804388 80.481197 
L 403.470612 86.337953 
L 405.969949 90.940353 
L 407.636173 98.829014 
L 408.469285 100.891808 
L 409.302397 101.844505 
L 411.801734 102.790169 
L 412.634846 103.33742 
L 413.467958 103.407903 
L 415.134182 91.91673 
L 417.633519 87.022558 
L 419.299743 74.142638 
L 420.965967 66.249211 
L 423.465304 63.878118 
L 424.298416 62.699656 
L 425.96464 61.331993 
L 426.797752 61.007804 
L 429.297089 60.422259 
L 430.130201 59.673018 
L 430.963313 59.249012 
L 432.629537 57.856888 
L 435.128874 57.159005 
L 435.961986 56.765616 
L 436.795098 56.679369 
L 437.62821 56.757468 
L 440.960659 56.755432 
L 443.459995 56.487132 
L 444.293107 56.476225 
L 449.29178 56.595831 
L 450.124892 56.577802 
L 452.624229 57.543332 
L 453.457341 58.053799 
L 454.290453 59.210764 
L 455.956677 62.006954 
L 459.289126 63.33873 
L 460.122238 63.945006 
L 460.95535 63.273046 
L 461.788462 61.777896 
L 464.287799 60.531421 
L 465.120911 58.877103 
L 465.954023 57.522528 
L 467.620247 55.812325 
L 470.952696 55.389425 
L 471.785808 55.459128 
L 473.452032 54.772418 
L 475.951369 54.371098 
L 478.450705 53.372096 
L 479.283817 52.676611 
L 481.783154 51.965056 
L 483.449378 51.00798 
L 485.115602 50.14894 
L 488.448051 49.668603 
L 490.114275 48.650204 
L 490.947387 48.257912 
L 493.446724 47.890835 
L 494.279836 47.39546 
L 495.94606 46.919635 
L 496.779172 46.721401 
L 501.777845 46.35347 
L 505.075581 46.228586 
L 507.574917 45.86335 
L 511.740478 45.865753 
L 513.406702 45.764063 
L 516.739151 46.055263 
L 518.405375 46.505926 
L 519.238487 46.617126 
L 520.071599 46.877253 
L 522.570936 47.170955 
L 525.903384 48.303238 
L 528.402721 48.529502 
L 530.902057 49.632542 
L 534.234506 50.098817 
L 536.733842 52.319022 
L 537.566954 52.449387 
L 540.066291 52.695311 
L 542.565627 52.249477 
L 543.398739 51.771718 
L 545.898076 51.277318 
L 546.731188 50.959297 
L 547.5643 50.825154 
L 549.230524 50.002426 
L 551.729861 49.355811 
L 553.396085 48.24223 
L 554.229197 47.782284 
L 555.062309 47.491163 
L 557.561646 47.227454 
L 560.894094 46.231699 
L 565.059655 45.780895 
L 566.725879 45.555958 
L 570.89144 45.347897 
L 572.557664 45.190375 
L 575.890113 45.338831 
L 577.556337 45.719575 
L 578.389449 45.778262 
L 582.55501 45.743087 
L 583.388122 45.549108 
L 587.553683 45.550883 
L 590.053019 45.945569 
L 594.21858 46.072354 
L 595.051692 46.00072 
L 595.884804 46.118066 
L 600.050365 46.244736 
L 604.215926 46.517464 
L 615.879496 46.692436 
L 616.712608 46.786197 
L 619.211944 47.762631 
L 621.711281 48.133042 
L 624.210617 49.052898 
L 625.043729 49.398181 
L 627.543066 49.668603 
L 628.376178 49.912469 
L 630.875514 51.251285 
L 633.374851 51.64167 
L 635.874187 52.997906 
L 636.707299 53.28173 
L 639.206636 53.452451 
L 640.87286 53.989832 
L 641.705972 54.352667 
L 642.539084 54.246782 
L 645.871533 54.041594 
L 648.370869 53.523252 
L 653.369542 53.243986 
L 656.701991 53.033247 
L 657.535103 52.730817 
L 658.368215 52.582377 
L 660.034439 51.996473 
L 662.533776 51.716592 
L 665.033112 50.61597 
L 665.866224 50.123348 
L 668.365561 49.52173 
L 670.031785 48.53746 
L 671.698009 47.640965 
L 675.86357 46.998848 
L 677.529794 46.469969 
L 680.029131 46.270606 
L 683.361579 45.537457 
L 686.694028 45.301977 
L 689.193364 44.848107 
L 694.192037 44.64 
L 700.023822 44.77093 
L 700.856934 44.891509 
L 704.224096 45.241456 
L 705.89032 45.547841 
L 706.723432 45.783002 
L 710.055881 46.077048 
L 711.722105 46.389358 
L 712.555217 46.633082 
L 715.054554 46.944564 
L 716.720778 47.805582 
L 718.387002 48.22887 
L 720.886339 48.613098 
L 722.552563 49.438092 
L 724.218787 50.488385 
L 726.718124 50.962025 
L 728.384348 51.730938 
L 730.050572 52.322226 
L 732.549909 52.370419 
L 735.882357 53.301019 
L 738.381694 53.454633 
L 739.214806 53.665764 
L 740.88103 54.408067 
L 741.714142 54.62469 
L 745.046591 54.696612 
L 745.879703 54.829453 
L 747.545927 55.306951 
L 753.377712 55.503166 
L 756.710161 55.351207 
L 757.543273 55.45106 
L 759.209497 55.936622 
L 762.541946 55.981857 
L 763.375058 55.861675 
L 764.20817 55.883165 
L 765.041282 56.102518 
L 767.540619 56.38054 
L 769.206843 57.074743 
L 770.039955 57.753598 
L 770.873067 58.214601 
L 773.372404 58.355325 
L 774.205516 58.767613 
L 775.87174 59.850536 
L 776.704852 60.281959 
L 779.204189 60.371561 
L 780.037301 60.845949 
L 782.536637 61.41286 
L 785.035974 61.582398 
L 785.869086 62.018196 
L 786.702198 62.791493 
L 788.368422 63.543188 
L 794.200207 62.977139 
L 796.699544 62.615201 
L 797.532656 62.225534 
L 798.365768 62.027839 
L 799.19888 62.149007 
L 800.031992 62.48288 
L 804.197553 62.743792 
L 805.030665 62.157126 
L 805.863777 61.207912 
L 809.161513 59.550471 
L 809.994625 58.699259 
L 810.827737 58.092916 
L 811.660849 57.338152 
L 814.993298 56.533863 
L 816.659522 55.898142 
L 817.492634 55.802113 
L 823.324419 55.873815 
L 825.823756 56.012125 
L 827.48998 56.705675 
L 828.323092 56.986981 
L 831.655541 57.271688 
L 834.154877 57.960026 
L 834.987989 58.250784 
L 837.487326 58.432299 
L 838.320438 58.645842 
L 839.15355 59.031432 
L 839.986662 59.277142 
L 840.819774 60.049912 
L 843.319111 61.183847 
L 844.152223 62.408113 
L 844.985335 63.244744 
L 846.651559 66.486336 
L 849.150896 68.75899 
L 849.984008 70.509183 
L 850.81712 71.41657 
L 851.650232 72.096012 
L 852.483344 73.921195 
L 854.982681 75.69527 
L 857.482017 79.166415 
L 858.315129 80.120005 
L 861.647578 81.197009 
L 862.48069 82.326183 
L 863.313802 84.040116 
L 864.146914 84.99457 
L 867.479363 86.4681 
L 868.312475 85.862497 
L 869.145587 85.025236 
L 869.978699 84.491371 
L 873.311148 84.18757 
L 874.14426 83.540099 
L 874.977372 84.010739 
L 875.810484 85.571691 
L 878.309821 86.889382 
L 879.142933 88.916516 
L 879.976045 92.645907 
L 880.809157 97.319139 
L 881.642269 100.609081 
L 884.141606 101.453498 
L 884.974718 103.126814 
L 886.640942 113.451654 
L 887.474054 124.556598 
L 890.806503 131.093139 
L 891.639615 139.288474 
L 892.472727 150.584077 
L 893.305839 159.147959 
L 895.805176 165.692315 
L 897.4714 181.753714 
L 898.304512 190.752345 
L 899.137624 196.662421 
L 901.636961 200.730669 
L 903.303185 204.689359 
L 904.136297 207.160602 
L 904.969409 211.869068 
L 907.468746 217.33026 
L 909.13497 225.054737 
L 910.801194 230.873262 
L 913.300531 232.163958 
L 914.133643 232.903222 
L 914.966755 233.43916 
L 915.799867 233.422779 
L 916.632979 233.607706 
L 919.965428 233.450073 
L 920.79854 234.420839 
L 921.631652 234.524886 
L 922.464764 234.808416 
L 924.964101 235.249269 
L 925.797213 235.052788 
L 926.630325 233.903555 
L 927.463437 232.399767 
L 928.296549 229.866727 
L 930.795886 228.330125 
L 931.628998 227.116109 
L 932.46211 225.477308 
L 933.295222 223.56554 
L 934.128334 222.479965 
L 936.627671 221.412452 
L 939.960119 210.480858 
L 942.459456 207.83205 
L 943.292568 204.890315 
L 944.12568 201.246985 
L 944.958792 195.312506 
L 945.791904 191.054945 
L 948.291241 187.962713 
L 949.124353 185.649907 
L 949.957465 185.404278 
L 950.790577 186.26045 
L 951.623689 187.286729 
L 954.956138 187.086658 
L 955.78925 185.89473 
L 956.622362 183.389492 
L 957.455474 184.579723 
L 959.954811 183.599588 
L 960.787923 182.330904 
L 961.621035 183.284241 
L 962.454147 189.874162 
L 963.287259 193.838219 
L 965.786596 199.146868 
L 966.619708 201.772956 
L 967.45282 203.061649 
L 969.119044 198.45893 
L 971.618381 194.943198 
L 972.451493 187.186764 
L 973.284605 183.578604 
L 974.117717 182.394799 
L 974.950829 183.178851 
L 977.450166 182.522436 
L 978.283278 176.709169 
L 979.11639 173.016998 
L 979.949502 167.068508 
L 980.782614 166.465849 
L 983.281951 161.550956 
L 984.115063 156.766124 
L 984.948175 152.749421 
L 985.781287 145.973463 
L 986.614399 132.998022 
L 989.113736 124.744883 
L 990.77996 110.531646 
L 992.446184 93.928912 
L 994.945521 88.744118 
L 995.778633 85.56541 
L 997.444857 77.909933 
L 998.277969 74.876193 
L 1000.777306 72.843846 
L 1001.610418 71.549035 
L 1002.44353 71.022401 
L 1003.276642 71.595493 
L 1004.109754 72.321155 
L 1006.643804 72.984607 
L 1008.310028 75.864324 
L 1009.14314 76.691921 
L 1009.976252 78.126487 
L 1012.475589 79.435031 
L 1014.141813 84.817502 
L 1015.808037 90.119303 
L 1018.307374 93.57468 
L 1019.973598 100.210892 
L 1021.639822 105.068976 
L 1024.139159 114.232374 
L 1024.972271 121.765362 
L 1025.805383 131.238057 
L 1026.638495 145.286303 
L 1027.471607 166.610629 
L 1029.970944 185.996494 
L 1030.804056 199.680652 
L 1032.47028 216.726372 
L 1033.303393 224.292596 
L 1035.802729 230.391027 
L 1036.635841 234.74174 
L 1037.468953 237.592348 
L 1038.302065 239.461358 
L 1039.135178 240.784476 
L 1041.634514 241.651191 
L 1042.467626 242.481272 
L 1044.13385 243.135363 
L 1044.966963 243.867239 
L 1048.299411 244.23716 
L 1049.132523 244.944335 
L 1050.798748 245.929938 
L 1054.131196 246.24 
L 1054.964308 246.174065 
L 1055.79742 245.974604 
L 1059.129869 245.910357 
L 1060.796093 245.826167 
L 1062.462318 245.974604 
L 1065.794766 245.716054 
L 1066.627878 245.092216 
L 1067.46099 244.780112 
L 1068.294103 244.644519 
L 1070.793439 244.577822 
L 1071.626551 244.732029 
L 1073.292775 244.24026 
L 1074.125888 243.867239 
L 1076.625224 243.414323 
L 1077.458336 243.141979 
L 1078.291448 242.443437 
L 1079.957673 241.510206 
L 1082.457009 241.510206 
L 1083.290121 241.723063 
L 1084.956345 241.865942 
L 1088.288794 241.154677 
L 1089.121906 239.850783 
L 1089.955018 239.375978 
L 1091.621243 239.343351 
L 1094.953691 238.479112 
L 1095.786803 237.489305 
L 1096.619915 236.673297 
L 1097.453028 236.171188 
L 1099.952364 235.538092 
L 1100.785476 235.173914 
L 1101.618588 235.173914 
L 1102.4517 235.86194 
L 1103.284813 236.352618 
L 1105.784149 236.262105 
L 1106.617261 235.646606 
L 1107.450373 234.664545 
L 1109.116598 233.285794 
L 1111.581221 232.181294 
L 1112.414333 232.042208 
L 1113.247445 231.784966 
L 1114.080557 231.755548 
L 1114.91367 231.441353 
L 1118.246118 231.062165 
L 1119.912342 231.019645 
L 1120.745455 230.854897 
L 1120.745455 230.854897 
" clip-path="url(#pfd55ab782e)" style="fill: none; stroke: #ff0000; stroke-width: 1.5; stroke-linecap: square"/>
   </g>
   <g id="patch_7">
    <path d="M 162 256.32 
L 162 34.56 
" style="fill: none; stroke: #000000; stroke-width: 0.8; stroke-linejoin: miter; stroke-linecap: square"/>
   </g>
   <g id="patch_8">
    <path d="M 1166.4 256.32 
L 1166.4 34.56 
" style="fill: none; stroke: #000000; stroke-width: 0.8; stroke-linejoin: miter; stroke-linecap: square"/>
   </g>
   <g id="patch_9">
    <path d="M 162 256.32 
L 1166.4 256.32 
" style="fill: none; stroke: #000000; stroke-width: 0.8; stroke-linejoin: miter; stroke-linecap: square"/>
   </g>
   <g id="patch_10">
    <path d="M 162 34.56 
L 1166.4 34.56 
" style="fill: none; stroke: #000000; stroke-width: 0.8; stroke-linejoin: miter; stroke-linecap: square"/>
   </g>
   <g id="text_27">
    <!-- VIX and Cumulative Probability Indicator (smoothed 30 periods) - 3Y (Updated 2024-03-24 05:47:22) -->
    <g transform="translate(361.360313 28.56) scale(0.12 -0.12)">
     <defs>
      <path id="DejaVuSans-20" transform="scale(0.015625)"/>
      <path id="DejaVuSans-43" d="M 4122 4306 
L 4122 3641 
Q 3803 3938 3442 4084 
Q 3081 4231 2675 4231 
Q 1875 4231 1450 3742 
Q 1025 3253 1025 2328 
Q 1025 1406 1450 917 
Q 1875 428 2675 428 
Q 3081 428 3442 575 
Q 3803 722 4122 1019 
L 4122 359 
Q 3791 134 3420 21 
Q 3050 -91 2638 -91 
Q 1578 -91 968 557 
Q 359 1206 359 2328 
Q 359 3453 968 4101 
Q 1578 4750 2638 4750 
Q 3056 4750 3426 4639 
Q 3797 4528 4122 4306 
z
" transform="scale(0.015625)"/>
      <path id="DejaVuSans-75" d="M 544 1381 
L 544 3500 
L 1119 3500 
L 1119 1403 
Q 1119 906 1312 657 
Q 1506 409 1894 409 
Q 2359 409 2629 706 
Q 2900 1003 2900 1516 
L 2900 3500 
L 3475 3500 
L 3475 0 
L 2900 0 
L 2900 538 
Q 2691 219 2414 64 
Q 2138 -91 1772 -91 
Q 1169 -91 856 284 
Q 544 659 544 1381 
z
M 1991 3584 
L 1991 3584 
z
" transform="scale(0.015625)"/>
      <path id="DejaVuSans-6d" d="M 3328 2828 
Q 3544 3216 3844 3400 
Q 4144 3584 4550 3584 
Q 5097 3584 5394 3201 
Q 5691 2819 5691 2113 
L 5691 0 
L 5113 0 
L 5113 2094 
Q 5113 2597 4934 2840 
Q 4756 3084 4391 3084 
Q 3944 3084 3684 2787 
Q 3425 2491 3425 1978 
L 3425 0 
L 2847 0 
L 2847 2094 
Q 2847 2600 2669 2842 
Q 2491 3084 2119 3084 
Q 1678 3084 1418 2786 
Q 1159 2488 1159 1978 
L 1159 0 
L 581 0 
L 581 3500 
L 1159 3500 
L 1159 2956 
Q 1356 3278 1631 3431 
Q 1906 3584 2284 3584 
Q 2666 3584 2933 3390 
Q 3200 3197 3328 2828 
z
" transform="scale(0.015625)"/>
      <path id="DejaVuSans-6c" d="M 603 4863 
L 1178 4863 
L 1178 0 
L 603 0 
L 603 4863 
z
" transform="scale(0.015625)"/>
      <path id="DejaVuSans-76" d="M 191 3500 
L 800 3500 
L 1894 563 
L 2988 3500 
L 3597 3500 
L 2284 0 
L 1503 0 
L 191 3500 
z
" transform="scale(0.015625)"/>
      <path id="DejaVuSans-50" d="M 1259 4147 
L 1259 2394 
L 2053 2394 
Q 2494 2394 2734 2622 
Q 2975 2850 2975 3272 
Q 2975 3691 2734 3919 
Q 2494 4147 2053 4147 
L 1259 4147 
z
M 628 4666 
L 2053 4666 
Q 2838 4666 3239 4311 
Q 3641 3956 3641 3272 
Q 3641 2581 3239 2228 
Q 2838 1875 2053 1875 
L 1259 1875 
L 1259 0 
L 628 0 
L 628 4666 
z
" transform="scale(0.015625)"/>
      <path id="DejaVuSans-62" d="M 3116 1747 
Q 3116 2381 2855 2742 
Q 2594 3103 2138 3103 
Q 1681 3103 1420 2742 
Q 1159 2381 1159 1747 
Q 1159 1113 1420 752 
Q 1681 391 2138 391 
Q 2594 391 2855 752 
Q 3116 1113 3116 1747 
z
M 1159 2969 
Q 1341 3281 1617 3432 
Q 1894 3584 2278 3584 
Q 2916 3584 3314 3078 
Q 3713 2572 3713 1747 
Q 3713 922 3314 415 
Q 2916 -91 2278 -91 
Q 1894 -91 1617 61 
Q 1341 213 1159 525 
L 1159 0 
L 581 0 
L 581 4863 
L 1159 4863 
L 1159 2969 
z
" transform="scale(0.015625)"/>
      <path id="DejaVuSans-79" d="M 2059 -325 
Q 1816 -950 1584 -1140 
Q 1353 -1331 966 -1331 
L 506 -1331 
L 506 -850 
L 844 -850 
Q 1081 -850 1212 -737 
Q 1344 -625 1503 -206 
L 1606 56 
L 191 3500 
L 800 3500 
L 1894 763 
L 2988 3500 
L 3597 3500 
L 2059 -325 
z
" transform="scale(0.015625)"/>
      <path id="DejaVuSans-28" d="M 1984 4856 
Q 1566 4138 1362 3434 
Q 1159 2731 1159 2009 
Q 1159 1288 1364 580 
Q 1569 -128 1984 -844 
L 1484 -844 
Q 1016 -109 783 600 
Q 550 1309 550 2009 
Q 550 2706 781 3412 
Q 1013 4119 1484 4856 
L 1984 4856 
z
" transform="scale(0.015625)"/>
      <path id="DejaVuSans-73" d="M 2834 3397 
L 2834 2853 
Q 2591 2978 2328 3040 
Q 2066 3103 1784 3103 
Q 1356 3103 1142 2972 
Q 928 2841 928 2578 
Q 928 2378 1081 2264 
Q 1234 2150 1697 2047 
L 1894 2003 
Q 2506 1872 2764 1633 
Q 3022 1394 3022 966 
Q 3022 478 2636 193 
Q 2250 -91 1575 -91 
Q 1294 -91 989 -36 
Q 684 19 347 128 
L 347 722 
Q 666 556 975 473 
Q 1284 391 1588 391 
Q 1994 391 2212 530 
Q 2431 669 2431 922 
Q 2431 1156 2273 1281 
Q 2116 1406 1581 1522 
L 1381 1569 
Q 847 1681 609 1914 
Q 372 2147 372 2553 
Q 372 3047 722 3315 
Q 1072 3584 1716 3584 
Q 2034 3584 2315 3537 
Q 2597 3491 2834 3397 
z
" transform="scale(0.015625)"/>
      <path id="DejaVuSans-68" d="M 3513 2113 
L 3513 0 
L 2938 0 
L 2938 2094 
Q 2938 2591 2744 2837 
Q 2550 3084 2163 3084 
Q 1697 3084 1428 2787 
Q 1159 2491 1159 1978 
L 1159 0 
L 581 0 
L 581 4863 
L 1159 4863 
L 1159 2956 
Q 1366 3272 1645 3428 
Q 1925 3584 2291 3584 
Q 2894 3584 3203 3211 
Q 3513 2838 3513 2113 
z
" transform="scale(0.015625)"/>
      <path id="DejaVuSans-70" d="M 1159 525 
L 1159 -1331 
L 581 -1331 
L 581 3500 
L 1159 3500 
L 1159 2969 
Q 1341 3281 1617 3432 
Q 1894 3584 2278 3584 
Q 2916 3584 3314 3078 
Q 3713 2572 3713 1747 
Q 3713 922 3314 415 
Q 2916 -91 2278 -91 
Q 1894 -91 1617 61 
Q 1341 213 1159 525 
z
M 3116 1747 
Q 3116 2381 2855 2742 
Q 2594 3103 2138 3103 
Q 1681 3103 1420 2742 
Q 1159 2381 1159 1747 
Q 1159 1113 1420 752 
Q 1681 391 2138 391 
Q 2594 391 2855 752 
Q 3116 1113 3116 1747 
z
" transform="scale(0.015625)"/>
      <path id="DejaVuSans-29" d="M 513 4856 
L 1013 4856 
Q 1481 4119 1714 3412 
Q 1947 2706 1947 2009 
Q 1947 1309 1714 600 
Q 1481 -109 1013 -844 
L 513 -844 
Q 928 -128 1133 580 
Q 1338 1288 1338 2009 
Q 1338 2731 1133 3434 
Q 928 4138 513 4856 
z
" transform="scale(0.015625)"/>
      <path id="DejaVuSans-59" d="M -13 4666 
L 666 4666 
L 1959 2747 
L 3244 4666 
L 3922 4666 
L 2272 2222 
L 2272 0 
L 1638 0 
L 1638 2222 
L -13 4666 
z
" transform="scale(0.015625)"/>
      <path id="DejaVuSans-55" d="M 556 4666 
L 1191 4666 
L 1191 1831 
Q 1191 1081 1462 751 
Q 1734 422 2344 422 
Q 2950 422 3222 751 
Q 3494 1081 3494 1831 
L 3494 4666 
L 4128 4666 
L 4128 1753 
Q 4128 841 3676 375 
Q 3225 -91 2344 -91 
Q 1459 -91 1007 375 
Q 556 841 556 1753 
L 556 4666 
z
" transform="scale(0.015625)"/>
      <path id="DejaVuSans-3a" d="M 750 794 
L 1409 794 
L 1409 0 
L 750 0 
L 750 794 
z
M 750 3309 
L 1409 3309 
L 1409 2516 
L 750 2516 
L 750 3309 
z
" transform="scale(0.015625)"/>
     </defs>
     <use xlink:href="#DejaVuSans-56"/>
     <use xlink:href="#DejaVuSans-49" x="68.408203"/>
     <use xlink:href="#DejaVuSans-58" x="97.900391"/>
     <use xlink:href="#DejaVuSans-20" x="166.40625"/>
     <use xlink:href="#DejaVuSans-61" x="198.193359"/>
     <use xlink:href="#DejaVuSans-6e" x="259.472656"/>
     <use xlink:href="#DejaVuSans-64" x="322.851562"/>
     <use xlink:href="#DejaVuSans-20" x="386.328125"/>
     <use xlink:href="#DejaVuSans-43" x="418.115234"/>
     <use xlink:href="#DejaVuSans-75" x="487.939453"/>
     <use xlink:href="#DejaVuSans-6d" x="551.318359"/>
     <use xlink:href="#DejaVuSans-75" x="648.730469"/>
     <use xlink:href="#DejaVuSans-6c" x="712.109375"/>
     <use xlink:href="#DejaVuSans-61" x="739.892578"/>
     <use xlink:href="#DejaVuSans-74" x="801.171875"/>
     <use xlink:href="#DejaVuSans-69" x="840.380859"/>
     <use xlink:href="#DejaVuSans-76" x="868.164062"/>
     <use xlink:href="#DejaVuSans-65" x="927.34375"/>
     <use xlink:href="#DejaVuSans-20" x="988.867188"/>
     <use xlink:href="#DejaVuSans-50" x="1020.654297"/>
     <use xlink:href="#DejaVuSans-72" x="1079.207031"/>
     <use xlink:href="#DejaVuSans-6f" x="1118.070312"/>
     <use xlink:href="#DejaVuSans-62" x="1179.251953"/>
     <use xlink:href="#DejaVuSans-61" x="1242.728516"/>
     <use xlink:href="#DejaVuSans-62" x="1304.007812"/>
     <use xlink:href="#DejaVuSans-69" x="1367.484375"/>
     <use xlink:href="#DejaVuSans-6c" x="1395.267578"/>
     <use xlink:href="#DejaVuSans-69" x="1423.050781"/>
     <use xlink:href="#DejaVuSans-74" x="1450.833984"/>
     <use xlink:href="#DejaVuSans-79" x="1490.042969"/>
     <use xlink:href="#DejaVuSans-20" x="1549.222656"/>
     <use xlink:href="#DejaVuSans-49" x="1581.009766"/>
     <use xlink:href="#DejaVuSans-6e" x="1610.501953"/>
     <use xlink:href="#DejaVuSans-64" x="1673.880859"/>
     <use xlink:href="#DejaVuSans-69" x="1737.357422"/>
     <use xlink:href="#DejaVuSans-63" x="1765.140625"/>
     <use xlink:href="#DejaVuSans-61" x="1820.121094"/>
     <use xlink:href="#DejaVuSans-74" x="1881.400391"/>
     <use xlink:href="#DejaVuSans-6f" x="1920.609375"/>
     <use xlink:href="#DejaVuSans-72" x="1981.791016"/>
     <use xlink:href="#DejaVuSans-20" x="2022.904297"/>
     <use xlink:href="#DejaVuSans-28" x="2054.691406"/>
     <use xlink:href="#DejaVuSans-73" x="2093.705078"/>
     <use xlink:href="#DejaVuSans-6d" x="2145.804688"/>
     <use xlink:href="#DejaVuSans-6f" x="2243.216797"/>
     <use xlink:href="#DejaVuSans-6f" x="2304.398438"/>
     <use xlink:href="#DejaVuSans-74" x="2365.580078"/>
     <use xlink:href="#DejaVuSans-68" x="2404.789062"/>
     <use xlink:href="#DejaVuSans-65" x="2468.167969"/>
     <use xlink:href="#DejaVuSans-64" x="2529.691406"/>
     <use xlink:href="#DejaVuSans-20" x="2593.167969"/>
     <use xlink:href="#DejaVuSans-33" x="2624.955078"/>
     <use xlink:href="#DejaVuSans-30" x="2688.578125"/>
     <use xlink:href="#DejaVuSans-20" x="2752.201172"/>
     <use xlink:href="#DejaVuSans-70" x="2783.988281"/>
     <use xlink:href="#DejaVuSans-65" x="2847.464844"/>
     <use xlink:href="#DejaVuSans-72" x="2908.988281"/>
     <use xlink:href="#DejaVuSans-69" x="2950.101562"/>
     <use xlink:href="#DejaVuSans-6f" x="2977.884766"/>
     <use xlink:href="#DejaVuSans-64" x="3039.066406"/>
     <use xlink:href="#DejaVuSans-73" x="3102.542969"/>
     <use xlink:href="#DejaVuSans-29" x="3154.642578"/>
     <use xlink:href="#DejaVuSans-20" x="3193.65625"/>
     <use xlink:href="#DejaVuSans-2d" x="3225.443359"/>
     <use xlink:href="#DejaVuSans-20" x="3261.527344"/>
     <use xlink:href="#DejaVuSans-33" x="3293.314453"/>
     <use xlink:href="#DejaVuSans-59" x="3356.9375"/>
     <use xlink:href="#DejaVuSans-20" x="3418.021484"/>
     <use xlink:href="#DejaVuSans-28" x="3449.808594"/>
     <use xlink:href="#DejaVuSans-55" x="3488.822266"/>
     <use xlink:href="#DejaVuSans-70" x="3562.015625"/>
     <use xlink:href="#DejaVuSans-64" x="3625.492188"/>
     <use xlink:href="#DejaVuSans-61" x="3688.96875"/>
     <use xlink:href="#DejaVuSans-74" x="3750.248047"/>
     <use xlink:href="#DejaVuSans-65" x="3789.457031"/>
     <use xlink:href="#DejaVuSans-64" x="3850.980469"/>
     <use xlink:href="#DejaVuSans-20" x="3914.457031"/>
     <use xlink:href="#DejaVuSans-32" x="3946.244141"/>
     <use xlink:href="#DejaVuSans-30" x="4009.867188"/>
     <use xlink:href="#DejaVuSans-32" x="4073.490234"/>
     <use xlink:href="#DejaVuSans-34" x="4137.113281"/>
     <use xlink:href="#DejaVuSans-2d" x="4200.736328"/>
     <use xlink:href="#DejaVuSans-30" x="4236.820312"/>
     <use xlink:href="#DejaVuSans-33" x="4300.443359"/>
     <use xlink:href="#DejaVuSans-2d" x="4364.066406"/>
     <use xlink:href="#DejaVuSans-32" x="4400.150391"/>
     <use xlink:href="#DejaVuSans-34" x="4463.773438"/>
     <use xlink:href="#DejaVuSans-20" x="4527.396484"/>
     <use xlink:href="#DejaVuSans-30" x="4559.183594"/>
     <use xlink:href="#DejaVuSans-35" x="4622.806641"/>
     <use xlink:href="#DejaVuSans-3a" x="4686.429688"/>
     <use xlink:href="#DejaVuSans-34" x="4720.121094"/>
     <use xlink:href="#DejaVuSans-37" x="4783.744141"/>
     <use xlink:href="#DejaVuSans-3a" x="4847.367188"/>
     <use xlink:href="#DejaVuSans-32" x="4881.058594"/>
     <use xlink:href="#DejaVuSans-32" x="4944.681641"/>
     <use xlink:href="#DejaVuSans-29" x="5008.304688"/>
    </g>
   </g>
  </g>
  <g id="legend_1">
   <g id="patch_11">
    <path d="M 7 37.35625 
L 83.190625 37.35625 
Q 85.190625 37.35625 85.190625 35.35625 
L 85.190625 7 
Q 85.190625 5 83.190625 5 
L 7 5 
Q 5 5 5 7 
L 5 35.35625 
Q 5 37.35625 7 37.35625 
z
" style="fill: #ffffff; opacity: 0.8; stroke: #cccccc; stroke-linejoin: miter"/>
   </g>
   <g id="line2d_26">
    <path d="M 9 13.098437 
L 19 13.098437 
L 29 13.098437 
" style="fill: none; stroke: #0000ff; stroke-width: 1.5; stroke-linecap: square"/>
   </g>
   <g id="text_28">
    <!-- VIX -->
    <g transform="translate(37 16.598437) scale(0.1 -0.1)">
     <use xlink:href="#DejaVuSans-56"/>
     <use xlink:href="#DejaVuSans-49" x="68.408203"/>
     <use xlink:href="#DejaVuSans-58" x="97.900391"/>
    </g>
   </g>
   <g id="line2d_27">
    <path d="M 9 27.776563 
L 19 27.776563 
L 29 27.776563 
" style="fill: none; stroke: #ff0000; stroke-width: 1.5; stroke-linecap: square"/>
   </g>
   <g id="text_29">
    <!-- Indicator -->
    <g transform="translate(37 31.276563) scale(0.1 -0.1)">
     <use xlink:href="#DejaVuSans-49"/>
     <use xlink:href="#DejaVuSans-6e" x="29.492188"/>
     <use xlink:href="#DejaVuSans-64" x="92.871094"/>
     <use xlink:href="#DejaVuSans-69" x="156.347656"/>
     <use xlink:href="#DejaVuSans-63" x="184.130859"/>
     <use xlink:href="#DejaVuSans-61" x="239.111328"/>
     <use xlink:href="#DejaVuSans-74" x="300.390625"/>
     <use xlink:href="#DejaVuSans-6f" x="339.599609"/>
     <use xlink:href="#DejaVuSans-72" x="400.78125"/>
    </g>
   </g>
  </g>
 </g>
 <defs>
  <clipPath id="pfd55ab782e">
   <rect x="162" y="34.56" width="1004.4" height="221.76"/>
  </clipPath>
 </defs>
</svg>
