<?xml version="1.0" encoding="utf-8" standalone="no"?>
<!DOCTYPE svg PUBLIC "-//W3C//DTD SVG 1.1//EN"
  "http://www.w3.org/Graphics/SVG/1.1/DTD/svg11.dtd">
<svg xmlns:xlink="http://www.w3.org/1999/xlink" width="1296pt" height="288pt" viewBox="0 0 1296 288" xmlns="http://www.w3.org/2000/svg" version="1.1">
 <metadata>
  <rdf:RDF xmlns:dc="http://purl.org/dc/elements/1.1/" xmlns:cc="http://creativecommons.org/ns#" xmlns:rdf="http://www.w3.org/1999/02/22-rdf-syntax-ns#">
   <cc:Work>
    <dc:type rdf:resource="http://purl.org/dc/dcmitype/StillImage"/>
    <dc:date>2024-03-21T17:52:10.378817</dc:date>
    <dc:format>image/svg+xml</dc:format>
    <dc:creator>
     <cc:Agent>
      <dc:title>Matplotlib v3.8.0, https://matplotlib.org/</dc:title>
     </cc:Agent>
    </dc:creator>
   </cc:Work>
  </rdf:RDF>
 </metadata>
 <defs>
  <style type="text/css">*{stroke-linejoin: round; stroke-linecap: butt}</style>
 </defs>
 <g id="figure_1">
  <g id="patch_1">
   <path d="M 0 288 
L 1296 288 
L 1296 0 
L 0 0 
z
" style="fill: #ffffff"/>
  </g>
  <g id="axes_1">
   <g id="patch_2">
    <path d="M 162 256.32 
L 1166.4 256.32 
L 1166.4 34.56 
L 162 34.56 
z
" style="fill: #ffffff"/>
   </g>
   <g id="matplotlib.axis_1">
    <g id="xtick_1">
     <g id="line2d_1">
      <defs>
       <path id="m300f55d32a" d="M 0 0 
L 0 3.5 
" style="stroke: #000000; stroke-width: 0.8"/>
      </defs>
      <g>
       <use xlink:href="#m300f55d32a" x="309.940686" y="256.32" style="stroke: #000000; stroke-width: 0.8"/>
      </g>
     </g>
     <g id="text_1">
      <!-- 2023-05 -->
      <g transform="translate(289.049279 270.918437) scale(0.1 -0.1)">
       <defs>
        <path id="DejaVuSans-32" d="M 1228 531 
L 3431 531 
L 3431 0 
L 469 0 
L 469 531 
Q 828 903 1448 1529 
Q 2069 2156 2228 2338 
Q 2531 2678 2651 2914 
Q 2772 3150 2772 3378 
Q 2772 3750 2511 3984 
Q 2250 4219 1831 4219 
Q 1534 4219 1204 4116 
Q 875 4013 500 3803 
L 500 4441 
Q 881 4594 1212 4672 
Q 1544 4750 1819 4750 
Q 2544 4750 2975 4387 
Q 3406 4025 3406 3419 
Q 3406 3131 3298 2873 
Q 3191 2616 2906 2266 
Q 2828 2175 2409 1742 
Q 1991 1309 1228 531 
z
" transform="scale(0.015625)"/>
        <path id="DejaVuSans-30" d="M 2034 4250 
Q 1547 4250 1301 3770 
Q 1056 3291 1056 2328 
Q 1056 1369 1301 889 
Q 1547 409 2034 409 
Q 2525 409 2770 889 
Q 3016 1369 3016 2328 
Q 3016 3291 2770 3770 
Q 2525 4250 2034 4250 
z
M 2034 4750 
Q 2819 4750 3233 4129 
Q 3647 3509 3647 2328 
Q 3647 1150 3233 529 
Q 2819 -91 2034 -91 
Q 1250 -91 836 529 
Q 422 1150 422 2328 
Q 422 3509 836 4129 
Q 1250 4750 2034 4750 
z
" transform="scale(0.015625)"/>
        <path id="DejaVuSans-33" d="M 2597 2516 
Q 3050 2419 3304 2112 
Q 3559 1806 3559 1356 
Q 3559 666 3084 287 
Q 2609 -91 1734 -91 
Q 1441 -91 1130 -33 
Q 819 25 488 141 
L 488 750 
Q 750 597 1062 519 
Q 1375 441 1716 441 
Q 2309 441 2620 675 
Q 2931 909 2931 1356 
Q 2931 1769 2642 2001 
Q 2353 2234 1838 2234 
L 1294 2234 
L 1294 2753 
L 1863 2753 
Q 2328 2753 2575 2939 
Q 2822 3125 2822 3475 
Q 2822 3834 2567 4026 
Q 2313 4219 1838 4219 
Q 1578 4219 1281 4162 
Q 984 4106 628 3988 
L 628 4550 
Q 988 4650 1302 4700 
Q 1616 4750 1894 4750 
Q 2613 4750 3031 4423 
Q 3450 4097 3450 3541 
Q 3450 3153 3228 2886 
Q 3006 2619 2597 2516 
z
" transform="scale(0.015625)"/>
        <path id="DejaVuSans-2d" d="M 313 2009 
L 1997 2009 
L 1997 1497 
L 313 1497 
L 313 2009 
z
" transform="scale(0.015625)"/>
        <path id="DejaVuSans-35" d="M 691 4666 
L 3169 4666 
L 3169 4134 
L 1269 4134 
L 1269 2991 
Q 1406 3038 1543 3061 
Q 1681 3084 1819 3084 
Q 2600 3084 3056 2656 
Q 3513 2228 3513 1497 
Q 3513 744 3044 326 
Q 2575 -91 1722 -91 
Q 1428 -91 1123 -41 
Q 819 9 494 109 
L 494 744 
Q 775 591 1075 516 
Q 1375 441 1709 441 
Q 2250 441 2565 725 
Q 2881 1009 2881 1497 
Q 2881 1984 2565 2268 
Q 2250 2553 1709 2553 
Q 1456 2553 1204 2497 
Q 953 2441 691 2322 
L 691 4666 
z
" transform="scale(0.015625)"/>
       </defs>
       <use xlink:href="#DejaVuSans-32"/>
       <use xlink:href="#DejaVuSans-30" x="63.623047"/>
       <use xlink:href="#DejaVuSans-32" x="127.246094"/>
       <use xlink:href="#DejaVuSans-33" x="190.869141"/>
       <use xlink:href="#DejaVuSans-2d" x="254.492188"/>
       <use xlink:href="#DejaVuSans-30" x="290.576172"/>
       <use xlink:href="#DejaVuSans-35" x="354.199219"/>
      </g>
     </g>
    </g>
    <g id="xtick_2">
     <g id="line2d_2">
      <g>
       <use xlink:href="#m300f55d32a" x="462.122504" y="256.32" style="stroke: #000000; stroke-width: 0.8"/>
      </g>
     </g>
     <g id="text_2">
      <!-- 2023-07 -->
      <g transform="translate(441.231097 270.918437) scale(0.1 -0.1)">
       <defs>
        <path id="DejaVuSans-37" d="M 525 4666 
L 3525 4666 
L 3525 4397 
L 1831 0 
L 1172 0 
L 2766 4134 
L 525 4134 
L 525 4666 
z
" transform="scale(0.015625)"/>
       </defs>
       <use xlink:href="#DejaVuSans-32"/>
       <use xlink:href="#DejaVuSans-30" x="63.623047"/>
       <use xlink:href="#DejaVuSans-32" x="127.246094"/>
       <use xlink:href="#DejaVuSans-33" x="190.869141"/>
       <use xlink:href="#DejaVuSans-2d" x="254.492188"/>
       <use xlink:href="#DejaVuSans-30" x="290.576172"/>
       <use xlink:href="#DejaVuSans-37" x="354.199219"/>
      </g>
     </g>
    </g>
    <g id="xtick_3">
     <g id="line2d_3">
      <g>
       <use xlink:href="#m300f55d32a" x="616.799106" y="256.32" style="stroke: #000000; stroke-width: 0.8"/>
      </g>
     </g>
     <g id="text_3">
      <!-- 2023-09 -->
      <g transform="translate(595.9077 270.918437) scale(0.1 -0.1)">
       <defs>
        <path id="DejaVuSans-39" d="M 703 97 
L 703 672 
Q 941 559 1184 500 
Q 1428 441 1663 441 
Q 2288 441 2617 861 
Q 2947 1281 2994 2138 
Q 2813 1869 2534 1725 
Q 2256 1581 1919 1581 
Q 1219 1581 811 2004 
Q 403 2428 403 3163 
Q 403 3881 828 4315 
Q 1253 4750 1959 4750 
Q 2769 4750 3195 4129 
Q 3622 3509 3622 2328 
Q 3622 1225 3098 567 
Q 2575 -91 1691 -91 
Q 1453 -91 1209 -44 
Q 966 3 703 97 
z
M 1959 2075 
Q 2384 2075 2632 2365 
Q 2881 2656 2881 3163 
Q 2881 3666 2632 3958 
Q 2384 4250 1959 4250 
Q 1534 4250 1286 3958 
Q 1038 3666 1038 3163 
Q 1038 2656 1286 2365 
Q 1534 2075 1959 2075 
z
" transform="scale(0.015625)"/>
       </defs>
       <use xlink:href="#DejaVuSans-32"/>
       <use xlink:href="#DejaVuSans-30" x="63.623047"/>
       <use xlink:href="#DejaVuSans-32" x="127.246094"/>
       <use xlink:href="#DejaVuSans-33" x="190.869141"/>
       <use xlink:href="#DejaVuSans-2d" x="254.492188"/>
       <use xlink:href="#DejaVuSans-30" x="290.576172"/>
       <use xlink:href="#DejaVuSans-39" x="354.199219"/>
      </g>
     </g>
    </g>
    <g id="xtick_4">
     <g id="line2d_4">
      <g>
       <use xlink:href="#m300f55d32a" x="768.980924" y="256.32" style="stroke: #000000; stroke-width: 0.8"/>
      </g>
     </g>
     <g id="text_4">
      <!-- 2023-11 -->
      <g transform="translate(748.089518 270.918437) scale(0.1 -0.1)">
       <defs>
        <path id="DejaVuSans-31" d="M 794 531 
L 1825 531 
L 1825 4091 
L 703 3866 
L 703 4441 
L 1819 4666 
L 2450 4666 
L 2450 531 
L 3481 531 
L 3481 0 
L 794 0 
L 794 531 
z
" transform="scale(0.015625)"/>
       </defs>
       <use xlink:href="#DejaVuSans-32"/>
       <use xlink:href="#DejaVuSans-30" x="63.623047"/>
       <use xlink:href="#DejaVuSans-32" x="127.246094"/>
       <use xlink:href="#DejaVuSans-33" x="190.869141"/>
       <use xlink:href="#DejaVuSans-2d" x="254.492188"/>
       <use xlink:href="#DejaVuSans-31" x="290.576172"/>
       <use xlink:href="#DejaVuSans-31" x="354.199219"/>
      </g>
     </g>
    </g>
    <g id="xtick_5">
     <g id="line2d_5">
      <g>
       <use xlink:href="#m300f55d32a" x="921.266692" y="256.32" style="stroke: #000000; stroke-width: 0.8"/>
      </g>
     </g>
     <g id="text_5">
      <!-- 2024-01 -->
      <g transform="translate(900.375285 270.918437) scale(0.1 -0.1)">
       <defs>
        <path id="DejaVuSans-34" d="M 2419 4116 
L 825 1625 
L 2419 1625 
L 2419 4116 
z
M 2253 4666 
L 3047 4666 
L 3047 1625 
L 3713 1625 
L 3713 1100 
L 3047 1100 
L 3047 0 
L 2419 0 
L 2419 1100 
L 313 1100 
L 313 1709 
L 2253 4666 
z
" transform="scale(0.015625)"/>
       </defs>
       <use xlink:href="#DejaVuSans-32"/>
       <use xlink:href="#DejaVuSans-30" x="63.623047"/>
       <use xlink:href="#DejaVuSans-32" x="127.246094"/>
       <use xlink:href="#DejaVuSans-34" x="190.869141"/>
       <use xlink:href="#DejaVuSans-2d" x="254.492188"/>
       <use xlink:href="#DejaVuSans-30" x="290.576172"/>
       <use xlink:href="#DejaVuSans-31" x="354.199219"/>
      </g>
     </g>
    </g>
    <g id="xtick_6">
     <g id="line2d_6">
      <g>
       <use xlink:href="#m300f55d32a" x="1070.953726" y="256.32" style="stroke: #000000; stroke-width: 0.8"/>
      </g>
     </g>
     <g id="text_6">
      <!-- 2024-03 -->
      <g transform="translate(1050.06232 270.918437) scale(0.1 -0.1)">
       <use xlink:href="#DejaVuSans-32"/>
       <use xlink:href="#DejaVuSans-30" x="63.623047"/>
       <use xlink:href="#DejaVuSans-32" x="127.246094"/>
       <use xlink:href="#DejaVuSans-34" x="190.869141"/>
       <use xlink:href="#DejaVuSans-2d" x="254.492188"/>
       <use xlink:href="#DejaVuSans-30" x="290.576172"/>
       <use xlink:href="#DejaVuSans-33" x="354.199219"/>
      </g>
     </g>
    </g>
    <g id="text_7">
     <!-- Date -->
     <g transform="translate(652.249219 284.596563) scale(0.1 -0.1)">
      <defs>
       <path id="DejaVuSans-44" d="M 1259 4147 
L 1259 519 
L 2022 519 
Q 2988 519 3436 956 
Q 3884 1394 3884 2338 
Q 3884 3275 3436 3711 
Q 2988 4147 2022 4147 
L 1259 4147 
z
M 628 4666 
L 1925 4666 
Q 3281 4666 3915 4102 
Q 4550 3538 4550 2338 
Q 4550 1131 3912 565 
Q 3275 0 1925 0 
L 628 0 
L 628 4666 
z
" transform="scale(0.015625)"/>
       <path id="DejaVuSans-61" d="M 2194 1759 
Q 1497 1759 1228 1600 
Q 959 1441 959 1056 
Q 959 750 1161 570 
Q 1363 391 1709 391 
Q 2188 391 2477 730 
Q 2766 1069 2766 1631 
L 2766 1759 
L 2194 1759 
z
M 3341 1997 
L 3341 0 
L 2766 0 
L 2766 531 
Q 2569 213 2275 61 
Q 1981 -91 1556 -91 
Q 1019 -91 701 211 
Q 384 513 384 1019 
Q 384 1609 779 1909 
Q 1175 2209 1959 2209 
L 2766 2209 
L 2766 2266 
Q 2766 2663 2505 2880 
Q 2244 3097 1772 3097 
Q 1472 3097 1187 3025 
Q 903 2953 641 2809 
L 641 3341 
Q 956 3463 1253 3523 
Q 1550 3584 1831 3584 
Q 2591 3584 2966 3190 
Q 3341 2797 3341 1997 
z
" transform="scale(0.015625)"/>
       <path id="DejaVuSans-74" d="M 1172 4494 
L 1172 3500 
L 2356 3500 
L 2356 3053 
L 1172 3053 
L 1172 1153 
Q 1172 725 1289 603 
Q 1406 481 1766 481 
L 2356 481 
L 2356 0 
L 1766 0 
Q 1100 0 847 248 
Q 594 497 594 1153 
L 594 3053 
L 172 3053 
L 172 3500 
L 594 3500 
L 594 4494 
L 1172 4494 
z
" transform="scale(0.015625)"/>
       <path id="DejaVuSans-65" d="M 3597 1894 
L 3597 1613 
L 953 1613 
Q 991 1019 1311 708 
Q 1631 397 2203 397 
Q 2534 397 2845 478 
Q 3156 559 3463 722 
L 3463 178 
Q 3153 47 2828 -22 
Q 2503 -91 2169 -91 
Q 1331 -91 842 396 
Q 353 884 353 1716 
Q 353 2575 817 3079 
Q 1281 3584 2069 3584 
Q 2775 3584 3186 3129 
Q 3597 2675 3597 1894 
z
M 3022 2063 
Q 3016 2534 2758 2815 
Q 2500 3097 2075 3097 
Q 1594 3097 1305 2825 
Q 1016 2553 972 2059 
L 3022 2063 
z
" transform="scale(0.015625)"/>
      </defs>
      <use xlink:href="#DejaVuSans-44"/>
      <use xlink:href="#DejaVuSans-61" x="77.001953"/>
      <use xlink:href="#DejaVuSans-74" x="138.28125"/>
      <use xlink:href="#DejaVuSans-65" x="177.490234"/>
     </g>
    </g>
   </g>
   <g id="matplotlib.axis_2">
    <g id="ytick_1">
     <g id="line2d_7">
      <defs>
       <path id="m2d12755130" d="M 0 0 
L -3.5 0 
" style="stroke: #0000ff; stroke-width: 0.8"/>
      </defs>
      <g>
       <use xlink:href="#m2d12755130" x="162" y="247.578893" style="fill: #0000ff; stroke: #0000ff; stroke-width: 0.8"/>
      </g>
     </g>
     <g id="text_8">
      <!-- 12 -->
      <g style="fill: #0000ff" transform="translate(142.275 251.378112) scale(0.1 -0.1)">
       <use xlink:href="#DejaVuSans-31"/>
       <use xlink:href="#DejaVuSans-32" x="63.623047"/>
      </g>
     </g>
    </g>
    <g id="ytick_2">
     <g id="line2d_8">
      <g>
       <use xlink:href="#m2d12755130" x="162" y="209.324627" style="fill: #0000ff; stroke: #0000ff; stroke-width: 0.8"/>
      </g>
     </g>
     <g id="text_9">
      <!-- 14 -->
      <g style="fill: #0000ff" transform="translate(142.275 213.123846) scale(0.1 -0.1)">
       <use xlink:href="#DejaVuSans-31"/>
       <use xlink:href="#DejaVuSans-34" x="63.623047"/>
      </g>
     </g>
    </g>
    <g id="ytick_3">
     <g id="line2d_9">
      <g>
       <use xlink:href="#m2d12755130" x="162" y="171.070361" style="fill: #0000ff; stroke: #0000ff; stroke-width: 0.8"/>
      </g>
     </g>
     <g id="text_10">
      <!-- 16 -->
      <g style="fill: #0000ff" transform="translate(142.275 174.86958) scale(0.1 -0.1)">
       <defs>
        <path id="DejaVuSans-36" d="M 2113 2584 
Q 1688 2584 1439 2293 
Q 1191 2003 1191 1497 
Q 1191 994 1439 701 
Q 1688 409 2113 409 
Q 2538 409 2786 701 
Q 3034 994 3034 1497 
Q 3034 2003 2786 2293 
Q 2538 2584 2113 2584 
z
M 3366 4563 
L 3366 3988 
Q 3128 4100 2886 4159 
Q 2644 4219 2406 4219 
Q 1781 4219 1451 3797 
Q 1122 3375 1075 2522 
Q 1259 2794 1537 2939 
Q 1816 3084 2150 3084 
Q 2853 3084 3261 2657 
Q 3669 2231 3669 1497 
Q 3669 778 3244 343 
Q 2819 -91 2113 -91 
Q 1303 -91 875 529 
Q 447 1150 447 2328 
Q 447 3434 972 4092 
Q 1497 4750 2381 4750 
Q 2619 4750 2861 4703 
Q 3103 4656 3366 4563 
z
" transform="scale(0.015625)"/>
       </defs>
       <use xlink:href="#DejaVuSans-31"/>
       <use xlink:href="#DejaVuSans-36" x="63.623047"/>
      </g>
     </g>
    </g>
    <g id="ytick_4">
     <g id="line2d_10">
      <g>
       <use xlink:href="#m2d12755130" x="162" y="132.816095" style="fill: #0000ff; stroke: #0000ff; stroke-width: 0.8"/>
      </g>
     </g>
     <g id="text_11">
      <!-- 18 -->
      <g style="fill: #0000ff" transform="translate(142.275 136.615314) scale(0.1 -0.1)">
       <defs>
        <path id="DejaVuSans-38" d="M 2034 2216 
Q 1584 2216 1326 1975 
Q 1069 1734 1069 1313 
Q 1069 891 1326 650 
Q 1584 409 2034 409 
Q 2484 409 2743 651 
Q 3003 894 3003 1313 
Q 3003 1734 2745 1975 
Q 2488 2216 2034 2216 
z
M 1403 2484 
Q 997 2584 770 2862 
Q 544 3141 544 3541 
Q 544 4100 942 4425 
Q 1341 4750 2034 4750 
Q 2731 4750 3128 4425 
Q 3525 4100 3525 3541 
Q 3525 3141 3298 2862 
Q 3072 2584 2669 2484 
Q 3125 2378 3379 2068 
Q 3634 1759 3634 1313 
Q 3634 634 3220 271 
Q 2806 -91 2034 -91 
Q 1263 -91 848 271 
Q 434 634 434 1313 
Q 434 1759 690 2068 
Q 947 2378 1403 2484 
z
M 1172 3481 
Q 1172 3119 1398 2916 
Q 1625 2713 2034 2713 
Q 2441 2713 2670 2916 
Q 2900 3119 2900 3481 
Q 2900 3844 2670 4047 
Q 2441 4250 2034 4250 
Q 1625 4250 1398 4047 
Q 1172 3844 1172 3481 
z
" transform="scale(0.015625)"/>
       </defs>
       <use xlink:href="#DejaVuSans-31"/>
       <use xlink:href="#DejaVuSans-38" x="63.623047"/>
      </g>
     </g>
    </g>
    <g id="ytick_5">
     <g id="line2d_11">
      <g>
       <use xlink:href="#m2d12755130" x="162" y="94.561829" style="fill: #0000ff; stroke: #0000ff; stroke-width: 0.8"/>
      </g>
     </g>
     <g id="text_12">
      <!-- 20 -->
      <g style="fill: #0000ff" transform="translate(142.275 98.361048) scale(0.1 -0.1)">
       <use xlink:href="#DejaVuSans-32"/>
       <use xlink:href="#DejaVuSans-30" x="63.623047"/>
      </g>
     </g>
    </g>
    <g id="ytick_6">
     <g id="line2d_12">
      <g>
       <use xlink:href="#m2d12755130" x="162" y="56.307563" style="fill: #0000ff; stroke: #0000ff; stroke-width: 0.8"/>
      </g>
     </g>
     <g id="text_13">
      <!-- 22 -->
      <g style="fill: #0000ff" transform="translate(142.275 60.106782) scale(0.1 -0.1)">
       <use xlink:href="#DejaVuSans-32"/>
       <use xlink:href="#DejaVuSans-32" x="63.623047"/>
      </g>
     </g>
    </g>
    <g id="text_14">
     <!-- VIX -->
     <g style="fill: #0000ff" transform="translate(136.195312 153.760312) rotate(-90) scale(0.1 -0.1)">
      <defs>
       <path id="DejaVuSans-56" d="M 1831 0 
L 50 4666 
L 709 4666 
L 2188 738 
L 3669 4666 
L 4325 4666 
L 2547 0 
L 1831 0 
z
" transform="scale(0.015625)"/>
       <path id="DejaVuSans-49" d="M 628 4666 
L 1259 4666 
L 1259 0 
L 628 0 
L 628 4666 
z
" transform="scale(0.015625)"/>
       <path id="DejaVuSans-58" d="M 403 4666 
L 1081 4666 
L 2241 2931 
L 3406 4666 
L 4084 4666 
L 2584 2425 
L 4184 0 
L 3506 0 
L 2194 1984 
L 872 0 
L 191 0 
L 1856 2491 
L 403 4666 
z
" transform="scale(0.015625)"/>
      </defs>
      <use xlink:href="#DejaVuSans-56"/>
      <use xlink:href="#DejaVuSans-49" x="68.408203"/>
      <use xlink:href="#DejaVuSans-58" x="97.900391"/>
     </g>
    </g>
   </g>
   <g id="line2d_13">
    <path d="M 207.654545 68.166401 
L 210.149329 51.334504 
L 212.644113 44.64 
L 215.138897 61.280622 
L 222.623249 83.085542 
L 225.118033 95.135656 
L 227.612817 111.39369 
L 230.107601 113.306411 
L 232.602385 119.427087 
L 240.086736 122.296187 
L 242.58152 113.688962 
L 245.076304 112.158793 
L 247.571088 125.165249 
L 257.550224 114.262789 
L 260.045007 111.776241 
L 262.539791 111.967517 
L 265.034575 136.641536 
L 267.529359 150.604335 
L 275.013711 152.89957 
L 277.508495 155.194842 
L 280.003279 162.271898 
L 282.498063 148.691614 
L 284.992846 156.34246 
L 292.477198 154.047224 
L 294.971982 118.27947 
L 297.466766 116.7493 
L 299.96155 151.369401 
L 302.456334 175.278336 
L 309.940686 169.540192 
L 312.435469 137.024051 
L 314.930253 126.312867 
L 317.425037 92.840384 
L 319.919821 148.309063 
L 327.404173 152.32578 
L 329.898957 138.362981 
L 332.393741 153.090846 
L 334.888525 153.282122 
L 337.383308 151.369401 
L 344.86766 149.647956 
L 347.362444 133.007371 
L 349.857228 154.429739 
L 352.352012 170.114019 
L 354.846796 155.577394 
L 362.331148 147.926548 
L 364.825931 122.678701 
L 367.320715 93.988002 
L 369.815499 111.011175 
L 372.310283 133.772437 
L 382.289419 143.144764 
L 384.784203 133.963713 
L 387.278987 177.764865 
L 389.77377 197.84834 
L 397.258122 195.361829 
L 399.752906 210.089712 
L 402.24769 210.472263 
L 404.742474 216.019131 
L 407.237258 212.576241 
L 414.72161 190.006219 
L 417.216393 197.657083 
L 419.711177 211.619881 
L 422.205961 199.761061 
L 424.700745 218.123109 
L 434.679881 211.619881 
L 437.174665 224.626337 
L 439.669449 230.173205 
L 442.164232 220.03583 
L 449.648584 204.542844 
L 452.143368 214.297686 
L 454.638152 220.227087 
L 457.132936 218.123109 
L 459.62772 217.166749 
L 467.112072 217.5493 
L 472.101639 205.881738 
L 474.596423 181.781564 
L 477.091207 193.449108 
L 484.575559 188.858601 
L 487.070343 193.257833 
L 489.565127 218.123109 
L 492.059911 216.784216 
L 494.554694 221.948532 
L 502.039046 219.270745 
L 504.53383 222.713617 
L 507.028614 213.915135 
L 509.523398 209.515903 
L 512.018182 216.975473 
L 519.502534 211.046072 
L 521.997317 212.002433 
L 524.492101 224.817613 
L 526.986885 201.482506 
L 529.481669 222.139808 
L 536.966021 216.401664 
L 539.460805 210.663521 
L 541.955589 169.348916 
L 544.450373 172.60053 
L 546.945156 150.030508 
L 554.429508 175.469593 
L 556.924292 171.261637 
L 559.419076 171.835446 
L 561.91386 173.939424 
L 564.408644 193.257833 
L 571.892996 193.640384 
L 574.387779 162.271898 
L 576.882563 156.151184 
L 579.377347 134.920091 
L 581.872131 146.205103 
L 589.356483 149.456717 
L 591.851267 152.517055 
L 594.346051 171.452913 
L 596.840835 148.117787 
L 599.335618 177.191038 
L 606.81997 188.667325 
L 609.314754 200.717421 
L 611.809538 211.619881 
L 614.304322 217.5493 
L 616.799106 226.730316 
L 626.778241 209.133352 
L 629.273025 200.717421 
L 631.767809 201.673781 
L 634.262593 212.384966 
L 641.746945 213.15005 
L 644.241729 204.925396 
L 646.736513 219.270745 
L 649.231297 231.89465 
L 651.72608 213.341326 
L 659.210432 209.324627 
L 661.705216 207.220649 
L 664.2 187.519689 
L 666.694784 141.614559 
L 669.189568 148.117787 
L 676.67392 153.855949 
L 679.168703 114.83658 
L 681.663487 128.608139 
L 684.158271 145.44 
L 686.653055 141.99711 
L 694.137407 140.275665 
L 696.632191 98.769785 
L 699.126975 121.722359 
L 701.621759 123.443804 
L 704.116542 143.336004 
L 711.600894 138.55422 
L 714.095678 151.369401 
L 716.590462 169.348916 
L 719.085246 157.872629 
L 721.58003 107.568285 
L 729.064382 147.926548 
L 731.559165 135.111367 
L 734.053949 109.481006 
L 736.548733 67.78385 
L 739.043517 61.854449 
L 746.527869 87.484774 
L 749.022653 114.262789 
L 751.517437 90.927663 
L 754.012221 81.555373 
L 756.507004 70.270361 
L 763.991356 99.343612 
L 766.48614 130.138308 
L 768.980924 154.429739 
L 771.475708 177.573589 
L 773.970492 191.918939 
L 781.558793 192.301472 
L 784.053577 193.831642 
L 786.548361 200.717421 
L 789.043145 184.650626 
L 791.537928 206.073013 
L 799.02228 194.788002 
L 801.517064 206.264289 
L 804.011848 205.881738 
L 806.506632 203.203951 
L 809.001416 213.15005 
L 816.485768 220.609639 
L 818.980551 221.757257 
L 821.475335 231.320823 
L 826.464903 238.780412 
L 833.949255 234.38118 
L 836.444039 234.38118 
L 838.938823 228.834312 
L 841.433607 229.98193 
L 843.92839 235.528797 
L 851.412742 226.921591 
L 853.907526 231.320823 
L 856.40231 229.025569 
L 858.897094 227.304124 
L 861.391878 240.88439 
L 868.87623 235.528797 
L 871.371013 246.24 
L 873.865797 243.944746 
L 876.360581 238.397878 
L 878.855365 242.223301 
L 886.339717 236.867691 
L 888.834501 237.441518 
L 891.329285 215.63658 
L 893.824069 216.019131 
L 896.318852 227.877952 
L 906.297988 228.643036 
L 908.792772 239.35422 
L 911.287556 238.589136 
L 913.78234 238.971687 
L 923.761475 224.626337 
L 926.256259 208.559543 
L 928.751043 206.838098 
L 931.245827 221.757257 
L 938.730179 226.921591 
L 941.224963 233.042268 
L 943.719747 234.38118 
L 946.214531 239.162963 
L 948.709314 234.189904 
L 958.68845 212.384966 
L 961.183234 194.214193 
L 963.678018 206.838098 
L 966.172802 222.713617 
L 973.657154 224.817613 
L 976.151937 237.058967 
L 978.646721 225.773955 
L 981.141505 219.844554 
L 983.636289 223.478701 
L 991.120641 216.975473 
L 993.615425 222.522341 
L 996.110209 202.630123 
L 998.604993 211.619881 
L 1001.099776 212.19369 
L 1008.584128 215.63658 
L 1011.078912 227.304124 
L 1013.573696 231.703374 
L 1016.06848 232.468459 
L 1018.563264 229.790654 
L 1026.047615 210.663521 
L 1028.542399 173.939424 
L 1031.037183 202.056315 
L 1033.531967 209.133352 
L 1036.026751 204.73412 
L 1046.005887 182.164097 
L 1048.500671 183.694266 
L 1053.490238 214.106411 
L 1060.97459 214.297686 
L 1063.469374 220.227087 
L 1065.964158 212.384966 
L 1068.458942 220.800914 
L 1070.953726 226.347782 
L 1078.438077 219.07947 
L 1080.932861 200.526145 
L 1083.427645 199.761061 
L 1085.922429 200.908697 
L 1088.417213 195.170553 
L 1095.797615 185.98952 
L 1098.292399 212.384966 
L 1100.787183 214.106411 
L 1103.281967 201.673781 
L 1105.776751 201.482506 
L 1113.261103 203.012675 
L 1115.755887 212.767517 
L 1118.250671 227.686676 
L 1120.745455 229.408121 
L 1120.745455 229.408121 
" clip-path="url(#pbec52e62ea)" style="fill: none; stroke: #0000ff; stroke-width: 1.5; stroke-linecap: square"/>
   </g>
   <g id="patch_3">
    <path d="M 162 256.32 
L 162 34.56 
" style="fill: none; stroke: #000000; stroke-width: 0.8; stroke-linejoin: miter; stroke-linecap: square"/>
   </g>
   <g id="patch_4">
    <path d="M 1166.4 256.32 
L 1166.4 34.56 
" style="fill: none; stroke: #000000; stroke-width: 0.8; stroke-linejoin: miter; stroke-linecap: square"/>
   </g>
   <g id="patch_5">
    <path d="M 162 256.32 
L 1166.4 256.32 
" style="fill: none; stroke: #000000; stroke-width: 0.8; stroke-linejoin: miter; stroke-linecap: square"/>
   </g>
   <g id="patch_6">
    <path d="M 162 34.56 
L 1166.4 34.56 
" style="fill: none; stroke: #000000; stroke-width: 0.8; stroke-linejoin: miter; stroke-linecap: square"/>
   </g>
  </g>
  <g id="axes_2">
   <g id="matplotlib.axis_3">
    <g id="ytick_7">
     <g id="line2d_14">
      <defs>
       <path id="m8c8bc22b9e" d="M 0 0 
L 3.5 0 
" style="stroke: #ff0000; stroke-width: 0.8"/>
      </defs>
      <g>
       <use xlink:href="#m8c8bc22b9e" x="1166.4" y="233.901705" style="fill: #ff0000; stroke: #ff0000; stroke-width: 0.8"/>
      </g>
     </g>
     <g id="text_15">
      <!-- 0.2 -->
      <g style="fill: #ff0000" transform="translate(1173.4 237.700923) scale(0.1 -0.1)">
       <defs>
        <path id="DejaVuSans-2e" d="M 684 794 
L 1344 794 
L 1344 0 
L 684 0 
L 684 794 
z
" transform="scale(0.015625)"/>
       </defs>
       <use xlink:href="#DejaVuSans-30"/>
       <use xlink:href="#DejaVuSans-2e" x="63.623047"/>
       <use xlink:href="#DejaVuSans-32" x="95.410156"/>
      </g>
     </g>
    </g>
    <g id="ytick_8">
     <g id="line2d_15">
      <g>
       <use xlink:href="#m8c8bc22b9e" x="1166.4" y="206.843138" style="fill: #ff0000; stroke: #ff0000; stroke-width: 0.8"/>
      </g>
     </g>
     <g id="text_16">
      <!-- 0.3 -->
      <g style="fill: #ff0000" transform="translate(1173.4 210.642357) scale(0.1 -0.1)">
       <use xlink:href="#DejaVuSans-30"/>
       <use xlink:href="#DejaVuSans-2e" x="63.623047"/>
       <use xlink:href="#DejaVuSans-33" x="95.410156"/>
      </g>
     </g>
    </g>
    <g id="ytick_9">
     <g id="line2d_16">
      <g>
       <use xlink:href="#m8c8bc22b9e" x="1166.4" y="179.784571" style="fill: #ff0000; stroke: #ff0000; stroke-width: 0.8"/>
      </g>
     </g>
     <g id="text_17">
      <!-- 0.4 -->
      <g style="fill: #ff0000" transform="translate(1173.4 183.58379) scale(0.1 -0.1)">
       <use xlink:href="#DejaVuSans-30"/>
       <use xlink:href="#DejaVuSans-2e" x="63.623047"/>
       <use xlink:href="#DejaVuSans-34" x="95.410156"/>
      </g>
     </g>
    </g>
    <g id="ytick_10">
     <g id="line2d_17">
      <g>
       <use xlink:href="#m8c8bc22b9e" x="1166.4" y="152.726004" style="fill: #ff0000; stroke: #ff0000; stroke-width: 0.8"/>
      </g>
     </g>
     <g id="text_18">
      <!-- 0.5 -->
      <g style="fill: #ff0000" transform="translate(1173.4 156.525223) scale(0.1 -0.1)">
       <use xlink:href="#DejaVuSans-30"/>
       <use xlink:href="#DejaVuSans-2e" x="63.623047"/>
       <use xlink:href="#DejaVuSans-35" x="95.410156"/>
      </g>
     </g>
    </g>
    <g id="ytick_11">
     <g id="line2d_18">
      <g>
       <use xlink:href="#m8c8bc22b9e" x="1166.4" y="125.667438" style="fill: #ff0000; stroke: #ff0000; stroke-width: 0.8"/>
      </g>
     </g>
     <g id="text_19">
      <!-- 0.6 -->
      <g style="fill: #ff0000" transform="translate(1173.4 129.466656) scale(0.1 -0.1)">
       <use xlink:href="#DejaVuSans-30"/>
       <use xlink:href="#DejaVuSans-2e" x="63.623047"/>
       <use xlink:href="#DejaVuSans-36" x="95.410156"/>
      </g>
     </g>
    </g>
    <g id="ytick_12">
     <g id="line2d_19">
      <g>
       <use xlink:href="#m8c8bc22b9e" x="1166.4" y="98.608871" style="fill: #ff0000; stroke: #ff0000; stroke-width: 0.8"/>
      </g>
     </g>
     <g id="text_20">
      <!-- 0.7 -->
      <g style="fill: #ff0000" transform="translate(1173.4 102.40809) scale(0.1 -0.1)">
       <use xlink:href="#DejaVuSans-30"/>
       <use xlink:href="#DejaVuSans-2e" x="63.623047"/>
       <use xlink:href="#DejaVuSans-37" x="95.410156"/>
      </g>
     </g>
    </g>
    <g id="ytick_13">
     <g id="line2d_20">
      <g>
       <use xlink:href="#m8c8bc22b9e" x="1166.4" y="71.550304" style="fill: #ff0000; stroke: #ff0000; stroke-width: 0.8"/>
      </g>
     </g>
     <g id="text_21">
      <!-- 0.8 -->
      <g style="fill: #ff0000" transform="translate(1173.4 75.349523) scale(0.1 -0.1)">
       <use xlink:href="#DejaVuSans-30"/>
       <use xlink:href="#DejaVuSans-2e" x="63.623047"/>
       <use xlink:href="#DejaVuSans-38" x="95.410156"/>
      </g>
     </g>
    </g>
    <g id="ytick_14">
     <g id="line2d_21">
      <g>
       <use xlink:href="#m8c8bc22b9e" x="1166.4" y="44.491737" style="fill: #ff0000; stroke: #ff0000; stroke-width: 0.8"/>
      </g>
     </g>
     <g id="text_22">
      <!-- 0.9 -->
      <g style="fill: #ff0000" transform="translate(1173.4 48.290956) scale(0.1 -0.1)">
       <use xlink:href="#DejaVuSans-30"/>
       <use xlink:href="#DejaVuSans-2e" x="63.623047"/>
       <use xlink:href="#DejaVuSans-39" x="95.410156"/>
      </g>
     </g>
    </g>
    <g id="text_23">
     <!-- Indicator -->
     <g style="fill: #ff0000" transform="translate(1200.901563 167.535313) rotate(-90) scale(0.1 -0.1)">
      <defs>
       <path id="DejaVuSans-6e" d="M 3513 2113 
L 3513 0 
L 2938 0 
L 2938 2094 
Q 2938 2591 2744 2837 
Q 2550 3084 2163 3084 
Q 1697 3084 1428 2787 
Q 1159 2491 1159 1978 
L 1159 0 
L 581 0 
L 581 3500 
L 1159 3500 
L 1159 2956 
Q 1366 3272 1645 3428 
Q 1925 3584 2291 3584 
Q 2894 3584 3203 3211 
Q 3513 2838 3513 2113 
z
" transform="scale(0.015625)"/>
       <path id="DejaVuSans-64" d="M 2906 2969 
L 2906 4863 
L 3481 4863 
L 3481 0 
L 2906 0 
L 2906 525 
Q 2725 213 2448 61 
Q 2172 -91 1784 -91 
Q 1150 -91 751 415 
Q 353 922 353 1747 
Q 353 2572 751 3078 
Q 1150 3584 1784 3584 
Q 2172 3584 2448 3432 
Q 2725 3281 2906 2969 
z
M 947 1747 
Q 947 1113 1208 752 
Q 1469 391 1925 391 
Q 2381 391 2643 752 
Q 2906 1113 2906 1747 
Q 2906 2381 2643 2742 
Q 2381 3103 1925 3103 
Q 1469 3103 1208 2742 
Q 947 2381 947 1747 
z
" transform="scale(0.015625)"/>
       <path id="DejaVuSans-69" d="M 603 3500 
L 1178 3500 
L 1178 0 
L 603 0 
L 603 3500 
z
M 603 4863 
L 1178 4863 
L 1178 4134 
L 603 4134 
L 603 4863 
z
" transform="scale(0.015625)"/>
       <path id="DejaVuSans-63" d="M 3122 3366 
L 3122 2828 
Q 2878 2963 2633 3030 
Q 2388 3097 2138 3097 
Q 1578 3097 1268 2742 
Q 959 2388 959 1747 
Q 959 1106 1268 751 
Q 1578 397 2138 397 
Q 2388 397 2633 464 
Q 2878 531 3122 666 
L 3122 134 
Q 2881 22 2623 -34 
Q 2366 -91 2075 -91 
Q 1284 -91 818 406 
Q 353 903 353 1747 
Q 353 2603 823 3093 
Q 1294 3584 2113 3584 
Q 2378 3584 2631 3529 
Q 2884 3475 3122 3366 
z
" transform="scale(0.015625)"/>
       <path id="DejaVuSans-6f" d="M 1959 3097 
Q 1497 3097 1228 2736 
Q 959 2375 959 1747 
Q 959 1119 1226 758 
Q 1494 397 1959 397 
Q 2419 397 2687 759 
Q 2956 1122 2956 1747 
Q 2956 2369 2687 2733 
Q 2419 3097 1959 3097 
z
M 1959 3584 
Q 2709 3584 3137 3096 
Q 3566 2609 3566 1747 
Q 3566 888 3137 398 
Q 2709 -91 1959 -91 
Q 1206 -91 779 398 
Q 353 888 353 1747 
Q 353 2609 779 3096 
Q 1206 3584 1959 3584 
z
" transform="scale(0.015625)"/>
       <path id="DejaVuSans-72" d="M 2631 2963 
Q 2534 3019 2420 3045 
Q 2306 3072 2169 3072 
Q 1681 3072 1420 2755 
Q 1159 2438 1159 1844 
L 1159 0 
L 581 0 
L 581 3500 
L 1159 3500 
L 1159 2956 
Q 1341 3275 1631 3429 
Q 1922 3584 2338 3584 
Q 2397 3584 2469 3576 
Q 2541 3569 2628 3553 
L 2631 2963 
z
" transform="scale(0.015625)"/>
      </defs>
      <use xlink:href="#DejaVuSans-49"/>
      <use xlink:href="#DejaVuSans-6e" x="29.492188"/>
      <use xlink:href="#DejaVuSans-64" x="92.871094"/>
      <use xlink:href="#DejaVuSans-69" x="156.347656"/>
      <use xlink:href="#DejaVuSans-63" x="184.130859"/>
      <use xlink:href="#DejaVuSans-61" x="239.111328"/>
      <use xlink:href="#DejaVuSans-74" x="300.390625"/>
      <use xlink:href="#DejaVuSans-6f" x="339.599609"/>
      <use xlink:href="#DejaVuSans-72" x="400.78125"/>
     </g>
    </g>
   </g>
   <g id="line2d_22">
    <path d="M 207.654545 45.484424 
L 212.644113 44.810443 
L 215.138897 44.708639 
L 232.602385 44.784654 
L 240.086736 44.931283 
L 245.076304 45.666584 
L 247.571088 45.964842 
L 257.550224 46.266716 
L 265.034575 46.996599 
L 267.529359 47.304925 
L 275.013711 47.497412 
L 277.508495 47.723869 
L 280.003279 48.132791 
L 282.498063 48.39338 
L 284.992846 49.212993 
L 292.477198 50.415805 
L 294.971982 51.714625 
L 297.466766 52.602319 
L 299.96155 54.422427 
L 302.456334 56.042656 
L 309.940686 58.45551 
L 312.435469 60.314162 
L 314.930253 61.277948 
L 317.425037 61.999696 
L 319.919821 63.938844 
L 327.404173 65.824138 
L 329.898957 67.064113 
L 332.393741 68.451039 
L 337.383308 70.528145 
L 347.362444 71.673523 
L 349.857228 72.874546 
L 352.352012 74.69785 
L 354.846796 75.71337 
L 364.825931 77.281394 
L 367.320715 76.636924 
L 369.815499 75.745999 
L 372.310283 75.177962 
L 382.289419 74.854731 
L 384.784203 74.165887 
L 387.278987 74.666595 
L 389.77377 76.327469 
L 397.258122 77.729741 
L 399.752906 79.887387 
L 402.24769 83.858057 
L 404.742474 88.8355 
L 407.237258 92.34062 
L 414.72161 93.240375 
L 417.216393 95.023456 
L 419.711177 100.205563 
L 422.205961 106.027069 
L 424.700745 117.858469 
L 434.679881 124.816833 
L 437.174665 133.531211 
L 439.669449 145.518641 
L 442.164232 154.585801 
L 449.648584 161.501882 
L 452.143368 169.7441 
L 454.638152 178.432414 
L 457.132936 187.896959 
L 459.62772 194.10782 
L 467.112072 198.381664 
L 472.101639 202.539821 
L 474.596423 205.135485 
L 477.091207 210.081235 
L 484.575559 215.818742 
L 487.070343 220.099472 
L 489.565127 223.937724 
L 492.059911 226.905145 
L 494.554694 230.057361 
L 502.039046 231.415389 
L 504.53383 232.193312 
L 507.028614 232.75732 
L 509.523398 232.740081 
L 512.018182 232.934701 
L 521.997317 232.768805 
L 524.492101 233.790508 
L 526.986885 233.900023 
L 529.481669 234.198457 
L 536.966021 234.662505 
L 539.460805 234.455683 
L 541.955589 233.246067 
L 544.450373 231.663523 
L 546.945156 228.998459 
L 554.429508 227.382142 
L 556.924292 226.105339 
L 559.419076 224.382037 
L 561.91386 222.372049 
L 564.408644 221.230861 
L 571.892996 220.108768 
L 579.377347 211.713354 
L 581.872131 208.623007 
L 589.356483 205.840744 
L 591.851267 202.750895 
L 594.346051 198.924018 
L 596.840835 192.689465 
L 599.335618 188.215041 
L 606.81997 184.964098 
L 609.314754 182.531777 
L 611.809538 182.27341 
L 614.304322 183.173944 
L 616.799106 184.253259 
L 626.778241 184.04286 
L 629.273025 182.789287 
L 631.767809 180.15379 
L 634.262593 181.406028 
L 641.746945 180.374848 
L 644.241729 179.03986 
L 646.736513 180.043045 
L 649.231297 186.973788 
L 651.72608 191.140271 
L 659.210432 196.717923 
L 661.705216 199.476506 
L 664.2 200.830136 
L 666.694784 198.282403 
L 669.189568 195.995226 
L 676.67392 192.301409 
L 679.168703 184.148135 
L 681.663487 180.35277 
L 684.158271 179.1071 
L 686.653055 179.932152 
L 694.137407 179.241419 
L 696.632191 173.120839 
L 699.126975 169.22997 
L 701.621759 162.954858 
L 704.116542 162.318632 
L 711.600894 157.126575 
L 714.095678 152.065912 
L 716.590462 147.813038 
L 719.085246 140.629301 
L 721.58003 126.843448 
L 729.064382 118.058981 
L 731.559165 110.740562 
L 734.053949 102.915054 
L 736.548733 93.501697 
L 739.043517 85.224389 
L 746.527869 79.703871 
L 749.022653 76.320785 
L 754.012221 68.17825 
L 756.507004 64.953658 
L 763.991356 62.794169 
L 766.48614 61.418656 
L 768.980924 60.859265 
L 771.475708 61.468005 
L 773.970492 62.238872 
L 781.558793 62.943717 
L 786.548361 66.003813 
L 789.043145 66.883461 
L 791.537928 68.408475 
L 799.02228 69.799765 
L 801.517064 72.834059 
L 804.011848 75.524964 
L 809.001416 81.167831 
L 816.485768 84.847135 
L 821.475335 91.91635 
L 826.464903 97.093167 
L 833.949255 106.859094 
L 836.444039 114.885527 
L 838.938823 124.971033 
L 841.433607 139.900154 
L 843.92839 162.471484 
L 851.412742 182.896323 
L 853.907526 197.278661 
L 856.40231 206.451493 
L 858.897094 215.184214 
L 861.391878 223.136415 
L 868.87623 229.550022 
L 871.371013 234.128274 
L 873.865797 237.129292 
L 876.360581 239.097509 
L 878.855365 240.491146 
L 886.339717 241.404187 
L 888.834501 242.278732 
L 891.329285 242.686857 
L 893.824069 242.967928 
L 896.318852 243.739153 
L 906.297988 244.128991 
L 908.792772 244.874296 
L 913.78234 245.913155 
L 923.761475 246.24 
L 926.256259 246.170496 
L 928.751043 245.960238 
L 938.730179 245.892515 
L 943.719747 245.803771 
L 948.709314 245.960238 
L 958.68845 245.687703 
L 961.183234 245.030159 
L 963.678018 244.701212 
L 966.172802 244.558306 
L 973.657154 244.488013 
L 976.151937 244.650535 
L 981.141505 244.132259 
L 983.636289 243.739153 
L 991.120641 243.261877 
L 993.615425 242.974899 
L 996.110209 242.238868 
L 1001.099776 241.255659 
L 1008.584128 241.255659 
L 1011.078912 241.479904 
L 1016.06848 241.630432 
L 1026.047615 240.881122 
L 1028.542399 239.507665 
L 1031.037183 239.007586 
L 1036.026751 238.973224 
L 1046.005887 238.063067 
L 1048.500671 237.020793 
L 1050.995455 236.161631 
L 1053.490238 235.633012 
L 1060.97459 234.966538 
L 1063.469374 234.583183 
L 1065.964158 234.583183 
L 1068.458942 235.307453 
L 1070.953726 235.824016 
L 1078.438077 235.728726 
L 1080.932861 235.080769 
L 1083.427645 234.047021 
L 1088.417213 232.595918 
L 1095.797615 231.433631 
L 1098.292399 231.287279 
L 1100.787183 231.016605 
L 1103.281967 230.985652 
L 1105.776751 230.655063 
L 1115.755887 230.256107 
L 1120.745455 230.192172 
L 1120.745455 230.192172 
" clip-path="url(#pbec52e62ea)" style="fill: none; stroke: #ff0000; stroke-width: 1.5; stroke-linecap: square"/>
   </g>
   <g id="patch_7">
    <path d="M 162 256.32 
L 162 34.56 
" style="fill: none; stroke: #000000; stroke-width: 0.8; stroke-linejoin: miter; stroke-linecap: square"/>
   </g>
   <g id="patch_8">
    <path d="M 1166.4 256.32 
L 1166.4 34.56 
" style="fill: none; stroke: #000000; stroke-width: 0.8; stroke-linejoin: miter; stroke-linecap: square"/>
   </g>
   <g id="patch_9">
    <path d="M 162 256.32 
L 1166.4 256.32 
" style="fill: none; stroke: #000000; stroke-width: 0.8; stroke-linejoin: miter; stroke-linecap: square"/>
   </g>
   <g id="patch_10">
    <path d="M 162 34.56 
L 1166.4 34.56 
" style="fill: none; stroke: #000000; stroke-width: 0.8; stroke-linejoin: miter; stroke-linecap: square"/>
   </g>
   <g id="text_24">
    <!-- VIX and Cumulative Probability Indicator (smoothed 30 periods) - 1Y (Updated 2024-03-21 17:52:10) -->
    <g transform="translate(361.360313 28.56) scale(0.12 -0.12)">
     <defs>
      <path id="DejaVuSans-20" transform="scale(0.015625)"/>
      <path id="DejaVuSans-43" d="M 4122 4306 
L 4122 3641 
Q 3803 3938 3442 4084 
Q 3081 4231 2675 4231 
Q 1875 4231 1450 3742 
Q 1025 3253 1025 2328 
Q 1025 1406 1450 917 
Q 1875 428 2675 428 
Q 3081 428 3442 575 
Q 3803 722 4122 1019 
L 4122 359 
Q 3791 134 3420 21 
Q 3050 -91 2638 -91 
Q 1578 -91 968 557 
Q 359 1206 359 2328 
Q 359 3453 968 4101 
Q 1578 4750 2638 4750 
Q 3056 4750 3426 4639 
Q 3797 4528 4122 4306 
z
" transform="scale(0.015625)"/>
      <path id="DejaVuSans-75" d="M 544 1381 
L 544 3500 
L 1119 3500 
L 1119 1403 
Q 1119 906 1312 657 
Q 1506 409 1894 409 
Q 2359 409 2629 706 
Q 2900 1003 2900 1516 
L 2900 3500 
L 3475 3500 
L 3475 0 
L 2900 0 
L 2900 538 
Q 2691 219 2414 64 
Q 2138 -91 1772 -91 
Q 1169 -91 856 284 
Q 544 659 544 1381 
z
M 1991 3584 
L 1991 3584 
z
" transform="scale(0.015625)"/>
      <path id="DejaVuSans-6d" d="M 3328 2828 
Q 3544 3216 3844 3400 
Q 4144 3584 4550 3584 
Q 5097 3584 5394 3201 
Q 5691 2819 5691 2113 
L 5691 0 
L 5113 0 
L 5113 2094 
Q 5113 2597 4934 2840 
Q 4756 3084 4391 3084 
Q 3944 3084 3684 2787 
Q 3425 2491 3425 1978 
L 3425 0 
L 2847 0 
L 2847 2094 
Q 2847 2600 2669 2842 
Q 2491 3084 2119 3084 
Q 1678 3084 1418 2786 
Q 1159 2488 1159 1978 
L 1159 0 
L 581 0 
L 581 3500 
L 1159 3500 
L 1159 2956 
Q 1356 3278 1631 3431 
Q 1906 3584 2284 3584 
Q 2666 3584 2933 3390 
Q 3200 3197 3328 2828 
z
" transform="scale(0.015625)"/>
      <path id="DejaVuSans-6c" d="M 603 4863 
L 1178 4863 
L 1178 0 
L 603 0 
L 603 4863 
z
" transform="scale(0.015625)"/>
      <path id="DejaVuSans-76" d="M 191 3500 
L 800 3500 
L 1894 563 
L 2988 3500 
L 3597 3500 
L 2284 0 
L 1503 0 
L 191 3500 
z
" transform="scale(0.015625)"/>
      <path id="DejaVuSans-50" d="M 1259 4147 
L 1259 2394 
L 2053 2394 
Q 2494 2394 2734 2622 
Q 2975 2850 2975 3272 
Q 2975 3691 2734 3919 
Q 2494 4147 2053 4147 
L 1259 4147 
z
M 628 4666 
L 2053 4666 
Q 2838 4666 3239 4311 
Q 3641 3956 3641 3272 
Q 3641 2581 3239 2228 
Q 2838 1875 2053 1875 
L 1259 1875 
L 1259 0 
L 628 0 
L 628 4666 
z
" transform="scale(0.015625)"/>
      <path id="DejaVuSans-62" d="M 3116 1747 
Q 3116 2381 2855 2742 
Q 2594 3103 2138 3103 
Q 1681 3103 1420 2742 
Q 1159 2381 1159 1747 
Q 1159 1113 1420 752 
Q 1681 391 2138 391 
Q 2594 391 2855 752 
Q 3116 1113 3116 1747 
z
M 1159 2969 
Q 1341 3281 1617 3432 
Q 1894 3584 2278 3584 
Q 2916 3584 3314 3078 
Q 3713 2572 3713 1747 
Q 3713 922 3314 415 
Q 2916 -91 2278 -91 
Q 1894 -91 1617 61 
Q 1341 213 1159 525 
L 1159 0 
L 581 0 
L 581 4863 
L 1159 4863 
L 1159 2969 
z
" transform="scale(0.015625)"/>
      <path id="DejaVuSans-79" d="M 2059 -325 
Q 1816 -950 1584 -1140 
Q 1353 -1331 966 -1331 
L 506 -1331 
L 506 -850 
L 844 -850 
Q 1081 -850 1212 -737 
Q 1344 -625 1503 -206 
L 1606 56 
L 191 3500 
L 800 3500 
L 1894 763 
L 2988 3500 
L 3597 3500 
L 2059 -325 
z
" transform="scale(0.015625)"/>
      <path id="DejaVuSans-28" d="M 1984 4856 
Q 1566 4138 1362 3434 
Q 1159 2731 1159 2009 
Q 1159 1288 1364 580 
Q 1569 -128 1984 -844 
L 1484 -844 
Q 1016 -109 783 600 
Q 550 1309 550 2009 
Q 550 2706 781 3412 
Q 1013 4119 1484 4856 
L 1984 4856 
z
" transform="scale(0.015625)"/>
      <path id="DejaVuSans-73" d="M 2834 3397 
L 2834 2853 
Q 2591 2978 2328 3040 
Q 2066 3103 1784 3103 
Q 1356 3103 1142 2972 
Q 928 2841 928 2578 
Q 928 2378 1081 2264 
Q 1234 2150 1697 2047 
L 1894 2003 
Q 2506 1872 2764 1633 
Q 3022 1394 3022 966 
Q 3022 478 2636 193 
Q 2250 -91 1575 -91 
Q 1294 -91 989 -36 
Q 684 19 347 128 
L 347 722 
Q 666 556 975 473 
Q 1284 391 1588 391 
Q 1994 391 2212 530 
Q 2431 669 2431 922 
Q 2431 1156 2273 1281 
Q 2116 1406 1581 1522 
L 1381 1569 
Q 847 1681 609 1914 
Q 372 2147 372 2553 
Q 372 3047 722 3315 
Q 1072 3584 1716 3584 
Q 2034 3584 2315 3537 
Q 2597 3491 2834 3397 
z
" transform="scale(0.015625)"/>
      <path id="DejaVuSans-68" d="M 3513 2113 
L 3513 0 
L 2938 0 
L 2938 2094 
Q 2938 2591 2744 2837 
Q 2550 3084 2163 3084 
Q 1697 3084 1428 2787 
Q 1159 2491 1159 1978 
L 1159 0 
L 581 0 
L 581 4863 
L 1159 4863 
L 1159 2956 
Q 1366 3272 1645 3428 
Q 1925 3584 2291 3584 
Q 2894 3584 3203 3211 
Q 3513 2838 3513 2113 
z
" transform="scale(0.015625)"/>
      <path id="DejaVuSans-70" d="M 1159 525 
L 1159 -1331 
L 581 -1331 
L 581 3500 
L 1159 3500 
L 1159 2969 
Q 1341 3281 1617 3432 
Q 1894 3584 2278 3584 
Q 2916 3584 3314 3078 
Q 3713 2572 3713 1747 
Q 3713 922 3314 415 
Q 2916 -91 2278 -91 
Q 1894 -91 1617 61 
Q 1341 213 1159 525 
z
M 3116 1747 
Q 3116 2381 2855 2742 
Q 2594 3103 2138 3103 
Q 1681 3103 1420 2742 
Q 1159 2381 1159 1747 
Q 1159 1113 1420 752 
Q 1681 391 2138 391 
Q 2594 391 2855 752 
Q 3116 1113 3116 1747 
z
" transform="scale(0.015625)"/>
      <path id="DejaVuSans-29" d="M 513 4856 
L 1013 4856 
Q 1481 4119 1714 3412 
Q 1947 2706 1947 2009 
Q 1947 1309 1714 600 
Q 1481 -109 1013 -844 
L 513 -844 
Q 928 -128 1133 580 
Q 1338 1288 1338 2009 
Q 1338 2731 1133 3434 
Q 928 4138 513 4856 
z
" transform="scale(0.015625)"/>
      <path id="DejaVuSans-59" d="M -13 4666 
L 666 4666 
L 1959 2747 
L 3244 4666 
L 3922 4666 
L 2272 2222 
L 2272 0 
L 1638 0 
L 1638 2222 
L -13 4666 
z
" transform="scale(0.015625)"/>
      <path id="DejaVuSans-55" d="M 556 4666 
L 1191 4666 
L 1191 1831 
Q 1191 1081 1462 751 
Q 1734 422 2344 422 
Q 2950 422 3222 751 
Q 3494 1081 3494 1831 
L 3494 4666 
L 4128 4666 
L 4128 1753 
Q 4128 841 3676 375 
Q 3225 -91 2344 -91 
Q 1459 -91 1007 375 
Q 556 841 556 1753 
L 556 4666 
z
" transform="scale(0.015625)"/>
      <path id="DejaVuSans-3a" d="M 750 794 
L 1409 794 
L 1409 0 
L 750 0 
L 750 794 
z
M 750 3309 
L 1409 3309 
L 1409 2516 
L 750 2516 
L 750 3309 
z
" transform="scale(0.015625)"/>
     </defs>
     <use xlink:href="#DejaVuSans-56"/>
     <use xlink:href="#DejaVuSans-49" x="68.408203"/>
     <use xlink:href="#DejaVuSans-58" x="97.900391"/>
     <use xlink:href="#DejaVuSans-20" x="166.40625"/>
     <use xlink:href="#DejaVuSans-61" x="198.193359"/>
     <use xlink:href="#DejaVuSans-6e" x="259.472656"/>
     <use xlink:href="#DejaVuSans-64" x="322.851562"/>
     <use xlink:href="#DejaVuSans-20" x="386.328125"/>
     <use xlink:href="#DejaVuSans-43" x="418.115234"/>
     <use xlink:href="#DejaVuSans-75" x="487.939453"/>
     <use xlink:href="#DejaVuSans-6d" x="551.318359"/>
     <use xlink:href="#DejaVuSans-75" x="648.730469"/>
     <use xlink:href="#DejaVuSans-6c" x="712.109375"/>
     <use xlink:href="#DejaVuSans-61" x="739.892578"/>
     <use xlink:href="#DejaVuSans-74" x="801.171875"/>
     <use xlink:href="#DejaVuSans-69" x="840.380859"/>
     <use xlink:href="#DejaVuSans-76" x="868.164062"/>
     <use xlink:href="#DejaVuSans-65" x="927.34375"/>
     <use xlink:href="#DejaVuSans-20" x="988.867188"/>
     <use xlink:href="#DejaVuSans-50" x="1020.654297"/>
     <use xlink:href="#DejaVuSans-72" x="1079.207031"/>
     <use xlink:href="#DejaVuSans-6f" x="1118.070312"/>
     <use xlink:href="#DejaVuSans-62" x="1179.251953"/>
     <use xlink:href="#DejaVuSans-61" x="1242.728516"/>
     <use xlink:href="#DejaVuSans-62" x="1304.007812"/>
     <use xlink:href="#DejaVuSans-69" x="1367.484375"/>
     <use xlink:href="#DejaVuSans-6c" x="1395.267578"/>
     <use xlink:href="#DejaVuSans-69" x="1423.050781"/>
     <use xlink:href="#DejaVuSans-74" x="1450.833984"/>
     <use xlink:href="#DejaVuSans-79" x="1490.042969"/>
     <use xlink:href="#DejaVuSans-20" x="1549.222656"/>
     <use xlink:href="#DejaVuSans-49" x="1581.009766"/>
     <use xlink:href="#DejaVuSans-6e" x="1610.501953"/>
     <use xlink:href="#DejaVuSans-64" x="1673.880859"/>
     <use xlink:href="#DejaVuSans-69" x="1737.357422"/>
     <use xlink:href="#DejaVuSans-63" x="1765.140625"/>
     <use xlink:href="#DejaVuSans-61" x="1820.121094"/>
     <use xlink:href="#DejaVuSans-74" x="1881.400391"/>
     <use xlink:href="#DejaVuSans-6f" x="1920.609375"/>
     <use xlink:href="#DejaVuSans-72" x="1981.791016"/>
     <use xlink:href="#DejaVuSans-20" x="2022.904297"/>
     <use xlink:href="#DejaVuSans-28" x="2054.691406"/>
     <use xlink:href="#DejaVuSans-73" x="2093.705078"/>
     <use xlink:href="#DejaVuSans-6d" x="2145.804688"/>
     <use xlink:href="#DejaVuSans-6f" x="2243.216797"/>
     <use xlink:href="#DejaVuSans-6f" x="2304.398438"/>
     <use xlink:href="#DejaVuSans-74" x="2365.580078"/>
     <use xlink:href="#DejaVuSans-68" x="2404.789062"/>
     <use xlink:href="#DejaVuSans-65" x="2468.167969"/>
     <use xlink:href="#DejaVuSans-64" x="2529.691406"/>
     <use xlink:href="#DejaVuSans-20" x="2593.167969"/>
     <use xlink:href="#DejaVuSans-33" x="2624.955078"/>
     <use xlink:href="#DejaVuSans-30" x="2688.578125"/>
     <use xlink:href="#DejaVuSans-20" x="2752.201172"/>
     <use xlink:href="#DejaVuSans-70" x="2783.988281"/>
     <use xlink:href="#DejaVuSans-65" x="2847.464844"/>
     <use xlink:href="#DejaVuSans-72" x="2908.988281"/>
     <use xlink:href="#DejaVuSans-69" x="2950.101562"/>
     <use xlink:href="#DejaVuSans-6f" x="2977.884766"/>
     <use xlink:href="#DejaVuSans-64" x="3039.066406"/>
     <use xlink:href="#DejaVuSans-73" x="3102.542969"/>
     <use xlink:href="#DejaVuSans-29" x="3154.642578"/>
     <use xlink:href="#DejaVuSans-20" x="3193.65625"/>
     <use xlink:href="#DejaVuSans-2d" x="3225.443359"/>
     <use xlink:href="#DejaVuSans-20" x="3261.527344"/>
     <use xlink:href="#DejaVuSans-31" x="3293.314453"/>
     <use xlink:href="#DejaVuSans-59" x="3356.9375"/>
     <use xlink:href="#DejaVuSans-20" x="3418.021484"/>
     <use xlink:href="#DejaVuSans-28" x="3449.808594"/>
     <use xlink:href="#DejaVuSans-55" x="3488.822266"/>
     <use xlink:href="#DejaVuSans-70" x="3562.015625"/>
     <use xlink:href="#DejaVuSans-64" x="3625.492188"/>
     <use xlink:href="#DejaVuSans-61" x="3688.96875"/>
     <use xlink:href="#DejaVuSans-74" x="3750.248047"/>
     <use xlink:href="#DejaVuSans-65" x="3789.457031"/>
     <use xlink:href="#DejaVuSans-64" x="3850.980469"/>
     <use xlink:href="#DejaVuSans-20" x="3914.457031"/>
     <use xlink:href="#DejaVuSans-32" x="3946.244141"/>
     <use xlink:href="#DejaVuSans-30" x="4009.867188"/>
     <use xlink:href="#DejaVuSans-32" x="4073.490234"/>
     <use xlink:href="#DejaVuSans-34" x="4137.113281"/>
     <use xlink:href="#DejaVuSans-2d" x="4200.736328"/>
     <use xlink:href="#DejaVuSans-30" x="4236.820312"/>
     <use xlink:href="#DejaVuSans-33" x="4300.443359"/>
     <use xlink:href="#DejaVuSans-2d" x="4364.066406"/>
     <use xlink:href="#DejaVuSans-32" x="4400.150391"/>
     <use xlink:href="#DejaVuSans-31" x="4463.773438"/>
     <use xlink:href="#DejaVuSans-20" x="4527.396484"/>
     <use xlink:href="#DejaVuSans-31" x="4559.183594"/>
     <use xlink:href="#DejaVuSans-37" x="4622.806641"/>
     <use xlink:href="#DejaVuSans-3a" x="4686.429688"/>
     <use xlink:href="#DejaVuSans-35" x="4720.121094"/>
     <use xlink:href="#DejaVuSans-32" x="4783.744141"/>
     <use xlink:href="#DejaVuSans-3a" x="4847.367188"/>
     <use xlink:href="#DejaVuSans-31" x="4881.058594"/>
     <use xlink:href="#DejaVuSans-30" x="4944.681641"/>
     <use xlink:href="#DejaVuSans-29" x="5008.304688"/>
    </g>
   </g>
  </g>
  <g id="legend_1">
   <g id="patch_11">
    <path d="M 7 37.35625 
L 83.190625 37.35625 
Q 85.190625 37.35625 85.190625 35.35625 
L 85.190625 7 
Q 85.190625 5 83.190625 5 
L 7 5 
Q 5 5 5 7 
L 5 35.35625 
Q 5 37.35625 7 37.35625 
z
" style="fill: #ffffff; opacity: 0.8; stroke: #cccccc; stroke-linejoin: miter"/>
   </g>
   <g id="line2d_23">
    <path d="M 9 13.098437 
L 19 13.098437 
L 29 13.098437 
" style="fill: none; stroke: #0000ff; stroke-width: 1.5; stroke-linecap: square"/>
   </g>
   <g id="text_25">
    <!-- VIX -->
    <g transform="translate(37 16.598437) scale(0.1 -0.1)">
     <use xlink:href="#DejaVuSans-56"/>
     <use xlink:href="#DejaVuSans-49" x="68.408203"/>
     <use xlink:href="#DejaVuSans-58" x="97.900391"/>
    </g>
   </g>
   <g id="line2d_24">
    <path d="M 9 27.776563 
L 19 27.776563 
L 29 27.776563 
" style="fill: none; stroke: #ff0000; stroke-width: 1.5; stroke-linecap: square"/>
   </g>
   <g id="text_26">
    <!-- Indicator -->
    <g transform="translate(37 31.276563) scale(0.1 -0.1)">
     <use xlink:href="#DejaVuSans-49"/>
     <use xlink:href="#DejaVuSans-6e" x="29.492188"/>
     <use xlink:href="#DejaVuSans-64" x="92.871094"/>
     <use xlink:href="#DejaVuSans-69" x="156.347656"/>
     <use xlink:href="#DejaVuSans-63" x="184.130859"/>
     <use xlink:href="#DejaVuSans-61" x="239.111328"/>
     <use xlink:href="#DejaVuSans-74" x="300.390625"/>
     <use xlink:href="#DejaVuSans-6f" x="339.599609"/>
     <use xlink:href="#DejaVuSans-72" x="400.78125"/>
    </g>
   </g>
  </g>
 </g>
 <defs>
  <clipPath id="pbec52e62ea">
   <rect x="162" y="34.56" width="1004.4" height="221.76"/>
  </clipPath>
 </defs>
</svg>
